<svg xmlns="http://www.w3.org/2000/svg" width="69" height="68.977" viewBox="0 0 69 68.977">
  <g id="creative-idea" transform="translate(0 -0.082)">
    <g id="Group_13" data-name="Group 13" transform="translate(0 0.082)">
      <path id="Path_17" data-name="Path 17" d="M66.7,33.421a1.218,1.218,0,0,0-1.091.722l-1.025,2.564L62.038,27.37a1.151,1.151,0,0,0-1-.841,1.137,1.137,0,0,0-1.142.63L56.77,33.421h-1.76a22.992,22.992,0,1,0-41.041,0l-.15,0a1.206,1.206,0,0,0-1.091.722L11.7,36.707,9.156,27.37a1.151,1.151,0,0,0-1-.841,1.133,1.133,0,0,0-1.142.63L3.888,33.421H0v2.3H4.6a1.15,1.15,0,0,0,1.028-.635l2.1-4.207,2.657,9.743a1.151,1.151,0,0,0,1.044.845l.065,0a1.15,1.15,0,0,0,1.068-.722l2-5.01.771.016A22.935,22.935,0,0,0,17.28,38.3a1.147,1.147,0,0,0,.157.352c3.773,5.659,3.993,6.832,4.648,10.313.121.639.255,1.349.424,2.167a5.148,5.148,0,0,0,2.252,3.313,3.426,3.426,0,0,0,.992,4.87,3.4,3.4,0,0,0,1.15,4.6,3.408,3.408,0,0,0-.461,1.691,3.453,3.453,0,0,0,3.449,3.449h9.2a3.453,3.453,0,0,0,3.449-3.449,3.408,3.408,0,0,0-.461-1.691,3.4,3.4,0,0,0,1.15-4.6,3.426,3.426,0,0,0,.992-4.87,5.145,5.145,0,0,0,2.252-3.31c.17-.82.3-1.53.424-2.17.655-3.481.875-4.654,4.648-10.313A1.147,1.147,0,0,0,51.7,38.3a22.933,22.933,0,0,0,1.962-2.584H57.48a1.15,1.15,0,0,0,1.028-.635l2.1-4.207,2.657,9.743a1.151,1.151,0,0,0,1.044.845l.065,0a1.15,1.15,0,0,0,1.068-.722l2-5.01,1.5.03.047-2.3ZM39.087,66.759h-9.2a1.15,1.15,0,1,1,0-2.3h9.2a1.15,1.15,0,1,1,0,2.3Zm1.15-4.6H28.74a1.15,1.15,0,0,1,0-2.3h11.5a1.15,1.15,0,0,1,0,2.3Zm1.15-4.6h-13.8a1.15,1.15,0,1,1,0-2.3h13.8a1.15,1.15,0,1,1,0,2.3ZM49.562,37.23a1.155,1.155,0,0,0-.311.717c-3.677,5.581-3.961,7.1-4.62,10.6-.118.626-.249,1.323-.416,2.13a2.792,2.792,0,0,1-2.726,2.289H39.307L42.35,35.72h1.335a3.453,3.453,0,0,0,3.449-3.449v-4.6h3.449a1.149,1.149,0,0,0,1.15-1.15V20.775a3.453,3.453,0,0,0-3.449-3.449V13.877a3.453,3.453,0,0,0-3.449-3.449h-1.15A3.453,3.453,0,0,0,40.236,6.98H36.787a1.149,1.149,0,0,0-1.15,1.15V34.57a1.149,1.149,0,0,0,1.15,1.15h3.229L36.973,52.964H32L28.96,35.72h3.229a1.149,1.149,0,0,0,1.15-1.15V8.129a1.149,1.149,0,0,0-1.15-1.15H28.74a3.453,3.453,0,0,0-3.449,3.449h-1.15a3.453,3.453,0,0,0-3.449,3.449v3.449a3.453,3.453,0,0,0-3.449,3.449v8.047a1.149,1.149,0,0,0,1.15,1.15h3.449v2.3a3.453,3.453,0,0,0,3.449,3.449h1.335L29.67,52.964H27.487a2.792,2.792,0,0,1-2.726-2.291c-.167-.8-.3-1.5-.416-2.127-.659-3.5-.943-5.017-4.62-10.6a1.155,1.155,0,0,0-.311-.717,20.693,20.693,0,1,1,30.148,0Zm-7.027-17.6V16.176a1.149,1.149,0,0,0-1.15-1.15H37.937V9.279h2.3a1.151,1.151,0,0,1,1.15,1.15v1.15a1.149,1.149,0,0,0,1.15,1.15h2.3a1.151,1.151,0,0,1,1.15,1.15v4.6a1.149,1.149,0,0,0,1.15,1.15h1.15a1.151,1.151,0,0,1,1.15,1.15v4.6H41.386a1.149,1.149,0,0,0-1.15,1.15v2.3h2.3v-1.15h2.3v4.6a1.151,1.151,0,0,1-1.15,1.15H37.937V17.326h2.3v2.3ZM22.992,23.074a1.149,1.149,0,0,0-1.15,1.15v3.449h-2.3v-6.9a1.151,1.151,0,0,1,1.15-1.15h1.15a1.149,1.149,0,0,0,1.15-1.15v-4.6a1.151,1.151,0,0,1,1.15-1.15h1.15v2.3h2.3v-4.6a1.151,1.151,0,0,1,1.15-1.15h2.3V33.421H25.291a1.151,1.151,0,0,1-1.15-1.15v-6.9h2.3v-2.3Z" transform="translate(0 -0.082)" fill="#ffedec"/>
    </g>
  </g>
</svg>
