<svg xmlns="http://www.w3.org/2000/svg" width="72.024" height="72" viewBox="0 0 72.024 72">
  <g id="Group_863" data-name="Group 863" transform="translate(-292 -1266)">
    <path id="Path_18" data-name="Path 18" d="M325.4,1302v-27.6h-3.8l-1.6,1.8-.8,1.8h-3l-1.4,2v5l-2.8.8-1.2,2.4v7.6h5.4v3.4a1.93,1.93,0,0,0,1.4,2.8C320,1302.6,325.4,1302,325.4,1302Z" fill="#fad20a"/>
    <path id="Path_19" data-name="Path 19" d="M310.8,1302v-27.6h3.8l1.6,1.8.8,1.8h3l1.4,2v5l2.8.8,1.2,2.4v5.6H320v5.4a1.93,1.93,0,0,1-1.4,2.8C316.2,1302.6,310.8,1302,310.8,1302Z" transform="translate(20)" fill="#32c8f5"/>
    <g id="creative-idea" transform="translate(292 1265.918)">
      <g id="Group_13" data-name="Group 13" transform="translate(0 0.082)">
        <path id="Path_17" data-name="Path 17" d="M69.624,34.882a1.271,1.271,0,0,0-1.139.754l-1.07,2.676-2.658-9.746a1.2,1.2,0,0,0-1.039-.878,1.187,1.187,0,0,0-1.192.657l-3.268,6.537H57.421a24,24,0,1,0-42.84,0l-.156,0a1.258,1.258,0,0,0-1.139.754l-1.07,2.676L9.558,28.566a1.2,1.2,0,0,0-1.039-.878,1.183,1.183,0,0,0-1.192.657L4.058,34.882H0v2.4H4.8a1.2,1.2,0,0,0,1.073-.663l2.195-4.391L10.842,42.4a1.2,1.2,0,0,0,1.09.882l.068,0a1.2,1.2,0,0,0,1.114-.754L15.206,37.3l.805.016a23.94,23.94,0,0,0,2.026,2.665,1.2,1.2,0,0,0,.164.368c3.939,5.907,4.168,7.131,4.852,10.765.127.667.266,1.409.443,2.262a5.374,5.374,0,0,0,2.35,3.458,3.576,3.576,0,0,0,1.035,5.084,3.545,3.545,0,0,0,1.2,4.8,3.557,3.557,0,0,0-.482,1.765,3.6,3.6,0,0,0,3.6,3.6h9.6a3.6,3.6,0,0,0,3.6-3.6,3.557,3.557,0,0,0-.482-1.765,3.545,3.545,0,0,0,1.2-4.8,3.576,3.576,0,0,0,1.035-5.084,5.371,5.371,0,0,0,2.35-3.456c.177-.856.316-1.6.443-2.265.683-3.634.913-4.858,4.852-10.765a1.2,1.2,0,0,0,.164-.368,23.937,23.937,0,0,0,2.048-2.7H60a1.2,1.2,0,0,0,1.073-.663l2.195-4.391L66.042,42.4a1.2,1.2,0,0,0,1.09.882l.068,0a1.2,1.2,0,0,0,1.114-.754L70.406,37.3l1.569.032.049-2.4ZM40.8,69.682H31.2a1.2,1.2,0,1,1,0-2.4h9.6a1.2,1.2,0,1,1,0,2.4Zm1.2-4.8H30a1.2,1.2,0,0,1,0-2.4H42a1.2,1.2,0,0,1,0,2.4Zm1.2-4.8H28.8a1.2,1.2,0,1,1,0-2.4H43.2a1.2,1.2,0,1,1,0,2.4Zm8.535-21.224a1.205,1.205,0,0,0-.325.749c-3.838,5.826-4.134,7.407-4.822,11.062-.123.654-.26,1.381-.435,2.224a2.914,2.914,0,0,1-2.845,2.389H41.03l3.176-18H45.6a3.6,3.6,0,0,0,3.6-3.6v-4.8h3.6a1.2,1.2,0,0,0,1.2-1.2v-6a3.6,3.6,0,0,0-3.6-3.6v-3.6a3.6,3.6,0,0,0-3.6-3.6H45.6a3.6,3.6,0,0,0-3.6-3.6H38.4a1.2,1.2,0,0,0-1.2,1.2v27.6a1.2,1.2,0,0,0,1.2,1.2h3.37l-3.176,18H33.406l-3.176-18H33.6a1.2,1.2,0,0,0,1.2-1.2V8.482a1.2,1.2,0,0,0-1.2-1.2H30a3.6,3.6,0,0,0-3.6,3.6H25.2a3.6,3.6,0,0,0-3.6,3.6v3.6a3.6,3.6,0,0,0-3.6,3.6v8.4a1.2,1.2,0,0,0,1.2,1.2h3.6v2.4a3.6,3.6,0,0,0,3.6,3.6h1.394l3.176,18H28.692a2.914,2.914,0,0,1-2.845-2.392c-.175-.84-.312-1.567-.435-2.221-.688-3.656-.984-5.236-4.822-11.062a1.205,1.205,0,0,0-.325-.749,21.6,21.6,0,1,1,31.469,0ZM44.4,20.482v-3.6a1.2,1.2,0,0,0-1.2-1.2H39.6v-6H42a1.2,1.2,0,0,1,1.2,1.2v1.2a1.2,1.2,0,0,0,1.2,1.2h2.4a1.2,1.2,0,0,1,1.2,1.2v4.8a1.2,1.2,0,0,0,1.2,1.2h1.2a1.2,1.2,0,0,1,1.2,1.2v4.8H43.2a1.2,1.2,0,0,0-1.2,1.2v2.4h2.4v-1.2h2.4v4.8a1.2,1.2,0,0,1-1.2,1.2h-6v-16.8H42v2.4ZM24,24.082a1.2,1.2,0,0,0-1.2,1.2v3.6H20.4v-7.2a1.2,1.2,0,0,1,1.2-1.2h1.2a1.2,1.2,0,0,0,1.2-1.2v-4.8a1.2,1.2,0,0,1,1.2-1.2h1.2v2.4h2.4v-4.8a1.2,1.2,0,0,1,1.2-1.2h2.4v25.2h-6a1.2,1.2,0,0,1-1.2-1.2v-7.2h2.4v-2.4Z" transform="translate(0 -0.082)" fill="#4d4d4d"/>
      </g>
    </g>
  </g>
</svg>
