<svg id="rupee" xmlns="http://www.w3.org/2000/svg" width="75.449" height="68.691" viewBox="0 0 75.449 68.691">
  <path id="Path_15228" data-name="Path 15228" d="M143.6,259.447a1.105,1.105,0,0,0,1.105,1.105h6.949a3.4,3.4,0,0,1-3.206,2.292h-2.295a1.8,1.8,0,0,0-1.413,2.926l6.748,8.494a1.105,1.105,0,0,0,1.731-1.375l-6.224-7.835h1.453a5.622,5.622,0,0,0,5.494-4.5h1.937a1.105,1.105,0,1,0,0-2.21h-1.911a5.411,5.411,0,0,0-.99-2.292h2.9a1.105,1.105,0,0,0,0-2.21H144.7a1.105,1.105,0,1,0,0,2.21h3.88a3.264,3.264,0,0,1,3.113,2.292H144.7A1.1,1.1,0,0,0,143.6,259.447Z" transform="translate(-122.437 -219.813)" fill="#fadc0a"/>
  <path id="Path_15229" data-name="Path 15229" d="M74.823,84.6l-5.357-9.278a1.105,1.105,0,0,0-1.914,1.105l5.357,9.278a2.468,2.468,0,1,1-4.274,2.468L58.986,71.463A2.468,2.468,0,0,1,63.26,69l1.713,2.967a1.105,1.105,0,0,0,1.914-1.105L65.174,67.89a4.678,4.678,0,0,0-8.1,4.678l1.472,2.55H55.688c-.244-4-3.42-10.427-9.454-19.109-3.111-4.475-6.248-8.479-7.976-10.63a4.013,4.013,0,0,0,2.468-2.007c2.493.308,4.481,2.676,5.224,5.062.151.484.286.974.429,1.493a13.31,13.31,0,0,0,2.6,5.693,1.105,1.105,0,0,0,1.639-1.484,11.514,11.514,0,0,1-2.107-4.8c-.142-.513-.288-1.044-.45-1.562A10.489,10.489,0,0,0,45.1,43.112,7.547,7.547,0,0,0,41.163,41.2a3.968,3.968,0,0,0-.588-1.776,4.733,4.733,0,0,1,4.615-.454,11.665,11.665,0,0,1,1.98,1.242,8.874,8.874,0,0,0,3.8,1.885,1.105,1.105,0,0,0,.343-2.184,7.145,7.145,0,0,1-2.846-1.495A13.484,13.484,0,0,0,46.09,36.95a7.129,7.129,0,0,0-7.231.954,3.964,3.964,0,0,0-1.116-.33,17,17,0,0,0,1.641-2.33c.281-.479.533-.958.749-1.423a1.105,1.105,0,1,0-2.005-.931c-.186.4-.405.817-.65,1.234a13.021,13.021,0,0,1-2.8,3.41H31.964q.2-.731.385-1.571a25.615,25.615,0,0,0,.489-3.24,1.105,1.105,0,1,0-2.2-.18,23.465,23.465,0,0,1-.448,2.958c-.159.747-.34,1.434-.531,2.032H26.05c-.19-.594-.37-1.281-.53-2.032a23.105,23.105,0,0,1-.446-2.957,1.105,1.105,0,0,0-2.2.176,25.352,25.352,0,0,0,.488,3.242q.18.842.385,1.57h-2.71a13.018,13.018,0,0,1-2.8-3.409c-2.018-3.433-1.972-6.225.131-8.076a2.582,2.582,0,0,1,3.3-.5,4.162,4.162,0,0,0,4.35.118,3.5,3.5,0,0,1,3.682,0,4.167,4.167,0,0,0,4.353-.119c.691-.425,1.787-.835,3.3.5a4.563,4.563,0,0,1,1.51,2.512,1.105,1.105,0,1,0,2.163-.455,6.727,6.727,0,0,0-2.213-3.716,4.714,4.714,0,0,0-5.916-.723,1.969,1.969,0,0,1-2.074.1,5.693,5.693,0,0,0-5.93,0,1.964,1.964,0,0,1-2.071-.1,4.713,4.713,0,0,0-5.918.722A6.747,6.747,0,0,0,14.567,28.9a10.738,10.738,0,0,0,1.757,6.347,16.962,16.962,0,0,0,1.64,2.329,4,4,0,0,0-.516,7.8C16.386,46.7,14.8,48.714,13.016,51.1a1.105,1.105,0,1,0,1.771,1.323c2.492-3.337,4.6-5.939,5.387-6.894H35.533c1.132,1.379,5.029,6.193,8.887,11.743,7.029,10.113,8.854,15.259,9.056,17.848H39.526a4.676,4.676,0,0,0-3.015,8.251,4.668,4.668,0,0,0-.957,6.04H14.822C12.048,89.409,8.844,87.7,6.9,86a13.412,13.412,0,0,1-4.688-10.4c0-2.472,1.652-7.771,9.521-18.971a1.105,1.105,0,0,0-1.809-1.271C3.338,64.736,0,71.546,0,75.606A15.568,15.568,0,0,0,5.446,87.669a15.485,15.485,0,0,0,9.376,3.951h44a4.675,4.675,0,0,0,3.015-8.251,4.716,4.716,0,0,0,.891-1l3.992,6.914a4.678,4.678,0,0,0,8.1-4.678ZM16.739,41.531a1.789,1.789,0,0,1,1.786-1.786H37.18a1.786,1.786,0,1,1,0,3.573H18.525a1.789,1.789,0,0,1-1.786-1.786ZM61.29,86.942a2.47,2.47,0,0,1-2.468,2.468H39.515a2.468,2.468,0,0,1,.01-4.935h19.3a2.471,2.471,0,0,1,2.468,2.468Zm-2.468-4.678h-19.3a2.468,2.468,0,0,1,0-4.935h19.3a2.458,2.458,0,0,1,1.168.295l1.3,2.246A2.469,2.469,0,0,1,58.822,82.264Z" transform="translate(0 -22.93)" fill="#fadc0a"/>
</svg>
