<?xml version="1.0" encoding="utf-8"?>
<!-- Generator: Adobe Illustrator 14.0.0, SVG Export Plug-In . SVG Version: 6.00 Build 43363)  -->
<!DOCTYPE svg PUBLIC "-//W3C//DTD SVG 1.1//EN" "http://www.w3.org/Graphics/SVG/1.1/DTD/svg11.dtd">
<svg version="1.1" id="Layer_1" xmlns="http://www.w3.org/2000/svg" xmlns:xlink="http://www.w3.org/1999/xlink" x="0px" y="0px"
	 width="13.494px" height="17.723px" viewBox="0 0 13.494 17.723" enable-background="new 0 0 13.494 17.723" xml:space="preserve">
<path id="Path_550" fill="#585858" d="M11.517,1.2H8.623C8.147,0.164,6.922-0.291,5.886,0.185C5.438,0.391,5.077,0.751,4.871,1.2
	H1.978C0.894,1.193,0.008,2.066,0,3.15l0,0v12.626c0.01,1.083,0.894,1.953,1.977,1.946h9.54c1.083,0.007,1.967-0.863,1.978-1.946
	V3.15C13.486,2.066,12.601,1.193,11.517,1.2z M5.2,2.089C5.41,2.09,5.593,1.946,5.64,1.741C5.767,1.235,6.225,0.88,6.747,0.886
	c0.523-0.007,0.984,0.347,1.111,0.855c0.047,0.204,0.229,0.35,0.439,0.348H9.19v0.389c-0.006,0.59-0.488,1.064-1.078,1.061H5.381
	C4.79,3.544,4.306,3.07,4.3,2.479c0,0,0,0,0-0.001V2.089H5.2z M12.601,15.776c-0.006,0.59-0.488,1.064-1.078,1.061H1.978
	c-0.59,0.004-1.073-0.47-1.078-1.061V3.15c0.005-0.59,0.487-1.063,1.077-1.06H3.4v0.389c0.01,1.085,0.897,1.956,1.981,1.946h2.731
	c1.084,0.007,1.969-0.864,1.978-1.947V2.089h1.427c0.59-0.004,1.072,0.471,1.078,1.061L12.601,15.776z"/>
<path id="Path_551" fill="#585858" d="M9.198,7.751l-3.23,3.154l-1.641-1.6c-0.193-0.191-0.505-0.19-0.696,0.003
	C3.439,9.5,3.441,9.813,3.634,10.004l0.007,0.006l1.983,1.938c0.191,0.188,0.498,0.188,0.688,0l3.573-3.489
	c0.178-0.206,0.156-0.517-0.049-0.694c-0.184-0.158-0.453-0.16-0.639-0.006V7.751z"/>
</svg>
