<svg xmlns="http://www.w3.org/2000/svg" width="59.385" height="53.157" viewBox="0 0 59.385 53.157">
  <g id="Group_1084" data-name="Group 1084" transform="translate(-684.667 -284.301)">
    <g id="technical-support" transform="translate(684.667 284.301)">
      <path id="Path_924" data-name="Path 924" d="M395.692,44.922a2.872,2.872,0,1,1-2.872-2.872A2.872,2.872,0,0,1,395.692,44.922Zm0,0" transform="translate(-354.956 -38.277)" fill="#fad20a"/>
      <path id="Path_925" data-name="Path 925" d="M63.794,408.821a2.872,2.872,0,1,1-2.872-2.872A2.872,2.872,0,0,1,63.794,408.821Zm0,0" transform="translate(-52.842 -369.52)" fill="#fad20a"/>
      <path id="Path_926" data-name="Path 926" d="M112.414,96.622a13.226,13.226,0,0,0-1.823-4.4l1.719-1.72-3.969-3.966-1.718,1.718a13.226,13.226,0,0,0-4.4-1.824V84H96.612v2.43a10.085,10.085,0,0,1-6.119.106L86.524,90.5l1.719,1.72a13.226,13.226,0,0,0-1.823,4.4H83.984l0,5.611H86.42a13.21,13.21,0,0,0,1.823,4.4l-1.726,1.726,3.966,3.969,1.727-1.727a13.21,13.21,0,0,0,4.4,1.823v2.446h5.611v-2.446a13.216,13.216,0,0,0,4.4-1.823l1.727,1.727,3.966-3.969-1.726-1.726a13.21,13.21,0,0,0,1.823-4.4h2.439V96.622Zm-13,9.331a6.518,6.518,0,1,1,6.518-6.518A6.517,6.517,0,0,1,99.417,105.953Zm0,0" transform="translate(-76.444 -76.462)" fill="#32c8f5"/>
      <path id="Path_927" data-name="Path 927" d="M8.081,35.531a3.746,3.746,0,0,0-1.81.462A21.188,21.188,0,0,1,27.19,2.214.9.9,0,0,0,27.546.455,23.144,23.144,0,0,0,22.972,0,22.973,22.973,0,0,0,4.943,37.209a3.77,3.77,0,1,0,3.137-1.678Zm1.4,5.165a1.974,1.974,0,1,1,.578-1.4A1.96,1.96,0,0,1,9.476,40.7Zm0,0" transform="translate(0 0.001)" fill="#4d4d4d"/>
      <path id="Path_928" data-name="Path 928" d="M220.763,37.909a3.761,3.761,0,1,0-1.326,1.217,21.188,21.188,0,0,1-20.879,33.787.9.9,0,1,0-.352,1.76,23.159,23.159,0,0,0,4.53.447,22.973,22.973,0,0,0,18.029-37.211Zm-4.532-.693a1.975,1.975,0,1,1,1.4.578A1.961,1.961,0,0,1,216.231,37.216Zm0,0" transform="translate(-179.762 -29.174)" fill="#4d4d4d"/>
      <path id="Path_929" data-name="Path 929" d="M86.615,105.767a.9.9,0,0,0,.9.9h5.611a.9.9,0,0,0,.9-.9v-1.74a14.053,14.053,0,0,0,3.368-1.4l1.228,1.228a.9.9,0,0,0,1.269,0l3.966-3.969a.9.9,0,0,0,0-1.269l-1.227-1.227a14.053,14.053,0,0,0,1.4-3.368h1.733a.9.9,0,0,0,.9-.9V87.518a.9.9,0,0,0-.9-.9h-1.733a14.055,14.055,0,0,0-1.4-3.368l1.22-1.22a.9.9,0,0,0,0-1.27L99.876,76.8a.9.9,0,0,0-1.269,0l-1.218,1.219a14.053,14.053,0,0,0-3.368-1.4V74.9a.9.9,0,0,0-.9-.9H87.512a.9.9,0,0,0-.9.9v1.724a14.041,14.041,0,0,0-3.368,1.4L82.028,76.8a.9.9,0,0,0-1.269,0l-3.969,3.966a.9.9,0,0,0,0,1.269l1.22,1.22a14.05,14.05,0,0,0-1.4,3.368h-1.73a.9.9,0,0,0-.9.9l0,5.611a.9.9,0,0,0,.9.9h1.733a14.052,14.052,0,0,0,1.4,3.368l-1.227,1.227a.9.9,0,0,0,0,1.269l3.966,3.969a.9.9,0,0,0,.634.263h0a.9.9,0,0,0,.634-.263l1.228-1.228a14.065,14.065,0,0,0,3.368,1.4ZM83.6,100.744a.9.9,0,0,0-1.122.119l-1.093,1.093-2.7-2.7,1.092-1.092a.9.9,0,0,0,.119-1.121,12.283,12.283,0,0,1-1.7-4.1.9.9,0,0,0-.877-.709H75.779l0-3.816h1.539a.9.9,0,0,0,.877-.709,12.284,12.284,0,0,1,1.7-4.1.9.9,0,0,0-.119-1.121L78.694,81.4l2.7-2.7,1.084,1.084A.9.9,0,0,0,83.6,79.9a12.278,12.278,0,0,1,4.1-1.7.9.9,0,0,0,.709-.877V75.795h3.816v1.532a.9.9,0,0,0,.709.877,12.288,12.288,0,0,1,4.1,1.7.9.9,0,0,0,1.121-.119L99.242,78.7l2.7,2.7-1.085,1.085a.9.9,0,0,0-.119,1.122,12.291,12.291,0,0,1,1.7,4.1.9.9,0,0,0,.877.709h1.542v3.816h-1.542a.9.9,0,0,0-.877.709,12.281,12.281,0,0,1-1.7,4.1.9.9,0,0,0,.119,1.122l1.092,1.092-2.7,2.7-1.093-1.092a.9.9,0,0,0-1.122-.119,12.292,12.292,0,0,1-4.1,1.7.9.9,0,0,0-.709.877v1.548H88.409v-1.548a.9.9,0,0,0-.709-.877A12.284,12.284,0,0,1,83.6,100.744Zm0,0" transform="translate(-67.345 -67.359)" fill="#4d4d4d"/>
      <path id="Path_930" data-name="Path 930" d="M188.2,180.786a7.415,7.415,0,1,0-7.415,7.415A7.423,7.423,0,0,0,188.2,180.786Zm-13.035,0a5.62,5.62,0,1,1,5.62,5.62A5.626,5.626,0,0,1,175.166,180.786Zm0,0" transform="translate(-157.813 -157.813)" fill="#4d4d4d"/>
    </g>
    <g id="Group_1076" data-name="Group 1076" transform="translate(730.51 311.59) rotate(45)">
      <path id="Subtraction_1" data-name="Subtraction 1" d="M.006,17.433H0V0H.006A7.968,7.968,0,0,1,5.833,2.552,8.93,8.93,0,0,1,8.245,8.716,8.5,8.5,0,0,1,.006,17.433Z" transform="translate(8.907 0)" fill="none" stroke="#4d4d4d" stroke-width="2"/>
      <g id="checked" transform="translate(0 1.071)">
        <path id="Path_934" data-name="Path 934" d="M8.239,0A8.239,8.239,0,1,1,0,8.239,8.239,8.239,0,0,1,8.239,0Z" transform="translate(0 0)" fill="#fad20a" stroke="#fff" stroke-width="2"/>
        <path id="Path_932" data-name="Path 932" d="M10.292,1.234,9.161.113a.4.4,0,0,0-.56,0L3.766,5.107,1.674,3.045a.4.4,0,0,0-.56,0l-1,.991a.393.393,0,0,0,0,.551L3.456,7.9a.406.406,0,0,0,.33.11.406.406,0,0,0,.33-.11l6.176-6.105A.405.405,0,0,0,10.292,1.234Z" transform="translate(1.853 9.396) rotate(-49)" fill="#fff"/>
      </g>
    </g>
  </g>
</svg>
