<svg id="Group_1659" data-name="Group 1659" xmlns="http://www.w3.org/2000/svg" width="11.569" height="15.195" viewBox="0 0 11.569 15.195">
  <path id="Path_1028" data-name="Path 1028" d="M5.874,1.032H3.393a1.769,1.769,0,0,0-3.217,0H-2.3A1.684,1.684,0,0,0-4,2.7V13.526A1.684,1.684,0,0,0-2.3,15.2H5.874a1.684,1.684,0,0,0,1.7-1.669V2.7a1.684,1.684,0,0,0-1.7-1.669Zm-5.418.76a.385.385,0,0,0,.377-.3A.968.968,0,0,1,1.785.76a.968.968,0,0,1,.952.733.384.384,0,0,0,.377.3h.765v.333a.917.917,0,0,1-.923.909H.614A.917.917,0,0,1-.31,2.125V1.791ZM6.8,13.526a.917.917,0,0,1-.924.909H-2.3a.917.917,0,0,1-.923-.909V2.7A.917.917,0,0,1-2.3,1.791h1.223v.333a1.684,1.684,0,0,0,1.7,1.669H2.956a1.684,1.684,0,0,0,1.7-1.669V1.791H5.874A.917.917,0,0,1,6.8,2.7Zm0,0" transform="translate(4 0)" fill="#5f4ba0"/>
  <path id="Path_1029" data-name="Path 1029" d="M105.152,227.562l-2.769,2.7-1.406-1.373a.422.422,0,0,0-.6.6l.006.006,1.7,1.661a.422.422,0,0,0,.589,0l3.064-2.991a.422.422,0,0,0-.589-.6Zm0,0" transform="translate(-96.741 -221.446)" fill="#5f4ba0"/>
</svg>
