<?xml version="1.0" encoding="utf-8"?>
<!-- Generator: Adobe Illustrator 16.0.0, SVG Export Plug-In . SVG Version: 6.00 Build 0)  -->
<!DOCTYPE svg PUBLIC "-//W3C//DTD SVG 1.1//EN" "http://www.w3.org/Graphics/SVG/1.1/DTD/svg11.dtd">
<svg version="1.1" id="Group_175" xmlns="http://www.w3.org/2000/svg" xmlns:xlink="http://www.w3.org/1999/xlink" x="0px" y="0px"
	 width="21.73px" height="20.621px" viewBox="0 0 21.73 20.621" enable-background="new 0 0 21.73 20.621" xml:space="preserve">
<g>
	<g>
		<path fill="#333366" d="M18.365,0.311h-15c-1.378,0-2.5,1.122-2.5,2.5v15c0,1.379,1.122,2.5,2.5,2.5h15c1.38,0,2.5-1.121,2.5-2.5
			v-15C20.865,1.432,19.745,0.311,18.365,0.311z M19.2,17.811c0,0.461-0.375,0.834-0.835,0.834h-15
			c-0.459,0-0.833-0.373-0.833-0.834v-15c0-0.459,0.375-0.833,0.833-0.833h15c0.46,0,0.835,0.375,0.835,0.833V17.811z"/>
	</g>
</g>
<g>
	<g>
		<path fill="#333366" d="M6.633,4.994C6.591,4.886,6.532,4.803,6.458,4.719c-0.042-0.033-0.083-0.066-0.125-0.1
			C6.282,4.586,6.232,4.561,6.183,4.544c-0.051-0.025-0.101-0.042-0.15-0.05C5.865,4.46,5.7,4.477,5.55,4.543
			c-0.1,0.042-0.191,0.1-0.274,0.175C5.2,4.802,5.14,4.886,5.099,4.994c-0.042,0.1-0.067,0.208-0.067,0.317s0.025,0.217,0.067,0.317
			C5.141,5.735,5.2,5.818,5.274,5.902c0.159,0.15,0.375,0.242,0.593,0.242c0.05,0,0.107-0.008,0.167-0.017
			c0.05-0.008,0.1-0.025,0.149-0.05c0.05-0.017,0.101-0.042,0.149-0.075c0.042-0.034,0.083-0.067,0.125-0.1
			C6.607,5.744,6.7,5.527,6.7,5.31C6.7,5.202,6.674,5.094,6.633,4.994z"/>
	</g>
</g>
<g>
	<g>
		<path fill="#333366" d="M15.865,4.477H9.2c-0.461,0-0.833,0.374-0.833,0.833S8.739,6.144,9.2,6.144h6.665
			c0.462,0,0.835-0.374,0.835-0.833S16.327,4.477,15.865,4.477z"/>
	</g>
</g>
<g>
	<g>
		<path fill="#333366" d="M6.682,10.144c-0.009-0.05-0.025-0.1-0.051-0.15c-0.018-0.05-0.042-0.1-0.074-0.15
			C6.523,9.802,6.49,9.761,6.457,9.719C6.375,9.644,6.282,9.585,6.182,9.543c-0.2-0.083-0.435-0.083-0.634,0
			c-0.1,0.042-0.191,0.1-0.274,0.175C5.242,9.76,5.209,9.801,5.174,9.843c-0.033,0.05-0.06,0.1-0.074,0.15
			c-0.024,0.05-0.042,0.1-0.051,0.15C5.04,10.201,5.031,10.26,5.031,10.31c0,0.217,0.093,0.433,0.242,0.592
			c0.158,0.148,0.374,0.24,0.591,0.24c0.218,0,0.435-0.092,0.593-0.24c0.15-0.157,0.243-0.375,0.243-0.591
			C6.7,10.261,6.69,10.202,6.682,10.144z"/>
	</g>
</g>
<g>
	<g>
		<path fill="#333366" d="M15.865,9.477H9.2c-0.461,0-0.833,0.374-0.833,0.833s0.372,0.834,0.833,0.834h6.665
			c0.462,0,0.835-0.374,0.835-0.833S16.327,9.477,15.865,9.477z"/>
	</g>
</g>
<g>
	<g>
		<path fill="#333366" d="M6.633,14.993c-0.042-0.106-0.101-0.19-0.175-0.274c-0.232-0.226-0.601-0.3-0.908-0.175
			c-0.1,0.041-0.191,0.101-0.274,0.175C5.2,14.802,5.14,14.895,5.099,14.993c-0.041,0.101-0.067,0.209-0.067,0.315
			c0,0.226,0.083,0.435,0.242,0.592c0.159,0.158,0.367,0.242,0.593,0.242c0.225,0,0.434-0.084,0.592-0.242
			c0.158-0.157,0.242-0.366,0.242-0.592C6.7,15.202,6.682,15.093,6.633,14.993z"/>
	</g>
</g>
<g>
	<g>
		<path fill="#333366" d="M15.865,14.479H9.2c-0.461,0-0.833,0.371-0.833,0.832S8.74,16.145,9.2,16.145h6.665
			c0.462,0,0.835-0.373,0.835-0.834S16.327,14.479,15.865,14.479z"/>
	</g>
</g>
</svg>
