<svg xmlns="http://www.w3.org/2000/svg" width="53.161" height="33.509" viewBox="0 0 53.161 33.509">
  <g id="Group_1282" data-name="Group 1282" transform="translate(53.161) rotate(90)">
    <g id="bookmark_1_" data-name="bookmark(1)" transform="translate(0)">
      <path id="Path_1196" data-name="Path 1196" d="M3.628,0C1.625,0,0,2.244,0,5.01V53.161L12.833,41.348,25.667,53.161V5.907C25.667,2.658,27.592,0,29.944,0Z" fill="#32c8f5"/>
      <path id="Path_1197" data-name="Path 1197" d="M4.214,0C1.89.01,0,.532,0,1.171V4.492H7.843V1C7.843.451,6.221,0,4.214,0Z" transform="translate(25.667 0.004)" fill="#149fc8"/>
    </g>
    <g id="bookmark-star" transform="translate(6.534 19.049)">
      <path id="Path_1198" data-name="Path 1198" d="M6.193.287a.515.515,0,0,1,.924,0L8.774,3.645a.515.515,0,0,0,.388.282l3.706.538a.515.515,0,0,1,.285.879L10.472,7.958a.516.516,0,0,0-.148.456l.633,3.691a.516.516,0,0,1-.748.544L6.894,10.905a.515.515,0,0,0-.479,0L3.1,12.648a.515.515,0,0,1-.748-.543l.633-3.691a.515.515,0,0,0-.148-.456L.156,5.344a.515.515,0,0,1,.286-.879l3.706-.538a.515.515,0,0,0,.388-.282Z" transform="translate(0)" fill="#fff"/>
    </g>
  </g>
</svg>
