<svg xmlns="http://www.w3.org/2000/svg" width="17.02" height="16.291" viewBox="0 0 17.02 16.291">
  <g id="bookmark-star" transform="translate(100.51 -0.549)">
    <path id="Path_1033" data-name="Path 1033" d="M7.446,1.394a.619.619,0,0,1,1.111,0l1.992,4.037a.62.62,0,0,0,.467.339l4.455.647a.619.619,0,0,1,.343,1.056L12.59,10.616a.62.62,0,0,0-.178.548l.761,4.437a.62.62,0,0,1-.9.653l-3.985-2.1a.619.619,0,0,0-.576,0L3.727,16.254a.619.619,0,0,1-.9-.653l.761-4.437a.619.619,0,0,0-.178-.548L.187,7.473A.619.619,0,0,1,.531,6.417L4.986,5.77a.619.619,0,0,0,.466-.339Z" transform="translate(-100)" fill="none" stroke="#5f4ba0" stroke-width="1"/>
  </g>
</svg>
