<svg width="53.161" height="33.509" xmlns="http://www.w3.org/2000/svg">

 <g>
  <title>background</title>
  <rect fill="none" id="canvas_background" height="402" width="582" y="-1" x="-1"/>
 </g>
 <g>
  <title>Layer 1</title>
  <g transform="rotate(90 26.58049774169922,16.755001068115238) " id="bookmark_1_">
   <path fill="#32c8f5" d="m13.453497,-9.825499c-2.003,0 -3.628,2.244 -3.628,5.01l0,48.151l12.833,-11.813l12.834,11.813l0,-47.254c0,-3.249 1.925,-5.907 4.277,-5.907l-26.316,0z" id="Path_1196"/>
   <path fill="#149fc8" d="m39.706496,-9.821499c-2.324,0.01 -4.214,0.532 -4.214,1.171l0,3.321l7.843,0l0,-3.492c0,-0.549 -1.622,-1 -3.629,-1z" id="Path_1197"/>
  </g>
  <g transform="rotate(90 27.75827026367188,13.18857002258301) " id="bookmark-star">
   <path fill="#fad20a" d="m27.296706,7.121852a0.515,0.515 0 0 1 0.924,0l1.657,3.358a0.515,0.515 0 0 0 0.388,0.282l3.706,0.538a0.515,0.515 0 0 1 0.285,0.879l-2.681,2.614a0.516,0.516 0 0 0 -0.148,0.456l0.633,3.691a0.516,0.516 0 0 1 -0.748,0.544l-3.315,-1.744a0.515,0.515 0 0 0 -0.479,0l-3.315,1.743a0.515,0.515 0 0 1 -0.748,-0.543l0.633,-3.691a0.515,0.515 0 0 0 -0.148,-0.456l-2.681,-2.614a0.515,0.515 0 0 1 0.286,-0.879l3.706,-0.538a0.515,0.515 0 0 0 0.388,-0.282l1.657,-3.358z" id="Path_1198"/>
  </g>
 </g>
</svg>