<svg xmlns="http://www.w3.org/2000/svg" width="15.399" height="19.5" viewBox="0 0 15.399 19.5">
  <g id="bookmark" transform="translate(-75.921)">
    <path id="Path_1258" data-name="Path 1258" d="M90.674,0H76.567c-.357,0-.646.178-.646.4V19.1c0,.152.142.291.365.357a.994.994,0,0,0,.281.039.931.931,0,0,0,.4-.086l7.053-3.439c.28-.136.326-.386.1-.558a.945.945,0,0,0-.908-.064l-6,2.928V.794H90.028V18.282l-2.883-1.405a.945.945,0,0,0-.908.064c-.222.172-.175.421.1.558l3.931,1.916a.991.991,0,0,0,.683.046c.223-.066.365-.205.365-.357V.4C91.32.178,91.031,0,90.674,0Z" transform="translate(0)" fill="#5f4ba0"/>
    <path id="Path_1259" data-name="Path 1259" d="M97.671,24.549h11.122c.414,0,.75-.178.75-.4s-.336-.4-.75-.4H97.671c-.414,0-.75.178-.75.4S97.257,24.549,97.671,24.549Z" transform="translate(-19.611 -22.184)" fill="#5f4ba0"/>
    <path id="Path_1260" data-name="Path 1260" d="M97.671,48.2h11.122c.414,0,.75-.178.75-.4s-.336-.4-.75-.4H97.671c-.414,0-.75.178-.75.4S97.257,48.2,97.671,48.2Z" transform="translate(-19.611 -44.274)" fill="#5f4ba0"/>
    <path id="Path_1261" data-name="Path 1261" d="M101.451,71.063H97.318a.4.4,0,0,0,0,.794h4.134a.4.4,0,1,0,0-.794Z" transform="translate(-19.611 -66.363)" fill="#5f4ba0"/>
    <g id="bookmark-star" transform="translate(80.82 7.275)">
      <path id="Path_1262" data-name="Path 1262" d="M2.4,1.16a.2.2,0,0,1,.359,0l.643,1.3a.2.2,0,0,0,.151.109l1.438.209a.2.2,0,0,1,.111.341L4.065,4.138a.2.2,0,0,0-.058.177l.246,1.433a.2.2,0,0,1-.29.211L2.676,5.282a.2.2,0,0,0-.186,0L1.2,5.958a.2.2,0,0,1-.29-.211l.246-1.433A.2.2,0,0,0,1.1,4.138L.061,3.123a.2.2,0,0,1,.111-.341L1.61,2.573a.2.2,0,0,0,.151-.109Z" transform="translate(0)" fill="#5f4ba0"/>
    </g>
  </g>
</svg>
