<svg xmlns="http://www.w3.org/2000/svg" width="170" height="120" viewBox="0 0 170 120">
  <g id="buildprofileImg" transform="translate(-292 -159)">
    <rect id="Rectangle_395" data-name="Rectangle 395" width="170" height="120" rx="10" transform="translate(292 159)" fill="#f6f6f6"/>
    <text id="Build_your_Profile" data-name="Build your Profile" transform="translate(377 250)" fill="#4d4d4d" font-size="18" font-family="SegoeUI, Segoe UI"><tspan x="-68.019" y="0">Build your Profile</tspan></text>
    <g id="girl" transform="translate(354 179)">
      <path id="Path_139" data-name="Path 139" d="M23,46A23,23,0,1,0,0,23,23.045,23.045,0,0,0,23,46Z" transform="translate(0 -0.002)" fill="#c1f2d9"/>
      <path id="Path_140" data-name="Path 140" d="M136.7,64.8c-1.918-4.839-5.947-9.218-.877-18.039,2.088-3.633,5.277-6.029,8.572-5.218,3.295-.811,6.484,1.585,8.572,5.218,5.07,8.821,1.041,13.2-.877,18.039l-7.695.019-7.7-.019Z" transform="translate(-121.377 -37.664)" fill="#666"/>
      <path id="Path_141" data-name="Path 141" d="M96.666,282.975c-.241.388-.841,3.691-1.5,6.2a23,23,0,0,0,28.9,0c-.664-2.5-1.264-5.807-1.5-6.2-3.695-5.966-9.39-3.362-9.779-10.189a7.186,7.186,0,0,1-3.231,1.38,6.414,6.414,0,0,1-3.1-1.294C106.055,279.694,100.358,277.013,96.666,282.975Z" transform="translate(-86.611 -248.278)" fill="#fed198"/>
      <path id="Path_142" data-name="Path 142" d="M226.132,273.752c-.046-.3-.08-.619-.1-.964a7.186,7.186,0,0,1-3.231,1.38,6.414,6.414,0,0,1-3.1-1.294c-.02.351-.054.676-.1.979l.108.085v0c.108.094,1.745,1.5,3.1,1.488,1.353.014,2.99-1.394,3.1-1.488v0c.079-.061.157-.123.233-.186Z" transform="translate(-199.866 -248.28)" fill="#f0b97d"/>
      <path id="Path_143" data-name="Path 143" d="M186.32,137.06a4.368,4.368,0,0,0,6.2,0c2.045-1.192,3.722-4.706,3.344-8.515-.31-3.12-3.685,1.455-6.036-4.983-3.327,6.969-6.487,2.847-6.847,5.488a9.257,9.257,0,0,0,3.343,8.01Z" transform="translate(-166.483 -112.461)" fill="#fed198"/>
      <path id="Path_144" data-name="Path 144" d="M103.5,326.427c-2.014,1.076-5.7,1.108-7.1,3.361-.244.392-.857,5.2-1.531,8.032a23,23,0,0,0,28.953,0c-.674-2.832-1.36-7.6-1.531-8.032-.931-2.347-5.238-2.445-7.254-3.528-3.134,11.37-7.8,12.145-11.538.167h0Z" transform="translate(-86.346 -296.948)" fill="#fbb429"/>
      <g id="Group_343" data-name="Group 343" transform="translate(14.011 28.349)">
        <path id="Path_145" data-name="Path 145" d="M160.435,315.535c-.131,3.537.471,8.549,4.44,9.829-3.737.156-6.161-5.228-8.924-6.638l4.484-3.191h0Z" transform="translate(-155.951 -315.535)" fill="#fff"/>
        <path id="Path_146" data-name="Path 146" d="M259.936,315.535c.137,3.537-.494,8.549-4.662,9.829,3.924.156,6.47-5.228,9.37-6.638l-4.708-3.191Z" transform="translate(-246.35 -315.535)" fill="#fff"/>
      </g>
    </g>
  </g>
</svg>
