<svg xmlns="http://www.w3.org/2000/svg" width="31.805" height="25.023" viewBox="0 0 31.805 25.023">
  <g id="catalog" transform="translate(0)">
    <g id="Group_510" data-name="Group 510">
      <path id="Path_234" data-name="Path 234" d="M275.753,90.58l9.47-9-5.907-6.217Zm7.328-9.052-4.7,4.462,1.767-7.546Z" transform="translate(-253.418 -72.653)" fill="#bfb0f3"/>
      <path id="Path_235" data-name="Path 235" d="M212.193,45.115l-.034-.008-8.392-1.965-.031.131L208.871,59.3Zm-6.245.093,4.424,1.036-1.728,7.379Z" transform="translate(-187.235 -43.039)" fill="#bfb0f3"/>
      <path id="Path_236" data-name="Path 236" d="M87.325,44.509l.3.943L100.973,58.8l.008-.026-5.415-16.9Zm2.342.84,4.918-1.575,3.06,9.554Z" transform="translate(-80.252 -41.869)" fill="#bfb0f3"/>
      <path id="Path_237" data-name="Path 237" d="M21.37,101.745l.045-.046-.024-.024L6.118,86.4l-.015.015L0,92.521l15.3,15.3ZM6.118,88.545,19.273,101.7,15.3,105.675,2.142,92.521Z" transform="translate(0 -82.795)" fill="#bfb0f3"/>
      <path id="Path_238" data-name="Path 238" d="M174.4,260.057a1.326,1.326,0,1,1-1.326,1.326A1.326,1.326,0,0,1,174.4,260.057Z" transform="translate(-159.054 -242.384)" fill="#bfb0f3"/>
    </g>
  </g>
</svg>
