<svg xmlns="http://www.w3.org/2000/svg" width="75" height="74.416" viewBox="0 0 75 74.416">
  <g id="Group_862" data-name="Group 862" transform="translate(-646 -1183)">
    <path id="Path_15" data-name="Path 15" d="M672.857,1217.571s1.857-9.428,6.857-11.143a13.254,13.254,0,0,1,9.714.857l3,3.857,2.143,7.714-3.714.857-2.429-.857-3-5.286-2.143-1-1.429,1-3.429,5.286-2.571,1.571Z" fill="#fad20a"/>
    <path id="Path_16" data-name="Path 16" d="M672.857,1216.193s1.857-8.321,6.857-9.833a14.813,14.813,0,0,1,9.714.756l3,3.4,2.143,6.808-3.714.756-2.429-.756-3-4.665-2.143-.883-1.429.883-3.429,4.665-2.571,1.387Z" transform="translate(13 26)" fill="#32c8f5"/>
    <g id="mountain-peak" transform="translate(646 1183)">
      <path id="Path_12" data-name="Path 12" d="M480,476.137h2.419v2.419H480Zm0,0" transform="translate(-407.42 -404.141)" fill="#4d4d4d"/>
      <path id="Path_13" data-name="Path 13" d="M0,476.137H2.419v2.419H0Zm0,0" transform="translate(0 -404.141)" fill="#4d4d4d"/>
      <path id="Path_14" data-name="Path 14" d="M61.6,55.464a11.456,11.456,0,0,0-8.079-7.331L47.951,29.027a10.945,10.945,0,0,0-9.242-7.761V15.994L57.745,9.2,36.29,0V21.266a10.776,10.776,0,0,0-2.133.461,8.547,8.547,0,0,0-7.332-1.454,10.88,10.88,0,0,0-20.7,5.853A7.253,7.253,0,0,0,7.258,40.545H23.689l-.705,2.419A10.943,10.943,0,0,0,12.533,50.8L6.35,72H3.629v2.419H70.161V72h-2.77ZM38.709,3.67,51.126,8.99,38.709,13.425Zm1.937,57.294a3.838,3.838,0,0,0,2.895,1.355c2.561,0,3.754-2.383,4.711-4.3.919-1.841,1.552-2.96,2.546-2.96s1.628,1.119,2.549,2.96c.959,1.915,2.151,4.3,4.714,4.3a3.848,3.848,0,0,0,2.9-1.36L64.826,72H36.786Zm18.674-4.7.659,1.885c-.71,1.263-1.253,1.753-1.918,1.753-1,0-1.628-1.119-2.549-2.96-.958-1.915-2.151-4.3-4.714-4.3s-3.755,2.383-4.712,4.3c-.92,1.841-1.551,2.96-2.545,2.96-.663,0-1.2-.488-1.911-1.747l.662-1.891a9.021,9.021,0,0,1,17.029,0ZM50.806,47.8a11.455,11.455,0,0,0-10.8,7.661l-2.843,8.124L33.435,50.8a10.952,10.952,0,0,0-8.015-7.552l1.9-6.5a3.836,3.836,0,0,0,2.918,1.378c2.561,0,3.754-2.383,4.711-4.3.919-1.841,1.552-2.96,2.546-2.96s1.628,1.119,2.549,2.96c.959,1.915,2.151,4.3,4.714,4.3a3.852,3.852,0,0,0,2.926-1.384l3.227,11.066c-.034,0-.068,0-.1,0Zm-5.177-18.1L46.8,33.72c-.784,1.449-1.343,1.986-2.045,1.986-1,0-1.628-1.119-2.549-2.96-.958-1.915-2.151-4.3-4.714-4.3s-3.755,2.383-4.712,4.3c-.92,1.841-1.551,2.96-2.545,2.96-.7,0-1.257-.535-2.037-1.978l1.173-4.022a8.468,8.468,0,0,1,16.259,0ZM7.258,38.125A4.839,4.839,0,1,1,12.1,33.287h2.419a7.267,7.267,0,0,0-5.931-7.131,8.459,8.459,0,0,1,16.391-3.979l.416,1.264,1.219-.533a6.12,6.12,0,0,1,4.954.064,10.886,10.886,0,0,0-4.516,6.055l-2.655,9.1Zm15.726,7.258a8.512,8.512,0,0,1,8.129,6.1l.7,2.4c-.672,1.021-1.154,1.18-1.575,1.18-1,0-1.628-1.119-2.549-2.96-.958-1.915-2.151-4.3-4.714-4.3s-3.755,2.383-4.712,4.3c-.92,1.841-1.551,2.96-2.545,2.96-.419,0-.9-.16-1.566-1.172l.7-2.408a8.512,8.512,0,0,1,8.129-6.1ZM13.356,56.619a3.629,3.629,0,0,0,2.363.861c2.561,0,3.754-2.383,4.711-4.3.919-1.841,1.552-2.96,2.546-2.96s1.628,1.119,2.549,2.96c.959,1.915,2.151,4.3,4.714,4.3a3.683,3.683,0,0,0,2.37-.875l3.182,10.91L34.221,72H8.87Zm0,0" transform="translate(0)" fill="#4d4d4d"/>
    </g>
  </g>
</svg>
