<svg xmlns="http://www.w3.org/2000/svg" width="64.504" height="68.416" viewBox="0 0 64.504 68.416">
  <path id="Path_14" data-name="Path 14" d="M56.636,50.992a10.532,10.532,0,0,0-7.428-6.74L44.085,26.687a10.062,10.062,0,0,0-8.5-7.136V14.7l17.5-6.25L33.364,0V19.551a9.907,9.907,0,0,0-1.961.424,7.858,7.858,0,0,0-6.741-1.337A10,10,0,0,0,5.636,24.019,6.669,6.669,0,0,0,6.672,37.276H21.779L21.13,39.5a10.061,10.061,0,0,0-9.608,7.206L5.838,66.191h-2.5v2.224H64.5V66.191H61.957ZM35.588,3.374,47,8.266,35.588,12.343Zm1.781,52.674a3.528,3.528,0,0,0,2.661,1.246c2.354,0,3.451-2.191,4.331-3.952.845-1.693,1.427-2.721,2.341-2.721s1.5,1.029,2.343,2.721c.882,1.761,1.977,3.952,4.334,3.952a3.537,3.537,0,0,0,2.669-1.25L59.6,66.191H33.82Zm17.168-4.323.606,1.733c-.653,1.161-1.152,1.612-1.764,1.612-.916,0-1.5-1.029-2.343-2.722C50.155,50.588,49.058,48.4,46.7,48.4s-3.452,2.191-4.332,3.951c-.846,1.693-1.426,2.722-2.34,2.722-.61,0-1.107-.449-1.757-1.606l.608-1.739a8.294,8.294,0,0,1,15.656,0ZM46.71,43.949a10.531,10.531,0,0,0-9.928,7.043l-2.614,7.469L30.739,46.706a10.069,10.069,0,0,0-7.369-6.943l1.744-5.978A3.526,3.526,0,0,0,27.8,35.051c2.354,0,3.451-2.191,4.331-3.952.845-1.693,1.427-2.721,2.341-2.721s1.5,1.029,2.343,2.721c.882,1.761,1.977,3.952,4.334,3.952a3.542,3.542,0,0,0,2.69-1.272L46.8,43.953c-.031,0-.062,0-.093,0ZM41.95,27.311,43.026,31c-.721,1.333-1.234,1.826-1.881,1.826-.916,0-1.5-1.029-2.343-2.722-.881-1.761-1.978-3.951-4.334-3.951s-3.452,2.191-4.332,3.951c-.846,1.693-1.426,2.722-2.34,2.722-.644,0-1.156-.491-1.873-1.819L27,27.311a7.785,7.785,0,0,1,14.948,0ZM6.672,35.051A4.449,4.449,0,1,1,11.121,30.6h2.224a6.681,6.681,0,0,0-5.453-6.556,7.777,7.777,0,0,1,15.069-3.658l.383,1.162,1.121-.49a5.626,5.626,0,0,1,4.554.059,10.009,10.009,0,0,0-4.152,5.567l-2.441,8.364ZM21.13,41.724A7.826,7.826,0,0,1,28.6,47.33l.644,2.207c-.618.939-1.061,1.084-1.448,1.084-.916,0-1.5-1.029-2.343-2.722-.881-1.761-1.978-3.951-4.334-3.951s-3.452,2.191-4.332,3.951c-.846,1.693-1.426,2.722-2.34,2.722-.385,0-.825-.147-1.44-1.078l.646-2.214a7.826,7.826,0,0,1,7.474-5.605Zm-8.852,10.33a3.337,3.337,0,0,0,2.172.792c2.354,0,3.451-2.191,4.331-3.952.845-1.693,1.427-2.721,2.341-2.721s1.5,1.029,2.343,2.721c.882,1.761,1.977,3.952,4.334,3.952a3.386,3.386,0,0,0,2.179-.8L32.9,62.072l-1.442,4.119H8.155Zm0,0" transform="translate(0 0)" fill="#dcf7ff"/>
</svg>
