<svg xmlns="http://www.w3.org/2000/svg" width="1282" height="562.842" viewBox="0 0 1282 562.842">
  <g id="Group_7448" data-name="Group 7448" transform="translate(-269 -420.765)">
    <path id="Path_15429" data-name="Path 15429" d="M250.7,796.475s-124.925-132.81-39.934-287.506c65.567-119.342,224.183-98.078,305.57-47.6,34.664,21.5,109.142-17.93,203.6-137.659,109.65-138.995,534.171-54.189,460.855,211.382-35.479,128.517,107.978,133.189,34.881,261.654Z" transform="translate(253.27 163.147)" fill="#ebf3fa"/>
    <g id="Group_7233" data-name="Group 7233" transform="translate(546.12 407.763)">
      <path id="Path_15056" data-name="Path 15056" d="M1660.906,1708.56c-98.977-3.732-435.68,2.59-538.081,5.056s-221.267-3.253-283.011-11.66-418.647.715-402.451,23.321,159.016,10.113,320.978,19.2,526.215-1.136,608.379,0,157.508-2.271,263.393-6.814S1718.277,1710.723,1660.906,1708.56Z" transform="translate(-713.949 -1172.428)" fill="#cce2ff"/>
      <g id="Group_7230" data-name="Group 7230" transform="translate(879.998 397.87)">
        <path id="Path_15139" data-name="Path 15139" d="M3004.455,1323.431c8.449,7.715,4.776,15.43-1.47,29.757s-7.347,67.23-7.347,67.23l5.143-.735s-.735-54.372,6.246-69.067,9.919-22.043,16.165-17.267S3004.455,1323.431,3004.455,1323.431Z" transform="translate(-2945.429 -1289.601)" fill="#74b570"/>
        <path id="Path_15140" data-name="Path 15140" d="M3009.8,1222.574c1.026-4.572,7.12-9.52,15.27-13.716-1.212,6.744-5.1,17.769-1.076,20.031,5.422,3.05.529-12.344,2.621-20.805a100.681,100.681,0,0,1,25.334-8.31c-.012.031-.021.061-.034.093-4.775,12.124-11.021,16.9-8.449,18.737,1.935,1.381,8.237-12.623,16.558-19.8,6.246-.333,11.531.514,14.656,2.989,4.832,3.825,8.075,7.218,3.215,18.866a21.834,21.834,0,0,1-10.55,3.824c-11.021,1.1-16.165,1.47-8.45,5.144,3.778,1.8,10.11-.1,15.245-1.26-1.666,3.069-3.713,6.543-6.2,10.5a39.011,39.011,0,0,1-5.163,6.572c-3.552.681-6.649.688-8.289-.015-5.144-2.2-18.369-9.184-21.675-6.245-3.236,2.876,24.494,4.7,22.572,12.008-13.441,7.744-28.821,4.059-31.54-3.052C3020.194,1238.583,3006.712,1236.337,3009.8,1222.574Z" transform="translate(-2955.418 -1198.733)" fill="#9cd499"/>
        <path id="Path_15141" data-name="Path 15141" d="M3001.756,1466.527c-14.7-11.021-29.758-.735-37.473,11.021s-2.2,38.207-2.2,38.207,2.939,0,2.939-1.1-8.083-31.227,11.021-44.82c11.951-8.5,20.573-4.408,21.676-.368s-4.776,11.389-4.776,11.389Z" transform="translate(-2919.585 -1390.448)" fill="#74b570"/>
        <path id="Path_15142" data-name="Path 15142" d="M2987.112,1395.649c14.695,0,19.471,22.778,15.429,36s-9.551,37.84-9.551,37.84l-3.674-3.674s13.96-34.533,10.654-49.963-11.389-18-12.858-18S2987.112,1395.649,2987.112,1395.649Z" transform="translate(-2938.74 -1342.226)" fill="#9cd499"/>
        <path id="Path_15143" data-name="Path 15143" d="M3024.391,1520a10.65,10.65,0,0,1,3.869-3.251,29.107,29.107,0,0,1-.764,3.148c-1.841,6.026-3.987,14.415-5.779,21.764-.163-.941-.414-2.391-.8-4.629-.091-.529-.164-1.1-.213-1.709A142.458,142.458,0,0,0,3024.391,1520Z" transform="translate(-2963.695 -1430.473)" fill="#74b570"/>
        <path id="Path_15144" data-name="Path 15144" d="M3028.7,1473.5c27.921-11.756,13.211-27.888,37.825-17.234,1.734.75,3.847,2.643,5.963,5.252a18.334,18.334,0,0,1-7.8.626c-7.347-1.1-4.775,4.776,7.347,6.245a27.213,27.213,0,0,1,5.681,1.2c5.776,11.093,8.379,25.689-3.844,30.763a27.666,27.666,0,0,1-8.7,1.785c-3.771-3,.921-20.344-4.894-17.95-5.583,2.3,1.75,14.871.744,18.038a80.51,80.51,0,0,1-17.441-2.445c-2.307-1.293-4.068-3.027-4.611-5.306-1.837-7.715,10.287-12.49,10.654-19.1.338-6.079-4.444,13.375-17.111,16.238C3021.058,1486.26,3015.646,1479,3028.7,1473.5Z" transform="translate(-2963.983 -1383.864)" fill="#9cd499"/>
        <path id="Path_15145" data-name="Path 15145" d="M2855.391,1380.989c2.939-6.245-4.776-7.715-4.409-2.939.326,4.232.362,14.519-3.979,17.32a68.105,68.105,0,0,1-25.368-8.425,3.118,3.118,0,0,1,.324-1.915c3.306-6.613,24.614-12.124,18-14.328-5.266-1.756-14.494,8.606-21.931,13.826-4.467-3.388-7.459-7.428-7.459-11.937,0-6.1,7.416-13.012,17.006-16.314,4.316.435,8.326,2.795,14.588,6.344,9.251,5.242,7.112-3.233-1.634-8.264a26.347,26.347,0,0,1,20.632,11.325s-.525,3.295,2.961,8.39c9.512,13.9-1.465,22.019-14.588,21.492C2850.278,1391.9,2853.361,1385.3,2855.391,1380.989Z" transform="translate(-2810.571 -1312.135)" fill="#9cd499"/>
        <path id="Path_15146" data-name="Path 15146" d="M3101.361,1476.609c7.184,5.552,15.165,12.043,24.962,16.451s7.838,18.778,7.838,18.778,1.469-12.41-6.695-16.655-13.553-9.307-19.758-10.287a89.963,89.963,0,0,1-9.634-1.959s1.96-3.919.817-5.389S3101.361,1476.609,3101.361,1476.609Z" transform="translate(-3020.075 -1401.153)" fill="#74b570"/>
        <path id="Path_15147" data-name="Path 15147" d="M3099.057,1236.565c-26.289,7.021-45.557,23.839-49.149,27.922s-3.593,5.225-3.593,5.225l2.776,5.225,1.306-.653s-2.123-4.409,3.429-10.124c9.574-9.856,21.228-17.635,29.229-21.064S3099.057,1236.565,3099.057,1236.565Z" transform="translate(-2982.357 -1226.301)" fill="#74b570"/>
        <path id="Rectangle_540" data-name="Rectangle 540" d="M17.954,0h0A17.954,17.954,0,0,1,35.907,17.954V36.008a0,0,0,0,1,0,0H0a0,0,0,0,1,0,0V17.954A17.954,17.954,0,0,1,17.954,0Z" transform="translate(67.108 155.779) rotate(180)" fill="#75a1de"/>
        <rect id="Rectangle_541" data-name="Rectangle 541" width="35.907" height="2.528" transform="translate(31.2 123.896)" fill="#fff"/>
        <rect id="Rectangle_542" data-name="Rectangle 542" width="35.907" height="1.487" transform="translate(31.2 128.505)" fill="#fff"/>
      </g>
    </g>
    <g id="Group_7440" data-name="Group 7440" transform="translate(759.457 577.763)">
      <g id="Group_7428" data-name="Group 7428" transform="translate(350.361 0)">
        <g id="Group_7426" data-name="Group 7426" transform="translate(26.635)">
          <path id="Path_15430" data-name="Path 15430" d="M2019.36,612.182H1798.573a40.016,40.016,0,0,1-40.016-40.016V381.014a150.553,150.553,0,0,1,91.856-138.58c15.992-6.764,12.168-10.863,29.5-11.81,2.783-.152,26.242-.02,29.049-.02a150.3,150.3,0,0,1,150.409,150.41V572.166A40.016,40.016,0,0,1,2019.36,612.182Zm-213.8-223.2h206.813v-7.971a103.407,103.407,0,0,0-206.813,0Z" transform="translate(-1758.557 -230.551)" fill="#4f75ba"/>
        </g>
        <g id="Group_7427" data-name="Group 7427" transform="translate(0 0.053)">
          <path id="Path_15431" data-name="Path 15431" d="M1916.153,612.335H1695.366a40.017,40.017,0,0,1-40.016-40.016V381.167a150.41,150.41,0,1,1,300.82,0V572.319A40.017,40.017,0,0,1,1916.153,612.335Zm-213.8-223.2h206.813v-7.971a103.407,103.407,0,0,0-206.813,0Z" transform="translate(-1655.35 -230.757)" fill="#739af0"/>
        </g>
        <path id="Path_15432" data-name="Path 15432" d="M2203.272,1081.229a18.534,18.534,0,0,0-4.518-12.148c-2.581-3.831-7.921-6.463-14.093-6.463s-11.512,2.632-14.093,6.463A18.608,18.608,0,0,0,2179.1,1099v28.186c0,2.273,2.488,4.116,5.557,4.116s5.557-1.843,5.557-4.116V1099A18.619,18.619,0,0,0,2203.272,1081.229Z" transform="translate(-2034.251 -847.882)" fill="#4f75ba"/>
      </g>
      <g id="Group_7435" data-name="Group 7435" transform="translate(0 140.056)">
        <path id="Path_15433" data-name="Path 15433" d="M1235.105,1038.515c-.352,2.389-3.081,5.156-5.993,7.23-3.133,2.233-4.389,4.525-5.5,5.67-.411.47-.664.729-.664.729l-3.344-3.891a.925.925,0,0,0,.154-.147,27.184,27.184,0,0,0,3.91-5.142c2.771-5.077,6.646-5.826,6.646-5.826S1234.018,1037.686,1235.105,1038.515Z" transform="translate(-981.698 -969.034)" fill="#ffb27d"/>
        <g id="Group_7433" data-name="Group 7433">
          <g id="Group_7429" data-name="Group 7429" transform="translate(13.154 75.041)">
            <path id="Path_15434" data-name="Path 15434" d="M602.568,1231.591l2.26,1.836s6.184-2.217,7.579,5.131c0,0,.372,3.131-1.612,3.137s-1.165-.342-3.974-.26-5.137-1.4-5.549-3.678l-1.344-1.931Z" transform="translate(-535.1 -1188.344)" fill="#ea8e50"/>
            <path id="Path_15435" data-name="Path 15435" d="M415.938,1111.2c1.8-1.883,1.658-3.275,1.658-3.275s-20.883-17.1-23-18.49c-1.443-.949-15.994-14.888-24.012-22.9-3.857-3.852-7.983-2.523-13.037-1.073l-4.162,1.194c-5.025,1.442-6.332,8.47-2.209,11.885,11.613,9.619,30.931,20.438,34.545,22.711,8.973,5.644,26.537,12.352,26.537,12.352A11.128,11.128,0,0,0,415.938,1111.2Z" transform="translate(-348.725 -1064.016)" fill="#992525"/>
          </g>
          <path id="Path_15436" data-name="Path 15436" d="M682.332,1653.881s5.068,3.8,12.834,1.791c0,0,6.261-1.427,7.634,1.7,0,0-9.6,4.878-12.032,6.213a29.1,29.1,0,0,0-5.093,3.819,2.518,2.518,0,0,1-3.646-.281c-.422-.519-.906-1.138-1.436-1.856-1.48-2.006-4.93-8.487-4.93-8.487Z" transform="translate(-578.134 -1426.611)" fill="#233862"/>
          <path id="Path_15437" data-name="Path 15437" d="M488.409,1386.091s-3.086,7.116-10.209,5.807c0,0-14.536-12-24.507-24.475a55.406,55.406,0,0,1-7.616-11.9c-6.612-15.308-24.457-38.14-35.8-49.712l28.387-10.27s9.093,18.291,21.191,40.758C468.571,1352.487,478.848,1370.844,488.409,1386.091Z" transform="translate(-381.236 -1160.75)" fill="#2b478b"/>
          <path id="Path_15438" data-name="Path 15438" d="M459.853,1336.3l-6.159,31.124a55.406,55.406,0,0,1-7.616-11.9c-6.612-15.308-24.457-38.14-35.8-49.712l28.387-10.27S447.754,1313.832,459.853,1336.3Z" transform="translate(-381.236 -1160.75)" fill="#233862"/>
          <path id="Path_15439" data-name="Path 15439" d="M483.112,1660.935s-.309,5.678,6.574,6.435c0,0,3.933.021,3.944,3.635l-20.005.063a15.554,15.554,0,0,1-.722-4.58c-.108-2.4,2.324-8.666,2.324-8.666Z" transform="translate(-427.699 -1429.535)" fill="#233862"/>
          <path id="Path_15440" data-name="Path 15440" d="M404.913,1291.92s12.646,13.9,20.674,38.931c4.368,13.621-8.005,47.868-10.418,59.767,0,0-8.3.7-13.976-1.49,0,0-.431-24.576,2.888-43.518,1.858-10.6-16.651-22.672-24.738-41.827-5.5-13.031,1.191-12.81,9.417-13.123Z" transform="translate(-356.799 -1157.128)" fill="#2b478b"/>
          <path id="Path_15441" data-name="Path 15441" d="M365.986,1006.013c-7.036,3.973-21.441.309-21.441.309s5.85-6.688,3.192-17.458l5.525,2.805,5.934,3.014a49.229,49.229,0,0,1,.651,5.319c.068.88.129,1.863.171,2.936A18.452,18.452,0,0,1,365.986,1006.013Z" transform="translate(-332.47 -933.218)" fill="#ffb07b"/>
          <path id="Path_15442" data-name="Path 15442" d="M376.547,1106.9c0,1.237-1.425,1.829-1.727,1.889-2.838.518-10.762,3.6-17.9,4.307a57.229,57.229,0,0,1-17.721-1.2c-.812-.163-2.718-.677-2.853-1.455-.169-.849-23.647-47.863-5.4-68.058.429-.474,4.031.38,7.326,1.162a13.525,13.525,0,0,0,8.326-.68l3.09,1.626c3.795,2.114,10.974,9.627,11.814,15.521.427,3,2.141,5.218,2.637,7.855q.276,1.463.564,2.857.561,2.732,1.156,5.2c1.073,4.458,2.206,8.3,3.319,11.611,1.184,3.52,2.345,6.448,3.383,8.9,1.346,3.176,2.483,5.55,3.193,7.368A9.079,9.079,0,0,1,376.547,1106.9Z" transform="translate(-317.231 -972.825)" fill="#bc3f3f"/>
          <path id="Path_15443" data-name="Path 15443" d="M396.261,1149.672c-33.143-15.615-44.62-45.6-44.62-45.6s26.927,9.933,33.569,12.519q.561,2.732,1.156,5.2c1.073,4.458,2.206,8.3,3.319,11.611,1.184,3.52,2.345,6.448,3.383,8.9C394.414,1145.48,395.551,1147.854,396.261,1149.672Z" transform="translate(-337.735 -1018.695)" fill="#992525"/>
          <g id="Group_7432" data-name="Group 7432" transform="translate(9.46)">
            <g id="Group_7431" data-name="Group 7431" transform="translate(40.984)">
              <g id="Group_7430" data-name="Group 7430">
                <path id="Path_15444" data-name="Path 15444" d="M543.344,896.519h-18.3a31.865,31.865,0,0,1-31.829-31.829V805.074a31.865,31.865,0,0,1,31.829-31.829h18.3a31.865,31.865,0,0,1,31.829,31.829v59.615A31.865,31.865,0,0,1,543.344,896.519Zm-18.3-104.473a13.043,13.043,0,0,0-13.029,13.028v59.615a13.043,13.043,0,0,0,13.029,13.029h18.3a13.043,13.043,0,0,0,13.028-13.029V805.074a13.043,13.043,0,0,0-13.028-13.028Z" transform="translate(-493.218 -773.245)" fill="#f99746"/>
              </g>
              <path id="Path_15445" data-name="Path 15445" d="M948.606,991.491H780.817V969.53H948.606a10.98,10.98,0,0,1,10.981,10.981h0A10.98,10.98,0,0,1,948.606,991.491Z" transform="translate(-706.595 -918.874)" fill="#f99746"/>
              <path id="Rectangle_2236" data-name="Rectangle 2236" d="M0,0H17.625a0,0,0,0,1,0,0V43.037a8.812,8.812,0,0,1-8.812,8.812h0A8.812,8.812,0,0,1,0,43.037V0A0,0,0,0,1,0,0Z" transform="translate(220.957 68.195)" fill="#f99746"/>
            </g>
            <path id="Path_15446" data-name="Path 15446" d="M595.378,1245.168l2.864,1.05s5.735-4.055,9.306,2.54c0,0,1.292,2.881-.753,3.506s-1.3.037-4.175.994-5.7.268-6.79-1.785l-1.947-1.428Z" transform="translate(-526.92 -1123.241)" fill="#ffb07b"/>
            <path id="Path_15447" data-name="Path 15447" d="M405.226,1118.912c1.059-2.763,1.542-4.014,1.542-4.014s-21.641-17.639-23.846-19.152c-1.5-1.031-16.462-12.213-23.754-20.927a15.263,15.263,0,0,0-14.838-5.141l-4.543.953a6.756,6.756,0,0,0-3.012,11.741c11.984,10.274,32.2,22.19,35.966,24.668,9.356,6.153,30.049,14.775,30.049,14.775A5.329,5.329,0,0,0,405.226,1118.912Z" transform="translate(-334.411 -992.934)" fill="#bc3f3f"/>
          </g>
          <path id="Path_15448" data-name="Path 15448" d="M371.006,1008.067c-6.919.388-11.419-5.324-11.419-5.324a54.929,54.929,0,0,0,4.834-3.008l5.934,3.014A49.213,49.213,0,0,1,371.006,1008.067Z" transform="translate(-343.63 -941.284)" fill="#ea8e50"/>
          <path id="Path_15449" data-name="Path 15449" d="M355.274,953.752s-10.484,7.523-15.068.923-9.026-10.075-2.526-15.158,9.564-3.477,11.63-1.646S357.884,951.625,355.274,953.752Z" transform="translate(-324.951 -894.072)" fill="#ffb07b"/>
          <path id="Path_15450" data-name="Path 15450" d="M323.223,907.432A16.875,16.875,0,0,0,322,903.109s-.658,2.725-5.638,2.349-12.875.49-15.506,6.165q-.251.542-.45,1.114a13.142,13.142,0,0,1-.591-3.144,9.691,9.691,0,0,0,0,5.5h0c-.014.089-.026.179-.039.268-1.1.929-2.023,3.818-2.023,3.818a3.461,3.461,0,0,1,1.862-1.655c-.022,4.417,1.769,8.734,4.912,10.019,4.6,1.88,4.56.446,9.183,3.512,0,0,1.24-1.539.394-2.572s-4.041-2.537-2.255-4.041,2.443.188,3.1-.845-2.631-4.041,1.6-6.86S323.6,909.969,323.223,907.432Z" transform="translate(-297.756 -869.594)" fill="#233862"/>
        </g>
        <g id="Group_7434" data-name="Group 7434" transform="translate(159.853 20.615)">
          <path id="Path_15451" data-name="Path 15451" d="M1016.675,1341.069l-3.863,1.438s-16.777-23.269-18.843-43.742a31.094,31.094,0,0,1,.552-10.467s-.164-.937-.451-2.592c-.132-.773-.3-1.7-.483-2.769-.545-3.125-1.3-7.4-2.154-12.271-1.974-11.2-4.532-25.528-6.519-36.058l1.041-.334,11.261-3.633,2.327-7.392,8.385-2.208s1.873,3.664,3.548,20.974c.309,2.271.59,4.775.8,7.49a148.22,148.22,0,0,1-.8,30.322q-.577,4.512-1.473,9.306a41.507,41.507,0,0,0-.321,9.189C1010.531,1315.06,1016.675,1341.069,1016.675,1341.069Z" transform="translate(-967.43 -1126.092)" fill="#bc3f3f"/>
          <path id="Path_15452" data-name="Path 15452" d="M1012.278,1249.507l-18.208,36.2c-.132-.773-.3-1.7-.483-2.769-.545-3.125-1.3-7.4-2.154-12.271-1.974-11.2-4.532-25.528-6.519-36.058l1.041-.334,11.261-3.633,2.327-7.392,8.385-2.208s1.873,3.664,3.548,20.974C1011.786,1244.288,1012.067,1246.792,1012.278,1249.507Z" transform="translate(-967.43 -1126.092)" fill="#992525"/>
          <path id="Path_15453" data-name="Path 15453" d="M955.887,1213.584l-.421-3.615c-7.062,1.876-25.931-5.241-25.931-5.241s-6.842,6.013-5.943,20.429c.438,7.036,1.239,36.934,2.076,45.781.3,3.207.567,5.489.675,6.4a.016.016,0,0,1,0,.009,1.265,1.265,0,0,1-.205.783,41.56,41.56,0,0,0-3.088,6.493c-8.209,21.876,1.265,48.818,1.265,48.818l2.458-.991s5.391-29.982,9.772-43.228a26.256,26.256,0,0,1,2.11-5.067c1.9-3.074,3.672-8.1,5.277-14.071,3.032-11.295,5.473-25.988,7.1-37.329C951.255,1232.766,955.887,1213.584,955.887,1213.584Z" transform="translate(-919.049 -1113.988)" fill="#bc3f3f"/>
          <path id="Path_15454" data-name="Path 15454" d="M1135.627,1041.851a19.662,19.662,0,0,1,6.287,4.61s-12.044,21.006-18.977,24.061c-3.806,1.677-15.713-11.045-18.174-18.174-.6-1.742,1.62-7.571.892-8.8a12.219,12.219,0,0,1-1.62-4.557,2.189,2.189,0,0,1-.075-.64,10.1,10.1,0,0,1,.218-3.643c.275-.709,1.055-1.013,2.213-.995h.409c6.237,3.67,14.433,21.7,15.784,22.119C1126.11,1051.368,1135.627,1041.851,1135.627,1041.851Z" transform="translate(-1055.704 -987.109)" fill="#2c3a64"/>
          <path id="Path_15455" data-name="Path 15455" d="M1044.531,993.59a21.986,21.986,0,0,1-8.133,1.9c-12.142.665-14.9-9.978-15.4-17.042a10.186,10.186,0,0,1,4.166-.527c.861.047,1.76.136,2.5.227,1.485-.776,4.154-4.544,5.7-10.848l.523.243,8.761,4.118s-.931,2.851-1.618,5.579c-.536,2.135-.921,4.2-.6,4.774.691.281,1.1.457,1.1.457a.025.025,0,0,0,0,.01A60.124,60.124,0,0,1,1044.531,993.59Z" transform="translate(-994.201 -937.838)" fill="#ffb27d"/>
          <path id="Path_15456" data-name="Path 15456" d="M990.491,1031.887c-.092.243-.193.48-.3.722-3.075,6.622-8.767,34.055-8.767,34.055.811,4.932-37.067-.968-37.164-5.459-1.334-4.762,4.733-12.412,8.155-16.25a10.912,10.912,0,0,0,1.148-1.545,10.767,10.767,0,0,0,1.552-4.528c.672-6.366-1.829-21.047-1.154-23.884.264-1.109,5.279,5.237,5.878,4.6a3.532,3.532,0,0,0,1.12-2.2,11.746,11.746,0,0,0-.047-1.848c-.028-.293-.066-.587-.111-.88-.473-3.081-6.364-1.766-6.364-1.766,2.159-5.2,13.658-4.783,13.656-4.643s-.006.322-.01.848c-.019,2.116,0,7.55.678,8.578.848,1.28,16.367,6.89,17.187,5.153.807-1.709-1.4-9.716-1.485-10.019a.026.026,0,0,1,0-.01,30.769,30.769,0,0,1,3.765,1.967C990.169,1018.681,992.913,1025.463,990.491,1031.887Z" transform="translate(-937.125 -968.169)" fill="#2b478b"/>
          <path id="Path_15457" data-name="Path 15457" d="M1045.825,859.619c-.019-.527-.426-6.2-9.066-6.495,0,0,4.249.507,4.982,2.374,0,0-2.893-2.308-5.249-1.566s-3.739,4.87-3.753,6.227,1.295,5.734,2.79,6.106a4.564,4.564,0,0,0,1.811,0,20.389,20.389,0,0,0-1.16,2.071c-3.448,7.077.108,13.993,3.026,13.229,1.872-.49,2.4,2.7,2.4,2.7l18.185-14.722S1053.114,855.729,1045.825,859.619Z" transform="translate(-1002.912 -853.124)" fill="#bc3f3f"/>
          <path id="Path_15458" data-name="Path 15458" d="M1079.687,972.372s-.931,2.848-1.618,5.578c-5.121-1.429-6.676-6.811-7.144-9.7Z" transform="translate(-1031.243 -938.542)" fill="#ed985f"/>
          <path id="Path_15459" data-name="Path 15459" d="M1078.681,931.841s-12.251-2.835-10.368-10.438,1.57-13.088,9.472-11.6,8.7,4.765,8.685,7.455S1081.916,932.383,1078.681,931.841Z" transform="translate(-1029.158 -894.995)" fill="#ffb27d"/>
          <path id="Path_15460" data-name="Path 15460" d="M1078.306,908.96c-1.317-2.755-2.867-2.608-3.837-2.12a8.788,8.788,0,0,0-11.4-.975,14.961,14.961,0,0,1-6.883,7.4s1.882,1.927,7.337,1.885a8.978,8.978,0,0,0,4.866-1.832,29.322,29.322,0,0,1-6.388,4.764c6.828-1.307,11.407-9.212,11.876-10.052a9.85,9.85,0,0,1,1.778,4.208c.127,2.087-.592,6.139.6,6.292C1076.256,918.527,1080.281,913.093,1078.306,908.96Z" transform="translate(-1020.305 -891.012)" fill="#bc3f3f"/>
          <path id="Path_15461" data-name="Path 15461" d="M936.724,1679.728H917.269a10.679,10.679,0,0,1,.55-5.214c.973-2.159,2.5-3.14,2.134-5.752a7.006,7.006,0,0,0,6.064,2.32c.344.558,2.224,3.549,3.376,4.376C930.663,1676.371,936.332,1676.046,936.724,1679.728Z" transform="translate(-917.162 -1458.266)" fill="#233862"/>
          <path id="Path_15462" data-name="Path 15462" d="M1098.3,1682.236h-19.455s-.727-3.1.55-5.214c1.131-1.869.7-2.933-.14-4.479a7.555,7.555,0,0,0,3.277.617,6.854,6.854,0,0,0,2.893-1.018,69.949,69.949,0,0,0,5.543,5.823C1092.235,1678.88,1097.9,1678.554,1098.3,1682.236Z" transform="translate(-1036.963 -1460.774)" fill="#233862"/>
        </g>
        <path id="Path_15463" data-name="Path 15463" d="M1257.358,1021.612h29.611l-1.645-11.484-26.438,1.062Z" transform="translate(-1009.709 -948.994)" fill="#f99746"/>
        <path id="Path_15464" data-name="Path 15464" d="M1237.925,967.37c-1.38,1.375-1.348,5.783-4.26,7.858-3.133,2.233-4.389,4.525-5.5,5.67-.411.47-.664.729-.664.729l-3.344-3.891a.925.925,0,0,0,.154-.147,27.2,27.2,0,0,0,3.91-5.142c2.771-5.077,6.646-5.826,6.646-5.826A5.633,5.633,0,0,1,1237.925,967.37Z" transform="translate(-985.076 -916.714)" fill="#ffb27d"/>
        <path id="Path_15465" data-name="Path 15465" d="M1046.821,997.853l4.936,5.523s-13.189,11.48-15.942,13.866a30.767,30.767,0,0,1-5.309,3.8,3.539,3.539,0,0,1-.459.205c-3.872,1.7-12.232,1.506-20.587.27-1.155-.168-2.3-.362-3.41-.541a79.971,79.971,0,0,1-11.269-2.74,31.366,31.366,0,0,1-4.964-1.994,12.891,12.891,0,0,1-1.3-.728c-6.533-3.913-6.217-7.549-6.093-8.855a4.5,4.5,0,0,1,3.245-3.737c5.184-1.682,22.576,5.021,25.138,5.506,1.537.325,5.538,1.742,6.885,1.989a40.286,40.286,0,0,0,6.159.763,14.171,14.171,0,0,0,4.617-1.462C1031.975,1008.182,1046.821,997.853,1046.821,997.853Z" transform="translate(-805.693 -939.887)" fill="#253d78"/>
        <path id="Path_15466" data-name="Path 15466" d="M1238.3,1045.247a4.387,4.387,0,0,1-.451-1.769,10.064,10.064,0,0,1,2.3-3.43c.47-.323,1.087-1.116,1.234-.588a9.26,9.26,0,0,1-1.381,4.377A4.245,4.245,0,0,1,1238.3,1045.247Z" transform="translate(-995.237 -970.625)" fill="#ffb27d"/>
      </g>
      <g id="Group_7439" data-name="Group 7439" transform="translate(472.578 46.509)">
        <path id="Path_15467" data-name="Path 15467" d="M2375.707,802.26c4.151,7.225,9.372,10.013,9.372,10.013h21.72S2372.54,796.748,2375.707,802.26Z" transform="translate(-2311.864 -700.346)" fill="#ed7d2b"/>
        <g id="Group_7436" data-name="Group 7436">
          <path id="Path_15468" data-name="Path 15468" d="M2387.584,970.838c.566.649,1.054.613.774,1.387,0,0-.126.384-.129.387-.518,1.432-1.5,2.436-3.484,4.032-.254.205-.513.376-.71.548-.052.045-.4.116-.452.161s-.349.673-.387.707a61.126,61.126,0,0,0-4.807,4.68c-3.8,3.951-3.687,3.543-4.43,3.183-.63-.307-.89-1.042.527-3.4.069-.113.136-.229.207-.344.188-.313.376-.631.563-.946,1.66-2.835,1.234-4.165.84-8.384-.32-3.428-5.333-19.153-5.333-19.153l7.278-1.253s2.192,12.521,4.606,14.45c1.291,1.028,2.737,1.041,3.978,1.8q.131.079.258.163C2387.588,969.331,2387.016,970.188,2387.584,970.838Z" transform="translate(-2308.349 -812.653)" fill="#ffb27d"/>
          <path id="Path_15469" data-name="Path 15469" d="M2393.166,1017.185a2.008,2.008,0,0,1,.358,2.147.017.017,0,0,1-.005.011c-.635,1.43-2.3,3.021-4.225,4.612-.251.208-.472.4-.67.579-.052.045-.1.091-.152.136s-.079.072-.117.106c-1.854,1.709-1.156,2.1-4.487,5.568-3.8,3.951-6.413,4.022-7.156,3.663-.629-.307.649-2.4,2.066-4.758a16.184,16.184,0,0,0,6.77-4.988c2.287-2.918,3.812-6.667,5.369-8.839q.131.079.258.163A9.562,9.562,0,0,1,2393.166,1017.185Z" transform="translate(-2312.641 -859.375)" fill="#bc3f3f"/>
          <path id="Path_15470" data-name="Path 15470" d="M2153.564,959.115c-.449,2.246-1.906,1.616-5.484.742s-2.748-.017-7.839-.581-5.554-1.372-5.71-2.129c-.139-.672.925-1.126,3.624-1.437.339-.038.68-.08,1.021-.122,3.047-.382,5.278-2.348,8.045-3.963,2.622-1.529,6.533-7.761,6.533-7.761l6.982.553s-3.664,5.565-5.081,7.985a8.437,8.437,0,0,0-.685,4.758C2155.024,957.952,2153.723,958.324,2153.564,959.115Z" transform="translate(-2133.073 -806.285)" fill="#ffb27d"/>
          <path id="Path_15471" data-name="Path 15471" d="M2143.532,994.6c-3.577-.874-2.727.165-7.819-.4s-6.634-2.462-6.789-3.219c-.139-.672,2.377-.908,5.075-1.219l.025.052a14.354,14.354,0,0,0,7.292,2.266c3.454.084,7.113-.906,9.5-.867a8.983,8.983,0,0,1-.054,2.389C2150.312,995.85,2147.11,995.475,2143.532,994.6Z" transform="translate(-2128.919 -840.339)" fill="#bc3f3f"/>
          <path id="Path_15472" data-name="Path 15472" d="M2317.243,799.458l6.528,17.565,8.522,22.934a13.808,13.808,0,0,0,4.527-.414,19.62,19.62,0,0,0,4.378-2.131s-2.366-24.625-6.781-38.761c-1.131-3.629-2.4-6.563-3.8-8.215C2323.777,782.349,2317.243,799.458,2317.243,799.458Z" transform="translate(-2268.641 -690.841)" fill="#ed7d2b"/>
          <path id="Path_15473" data-name="Path 15473" d="M2231.992,713.463c4.276-1.379,16.473.392,28.726,2.79l2.565-4.231,26.464-2.067s8.718,19.361,3.952,31.706c-1.161,3.006-4.95,3.005-4.951,3.006h-20.78c-13.161,0-27.853-9.047-29.754-9.427-3.111-.622-4.355,5.6-7.467,12.133S2201.5,776.3,2201.5,776.3s-4.016.04-5.675-.582a5.589,5.589,0,0,1-2.437-1.538S2222.348,716.574,2231.992,713.463Z" transform="translate(-2176.753 -632.741)" fill="#f99746"/>
          <path id="Path_15474" data-name="Path 15474" d="M2445.038,453.6c9.424,5.189,28.542,15.946,28.641,15.876,0,0,7.027,2.648,11.013,0,6.644-4.413,10.207-16.288-1.944-26.508-6.06-5.1-10.366-6.338-11.02-14.476-.355-4.415-6.391-18.987-16.419-17.64a15.3,15.3,0,0,1-2.528.166,9.384,9.384,0,0,0-5.088,1.314C2442.018,415.711,2430.91,451.591,2445.038,453.6Z" transform="translate(-2358.353 -410.764)" fill="#233862"/>
          <path id="Path_15475" data-name="Path 15475" d="M2491.961,517.031c-.042.027,4.636,1.624,7.765.239,2.942-1.3,5.172-6.142,5.128-6.145-1.339-.062-2.808-1.232-3.94-8.912l-.57.2-9.584,3.449s.695,3.076,1.144,6C2492.281,514.328,2492.484,516.683,2491.961,517.031Z" transform="translate(-2397.377 -478.612)" fill="#ffb27d"/>
          <path id="Path_15476" data-name="Path 15476" d="M2490.759,506.455s.695,3.076,1.144,6c5.505-.991,7.666-6.476,8.441-9.452Z" transform="translate(-2397.377 -479.201)" fill="#ed975d"/>
          <path id="Path_15477" data-name="Path 15477" d="M2465.874,461.885s13.113-1.76,11.892-9.91-.352-13.865-8.776-13.086-9.581,4.132-9.835,6.952S2462.431,462.132,2465.874,461.885Z" transform="translate(-2373.919 -431.578)" fill="#ffb27d"/>
          <path id="Path_15478" data-name="Path 15478" d="M2461.043,439.3s8.4,7.234,14.1,7.817,7.872-1.25,7.872-1.25a22.294,22.294,0,0,1-5.391-7.3,4.014,4.014,0,0,0-3.31-2.367C2470.241,435.847,2462.512,435.687,2461.043,439.3Z" transform="translate(-2375.33 -429.507)" fill="#233862"/>
          <path id="Path_15479" data-name="Path 15479" d="M2461.884,441.7a20.68,20.68,0,0,0-3.693,4.729c-.853,1.944-1.109,6.591-.429,8.438,0,0-4.376-8.508-1.9-12.642C2458.491,437.842,2461.884,441.7,2461.884,441.7Z" transform="translate(-2370.924 -432.552)" fill="#233862"/>
          <path id="Path_15480" data-name="Path 15480" d="M2452.622,561.081c.4,26.545.108,21,3.012,23.517.7.606,2.667.968,5.255,1.139,8.139.54,22.448-.8,22.991-2.305,1.878-5.2.552-6.822,2.119-14.79.163-.847.365-1.765.6-2.764,1.306-5.473,2.577-7.335-2.056-16.128-4.2-7.964-8.567-14.429-8.96-14.2-11.086,6.58-11.98,1.049-11.98,1.049S2452.427,548.133,2452.622,561.081Z" transform="translate(-2369.081 -503.345)" fill="#bc3f3f"/>
          <path id="Path_15481" data-name="Path 15481" d="M2342.537,846.882l8.522,22.934a13.805,13.805,0,0,0,4.527-.414,19.625,19.625,0,0,0,4.378-2.131s-2.366-24.625-6.781-38.761Z" transform="translate(-2287.407 -720.701)" fill="#f99746"/>
          <path id="Path_15482" data-name="Path 15482" d="M2432.035,539.631s-11.407,1.934-12.747,6.845-9.222,33.784-9.222,33.784,5.8,1.042,8.478-1.637,9.322-24.854,9.322-24.854Z" transform="translate(-2337.509 -506.374)" fill="#bc3f3f"/>
          <path id="Path_15483" data-name="Path 15483" d="M2484.665,649.091c8.139.54,22.448-.8,22.992-2.305,1.877-5.2.552-6.822,2.118-14.79l-3.926-11.055s.649,12.31-2.981,15.548-14.864,6.25-16.629,8.956A9.9,9.9,0,0,0,2484.665,649.091Z" transform="translate(-2392.856 -566.7)" fill="#992525"/>
          <path id="Path_15484" data-name="Path 15484" d="M2479.927,706.381s-8.03-1.788-9.326-1.075-4.462,3.308-4.859,4.211,2.885-.686,3.952-.972c.691-.186,2.51.447,3.411.747a11.338,11.338,0,0,0,6.112.613Z" transform="translate(-2378.792 -629.168)" fill="#ffb27d"/>
          <path id="Path_15485" data-name="Path 15485" d="M2522.45,535.549s10.782.664,14.515,5.87c5.254,7.328,15.677,38.56,9.7,42.726-6.728,4.691-30.618,1.227-30.618,1.227s-.795-3.716.311-5.514,19.082-4.7,19.911-5.531-10.37-16.178-10.37-18.666S2522.45,535.549,2522.45,535.549Z" transform="translate(-2415.937 -503.345)" fill="#bc3f3f"/>
          <path id="Path_15486" data-name="Path 15486" d="M2474.125,714.449a15.534,15.534,0,0,1-2.234,2.43,1.647,1.647,0,0,1-.908.194l1.134-2.041Z" transform="translate(-2382.705 -636.076)" fill="#ffb27d"/>
          <path id="Path_15487" data-name="Path 15487" d="M2470.6,705.788l-4.892,2.376a.871.871,0,0,0,.81.313,11.662,11.662,0,0,0,2.122-.583Z" transform="translate(-2378.792 -629.65)" fill="#ffb27d"/>
        </g>
        <g id="Group_7438" data-name="Group 7438" transform="translate(38.85 55.181)">
          <g id="Group_7437" data-name="Group 7437">
            <path id="Path_15488" data-name="Path 15488" d="M2329.792,653.529h-38.7l-11.641-28.947h38.636Z" transform="translate(-2279.456 -624.582)" fill="#163560"/>
            <path id="Path_15489" data-name="Path 15489" d="M2322.8,732.375h51.1V733.5h-50.645Z" transform="translate(-2311.617 -704.557)" fill="#11294a"/>
          </g>
          <path id="Path_15490" data-name="Path 15490" d="M2362.2,675.367a1.341,1.341,0,0,1,1.314-1.842,2.64,2.64,0,0,1,2.371,1.842,1.341,1.341,0,0,1-1.314,1.843A2.64,2.64,0,0,1,2362.2,675.367Z" transform="translate(-2340.787 -660.894)" fill="#fff"/>
        </g>
      </g>
    </g>
  </g>
</svg>
