<svg xmlns="http://www.w3.org/2000/svg" width="12.607" height="11.571" viewBox="0 0 12.607 11.571">
  <path id="chat" d="M11.361,2.48,4.188,2.465A1.247,1.247,0,0,0,2.942,3.711V4.788l-1.7,0A1.247,1.247,0,0,0,0,6.037v4.442a1.247,1.247,0,0,0,1.246,1.246H2.521v2.1a.21.21,0,0,0,.134.2.211.211,0,0,0,.231-.055l2.039-2.243,3.493-.014a1.247,1.247,0,0,0,1.246-1.246V10.44l1.105,1.216a.21.21,0,0,0,.155.069.21.21,0,0,0,.21-.21v-2.1h.225a1.247,1.247,0,0,0,1.246-1.246V3.726A1.247,1.247,0,0,0,11.361,2.48ZM9.245,10.464a.827.827,0,0,1-.827.826L4.832,11.3a.21.21,0,0,0-.155.069L2.942,13.282V11.514a.21.21,0,0,0-.21-.21H1.246a.827.827,0,0,1-.826-.826V6.037a.827.827,0,0,1,.826-.826l1.905,0h0L8.378,5.2h.042a.826.826,0,0,1,.826.826v4.442Zm2.942-2.3a.826.826,0,0,1-.826.826h-.435a.21.21,0,0,0-.21.21v1.768L9.665,9.816V6.022a1.246,1.246,0,0,0-.025-.251q-.013-.061-.031-.119a1.248,1.248,0,0,0-1.19-.876H8.4l-5.035.01V3.711a.827.827,0,0,1,.825-.826L11.36,2.9h0a.827.827,0,0,1,.826.826Z" transform="translate(0 -2.465)" fill="#604ca0"/>
</svg>
