<svg xmlns="http://www.w3.org/2000/svg" width="38" height="38" viewBox="0 0 38 38">
  <g id="chip" transform="translate(0 -0.001)">
    <g id="Group_578" data-name="Group 578" transform="translate(7.14 0.001)">
      <g id="Group_577" data-name="Group 577" transform="translate(0 0)">
        <path id="Path_348" data-name="Path 348" d="M126.509,18.444h-8.963V17.178h2.418a.557.557,0,0,0,0-1.113h-2.418V14.8h1.679a2.326,2.326,0,0,0,1.656-.686l3.661-3.661a1.745,1.745,0,1,0-.787-.787l-3.661,3.661a1.22,1.22,0,0,1-.869.36h-1.679V12.457A2.94,2.94,0,0,0,114.61,9.52h-1.228V4.592a1.747,1.747,0,1,0-1.113,0V9.52H111V7.1a.557.557,0,1,0-1.113,0V9.52h-1.267V.558a.557.557,0,1,0-1.113,0V9.52h-1.266V7.1a.557.557,0,1,0-1.113,0V9.52h-1.266V7.841a2.326,2.326,0,0,0-.686-1.656L99.515,2.524a1.747,1.747,0,1,0-.787.787l3.662,3.662a1.22,1.22,0,0,1,.36.868V9.52h-1.228a2.949,2.949,0,0,0-.734.093.557.557,0,1,0,.278,1.078,1.833,1.833,0,0,1,.456-.057H114.61a1.825,1.825,0,0,1,1.823,1.823V25.545a1.834,1.834,0,0,1-.057.456.557.557,0,1,0,1.078.277,2.946,2.946,0,0,0,.092-.733V24.317h4.928a1.747,1.747,0,1,0,0-1.113h-4.928V21.937h2.418a.557.557,0,0,0,0-1.113h-2.418V19.558h8.963a.557.557,0,0,0,0-1.113ZM124.871,8.439a.633.633,0,1,1-.185.448A.629.629,0,0,1,124.871,8.439ZM98.4,2.2a.633.633,0,1,1,0-.9A.634.634,0,0,1,98.4,2.2Zm14.426,1.375a.633.633,0,1,1,.633-.633A.634.634,0,0,1,112.825,3.571Zm11.3,19.557a.633.633,0,1,1-.633.633A.634.634,0,0,1,124.129,23.127Z" transform="translate(-96.206 -0.001)" fill="#5225b5"/>
      </g>
    </g>
    <g id="Group_580" data-name="Group 580" transform="translate(0 11.305)">
      <g id="Group_579" data-name="Group 579">
        <path id="Path_349" data-name="Path 349" d="M30.349,176.021a1.748,1.748,0,0,0-2.011-.328l-3.662-3.662a1.22,1.22,0,0,1-.36-.868v-1.679h1.228a2.948,2.948,0,0,0,.734-.093A.557.557,0,0,0,26,168.313a1.832,1.832,0,0,1-.456.057H12.456a1.825,1.825,0,0,1-1.823-1.823V153.458A1.831,1.831,0,0,1,10.69,153a.557.557,0,1,0-1.078-.278,2.943,2.943,0,0,0-.093.734v1.228H4.591a1.747,1.747,0,1,0,0,1.113H9.519v1.267H7.1a.557.557,0,1,0,0,1.113H9.519v1.266H.557a.557.557,0,1,0,0,1.113H9.519v1.266H7.1a.557.557,0,1,0,0,1.113H9.519v1.267H7.84a2.326,2.326,0,0,0-1.656.686l-3.661,3.661a1.745,1.745,0,1,0,.787.787l3.661-3.661a1.22,1.22,0,0,1,.869-.36H9.519v1.228a2.94,2.94,0,0,0,2.936,2.936h1.228v4.928a1.747,1.747,0,1,0,1.113,0v-4.928h1.266V171.9a.557.557,0,0,0,1.113,0v-2.418h1.266v8.963a.557.557,0,0,0,1.113,0v-8.963h1.266V171.9a.557.557,0,0,0,1.113,0v-2.418H23.2v1.679a2.326,2.326,0,0,0,.686,1.656l3.662,3.662a1.746,1.746,0,1,0,2.8-.459ZM2.936,155.876a.633.633,0,1,1,.633-.633A.634.634,0,0,1,2.936,155.876Zm-.742,14.688a.633.633,0,1,1,.185-.448A.629.629,0,0,1,2.194,170.564Zm12.679,5.5a.633.633,0,1,1-.633-.633A.634.634,0,0,1,14.874,176.066ZM29.562,177.7a.633.633,0,1,1,0-.9A.634.634,0,0,1,29.562,177.7Z" transform="translate(0 -152.306)" fill="#5225b5"/>
      </g>
    </g>
    <g id="Group_582" data-name="Group 582" transform="translate(13.089 12.495)">
      <g id="Group_581" data-name="Group 581">
        <path id="Path_350" data-name="Path 350" d="M188.179,173.359a2.689,2.689,0,0,0-2.063-2.527,1.9,1.9,0,0,0,.055-.448,2.146,2.146,0,0,0-2.23-2.044,2.316,2.316,0,0,0-1.673.7,2.316,2.316,0,0,0-1.673-.7,2.145,2.145,0,0,0-2.23,2.044,1.9,1.9,0,0,0,.055.448,2.689,2.689,0,0,0-2.063,2.527,2.445,2.445,0,0,0,.586,1.584,2.752,2.752,0,0,0-.586,1.688,2.867,2.867,0,0,0,1.339,2.378h0a2.464,2.464,0,0,0,2.565,2.342,2.656,2.656,0,0,0,2.008-.887,2.656,2.656,0,0,0,2.008.887,2.481,2.481,0,0,0,2.559-2.2,2.6,2.6,0,0,0,1.344-2.227,2.509,2.509,0,0,0-.774-1.785A2.509,2.509,0,0,0,188.179,173.359Zm-1.97,2.277a1.485,1.485,0,0,1,.857,1.293,1.424,1.424,0,0,1-.49,1.047,2.5,2.5,0,0,0-1.463-1.179.557.557,0,0,0-.334,1.062,1.263,1.263,0,0,1,.949,1.152,1.472,1.472,0,0,1-2.9,0v-3.57a1.355,1.355,0,0,1,1.451-1.228.557.557,0,0,0,0-1.113,2.721,2.721,0,0,0-1.451.412V172.8a.557.557,0,0,0-1.113,0v3.09a2.652,2.652,0,0,0-.615-.285.557.557,0,0,0-.334,1.062,1.263,1.263,0,0,1,.949,1.152v1.19a1.472,1.472,0,0,1-2.9,0,1.122,1.122,0,0,1,.346-.795.557.557,0,0,0-.785-.79,2.368,2.368,0,0,0-.344.432,1.7,1.7,0,0,1-.557-1.227,1.9,1.9,0,0,1,1.574-1.762.557.557,0,1,0-.249-1.085,3.391,3.391,0,0,0-1.021.416,1.343,1.343,0,0,1-.3-.841,1.671,1.671,0,0,1,1.772-1.525h.015a.556.556,0,0,0,.472-.85l-.013-.02-.007-.01c-.009-.012-.017-.024-.027-.035h0a.826.826,0,0,1-.2-.534,1.135,1.135,0,0,1,2.233,0,.557.557,0,0,0,1.113,0,1.135,1.135,0,0,1,2.233,0,.783.783,0,0,1-.083.35,3.091,3.091,0,0,0-.914.229.557.557,0,1,0,.433,1.026,2.009,2.009,0,0,1,.77-.156h.031a1.671,1.671,0,0,1,1.772,1.525,1.485,1.485,0,0,1-.857,1.293.557.557,0,0,0,0,.985Z" transform="translate(-176.357 -168.34)" fill="#5225b5"/>
      </g>
    </g>
  </g>
</svg>
