<svg xmlns="http://www.w3.org/2000/svg" width="27.591" height="27.591" viewBox="0 0 27.591 27.591">
  <g id="commentIcon" transform="translate(-398 -1487)">
    <g id="commentIcon-2" data-name="commentIcon">
      <path id="Op_component_1" data-name="Op component 1" d="M18.645,181.814a.539.539,0,0,0-.539.539v3.718a2.7,2.7,0,0,1-2.694,2.694H9.594a.539.539,0,0,0-.539.538v1.071l-1.286-1.286a.539.539,0,0,0-.494-.324h-3.5a2.7,2.7,0,0,1-2.694-2.694v-8.3a2.7,2.7,0,0,1,2.694-2.694H9.215a.539.539,0,1,0,0-1.078H3.772A3.776,3.776,0,0,0,0,177.772v8.3a3.776,3.776,0,0,0,3.772,3.772H7l2.213,2.213a.539.539,0,0,0,.92-.381v-1.833h5.28a3.776,3.776,0,0,0,3.772-3.772v-3.718A.539.539,0,0,0,18.645,181.814Z" transform="translate(398 1322.377)" fill="#848484"/>
      <path id="Op_component_2" data-name="Op component 2" d="M205.2,0h-1.364a7.832,7.832,0,1,0,0,15.665H205.2a7.847,7.847,0,0,0,1.988-.255l2.015,2.014a.539.539,0,0,0,.92-.381V13.925a7.908,7.908,0,0,0,2.059-2.538,7.748,7.748,0,0,0,.851-3.554A7.841,7.841,0,0,0,205.2,0Zm4.059,13.231a.539.539,0,0,0-.215.43v2.08l-1.319-1.318a.539.539,0,0,0-.539-.134,6.757,6.757,0,0,1-1.987.3h-1.364a6.755,6.755,0,1,1,0-13.509H205.2a6.755,6.755,0,0,1,4.059,12.154Z" transform="translate(212.562 1487)" fill="#848484"/>
    </g>
    <path id="Op_component_3" data-name="Op component 3" d="M319.019,72.184a2.287,2.287,0,0,0-2.115-2.115,2.264,2.264,0,0,0-1.717.608,2.29,2.29,0,0,0-.725,1.668.539.539,0,1,0,1.078,0,1.2,1.2,0,0,1,1.29-1.2,1.2,1.2,0,0,1,.178,2.375,1.02,1.02,0,0,0-.8,1v1.295a.539.539,0,0,0,1.078,0V74.562A2.27,2.27,0,0,0,319.019,72.184Z" transform="translate(100.484 1420.712)" fill="#848484"/>
    <path id="Op_component_4" data-name="Op component 4" d="M347.72,206.488a.539.539,0,1,0,.158.381A.543.543,0,0,0,347.72,206.488Z" transform="translate(69.889 1291.789)" fill="#848484"/>
    <path id="Op_component_5" data-name="Op component 5" d="M65.909,310H54.539a.539.539,0,1,0,0,1.078h11.37a.539.539,0,0,0,0-1.078Z" transform="translate(346.91 1193.705)" fill="#848484"/>
    <path id="Op_component_6" data-name="Op component 6" d="M265.92,366.158a.539.539,0,1,0,.158.381A.543.543,0,0,0,265.92,366.158Z" transform="translate(147.28 1140.723)" fill="#848484"/>
    <path id="Op_component_7" data-name="Op component 7" d="M63.79,366H54.539a.539.539,0,1,0,0,1.078H63.79a.539.539,0,1,0,0-1.078Z" transform="translate(346.91 1140.723)" fill="#848484"/>
    <path id="Op_component_8" data-name="Op component 8" d="M62.407,254H54.539a.539.539,0,1,0,0,1.078h7.868a.539.539,0,1,0,0-1.078Z" transform="translate(346.91 1246.688)" fill="#848484"/>
  </g>
</svg>
