<svg id="order" xmlns="http://www.w3.org/2000/svg" width="24.473" height="27.244" viewBox="0 0 24.473 27.244">
  <g id="Group_7120" data-name="Group 7120" transform="translate(1.847 15.238)">
    <g id="Group_7119" data-name="Group 7119" transform="translate(0)">
      <path id="Path_14907" data-name="Path 14907" d="M56.466,264a.462.462,0,0,0-.462.462v1.847a.462.462,0,0,0,.923,0v-1.847A.462.462,0,0,0,56.466,264Z" transform="translate(-56.004 -264.002)" fill="#fff"/>
    </g>
  </g>
  <g id="Group_7122" data-name="Group 7122" transform="translate(3.694 16.161)">
    <g id="Group_7121" data-name="Group 7121">
      <path id="Path_14908" data-name="Path 14908" d="M88.466,280a.462.462,0,0,0-.462.462v1.847a.462.462,0,0,0,.923,0v-1.847A.462.462,0,0,0,88.466,280Z" transform="translate(-88.004 -280.002)" fill="#fff"/>
    </g>
  </g>
  <g id="Group_7124" data-name="Group 7124" transform="translate(15.238 18.008)">
    <g id="Group_7123" data-name="Group 7123" transform="translate(0)">
      <path id="Path_14909" data-name="Path 14909" d="M293.775,312.633a.462.462,0,0,0-.517.765,2.77,2.77,0,1,1-1.549-.472.462.462,0,0,0,0-.923,3.694,3.694,0,1,0,2.066.631Z" transform="translate(-288.016 -312.002)" fill="#fff"/>
    </g>
  </g>
  <g id="Group_7126" data-name="Group 7126">
    <g id="Group_7125" data-name="Group 7125" transform="translate(0 0)">
      <path id="Path_14910" data-name="Path 14910" d="M48.259,20.169a5.539,5.539,0,0,0-3.015-3.5V6.465a.462.462,0,0,0-.227-.4l-10.158-6a.462.462,0,0,0-.47,0l-10.158,6c-.01.006-.017.014-.026.02l-.027.021a.455.455,0,0,0-.1.113s-.006.005-.007.008v0a.462.462,0,0,0-.052.151.409.409,0,0,1-.006.041.4.4,0,0,0-.006.04V18.47a.462.462,0,0,0,.227.4l10.158,6,.037.016.039.017a.412.412,0,0,0,.318,0l.039-.017c.012-.006.025-.009.037-.016l2.757-1.629a5.539,5.539,0,0,0,10.643-3.072ZM34.624,1l2.4,1.419-3.56,2.1a.462.462,0,0,0,.47.8l4-2.361,2.4,1.419L31.084,9.839l-2.4-1.419,3.868-2.286a.462.462,0,0,0-.47-.8L27.775,7.884l-2.4-1.419Zm-4,9.641v3.083l-2.385-1.41V9.23Zm6.955,9.636a5.626,5.626,0,0,0-.152,2.006l-2.339,1.383v-1.5a.462.462,0,0,0-.923,0v1.5l-9.235-5.457V7.274l2.386,1.41v3.892a.462.462,0,0,0,.227.4l3.309,1.955a.462.462,0,0,0,.7-.4V11.185l2.617,1.546v7.586a.462.462,0,1,0,.923,0V12.731l8.369-4.945a.462.462,0,1,0-.47-.8l-8.36,4.941-2.632-1.556,9.251-5.467,3.078,1.819v9.618A5.519,5.519,0,0,0,37.577,20.275Zm5.358,6.045A4.617,4.617,0,1,1,47.553,21.7,4.617,4.617,0,0,1,42.935,26.32Z" transform="translate(-24.004 0)" fill="#fff"/>
    </g>
  </g>
  <g id="Group_7128" data-name="Group 7128" transform="translate(17.09 20.322)">
    <g id="Group_7127" data-name="Group 7127">
      <path id="Path_14911" data-name="Path 14911" d="M323.643,352.229a.462.462,0,0,0-.642,0l-1.751,1.751-.366-.366a.462.462,0,0,0-.653.653l.693.693a.462.462,0,0,0,.653,0l2.078-2.078A.462.462,0,0,0,323.643,352.229Z" transform="translate(-320.102 -352.1)" fill="#fff"/>
    </g>
  </g>
</svg>
