<svg id="doctor_1_" data-name="doctor (1)" xmlns="http://www.w3.org/2000/svg" width="31.042" height="35" viewBox="0 0 31.042 35">
  <g id="Group_2944" data-name="Group 2944" transform="translate(7.431 9.445)">
    <path id="Path_2810" data-name="Path 2810" d="M110.876,140.082v-1.918h-1.17a1.007,1.007,0,0,0-1.007,1.007v.779a1.007,1.007,0,0,0,1.007,1.007h1.17Zm0,0" transform="translate(-108.699 -138.164)" fill="#e2ebf9"/>
    <path id="Path_2811" data-name="Path 2811" d="M314.721,138.164h-1.17v2.793h1.17a1.007,1.007,0,0,0,1.007-1.007v-.779A1.007,1.007,0,0,0,314.721,138.164Zm0,0" transform="translate(-299.547 -138.164)" fill="#e2ebf9"/>
    <path id="Path_2812" data-name="Path 2812" d="M148.012,242.3l3.609-3.39-1.433-.266A1.708,1.708,0,0,1,149,237v-3.143h-6.7V237a1.708,1.708,0,0,1-1.189,1.646l-1.433.266,3.609,3.39A3.453,3.453,0,0,0,148.012,242.3Zm0,0" transform="translate(-137.558 -227.314)" fill="#e2ebf9"/>
  </g>
  <path id="Path_2813" data-name="Path 2813" d="M252.324,233.855v4.766a1.708,1.708,0,0,0,1.189,1.647l1.235.354,1.821-1.71-1.433-.266A1.708,1.708,0,0,1,253.947,237v-3.143Zm0,0" transform="translate(-235.075 -217.869)" fill="#c1c8d2"/>
  <path id="Path_2814" data-name="Path 2814" d="M26.689,299.012l-4.183,3.127-4.183-3.127a.881.881,0,0,0-.783-.138l-7.028,2.12a2.083,2.083,0,0,0-1.451,1.643L7.512,311.7A1.021,1.021,0,0,0,8.519,312.9H36.492A1.021,1.021,0,0,0,37.5,311.7l-1.548-9.065a2.083,2.083,0,0,0-1.451-1.643l-7.028-2.12a.882.882,0,0,0-.783.138Zm0,0" transform="translate(-6.985 -278.408)" fill="#76ffda"/>
  <path id="Path_2815" data-name="Path 2815" d="M137.924,298.874l-1.209.365,2.668,3.734a.771.771,0,0,0,.929.261l2.578-1.1-4.183-3.127A.881.881,0,0,0,137.924,298.874Zm0,0" transform="translate(-127.369 -278.408)" fill="#5de1c0"/>
  <path id="Path_2816" data-name="Path 2816" d="M229.626,303.234a.771.771,0,0,0,.928-.261l2.668-3.734-.006,0-1.2-.363a.882.882,0,0,0-.783.138l-4.183,3.127Zm0,0" transform="translate(-211.527 -278.408)" fill="#5de1c0"/>
  <path id="Path_2817" data-name="Path 2817" d="M199.414,347.145l-2.028.861,1.185,1.378h1.684l1.185-1.378Zm0,0" transform="translate(-183.894 -323.414)" fill="#ff914d"/>
  <path id="Path_2818" data-name="Path 2818" d="M195.209,379.9h-1.684l-1.556,8.518h4.8Zm0,0" transform="translate(-178.846 -353.928)" fill="#ff914d"/>
  <path id="Path_2819" data-name="Path 2819" d="M145.709,31.267c-1.009-.869-2.427-.812-4.3-.833-1.873.021-3.291-.036-4.3.833a5.858,5.858,0,0,0-1.984,4.451v4.936c0,1.7,2.134,6.2,6.284,6.2s6.284-4.5,6.284-6.2V35.718A5.858,5.858,0,0,0,145.709,31.267Zm0,0" transform="translate(-125.888 -28.353)" fill="#fff"/>
  <path id="Path_2820" data-name="Path 2820" d="M208.3,33.629a3.076,3.076,0,0,0-1.4-.66s0,0,0,.007V43.015A7.367,7.367,0,0,1,202.3,48.95a5.424,5.424,0,0,0,1.691.267c4.15,0,6.284-4.5,6.284-6.2V38.08a5.858,5.858,0,0,0-1.984-4.451Zm0,0" transform="translate(-188.475 -30.715)" fill="#e2ebf9"/>
  <path id="Path_2821" data-name="Path 2821" d="M22.506,311.822s-4.7-12.521-4.966-12.44l-7.028,2.12a2.083,2.083,0,0,0-1.451,1.643L7.512,312.21A1.021,1.021,0,0,0,8.519,313.4H36.492A1.021,1.021,0,0,0,37.5,312.21l-1.548-9.065A2.083,2.083,0,0,0,34.5,301.5l-7.028-2.12c-.268-.081-4.966,12.44-4.966,12.44Zm0,0" transform="translate(-6.985 -278.916)" fill="#fff"/>
  <path id="Path_2822" data-name="Path 2822" d="M295.857,312.209l-1.548-9.065a2.082,2.082,0,0,0-1.451-1.643l-7.028-2.121a11.836,11.836,0,0,0-1.017,2.223l5.1,1.538a1.062,1.062,0,0,1,.74.837l1.61,9.424h2.592a1.021,1.021,0,0,0,1.007-1.193Zm0,0" transform="translate(-265.343 -278.915)" fill="#e2ebf9"/>
  <path id="Path_2823" data-name="Path 2823" d="M131.3,7.5h-7.561a3.522,3.522,0,0,0-3.522,3.522V16.8a2.432,2.432,0,0,1,1.593.595.206.206,0,0,0,.35-.148V12.52a1.557,1.557,0,0,1,1.557-1.557h1.415a1.609,1.609,0,0,1,1.018.363l.139.113a1.945,1.945,0,0,0,2.462,0l.139-.113a1.608,1.608,0,0,1,1.018-.363h1.415a1.557,1.557,0,0,1,1.557,1.557v4.732a.206.206,0,0,0,.35.148,2.432,2.432,0,0,1,1.593-.595V11.022A3.522,3.522,0,0,0,131.3,7.5Zm0,0" transform="translate(-112.001 -6.987)" fill="#ab6743"/>
  <path id="Path_2825" data-name="Path 2825" d="M309.228,369.214a2.139,2.139,0,1,1-2.139-2.139A2.14,2.14,0,0,1,309.228,369.214Zm0,0" transform="translate(-284.103 -341.981)" fill="#ff8125"/>
  <path id="Path_2826" data-name="Path 2826" d="M324.342,385.528a.943.943,0,1,1-.943-.942A.943.943,0,0,1,324.342,385.528Zm0,0" transform="translate(-300.414 -358.296)" fill="#ffaa16"/>
  <path id="Path_2827" data-name="Path 2827" d="M31.021,33.207l-1.548-9.065a2.58,2.58,0,0,0-1.809-2.048l-4.176-1.26a4.658,4.658,0,0,0-3.232-4.045c.132-.147.255-.293.367-.436a8.106,8.106,0,0,0,1.66-3.6h.322a1.522,1.522,0,0,0,1.52-1.52v-.779a1.53,1.53,0,0,0-.788-1.329V7.249a.513.513,0,1,0-1.025,0v2.1a3.167,3.167,0,0,0-.681.2.53.53,0,0,0-.072.032c-.055.025-.11.052-.165.081V5.532a2.072,2.072,0,0,0-2.07-2.07H17.909a2.126,2.126,0,0,0-1.342.479l-.139.113a1.431,1.431,0,0,1-1.812,0l-.139-.113a2.126,2.126,0,0,0-1.343-.479H11.72A2.072,2.072,0,0,0,9.65,5.532v4.13c-.055-.03-.11-.056-.165-.081a.473.473,0,0,0-.072-.032,3.152,3.152,0,0,0-.681-.2V4.034a3.013,3.013,0,0,1,3.01-3.01H19.3a3.013,3.013,0,0,1,3.01,3.01V4.84a.513.513,0,0,0,1.025,0V4.034A4.04,4.04,0,0,0,19.3,0H11.742A4.04,4.04,0,0,0,7.707,4.034V9.122a1.531,1.531,0,0,0-.787,1.329v.779a1.521,1.521,0,0,0,1.52,1.52h.322a8.106,8.106,0,0,0,1.66,3.6c.112.143.235.289.367.435a4.675,4.675,0,0,0-3.232,4.045L3.38,22.095a2.581,2.581,0,0,0-1.809,2.048L.943,27.824A.513.513,0,0,0,1.953,28l.629-3.681a1.56,1.56,0,0,1,1.094-1.238l3.862-1.165v1.431a.513.513,0,0,0,1.025,0V21.6l1.762-.531c.166.349.5,1.118,1.171,2.8.623,1.562,1.384,3.527,2.114,5.438a.512.512,0,0,0,.019.049c.5,1.32.994,2.613,1.412,3.728a.513.513,0,0,0,.96,0c.418-1.115.908-2.408,1.413-3.728.007-.016.013-.032.018-.049.742-1.942,1.516-3.938,2.144-5.512.652-1.631.978-2.382,1.142-2.726l1.762.531v3.491a.513.513,0,1,0,1.025,0V21.911l3.862,1.165a1.561,1.561,0,0,1,1.094,1.238L30.01,33.38a.509.509,0,0,1-.5.594H1.536a.508.508,0,0,1-.5-.594l.511-2.992a.513.513,0,0,0-1.011-.173L.023,33.207A1.534,1.534,0,0,0,1.536,35H29.509a1.534,1.534,0,0,0,1.512-1.792Zm-8.612-12.7-1.771-.534h0a1.4,1.4,0,0,0-.9.034,1.355,1.355,0,0,1-.35-.879V17.637a3.612,3.612,0,0,1,3.023,2.873ZM19.3,21.767l-.07.169-.023.056-.061.149-.016.039-.019.046-.032.079-.041.1L19,22.48l-.084.206-.031.078-.047.117-.034.085-.046.115-.043.108-.042.1-.082.206-.032.081-.061.154-.037.095-.059.148-.038.1-.072.183-.025.064-.007.018-.5-.214-.008,0-1.206-.512,2.887-2.158-.041.1-.074.177-.019.045Zm-1.869,4.7-.305.79-.209-1.142.781-.908.191.081Q17.666,25.852,17.427,26.47Zm-3.809,0q-.24-.619-.458-1.179l.191-.081.781.908-.209,1.142C13.822,27,13.72,26.734,13.618,26.47Zm-.865-2.215-.073-.184-.038-.1-.058-.146-.04-.1-.057-.142-.036-.091-.081-.2-.046-.115-.037-.092-.049-.122-.033-.081-.048-.118-.03-.076-.082-.2-.033-.082-.038-.094-.036-.089-.017-.042-.014-.034-.074-.179-.006-.014-.081-.2-.011-.025-.079-.187-.041-.1L14.5,23.607l-1.206.512-.007,0-.5.214-.007-.018-.025-.063ZM12.684,18.3a6.019,6.019,0,0,0,5.676,0v.826a2.431,2.431,0,0,0,.52,1.451l-3.358,2.51-3.358-2.51a2.431,2.431,0,0,0,.52-1.451Zm2.231,7.153-.574-.668,1.181-.5,1.181.5-.574.668H14.915ZM23.1,11.23a.5.5,0,0,1-.495.495h-.287V10.4a2.214,2.214,0,0,1,.495-.067.527.527,0,0,0,.25-.059.487.487,0,0,1,.036.181Zm-15.155,0v-.779a.488.488,0,0,1,.036-.181.524.524,0,0,0,.25.059,2.258,2.258,0,0,1,.495.067v1.328H8.439a.5.5,0,0,1-.494-.495ZM9.751,12.3V10.954a.719.719,0,0,0,.925-.689V5.533A1.046,1.046,0,0,1,11.72,4.488h1.415a1.1,1.1,0,0,1,.693.247l.139.113a2.457,2.457,0,0,0,3.11,0l.139-.113a1.1,1.1,0,0,1,.693-.247h1.415a1.046,1.046,0,0,1,1.044,1.044v4.732a.719.719,0,0,0,.925.69V12.3a6.63,6.63,0,0,1-1.476,3.421,6.757,6.757,0,0,1-1.228,1.217.5.5,0,0,0-.047.035,5,5,0,0,1-6.04,0,.5.5,0,0,0-.047-.035,6.774,6.774,0,0,1-1.228-1.217A6.63,6.63,0,0,1,9.751,12.3Zm1.908,5.338v1.492a1.354,1.354,0,0,1-.35.879,1.4,1.4,0,0,0-.9-.033h0l-1.77.534a3.641,3.641,0,0,1,3.021-2.871Zm3.873,13.789a.5.5,0,0,0-.052-.086c-.232-.612-.525-1.387-.851-2.239l.479-2.62h.829l.479,2.62c-.341.892-.647,1.7-.883,2.324Zm0,0" transform="translate(-0.001 0.001)" fill="#434c54"/>
  <path id="Path_2828" data-name="Path 2828" d="M78.692,343.25h-.639a.513.513,0,0,1,0-1.025h.639a.278.278,0,0,0,.277-.3l-.373-4.792a1.572,1.572,0,0,0-.12-.492,1.535,1.535,0,0,0-1.431-.918h-.1a1.549,1.549,0,0,0-1.451.987,1.569,1.569,0,0,0-.092.421l-.373,4.792a.278.278,0,0,0,.277.3h.639a.513.513,0,1,1,0,1.025h-.639a1.3,1.3,0,0,1-1.3-1.4l.374-4.792a2.544,2.544,0,0,1,2.558-2.355h.1a2.558,2.558,0,0,1,2.375,1.543,2.594,2.594,0,0,1,.2.813l.373,4.792a1.3,1.3,0,0,1-1.3,1.4Zm0,0" transform="translate(-68.947 -311.819)" fill="#aab2b9"/>
</svg>
