<svg id="download" xmlns="http://www.w3.org/2000/svg" width="11.606" height="17.409" viewBox="0 0 11.606 17.409">
  <g id="Group_7107" data-name="Group 7107">
    <g id="Group_7106" data-name="Group 7106">
      <path id="Path_14890" data-name="Path 14890" d="M90.624,14.295h0c.017.017.034.033.053.048l.026.019.031.023.032.019.029.017.033.016.031.015.033.012.034.012.033.008.036.009.038.006.032,0a.73.73,0,0,0,.143,0l.032,0,.038-.006.036-.009.033-.008.034-.012.033-.012.031-.015.033-.016.029-.017.032-.019.031-.023.026-.019c.018-.015.036-.031.053-.048h0l5.078-5.078A.725.725,0,0,0,95.7,8.191l-3.839,3.839V.725a.725.725,0,1,0-1.451,0V12.031L86.572,8.191a.725.725,0,0,0-1.026,1.026Z" transform="translate(-85.334 0)" fill="#8a8a8a"/>
      <path id="Path_14891" data-name="Path 14891" d="M96.214,469.333H86.059a.725.725,0,0,0,0,1.451H96.214a.725.725,0,1,0,0-1.451Z" transform="translate(-85.334 -453.375)" fill="#8a8a8a"/>
    </g>
  </g>
</svg>
