<svg xmlns="http://www.w3.org/2000/svg" width="142.708" height="31" viewBox="0 0 142.708 31">
  <g id="Group_40" data-name="Group 40" transform="translate(-218.197 -628)">
    <path id="Path_24" data-name="Path 24" d="M222.64,658.948h-1.487v-9.707h1.511c2.484,0,4.542,1.563,4.542,4.862s-2.079,4.845-4.566,4.845m.129-12.452h-4.084a.492.492,0,0,0-.488.487V661.2a.489.489,0,0,0,.488.486h4.063c4.329,0,7.523-2.783,7.523-7.584s-3.172-7.607-7.5-7.607" transform="translate(0 -6.843)" fill="#502e92"/>
    <path id="Path_25" data-name="Path 25" d="M251.559,664.653a1.95,1.95,0,1,1-1.949,1.95,1.962,1.962,0,0,1,1.949-1.95" transform="translate(-11.621 -13.56)" fill="#502e92"/>
    <path id="Path_26" data-name="Path 26" d="M266.055,653.29h-2.4V649.07h2.4a2.125,2.125,0,1,1,0,4.221m2.164,2.183a4.308,4.308,0,0,0,3.237-4.3,4.557,4.557,0,0,0-4.844-4.672h-5.447a.489.489,0,0,0-.487.487V661.2a.486.486,0,0,0,.487.486h2a.489.489,0,0,0,.487-.486V655.84H265.2l2.739,5.362a.93.93,0,0,0,.737.486h2.307c.266,0,.376-.22.241-.486Z" transform="translate(-15.716 -6.844)" fill="#502e92"/>
    <path id="Path_27" data-name="Path 27" d="M246.06,653.743a3.137,3.137,0,0,0-3,1.648v-1.082a.483.483,0,0,0-.455-.481h-1.821a.49.49,0,0,0-.486.472v9.584a.49.49,0,0,0,.486.483h1.874l0-.006a.489.489,0,0,0,.486-.486v-4.328c0-2.27,1.266-2.978,2.721-2.978a4.211,4.211,0,0,1,.857.085v-2.87a6.371,6.371,0,0,0-.665-.041" transform="translate(-8.176 -9.524)" fill="#502e92"/>
    <path id="Path_28" data-name="Path 28" d="M348.589,653.877h-2.063a1.007,1.007,0,0,0-.757.483l-2.388,5.687-2.587-5.686a1,1,0,0,0-.759-.483v0h-2.2c-.266,0-.365.219-.212.488l4.241,8.723-2.264,5c-.135.265-.026.485.239.485h2.051a.926.926,0,0,0,.716-.458l6.2-13.756c.147-.268.053-.48-.21-.483" transform="translate(-44.155 -9.573)" fill="#502e92"/>
    <path id="Path_29" data-name="Path 29" d="M366.1,657.845l-1.5-.321c-.58-.108-.964-.428-.964-.945,0-.6.6-1.048,1.348-1.048a1.6,1.6,0,0,1,1.619.994l0,0a.433.433,0,0,0,.537.328l1.532-.344,0,0a.484.484,0,0,0,.332-.554c-.323-1.125-1.421-2.58-4.042-2.58a3.674,3.674,0,0,0-3.94,3.449c0,1.477.919,2.7,2.954,3.148l1.4.323c.81.169,1.135.556,1.135,1.028,0,.556-.453,1.05-1.394,1.05a1.756,1.756,0,0,1-1.893-1.395l0,0a.233.233,0,0,0-.254-.166l-1.792.394a.484.484,0,0,0-.333.564c.33,1.2,1.51,2.784,4.3,2.784,2.764,0,4.091-1.756,4.091-3.468,0-1.542-1.049-2.809-3.128-3.237" transform="translate(-52.767 -9.385)" fill="#502e92"/>
    <path id="Path_30" data-name="Path 30" d="M281.708,657.757a2.281,2.281,0,0,1,2.356-2.077,2.12,2.12,0,0,1,2.357,2.077Zm2.314-4.389a5.6,5.6,0,0,0,.256,11.181,4.762,4.762,0,0,0,4.662-2.978.478.478,0,0,0-.341-.507l-1.531-.454a.5.5,0,0,0-.508.219,2.321,2.321,0,0,1-2.258,1.278,2.567,2.567,0,0,1-2.657-2.4h7.091a.483.483,0,0,0,.481-.479c.007-.127.012-.26.012-.4,0-3.385-1.949-5.461-5.206-5.461" transform="translate(-22.435 -9.385)" fill="#502e92"/>
    <path id="Path_31" data-name="Path 31" d="M303.379,659.2c-1.5,0-2.615-1.113-2.615-3a2.648,2.648,0,0,1,2.615-2.957c1.455,0,2.591,1.051,2.591,2.936,0,1.907-1.136,3.02-2.591,3.02m5.355,1.847-.01-9.823v-4.754a.488.488,0,0,0-.488-.488H306.4a.485.485,0,0,0-.474.425c0,.021-.013.04-.013.062v5.362l.013,0v.174c-.3-.558-1.156-1.309-2.977-1.309-2.979,0-5.056,2.422-5.056,5.507,0,3.191,2.14,5.549,5.142,5.549a3.3,3.3,0,0,0,2.954-1.479c0,.014,0,.028,0,.042l0-.011c0,.153,0,.283.01.4.015.243.038.457.064.62l0-.005v.008a.286.286,0,0,0,.237.166h1.952l-.008-.011a.489.489,0,0,0,.481-.435" transform="translate(-29.484 -6.655)" fill="#502e92"/>
    <path id="Path_32" data-name="Path 32" d="M323.493,659.2c-1.5,0-2.613-1.113-2.613-3a2.645,2.645,0,0,1,2.613-2.957c1.456,0,2.591,1.051,2.591,2.936,0,1.907-1.135,3.02-2.591,3.02m5.353,1.847-.009-9.823v-4.754a.486.486,0,0,0-.486-.488h-1.834a.487.487,0,0,0-.476.425c0,.021-.013.04-.013.062v5.362l.013,0v.174c-.3-.558-1.157-1.309-2.978-1.309-2.977,0-5.055,2.422-5.055,5.507,0,3.191,2.141,5.549,5.142,5.549a3.306,3.306,0,0,0,2.956-1.479v.042l.006-.011c0,.153,0,.283.009.4.015.243.04.457.064.62l0-.005v.008a.284.284,0,0,0,.238.166h1.952l-.009-.011a.484.484,0,0,0,.479-.435" transform="translate(-36.926 -6.655)" fill="#502e92"/>
    <path id="Path_33" data-name="Path 33" d="M360.5,648.114a1.7,1.7,0,0,0,.119-.614,1.746,1.746,0,1,0-2.17,1.68L357.5,651.3a.2.2,0,0,0-.006.045.177.177,0,0,0,.178.178v0h.952a.327.327,0,0,0,.25-.159l1.593-3.17c.012-.027.022-.055.032-.082l0-.006" transform="translate(-51.4 -6.572)" fill="#502e92"/>
    <path id="Path_34" data-name="Path 34" d="M401.983,658.654V637.439a8.2,8.2,0,0,0-4.819-7.281,8.611,8.611,0,0,0-2.964-.714c-5.146-.272-9.124,2.772-10.185,6.88a9.887,9.887,0,0,0,1.567,8.037c2.114,3.1,10.8,11.331,15,15a.875.875,0,0,0,.517.171.884.884,0,0,0,.883-.874m-1.811-9.742a1.558,1.558,0,1,1-1.559-1.559,1.56,1.56,0,0,1,1.559,1.559" transform="translate(-61.238 -0.528)" fill="#502e92"/>
    <path id="Path_35" data-name="Path 35" d="M420.768,658.388a3.87,3.87,0,1,0,3.872,3.871,3.87,3.87,0,0,0-3.872-3.871" transform="translate(-73.51 -11.242)" fill="#502e92"/>
    <path id="Path_36" data-name="Path 36" d="M416.111,672.328a1.336,1.336,0,1,0,1.336,1.336,1.335,1.335,0,0,0-1.336-1.336" transform="translate(-72.726 -16.399)" fill="#502e92"/>
    <path id="Path_37" data-name="Path 37" d="M431.719,643.445a5.143,5.143,0,1,0,5.145,5.146,5.142,5.142,0,0,0-5.145-5.146" transform="translate(-77.092 -5.714)" fill="#502e92"/>
    <path id="Path_38" data-name="Path 38" d="M438.832,633.389a2.7,2.7,0,1,0,2.7,2.7,2.7,2.7,0,0,0-2.7-2.7" transform="translate(-80.627 -1.994)" fill="#502e92"/>
    <path id="Path_39" data-name="Path 39" d="M421.133,637.878a4.939,4.939,0,1,0-4.935-4.939,4.942,4.942,0,0,0,4.935,4.939" transform="translate(-73.252)" fill="#502e92"/>
    <path id="Path_40" data-name="Path 40" d="M420.887,648.856a2.935,2.935,0,1,1-2.936-2.937,2.937,2.937,0,0,1,2.936,2.937" transform="translate(-72.815 -6.629)" fill="#502e92"/>
  </g>
</svg>
