<svg xmlns="http://www.w3.org/2000/svg" width="52.319" height="52.319" viewBox="0 0 52.319 52.319">
  <g id="Group_7442" data-name="Group 7442" transform="translate(-1114 -446)">
    <rect id="Rectangle_550" data-name="Rectangle 550" width="52.319" height="52.319" rx="26.16" transform="translate(1114 446)" fill="#4dcebf"/>
    <g id="envelope" transform="translate(1127 398)">
      <g id="Group_7420" data-name="Group 7420" transform="translate(0 64)">
        <path id="Path_15425" data-name="Path 15425" d="M23.709,64H2.155A2.157,2.157,0,0,0,0,66.155V81.243A2.157,2.157,0,0,0,2.155,83.4H23.709a2.157,2.157,0,0,0,2.155-2.155V66.155A2.157,2.157,0,0,0,23.709,64ZM2.155,65.078H23.709a1.016,1.016,0,0,1,.166.034L13.5,73.531a1.151,1.151,0,0,1-1.107.028L1.989,65.112A1.009,1.009,0,0,1,2.155,65.078ZM24.787,81.243a1.079,1.079,0,0,1-1.078,1.078H2.155a1.079,1.079,0,0,1-1.078-1.078V66.155a1.053,1.053,0,0,1,.069-.34l10.62,8.615a2.135,2.135,0,0,0,2.293.024.5.5,0,0,0,.089-.058l10.57-8.581a1.052,1.052,0,0,1,.069.34V81.243Z" transform="translate(0 -64)" fill="#fff"/>
      </g>
    </g>
  </g>
</svg>
