<svg xmlns="http://www.w3.org/2000/svg" width="12.15" height="16.2" viewBox="0 0 12.15 16.2">
  <g id="Group_1415" data-name="Group 1415" transform="translate(0 1.866)">
    <g id="Group_1277" data-name="Group 1277" transform="translate(0 -1.866)">
      <path id="Path_1143" data-name="Path 1143" d="M76.051,3.474,72.676.1a.337.337,0,0,0-.239-.1H65.35A1.351,1.351,0,0,0,64,1.35v13.5a1.351,1.351,0,0,0,1.35,1.35H74.8a1.351,1.351,0,0,0,1.35-1.35V3.713A.337.337,0,0,0,76.051,3.474ZM72.775,1.152,75,3.375H73.45a.676.676,0,0,1-.675-.675Zm2.7,13.7a.676.676,0,0,1-.675.675H65.35a.676.676,0,0,1-.675-.675V1.35A.676.676,0,0,1,65.35.675H72.1V2.7a1.351,1.351,0,0,0,1.35,1.35h2.025Z" transform="translate(-64)" fill="#7b65c5"/>
      <path id="Path_1144" data-name="Path 1144" d="M133.771,175.174a9.767,9.767,0,0,1-.807-.7c-.257-.257-.486-.506-.685-.744a7.556,7.556,0,0,0,.447-1.718c0-1.12-.4-1.35-1.013-1.35-.462,0-1.012.24-1.012,1.382a3.236,3.236,0,0,0,.823,1.826c-.134.408-.291.879-.468,1.41-.085.255-.177.491-.275.709-.079.035-.157.071-.231.108-.268.134-.523.255-.759.367-1.078.51-1.79.848-1.79,1.514,0,.484.526.783,1.012.783.628,0,1.575-.838,2.267-2.25a13.425,13.425,0,0,1,2.317-.625,3.871,3.871,0,0,0,1.491.85c.837,0,1.013-.484,1.013-.89,0-.8-.912-.8-1.35-.8A8,8,0,0,0,133.771,175.174Zm-4.758,2.917a.533.533,0,0,1-.337-.108c0-.239.714-.577,1.4-.9l.134-.063C129.705,177.75,129.2,178.091,129.012,178.091Zm2.363-6.043c0-.707.219-.707.337-.707.239,0,.337,0,.337.675a5.411,5.411,0,0,1-.269,1.054A2.074,2.074,0,0,1,131.375,172.048Zm.259,3.627q.032-.088.061-.178c.125-.376.238-.713.339-1.017q.21.231.453.474c.063.063.22.206.429.384C132.5,175.429,132.057,175.542,131.634,175.676Zm3.791.176c0,.152,0,.215-.313.217a2.487,2.487,0,0,1-.567-.324c.1-.011.165-.016.205-.016C135.249,175.729,135.39,175.777,135.425,175.852Z" transform="translate(-125.975 -165.266)" fill="#7b65c5"/>
    </g>
  </g>
</svg>
