<?xml version="1.0" encoding="utf-8"?>
<!-- Generator: Adobe Illustrator 14.0.0, SVG Export Plug-In . SVG Version: 6.00 Build 43363)  -->
<!DOCTYPE svg PUBLIC "-//W3C//DTD SVG 1.1//EN" "http://www.w3.org/Graphics/SVG/1.1/DTD/svg11.dtd">
<svg version="1.1" id="Layer_1" xmlns="http://www.w3.org/2000/svg" xmlns:xlink="http://www.w3.org/1999/xlink" x="0px" y="0px"
	 width="20.375px" height="19.625px" viewBox="0 0 20.375 19.625" enable-background="new 0 0 20.375 19.625" xml:space="preserve">
<path id="Path_723" fill="none" stroke="#CECECE" stroke-width="2" stroke-linecap="round" stroke-linejoin="round" d="
	M14.139,15.518c-1.281,0.978-2.842,1.519-4.451,1.545c-5.25,0-8.25-6-8.25-6c0.935-1.738,2.23-3.257,3.8-4.455 M8.112,5.243
	c0.517-0.121,1.045-0.181,1.575-0.18c5.25,0,8.25,6,8.25,6c-0.455,0.853-0.998,1.653-1.621,2.394 M11.277,12.654
	c-0.848,0.908-2.271,0.959-3.18,0.111c-0.909-0.847-0.959-2.271-0.112-3.18c0.036-0.038,0.074-0.075,0.113-0.111"/>
<path id="Path_724" fill="none" stroke="#CECECE" stroke-width="2" stroke-linecap="round" stroke-linejoin="round" d="M2.438,1.563
	l16.5,16.5"/>
</svg>
