<svg xmlns="http://www.w3.org/2000/svg" width="13.5" height="12.129" viewBox="0 0 13.5 12.129">
  <g id="filter_1_" data-name="filter(1)" transform="translate(0 0)">
    <path id="Path_1212" data-name="Path 1212" d="M366.264,100.527a.264.264,0,1,0-.264-.264A.264.264,0,0,0,366.264,100.527Zm0,0" transform="translate(-356.349 -97.363)" fill="#a5a5a5"/>
    <path id="Path_1213" data-name="Path 1213" d="M13.237,0H.264A.264.264,0,0,0,0,.264V.9A1.21,1.21,0,0,0,1.208,2.109H1.35l4.082,5.1v4.654a.264.264,0,0,0,.307.26l.181-.03a2.8,2.8,0,0,0,1.289-.578,2.491,2.491,0,0,0,.859-1.234V7.212l4.082-5.1h.032A1.32,1.32,0,0,0,13.5.791V.264A.264.264,0,0,0,13.237,0ZM6.879,11.107a2.268,2.268,0,0,1-.92.444V7.383H7.541v2.848a2.265,2.265,0,0,1-.662.875Zm.8-4.251H5.822l-3.8-4.746h9.45ZM12.973.791a.792.792,0,0,1-.791.791H1.208A.682.682,0,0,1,.527.9V.527H12.973Zm0,0" fill="#a5a5a5"/>
    <path id="Path_1214" data-name="Path 1214" d="M266.869,132.443a.264.264,0,0,0,.371-.041l1.907-2.384a.264.264,0,0,0-.412-.329l-1.907,2.384A.264.264,0,0,0,266.869,132.443Zm0,0" transform="translate(-259.736 -126.172)" fill="#a5a5a5"/>
  </g>
</svg>
