<svg xmlns="http://www.w3.org/2000/svg" width="32.246" height="412" viewBox="0 0 32.246 412">
  <g id="Group_863" data-name="Group 863" transform="translate(0)">
    <g id="speedometer_2_" data-name="speedometer (2)" transform="translate(1.441)">
      <g id="Group_504" data-name="Group 504">
        <g id="Group_503" data-name="Group 503">
          <path id="Path_231" data-name="Path 231" d="M23.838,4.09a13.964,13.964,0,0,0-19.748,0h0A13.873,13.873,0,0,0,0,13.964H0a13.845,13.845,0,0,0,2.793,8.379.818.818,0,0,0,.654.327H24.481a.818.818,0,0,0,.654-.327,13.846,13.846,0,0,0,2.792-8.379h0A13.873,13.873,0,0,0,23.838,4.09Zm.226,16.943H3.864a12.192,12.192,0,0,1-2.2-6.251h.908a.818.818,0,0,0,0-1.636H1.664a12.276,12.276,0,0,1,3.028-7.3l.637.637A.818.818,0,0,0,6.486,5.329l-.637-.637a12.276,12.276,0,0,1,7.3-3.028v.907a.818.818,0,0,0,1.636,0V1.664a12.276,12.276,0,0,1,7.3,3.028l-.637.637A.818.818,0,1,0,22.6,6.486l.637-.637a12.276,12.276,0,0,1,3.028,7.3h-.907a.818.818,0,0,0,0,1.636h.908A12.194,12.194,0,0,1,24.064,21.033Z" transform="translate(0)" fill="#fff"/>
        </g>
      </g>
      <g id="Group_508" data-name="Group 508" transform="translate(10.517 8.595)">
        <g id="Group_507" data-name="Group 507">
          <path id="Path_233" data-name="Path 233" d="M201.375,157.815a.818.818,0,0,0-1.157,0L198.035,160a3.449,3.449,0,1,0,1.157,1.157l2.183-2.183A.818.818,0,0,0,201.375,157.815Zm-5.129,6.94a1.811,1.811,0,1,1,1.811-1.811A1.813,1.813,0,0,1,196.246,164.755Z" transform="translate(-192.799 -157.576)" fill="#fff"/>
        </g>
      </g>
    </g>
    <g id="Group_509" data-name="Group 509" transform="translate(0.441 86)">
      <g id="mountain-peak">
        <path id="Path_12" data-name="Path 12" d="M480,476.137h1v1h-1Zm0,0" transform="translate(-450 -446.379)" fill="#fff"/>
        <path id="Path_13" data-name="Path 13" d="M0,476.137H1v1H0Zm0,0" transform="translate(0 -446.379)" fill="#fff"/>
        <path id="Path_14" data-name="Path 14" d="M25.462,22.925a4.735,4.735,0,0,0-3.339-3.03L19.82,12A4.524,4.524,0,0,0,16,8.79V6.611L23.867,3.8,15,0V8.79a4.454,4.454,0,0,0-.882.19,3.533,3.533,0,0,0-3.031-.6A4.5,4.5,0,0,0,2.534,10.8,3,3,0,0,0,3,16.758H9.791l-.292,1A4.523,4.523,0,0,0,5.18,21l-2.555,8.76H1.5v1H29v-1H27.854ZM16,1.517l5.132,2.2L16,5.549ZM16.8,25.2a1.586,1.586,0,0,0,1.2.56c1.058,0,1.552-.985,1.947-1.777.38-.761.641-1.223,1.052-1.223s.673.462,1.053,1.223c.4.792.889,1.777,1.948,1.777a1.59,1.59,0,0,0,1.2-.562l1.6,4.562H15.2Zm7.718-1.944.272.779c-.293.522-.518.725-.793.725-.412,0-.673-.463-1.053-1.224-.4-.792-.889-1.776-1.948-1.776s-1.552.985-1.948,1.776c-.38.761-.641,1.224-1.052,1.224-.274,0-.5-.2-.79-.722l.273-.782a3.729,3.729,0,0,1,7.039,0ZM21,19.758a4.735,4.735,0,0,0-4.463,3.166l-1.175,3.358L13.82,21a4.527,4.527,0,0,0-3.313-3.122l.784-2.687a1.585,1.585,0,0,0,1.206.57c1.058,0,1.552-.985,1.947-1.777.38-.761.641-1.223,1.052-1.223s.673.462,1.053,1.223c.4.792.889,1.777,1.948,1.777a1.592,1.592,0,0,0,1.209-.572l1.334,4.574-.042,0Zm-2.14-7.48.484,1.659c-.324.6-.555.821-.845.821-.412,0-.673-.463-1.053-1.224-.4-.792-.889-1.776-1.948-1.776s-1.552.985-1.948,1.776c-.38.761-.641,1.224-1.052,1.224-.29,0-.52-.221-.842-.818l.485-1.662a3.5,3.5,0,0,1,6.72,0ZM3,15.758a2,2,0,1,1,2-2H6a3,3,0,0,0-2.451-2.948,3.5,3.5,0,0,1,6.775-1.645l.172.522.5-.22a2.529,2.529,0,0,1,2.048.027A4.5,4.5,0,0,0,11.18,12l-1.1,3.76Zm6.5,3a3.518,3.518,0,0,1,3.36,2.52l.289.992c-.278.422-.477.488-.651.488-.412,0-.673-.463-1.053-1.224-.4-.792-.889-1.776-1.948-1.776s-1.552.985-1.948,1.776c-.38.761-.641,1.224-1.052,1.224-.173,0-.371-.066-.647-.485l.29-1a3.518,3.518,0,0,1,3.36-2.52ZM5.52,23.4a1.5,1.5,0,0,0,.977.356c1.058,0,1.552-.985,1.947-1.777.38-.761.641-1.223,1.052-1.223s.673.462,1.053,1.223c.4.792.889,1.777,1.948,1.777a1.522,1.522,0,0,0,.979-.362l1.315,4.51-.648,1.852H3.666Zm0,0" transform="translate(0 0)" fill="#fff"/>
      </g>
      <g id="mountain-peak-2" data-name="mountain-peak">
        <path id="Path_12-2" data-name="Path 12" d="M480,476.137h1v1h-1Zm0,0" transform="translate(-450 -446.379)" fill="#fff"/>
        <path id="Path_13-2" data-name="Path 13" d="M0,476.137H1v1H0Zm0,0" transform="translate(0 -446.379)" fill="#fff"/>
        <path id="Path_14-2" data-name="Path 14" d="M25.462,22.925a4.735,4.735,0,0,0-3.339-3.03L19.82,12A4.524,4.524,0,0,0,16,8.79V6.611L23.867,3.8,15,0V8.79a4.454,4.454,0,0,0-.882.19,3.533,3.533,0,0,0-3.031-.6A4.5,4.5,0,0,0,2.534,10.8,3,3,0,0,0,3,16.758H9.791l-.292,1A4.523,4.523,0,0,0,5.18,21l-2.555,8.76H1.5v1H29v-1H27.854ZM16,1.517l5.132,2.2L16,5.549ZM16.8,25.2a1.586,1.586,0,0,0,1.2.56c1.058,0,1.552-.985,1.947-1.777.38-.761.641-1.223,1.052-1.223s.673.462,1.053,1.223c.4.792.889,1.777,1.948,1.777a1.59,1.59,0,0,0,1.2-.562l1.6,4.562H15.2Zm7.718-1.944.272.779c-.293.522-.518.725-.793.725-.412,0-.673-.463-1.053-1.224-.4-.792-.889-1.776-1.948-1.776s-1.552.985-1.948,1.776c-.38.761-.641,1.224-1.052,1.224-.274,0-.5-.2-.79-.722l.273-.782a3.729,3.729,0,0,1,7.039,0ZM21,19.758a4.735,4.735,0,0,0-4.463,3.166l-1.175,3.358L13.82,21a4.527,4.527,0,0,0-3.313-3.122l.784-2.687a1.585,1.585,0,0,0,1.206.57c1.058,0,1.552-.985,1.947-1.777.38-.761.641-1.223,1.052-1.223s.673.462,1.053,1.223c.4.792.889,1.777,1.948,1.777a1.592,1.592,0,0,0,1.209-.572l1.334,4.574-.042,0Zm-2.14-7.48.484,1.659c-.324.6-.555.821-.845.821-.412,0-.673-.463-1.053-1.224-.4-.792-.889-1.776-1.948-1.776s-1.552.985-1.948,1.776c-.38.761-.641,1.224-1.052,1.224-.29,0-.52-.221-.842-.818l.485-1.662a3.5,3.5,0,0,1,6.72,0ZM3,15.758a2,2,0,1,1,2-2H6a3,3,0,0,0-2.451-2.948,3.5,3.5,0,0,1,6.775-1.645l.172.522.5-.22a2.529,2.529,0,0,1,2.048.027A4.5,4.5,0,0,0,11.18,12l-1.1,3.76Zm6.5,3a3.518,3.518,0,0,1,3.36,2.52l.289.992c-.278.422-.477.488-.651.488-.412,0-.673-.463-1.053-1.224-.4-.792-.889-1.776-1.948-1.776s-1.552.985-1.948,1.776c-.38.761-.641,1.224-1.052,1.224-.173,0-.371-.066-.647-.485l.29-1a3.518,3.518,0,0,1,3.36-2.52ZM5.52,23.4a1.5,1.5,0,0,0,.977.356c1.058,0,1.552-.985,1.947-1.777.38-.761.641-1.223,1.052-1.223s.673.462,1.053,1.223c.4.792.889,1.777,1.948,1.777a1.522,1.522,0,0,0,.979-.362l1.315,4.51-.648,1.852H3.666Zm0,0" transform="translate(0 0)" fill="#fff"/>
      </g>
    </g>
    <g id="catalog" transform="translate(0.441 189)">
      <g id="Group_510" data-name="Group 510">
        <path id="Path_234" data-name="Path 234" d="M275.753,90.58l9.47-9-5.907-6.217Zm7.328-9.052-4.7,4.462,1.767-7.546Z" transform="translate(-253.418 -72.653)" fill="#fff"/>
        <path id="Path_235" data-name="Path 235" d="M212.193,45.115l-.034-.008-8.392-1.965-.031.131L208.871,59.3Zm-6.245.093,4.424,1.036-1.728,7.379Z" transform="translate(-187.235 -43.039)" fill="#fff"/>
        <path id="Path_236" data-name="Path 236" d="M87.325,44.509l.3.943L100.973,58.8l.008-.026-5.415-16.9Zm2.342.84,4.918-1.575,3.06,9.554Z" transform="translate(-80.252 -41.869)" fill="#fff"/>
        <path id="Path_237" data-name="Path 237" d="M21.37,101.745l.045-.046-.024-.024L6.118,86.4l-.015.015L0,92.521l15.3,15.3ZM6.118,88.545,19.273,101.7,15.3,105.675,2.142,92.521Z" transform="translate(0 -82.795)" fill="#fff"/>
        <path id="Path_238" data-name="Path 238" d="M174.4,260.057a1.326,1.326,0,1,1-1.326,1.326A1.326,1.326,0,0,1,174.4,260.057Z" transform="translate(-159.054 -242.384)" fill="#fff"/>
      </g>
    </g>
    <g id="newspaper" transform="translate(0.408 297)">
      <g id="Group_511" data-name="Group 511">
        <path id="Path_239" data-name="Path 239" d="M28.418,7.638a.758.758,0,0,0-.756.756v20.06A3.845,3.845,0,0,1,23.82,32.3H5.354a3.845,3.845,0,0,1-3.842-3.842V6.813H23.638V26.274a.756.756,0,0,0,1.512,0V6.057a.758.758,0,0,0-.756-.756H.756A.758.758,0,0,0,0,6.057V28.447A5.357,5.357,0,0,0,5.354,33.8h18.46a5.357,5.357,0,0,0,5.354-5.354V8.393A.749.749,0,0,0,28.418,7.638Z" transform="translate(0 -5.301)" fill="#fff"/>
        <path id="Path_240" data-name="Path 240" d="M72.932,76.013a.756.756,0,0,0,0-1.512H56.456a.756.756,0,1,0,0,1.512Z" transform="translate(-52.192 -70.143)" fill="#fff"/>
        <path id="Path_241" data-name="Path 241" d="M72.932,319.1H56.456a.756.756,0,1,0,0,1.512h16.47a.756.756,0,0,0,.006-1.512Z" transform="translate(-52.192 -299.337)" fill="#fff"/>
        <path id="Path_242" data-name="Path 242" d="M111.818,380.6H97.956a.756.756,0,0,0,0,1.512h13.863a.756.756,0,1,0,0-1.512Z" transform="translate(-91.078 -356.963)" fill="#fff"/>
        <path id="Path_243" data-name="Path 243" d="M51.7,129.157v8.175a.758.758,0,0,0,.756.756h8.207a.758.758,0,0,0,.756-.756v-8.175a.758.758,0,0,0-.756-.756H52.456A.758.758,0,0,0,51.7,129.157Zm1.512.756h6.7v6.664h-6.7Z" transform="translate(-48.444 -120.648)" fill="#fff"/>
        <path id="Path_244" data-name="Path 244" d="M243.591,140.4h-5.435a.756.756,0,0,0,0,1.512h5.435a.756.756,0,0,0,0-1.512Z" transform="translate(-222.448 -131.892)" fill="#fff"/>
        <path id="Path_245" data-name="Path 245" d="M243.591,194.6h-5.435a.756.756,0,1,0,0,1.512h5.435a.756.756,0,1,0,0-1.512Z" transform="translate(-222.448 -182.678)" fill="#fff"/>
        <path id="Path_246" data-name="Path 246" d="M244.347,252.957a.758.758,0,0,0-.756-.756h-5.435a.756.756,0,0,0,0,1.512h5.435A.754.754,0,0,0,244.347,252.957Z" transform="translate(-222.448 -236.65)" fill="#fff"/>
      </g>
    </g>
    <g id="email" transform="translate(0 390)">
      <g id="Group_512" data-name="Group 512">
        <path id="Path_247" data-name="Path 247" d="M26.344,61H2.538A2.543,2.543,0,0,0,0,63.538V80.462A2.543,2.543,0,0,0,2.538,83H26.344a2.543,2.543,0,0,0,2.538-2.538V63.538A2.543,2.543,0,0,0,26.344,61Zm-.351,1.692-11.5,11.5L2.9,62.692ZM1.692,80.111V63.881l8.15,8.08Zm1.2,1.2,8.155-8.155L13.9,75.985a.846.846,0,0,0,1.194,0L17.882,73.2l8.111,8.111Zm24.3-1.2L19.079,72l8.111-8.111Z" transform="translate(0 -61)" fill="#fff"/>
      </g>
    </g>
  </g>
</svg>
