<?xml version="1.0" encoding="utf-8"?>
<!-- Generator: Adobe Illustrator 14.0.0, SVG Export Plug-In . SVG Version: 6.00 Build 43363)  -->
<!DOCTYPE svg PUBLIC "-//W3C//DTD SVG 1.1//EN" "http://www.w3.org/Graphics/SVG/1.1/DTD/svg11.dtd">
<svg version="1.1" id="Layer_1" xmlns="http://www.w3.org/2000/svg" xmlns:xlink="http://www.w3.org/1999/xlink" x="0px" y="0px"
	 width="669.343px" height="778.789px" viewBox="92.343 0 669.343 778.789" enable-background="new 92.343 0 669.343 778.789"
	 xml:space="preserve">
<g id="Group_1546" transform="translate(-611.305 12.152)">
	<path id="Path_476" fill="#F8F8F8" d="M1372.992-12.152h-152.514L837.5,121.182l234.729,645.455h300.762L1372.992-12.152z"/>
	<g id="Group_861" transform="translate(814.5 578)" opacity="0.18">
		<g id="Group_48">
			<circle id="Ellipse_10" fill="#AAAAAA" cx="114.5" cy="96.5" r="3.5"/>
			<circle id="Ellipse_10-2" fill="#AAAAAA" cx="114.5" cy="112.5" r="3.5"/>
			<circle id="Ellipse_10-3" fill="#AAAAAA" cx="114.5" cy="128.5" r="3.5"/>
			<circle id="Ellipse_10-4" fill="#AAAAAA" cx="114.5" cy="144.5" r="3.5"/>
			<circle id="Ellipse_10-5" fill="#AAAAAA" cx="114.5" cy="160.5" r="3.5"/>
		</g>
		<g id="Group_49" transform="translate(18)">
			<circle id="Ellipse_10-6" fill="#AAAAAA" cx="114.5" cy="96.5" r="3.5"/>
			<circle id="Ellipse_10-7" fill="#AAAAAA" cx="114.5" cy="112.5" r="3.5"/>
			<circle id="Ellipse_10-8" fill="#AAAAAA" cx="114.5" cy="128.5" r="3.5"/>
			<circle id="Ellipse_10-9" fill="#AAAAAA" cx="114.5" cy="144.5" r="3.5"/>
			<circle id="Ellipse_10-10" fill="#AAAAAA" cx="114.5" cy="160.5" r="3.5"/>
		</g>
		<g id="Group_50" transform="translate(36)">
			<circle id="Ellipse_10-11" fill="#AAAAAA" cx="114.5" cy="96.5" r="3.5"/>
			<circle id="Ellipse_10-12" fill="#AAAAAA" cx="114.5" cy="112.5" r="3.5"/>
			<circle id="Ellipse_10-13" fill="#AAAAAA" cx="114.5" cy="128.5" r="3.5"/>
			<circle id="Ellipse_10-14" fill="#AAAAAA" cx="114.5" cy="144.5" r="3.5"/>
			<circle id="Ellipse_10-15" fill="#AAAAAA" cx="114.5" cy="160.5" r="3.5"/>
		</g>
		<g id="Group_51" transform="translate(54)">
			<circle id="Ellipse_10-16" fill="#AAAAAA" cx="114.5" cy="96.5" r="3.5"/>
			<circle id="Ellipse_10-17" fill="#AAAAAA" cx="114.5" cy="112.5" r="3.5"/>
			<circle id="Ellipse_10-18" fill="#AAAAAA" cx="114.5" cy="128.5" r="3.5"/>
			<circle id="Ellipse_10-19" fill="#AAAAAA" cx="114.5" cy="144.5" r="3.5"/>
			<circle id="Ellipse_10-20" fill="#AAAAAA" cx="114.5" cy="160.5" r="3.5"/>
		</g>
		<g id="Group_52" transform="translate(72)">
			<circle id="Ellipse_10-21" fill="#AAAAAA" cx="114.499" cy="96.5" r="3.5"/>
			<circle id="Ellipse_10-22" fill="#AAAAAA" cx="114.499" cy="112.5" r="3.5"/>
			<circle id="Ellipse_10-23" fill="#AAAAAA" cx="114.499" cy="128.5" r="3.5"/>
			<circle id="Ellipse_10-24" fill="#AAAAAA" cx="114.499" cy="144.5" r="3.5"/>
			<circle id="Ellipse_10-25" fill="#AAAAAA" cx="114.499" cy="160.5" r="3.5"/>
		</g>
		<g id="Group_53" transform="translate(90)">
			<circle id="Ellipse_10-26" fill="#AAAAAA" cx="114.5" cy="96.5" r="3.5"/>
			<circle id="Ellipse_10-27" fill="#AAAAAA" cx="114.5" cy="112.5" r="3.5"/>
			<circle id="Ellipse_10-28" fill="#AAAAAA" cx="114.5" cy="128.5" r="3.5"/>
			<circle id="Ellipse_10-29" fill="#AAAAAA" cx="114.5" cy="144.5" r="3.5"/>
			<circle id="Ellipse_10-30" fill="#AAAAAA" cx="114.5" cy="160.5" r="3.5"/>
		</g>
		<g id="Group_54" transform="translate(108)">
			<circle id="Ellipse_10-31" fill="#AAAAAA" cx="114.5" cy="96.5" r="3.5"/>
			<circle id="Ellipse_10-32" fill="#AAAAAA" cx="114.5" cy="112.5" r="3.5"/>
			<circle id="Ellipse_10-33" fill="#AAAAAA" cx="114.5" cy="128.5" r="3.5"/>
			<circle id="Ellipse_10-34" fill="#AAAAAA" cx="114.5" cy="144.5" r="3.5"/>
			<circle id="Ellipse_10-35" fill="#AAAAAA" cx="114.5" cy="160.5" r="3.5"/>
		</g>
		<g id="Group_55" transform="translate(126)">
			<circle id="Ellipse_10-36" fill="#AAAAAA" cx="114.5" cy="96.5" r="3.5"/>
			<circle id="Ellipse_10-37" fill="#AAAAAA" cx="114.5" cy="112.5" r="3.5"/>
			<circle id="Ellipse_10-38" fill="#AAAAAA" cx="114.5" cy="128.5" r="3.5"/>
			<circle id="Ellipse_10-39" fill="#AAAAAA" cx="114.5" cy="144.5" r="3.5"/>
			<circle id="Ellipse_10-40" fill="#AAAAAA" cx="114.5" cy="160.5" r="3.5"/>
		</g>
		<g id="Group_56" transform="translate(144)">
			<circle id="Ellipse_10-41" fill="#AAAAAA" cx="114.5" cy="96.5" r="3.5"/>
			<circle id="Ellipse_10-42" fill="#AAAAAA" cx="114.5" cy="112.5" r="3.5"/>
			<circle id="Ellipse_10-43" fill="#AAAAAA" cx="114.5" cy="128.5" r="3.5"/>
			<circle id="Ellipse_10-44" fill="#AAAAAA" cx="114.5" cy="144.5" r="3.5"/>
			<circle id="Ellipse_10-45" fill="#AAAAAA" cx="114.5" cy="160.5" r="3.5"/>
		</g>
		<g id="Group_57" transform="translate(162)">
			<circle id="Ellipse_10-46" fill="#AAAAAA" cx="114.5" cy="96.5" r="3.5"/>
			<circle id="Ellipse_10-47" fill="#AAAAAA" cx="114.5" cy="112.5" r="3.5"/>
			<circle id="Ellipse_10-48" fill="#AAAAAA" cx="114.5" cy="128.5" r="3.5"/>
			<circle id="Ellipse_10-49" fill="#AAAAAA" cx="114.5" cy="144.5" r="3.5"/>
			<circle id="Ellipse_10-50" fill="#AAAAAA" cx="114.5" cy="160.5" r="3.5"/>
		</g>
	</g>
	<g id="Group_862" transform="matrix(0.342, 0.94, -0.94, 0.342, 840.886, -40.159)" opacity="0.18">
		<g id="Group_48-2">
			<circle id="Ellipse_10-51" fill="#AAAAAA" cx="114.5" cy="96.5" r="3.5"/>
			<circle id="Ellipse_10-52" fill="#AAAAAA" cx="114.5" cy="112.5" r="3.5"/>
			<circle id="Ellipse_10-53" fill="#AAAAAA" cx="114.5" cy="128.5" r="3.5"/>
			<circle id="Ellipse_10-54" fill="#AAAAAA" cx="114.5" cy="144.5" r="3.5"/>
			<circle id="Ellipse_10-55" fill="#AAAAAA" cx="114.5" cy="160.5" r="3.5"/>
		</g>
		<g id="Group_49-2" transform="translate(18)">
			<circle id="Ellipse_10-56" fill="#AAAAAA" cx="114.5" cy="96.5" r="3.5"/>
			<circle id="Ellipse_10-57" fill="#AAAAAA" cx="114.5" cy="112.5" r="3.5"/>
			<circle id="Ellipse_10-58" fill="#AAAAAA" cx="114.5" cy="128.5" r="3.5"/>
			<circle id="Ellipse_10-59" fill="#AAAAAA" cx="114.5" cy="144.5" r="3.5"/>
			<circle id="Ellipse_10-60" fill="#AAAAAA" cx="114.5" cy="160.5" r="3.5"/>
		</g>
		<g id="Group_50-2" transform="translate(36)">
			<circle id="Ellipse_10-61" fill="#AAAAAA" cx="114.5" cy="96.5" r="3.5"/>
			<circle id="Ellipse_10-62" fill="#AAAAAA" cx="114.5" cy="112.5" r="3.5"/>
			<circle id="Ellipse_10-63" fill="#AAAAAA" cx="114.5" cy="128.5" r="3.5"/>
			<circle id="Ellipse_10-64" fill="#AAAAAA" cx="114.5" cy="144.5" r="3.5"/>
			<circle id="Ellipse_10-65" fill="#AAAAAA" cx="114.5" cy="160.5" r="3.5"/>
		</g>
		<g id="Group_51-2" transform="translate(54)">
			<circle id="Ellipse_10-66" fill="#AAAAAA" cx="114.5" cy="96.5" r="3.5"/>
			<circle id="Ellipse_10-67" fill="#AAAAAA" cx="114.5" cy="112.5" r="3.5"/>
			<circle id="Ellipse_10-68" fill="#AAAAAA" cx="114.5" cy="128.5" r="3.5"/>
			<circle id="Ellipse_10-69" fill="#AAAAAA" cx="114.5" cy="144.5" r="3.5"/>
			<circle id="Ellipse_10-70" fill="#AAAAAA" cx="114.5" cy="160.5" r="3.5"/>
		</g>
		<g id="Group_52-2" transform="translate(72)">
			<circle id="Ellipse_10-71" fill="#AAAAAA" cx="114.5" cy="96.5" r="3.5"/>
			<circle id="Ellipse_10-72" fill="#AAAAAA" cx="114.5" cy="112.5" r="3.5"/>
			<circle id="Ellipse_10-73" fill="#AAAAAA" cx="114.5" cy="128.5" r="3.5"/>
			<circle id="Ellipse_10-74" fill="#AAAAAA" cx="114.5" cy="144.5" r="3.5"/>
			<circle id="Ellipse_10-75" fill="#AAAAAA" cx="114.5" cy="160.5" r="3.5"/>
		</g>
		<g id="Group_53-2" transform="translate(90)">
			<circle id="Ellipse_10-76" fill="#AAAAAA" cx="114.5" cy="96.5" r="3.5"/>
			<circle id="Ellipse_10-77" fill="#AAAAAA" cx="114.5" cy="112.5" r="3.5"/>
			<circle id="Ellipse_10-78" fill="#AAAAAA" cx="114.5" cy="128.5" r="3.5"/>
			<circle id="Ellipse_10-79" fill="#AAAAAA" cx="114.5" cy="144.5" r="3.5"/>
			<circle id="Ellipse_10-80" fill="#AAAAAA" cx="114.5" cy="160.5" r="3.5"/>
		</g>
		<g id="Group_54-2" transform="translate(108)">
			<circle id="Ellipse_10-81" fill="#AAAAAA" cx="114.5" cy="96.5" r="3.5"/>
			<circle id="Ellipse_10-82" fill="#AAAAAA" cx="114.5" cy="112.5" r="3.5"/>
			<circle id="Ellipse_10-83" fill="#AAAAAA" cx="114.5" cy="128.5" r="3.5"/>
			<circle id="Ellipse_10-84" fill="#AAAAAA" cx="114.5" cy="144.5" r="3.5"/>
			<circle id="Ellipse_10-85" fill="#AAAAAA" cx="114.5" cy="160.5" r="3.5"/>
		</g>
		<g id="Group_55-2" transform="translate(126)">
			<circle id="Ellipse_10-86" fill="#AAAAAA" cx="114.5" cy="96.5" r="3.5"/>
			<circle id="Ellipse_10-87" fill="#AAAAAA" cx="114.5" cy="112.5" r="3.5"/>
			<circle id="Ellipse_10-88" fill="#AAAAAA" cx="114.5" cy="128.5" r="3.5"/>
			<circle id="Ellipse_10-89" fill="#AAAAAA" cx="114.5" cy="144.5" r="3.5"/>
			<circle id="Ellipse_10-90" fill="#AAAAAA" cx="114.5" cy="160.5" r="3.5"/>
		</g>
		<g id="Group_56-2" transform="translate(144)">
			<circle id="Ellipse_10-91" fill="#AAAAAA" cx="114.5" cy="96.5" r="3.5"/>
			<circle id="Ellipse_10-92" fill="#AAAAAA" cx="114.5" cy="112.5" r="3.5"/>
			<circle id="Ellipse_10-93" fill="#AAAAAA" cx="114.5" cy="128.5" r="3.5"/>
			<circle id="Ellipse_10-94" fill="#AAAAAA" cx="114.5" cy="144.5" r="3.5"/>
			<circle id="Ellipse_10-95" fill="#AAAAAA" cx="114.5" cy="160.5" r="3.5"/>
		</g>
		<g id="Group_57-2" transform="translate(162)">
			<circle id="Ellipse_10-96" fill="#AAAAAA" cx="114.5" cy="96.5" r="3.5"/>
			<circle id="Ellipse_10-97" fill="#AAAAAA" cx="114.5" cy="112.5" r="3.5"/>
			<circle id="Ellipse_10-98" fill="#AAAAAA" cx="114.5" cy="128.5" r="3.5"/>
			<circle id="Ellipse_10-99" fill="#AAAAAA" cx="114.5" cy="144.5" r="3.5"/>
			<circle id="Ellipse_10-100" fill="#AAAAAA" cx="114.5" cy="160.5" r="3.5"/>
		</g>
	</g>
</g>
</svg>
