<svg id="Group_1023" data-name="Group 1023" xmlns="http://www.w3.org/2000/svg" width="13.75" height="12.132" viewBox="0 0 13.75 12.132">
  <path id="Path_844" data-name="Path 844" d="M131.158,7.02l-1.515,4.165a.4.4,0,0,0,.633.454l3.778-3.023,3.385,3.008a.4.4,0,0,0,.659-.408l-1.14-4.182,3.015-2.262a.4.4,0,0,0-.243-.728h-3.77L134.443.256a.4.4,0,0,0-.751,0l-1.516,3.79h-3.77a.4.4,0,0,0-.243.728Zm1.291-2.166a.4.4,0,0,0,.376-.254l1.242-3.105L135.309,4.6a.4.4,0,0,0,.376.254h2.831l-2.265,1.7a.4.4,0,0,0-.148.43l.855,3.136-2.623-2.331a.4.4,0,0,0-.521-.014L130.9,10.109l1.125-3.094a.4.4,0,0,0-.138-.462l-2.265-1.7h2.831Z" transform="translate(-127.192 -0.002)" fill="#5f4ba0"/>
  <rect id="Rectangle_469" data-name="Rectangle 469" width="0.809" height="2.288" transform="translate(4.33 2.545) rotate(135)" fill="#5f4ba0"/>
  <rect id="Rectangle_470" data-name="Rectangle 470" width="2.288" height="0.809" transform="translate(11.609 1.499) rotate(135)" fill="#5f4ba0"/>
  <rect id="Rectangle_471" data-name="Rectangle 471" width="2.426" height="0.809" transform="translate(0 7.279)" fill="#5f4ba0"/>
  <rect id="Rectangle_472" data-name="Rectangle 472" width="2.426" height="0.809" transform="translate(11.324 7.279)" fill="#5f4ba0"/>
  <rect id="Rectangle_473" data-name="Rectangle 473" width="0.809" height="2.426" transform="translate(6.47 9.706)" fill="#5f4ba0"/>
</svg>
