<svg id="one-time-password" xmlns="http://www.w3.org/2000/svg" width="60.401" height="60.4" viewBox="0 0 60.401 60.4">
  <path id="Path_3228" data-name="Path 3228" d="M312,176h1.888v1.888H312Zm0,0" transform="translate(-275.193 -155.237)" fill="#5f4ba0"/>
  <path id="Path_3229" data-name="Path 3229" d="M184,176h1.888v1.888H184Zm0,0" transform="translate(-162.294 -155.237)" fill="#5f4ba0"/>
  <path id="Path_3230" data-name="Path 3230" d="M248,240h1.888v1.888H248Zm0,0" transform="translate(-218.743 -211.687)" fill="#5f4ba0"/>
  <path id="Path_3231" data-name="Path 3231" d="M390.378,28.373l1.743-.723a25.494,25.494,0,0,0-7.234-9.8L383.68,19.3a23.631,23.631,0,0,1,6.7,9.073Zm0,0" transform="translate(-338.417 -15.743)" fill="#5f4ba0"/>
  <path id="Path_3232" data-name="Path 3232" d="M65.145,19.3l-1.207-1.452a25.625,25.625,0,0,0-7.243,9.8l1.742.726A23.724,23.724,0,0,1,65.145,19.3Zm0,0" transform="translate(-50.007 -15.742)" fill="#5f4ba0"/>
  <path id="Path_3233" data-name="Path 3233" d="M337.107,32.856l1.856-.342a21.716,21.716,0,0,0-12.312-15.787l-.787,1.716a19.827,19.827,0,0,1,11.243,14.413Zm0,0" transform="translate(-287.421 -14.753)" fill="#5f4ba0"/>
  <path id="Path_3234" data-name="Path 3234" d="M75.1,32.514l1.856.342A19.827,19.827,0,0,1,88.2,18.443l-.787-1.716A21.716,21.716,0,0,0,75.1,32.514Zm0,0" transform="translate(-66.238 -14.753)" fill="#5f4ba0"/>
  <path id="Path_3235" data-name="Path 3235" d="M176.538,92.269a12.269,12.269,0,1,0-12.269,12.269A12.269,12.269,0,0,0,176.538,92.269ZM164.269,102.65A10.381,10.381,0,1,1,174.65,92.269,10.381,10.381,0,0,1,164.269,102.65Zm0,0" transform="translate(-134.069 -70.562)" fill="#5f4ba0"/>
  <path id="Path_3236" data-name="Path 3236" d="M249.888,112H248v9.438h5.663V119.55h-3.775Zm0,0" transform="translate(-218.743 -98.787)" fill="#5f4ba0"/>
  <path id="Path_3237" data-name="Path 3237" d="M145.972,21.706A17,17,0,0,0,131.816,4.975V0h-5.663V4.975a16.97,16.97,0,0,0-.944,33.284V60.4h16.044V53.794H132.76V50.963h5.663V44.357H132.76v-6.1a16.955,16.955,0,0,0,13.213-16.552ZM128.041,1.888h1.888V4.767c-.314-.018-.625-.048-.944-.048s-.629.03-.944.048Zm8.494,44.357v2.831h-5.663v6.606h8.494v2.831H127.1V36.7l-.778-.139a15.1,15.1,0,1,1,5.331,0l-.778.139v9.549Zm0,0" transform="translate(-98.784)" fill="#5f4ba0"/>
  <path id="Path_3238" data-name="Path 3238" d="M0,280H9.438v1.888H0Zm0,0" transform="translate(0 -246.968)" fill="#5f4ba0"/>
  <path id="Path_3239" data-name="Path 3239" d="M0,360H9.438v1.888H0Zm0,0" transform="translate(0 -317.531)" fill="#5f4ba0"/>
  <path id="Path_3240" data-name="Path 3240" d="M0,320H15.1v1.888H0Zm0,0" transform="translate(0 -282.25)" fill="#5f4ba0"/>
  <path id="Path_3241" data-name="Path 3241" d="M432,280h9.438v1.888H432Zm0,0" transform="translate(-381.037 -246.968)" fill="#5f4ba0"/>
  <path id="Path_3242" data-name="Path 3242" d="M432,360h9.438v1.888H432Zm0,0" transform="translate(-381.037 -317.531)" fill="#5f4ba0"/>
  <path id="Path_3243" data-name="Path 3243" d="M384,320h15.1v1.888H384Zm0,0" transform="translate(-338.7 -282.25)" fill="#5f4ba0"/>
</svg>
