<svg xmlns="http://www.w3.org/2000/svg" width="21" height="21" viewBox="0 0 21 21">
  <g id="Group_958" data-name="Group 958" transform="translate(-398 -1090)">
    <path id="Path_363" data-name="Path 363" d="M18.539,1.641h-.984V0H15.914V1.641H5.086V0H3.445V1.641H2.461A2.464,2.464,0,0,0,0,4.1V18.539A2.464,2.464,0,0,0,2.461,21H18.539A2.464,2.464,0,0,0,21,18.539V4.1A2.464,2.464,0,0,0,18.539,1.641Zm.82,16.9a.821.821,0,0,1-.82.82H2.461a.821.821,0,0,1-.82-.82V7.711H19.359Zm0-12.469H1.641V4.1a.821.821,0,0,1,.82-.82h.984V4.922H5.086V3.281H15.914V4.922h1.641V3.281h.984a.821.821,0,0,1,.82.82Z" transform="translate(398 1090)" fill="#aaa"/>
    <rect id="Rectangle_453" data-name="Rectangle 453" width="2" height="2" transform="translate(401 1099)" fill="#aaa"/>
    <rect id="Rectangle_454" data-name="Rectangle 454" width="1" height="2" transform="translate(405 1099)" fill="#aaa"/>
    <rect id="Rectangle_455" data-name="Rectangle 455" width="1" height="2" transform="translate(408 1099)" fill="#aaa"/>
    <rect id="Rectangle_456" data-name="Rectangle 456" width="1" height="2" transform="translate(411 1099)" fill="#aaa"/>
    <rect id="Rectangle_457" data-name="Rectangle 457" width="2" height="2" transform="translate(414 1099)" fill="#aaa"/>
    <rect id="Rectangle_458" data-name="Rectangle 458" width="2" height="1" transform="translate(401 1103)" fill="#aaa"/>
    <rect id="Rectangle_459" data-name="Rectangle 459" width="1" height="1" transform="translate(405 1103)" fill="#aaa"/>
    <rect id="Rectangle_460" data-name="Rectangle 460" width="1" height="1" transform="translate(408 1103)" fill="#aaa"/>
    <rect id="Rectangle_461" data-name="Rectangle 461" width="1" height="1" transform="translate(411 1103)" fill="#aaa"/>
    <rect id="Rectangle_462" data-name="Rectangle 462" width="2" height="2" transform="translate(401 1106)" fill="#aaa"/>
    <rect id="Rectangle_463" data-name="Rectangle 463" width="1" height="2" transform="translate(405 1106)" fill="#aaa"/>
    <rect id="Rectangle_464" data-name="Rectangle 464" width="1" height="2" transform="translate(408 1106)" fill="#aaa"/>
    <rect id="Rectangle_465" data-name="Rectangle 465" width="1" height="2" transform="translate(411 1106)" fill="#aaa"/>
    <rect id="Rectangle_466" data-name="Rectangle 466" width="2" height="1" transform="translate(414 1103)" fill="#aaa"/>
  </g>
</svg>
