<svg xmlns="http://www.w3.org/2000/svg" width="65.552" height="65.554" viewBox="0 0 65.552 65.554">
  <g id="accept" transform="translate(-0.278)">
    <path id="Path_749" data-name="Path 749" d="M33.054,0A32.777,32.777,0,1,0,65.83,32.777,32.813,32.813,0,0,0,33.054,0Zm0,62.882a30.1,30.1,0,1,1,30.1-30.1,30.139,30.139,0,0,1-30.1,30.1Zm0,0" transform="translate(0)" fill="#5f4ba0"/>
    <path id="Path_750" data-name="Path 750" d="M129.248,132.561l-23.306,23.305-10.55-10.55a1.336,1.336,0,1,0-1.89,1.89L105,158.7a1.337,1.337,0,0,0,1.89,0l24.25-24.25a1.336,1.336,0,1,0-1.89-1.89Zm0,0" transform="translate(-79.266 -112.854)" fill="#5f4ba0"/>
  </g>
</svg>
