<svg id="Group_3798" data-name="Group 3798" xmlns="http://www.w3.org/2000/svg" width="55" height="61.486" viewBox="0 0 55 61.486">
  <path id="Path_2983" data-name="Path 2983" d="M80.8,29.542H71.916V1.2a1.2,1.2,0,0,0-2.05-.849l-3.4,3.4-3.4-3.4a1.2,1.2,0,0,0-1.7,0l-3.4,3.4-3.4-3.4a1.2,1.2,0,0,0-1.7,0l-3.4,3.4-3.4-3.4a1.2,1.2,0,0,0-1.7,0l-3.4,3.4-3.4-3.4a1.2,1.2,0,0,0-1.7,0l-3.4,3.4-3.4-3.4a1.2,1.2,0,0,0-2.048.881V55.241a6.251,6.251,0,0,0,6.244,6.244H75.76A6.251,6.251,0,0,0,82,55.241v-24.5A1.2,1.2,0,0,0,80.8,29.542Zm-51.4,25.7V4.1l2.2,2.2a1.2,1.2,0,0,0,1.7,0l3.4-3.4,3.4,3.4a1.2,1.2,0,0,0,1.7,0l3.4-3.4,3.4,3.4a1.2,1.2,0,0,0,1.7,0l3.4-3.4,3.4,3.4a1.2,1.2,0,0,0,1.7,0l3.4-3.4,3.4,3.4a1.2,1.2,0,0,0,1.7,0l2.2-2.2V30.742c0,.011,0,.022,0,.033V55.241a6.212,6.212,0,0,0,1.328,3.843H33.25A3.847,3.847,0,0,1,29.407,55.241Zm50.2,0a3.847,3.847,0,0,1-3.843,3.843h0a3.847,3.847,0,0,1-3.843-3.843v-23.3H79.6v23.3Z" transform="translate(-27.005 0.001)" fill="#5f4ba0"/>
  <g id="Group_3028" data-name="Group 3028" transform="translate(8.582 9.985)">
    <path id="Path_2985" data-name="Path 2985" d="M286.171,161.258h2.341a1.2,1.2,0,0,0,0-2.4h-2.341a1.2,1.2,0,1,0,0,2.4Z" transform="translate(-262.573 -149.764)" fill="#5f4ba0"/>
    <path id="Path_2986" data-name="Path 2986" d="M107.071,158.856h-2.341a1.2,1.2,0,1,0,0,2.4h2.341a1.2,1.2,0,1,0,0-2.4Z" transform="translate(-102.922 -149.764)" fill="#5f4ba0"/>
    <path id="Path_2987" data-name="Path 2987" d="M171.323,270.007H152.3a1.2,1.2,0,1,0,0,2.4h19.025a1.2,1.2,0,1,0,0-2.4Z" transform="translate(-144.777 -247.567)" fill="#5f4ba0"/>
    <path id="Path_2988" data-name="Path 2988" d="M99.669,270.007a1.2,1.2,0,1,0,.849.352A1.21,1.21,0,0,0,99.669,270.007Z" transform="translate(-98.468 -247.567)" fill="#5f4ba0"/>
    <path id="Path_2989" data-name="Path 2989" d="M171.323,336.005H152.3a1.2,1.2,0,1,0,0,2.4h19.025a1.2,1.2,0,1,0,0-2.4Z" transform="translate(-144.777 -305.639)" fill="#5f4ba0"/>
    <path id="Path_2990" data-name="Path 2990" d="M99.669,336.005a1.2,1.2,0,1,0,.849.352A1.21,1.21,0,0,0,99.669,336.005Z" transform="translate(-98.468 -305.639)" fill="#5f4ba0"/>
    <path id="Path_2991" data-name="Path 2991" d="M171.323,402H152.3a1.2,1.2,0,1,0,0,2.4h19.025a1.2,1.2,0,0,0,0-2.4Z" transform="translate(-144.777 -363.711)" fill="#5f4ba0"/>
    <path id="Path_2992" data-name="Path 2992" d="M99.669,402a1.2,1.2,0,1,0,.849.352A1.21,1.21,0,0,0,99.669,402Z" transform="translate(-98.468 -363.711)" fill="#5f4ba0"/>
    <text id="_" data-name="₹" transform="translate(14.418 19)" fill="#5f4ba0" font-size="20" font-family="Roboto-Medium, Roboto" font-weight="500"><tspan x="-5.254" y="0">₹</tspan></text>
  </g>
</svg>
