<svg id="trophy_3_" data-name="trophy(3)" xmlns="http://www.w3.org/2000/svg" width="9.997" height="11.675" viewBox="0 0 9.997 11.675">
  <g id="Group_1025" data-name="Group 1025">
    <g id="Group_1024" data-name="Group 1024">
      <path id="Path_845" data-name="Path 845" d="M46.583,1.126a.845.845,0,0,0-.645-.3h-.816V.573A.573.573,0,0,0,44.55,0H39.018a.573.573,0,0,0-.573.573V.828h-.816a.845.845,0,0,0-.645.3A.835.835,0,0,0,36.8,1.8a4.372,4.372,0,0,0,2.221,3.121,5.765,5.765,0,0,0,.365.732,3.4,3.4,0,0,0,1.565,1.477,1.234,1.234,0,0,1-.953,1.32h0a.27.27,0,0,0-.207.263v1.24h-.5a.812.812,0,0,0-.811.811v.64a.27.27,0,0,0,.27.27h6.111a.27.27,0,0,0,.27-.27v-.64a.812.812,0,0,0-.811-.811h-.5V8.715a.27.27,0,0,0-.208-.263h0a1.233,1.233,0,0,1-.952-1.332,3.424,3.424,0,0,0,1.539-1.465,5.767,5.767,0,0,0,.365-.732A4.372,4.372,0,0,0,46.772,1.8.834.834,0,0,0,46.583,1.126Zm-9.253.589a.291.291,0,0,1,.067-.239.305.305,0,0,1,.233-.108h.816v.5a8.49,8.49,0,0,0,.288,2.225A3.826,3.826,0,0,1,37.329,1.715Zm6.982,8.78a.271.271,0,0,1,.27.27v.37h-5.57v-.37a.271.271,0,0,1,.27-.27ZM43.27,8.985v.969H40.323V8.985Zm-2.238-.54a1.788,1.788,0,0,0,.182-.239,1.758,1.758,0,0,0,.279-.927,2.119,2.119,0,0,0,.606,0,1.779,1.779,0,0,0,.464,1.17H41.032Zm3.55-6.579a6.982,6.982,0,0,1-.861,3.513,2.387,2.387,0,0,1-1.937,1.38,2.388,2.388,0,0,1-1.937-1.38,6.981,6.981,0,0,1-.861-3.513V.573A.032.032,0,0,1,39.018.54H44.55a.032.032,0,0,1,.032.032Zm1.656-.151a3.827,3.827,0,0,1-1.4,2.376,8.491,8.491,0,0,0,.288-2.225v-.5h.816a.305.305,0,0,1,.233.108A.291.291,0,0,1,46.238,1.715Z" transform="translate(-36.785)" fill="#5f4ba0"/>
    </g>
  </g>
</svg>
