<svg width="16" height="16" xmlns="http://www.w3.org/2000/svg">

 <g>
  <title>background</title>
  <rect fill="none" id="canvas_background" height="402" width="582" y="-1" x="-1"/>
 </g>
 <g>
  <title>Layer 1</title>
  <path fill="#4d0303" d="m8,0a8,8 0 1 0 8,8a8,8 0 0 0 -8,-8zm1.665,12.4q-0.618,0.244 -0.985,0.371a2.6,2.6 0 0 1 -0.855,0.128a1.7,1.7 0 0 1 -1.163,-0.365a1.178,1.178 0 0 1 -0.414,-0.926a3.363,3.363 0 0 1 0.03,-0.446c0.021,-0.152 0.054,-0.322 0.1,-0.514l0.515,-1.82c0.045,-0.175 0.085,-0.341 0.116,-0.5a2.2,2.2 0 0 0 0.047,-0.428a0.66,0.66 0 0 0 -0.144,-0.486a0.816,0.816 0 0 0 -0.551,-0.136a1.445,1.445 0 0 0 -0.41,0.061c-0.139,0.043 -0.259,0.081 -0.358,0.119l0.137,-0.558q0.506,-0.206 0.968,-0.353a2.861,2.861 0 0 1 0.874,-0.147a1.672,1.672 0 0 1 1.146,0.359a1.193,1.193 0 0 1 0.4,0.932q0,0.119 -0.028,0.418a2.8,2.8 0 0 1 -0.1,0.549l-0.513,1.815c-0.042,0.146 -0.079,0.312 -0.113,0.5a2.636,2.636 0 0 0 -0.049,0.424a0.609,0.609 0 0 0 0.162,0.493a0.906,0.906 0 0 0 0.56,0.131a1.625,1.625 0 0 0 0.424,-0.066a2.41,2.41 0 0 0 0.343,-0.115l-0.139,0.56zm-0.091,-7.369a1.224,1.224 0 0 1 -0.863,0.333a1.236,1.236 0 0 1 -0.867,-0.333a1.064,1.064 0 0 1 -0.361,-0.808a1.074,1.074 0 0 1 0.361,-0.81a1.227,1.227 0 0 1 0.867,-0.337a1.214,1.214 0 0 1 0.863,0.337a1.091,1.091 0 0 1 0,1.618z" id="svg_1"/>
 </g>
</svg>