<svg id="Component_10_1" data-name="Component 10 – 1" xmlns="http://www.w3.org/2000/svg" width="75" height="75" viewBox="0 0 75 75">
  <rect id="Rectangle_2165" data-name="Rectangle 2165" width="75" height="75" rx="8" fill="#fff"/>
  <g id="Flat" transform="translate(16.765 9.706)">
    <g id="_1" data-name="1" transform="translate(0 25.251)">
      <path id="Path_14061" data-name="Path 14061" d="M46.872,40.542a2.7,2.7,0,0,0-3.447-1.05L38.1,41.985a1.465,1.465,0,0,0-.113-.277A3.274,3.274,0,0,0,33.7,40.283L27.77,43.069a2.842,2.842,0,0,1-2.632-.11l-3.9-2.247a8.535,8.535,0,0,0-8.916.233l-1.494.968,1.783,10.039,3.236-.578a5.6,5.6,0,0,1,1.93-.009l8.986,1.3a7.019,7.019,0,0,0,4.875-.963L46.4,42.535a1.46,1.46,0,0,0,.468-1.993Z" transform="translate(-5.173 -38.303)" fill="#fadcb4"/>
      <path id="Path_14062" data-name="Path 14062" d="M40.262,45.461c1.813-.986,1.257-2.04,1.051-2.555l-.2.1a1.453,1.453,0,0,1-.693,1.682l-8.2,4.487a7.113,7.113,0,0,1-5.238.639L21.683,48.4l5.15,2.1a6.369,6.369,0,0,0,5.219-.457Z" transform="translate(-8.182 -39.32)" fill="#c69c6d"/>
      <path id="Path_14063" data-name="Path 14063" d="M12.868,42.011a11.068,11.068,0,0,1,8.39-1.164l-.015-.009a8.535,8.535,0,0,0-8.916.233l-1.494.968.33.97Z" transform="translate(-5.173 -38.43)" fill="#f7ecdf"/>
      <path id="Path_14064" data-name="Path 14064" d="M11.363,53.594,5.718,54.6,3,38.955l5.645-1.011Z" transform="translate(-3 -37.944)" fill="#455a64"/>
      <path id="Path_14065" data-name="Path 14065" d="M0,0H1.445V1.444H0Z" transform="translate(2.473 2.757) rotate(-9.849)" fill="#212121"/>
    </g>
    <path id="Path_14066" data-name="Path 14066" d="M34,32h1.445v7.226H34Z" transform="translate(-11.599 -11.044)" fill="#8c6239"/>
    <path id="Path_14067" data-name="Path 14067" d="M15,30.839c0-.795,1.619-1.445,3.613-1.445s3.613.65,3.613,1.445c0-.795,3.237-1.445,7.226-1.445s7.226.65,7.226,1.445c0-.795,1.619-1.445,3.613-1.445s3.613.65,3.613,1.445C43.9,24.856,37.437,20,29.452,20S15,24.856,15,30.839Z" transform="translate(-6.329 -7.716)" fill="#64b5f6"/>
    <path id="Path_14068" data-name="Path 14068" d="M32.226,20C28.237,20,25,24.856,25,30.839c0-.795,3.237-1.445,7.226-1.445s7.226.65,7.226,1.445C39.452,24.856,36.215,20,32.226,20Z" transform="translate(-9.103 -7.716)" fill="#1f88e5"/>
    <path id="Path_14069" data-name="Path 14069" d="M34,12h1.445v4.336H34Z" transform="translate(-11.599 -5.496)" fill="#8c6239"/>
    <path id="Path_14070" data-name="Path 14070" d="M20,11.129c0-.6,1.214-1.084,2.71-1.084s2.71.488,2.71,1.084c0-.6,2.428-1.084,5.42-1.084s5.42.488,5.42,1.084c0-.6,1.214-1.084,2.71-1.084s2.71.488,2.71,1.084C41.678,6.642,36.827,3,30.839,3S20,6.642,20,11.129Z" transform="translate(-7.716 -3)" fill="#64b5f6"/>
    <path id="Path_14071" data-name="Path 14071" d="M32.92,3c-2.992,0-5.42,3.642-5.42,8.129,0-.6,2.428-1.084,5.42-1.084s5.42.488,5.42,1.084C38.339,6.642,35.911,3,32.92,3Z" transform="translate(-9.796 -3)" fill="#1f88e5"/>
  </g>
  <text id="INSURANCE" transform="translate(6 64)" fill="#283f6d" font-size="11" font-family="Lato-Regular, Lato"><tspan x="0" y="0">INSURANCE</tspan></text>
</svg>
