<svg xmlns="http://www.w3.org/2000/svg" width="63" height="63" viewBox="0 0 63 63">
  <g id="Group_862" data-name="Group 862" transform="translate(-1340 -275)">
    <g id="Ellipse_30" data-name="Ellipse 30" transform="translate(1340 275)" fill="#fff" stroke="#c83b37" stroke-width="3">
      <circle cx="31.5" cy="31.5" r="31.5" stroke="none"/>
      <circle cx="31.5" cy="31.5" r="30" fill="none"/>
    </g>
    <g id="award" transform="translate(1355 291)">
      <path id="Path_279" data-name="Path 279" d="M366.091,0h-2.765l-1.963,1.919h4.729a.96.96,0,0,1,.959.959V4.34a8.55,8.55,0,0,1-5.845,8.11l-1.353.451a.96.96,0,0,0,.3,1.87.986.986,0,0,0,.3-.049l1.353-.452a10.465,10.465,0,0,0,7.157-9.93V2.878A2.881,2.881,0,0,0,366.091,0Zm0,0" transform="translate(-336.222 0)" fill="#ff7816"/>
      <path id="Path_280" data-name="Path 280" d="M9.117,12.9l-1.353-.45A8.553,8.553,0,0,1,1.919,4.339V2.878a.96.96,0,0,1,.959-.959H7.836L5.644,0H2.878A2.881,2.881,0,0,0,0,2.878V4.339A10.468,10.468,0,0,0,7.157,14.27l1.353.451a.986.986,0,0,0,.3.049.96.96,0,0,0,.3-1.87Zm0,0" transform="translate(0 0)" fill="#ff9f00"/>
      <path id="Path_281" data-name="Path 281" d="M101.874,18.728v1.42a.95.95,0,0,0,.959.959,2.874,2.874,0,0,1,2.878,2.878V25.9a.95.95,0,0,1-.959.959H93.111a.95.95,0,0,1-.959-.959V23.985a2.874,2.874,0,0,1,2.878-2.878.95.95,0,0,0,.959-.959v-1.42a9.565,9.565,0,0,1-6.6-8.021L88.2,0h21.465l-1.19,10.707a9.565,9.565,0,0,1-6.6,8.021Zm0,0" transform="translate(-82.558 -0.001)" fill="#ffd400"/>
      <path id="Path_282" data-name="Path 282" d="M261.82,26.863H256V0h10.732l-1.19,10.707a9.565,9.565,0,0,1-6.6,8.021v1.42a.95.95,0,0,0,.959.959,2.874,2.874,0,0,1,2.878,2.878V25.9a.95.95,0,0,1-.959.959Zm0,0" transform="translate(-239.627 0)" fill="#ff9f00"/>
      <path id="Path_283" data-name="Path 283" d="M190.587,63.956a.975.975,0,0,0-.786-.671l-2.149-.307-.959-1.9a1.017,1.017,0,0,0-1.727,0l-.959,1.9-2.149.307a.955.955,0,0,0-.518,1.65l1.535,1.478-.365,2.072a.973.973,0,0,0,.384.94.941.941,0,0,0,1,.077l1.938-1,1.938,1a.939.939,0,0,0,1-.077.973.973,0,0,0,.383-.94l-.365-2.072,1.535-1.478A.981.981,0,0,0,190.587,63.956Zm0,0" transform="translate(-169.455 -56.722)" fill="#ff9f00"/>
      <path id="Path_284" data-name="Path 284" d="M137.4,390.959v5.807H120v-5.807a.95.95,0,0,1,.959-.959h15.478A.95.95,0,0,1,137.4,390.959Zm0,0" transform="translate(-112.325 -365.056)" fill="#ec5569"/>
      <path id="Path_285" data-name="Path 285" d="M257.938,69.5,256,68.5V60.6a.951.951,0,0,1,.863.48l.959,1.9,2.149.307a.955.955,0,0,1,.518,1.65l-1.535,1.478.365,2.072a.973.973,0,0,1-.384.94.938.938,0,0,1-1,.077Zm0,0" transform="translate(-239.627 -56.722)" fill="#ff7816"/>
      <path id="Path_286" data-name="Path 286" d="M264.7,390.959v5.807H256V390h7.739a.95.95,0,0,1,.959.959Zm0,0" transform="translate(-239.627 -365.056)" fill="#cc2e43"/>
      <path id="Path_287" data-name="Path 287" d="M111.234,482.959a.95.95,0,0,1-.959.959H90.959a.959.959,0,0,1,0-1.919h19.316A.95.95,0,0,1,111.234,482.959Zm0,0" transform="translate(-84.244 -451.172)" fill="#697c86"/>
      <path id="Path_288" data-name="Path 288" d="M266.617,482.959a.95.95,0,0,1-.959.959H256V482h9.658A.95.95,0,0,1,266.617,482.959Zm0,0" transform="translate(-239.627 -451.172)" fill="#465a61"/>
    </g>
  </g>
</svg>
