<svg width="63" height="63" xmlns="http://www.w3.org/2000/svg">

 <g>
  <title>background</title>
  <rect fill="none" id="canvas_background" height="402" width="582" y="-1" x="-1"/>
 </g>
 <g>
  <title>Layer 1</title>
  <g stroke="#c83b37" stroke-width="3" fill="#fff" id="Ellipse_30">
   <circle stroke-width="0" id="svg_1" r="31.5" cy="31.625" cx="31.625"/>
   <circle stroke-width="0" stroke="null" id="svg_2" fill="none" r="30" cy="31.625" cx="31.625"/>
  </g>
  <g id="award">
   <path fill="#ff7816" d="m44.869015,16l-2.765,0l-1.963,1.919l4.729,0a0.96,0.96 0 0 1 0.959,0.959l0,1.462a8.55,8.55 0 0 1 -5.845,8.11l-1.353,0.451a0.96,0.96 0 0 0 0.3,1.87a0.986,0.986 0 0 0 0.3,-0.049l1.353,-0.452a10.465,10.465 0 0 0 7.157,-9.93l0,-1.462a2.881,2.881 0 0 0 -2.872,-2.878zm0,0" id="Path_279"/>
   <path fill="#ff9f00" d="m24.117,28.9l-1.353,-0.45a8.553,8.553 0 0 1 -5.845,-8.111l0,-1.461a0.96,0.96 0 0 1 0.959,-0.959l4.958,0l-2.192,-1.919l-2.766,0a2.881,2.881 0 0 0 -2.878,2.878l0,1.461a10.468,10.468 0 0 0 7.157,9.931l1.353,0.451a0.986,0.986 0 0 0 0.3,0.049a0.96,0.96 0 0 0 0.3,-1.87l0.007,0zm-0.007,0" id="Path_280"/>
   <path fill="#ffd400" d="m34.316001,34.727l0,1.42a0.95,0.95 0 0 0 0.959,0.959a2.874,2.874 0 0 1 2.878,2.878l0,1.915a0.95,0.95 0 0 1 -0.959,0.959l-11.641,0a0.95,0.95 0 0 1 -0.959,-0.959l0,-1.915a2.874,2.874 0 0 1 2.878,-2.878a0.95,0.95 0 0 0 0.959,-0.959l0,-1.42a9.565,9.565 0 0 1 -6.6,-8.021l-1.189,-10.707l21.465,0l-1.19,10.707a9.565,9.565 0 0 1 -6.6,8.021l-0.001,0zm0.001,0" id="Path_281"/>
   <path fill="#ff9f00" d="m37.193001,42.863l-5.82,0l0,-26.863l10.732,0l-1.19,10.707a9.565,9.565 0 0 1 -6.6,8.021l0,1.42a0.95,0.95 0 0 0 0.959,0.959a2.874,2.874 0 0 1 2.878,2.878l0,1.915a0.95,0.95 0 0 1 -0.959,0.959l0,0.004zm0,-0.004" id="Path_282"/>
   <path fill="#ff9f00" d="m36.131998,23.234a0.975,0.975 0 0 0 -0.786,-0.671l-2.149,-0.307l-0.959,-1.9a1.017,1.017 0 0 0 -1.727,0l-0.959,1.9l-2.149,0.307a0.955,0.955 0 0 0 -0.518,1.65l1.535,1.478l-0.365,2.072a0.973,0.973 0 0 0 0.384,0.94a0.941,0.941 0 0 0 1,0.077l1.938,-1l1.938,1a0.939,0.939 0 0 0 1,-0.077a0.973,0.973 0 0 0 0.383,-0.94l-0.365,-2.072l1.535,-1.478a0.981,0.981 0 0 0 0.264,-0.979zm0,0" id="Path_283"/>
   <path fill="#ec5569" d="m40.075003,41.903l0,5.807l-17.4,0l0,-5.807a0.95,0.95 0 0 1 0.959,-0.959l15.478,0a0.95,0.95 0 0 1 0.963,0.959zm0,0" id="Path_284"/>
   <path fill="#ff7816" d="m33.311001,28.778l-1.938,-1l0,-7.9a0.951,0.951 0 0 1 0.863,0.48l0.959,1.9l2.149,0.307a0.955,0.955 0 0 1 0.518,1.65l-1.535,1.478l0.365,2.072a0.973,0.973 0 0 1 -0.384,0.94a0.938,0.938 0 0 1 -1,0.077l0.003,-0.004zm-0.003,0.004" id="Path_285"/>
   <path fill="#cc2e43" d="m40.073001,41.903l0,5.807l-8.7,0l0,-6.766l7.739,0a0.95,0.95 0 0 1 0.959,0.959l0.002,0zm-0.002,0" id="Path_286"/>
   <path fill="#697c86" d="m41.989997,47.787003a0.95,0.95 0 0 1 -0.959,0.959l-19.316,0a0.959,0.959 0 0 1 0,-1.919l19.316,0a0.95,0.95 0 0 1 0.959,0.96zm0,0" id="Path_287"/>
   <path fill="#465a61" d="m41.990001,47.787003a0.95,0.95 0 0 1 -0.959,0.959l-9.658,0l0,-1.918l9.658,0a0.95,0.95 0 0 1 0.959,0.959zm0,0" id="Path_288"/>
  </g>
 </g>
</svg>