<?xml version="1.0" encoding="utf-8"?>
<!-- Generator: Adobe Illustrator 14.0.0, SVG Export Plug-In . SVG Version: 6.00 Build 43363)  -->
<!DOCTYPE svg PUBLIC "-//W3C//DTD SVG 1.1//EN" "http://www.w3.org/Graphics/SVG/1.1/DTD/svg11.dtd">
<svg version="1.1" id="Layer_1" xmlns="http://www.w3.org/2000/svg" xmlns:xlink="http://www.w3.org/1999/xlink" x="0px" y="0px"
	 width="32.246px" height="551.833px" viewBox="0 0 32.246 551.833" enable-background="new 0 0 32.246 551.833"
	 xml:space="preserve">
<g id="Group_864" transform="translate(-129.156 -362.598)">
	<g id="Group_513" transform="translate(129.156 402.598)">
		<g id="speedometer_2_" transform="translate(1.441)">
			<g id="Group_504">
				<g id="Group_503">
					<path id="Path_231" fill="#BFB0F3" d="M23.838,4.09c-5.453-5.453-14.295-5.453-19.748,0l0,0C1.463,6.703-0.01,10.258,0,13.964
						l0,0c-0.009,3.023,0.972,5.966,2.793,8.379c0.155,0.206,0.397,0.327,0.654,0.327h21.034c0.258,0,0.5-0.121,0.654-0.327
						c1.82-2.413,2.801-5.356,2.792-8.379l0,0C27.938,10.259,26.465,6.703,23.838,4.09z M24.064,21.033h-20.2
						c-1.296-1.841-2.058-4.004-2.2-6.251h0.908c0.452,0,0.817-0.367,0.817-0.819c0-0.451-0.366-0.817-0.817-0.817H1.664
						c0.177-2.701,1.242-5.267,3.028-7.3l0.637,0.637c0.334,0.304,0.851,0.28,1.156-0.054c0.284-0.312,0.284-0.788,0.001-1.1
						L5.849,4.692c2.033-1.786,4.6-2.851,7.3-3.028v0.907c0,0.452,0.367,0.818,0.819,0.818c0.451,0,0.817-0.366,0.817-0.818V1.664
						c2.701,0.177,5.267,1.242,7.299,3.028l-0.637,0.637c-0.341,0.298-0.373,0.814-0.076,1.154c0.299,0.34,0.814,0.374,1.154,0.076
						c0.026-0.023,0.051-0.047,0.073-0.073l0.637-0.637c1.787,2.033,2.853,4.599,3.028,7.3h-0.907c-0.45,0-0.817,0.367-0.817,0.818
						c0.002,0.452,0.367,0.817,0.817,0.818h0.908C26.122,17.031,25.361,19.193,24.064,21.033z"/>
				</g>
			</g>
			<g id="Group_508" transform="translate(10.517 8.595)">
				<g id="Group_507">
					<path id="Path_233" fill="#BFB0F3" d="M8.576,0.239c-0.319-0.319-0.837-0.319-1.157,0l0,0L5.235,2.424
						c-1.627-0.989-3.75-0.471-4.737,1.157C-0.49,5.209,0.026,7.33,1.655,8.32c1.628,0.988,3.749,0.47,4.739-1.158
						c0.668-1.1,0.668-2.481,0-3.582l2.184-2.183C8.896,1.078,8.897,0.56,8.579,0.24C8.577,0.24,8.577,0.24,8.576,0.239z
						 M3.447,7.179c-1,0-1.811-0.811-1.811-1.811s0.811-1.811,1.813-1.811c1,0,1.811,0.811,1.811,1.811
						C5.257,6.368,4.447,7.178,3.447,7.179z"/>
				</g>
			</g>
		</g>
		<g id="Group_509" transform="translate(0.441 86)">
			<g id="mountain-peak">
				<path id="Path_12" fill="#BFB0F3" d="M30,29.758h1v1h-1V29.758z"/>
				<path id="Path_13" fill="#BFB0F3" d="M0,29.758h1v1H0V29.758z"/>
				<path id="Path_14" fill="#BFB0F3" d="M25.461,22.925c-0.529-1.509-1.785-2.648-3.338-3.03L19.821,12
					c-0.516-1.739-2.02-3.002-3.821-3.21V6.611L23.868,3.8L15,0v8.79c-0.3,0.033-0.595,0.097-0.882,0.19
					c-0.865-0.655-1.982-0.876-3.031-0.6C10.044,6.124,7.37,5.141,5.114,6.184c-1.769,0.818-2.81,2.681-2.58,4.616
					c-1.634,0.276-2.735,1.824-2.459,3.458c0.241,1.432,1.473,2.484,2.925,2.5h6.791l-0.292,1C7.501,17.766,5.746,19.084,5.18,21
					l-2.555,8.76H1.5v1H29v-1h-1.146L25.461,22.925z M16,1.517l5.132,2.2L16,5.549V1.517z M16.8,25.2
					c0.299,0.353,0.737,0.557,1.2,0.56c1.058,0,1.552-0.985,1.947-1.777c0.379-0.761,0.641-1.223,1.051-1.223
					c0.412,0,0.674,0.462,1.054,1.223c0.399,0.792,0.889,1.777,1.948,1.777c0.463-0.003,0.899-0.209,1.199-0.562L26.8,29.76H15.2
					L16.8,25.2z M24.518,23.256l0.271,0.779c-0.293,0.522-0.519,0.725-0.793,0.725c-0.412,0-0.672-0.463-1.054-1.224
					c-0.399-0.792-0.889-1.776-1.946-1.776c-1.061,0-1.554,0.985-1.948,1.776c-0.38,0.761-0.642,1.224-1.052,1.224
					c-0.274,0-0.5-0.2-0.791-0.722l0.272-0.782c0.681-1.944,2.81-2.968,4.752-2.287C23.301,21.344,24.143,22.186,24.518,23.256z
					 M21,19.758c-2.01,0.002-3.799,1.271-4.463,3.166l-1.175,3.358L13.82,21c-0.463-1.561-1.728-2.753-3.313-3.122l0.784-2.687
					c0.299,0.358,0.74,0.567,1.206,0.57c1.058,0,1.552-0.985,1.947-1.777c0.38-0.761,0.641-1.223,1.052-1.223
					s0.673,0.462,1.053,1.223c0.4,0.792,0.889,1.777,1.947,1.777c0.467-0.004,0.91-0.213,1.209-0.572l1.334,4.574h-0.041L21,19.758z
					 M18.86,12.278l0.484,1.659c-0.324,0.6-0.555,0.821-0.846,0.821c-0.412,0-0.672-0.463-1.053-1.224
					c-0.4-0.792-0.89-1.776-1.949-1.776s-1.552,0.985-1.948,1.776c-0.38,0.761-0.641,1.224-1.052,1.224
					c-0.29,0-0.52-0.221-0.842-0.818l0.485-1.662c0.541-1.855,2.484-2.921,4.34-2.38C17.629,10.233,18.526,11.13,18.86,12.278
					L18.86,12.278z M3,15.758c-1.104,0-2-0.896-2-2s0.896-2,2-2s2,0.896,2,2h1c0-1.444-1.031-2.684-2.451-2.948
					C3.263,8.898,4.581,7.117,6.493,6.831c1.674-0.25,3.287,0.732,3.832,2.334l0.172,0.522l0.5-0.22
					c0.656-0.28,1.4-0.27,2.048,0.027c-0.9,0.586-1.562,1.475-1.864,2.506l-1.1,3.76L3,15.758z M9.5,18.758
					c1.554,0.006,2.919,1.03,3.36,2.52l0.289,0.992c-0.278,0.422-0.477,0.488-0.651,0.488c-0.412,0-0.673-0.463-1.053-1.224
					c-0.4-0.792-0.889-1.776-1.948-1.776s-1.552,0.985-1.948,1.776c-0.38,0.761-0.641,1.224-1.052,1.224
					c-0.173,0-0.371-0.066-0.647-0.485l0.29-1c0.44-1.49,1.807-2.514,3.36-2.52V18.758z M5.52,23.4
					c0.273,0.231,0.619,0.358,0.977,0.356c1.058,0,1.552-0.985,1.947-1.777c0.38-0.761,0.641-1.223,1.052-1.223
					s0.673,0.462,1.053,1.223c0.4,0.792,0.889,1.777,1.948,1.777c0.359-0.001,0.706-0.129,0.979-0.362l1.315,4.51l-0.648,1.852
					H3.666L5.52,23.4z"/>
			</g>
			<g id="mountain-peak-2">
				<path id="Path_12-2" fill="#BFB0F3" d="M30,29.758h1v1h-1V29.758z"/>
				<path id="Path_13-2" fill="#BFB0F3" d="M0,29.758h1v1H0V29.758z"/>
				<path id="Path_14-2" fill="#BFB0F3" d="M25.461,22.925c-0.529-1.509-1.785-2.648-3.338-3.03L19.821,12
					c-0.516-1.739-2.02-3.002-3.821-3.21V6.611L23.868,3.8L15,0v8.79c-0.3,0.033-0.595,0.097-0.882,0.19
					c-0.865-0.655-1.982-0.876-3.031-0.6C10.044,6.124,7.37,5.141,5.114,6.184c-1.769,0.818-2.81,2.681-2.58,4.616
					c-1.634,0.276-2.735,1.824-2.459,3.458c0.241,1.432,1.473,2.484,2.925,2.5h6.791l-0.292,1C7.501,17.766,5.746,19.084,5.18,21
					l-2.555,8.76H1.5v1H29v-1h-1.146L25.461,22.925z M16,1.517l5.132,2.2L16,5.549V1.517z M16.8,25.2
					c0.299,0.353,0.737,0.557,1.2,0.56c1.058,0,1.552-0.985,1.947-1.777c0.379-0.761,0.641-1.223,1.051-1.223
					c0.412,0,0.674,0.462,1.054,1.223c0.399,0.792,0.889,1.777,1.948,1.777c0.463-0.003,0.899-0.209,1.199-0.562L26.8,29.76H15.2
					L16.8,25.2z M24.518,23.256l0.271,0.779c-0.293,0.522-0.519,0.725-0.793,0.725c-0.412,0-0.672-0.463-1.054-1.224
					c-0.399-0.792-0.889-1.776-1.946-1.776c-1.061,0-1.554,0.985-1.948,1.776c-0.38,0.761-0.642,1.224-1.052,1.224
					c-0.274,0-0.5-0.2-0.791-0.722l0.272-0.782c0.681-1.944,2.81-2.968,4.752-2.287C23.301,21.344,24.143,22.186,24.518,23.256z
					 M21,19.758c-2.01,0.002-3.799,1.271-4.463,3.166l-1.175,3.358L13.82,21c-0.463-1.561-1.728-2.753-3.313-3.122l0.784-2.687
					c0.299,0.358,0.74,0.567,1.206,0.57c1.058,0,1.552-0.985,1.947-1.777c0.38-0.761,0.641-1.223,1.052-1.223
					s0.673,0.462,1.053,1.223c0.4,0.792,0.889,1.777,1.947,1.777c0.467-0.004,0.91-0.213,1.209-0.572l1.334,4.574h-0.041L21,19.758z
					 M18.86,12.278l0.484,1.659c-0.324,0.6-0.555,0.821-0.846,0.821c-0.412,0-0.672-0.463-1.053-1.224
					c-0.4-0.792-0.89-1.776-1.949-1.776s-1.552,0.985-1.948,1.776c-0.38,0.761-0.641,1.224-1.052,1.224
					c-0.29,0-0.52-0.221-0.842-0.818l0.485-1.662c0.541-1.855,2.484-2.921,4.34-2.38C17.629,10.233,18.526,11.13,18.86,12.278
					L18.86,12.278z M3,15.758c-1.104,0-2-0.896-2-2s0.896-2,2-2s2,0.896,2,2h1c0-1.444-1.031-2.684-2.451-2.948
					C3.263,8.898,4.581,7.117,6.493,6.831c1.674-0.25,3.287,0.732,3.832,2.334l0.172,0.522l0.5-0.22
					c0.656-0.28,1.4-0.27,2.048,0.027c-0.9,0.586-1.562,1.475-1.864,2.506l-1.1,3.76L3,15.758z M9.5,18.758
					c1.554,0.006,2.919,1.03,3.36,2.52l0.289,0.992c-0.278,0.422-0.477,0.488-0.651,0.488c-0.412,0-0.673-0.463-1.053-1.224
					c-0.4-0.792-0.889-1.776-1.948-1.776s-1.552,0.985-1.948,1.776c-0.38,0.761-0.641,1.224-1.052,1.224
					c-0.173,0-0.371-0.066-0.647-0.485l0.29-1c0.44-1.49,1.807-2.514,3.36-2.52V18.758z M5.52,23.4
					c0.273,0.231,0.619,0.358,0.977,0.356c1.058,0,1.552-0.985,1.947-1.777c0.38-0.761,0.641-1.223,1.052-1.223
					s0.673,0.462,1.053,1.223c0.4,0.792,0.889,1.777,1.948,1.777c0.359-0.001,0.706-0.129,0.979-0.362l1.315,4.51l-0.648,1.852
					H3.666L5.52,23.4z"/>
			</g>
		</g>
		<g id="catalog" transform="translate(0.441 189)">
			<g id="Group_510">
				<path id="Path_234" fill="#BFB0F3" d="M22.334,17.927l9.471-9L25.898,2.71L22.334,17.927z M29.663,8.875l-4.699,4.462
					l1.768-7.546L29.663,8.875z"/>
				<path id="Path_235" fill="#BFB0F3" d="M24.957,2.076l-0.033-0.008l-8.393-1.965L16.5,0.234l5.136,16.026L24.957,2.076z
					 M18.713,2.169l4.424,1.036l-1.729,7.379L18.713,2.169z"/>
				<path id="Path_236" fill="#BFB0F3" d="M7.073,2.641l0.3,0.942l13.348,13.349l0.008-0.027l-5.415-16.9L7.073,2.641z M9.415,3.48
					l4.918-1.576l3.06,9.555L9.415,3.48z"/>
				<path id="Path_237" fill="#BFB0F3" d="M21.37,18.95l0.045-0.046l-0.022-0.024L6.118,3.605L6.103,3.62L0,9.727l15.3,15.299
					L21.37,18.95z M6.118,5.75l13.155,13.154L15.3,22.88L2.142,9.727L6.118,5.75z"/>
				<path id="Path_238" fill="#BFB0F3" d="M15.346,17.673c0.732,0,1.326,0.594,1.326,1.326s-0.594,1.326-1.326,1.326
					s-1.326-0.594-1.326-1.326l0,0C14.02,18.267,14.614,17.673,15.346,17.673z"/>
			</g>
		</g>
		<g id="newspaper" transform="translate(0.408 297)">
			<g id="Group_511">
				<path id="Path_239" fill="#BFB0F3" d="M28.418,2.336C28,2.338,27.662,2.676,27.662,3.092v20.061
					c0,2.123-1.721,3.846-3.842,3.848H5.354c-2.122-0.002-3.84-1.722-3.842-3.844V1.512h22.126v19.461
					c0.001,0.418,0.339,0.756,0.757,0.756c0.418-0.001,0.756-0.339,0.756-0.756V0.756c-0.002-0.418-0.34-0.756-0.757-0.756H0.756
					C0.339,0.001,0.001,0.338,0,0.756v22.391c0.002,2.955,2.398,5.352,5.354,5.354h18.46c2.954-0.002,5.352-2.397,5.354-5.354V3.092
					c0.003-0.414-0.33-0.752-0.743-0.756C28.422,2.336,28.42,2.336,28.418,2.336z"/>
				<path id="Path_240" fill="#BFB0F3" d="M20.74,5.87c0.416,0,0.756-0.339,0.756-0.757c0-0.417-0.34-0.756-0.756-0.756H4.264
					c-0.417,0-0.756,0.339-0.756,0.756c0,0.418,0.338,0.757,0.756,0.757H20.74z"/>
				<path id="Path_241" fill="#BFB0F3" d="M20.74,19.764H4.264c-0.417-0.002-0.757,0.336-0.758,0.753s0.336,0.757,0.754,0.759
					c0.001,0,0.003,0,0.004,0h16.471c0.418,0.001,0.758-0.336,0.758-0.754C21.494,20.105,21.156,19.765,20.74,19.764L20.74,19.764z"
					/>
				<path id="Path_242" fill="#BFB0F3" d="M20.74,23.637H6.878c-0.417,0.002-0.755,0.341-0.754,0.758
					c0.001,0.416,0.338,0.754,0.754,0.754H20.74c0.418,0.002,0.758-0.336,0.759-0.754c0.001-0.417-0.337-0.756-0.755-0.758
					C20.744,23.637,20.742,23.637,20.74,23.637L20.74,23.637z"/>
				<path id="Path_243" fill="#BFB0F3" d="M3.256,8.508v8.176c0.001,0.418,0.339,0.756,0.756,0.756h8.207
					c0.417,0,0.755-0.338,0.756-0.756V8.508c-0.001-0.416-0.339-0.754-0.756-0.756H4.012C3.595,7.754,3.257,8.092,3.256,8.508z
					 M4.768,9.266h6.7v6.663h-6.7V9.266z"/>
				<path id="Path_244" fill="#BFB0F3" d="M21.143,8.508h-5.435c-0.418,0.002-0.755,0.341-0.754,0.758
					c0.001,0.416,0.338,0.753,0.754,0.754h5.435c0.418-0.001,0.756-0.34,0.754-0.758C21.897,8.846,21.559,8.51,21.143,8.508z"/>
				<path id="Path_245" fill="#BFB0F3" d="M21.143,11.922h-5.435c-0.418-0.002-0.757,0.336-0.758,0.754s0.336,0.757,0.753,0.758
					c0.001,0,0.003,0,0.005,0h5.435c0.418,0.002,0.758-0.336,0.758-0.754c0.002-0.417-0.336-0.756-0.752-0.758
					C21.147,11.922,21.145,11.922,21.143,11.922z"/>
				<path id="Path_246" fill="#BFB0F3" d="M21.899,16.307c0-0.416-0.339-0.754-0.756-0.756h-5.435
					c-0.418,0.002-0.755,0.341-0.754,0.758c0.001,0.416,0.338,0.753,0.754,0.754h5.435c0.416,0.002,0.756-0.335,0.756-0.752
					C21.899,16.31,21.899,16.309,21.899,16.307z"/>
			</g>
		</g>
		<g id="email" transform="translate(0 390)">
			<g id="Group_512">
				<path id="Path_247" fill="#BFB0F3" d="M26.344,0.001H2.538C1.138,0.002,0.003,1.137,0,2.538v16.924
					c0.003,1.4,1.138,2.535,2.538,2.539h23.806c1.4-0.004,2.535-1.139,2.538-2.539V2.538C28.879,1.137,27.744,0.002,26.344,0.001z
					 M25.993,1.692l-11.5,11.5L2.9,1.692H25.993z M1.692,19.112V2.881l8.15,8.08L1.692,19.112z M2.892,20.311l8.155-8.154
					l2.853,2.83c0.33,0.328,0.864,0.328,1.194,0l2.788-2.785l8.111,8.109H2.892z M27.191,19.112l-8.112-8.111l8.11-8.111
					L27.191,19.112z"/>
			</g>
		</g>
	</g>
	<g id="Group_863" transform="translate(129.156 362.598)">
		<g id="speedometer_2_2" transform="translate(1.441)">
			<g id="Group_504-2">
				<g id="Group_503-2">
					<path id="Path_231-2" fill="#FFFFFF" d="M23.838,4.09c-5.453-5.453-14.295-5.453-19.748,0l0,0
						C1.463,6.703-0.01,10.258,0,13.964l0,0c-0.009,3.023,0.972,5.966,2.793,8.379c0.155,0.206,0.397,0.327,0.654,0.327h21.034
						c0.258,0,0.5-0.121,0.654-0.327c1.82-2.413,2.801-5.356,2.792-8.379l0,0C27.938,10.259,26.465,6.703,23.838,4.09z
						 M24.064,21.033h-20.2c-1.296-1.841-2.058-4.004-2.2-6.251h0.908c0.452,0,0.817-0.367,0.817-0.819
						c0-0.451-0.366-0.817-0.817-0.817H1.664c0.177-2.701,1.242-5.267,3.028-7.3l0.637,0.637c0.334,0.304,0.851,0.28,1.156-0.054
						c0.284-0.312,0.284-0.788,0.001-1.1L5.849,4.692c2.033-1.786,4.6-2.851,7.3-3.028v0.907c0,0.452,0.367,0.818,0.819,0.818
						c0.451,0,0.817-0.366,0.817-0.818V1.664c2.701,0.177,5.267,1.242,7.299,3.028l-0.637,0.637
						c-0.341,0.298-0.373,0.814-0.076,1.154c0.299,0.34,0.814,0.374,1.154,0.076c0.026-0.023,0.051-0.047,0.073-0.073l0.637-0.637
						c1.787,2.033,2.853,4.599,3.028,7.3h-0.907c-0.45,0-0.817,0.367-0.817,0.818c0.002,0.452,0.367,0.817,0.817,0.818h0.908
						C26.122,17.031,25.361,19.193,24.064,21.033z"/>
				</g>
			</g>
			<g id="Group_508-2" transform="translate(10.517 8.595)">
				<g id="Group_507-2">
					<path id="Path_233-2" fill="#FFFFFF" d="M8.576,0.239c-0.319-0.319-0.837-0.319-1.157,0l0,0L5.235,2.424
						c-1.627-0.989-3.75-0.471-4.737,1.157C-0.49,5.209,0.026,7.33,1.655,8.32c1.628,0.988,3.749,0.47,4.739-1.158
						c0.668-1.1,0.668-2.481,0-3.582l2.184-2.183C8.896,1.078,8.897,0.56,8.579,0.24C8.577,0.24,8.577,0.24,8.576,0.239z
						 M3.447,7.179c-1,0-1.811-0.811-1.811-1.811s0.811-1.811,1.813-1.811c1,0,1.811,0.811,1.811,1.811
						C5.257,6.368,4.447,7.178,3.447,7.179z"/>
				</g>
			</g>
		</g>
		<g id="Group_509-2" transform="translate(0.441 86)">
			<g id="mountain-peak-3">
				<path id="Path_12-3" fill="#FFFFFF" d="M30,29.758h1v1h-1V29.758z"/>
				<path id="Path_13-3" fill="#FFFFFF" d="M0,29.758h1v1H0V29.758z"/>
				<path id="Path_14-3" fill="#FFFFFF" d="M25.461,22.925c-0.529-1.509-1.785-2.648-3.338-3.03L19.821,12
					c-0.516-1.739-2.02-3.002-3.821-3.21V6.611L23.868,3.8L15,0v8.79c-0.3,0.033-0.595,0.097-0.882,0.19
					c-0.865-0.655-1.982-0.876-3.031-0.6C10.044,6.124,7.37,5.141,5.114,6.184c-1.769,0.818-2.81,2.681-2.58,4.616
					c-1.634,0.276-2.735,1.824-2.459,3.458c0.241,1.432,1.473,2.484,2.925,2.5h6.791l-0.292,1C7.501,17.766,5.746,19.084,5.18,21
					l-2.555,8.76H1.5v1H29v-1h-1.146L25.461,22.925z M16,1.517l5.132,2.2L16,5.549V1.517z M16.8,25.2
					c0.299,0.353,0.737,0.557,1.2,0.56c1.058,0,1.552-0.985,1.947-1.777c0.379-0.761,0.641-1.223,1.051-1.223
					c0.412,0,0.674,0.462,1.054,1.223c0.399,0.792,0.889,1.777,1.948,1.777c0.463-0.003,0.899-0.209,1.199-0.562L26.8,29.76H15.2
					L16.8,25.2z M24.518,23.256l0.271,0.779c-0.293,0.522-0.519,0.725-0.793,0.725c-0.412,0-0.672-0.463-1.054-1.224
					c-0.399-0.792-0.889-1.776-1.946-1.776c-1.061,0-1.554,0.985-1.948,1.776c-0.38,0.761-0.642,1.224-1.052,1.224
					c-0.274,0-0.5-0.2-0.791-0.722l0.272-0.782c0.681-1.944,2.81-2.968,4.752-2.287C23.301,21.344,24.143,22.186,24.518,23.256z
					 M21,19.758c-2.01,0.002-3.799,1.271-4.463,3.166l-1.175,3.358L13.82,21c-0.463-1.561-1.728-2.753-3.313-3.122l0.784-2.687
					c0.299,0.358,0.74,0.567,1.206,0.57c1.058,0,1.552-0.985,1.947-1.777c0.38-0.761,0.641-1.223,1.052-1.223
					s0.673,0.462,1.053,1.223c0.4,0.792,0.889,1.777,1.947,1.777c0.467-0.004,0.91-0.213,1.209-0.572l1.334,4.574h-0.041L21,19.758z
					 M18.86,12.278l0.484,1.659c-0.324,0.6-0.555,0.821-0.846,0.821c-0.412,0-0.672-0.463-1.053-1.224
					c-0.4-0.792-0.89-1.776-1.949-1.776s-1.552,0.985-1.948,1.776c-0.38,0.761-0.641,1.224-1.052,1.224
					c-0.29,0-0.52-0.221-0.842-0.818l0.485-1.662c0.541-1.855,2.484-2.921,4.34-2.38C17.629,10.233,18.526,11.13,18.86,12.278
					L18.86,12.278z M3,15.758c-1.104,0-2-0.896-2-2s0.896-2,2-2s2,0.896,2,2h1c0-1.444-1.031-2.684-2.451-2.948
					C3.263,8.898,4.581,7.117,6.493,6.831c1.674-0.25,3.287,0.732,3.832,2.334l0.172,0.522l0.5-0.22
					c0.656-0.28,1.4-0.27,2.048,0.027c-0.9,0.586-1.562,1.475-1.864,2.506l-1.1,3.76L3,15.758z M9.5,18.758
					c1.554,0.006,2.919,1.03,3.36,2.52l0.289,0.992c-0.278,0.422-0.477,0.488-0.651,0.488c-0.412,0-0.673-0.463-1.053-1.224
					c-0.4-0.792-0.889-1.776-1.948-1.776s-1.552,0.985-1.948,1.776c-0.38,0.761-0.641,1.224-1.052,1.224
					c-0.173,0-0.371-0.066-0.647-0.485l0.29-1c0.44-1.49,1.807-2.514,3.36-2.52V18.758z M5.52,23.4
					c0.273,0.231,0.619,0.358,0.977,0.356c1.058,0,1.552-0.985,1.947-1.777c0.38-0.761,0.641-1.223,1.052-1.223
					s0.673,0.462,1.053,1.223c0.4,0.792,0.889,1.777,1.948,1.777c0.359-0.001,0.706-0.129,0.979-0.362l1.315,4.51l-0.648,1.852
					H3.666L5.52,23.4z"/>
			</g>
			<g id="mountain-peak-4">
				<path id="Path_12-4" fill="#FFFFFF" d="M30,29.758h1v1h-1V29.758z"/>
				<path id="Path_13-4" fill="#FFFFFF" d="M0,29.758h1v1H0V29.758z"/>
				<path id="Path_14-4" fill="#FFFFFF" d="M25.461,22.925c-0.529-1.509-1.785-2.648-3.338-3.03L19.821,12
					c-0.516-1.739-2.02-3.002-3.821-3.21V6.611L23.868,3.8L15,0v8.79c-0.3,0.033-0.595,0.097-0.882,0.19
					c-0.865-0.655-1.982-0.876-3.031-0.6C10.044,6.124,7.37,5.141,5.114,6.184c-1.769,0.818-2.81,2.681-2.58,4.616
					c-1.634,0.276-2.735,1.824-2.459,3.458c0.241,1.432,1.473,2.484,2.925,2.5h6.791l-0.292,1C7.501,17.766,5.746,19.084,5.18,21
					l-2.555,8.76H1.5v1H29v-1h-1.146L25.461,22.925z M16,1.517l5.132,2.2L16,5.549V1.517z M16.8,25.2
					c0.299,0.353,0.737,0.557,1.2,0.56c1.058,0,1.552-0.985,1.947-1.777c0.379-0.761,0.641-1.223,1.051-1.223
					c0.412,0,0.674,0.462,1.054,1.223c0.399,0.792,0.889,1.777,1.948,1.777c0.463-0.003,0.899-0.209,1.199-0.562L26.8,29.76H15.2
					L16.8,25.2z M24.518,23.256l0.271,0.779c-0.293,0.522-0.519,0.725-0.793,0.725c-0.412,0-0.672-0.463-1.054-1.224
					c-0.399-0.792-0.889-1.776-1.946-1.776c-1.061,0-1.554,0.985-1.948,1.776c-0.38,0.761-0.642,1.224-1.052,1.224
					c-0.274,0-0.5-0.2-0.791-0.722l0.272-0.782c0.681-1.944,2.81-2.968,4.752-2.287C23.301,21.344,24.143,22.186,24.518,23.256z
					 M21,19.758c-2.01,0.002-3.799,1.271-4.463,3.166l-1.175,3.358L13.82,21c-0.463-1.561-1.728-2.753-3.313-3.122l0.784-2.687
					c0.299,0.358,0.74,0.567,1.206,0.57c1.058,0,1.552-0.985,1.947-1.777c0.38-0.761,0.641-1.223,1.052-1.223
					s0.673,0.462,1.053,1.223c0.4,0.792,0.889,1.777,1.947,1.777c0.467-0.004,0.91-0.213,1.209-0.572l1.334,4.574h-0.041L21,19.758z
					 M18.86,12.278l0.484,1.659c-0.324,0.6-0.555,0.821-0.846,0.821c-0.412,0-0.672-0.463-1.053-1.224
					c-0.4-0.792-0.89-1.776-1.949-1.776s-1.552,0.985-1.948,1.776c-0.38,0.761-0.641,1.224-1.052,1.224
					c-0.29,0-0.52-0.221-0.842-0.818l0.485-1.662c0.541-1.855,2.484-2.921,4.34-2.38C17.629,10.233,18.526,11.13,18.86,12.278
					L18.86,12.278z M3,15.758c-1.104,0-2-0.896-2-2s0.896-2,2-2s2,0.896,2,2h1c0-1.444-1.031-2.684-2.451-2.948
					C3.263,8.898,4.581,7.117,6.493,6.831c1.674-0.25,3.287,0.732,3.832,2.334l0.172,0.522l0.5-0.22
					c0.656-0.28,1.4-0.27,2.048,0.027c-0.9,0.586-1.562,1.475-1.864,2.506l-1.1,3.76L3,15.758z M9.5,18.758
					c1.554,0.006,2.919,1.03,3.36,2.52l0.289,0.992c-0.278,0.422-0.477,0.488-0.651,0.488c-0.412,0-0.673-0.463-1.053-1.224
					c-0.4-0.792-0.889-1.776-1.948-1.776s-1.552,0.985-1.948,1.776c-0.38,0.761-0.641,1.224-1.052,1.224
					c-0.173,0-0.371-0.066-0.647-0.485l0.29-1c0.44-1.49,1.807-2.514,3.36-2.52V18.758z M5.52,23.4
					c0.273,0.231,0.619,0.358,0.977,0.356c1.058,0,1.552-0.985,1.947-1.777c0.38-0.761,0.641-1.223,1.052-1.223
					s0.673,0.462,1.053,1.223c0.4,0.792,0.889,1.777,1.948,1.777c0.359-0.001,0.706-0.129,0.979-0.362l1.315,4.51l-0.648,1.852
					H3.666L5.52,23.4z"/>
			</g>
		</g>
		<g id="catalog-2" transform="translate(0.441 189)">
			<g id="Group_510-2">
				<path id="Path_234-2" fill="#FFFFFF" d="M22.334,17.927l9.471-9L25.898,2.71L22.334,17.927z M29.663,8.875l-4.699,4.462
					l1.768-7.546L29.663,8.875z"/>
				<path id="Path_235-2" fill="#FFFFFF" d="M24.957,2.076l-0.033-0.008l-8.393-1.965L16.5,0.234l5.136,16.027L24.957,2.076z
					 M18.713,2.169l4.424,1.036l-1.729,7.379L18.713,2.169z"/>
				<path id="Path_236-2" fill="#FFFFFF" d="M7.073,2.64l0.3,0.943l13.348,13.348l0.008-0.026l-5.415-16.9L7.073,2.64z M9.415,3.48
					l4.918-1.575l3.06,9.554L9.415,3.48z"/>
				<path id="Path_237-2" fill="#FFFFFF" d="M21.37,18.95l0.045-0.046l-0.022-0.024L6.118,3.605L6.103,3.62L0,9.726l15.3,15.3
					L21.37,18.95z M6.118,5.75l13.155,13.155L15.3,22.88L2.142,9.726L6.118,5.75z"/>
				<path id="Path_238-2" fill="#FFFFFF" d="M15.346,17.673c0.732,0,1.326,0.594,1.326,1.326s-0.594,1.326-1.326,1.326
					s-1.326-0.594-1.326-1.326l0,0C14.02,18.267,14.614,17.673,15.346,17.673z"/>
			</g>
		</g>
		<g id="newspaper-2" transform="translate(0.408 297)">
			<g id="Group_511-2">
				<path id="Path_239-2" fill="#FFFFFF" d="M28.418,2.336C28,2.338,27.662,2.676,27.662,3.092v20.061
					c0,2.123-1.721,3.846-3.842,3.848H5.354c-2.122-0.002-3.84-1.722-3.842-3.844V1.512h22.126v19.461
					c0.001,0.418,0.339,0.756,0.757,0.756c0.418-0.001,0.756-0.339,0.756-0.756V0.756c-0.002-0.418-0.34-0.756-0.757-0.756H0.756
					C0.339,0.001,0.001,0.338,0,0.756v22.391c0.002,2.955,2.398,5.352,5.354,5.354h18.46c2.954-0.002,5.352-2.397,5.354-5.354V3.092
					c0.003-0.414-0.33-0.752-0.743-0.756C28.422,2.336,28.42,2.336,28.418,2.336z"/>
				<path id="Path_240-2" fill="#FFFFFF" d="M20.74,5.87c0.416,0,0.756-0.339,0.756-0.757c0-0.417-0.34-0.756-0.756-0.756H4.264
					c-0.417,0-0.756,0.339-0.756,0.756c0,0.418,0.338,0.757,0.756,0.757H20.74z"/>
				<path id="Path_241-2" fill="#FFFFFF" d="M20.74,19.764H4.264c-0.417-0.002-0.757,0.336-0.758,0.753s0.336,0.757,0.754,0.759
					c0.001,0,0.003,0,0.004,0h16.471c0.418,0.001,0.758-0.336,0.758-0.754C21.494,20.105,21.156,19.765,20.74,19.764L20.74,19.764z"
					/>
				<path id="Path_242-2" fill="#FFFFFF" d="M20.74,23.637H6.878c-0.417,0.002-0.755,0.341-0.754,0.758
					c0.001,0.416,0.338,0.754,0.754,0.754H20.74c0.418,0.002,0.758-0.336,0.759-0.754c0.001-0.417-0.337-0.756-0.755-0.758
					C20.744,23.637,20.742,23.637,20.74,23.637L20.74,23.637z"/>
				<path id="Path_243-2" fill="#FFFFFF" d="M3.256,8.508v8.176c0.001,0.418,0.339,0.756,0.756,0.756h8.207
					c0.417,0,0.755-0.338,0.756-0.756V8.508c-0.001-0.416-0.339-0.754-0.756-0.756H4.012C3.595,7.754,3.257,8.092,3.256,8.508z
					 M4.768,9.266h6.7v6.663h-6.7V9.266z"/>
				<path id="Path_244-2" fill="#FFFFFF" d="M21.143,8.508h-5.435c-0.418,0.002-0.755,0.341-0.754,0.758
					c0.001,0.416,0.338,0.753,0.754,0.754h5.435c0.418-0.001,0.756-0.34,0.754-0.758C21.897,8.846,21.559,8.51,21.143,8.508z"/>
				<path id="Path_245-2" fill="#FFFFFF" d="M21.143,11.922h-5.435c-0.418-0.002-0.757,0.336-0.758,0.754s0.336,0.757,0.753,0.758
					c0.001,0,0.003,0,0.005,0h5.435c0.418,0.002,0.758-0.336,0.758-0.754c0.002-0.417-0.336-0.756-0.752-0.758
					C21.147,11.922,21.145,11.922,21.143,11.922z"/>
				<path id="Path_246-2" fill="#FFFFFF" d="M21.899,16.307c0-0.416-0.339-0.754-0.756-0.756h-5.435
					c-0.418,0.002-0.755,0.341-0.754,0.758c0.001,0.416,0.338,0.753,0.754,0.754h5.435c0.416,0.002,0.756-0.335,0.756-0.752
					C21.899,16.31,21.899,16.309,21.899,16.307z"/>
			</g>
		</g>
		<g id="email-2" transform="translate(0 390)">
			<g id="Group_512-2">
				<path id="Path_247-2" fill="#FFFFFF" d="M26.344,0.001H2.538C1.138,0.002,0.003,1.137,0,2.538v16.924
					c0.003,1.4,1.138,2.535,2.538,2.539h23.806c1.4-0.004,2.535-1.139,2.538-2.539V2.538C28.879,1.137,27.744,0.002,26.344,0.001z
					 M25.993,1.691l-11.5,11.501L2.9,1.691H25.993z M1.692,19.112V2.881l8.15,8.08L1.692,19.112z M2.892,20.311l8.155-8.154
					l2.853,2.83c0.33,0.328,0.864,0.328,1.194,0l2.788-2.785l8.111,8.109H2.892z M27.191,19.112l-8.112-8.111l8.11-8.111
					L27.191,19.112z"/>
			</g>
		</g>
	</g>
	<g>
		<g>
			<path fill="#BFB0F3" d="M160.394,895.501c-0.057-0.699-0.379-1.334-0.91-1.789l-2.582-2.215v-6.285
				c0-0.484-0.391-0.875-0.875-0.875h-3.497c-0.483,0-0.863,0.391-0.863,0.875v1.791l-4.424-3.771
				c-0.989-0.848-2.425-0.848-3.41-0.006l-12.364,10.486c-1.09,0.938-1.233,2.588-0.283,3.699c0.726,0.844,1.885,1.109,2.877,0.764
				v13.381c0,0.484,0.379,0.875,0.862,0.875h21.101c0.483,0,0.875-0.391,0.875-0.875v-13.381c1.021,0.361,2.157,0.059,2.868-0.768
				C160.224,896.878,160.446,896.204,160.394,895.501z M153.405,886.085h1.76v3.914l-1.76-1.498V886.085z M149.045,910.682h-7.123
				v-7.004h7.123V910.682z M155.165,910.682h-4.384v-7.867c0-0.484-0.391-0.875-0.874-0.875h-8.86c-0.484,0-0.863,0.391-0.863,0.875
				v7.867h-4.383v-13.764l9.732-8.258l9.632,8.244V910.682L155.165,910.682z M158.44,896.27c-0.31,0.363-0.862,0.416-1.235,0.096
				l-11.099-9.518c-0.325-0.277-0.811-0.279-1.136-0.002c-0.236,0.201-11.175,9.479-11.222,9.52
				c-0.367,0.313-0.921,0.27-1.235-0.096c-0.312-0.365-0.268-0.92,0.093-1.229l12.36-10.482c0.329-0.285,0.808-0.285,1.14,0
				l12.237,10.48C158.713,895.35,158.756,895.905,158.44,896.27z"/>
		</g>
	</g>
	<g>
		<g>
			<path fill="#FFFFFF" d="M160.394,858.505c-0.057-0.699-0.379-1.334-0.91-1.789l-2.582-2.215v-6.287
				c0-0.482-0.391-0.873-0.875-0.873h-3.497c-0.483,0-0.863,0.391-0.863,0.873v1.793l-4.424-3.771
				c-0.989-0.85-2.425-0.85-3.41-0.008l-12.364,10.488c-1.09,0.936-1.233,2.588-0.283,3.697c0.726,0.844,1.885,1.111,2.877,0.764
				v13.381c0,0.484,0.379,0.875,0.862,0.875h21.101c0.483,0,0.875-0.391,0.875-0.875v-13.381c1.021,0.363,2.157,0.059,2.868-0.768
				C160.224,859.882,160.446,859.206,160.394,858.505z M153.405,849.089h1.76v3.914l-1.76-1.498V849.089z M149.045,873.684h-7.123
				v-7.004h7.123V873.684z M155.165,873.684h-4.384v-7.865c0-0.484-0.391-0.875-0.874-0.875h-8.86c-0.484,0-0.863,0.391-0.863,0.875
				v7.865h-4.383v-13.762l9.732-8.258l9.632,8.244V873.684L155.165,873.684z M158.44,859.274c-0.31,0.363-0.862,0.414-1.235,0.096
				l-11.099-9.518c-0.325-0.275-0.811-0.279-1.136-0.004c-0.236,0.201-11.175,9.482-11.222,9.521
				c-0.367,0.313-0.921,0.27-1.235-0.096c-0.312-0.365-0.268-0.92,0.093-1.229l12.36-10.482c0.329-0.283,0.808-0.283,1.14,0
				l12.237,10.48C158.713,858.354,158.756,858.909,158.44,859.274z"/>
		</g>
	</g>
</g>
</svg>
