<svg id="like" xmlns="http://www.w3.org/2000/svg" width="10.401" height="10.7" viewBox="0 0 10.401 10.7">
  <path id="Path_1030" data-name="Path 1030" d="M16.764,7.274a1.329,1.329,0,0,0,.311-.888,1.365,1.365,0,0,0-.291-.77A1.2,1.2,0,0,0,16.5,4.24a2.471,2.471,0,0,0-1.8-.43,7.022,7.022,0,0,0-1.1.141h0c-.112.02-.23.045-.351.072a3.9,3.9,0,0,1,.28-1.3A2.392,2.392,0,0,0,13.47.553,1.422,1.422,0,0,0,12.331,0,.562.562,0,0,0,11.9.2a1.505,1.505,0,0,0-.188,1.067A9.9,9.9,0,0,1,9.888,4.538a.239.239,0,0,0-.036.031,2.4,2.4,0,0,0-.439.658.923.923,0,0,0-.443-.112H7.606a.932.932,0,0,0-.931.931V9.682a.932.932,0,0,0,.931.931H8.971a.929.929,0,0,0,.537-.17l.526.063a22.529,22.529,0,0,0,2.983.163c.266.02.517.031.75.031a5.02,5.02,0,0,0,1.04-.094,1.946,1.946,0,0,0,1.39-.864,1.37,1.37,0,0,0,.152-.857,1.427,1.427,0,0,0,.508-1.161A1.512,1.512,0,0,0,16.764,7.274ZM7.606,10.009a.327.327,0,0,1-.327-.327V6.044a.327.327,0,0,1,.327-.327H8.971a.327.327,0,0,1,.327.327V9.68a.327.327,0,0,1-.327.327H7.606Zm8.585-3a.3.3,0,0,0-.04.365.931.931,0,0,1,.1.374.9.9,0,0,1-.421.774.3.3,0,0,0-.1.345.79.79,0,0,1-.06.577,1.4,1.4,0,0,1-.989.568,5.9,5.9,0,0,1-1.631.049h-.031a22.086,22.086,0,0,1-2.909-.159h0l-.226-.027a.948.948,0,0,0,.02-.2V6.044a.946.946,0,0,0-.043-.277A1.87,1.87,0,0,1,10.275,5c1-.8,1.987-3.484,2.029-3.6a.283.283,0,0,0,.013-.15A1.4,1.4,0,0,1,12.347.6a.8.8,0,0,1,.631.3,1.906,1.906,0,0,1-.027,1.627c-.376,1.139-.407,1.739-.11,2a.488.488,0,0,0,.488.087c.136-.031.266-.058.389-.078l.029-.007c.687-.15,1.918-.242,2.345.148a.644.644,0,0,1,.076.817.3.3,0,0,0,.054.389.848.848,0,0,1,.248.521A.831.831,0,0,1,16.191,7.012Z" transform="translate(-6.675 0)" fill="#604ca0"/>
</svg>
