<svg xmlns="http://www.w3.org/2000/svg" width="17.075" height="16.316" viewBox="0 0 17.075 16.316">
  <path id="LinkedIn" d="M17.075,19.561v6.313h-3.66v-5.89c0-1.48-.529-2.489-1.854-2.489a2,2,0,0,0-1.878,1.339,2.5,2.5,0,0,0-.121.892v6.148H5.9s.049-9.975,0-11.009H9.561v1.56l-.024.036h.024v-.036a3.635,3.635,0,0,1,3.3-1.819C15.269,14.606,17.075,16.18,17.075,19.561Zm-15-10a1.908,1.908,0,1,0-.049,3.8h.024a1.908,1.908,0,1,0,.024-3.8ZM.217,25.874H3.877V14.865H.217Z" transform="translate(0 -9.558)" fill="#afafaf"/>
</svg>
