<svg xmlns="http://www.w3.org/2000/svg" xmlns:xlink="http://www.w3.org/1999/xlink" width="643.971" height="289.361" viewBox="0 0 643.971 289.361">
  <defs>
    <linearGradient id="linear-gradient" x1="0.5" x2="0.5" y2="1" gradientUnits="objectBoundingBox">
      <stop offset="0" stop-color="#fcfcfc"/>
      <stop offset="1" stop-color="#ebf6ff"/>
    </linearGradient>
  </defs>
  <g id="Group_7764" data-name="Group 7764" transform="translate(-521.5 -670.904)">
    <path id="Path_15714" data-name="Path 15714" d="M216.065,607.2s-63.212-55.19,8.668-110.143c109.517-83.728,195.073-32.1,244.566-90.547,115.137-147.286,349.709-71.87,267.762,48.354-42.993,63.075,100.851,53.65,42.21,144.054Z" transform="translate(331.127 345.653)" fill="url(#linear-gradient)"/>
    <g id="Group_7620" data-name="Group 7620" transform="translate(567.82 933.888)">
      <path id="Path_15056" data-name="Path 15056" d="M1012.884,1705.125c-46.579-2.409-205.032,1.672-253.222,3.264s-94.466,5.427-123.523,0-206.678-7.065-199.056,7.527,74.833,6.528,151.053,12.393,247.637-.733,286.3,0,74.124-1.466,123.953-4.4S1039.883,1706.522,1012.884,1705.125Z" transform="translate(-436.845 -1704.382)" fill="#cce2ff"/>
    </g>
    <g id="Group_7763" data-name="Group 7763" transform="translate(527.226 171.283)">
      <path id="Path_15906" data-name="Path 15906" d="M765.237,1656.177c-40.16.307-335.2-.611-335.2-.611S805.4,1655.87,765.237,1656.177Z" transform="translate(-173.844 -883.342)" fill="#d3e4fe"/>
      <g id="Group_7735" data-name="Group 7735" transform="translate(488.734 607.035)">
        <rect id="Rectangle_2519" data-name="Rectangle 2519" width="89.478" height="63.104" transform="translate(89.478 63.104) rotate(180)" fill="#b2cbfd"/>
        <rect id="Rectangle_2520" data-name="Rectangle 2520" width="83.282" height="56.545" transform="translate(86.38 59.825) rotate(180)" fill="#fff"/>
        <rect id="Rectangle_2521" data-name="Rectangle 2521" width="0.592" height="63.104" transform="translate(90.043 63.104) rotate(180)" fill="#466aa5"/>
        <path id="Path_15907" data-name="Path 15907" d="M2121.131,747.622a3.771,3.771,0,0,1,5.8,1.811c.117.341.233.7.343,1.082a.156.156,0,0,0,.257.069l.025-.024a2.848,2.848,0,0,0,.938-2.1l-.749-6.736a1.318,1.318,0,0,1,1.311-1.464h1.613a1.319,1.319,0,0,1,1.311,1.464l-.749,6.778a2.81,2.81,0,0,0,.959,2.12l.011.01a.156.156,0,0,0,.253-.075c.115-.4.234-.769.355-1.122a3.771,3.771,0,0,1,5.8-1.811c8.364,6.17,8.146,16.1,7.16,21.8a3.77,3.77,0,0,1-5.062,2.877l-5.425-2.074a3.766,3.766,0,0,1-2.243-2.368,31.131,31.131,0,0,1-1.477-12.656,2.5,2.5,0,0,0-.466-1.712l0,0c-.646-.893-1.124-1.128-1.3-1.123-.214,0-.733.379-1.363,1.664a2.537,2.537,0,0,0-.24,1.353,31.2,31.2,0,0,1-1.5,12.482,3.763,3.763,0,0,1-2.242,2.362l-5.424,2.074a3.769,3.769,0,0,1-5.061-2.872C2112.985,763.728,2112.764,753.794,2121.131,747.622Z" transform="translate(-2070.556 -724.85)" fill="#d6716b"/>
        <g id="Group_7734" data-name="Group 7734" transform="translate(9.317 16.028)">
          <path id="Path_15908" data-name="Path 15908" d="M1908.874,855.3h16.989a.837.837,0,1,1,0,1.674h-16.989a.837.837,0,0,1,0-1.674Z" transform="translate(-1908.037 -837.093)" fill="#d6716b"/>
          <path id="Path_15909" data-name="Path 15909" d="M1908.874,876.475h16.989a.837.837,0,1,1,0,1.674h-16.989a.837.837,0,0,1,0-1.674Z" transform="translate(-1908.037 -854.804)" fill="#d6716b"/>
          <path id="Path_15910" data-name="Path 15910" d="M1908.874,900.014h16.989a.837.837,0,1,1,0,1.674h-16.989a.837.837,0,0,1,0-1.674Z" transform="translate(-1908.037 -874.491)" fill="#d6716b"/>
          <path id="Path_15911" data-name="Path 15911" d="M1908.874,923.553h16.989a.837.837,0,0,1,0,1.674h-16.989a.837.837,0,0,1,0-1.674Z" transform="translate(-1908.037 -894.178)" fill="#d6716b"/>
          <path id="Path_15912" data-name="Path 15912" d="M1908.874,744.041h16.989a.839.839,0,0,1,.837.837h0a.839.839,0,0,1-.837.837h-16.989a.839.839,0,0,1-.837-.837h0A.839.839,0,0,1,1908.874,744.041Z" transform="translate(-1908.037 -744.041)" fill="#d6716b"/>
          <path id="Path_15913" data-name="Path 15913" d="M1908.874,765.217h16.989a.839.839,0,0,1,.837.837h0a.839.839,0,0,1-.837.837h-16.989a.839.839,0,0,1-.837-.837h0A.839.839,0,0,1,1908.874,765.217Z" transform="translate(-1908.037 -761.752)" fill="#d6716b"/>
          <path id="Path_15914" data-name="Path 15914" d="M1908.874,788.757h16.989a.839.839,0,0,1,.837.837h0a.839.839,0,0,1-.837.837h-16.989a.839.839,0,0,1-.837-.837h0A.839.839,0,0,1,1908.874,788.757Z" transform="translate(-1908.037 -781.44)" fill="#d6716b"/>
          <path id="Path_15915" data-name="Path 15915" d="M1908.874,812.3h16.989a.839.839,0,0,1,.837.837h0a.839.839,0,0,1-.837.837h-16.989a.839.839,0,0,1-.837-.837h0A.839.839,0,0,1,1908.874,812.3Z" transform="translate(-1908.037 -801.126)" fill="#d6716b"/>
        </g>
        <path id="Rectangle_2522" data-name="Rectangle 2522" d="M3.358,0h0A3.357,3.357,0,0,1,6.715,3.357v0A3.357,3.357,0,0,1,3.358,6.715h0A3.358,3.358,0,0,1,0,3.358v0A3.358,3.358,0,0,1,3.358,0Z" transform="translate(36.879 22.743) rotate(180)" fill="#d6716b"/>
        <rect id="Rectangle_2523" data-name="Rectangle 2523" width="6.715" height="6.715" rx="3.358" transform="translate(36.879 40.949) rotate(180)" fill="#d6716b"/>
        <path id="Path_15916" data-name="Path 15916" d="M2046.614,863.775l-1.235,2.707-2.987-4.721,3.188,2.681Z" transform="translate(-2011.089 -826.47)" fill="#fff"/>
        <path id="Path_15917" data-name="Path 15917" d="M2046.614,752.148l-1.235,2.707-2.987-4.721,3.188,2.681Z" transform="translate(-2011.089 -733.11)" fill="#fff"/>
        <path id="Rectangle_2524" data-name="Rectangle 2524" d="M.729,0H60.754a.729.729,0,0,1,.729.729v0a.729.729,0,0,1-.729.729H.729A.729.729,0,0,1,0,.729v0A.729.729,0,0,1,.729,0Z" transform="translate(75.48 6.672) rotate(180)" fill="#d6716b"/>
      </g>
      <rect id="Rectangle_2525" data-name="Rectangle 2525" width="99.436" height="173.178" transform="translate(361.484 599.392)" fill="#deedff"/>
      <rect id="Rectangle_2526" data-name="Rectangle 2526" width="85.228" height="165.789" transform="translate(368.588 606.78)" fill="#b2cbfd"/>
      <g id="Group_7739" data-name="Group 7739" transform="translate(471.232 662.687)">
        <path id="Rectangle_2527" data-name="Rectangle 2527" d="M6.944,0H118.969a6.944,6.944,0,0,1,6.944,6.944v0A38.675,38.675,0,0,1,87.239,45.619H0a0,0,0,0,1,0,0V6.944A6.944,6.944,0,0,1,6.944,0Z" transform="translate(145.765 76.769) rotate(180)" fill="#a8d29f"/>
        <path id="Rectangle_2528" data-name="Rectangle 2528" d="M17.824,0H123.252a17.824,17.824,0,0,1,17.824,17.824v0a17.823,17.823,0,0,1-17.823,17.823H17.823A17.823,17.823,0,0,1,0,17.824v0A17.824,17.824,0,0,1,17.824,0Z" transform="translate(4.515 73.946)" fill="#a8d29f"/>
        <path id="Path_15918" data-name="Path 15918" d="M2470.262,1219.993h9.655v-36.834a6.632,6.632,0,0,1,6.613-6.613h.915a.406.406,0,0,1,.405.405v77.405a.635.635,0,0,1-.633.633H2459.27a.635.635,0,0,1-.633-.633v-22.738A11.659,11.659,0,0,1,2470.262,1219.993Z" transform="translate(-2341.718 -1145.396)" fill="#66a357"/>
        <path id="Path_15919" data-name="Path 15919" d="M2325.08,1178.173s9.215-.884,12.41,4.419,0,25.249,2.7,28.784,5.9,5.681,5.775,9.847l-19.817.212s-17.422.627-17.3,9.91,0,25.338,0,25.338h-9.973s-.448-41.2,9.645-43.624C2330.66,1207.751,2325.08,1178.173,2325.08,1178.173Z" transform="translate(-2208.102 -1146.71)" fill="#82b378"/>
        <path id="Path_15920" data-name="Path 15920" d="M1803.336,1217.911l.539.019v-34.488a6.852,6.852,0,0,1,6.852-6.851h21.139s4.355,14.4,4.924,19.261,17.231,5.049,19.5,11.033a48.83,48.83,0,0,1,2.651,12.716h-8.457s-.331.111-.9.356c-3.33,1.446-14.794,7.573-14.632,23.309v11.645h-41.849S1786.483,1220.728,1803.336,1217.911Z" transform="translate(-1784.023 -1145.434)" fill="#82b378"/>
        <path id="Path_15921" data-name="Path 15921" d="M2276.389,1337.239s-1.74-.53-2.35-.216-2.247,1.3-2.107,2.042,3.038,1.208,4.778.048S2276.389,1337.239,2276.389,1337.239Z" transform="translate(-2185.558 -1279.53)" fill="#e49963"/>
        <path id="Path_15922" data-name="Path 15922" d="M2266.361,1583.516a1.142,1.142,0,0,1-.653,1.053.009.009,0,0,1-.006,0c-.759.418-1.97.1-3.42.034a22.969,22.969,0,0,1-4.836,1.05c-3.107.265-4.252-.685-4.435-1.118-.154-.368,1.179-.784,2.669-1.26l.217-.069c.2-.063.4-.129.6-.193,1.773-.59,3.52-1.289,3.955-3.084.462-1.9-.927-7.217-.927-7.217l4.924-.531s.475,5.555.784,7.286a19.177,19.177,0,0,0,.831,2.45c.018.056.034.111.049.167A5.438,5.438,0,0,1,2266.361,1583.516Z" transform="translate(-2169.731 -1476.29)" fill="#d38957"/>
        <g id="Group_7736" data-name="Group 7736" transform="translate(83.269 105.628)">
          <path id="Path_15923" data-name="Path 15923" d="M2266.361,1633.277a1.142,1.142,0,0,1-.653,1.053.008.008,0,0,1-.006,0c-1.1.707-3.053-.277-6.234,1.191a17.847,17.847,0,0,1-1.946-.021c-.965-.013-2.356.074-2.683.021-1.5-.242-1.725-.982-1.828-1.225-.154-.367,1.179-.784,2.669-1.26a9.2,9.2,0,0,0,4.767.407c2.073-.39,4.132-1.422,5.613-1.766q.026.083.049.167A5.438,5.438,0,0,1,2266.361,1633.277Z" transform="translate(-2253 -1631.679)" fill="#2f5791"/>
          <path id="Path_15924" data-name="Path 15924" d="M2319.845,1646.738l-.726,1.357h-1.578v-.994Z" transform="translate(-2306.979 -1644.274)" fill="#2f5791"/>
        </g>
        <path id="Path_15925" data-name="Path 15925" d="M2263.267,1344.3l-15.939-1.519s-24.4.11-26.667,3.331c0,0-4.355,3.019.568,15.5s10.705,24.95,10.705,24.95a11.268,11.268,0,0,0,3.493.246,13.678,13.678,0,0,0,1.873-.335s-1.112-18.622-3.573-25.868-3.219-5.837,1.136-5.434,18.368,3.623,24.806,2.818S2263.267,1344.3,2263.267,1344.3Z" transform="translate(-2141.197 -1284.431)" fill="#2c3a64"/>
        <path id="Path_15926" data-name="Path 15926" d="M2285.135,1583.516a1.143,1.143,0,0,1-.653,1.053.009.009,0,0,1-.006,0c-.759.418-2-.5-7.673.845-3.034.718-4.834-.446-5.018-.879-.154-.368,1.179-.784,2.669-1.26l.217-.069c.2-.063.4-.129.6-.193,1.774-.59,3.52-1.289,3.955-3.084.462-1.9-.927-7.217-.927-7.217l4.924-.531s.475,5.555.784,7.286a19.1,19.1,0,0,0,.831,2.45c.018.056.034.111.049.167A5.438,5.438,0,0,1,2285.135,1583.516Z" transform="translate(-2185.432 -1476.29)" fill="#e49963"/>
        <g id="Group_7737" data-name="Group 7737" transform="translate(0 0)">
          <path id="Path_15927" data-name="Path 15927" d="M1952.34,1583.516a1.142,1.142,0,0,1-.653,1.053l-.006,0a7.6,7.6,0,0,1-3.54.4c-.186-.007-.352-.013-.5-.013h-.206c-1.434.035-1.282.465-4.008.7-3.107.265-4.252-.685-4.435-1.118-.154-.368,1.179-.784,2.669-1.26l.217-.069.6-.193c1.774-.59,3.52-1.289,3.955-3.084.462-1.9-.927-7.217-.927-7.217l4.924-.531s.474,5.555.784,7.286a19.083,19.083,0,0,0,.831,2.45c.017.056.034.111.049.167A5.443,5.443,0,0,1,1952.34,1583.516Z" transform="translate(-1907.096 -1476.29)" fill="#e49963"/>
          <path id="Path_15928" data-name="Path 15928" d="M1952.34,1633.277a1.142,1.142,0,0,1-.653,1.053.009.009,0,0,1-.006,0,8.8,8.8,0,0,1-3.538.388c-.185-.005-.352-.007-.5,0h-.206c-1.434.035-1.282.465-4.008.7-3.107.265-4.252-.686-4.435-1.118-.154-.367,1.179-.784,2.669-1.26a9.2,9.2,0,0,0,4.767.407c2.073-.39,4.132-1.422,5.613-1.766.017.056.034.111.049.167A5.443,5.443,0,0,1,1952.34,1633.277Z" transform="translate(-1907.096 -1526.051)" fill="#c65447"/>
          <path id="Path_15929" data-name="Path 15929" d="M1757.438,1554.243c-.274,1.368-2.223,1.139-4.4.607s-1.66.1-4.759-.242-4.038-1.5-4.133-1.959c-.085-.409,1.447-.553,3.089-.742.207-.023.414-.049.622-.074,1.854-.233,3.213-1.429,4.9-2.412,1.6-.931,3.977-4.724,3.977-4.724l4.25.337s-2.23,3.388-3.093,4.86a5.133,5.133,0,0,0-.417,2.9A5.461,5.461,0,0,1,1757.438,1554.243Z" transform="translate(-1744.143 -1453.301)" fill="#e49963"/>
          <path id="Path_15930" data-name="Path 15930" d="M1753.038,1591.7c-2.178-.532-1.66.1-4.759-.243s-4.038-1.5-4.133-1.959c-.085-.409,1.447-.553,3.089-.742l.015.032a8.737,8.737,0,0,0,4.439,1.38c2.1.051,4.33-.551,5.782-.528a5.461,5.461,0,0,1-.033,1.454C1757.164,1592.462,1755.215,1592.233,1753.038,1591.7Z" transform="translate(-1744.143 -1490.153)" fill="#c65447"/>
          <path id="Path_15931" data-name="Path 15931" d="M1846.728,1206.5s-1.013-2.481-2.127-2.582-4.658-.658-4.912-.152a3.505,3.505,0,0,0,.76,2.988c.76.658,5.468,1.721,5.468,1.721Z" transform="translate(-1823.975 -1167.989)" fill="#e49963"/>
          <path id="Path_15932" data-name="Path 15932" d="M1924.929,1402.135l9.16,24.652a8.385,8.385,0,0,0,2.756-.252,11.876,11.876,0,0,0,2.664-1.3s-2.272-23.67-6.438-28.594S1924.929,1402.135,1924.929,1402.135Z" transform="translate(-1895.345 -1328.371)" fill="#365da4"/>
          <path id="Path_15933" data-name="Path 15933" d="M1864.654,1337.678a8.7,8.7,0,0,1-5.882.21c-7.039-2.249-24.583-7.546-29.243-6.043-5.87,1.894-23.5,36.96-23.5,36.96a3.4,3.4,0,0,0,1.484.936,13.992,13.992,0,0,0,3.455.354s15.906-13.634,17.8-17.611,2.651-7.763,4.545-7.385,24.427,9.279,29.54,3.977a14.759,14.759,0,0,0,3.776-12.191Z" transform="translate(-1795.906 -1275.061)" fill="#466aa5"/>
          <path id="Path_15934" data-name="Path 15934" d="M2035.3,1008.575a14.971,14.971,0,0,1-1.12-5.157,15.832,15.832,0,0,0,1.842,5.7c5.474,3.594,15.966,15.594,15.759,17.868,0,0,3.7-6.268,3.759-6.306,0,0,6.817-8.669-1.263-13.635-4.106-2.524-4.085-5.763-3.914-8.576s-1.12-14.927-9.346-11.757a5.356,5.356,0,0,0-1.911-.5,1.618,1.618,0,0,1,.728.346,6.384,6.384,0,0,0-3.455.661C2033.362,988.935,2030.663,1004.309,2035.3,1008.575Z" transform="translate(-1985.569 -986.188)" fill="#b74b42"/>
          <path id="Path_15935" data-name="Path 15935" d="M2054.429,1085.984c-.028.012,2.643,1.4,4.652.85,1.889-.515,3.124-2.965,3.1-2.971-.8-.159-1.031-1.258-1.014-5.983l-.362.071-6.082,1.2s.139,1.914.143,3.717C2054.867,1084.387,2054.776,1085.823,2054.429,1085.984Z" transform="translate(-2003.654 -1062.876)" fill="#e49963"/>
          <path id="Path_15936" data-name="Path 15936" d="M2056.213,1079.52s.138,1.914.143,3.717c3.4-.1,5.2-3.2,5.94-4.922Z" transform="translate(-2005.146 -1063.24)" fill="#d68d5d"/>
          <path id="Path_15937" data-name="Path 15937" d="M2043.347,1010.4a17.892,17.892,0,0,0,2.212-5.228c.306-1.72-.571-8.1-6.979-7.179a8.706,8.706,0,0,0-3.611,1.365c-1.391.94-3.4,2.969-1.154,8.533l.583,1.88Z" transform="translate(-1985.569 -995.984)" fill="#b74b42"/>
          <path id="Path_15938" data-name="Path 15938" d="M2035.561,1026.662s8.052.133,8.058-4.883,1.049-8.377-4.093-8.674-6.142,1.616-6.551,3.29S2033.466,1026.5,2035.561,1026.662Z" transform="translate(-1985.63 -1008.675)" fill="#e49963"/>
          <path id="Path_15939" data-name="Path 15939" d="M2040.349,1008.361s-5.5-3.76-7.24-1.16c-.527-.452-1.467-.78-2.71.726-1.867,2.263-.206,6.263-.206,6.263.766.089.947-2.54,1.348-3.817a6.392,6.392,0,0,1,1.792-2.373c.7,1.584,2.635,5.374,5.3,6.059,3.384.87,4.851-.037,4.851-.037A9.58,9.58,0,0,1,2040.349,1008.361Z" transform="translate(-1982.814 -1002.996)" fill="#b74b42"/>
          <path id="Path_15940" data-name="Path 15940" d="M1920.291,1138.21c.794-3.331-1.907-9.793-4.728-15.143-2.559-4.849-5.215-8.783-5.454-8.642-6.749,4.006-7.359.676-7.359.676s-6.13.814-7.866,3.8c-2.4,4.132-5.016,16.532-7.585,16.349-1.179-.084-13.046-4.545-13.046-4.545s-1.977,1.852-1.6,4.124a123.934,123.934,0,0,0,10.814,6.427c2.621,1.324,4.99,2.251,6.1,1.988,2.257-.531,5.783-5.764,7.688-8.845l.013-.021c2.432,13.765-.875,16.9.8,18.35,1.767,1.533,4.292-.73,9.847,1.678,3.644,1.581,8.7,3.866,12.1,4.264,1.785.209,3.117-.1,3.551-1.307C1924.835,1153.863,1918.776,1144.559,1920.291,1138.21Z" transform="translate(-1851.584 -1093.437)" fill="#699dee"/>
          <path id="Path_15941" data-name="Path 15941" d="M2044.739,1075.445s-.15.637-1.735.539c0,0-1.331-.082-1.29-.782A4.281,4.281,0,0,1,2044.739,1075.445Z" transform="translate(-1993.018 -1060.499)" fill="#fff"/>
          <path id="Path_15942" data-name="Path 15942" d="M2102.439,1233.291c-.434,1.206-1.766,1.516-3.552,1.307-2.356-1.026-12.532-4.969-12.419-7.641.169-3.955,1.957-4.081.694-8.963-1.014-3.92,8.389-11.209,9.889-12.793,2.82,5.351,2.9,5.6,2.1,8.934C2097.642,1220.483,2103.7,1229.787,2102.439,1233.291Z" transform="translate(-2030.45 -1169.361)" fill="#3b76ca"/>
          <path id="Path_15943" data-name="Path 15943" d="M1952.777,1233.048c-1.905,3.081-5.431,8.313-7.689,8.845-1.113.262-3.482-.664-6.1-1.989a15.851,15.851,0,0,0,5.577.306c1.957-.189,2.525-2.588,5.618-6.186C1952.186,1231.691,1952.679,1232.278,1952.777,1233.048Z" transform="translate(-1907.102 -1192.083)" fill="#3b76ca"/>
          <path id="Path_15944" data-name="Path 15944" d="M2051.987,1277.39a4.853,4.853,0,0,0-3.314-1.01c-1.61.316-2.4,1.42-2.336,1.926a2.872,2.872,0,0,0,2.146,2.051,23.236,23.236,0,0,0,4.734-.758Z" transform="translate(-1996.883 -1228.852)" fill="#e49963"/>
          <path id="Path_15945" data-name="Path 15945" d="M2081.021,1114.445s6.563.4,8.835,3.573c3.2,4.461,10.874,24.3,7.239,26.838-4.1,2.855-19.969-.084-19.969-.084s-.484-2.262.19-3.356,11.614-2.862,12.119-3.366-6.312-9.847-6.312-11.362S2081.021,1114.445,2081.021,1114.445Z" transform="translate(-2022.496 -1093.457)" fill="#699dee"/>
        </g>
        <path id="Path_15946" data-name="Path 15946" d="M2284.26,1352.533l-14.948-1.262s-24.4.107-26.667,3.226c0,0-3.686,2.309,1.238,14.395s9.91,25.385,9.91,25.385a12.55,12.55,0,0,0,2.441.043,3.791,3.791,0,0,0,2.24-.682s-.347-16.538-2.809-23.555-3.408-6.3.947-5.913,16.6,3.444,25.042,1.828C2288.027,1364.777,2284.26,1352.533,2284.26,1352.533Z" transform="translate(-2159.962 -1291.529)" fill="#35488b"/>
        <g id="Group_7738" data-name="Group 7738" transform="translate(86.342 105.627)">
          <path id="Path_15947" data-name="Path 15947" d="M2271.788,1634.3c.1.234.31.934,1.679,1.2h4.835a9.48,9.48,0,0,1,4.034-.859,4.2,4.2,0,0,0,2.141-.306.008.008,0,0,0,.006,0l.073-.043a1.123,1.123,0,0,0,.581-1.01,5.425,5.425,0,0,0-.252-1.431c-.015-.055-.031-.112-.05-.167-1.48.345-3.539,1.377-5.612,1.766a9.191,9.191,0,0,1-4.767-.406C2272.967,1633.512,2271.633,1633.928,2271.788,1634.3Z" transform="translate(-2271.776 -1631.676)" fill="#365da4"/>
          <path id="Path_15948" data-name="Path 15948" d="M2338.618,1646.749l-.726,1.357h-1.578v-.994Z" transform="translate(-2325.753 -1644.282)" fill="#365da4"/>
        </g>
        <path id="Path_15949" data-name="Path 15949" d="M2301.728,1146.83c1.074-1.523,1.138-20.731,1.77-23.634s6.081-4.623,6.081-4.623-1.01,9.787-2.19,18.687c-.954,7.2-1.068,14.058-1.8,14.453-1.641.884-6.364,4.457-8.5,4.153l-1.291-1.146a.456.456,0,0,1,.1-.749C2298.192,1152.8,2300.928,1147.963,2301.728,1146.83Z" transform="translate(-2205.397 -1096.909)" fill="#ee9849"/>
        <path id="Path_15950" data-name="Path 15950" d="M2359.49,987.308a5.014,5.014,0,0,1,3.455-.661,1.617,1.617,0,0,0-.729-.346,5.356,5.356,0,0,1,1.911.5s5-2.56,7.314,4.005c0,0-.4-.5-.946-1.058,1.338,3.776-.015,9.489-4.23,10.505C2363.525,1000.913,2349.033,995.707,2359.49,987.308Z" transform="translate(-2255.666 -986.275)" fill="#163560"/>
        <path id="Path_15951" data-name="Path 15951" d="M2378.409,1085.984c-.028.012,2.643,1.4,4.652.85,1.89-.515,3.124-2.965,3.1-2.971-.8-.159-1.031-1.258-1.014-5.983l-.362.071-6.082,1.2s.138,1.914.143,3.717C2378.847,1084.387,2378.756,1085.823,2378.409,1085.984Z" transform="translate(-2274.618 -1062.876)" fill="#e49963"/>
        <path id="Path_15952" data-name="Path 15952" d="M2380.193,1079.52s.138,1.914.143,3.717c3.4-.1,5.2-3.2,5.94-4.922Z" transform="translate(-2276.11 -1063.24)" fill="#d68d5d"/>
        <path id="Path_15953" data-name="Path 15953" d="M2367.327,1010.4a17.89,17.89,0,0,0,2.212-5.228c.305-1.72-.571-8.1-6.979-7.179a8.705,8.705,0,0,0-3.611,1.365c-1.391.94-3.4,2.969-1.154,8.533l.583,1.88Z" transform="translate(-2256.533 -995.984)" fill="#163560"/>
        <path id="Path_15954" data-name="Path 15954" d="M2359.54,1026.662s8.052.133,8.058-4.883,1.049-8.377-4.093-8.674-6.142,1.616-6.551,3.29S2357.445,1026.5,2359.54,1026.662Z" transform="translate(-2256.594 -1008.675)" fill="#e49963"/>
        <path id="Path_15955" data-name="Path 15955" d="M2348.311,1160.3c.141-.572-1.065-1-1.36-.492a10.953,10.953,0,0,0-.884,3.114,20.1,20.1,0,0,0,0,6.481Z" transform="translate(-2247.334 -1131.209)" fill="#e58638"/>
        <path id="Path_15956" data-name="Path 15956" d="M2354.378,1007.927c1.242-1.506,2.182-1.179,2.71-.726,1.74-2.6,7.24,1.16,7.24,1.16a9.581,9.581,0,0,0,3.134,5.661s-1.468.907-4.851.037c-2.663-.685-4.6-4.475-5.3-6.059a6.386,6.386,0,0,0-1.792,2.373c-.4,1.277-.582,3.907-1.349,3.817C2354.173,1014.19,2352.511,1010.19,2354.378,1007.927Z" transform="translate(-2253.778 -1002.996)" fill="#163560"/>
        <path id="Path_15957" data-name="Path 15957" d="M2368.718,1075.445s-.15.637-1.735.539c0,0-1.331-.082-1.29-.782A4.282,4.282,0,0,1,2368.718,1075.445Z" transform="translate(-2263.981 -1060.499)" fill="#fff"/>
        <path id="Path_15958" data-name="Path 15958" d="M2335.312,1226s1.021,14.614-1.969,17.911l6.132-3.871Z" transform="translate(-2236.926 -1186.754)" fill="#e58638"/>
        <path id="Path_15959" data-name="Path 15959" d="M2343.883,1131.97c3.263,15.733.533,18.148,2.228,19.695.009.008,1.5.654,1.515.663,1.768,1.533,1.812-.324,7.367,2.083a89.863,89.863,0,0,0,9,3.566,18.436,18.436,0,0,0,3.1.7c1.785.209,3.117-.1,3.551-1.307,1.262-3.5-4.8-12.808-3.282-19.157.013-.054.025-.11.037-.164a6.965,6.965,0,0,0,.073-1.892c-.283-3.543-2.52-8.691-4.838-13.087-2.559-4.849-5.215-8.783-5.454-8.642-6.75,4.006-7.359.676-7.359.676S2342.77,1126.6,2343.883,1131.97Z" transform="translate(-2245.642 -1093.437)" fill="#ee9849"/>
        <path id="Path_15960" data-name="Path 15960" d="M2364.072,1212.759h0c1.767,1.533,2.348-.1,7.9,2.3a89.834,89.834,0,0,0,9,3.566,18.754,18.754,0,0,1,3.1.7c1.785.209,3.117-.1,3.551-1.307,1.262-3.5-4.8-12.808-3.282-19.157.012-.054.025-.11.036-.164a5.873,5.873,0,0,0,.073-1.892c-.319-2.692-2.3-5.612-4.541-9.865-1.5,1.585-12.764-.253-10.1,15.4C2370.633,1207.142,2364.772,1209.034,2364.072,1212.759Z" transform="translate(-2262.625 -1154.09)" fill="#e58638"/>
        <path id="Path_15961" data-name="Path 15961" d="M2332.518,1348.047s-2.483-.589-3.619-.126-3.409,1.641-3.2,2.272,2.9.968,4.04.337,1.978.168,3.367-.295S2332.518,1348.047,2332.518,1348.047Z" transform="translate(-2230.523 -1288.578)" fill="#e49963"/>
        <path id="Path_15962" data-name="Path 15962" d="M2372.546,1114.444s9.158.123,10.8,4.541,1.136,19.947-1.262,24.618-16.033,10.984-17.548,11.236-2.462-2.083-2.4-2.336,14.329-11.8,14.266-13S2372.546,1114.444,2372.546,1114.444Z" transform="translate(-2261.005 -1093.456)" fill="#ee9849"/>
      </g>
      <g id="Group_7746" data-name="Group 7746" transform="translate(325.785 665.191)">
        <g id="Group_7741" data-name="Group 7741" transform="translate(2.237 10.675)">
          <path id="Path_15963" data-name="Path 15963" d="M879.336,1071.25s1.871-2.182.115-3.569a4.98,4.98,0,0,0-2.328-.713s1.481,2.484,1,2.731-1.451-2.887-1.451-2.887-2.917-.283-3.856.168c0,0,2.494,2.041,1.969,2.163s-3.219-1.882-3.219-1.882-2.715.462-2.571,2.119,1.08,2.168,1.492,2.124,2.817-.962,2.869-.625-1.4,1.438-2.41,1.49c0,0,1.914,2.111,3.187,1.5s1.381-1.575,2.174-1.938,1.47-.361,1.143.008-1.763.729-2.216,1.531-.861,1.343.456,1.145,3.456-1.161,3.55-2.264Z" transform="translate(-868.992 -1066.725)" fill="#82b378"/>
          <g id="Group_7740" data-name="Group 7740" transform="translate(1.34 2.687)">
            <path id="Path_15964" data-name="Path 15964" d="M877.179,1083.159s7.375-.284,9,1.825a5.333,5.333,0,0,0,1.469,2.061l.173.471s-1.278-1.348-1.735-1.429C886.089,1086.087,886.8,1083.473,877.179,1083.159Z" transform="translate(-877.179 -1083.146)" fill="#82b378"/>
            <path id="Path_15965" data-name="Path 15965" d="M939.051,1106.025a4.631,4.631,0,0,1,1.693,3.263l-.287.026a7.484,7.484,0,0,0-1.419-3.009C938.123,1105.458,939.051,1106.025,939.051,1106.025Z" transform="translate(-928.578 -1102.125)" fill="#82b378"/>
          </g>
        </g>
        <g id="Group_7743" data-name="Group 7743" transform="translate(17.165 4.75)">
          <path id="Path_15966" data-name="Path 15966" d="M962.173,1038.222s-2.976-1.666-1.587-3.928a5.906,5.906,0,0,1,2.3-1.746s-.635,3.372,0,3.452.436-3.809.436-3.809,3.134-1.508,4.364-1.389c0,0-1.944,3.293-1.309,3.213s2.817-3.412,2.817-3.412,3.214-.6,3.729,1.309-.318,2.856-.794,2.976-3.531.079-3.452.476,2.142,1.032,3.293.675c0,0-1.27,3.134-2.936,2.976s-2.182-1.19-3.214-1.27-1.786.2-1.27.476,2.261.091,3.095.8,1.508,1.145-.04,1.462-4.325.119-4.88-1.071Z" transform="translate(-960.217 -1030.517)" fill="#a8d29f"/>
          <g id="Group_7742" data-name="Group 7742" transform="translate(0.385 1.992)">
            <path id="Path_15967" data-name="Path 15967" d="M977.4,1042.692s-8.332,2.7-9.284,5.713a6.328,6.328,0,0,1-.793,2.9v.6a8.667,8.667,0,0,1,1.349-2.3S966.806,1046.977,977.4,1042.692Z" transform="translate(-966.544 -1042.692)" fill="#82b378"/>
            <path id="Path_15968" data-name="Path 15968" d="M963.345,1093.412a5.494,5.494,0,0,0-.552,4.326l.331-.089s-.321-2.616.351-3.932S963.345,1093.412,963.345,1093.412Z" transform="translate(-962.567 -1084.802)" fill="#82b378"/>
          </g>
        </g>
        <g id="Group_7745" data-name="Group 7745">
          <path id="Path_15969" data-name="Path 15969" d="M869.708,1011.647s3.922-2.2,2.092-5.178a7.787,7.787,0,0,0-3.033-2.3s.837,4.445,0,4.55-.575-5.021-.575-5.021-4.132-1.987-5.753-1.83c0,0,2.563,4.341,1.726,4.236s-3.713-4.5-3.713-4.5-4.236-.784-4.916,1.726.418,3.766,1.046,3.922,4.655.1,4.55.628-2.824,1.36-4.341.889c0,0,1.674,4.132,3.87,3.922s2.876-1.569,4.236-1.674,2.354.261,1.674.628-2.981.12-4.079,1.053-1.987,1.509.052,1.927,5.7.157,6.433-1.412Z" transform="translate(-855.32 -1001.49)" fill="#a8d29f"/>
          <g id="Group_7744" data-name="Group 7744" transform="translate(2.15 2.626)">
            <path id="Path_15970" data-name="Path 15970" d="M868.456,1017.54s10.983,3.556,12.238,7.531a8.342,8.342,0,0,0,1.046,3.818v.784s-1.151-2.667-1.778-3.033C879.962,1026.64,882.42,1023.188,868.456,1017.54Z" transform="translate(-868.456 -1017.54)" fill="#82b378"/>
            <path id="Path_15971" data-name="Path 15971" d="M946.952,1084.4a7.243,7.243,0,0,1,.728,5.7l-.436-.117s.423-3.448-.463-5.183S946.952,1084.4,946.952,1084.4Z" transform="translate(-933.668 -1073.048)" fill="#82b378"/>
          </g>
        </g>
        <path id="Path_15972" data-name="Path 15972" d="M904.779,1123.962a7.683,7.683,0,0,1-7.683-7.683h15.367A7.683,7.683,0,0,1,904.779,1123.962Z" transform="translate(-890.26 -1097.495)" fill="#f1a34f"/>
        <path id="Path_15973" data-name="Path 15973" d="M932.5,1123.9a7.689,7.689,0,0,0,8.638-7.625h-1.909A7.685,7.685,0,0,1,932.5,1123.9Z" transform="translate(-919.867 -1097.495)" fill="#ffb973"/>
        <path id="Path_15974" data-name="Path 15974" d="M896.448,1160.777h15.579a.948.948,0,0,0-.948-.948H897.4a.948.948,0,0,0-.948.948Z" transform="translate(-889.718 -1133.918)" fill="#f1a34f"/>
        <rect id="Rectangle_2529" data-name="Rectangle 2529" width="15.794" height="0.236" transform="translate(22.456 19.02) rotate(180)" fill="#d86713"/>
      </g>
      <g id="Group_7754" data-name="Group 7754" transform="translate(222.178 635.218)">
        <g id="Group_7748" data-name="Group 7748" transform="translate(33.448 0)">
          <path id="Path_15975" data-name="Path 15975" d="M764.4,1151.333a7.412,7.412,0,0,1,2.662-.417,12.406,12.406,0,0,1,3.617,1.7.984.984,0,0,1,0,.463H764.4s-1.4-.273-1.643-1.1S764.4,1151.333,764.4,1151.333Z" transform="translate(-707.724 -1096.463)" fill="#ffb27d"/>
          <path id="Path_15976" data-name="Path 15976" d="M627.381,1575.32a1.2,1.2,0,0,0,.785,1.043l.007,0a8,8,0,0,0,3.753.079c.194-.025.369-.047.525-.061l.122-.01.094-.007c1.509-.1,1.391.366,4.274.351,3.286-.018,4.4-1.124,4.549-1.6.127-.4-1.312-.711-2.921-1.069l-.234-.052c-.214-.047-.43-.1-.644-.146-1.918-.45-3.817-1.018-4.445-2.861-.666-1.954-.508-7.753-.508-7.753h-5.82s1.528,6.407,1.368,8.253c-.087.986-.558,1.266-.74,2.12q-.02.09-.036.179A5.73,5.73,0,0,0,627.381,1575.32Z" transform="translate(-594.133 -1441.343)" fill="#ad7041"/>
          <g id="Group_7747" data-name="Group 7747" transform="translate(25.807 50.363)">
            <path id="Path_15977" data-name="Path 15977" d="M584.951,1147.028c.491,2.758,1.192,5.607,1.8,8.571a44.366,44.366,0,0,1,.96,15.279,19.026,19.026,0,0,0-.161,2.308c-.147,9.635,4.158,27.1,4.158,27.1a7.6,7.6,0,0,0,3.129.408,9.944,9.944,0,0,0,2.557-.7s.407-10.826.432-25.384c.018-10.553,2.09-24.448,2.508-32.613a104.493,104.493,0,0,0-.3-11.524s-8.581-6.9-11.664-3.37C585.33,1130.585,583.113,1136.712,584.951,1147.028Z" transform="translate(-584.282 -1126.091)" fill="#415da5"/>
          </g>
          <path id="Path_15978" data-name="Path 15978" d="M600.333,1260.214a19.014,19.014,0,0,0-.161,2.308c6.427-9.311,7.848-29.616,7.848-29.616l-7.059,3.426s-.774,3.808-1.589,8.6A44.367,44.367,0,0,1,600.333,1260.214Z" transform="translate(-571.097 -1165.064)" fill="#355493"/>
          <path id="Path_15979" data-name="Path 15979" d="M516.225,1573.474a1.2,1.2,0,0,0,.785,1.043.01.01,0,0,0,.007,0,8,8,0,0,0,3.753.079c.194-.026.368-.047.525-.061l.122-.01.094-.007c1.509-.1,1.391.365,4.274.351,3.286-.018,4.4-1.124,4.549-1.6.127-.4-1.312-.711-2.921-1.068l-.235-.052c-.214-.047-.43-.1-.644-.146-1.918-.45-3.817-1.018-4.445-2.861-.666-1.954.286-7.664.286-7.664l-5.392-.451s.335,6.506.174,8.352a15.979,15.979,0,0,1-.769,2.382c-.013.06-.025.12-.036.18A5.722,5.722,0,0,0,516.225,1573.474Z" transform="translate(-501.544 -1439.496)" fill="#ad7041"/>
          <path id="Path_15980" data-name="Path 15980" d="M519.07,1237.2a13.1,13.1,0,0,0,2.384.856,11.454,11.454,0,0,0,3.071-.19,140.626,140.626,0,0,1,2.931-18.146,169.822,169.822,0,0,1,8.772-27.8c.852-2.013,4.365-11.541,4.961-13.945,1.8-7.265-.007-6.482-.007-6.482l-15.757-1.849s-1.941,1-2.835,11.256c-.268,3.072-.3,16.337-.7,18.852a28.118,28.118,0,0,1-1.353,5.648C517.606,1212.584,519.07,1237.2,519.07,1237.2Z" transform="translate(-503.628 -1112.152)" fill="#415da5"/>
          <path id="Path_15981" data-name="Path 15981" d="M516.225,1628.337a1.2,1.2,0,0,0,.785,1.043l.007,0a9.269,9.269,0,0,0,3.75.07c.194-.023.369-.04.528-.052l.122-.01.094-.007c1.509-.1,1.391.366,4.274.351,3.286-.018,4.4-1.124,4.549-1.6.127-.4-1.312-.711-2.921-1.068a9.7,9.7,0,0,1-4.965.88c-2.213-.212-4.472-1.1-6.06-1.319-.013.06-.025.12-.036.179A5.724,5.724,0,0,0,516.225,1628.337Z" transform="translate(-501.544 -1494.36)" fill="#b84c42"/>
          <path id="Path_15982" data-name="Path 15982" d="M629.685,1628.337a1.2,1.2,0,0,0,.785,1.043l.007,0a9.271,9.271,0,0,0,3.75.07c.194-.023.369-.04.528-.052l.122-.01.094-.007c1.509-.1,1.391.366,4.274.351,3.286-.018,4.4-1.124,4.549-1.6.127-.4-1.312-.711-2.921-1.068a9.7,9.7,0,0,1-4.965.88c-2.213-.212-4.472-1.1-6.06-1.319-.013.06-.025.12-.036.179A5.731,5.731,0,0,0,629.685,1628.337Z" transform="translate(-596.437 -1494.36)" fill="#b84c42"/>
          <path id="Path_15983" data-name="Path 15983" d="M524.729,828.632c.532-4.346-.825-11.3-9.5-10.19s-11.409,9.637-9.659,13.428-2.519,4.7-3.859,8.782c-1.151,3.5-1.552,7.85-3.415,9.8-6.006,6.292,5.766,15.967,12.862,13.926,12.926-3.716,14.59-4.271,14.132-14.427-.235-5.2-4.283-7.219-1.713-8.725C529.786,837.591,523.525,838.468,524.729,828.632Z" transform="translate(-485.178 -818.323)" fill="#2b478b"/>
          <path id="Path_15984" data-name="Path 15984" d="M590.375,910.814l2.385,6.174,5.164.253,2.571-3.852c-2.917-2.212-2.794-6.444-2.651-7.922.033-.333.065-.526.065-.526l-6.455-1.965c-.078,1.706-.173,3.04-.276,4.085C590.819,910.726,590.375,910.814,590.375,910.814Z" transform="translate(-563.571 -889.123)" fill="#ffb27d"/>
          <path id="Path_15985" data-name="Path 15985" d="M573.223,948.139c-.332,0-5.965-1.146-15.48,1.287,0,0,5.21,23.873,3.44,28.372a47.539,47.539,0,0,0-2.443,8.493l19.2.238s-.268-15.444.617-20.91S573.223,948.139,573.223,948.139Z" transform="translate(-536.279 -926.671)" fill="#ffb27d"/>
          <path id="Path_15986" data-name="Path 15986" d="M549.517,976.146c-.281,3.16-3.233,10.381-2.595,11.919a4.437,4.437,0,0,0,3.634,2.9,37.636,37.636,0,0,0,6.057.615c5.785.287,11.985-.44,12.828-3.19.4-1.32.249-6.427.034-8.785-.443-4.879.485-11.88.621-16.411.112-3.779-2.168-12.378-2.168-12.378a14.414,14.414,0,0,0-4.255-1.3s-.339,4.467-2.67,4.851c-4.03.665-7.278-3.027-8.227-4.513,0,0-4.629,1.168-5.987,2.717-1.287,1.466.474,12.33.865,13.372.338.894.657,1.767.935,2.644A18.442,18.442,0,0,1,549.517,976.146Z" transform="translate(-526.73 -928.049)" fill="#7a97f3"/>
          <path id="Path_15987" data-name="Path 15987" d="M432.881,1151.447a7.476,7.476,0,0,0-2.661-.414,12.459,12.459,0,0,0-3.617,1.689.968.968,0,0,0,0,.459h6.278s1.4-.27,1.643-1.09S432.881,1151.447,432.881,1151.447Z" transform="translate(-426.577 -1096.561)" fill="#ffb27d"/>
          <path id="Path_15988" data-name="Path 15988" d="M595.291,909.559a11.5,11.5,0,0,1,6.665-1.593c.033-.333.065-.526.065-.526l-6.455-1.965C595.489,907.181,595.393,908.515,595.291,909.559Z" transform="translate(-567.683 -891.214)" fill="#e8945b"/>
          <path id="Path_15989" data-name="Path 15989" d="M597.664,852.472s-7.727,1.552-8.619-3.275-2.491-7.877,2.405-9.072,6.2.469,6.887,2.008S599.651,851.944,597.664,852.472Z" transform="translate(-561.64 -836.216)" fill="#ffb27d"/>
          <path id="Path_15990" data-name="Path 15990" d="M581.408,827.325a5.84,5.84,0,0,1,4.569-1.733c-.829-1.005,2.505-3.208,6.317.549,1.642,1.618,1.394,4.8.514,6.645,0,0-1.351-3.956-3.81-4.818a5.375,5.375,0,0,1-1.544-.893,10.6,10.6,0,0,1-2.113,3.14c-2.541,2.778-2.046,8.4-2.046,8.4S579.123,829.9,581.408,827.325Z" transform="translate(-555.5 -823.097)" fill="#2b478b"/>
          <path id="Path_15991" data-name="Path 15991" d="M632.008,900.048s.207.573,1.661.313c0,0,1.221-.218,1.109-.861A3.985,3.985,0,0,0,632.008,900.048Z" transform="translate(-598.391 -886.168)" fill="#fff"/>
          <path id="Path_15992" data-name="Path 15992" d="M469.884,971.378c2.923-11.281,4.527-17.721,6.922-19.67,2.118-1.724,6.685-1.882,6.685-1.882a23.324,23.324,0,0,1-.159,4.066L488.95,964.6a47.068,47.068,0,0,1,3.9,11.926c.773-6.187,1.54-11.926,1.54-11.926a64.811,64.811,0,0,0,.953-7.01c-.677-2.613-.606-5.34-.924-8.071l.353.02c1.109.078,4.568.43,6.332,1.878,2.4,1.966,2.932,10.6,6.922,19.844,0,0,4.834,8.128,6.373,11.352a2.745,2.745,0,0,1-.865.773,4.538,4.538,0,0,1-1.264.45s-8.72-8.587-9.293-9.945c-.189-.447-1.244-2.013-2.553-4.316h0s-.348,12.269.414,17.564a2.745,2.745,0,0,1-1.362,2.785c-5.385,3.042-21.519,11.328-24.522,3.28-.337-.9,5.559-16.23,4.752-19.548-.258-1.061-.6-3.482-.943-6.282-1.847,3.543-3.584,6.031-3.832,6.612-.573,1.346-9.293,9.857-9.293,9.857a4.57,4.57,0,0,1-1.264-.446,2.734,2.734,0,0,1-.865-.766C465.05,979.434,469.884,971.378,469.884,971.378Z" transform="translate(-457.467 -928.049)" fill="#e9f2ff"/>
          <path id="Path_15993" data-name="Path 15993" d="M572.769,951.2l5.155,14.805-5.155-4.874.39-1.515a3.617,3.617,0,0,1-1.666-.205c-.481-.311-1.6-7.88-1.6-7.88s1.049-.176,1.4-.216C571.662,951.276,572.769,951.2,572.769,951.2Z" transform="translate(-546.442 -929.459)" fill="#b2cbfd"/>
          <path id="Path_15994" data-name="Path 15994" d="M652.25,949.518s1.085,11.7-.029,15.081c0,0,3.19-5.051,2.592-6.1l-1.156-.762s2.232-.29,1.814-1.572-2.212-6.483-2.212-6.483Z" transform="translate(-615.297 -928.049)" fill="#b2cbfd"/>
        </g>
        <g id="Group_7749" data-name="Group 7749" transform="translate(6.212 64.229)">
          <path id="Path_15995" data-name="Path 15995" d="M383.064,1448.9H260.139v-40.369l122.925-.4Z" transform="translate(-260.139 -1375.844)" fill="#699ff0"/>
          <rect id="Rectangle_2530" data-name="Rectangle 2530" width="122.925" height="10.557" fill="#699ff0"/>
        </g>
        <rect id="Rectangle_2531" data-name="Rectangle 2531" width="135.116" height="7.609" rx="3.805" transform="translate(135.116 64.229) rotate(180)" fill="#466aa5"/>
        <g id="Group_7750" data-name="Group 7750" transform="translate(56.304 33.598)">
          <path id="Path_15996" data-name="Path 15996" d="M566.809,1026.307l3.545-.218a.433.433,0,0,0,.405-.459l-.1-1.586a.433.433,0,0,0-.459-.405l-3.545.218a.433.433,0,0,0-.405.458l.1,1.586A.433.433,0,0,0,566.809,1026.307Z" transform="translate(-566.252 -1023.638)" fill="#2b478b"/>
          <rect id="Rectangle_2532" data-name="Rectangle 2532" width="1.157" height="1.551" transform="matrix(-0.998, 0.061, -0.061, -0.998, 3.962, 1.986)" fill="#e9f2ff"/>
          <path id="Path_15997" data-name="Path 15997" d="M569.474,1027.448l1.437-.089a.194.194,0,0,0,.182-.205h0a.194.194,0,0,0-.205-.182l-1.438.088a.194.194,0,0,0-.181.205h0A.194.194,0,0,0,569.474,1027.448Z" transform="translate(-568.775 -1026.426)" fill="#e9f2ff"/>
          <path id="Path_15998" data-name="Path 15998" d="M569.595,1031.908l1.677-.1a.074.074,0,0,0,.069-.078h0a.074.074,0,0,0-.078-.069l-1.677.1a.074.074,0,0,0-.069.078h0A.074.074,0,0,0,569.595,1031.908Z" transform="translate(-568.982 -1030.345)" fill="#e9f2ff"/>
          <path id="Path_15999" data-name="Path 15999" d="M569.685,1033.372l1.677-.1a.074.074,0,0,0,.069-.078h0a.074.074,0,0,0-.078-.069l-1.677.1a.074.074,0,0,0-.069.078h0A.074.074,0,0,0,569.685,1033.372Z" transform="translate(-569.057 -1031.569)" fill="#e9f2ff"/>
        </g>
        <path id="Path_16000" data-name="Path 16000" d="M632.8,1115.022a.557.557,0,1,0-.557.557A.556.556,0,0,0,632.8,1115.022Z" transform="translate(-564.675 -1066.005)" fill="#2b478b"/>
        <path id="Path_16001" data-name="Path 16001" d="M632.8,1136.371a.557.557,0,1,0-.557.557A.557.557,0,0,0,632.8,1136.371Z" transform="translate(-564.675 -1083.86)" fill="#2b478b"/>
        <path id="Path_16002" data-name="Path 16002" d="M389.774,1297.071l-119.661.4v-22.132H389.774Z" transform="translate(-262.269 -1200.555)" fill="#afcdfb" opacity="0.9"/>
        <g id="Group_7751" data-name="Group 7751" transform="translate(3.475 38.316)">
          <path id="Path_16003" data-name="Path 16003" d="M258.265,1052.47l3.94,18.3H246.851l-3.435-18.3Z" transform="translate(-243.416 -1052.47)" fill="#699ff0"/>
          <path id="Path_16004" data-name="Path 16004" d="M262.384,1056.03l3.558,16.533H252.074l-3.1-16.533Z" transform="translate(-248.063 -1055.448)" fill="#fff"/>
        </g>
        <g id="Group_7752" data-name="Group 7752" transform="translate(5.849 40.226)">
          <path id="Path_16005" data-name="Path 16005" d="M258.276,1064.144h10.556a.354.354,0,0,1,0,.707H258.276a.354.354,0,0,1,0-.707Z" transform="translate(-257.923 -1064.144)" fill="#699ff0"/>
          <path id="Path_16006" data-name="Path 16006" d="M261.568,1074.329h10.556a.354.354,0,0,1,0,.707H261.568a.354.354,0,0,1,0-.707Z" transform="translate(-260.676 -1072.662)" fill="#699ff0"/>
          <path id="Path_16007" data-name="Path 16007" d="M263.626,1084.1h10.556a.354.354,0,1,1,0,.707H263.626a.354.354,0,1,1,0-.707Z" transform="translate(-262.397 -1080.837)" fill="#699ff0"/>
          <path id="Path_16008" data-name="Path 16008" d="M266.61,1104.256h10.556a.353.353,0,1,1,0,.707H266.61a.353.353,0,1,1,0-.707Z" transform="translate(-264.892 -1097.692)" fill="#699ff0"/>
          <path id="Path_16009" data-name="Path 16009" d="M269.9,1114.441h10.556a.354.354,0,1,1,0,.707H269.9a.354.354,0,1,1,0-.707Z" transform="translate(-267.646 -1106.21)" fill="#699ff0"/>
          <path id="Path_16010" data-name="Path 16010" d="M271.96,1124.215h10.556a.353.353,0,1,1,0,.707H271.96a.353.353,0,1,1,0-.707Z" transform="translate(-269.367 -1114.385)" fill="#699ff0"/>
        </g>
        <rect id="Rectangle_2533" data-name="Rectangle 2533" width="0.438" height="7.913" transform="translate(24.44 48.642) rotate(-16.788)" fill="#a53d38"/>
        <path id="Path_16011" data-name="Path 16011" d="M378.447,1156.635a1.514,1.514,0,0,1,1.531,1.259h-3.061A1.514,1.514,0,0,1,378.447,1156.635Z" transform="translate(-351.595 -1101.274)" fill="#b64c41"/>
        <g id="Group_7753" data-name="Group 7753" transform="translate(23.593 48.382)">
          <path id="Path_16012" data-name="Path 16012" d="M367.605,1122.019a8.118,8.118,0,0,0,1.215-.105l-.017-.1c-.585.1-2.143.251-2.318-.239a2.549,2.549,0,0,1,.1-1.09,11.006,11.006,0,0,0,.134-4.261c-.254-1.522-.065-1.983.138-2.1s.5.1.5.105l.063-.079c-.014-.011-.344-.272-.615-.114-.335.2-.4.938-.187,2.206a10.918,10.918,0,0,1-.133,4.225,2.562,2.562,0,0,0-.092,1.144C366.505,1121.933,367.057,1122.019,367.605,1122.019Z" transform="translate(-366.352 -1113.984)" fill="#b64c41"/>
        </g>
      </g>
      <g id="Group_7762" data-name="Group 7762" transform="translate(389.001 628.054)">
        <g id="Group_7755" data-name="Group 7755" transform="translate(0 70.951)">
          <path id="Path_16013" data-name="Path 16013" d="M1243.415,1587.159s-2.148,1.991-1.729,3.405,2.358,2.357,2.62,4.086,1.31,2.672,2.253,2.672h4.5s.694-1.217-.982-1.583-2.309-2.4-2.2-4.284a33.756,33.756,0,0,0-.157-4.4l-3.562-.838Z" transform="translate(-1241.632 -1524.346)" fill="#2c3a64"/>
          <path id="Path_16014" data-name="Path 16014" d="M1413.238,1620.847a.71.71,0,0,0,.141.048H1425.4a2.056,2.056,0,0,0-1.9-1.463c-1.878-.3-5.132-1.4-5.858-3.8-.023-.078-.044-.157-.062-.237-.577-2.567-4.767.786-4.767.786s-.013.1-.031.276C1412.691,1617.4,1412.443,1620.449,1413.238,1620.847Z" transform="translate(-1384.685 -1547.944)" fill="#2c3a64"/>
          <path id="Path_16015" data-name="Path 16015" d="M1384.925,1228.439s-.637,7.941-1.385,17.488c-1.017,12.968-2.24,28.9-2.36,31.913-.209,5.24-1.048,13.621-1.048,13.621s-1.99,1.991-5.972,1.152a137.1,137.1,0,0,1-4.562-24.624c-.016-.208-.032-.417-.047-.626-.943-12.887-2.409-40.024-2.409-40.024Z" transform="translate(-1346.602 -1224.196)" fill="#35488b"/>
          <path id="Path_16016" data-name="Path 16016" d="M1384.925,1228.439s-.637,7.941-1.385,17.488l-13.943,22.063c-.016-.208-.032-.417-.047-.626-.943-12.887-2.409-40.024-2.409-40.024Z" transform="translate(-1346.602 -1224.196)" fill="#2c3a64"/>
          <path id="Path_16017" data-name="Path 16017" d="M1286.161,1213.316s-11.473,28.761-19.016,42.277-9.9,17.288-9.9,17.288-4.322-1.729-4.715-2.907c0,0,2.885-26.093,7.937-32.454,2.855-3.594,6.208-14.38,6.365-18.152s1.022-11.237,1.022-11.237Z" transform="translate(-1250.745 -1208.13)" fill="#35488b"/>
        </g>
        <g id="Group_7761" data-name="Group 7761" transform="translate(4.676 0)">
          <path id="Path_16018" data-name="Path 16018" d="M1376.923,856.127c-4.275,1.348-11.671-2.292-11.671-2.292a10.9,10.9,0,0,0,3.708-7.695c.006-.071.01-.143.014-.215.022-.385.027-.785.014-1.2l1.17.942,4.379,3.531s-.224,1.741-.315,4.642a9.136,9.136,0,0,1,1.671,1.175A6.7,6.7,0,0,1,1376.923,856.127Z" transform="translate(-1349.699 -833.242)" fill="#f4ac75"/>
          <path id="Path_16019" data-name="Path 16019" d="M1336.26,895.4s11.3-1.782,18.743,3.145c0,0,5.057,33.061.654,36.189s-19.4,0-19.4,0Z" transform="translate(-1325.451 -875.363)" fill="#f4ac75"/>
          <path id="Path_16020" data-name="Path 16020" d="M1324.046,967.664h-20.418s2.373-34.839,3.05-43.32c.55-6.879,1.714-23.372,2.134-29.36l.155-2.221,4.874-.83,8.372,10.85s1.324,28.937,1.276,33.5.529,22.331.556,25.319S1324.046,967.664,1324.046,967.664Z" transform="translate(-1298.159 -872.724)" fill="#e9f2ff"/>
          <path id="Path_16021" data-name="Path 16021" d="M1417.21,909.887l1.831,64.881h9.62s-.445-42.672-.478-46.593,1.045-20.81-1.957-23.431c-2.509-2.191-8.548-4.318-8.548-4.318Z" transform="translate(-1393.154 -879.827)" fill="#e9f2ff"/>
          <path id="Path_16022" data-name="Path 16022" d="M1417.74,891.277s2.742,1.89,2.639,2.568a12.738,12.738,0,0,1-.479,1.751l-1.678-.341,1.416,1a49.507,49.507,0,0,1-2.428,5.984Z" transform="translate(-1393.154 -872.175)" fill="#e9f2ff"/>
          <path id="Path_16023" data-name="Path 16023" d="M1307.663,996.972c1.2-7.38,15.075,3.525,13.922,13.2-2.134,17.907-11.22,37.872-17.956,43.308Z" transform="translate(-1298.159 -958.544)" fill="#b2cbfd" opacity="0.2"/>
          <path id="Path_16024" data-name="Path 16024" d="M1387.6,850.957a.517.517,0,0,0-.062-.2l.075-.017,1.184-.257,4.379,3.531s-.189,1.644-.325,4.649A11.3,11.3,0,0,1,1387.6,850.957Z" transform="translate(-1368.336 -838.058)" fill="#c97c47"/>
          <path id="Path_16025" data-name="Path 16025" d="M1394.96,812.2s-7.625-.213-7.419-4.959-.639-7.97,4.238-8.035,5.743,1.788,6.06,3.389S1396.948,812.132,1394.96,812.2Z" transform="translate(-1368.337 -795.168)" fill="#f4ac75"/>
          <path id="Path_16026" data-name="Path 16026" d="M1375.43,787.246a1.759,1.759,0,0,0,1.779-.786c.786-1.049,2.1-5.085,3.827-5.347s4.01,1.022,4.746.288c1.072-1.07,2.455-2.82,2.455-2.82s-8.581-6.118-12.006-3.287S1371.607,782.266,1375.43,787.246Z" transform="translate(-1356.23 -774.546)" fill="#2c3a64"/>
          <g id="Group_7756" data-name="Group 7756" transform="translate(27.719 21.876)">
            <path id="Path_16027" data-name="Path 16027" d="M1441.373,916a39.294,39.294,0,0,0-1.779-7.775l.457.2a41.734,41.734,0,0,1,1.5,7.565Z" transform="translate(-1439.594 -908.228)" fill="#2c3a64"/>
          </g>
          <g id="Group_7757" data-name="Group 7757" transform="translate(15.027 29.853)">
            <path id="Path_16028" data-name="Path 16028" d="M1365.4,965.551c-.161-.167-4.086-3.942-3.249-6.587a2.638,2.638,0,0,1,1.564-1.736,3.76,3.76,0,0,1,2.7.009c1.308.823,1.967,3.1,2.161,6.878l-.159.008c-.23-4.485-1.386-6.109-2.25-6.476a2.669,2.669,0,0,0-3.591,1.468c-.413,1.2.4,2.87,1.149,4.019.835,1.276,1.745,2.407,1.754,2.417Z" transform="translate(-1362.038 -956.976)" fill="#2c3a64"/>
          </g>
          <path id="Path_16029" data-name="Path 16029" d="M1380.354,1007.126h0a.388.388,0,0,1-.547,0l-.269-.269a.388.388,0,0,1,0-.547h0a.388.388,0,0,1,.547,0l.269.269A.388.388,0,0,1,1380.354,1007.126Z" transform="translate(-1361.553 -968.29)" fill="#b64c41"/>
          <path id="Path_16030" data-name="Path 16030" d="M1399.628,999.119h0a.388.388,0,0,1-.387-.387v-.38a.388.388,0,0,1,.387-.387h0a.388.388,0,0,1,.386.387v.38A.388.388,0,0,1,1399.628,999.119Z" transform="translate(-1378.126 -961.406)" fill="#b64c41"/>
          <path id="Path_16031" data-name="Path 16031" d="M1444.39,950.381a1.048,1.048,0,1,1,1.048,1.048A1.048,1.048,0,0,1,1444.39,950.381Z" transform="translate(-1415.886 -920.731)" fill="#2c3a64"/>
          <path id="Path_16032" data-name="Path 16032" d="M1447.78,953.016a.533.533,0,1,1,.533.533A.533.533,0,0,1,1447.78,953.016Z" transform="translate(-1418.722 -923.365)" fill="#d6716b"/>
          <g id="Group_7758" data-name="Group 7758" transform="translate(24.005 30.047)">
            <path id="Path_16033" data-name="Path 16033" d="M1417.7,1023.057a107.227,107.227,0,0,1-.477-12.281c.08-2.4.012-5.221-.053-7.95a81.854,81.854,0,0,1,.011-10.084c.538-4.182.431-23.193.21-25.254a16.4,16.4,0,0,1,.19-4.877c.2-.677-.667-4.384-.677-4.422l.1-.026c.04.155.979,3.806.767,4.511a15.277,15.277,0,0,0-.278,4.8c.221,2.062.644,21.07.105,25.256a74.1,74.1,0,0,0-.326,10.09c.066,2.73.134,5.553.053,7.956a80.932,80.932,0,0,0,.78,12.277Z" transform="translate(-1416.9 -958.163)" fill="#b2cbfd"/>
          </g>
          <path id="Path_16034" data-name="Path 16034" d="M1509.1,1035.8s2.583,4.447-.125,5.617-3-.063-3-.063Z" transform="translate(-1467.394 -993.049)" fill="#e9f2ff"/>
          <path id="Path_16035" data-name="Path 16035" d="M1290.267,917.3a3.752,3.752,0,0,1,.364,1.59,10.834,10.834,0,0,1-.417,1.974s-15.949,3.4-19.048.557c-3.328-3.047,2.846-25.94,5.489-28.179,1.139-.966,3.54-1.555,5.756-1.907,1.221-.2,2.386-.318,3.253-.392.893-.078,1.472-.1,1.472-.1l-.36,1.329-1.4,5.169-1.63,6.029s-4.875,10.035-5.033,10.978S1290.267,917.3,1290.267,917.3Z" transform="translate(-1270.205 -871.813)" fill="#e9f2ff"/>
          <path id="Path_16036" data-name="Path 16036" d="M1354.87,900.795s-4.067-1.771-6.99-3.384c-1.909-1.054-2.885-3.026-3.086-5.547,1.221-.195,2.386-.318,3.253-.392.141.045.224.075.224.075l.888,1.151Z" transform="translate(-1332.588 -872.338)" fill="#b2cbfd" opacity="0.2"/>
          <path id="Path_16037" data-name="Path 16037" d="M1368.7,896.5l-6.335-12.081a9,9,0,0,0-3.156,1.223,36.287,36.287,0,0,0,.718,4.437,5.937,5.937,0,0,1,1.4-.035,7.029,7.029,0,0,1-.769,1.013S1366.064,893.624,1368.7,896.5Z" transform="translate(-1344.646 -866.439)" fill="#e9f2ff"/>
          <g id="Group_7759" data-name="Group 7759" transform="translate(13.292 19.301)">
            <path id="Path_16038" data-name="Path 16038" d="M1354.868,903.716c-.433-.956-4.248-9.1-3.276-11.177l.373-.046c-.736,1.571,1.909,8.653,3.057,11.191Z" transform="translate(-1351.433 -892.493)" fill="#2c3a64"/>
          </g>
          <path id="Path_16039" data-name="Path 16039" d="M1423.8,1001.583a.509.509,0,1,1,.509.509A.508.508,0,0,1,1423.8,1001.583Z" transform="translate(-1398.662 -964.005)" fill="#b2cbfd" opacity="0.5"/>
          <path id="Path_16040" data-name="Path 16040" d="M1423.8,1175.681a.509.509,0,1,1,.509.509A.508.508,0,0,1,1423.8,1175.681Z" transform="translate(-1398.662 -1109.615)" fill="#b2cbfd" opacity="0.5"/>
          <path id="Path_16041" data-name="Path 16041" d="M1425.364,1096.116a.509.509,0,1,1,.509.509A.509.509,0,0,1,1425.364,1096.116Z" transform="translate(-1399.974 -1043.069)" fill="#b2cbfd" opacity="0.5"/>
          <path id="Path_16042" data-name="Path 16042" d="M1425.364,1251.327a.509.509,0,1,1,.509.509A.509.509,0,0,1,1425.364,1251.327Z" transform="translate(-1399.974 -1172.881)" fill="#b2cbfd" opacity="0.5"/>
          <path id="Path_16043" data-name="Path 16043" d="M1390.983,908.228a7.857,7.857,0,0,0,4.612.331l-.32,7.854Z" transform="translate(-1371.219 -886.352)" fill="#7a97f3"/>
          <g id="Group_7760" data-name="Group 7760" transform="translate(21.697 28.724)">
            <path id="Path_16044" data-name="Path 16044" d="M1412.548,965.009l16.5,1.478-10.065,17.88-15.526-.892Z" transform="translate(-1403.344 -962.566)" fill="#35488b"/>
            <path id="Path_16045" data-name="Path 16045" d="M1468.326,952.437s.007-2.527,1.4-2.353,1.819,2.714,1.819,2.714Z" transform="translate(-1457.602 -950.076)" fill="#b2cbfd"/>
            <path id="Path_16046" data-name="Path 16046" d="M1428.386,965.108l-16.5-1.478-9.1,18.466.111.229,9.1-18.466,16.5,1.478Z" transform="translate(-1402.794 -961.412)" fill="#7a97f3"/>
            <path id="Path_16047" data-name="Path 16047" d="M1476.906,950.129s2.331,1.144,1.507,4.811-1.85,5.678-1.252,7.847l11.112,1.02a7.851,7.851,0,0,1,.134-5.8c1.341-2.918.388-6.254-.843-6.544Z" transform="translate(-1464.778 -950.12)" fill="#e9f2ff"/>
          </g>
          <path id="Path_16048" data-name="Path 16048" d="M1503.728,1037.339s-1.689-2.03-1.34-3.5,1.608-1.807,2.376-1.288,1.887,1.708,1.677,2.616S1504.578,1037.76,1503.728,1037.339Z" transform="translate(-1464.354 -990.141)" fill="#f4ac75"/>
          <path id="Path_16049" data-name="Path 16049" d="M1384.954,1050.686s2.862-1.258,4.173-.891,3.078.629,3.217,1.1-.943,2.219-2.552,2.307-4.44.839-5.121,0S1384.954,1050.686,1384.954,1050.686Z" transform="translate(-1365.735 -1004.698)" fill="#f4ac75"/>
        </g>
      </g>
      <path id="Path_16051" data-name="Path 16051" d="M1111.776,821.232h0a1,1,0,0,0,1-1v-11.41a1,1,0,0,0-1-1h0a1,1,0,0,0-1,1v11.41A1,1,0,0,0,1111.776,821.232Z" transform="translate(-743.188 -174.323)" fill="#466aa5"/>
      <path id="Path_16052" data-name="Path 16052" d="M1111.776,1421.541h0a1,1,0,0,0,1-1v-11.409a1,1,0,0,0-1-1h0a1,1,0,0,0-1,1v11.409A1,1,0,0,0,1111.776,1421.541Z" transform="translate(-743.188 -676.397)" fill="#466aa5"/>
      <circle id="Ellipse_1641" data-name="Ellipse 1641" cx="3.061" cy="3.061" r="3.061" transform="translate(445.572 674.471)" fill="#699ff0"/>
      <circle id="Ellipse_1642" data-name="Ellipse 1642" cx="3.061" cy="3.061" r="3.061" transform="translate(445.106 703.413) rotate(-9.217)" fill="#699ff0"/>
      <path id="Path_16053" data-name="Path 16053" d="M1599.846,1102.108h0a1.194,1.194,0,0,0,1.194-1.194V1074.4a1.194,1.194,0,0,0-1.194-1.194h0a1.194,1.194,0,0,0-1.194,1.194v26.512A1.194,1.194,0,0,0,1599.846,1102.108Z" transform="translate(-1151.229 -396.281)" fill="#466aa5"/>
    </g>
  </g>
</svg>
