<svg xmlns="http://www.w3.org/2000/svg" xmlns:xlink="http://www.w3.org/1999/xlink" width="1282" height="620.607" viewBox="0 0 1282 620.607">
  <defs>
    <linearGradient id="linear-gradient" x1="0.143" y1="1.002" x2="0.789" y2="0.301" gradientUnits="objectBoundingBox">
      <stop offset="0" stop-color="#ebf6ff"/>
      <stop offset="1" stop-color="#ebf6ff"/>
    </linearGradient>
  </defs>
  <g id="Group_7363" data-name="Group 7363" transform="translate(-249 -363)">
    <g id="Group_7362" data-name="Group 7362" transform="translate(-20)">
      <path id="Path_15148" data-name="Path 15148" d="M168.482,596.93c158.692,58.913,289.149-39.456,431.986-212.052S930.152,509.61,1051.9,396.353c61.269-66.078,51.692-217.009-62.239-303.08C834.806-23.718,502.706-9.436,291.229,22.864,173.862,45.8,58.82,148.084,23.958,232.55-60.042,436.07,98.353,570.9,168.482,596.93Z" transform="translate(1543.731 977.071) rotate(-180)" fill="url(#linear-gradient)"/>
      <g id="Group_7233" data-name="Group 7233" transform="translate(546.121 407.763)">
        <path id="Path_15056" data-name="Path 15056" d="M1660.906,1708.56c-98.977-3.732-435.68,2.59-538.081,5.056s-221.267-3.253-283.011-11.66-418.647.715-402.451,23.321,159.016,10.113,320.978,19.2,526.215-1.136,608.379,0,157.508-2.271,263.393-6.814S1718.277,1710.723,1660.906,1708.56Z" transform="translate(-713.949 -1172.428)" fill="#cce2ff"/>
        <rect id="Rectangle_539" data-name="Rectangle 539" width="211.22" height="7.871" rx="3.935" transform="translate(559.616 403.699)" fill="#2e5b9a"/>
        <g id="Group_7229" data-name="Group 7229" transform="translate(643.057 269.214)">
          <path id="Path_15114" data-name="Path 15114" d="M2520.348,792.656c2.8,9.875-4.04,20.051-11.576,22.188s-12.913-4.572-15.714-14.447,1.037-19.613,8.573-21.75S2517.547,782.782,2520.348,792.656Z" transform="translate(-2341.591 -763.656)" fill="#f09959"/>
          <path id="Path_15115" data-name="Path 15115" d="M2416.93,1536.709s19.313,30,21.922,31.3,9.129,1.63,6.684,6.521-3.424,24.129-5.706,25.107-21.846,3.261-18.912,0,4.74-1.63,6.22-7.5,3.562-16.955.791-19.238-19.727-22.824-19.727-22.824Z" transform="translate(-2280.425 -1316.36)" fill="#f09959"/>
          <path id="Path_15116" data-name="Path 15116" d="M1976.518,1584.192s-23.478,38.694-27.825,42.172-18.7,8.7-6.956,9.565,17.39-3.913,24.781-6.087,16.521-3.478,13.043-9.13-2.033-17.991,5.464-25.816S1976.518,1584.192,1976.518,1584.192Z" transform="translate(-1937.219 -1350.961)" fill="#f09959"/>
          <path id="Path_15117" data-name="Path 15117" d="M2175.1,1253.385s-58.118-1.52-81.16,17.391c-13.478,20.434-46.083,80.725-48.617,87.369,1.739,1.74,11.522,4.877,15.869,4.442,12.826-15.293,29.778-28.514,36.521-40.509,8.309-14.782,10.869-22.173,24.346-23.478s43.912-5.652,53.042-5.652S2175.1,1253.385,2175.1,1253.385Z" transform="translate(-2015.995 -1109.88)" fill="#6791c9"/>
          <path id="Path_15118" data-name="Path 15118" d="M2643.628,1530.467h-3.046l-21.846-91.145h6.7Z" transform="translate(-2433.841 -1245.394)" fill="#2e5b9a"/>
          <path id="Path_15119" data-name="Path 15119" d="M2374.111,1521.812h3.047l25.067-94.367h-6.7Z" transform="translate(-2255.583 -1236.74)" fill="#2e5b9a"/>
          <path id="Path_15120" data-name="Path 15120" d="M2338.8,1238.789l-33.789,5.832s-44.9.413-65.427,4.235c-18.673,3.478-21.425,24.7,0,53.911,12.17,16.6,22.46,29.835,43.5,44.762,5.353-3.93,7.4-5.417,8.88-14.873-1.523-2.088-5.465-15.158-6.689-17.716-11.639-24.331-27.176-33.179-27.391-35.573,2.609-4.239,69.1,22.095,82.315,6.6C2352.821,1271.183,2338.8,1238.789,2338.8,1238.789Z" transform="translate(-2146.579 -1099.266)" fill="#75a1de"/>
          <path id="Path_15121" data-name="Path 15121" d="M2535.092,955.795a35.357,35.357,0,0,0-26.439,6.579c-7.407,7.55-15.788,20-15.275,40.541.652,26.085-4.036,27.76.854,34.933,20.4,8.424,55.287,44.616,47.071,5.815-5.949-28.1,13.048-49.037-2.277-80.2C2537.779,960.925,2536.22,958.465,2535.092,955.795Z" transform="translate(-2341.472 -892.767)" fill="#f37168"/>
          <path id="Path_15122" data-name="Path 15122" d="M2493.375,1030.234c-.4,13.6-2.317,17.605-.849,21.868,8.316.849,23.528,4.177,27.329,9.5,4.348,6.086,8.7,6.956,6.667,2.463s-7.391-10.869.869-32.752,12.174-36.665,4.058-51.882Z" transform="translate(-2341.475 -910.271)" fill="#d54a41"/>
          <path id="Path_15123" data-name="Path 15123" d="M2579.88,882.836c-5.48-12.972-6.826-27.547-6.826-27.547l-14.347,4.239s8.151,18.259.326,24.78a74.676,74.676,0,0,0-5.593,5.107A35.357,35.357,0,0,1,2579.88,882.836Z" transform="translate(-2386.26 -819.809)" fill="#f09959"/>
          <path id="Path_15124" data-name="Path 15124" d="M2587.692,860.8c-.85-.756-1.914-1.7-3.031-2.687l-11.7,3.457-.025.064a47.771,47.771,0,0,1,3.656,14.291c3.487-2.116,7.306-5.565,11.671-11.591C2588.025,863,2587.837,861.81,2587.692,860.8Z" transform="translate(-2400.465 -821.871)" fill="#e38540"/>
          <path id="Path_15125" data-name="Path 15125" d="M2379.611,970.763c-14.776,5.168-13.137,20.734-26.737,43.692-7.038,11.881-13.574,11.7-13.574,11.7a314.847,314.847,0,0,1-36.47-2.309c-12.5-1.529-13.295,2.193-4.6,5.3,17.535,6.27,35.733,13.018,50.406,11.388s39.768-39.067,41.062-48.812C2391.487,978.25,2387.053,968.161,2379.611,970.763Z" transform="translate(-2196.077 -903.656)" fill="#f09959"/>
          <g id="Group_7225" data-name="Group 7225" transform="translate(123.979 99.267)">
            <path id="Path_15126" data-name="Path 15126" d="M2446.145,1188.866c-.919,0-1.859-.012-2.824-.036a140.55,140.55,0,0,1-26.826-3.3c-7.691-1.563-11.927-2.424-16.858-.068a3.8,3.8,0,0,1-3.275-6.854c7.226-3.453,13.275-2.224,21.645-.522a133.822,133.822,0,0,0,25.5,3.152c12.729.317,20.49-1.571,24.424-5.933,3.5-3.886,4.53-10.417,3.227-20.552-.446-3.469-.892-6.353-1.286-8.9-1.11-7.18-1.844-11.924-.935-19.258.843-6.81,3.1-15.881,8.321-33.47a3.8,3.8,0,1,1,7.282,2.162c-9.732,32.777-9.238,35.969-7.161,49.4.4,2.59.854,5.526,1.313,9.091,1.606,12.5-.02,20.952-5.12,26.608C2468.322,1186.213,2459.8,1188.866,2446.145,1188.866Z" transform="translate(-2394.199 -1090.406)" fill="#2e5b9a"/>
          </g>
          <path id="Path_15127" data-name="Path 15127" d="M1978.114,1704.4c-15.578,7.619-23.962,11.985-28.956,11.568-1.179-.1-2.156-.219-2.976-.346-5.555,3.283-14.423,7.163-4.445,7.9,11.739.869,17.391-3.913,24.782-6.087s16.521-3.478,13.043-9.13A11.9,11.9,0,0,1,1978.114,1704.4Z" transform="translate(-1937.219 -1438.557)" fill="#d54a41"/>
          <path id="Path_15128" data-name="Path 15128" d="M2473.9,1654.431c-.381,12.334-2.076,24.556-9.619,26.864a12.676,12.676,0,0,1-5.435.485c-1.187,1.467-2.634,1.483-4.577,3.642-2.934,3.26,16.629.978,18.912,0s3.261-20.216,5.706-25.107C2480.9,1656.3,2476.855,1655.361,2473.9,1654.431Z" transform="translate(-2313.776 -1402.144)" fill="#d54a41"/>
          <g id="Group_7226" data-name="Group 7226" transform="translate(26.834 84.925)">
            <path id="Path_15129" data-name="Path 15129" d="M2109.417,1088.181h-49.489a3.8,3.8,0,0,1-3.445-2.2l-20-43.042a3.8,3.8,0,1,1,6.889-3.2l18.978,40.844h47.066a3.8,3.8,0,0,1,0,7.6Z" transform="translate(-2036.13 -1037.542)" fill="#75a1de"/>
          </g>
          <path id="Path_15130" data-name="Path 15130" d="M2226.232,1154.835c-10-.145-19.917-6.105-24.845-5.236s-21.013,12.028-18.985,12.463,14.782-6.176,15.217-6.276,3.188,4.578,10,6.3.048-5.1,21.162,1.272C2242.509,1167.5,2226.232,1154.835,2226.232,1154.835Z" transform="translate(-2115.756 -1034.21)" fill="#f09959"/>
          <path id="Path_15131" data-name="Path 15131" d="M2554.553,913.192l1.472,11.838s-12.94.77-19.379,4.393-15.942,14.091-15.942,14.091l7.763-13.366,1.118-8.551Z" transform="translate(-2362.405 -862.003)" fill="#f2e5de"/>
          <path id="Path_15132" data-name="Path 15132" d="M2422.718,965.974c-9.611-1.8-14.058,6.811-20.289,20.869s-16.87,31.131-18.985,33.332-35.651,0-35.651,0-1.014,9.71,0,10.869,6.812,1.014,6.812,1.014,2.318,1.852,4.493,3.317,20.578,4.219,29.129,3.784,16.376-1.159,17.535-2.464,24.492-37.245,25.941-50.143S2427.623,966.893,2422.718,965.974Z" transform="translate(-2236.075 -900.292)" fill="#f2e5de"/>
          <path id="Path_15133" data-name="Path 15133" d="M2479.1,731.065c-18.178.869-15.326,28.215-15.326,28.215s4.72,1.458,14.612-.173c-.76-2.935-.435-10.434-.435-10.434a68.387,68.387,0,0,0,2.608,9.783c2.091.959,4.456.109,8.479-.863,2.065,8.689,7.9,12.36,11.9,13.616,4.415,1.388,9.088,3.043,14.3.435s2.349-29.274-.422-34.636c-4.158-8.049-11.069-15.253-23.026-11.449A88.827,88.827,0,0,0,2479.1,731.065Z" transform="translate(-2320.802 -724.512)" fill="#303c60"/>
          <path id="Path_15134" data-name="Path 15134" d="M2637.22,863.12l7.431,10.855s-8.236,20.579,15.719,29.9c18.76,7.3,16.55,20.167,8.073,33.106s5.072,24.237,5.072,24.237,2.066-14.333,20.294-17.038c24.854-3.689,31.891-37.058,13.328-53.743-15.362-13.807-20.036-2.373-30.434-14.763s-30.028-4.021-30.028-4.021l-7.195-10.492Z" transform="translate(-2447.31 -824.09)" fill="#303c60"/>
          <g id="Group_7227" data-name="Group 7227" transform="translate(198.705 42.837)">
            <path id="Path_15135" data-name="Path 15135" d="M2739.309,939.536a.661.661,0,0,1-.579-.979c6.25-11.421,1.15-25.258-1.414-29.006-.272-.4-.53-.8-.8-1.226-2.52-3.934-5.656-8.829-22.391-11.842-4.031-.726-7.294-3.121-10.749-5.657-7.136-5.239-15.224-11.177-32.8-3.088a.661.661,0,1,1-.552-1.2c18.28-8.414,26.7-2.232,34.133,3.223,3.328,2.443,6.471,4.751,10.2,5.422,17.3,3.115,20.611,8.28,23.27,12.43.268.417.52.812.781,1.193,2.687,3.927,8.03,18.424,1.483,30.387A.66.66,0,0,1,2739.309,939.536Z" transform="translate(-2669.637 -882.409)" fill="#303c60"/>
          </g>
          <g id="Group_7228" data-name="Group 7228" transform="translate(166.52 24.298)">
            <path id="Path_15136" data-name="Path 15136" d="M2570.427,839.927a26.19,26.19,0,0,1-3.861-.311c-6.359-.953-14.891-4.567-15.56-24.862a.661.661,0,0,1,1.321-.043c.276,8.366,1.935,14.555,4.932,18.4a13.865,13.865,0,0,0,9.5,5.2c5.885.881,9.786-.205,11.594-3.23a.661.661,0,1,1,1.135.678C2577.834,838.531,2574.792,839.927,2570.427,839.927Z" transform="translate(-2551.005 -814.072)" fill="#303c60"/>
          </g>
        </g>
        <path id="Path_15137" data-name="Path 15137" d="M1711.333,1385.2h4.884l19-145.227h-10.744Z" transform="translate(-1129.558 -830.917)" fill="#2e5b9a"/>
        <path id="Path_15138" data-name="Path 15138" d="M2258.036,1385.2h-4.884l-19-145.227H2244.9Z" transform="translate(-1510.538 -830.917)" fill="#2e5b9a"/>
        <g id="Group_7230" data-name="Group 7230" transform="translate(879.998 397.87)">
          <path id="Path_15139" data-name="Path 15139" d="M3004.455,1323.431c8.449,7.715,4.776,15.43-1.47,29.757s-7.347,67.23-7.347,67.23l5.143-.735s-.735-54.372,6.246-69.067,9.919-22.043,16.165-17.267S3004.455,1323.431,3004.455,1323.431Z" transform="translate(-2945.429 -1289.601)" fill="#74b570"/>
          <path id="Path_15140" data-name="Path 15140" d="M3009.8,1222.574c1.026-4.572,7.12-9.52,15.27-13.716-1.212,6.744-5.1,17.769-1.076,20.031,5.422,3.05.529-12.344,2.621-20.805a100.681,100.681,0,0,1,25.334-8.31c-.012.031-.021.061-.034.093-4.775,12.124-11.021,16.9-8.449,18.737,1.935,1.381,8.237-12.623,16.558-19.8,6.246-.333,11.531.514,14.656,2.989,4.832,3.825,8.075,7.218,3.215,18.866a21.834,21.834,0,0,1-10.55,3.824c-11.021,1.1-16.165,1.47-8.45,5.144,3.778,1.8,10.11-.1,15.245-1.26-1.666,3.069-3.713,6.543-6.2,10.5a39.011,39.011,0,0,1-5.163,6.572c-3.552.681-6.649.688-8.289-.015-5.144-2.2-18.369-9.184-21.675-6.245-3.236,2.876,24.494,4.7,22.572,12.008-13.441,7.744-28.821,4.059-31.54-3.052C3020.194,1238.583,3006.712,1236.337,3009.8,1222.574Z" transform="translate(-2955.418 -1198.733)" fill="#9cd499"/>
          <path id="Path_15141" data-name="Path 15141" d="M3001.756,1466.527c-14.7-11.021-29.758-.735-37.473,11.021s-2.2,38.207-2.2,38.207,2.939,0,2.939-1.1-8.083-31.227,11.021-44.82c11.951-8.5,20.573-4.408,21.676-.368s-4.776,11.389-4.776,11.389Z" transform="translate(-2919.585 -1390.448)" fill="#74b570"/>
          <path id="Path_15142" data-name="Path 15142" d="M2987.112,1395.649c14.695,0,19.471,22.778,15.429,36s-9.551,37.84-9.551,37.84l-3.674-3.674s13.96-34.533,10.654-49.963-11.389-18-12.858-18S2987.112,1395.649,2987.112,1395.649Z" transform="translate(-2938.74 -1342.226)" fill="#9cd499"/>
          <path id="Path_15143" data-name="Path 15143" d="M3024.391,1520a10.65,10.65,0,0,1,3.869-3.251,29.107,29.107,0,0,1-.764,3.148c-1.841,6.026-3.987,14.415-5.779,21.764-.163-.941-.414-2.391-.8-4.629-.091-.529-.164-1.1-.213-1.709A142.458,142.458,0,0,0,3024.391,1520Z" transform="translate(-2963.695 -1430.473)" fill="#74b570"/>
          <path id="Path_15144" data-name="Path 15144" d="M3028.7,1473.5c27.921-11.756,13.211-27.888,37.825-17.234,1.734.75,3.847,2.643,5.963,5.252a18.334,18.334,0,0,1-7.8.626c-7.347-1.1-4.775,4.776,7.347,6.245a27.213,27.213,0,0,1,5.681,1.2c5.776,11.093,8.379,25.689-3.844,30.763a27.666,27.666,0,0,1-8.7,1.785c-3.771-3,.921-20.344-4.894-17.95-5.583,2.3,1.75,14.871.744,18.038a80.51,80.51,0,0,1-17.441-2.445c-2.307-1.293-4.068-3.027-4.611-5.306-1.837-7.715,10.287-12.49,10.654-19.1.338-6.079-4.444,13.375-17.111,16.238C3021.058,1486.26,3015.646,1479,3028.7,1473.5Z" transform="translate(-2963.983 -1383.864)" fill="#9cd499"/>
          <path id="Path_15145" data-name="Path 15145" d="M2855.391,1380.989c2.939-6.245-4.776-7.715-4.409-2.939.326,4.232.362,14.519-3.979,17.32a68.105,68.105,0,0,1-25.368-8.425,3.118,3.118,0,0,1,.324-1.915c3.306-6.613,24.614-12.124,18-14.328-5.266-1.756-14.494,8.606-21.931,13.826-4.467-3.388-7.459-7.428-7.459-11.937,0-6.1,7.416-13.012,17.006-16.314,4.316.435,8.326,2.795,14.588,6.344,9.251,5.242,7.112-3.233-1.634-8.264a26.347,26.347,0,0,1,20.632,11.325s-.525,3.295,2.961,8.39c9.512,13.9-1.465,22.019-14.588,21.492C2850.278,1391.9,2853.361,1385.3,2855.391,1380.989Z" transform="translate(-2810.571 -1312.135)" fill="#9cd499"/>
          <path id="Path_15146" data-name="Path 15146" d="M3101.361,1476.609c7.184,5.552,15.165,12.043,24.962,16.451s7.838,18.778,7.838,18.778,1.469-12.41-6.695-16.655-13.553-9.307-19.758-10.287a89.963,89.963,0,0,1-9.634-1.959s1.96-3.919.817-5.389S3101.361,1476.609,3101.361,1476.609Z" transform="translate(-3020.075 -1401.153)" fill="#74b570"/>
          <path id="Path_15147" data-name="Path 15147" d="M3099.057,1236.565c-26.289,7.021-45.557,23.839-49.149,27.922s-3.593,5.225-3.593,5.225l2.776,5.225,1.306-.653s-2.123-4.409,3.429-10.124c9.574-9.856,21.228-17.635,29.229-21.064S3099.057,1236.565,3099.057,1236.565Z" transform="translate(-2982.357 -1226.301)" fill="#74b570"/>
          <path id="Rectangle_540" data-name="Rectangle 540" d="M17.954,0h0A17.954,17.954,0,0,1,35.907,17.954V36.008a0,0,0,0,1,0,0H0a0,0,0,0,1,0,0V17.954A17.954,17.954,0,0,1,17.954,0Z" transform="translate(67.108 155.779) rotate(180)" fill="#75a1de"/>
          <rect id="Rectangle_541" data-name="Rectangle 541" width="35.907" height="2.528" transform="translate(31.2 123.896)" fill="#fff"/>
          <rect id="Rectangle_542" data-name="Rectangle 542" width="35.907" height="1.487" transform="translate(31.2 128.505)" fill="#fff"/>
        </g>
      </g>
    </g>
    <g id="Group_7289" data-name="Group 7289" transform="translate(-26)">
      <g id="Group_7241" data-name="Group 7241" transform="translate(845.033 921.886)">
        <rect id="Rectangle_551" data-name="Rectangle 551" width="83.237" height="42.276" transform="translate(0)" fill="#e6a352"/>
        <rect id="Rectangle_552" data-name="Rectangle 552" width="56.409" height="42.276" transform="translate(0)" fill="#f0b873"/>
        <rect id="Rectangle_553" data-name="Rectangle 553" width="4.421" height="16.004" transform="translate(67.233 23.337) rotate(-90)" fill="#dac4ae"/>
        <path id="Path_15151" data-name="Path 15151" d="M1247.451,1609.626v.9l27.427,24.631,28.982-24.594v-.939Z" transform="translate(-1247.451 -1609.626)" fill="#d49b59"/>
        <path id="Path_15152" data-name="Path 15152" d="M1247.451,1609.626l27.427,23.876,28.983-23.876Z" transform="translate(-1247.451 -1609.626)" fill="#f0b873"/>
        <path id="Path_15153" data-name="Path 15153" d="M1247.451,1730.111v-.972l27.427-24.623,28.983,24.59v1.006Z" transform="translate(-1247.451 -1687.835)" fill="#d49b59"/>
        <path id="Path_15154" data-name="Path 15154" d="M1247.451,1737.883l27.427-23.938,28.983,23.938Z" transform="translate(-1247.451 -1695.607)" fill="#f0b873"/>
        <rect id="Rectangle_554" data-name="Rectangle 554" width="5.733" height="25.998" transform="translate(24.457 8.542)" fill="#f7e8d5"/>
      </g>
      <g id="Group_7243" data-name="Group 7243" transform="translate(847.557 853.036)">
        <rect id="Rectangle_555" data-name="Rectangle 555" width="25.264" height="68.845" transform="translate(46.82 0.005)" fill="#d6a664"/>
        <rect id="Rectangle_556" data-name="Rectangle 556" width="40.55" height="68.845" transform="translate(6.27 0.005)" fill="#e6a352"/>
        <rect id="Rectangle_557" data-name="Rectangle 557" width="40.55" height="68.845" transform="translate(6.27 0.005)" fill="#e6b985"/>
        <path id="Path_15155" data-name="Path 15155" d="M1734.638,998.731l4.742,17.989,20.514.1V1013.2Z" transform="translate(-1687.818 -998.726)" fill="#c2965b"/>
        <path id="Path_15156" data-name="Path 15156" d="M1544.494,998.763l-4.992,18.294h-35.557v-2.929Z" transform="translate(-1497.679 -998.752)" fill="#d6a664"/>
        <rect id="Rectangle_558" data-name="Rectangle 558" width="28.814" height="5.802" transform="translate(28.032 28.216)" fill="#dac4ae"/>
        <rect id="Rectangle_559" data-name="Rectangle 559" width="18.788" height="5.802" transform="translate(28.032 28.216)" fill="#f7e8d5"/>
        <rect id="Rectangle_560" data-name="Rectangle 560" width="21.55" height="5.802" transform="translate(33.017 51.01)" fill="#dac4ae"/>
        <rect id="Rectangle_561" data-name="Rectangle 561" width="14.632" height="5.802" transform="translate(32.188 51.01)" fill="#f7e8d5"/>
        <path id="Path_15157" data-name="Path 15157" d="M1474.571,998.731h40.55l-5.259,14.289a1.666,1.666,0,0,1-1.563,1.09h-40Z" transform="translate(-1468.301 -998.726)" fill="#ecc88b"/>
        <path id="Path_15158" data-name="Path 15158" d="M1734.639,998.731l4.923,14.2a1.349,1.349,0,0,0,1.275.907h25.172l-6.106-15.109Z" transform="translate(-1687.819 -998.726)" fill="#deb776"/>
        <path id="Path_15159" data-name="Path 15159" d="M1695.637,1014.111a1.4,1.4,0,0,0,1.306-.915l5.323-14.467h-.538l-6.367,15.382Z" transform="translate(-1655.446 -998.725)" fill="#c2965b"/>
        <path id="Path_15160" data-name="Path 15160" d="M1734.639,998.709l4.942,14.257a1.267,1.267,0,0,0,1.2.852h.4l-6.113-15.114Z" transform="translate(-1687.819 -998.704)" fill="#ecc88b"/>
        <g id="Group_7242" data-name="Group 7242" transform="translate(11.1 37.583)">
          <path id="Path_15161" data-name="Path 15161" d="M1544.331,1219.558l0-.426h-.209l0,.426a3.48,3.48,0,0,0-3.284,3.057s1.5-.365,2.043.457a3.3,3.3,0,0,1,1.255-.392l.015,3.323a4.831,4.831,0,0,1-.009.658c-.048.206-.259.131-.282-.057-.019-.157-.144-.161-.17-.04s.1.452.391.415a.291.291,0,0,0,.282-.288l0-.689-.015-3.334a2.328,2.328,0,0,1,1.365.392s1.249-.865,2-.331A3.433,3.433,0,0,0,1544.331,1219.558Z" transform="translate(-1539.187 -1217.966)" fill="#5b534d"/>
          <path id="Path_15162" data-name="Path 15162" d="M1538.672,1212.5l-4.316.019a2.927,2.927,0,0,0-2.911,2.937l.019,4.316a2.927,2.927,0,0,0,2.936,2.911l4.316-.019a2.927,2.927,0,0,0,2.91-2.937l-.019-4.316A2.927,2.927,0,0,0,1538.672,1212.5Zm2.188,7.23a2.158,2.158,0,0,1-2.147,2.166l-4.316.019a2.159,2.159,0,0,1-2.166-2.147l-.019-4.316a2.159,2.159,0,0,1,2.147-2.166l4.316-.019a2.159,2.159,0,0,1,2.166,2.147Z" transform="translate(-1531.445 -1212.498)" fill="#5b534d"/>
        </g>
      </g>
      <g id="Group_7246" data-name="Group 7246" transform="translate(728.837 878.099)">
        <path id="Path_15163" data-name="Path 15163" d="M388.959,1086.86l5.18-14.091h24.556l-7.357,14.092Z" transform="translate(-347.93 -1072.77)" fill="#d69440"/>
        <path id="Path_15164" data-name="Path 15164" d="M161.989,1088.156h34.6l-5.181-13.814H155.563Z" transform="translate(-155.563 -1074.065)" fill="#e6a352"/>
        <rect id="Rectangle_562" data-name="Rectangle 562" width="34.81" height="67.85" transform="translate(6.426 14.091)" fill="#f0b873"/>
        <rect id="Rectangle_563" data-name="Rectangle 563" width="22.378" height="67.85" transform="translate(41.029 14.091)" fill="#e6a352"/>
        <rect id="Rectangle_564" data-name="Rectangle 564" width="3.73" height="67.85" transform="translate(21.138 14.091)" fill="#f7e8d5"/>
        <rect id="Rectangle_565" data-name="Rectangle 565" width="3.73" height="67.76" transform="translate(54.705 81.85) rotate(180)" fill="#cfb594"/>
        <path id="Path_15165" data-name="Path 15165" d="M449.266,1086.86h-3.73l4.974-14.091h3.937Z" transform="translate(-394.561 -1072.77)" fill="#caac89"/>
        <path id="Path_15166" data-name="Path 15166" d="M250.051,1088.156h3.73l-5.473-13.814h-3.749Z" transform="translate(-228.914 -1074.065)" fill="#d2cbae"/>
        <g id="Group_7244" data-name="Group 7244" transform="translate(29.215 61.55)">
          <path id="Path_15167" data-name="Path 15167" d="M344.572,1430.311l.334-1.168-.3.18-.339-.527a.4.4,0,0,0-.515.042,2.489,2.489,0,0,0-.417.542l.329.506-.315.189Z" transform="translate(-339.541 -1427.696)" fill="#6b574a"/>
          <path id="Path_15168" data-name="Path 15168" d="M335.588,1428.6h-1.279s-.236.083-.487.612a4.68,4.68,0,0,1-.376.7l.779.792a12.175,12.175,0,0,0,.737-1.307A2.143,2.143,0,0,1,335.588,1428.6Z" transform="translate(-331.391 -1427.595)" fill="#6b574a"/>
          <path id="Path_15169" data-name="Path 15169" d="M346.173,1449.311l-.6.026,0-.368-.826.933.835.882,0-.35.627-.023a.4.4,0,0,0,.226-.464A2.5,2.5,0,0,0,346.173,1449.311Z" transform="translate(-340.7 -1444.386)" fill="#6b574a"/>
          <path id="Path_15170" data-name="Path 15170" d="M349.8,1440.592l-1.078.267a12.236,12.236,0,0,0,.75,1.3,2.144,2.144,0,0,1,.364.942l.651-1.1s.048-.246-.279-.731A4.691,4.691,0,0,1,349.8,1440.592Z" transform="translate(-343.98 -1437.482)" fill="#6b574a"/>
          <path id="Path_15171" data-name="Path 15171" d="M327.76,1443.273l.314-.516.307.2-.317-1.2-1.2.206.292.193-.328.534a.4.4,0,0,0,.261.446A2.489,2.489,0,0,0,327.76,1443.273Z" transform="translate(-325.934 -1438.439)" fill="#6b574a"/>
          <path id="Path_15172" data-name="Path 15172" d="M328.642,1450.228a2.142,2.142,0,0,1-.985-.22l.555,1.153s.178.177.762.173a4.688,4.688,0,0,1,.789.037l.377-1.045A12.223,12.223,0,0,0,328.642,1450.228Z" transform="translate(-326.619 -1445.242)" fill="#6b574a"/>
          <path id="Path_15173" data-name="Path 15173" d="M327.025,1422.9h-3.142a2.131,2.131,0,0,0-2.128,2.129v3.142a2.131,2.131,0,0,0,2.128,2.129h3.142a2.131,2.131,0,0,0,2.128-2.129v-3.142A2.131,2.131,0,0,0,327.025,1422.9Zm1.57,5.271a1.571,1.571,0,0,1-1.57,1.57h-3.142a1.571,1.571,0,0,1-1.57-1.57v-3.142a1.572,1.572,0,0,1,1.57-1.57h3.142a1.572,1.572,0,0,1,1.57,1.57Z" transform="translate(-321.754 -1422.898)" fill="#6b574a"/>
        </g>
        <g id="Group_7245" data-name="Group 7245" transform="translate(28.796 71.356)">
          <path id="Path_15174" data-name="Path 15174" d="M329.618,1484.3v-.339h-.167l0,.339a2.768,2.768,0,0,0-2.612,2.432s1.2-.29,1.625.363a2.622,2.622,0,0,1,1-.312l.012,2.643a3.854,3.854,0,0,1-.007.523c-.038.164-.206.1-.225-.045-.015-.125-.114-.128-.135-.031s.08.359.311.33a.231.231,0,0,0,.225-.229l0-.548-.012-2.652a1.855,1.855,0,0,1,1.086.311s.994-.688,1.594-.263A2.731,2.731,0,0,0,329.618,1484.3Z" transform="translate(-325.527 -1483.031)" fill="#6b574a"/>
          <path id="Path_15175" data-name="Path 15175" d="M325.117,1478.682l-3.433.015a2.328,2.328,0,0,0-2.315,2.336l.015,3.433a2.328,2.328,0,0,0,2.336,2.315l3.433-.015a2.328,2.328,0,0,0,2.315-2.335l-.015-3.433A2.328,2.328,0,0,0,325.117,1478.682Zm1.741,5.75a1.717,1.717,0,0,1-1.708,1.723l-3.433.015a1.716,1.716,0,0,1-1.723-1.708l-.015-3.433a1.717,1.717,0,0,1,1.708-1.723l3.433-.015a1.717,1.717,0,0,1,1.723,1.708Z" transform="translate(-319.369 -1478.682)" fill="#6b574a"/>
        </g>
      </g>
      <g id="Group_7251" data-name="Group 7251" transform="translate(920.281 927.841)">
        <rect id="Rectangle_566" data-name="Rectangle 566" width="167.017" height="38.485" transform="translate(62.702 0)" fill="#d9aa6a"/>
        <rect id="Rectangle_567" data-name="Rectangle 567" width="153.82" height="38.485" transform="translate(0.061 0)" fill="#ecc88b"/>
        <rect id="Rectangle_568" data-name="Rectangle 568" width="8.549" height="169.787" transform="translate(16.041 23.517) rotate(-90)" fill="#dac4ae"/>
        <rect id="Rectangle_569" data-name="Rectangle 569" width="8.549" height="38.485" transform="translate(62.702 0)" fill="#f7e8d5"/>
        <rect id="Rectangle_570" data-name="Rectangle 570" width="8.549" height="153.881" transform="translate(0 23.517) rotate(-90)" fill="#f7e8d5"/>
        <g id="Group_7250" data-name="Group 7250" transform="translate(193.429 14.903)">
          <g id="Group_7247" data-name="Group 7247" transform="translate(21.793)">
            <path id="Path_15176" data-name="Path 15176" d="M2320.7,776.615l0-.389h-.191l0,.389a3.176,3.176,0,0,0-3,2.789s1.371-.333,1.865.417a3.013,3.013,0,0,1,1.145-.357l.014,3.032a4.411,4.411,0,0,1-.008.6c-.044.188-.236.119-.258-.052-.018-.143-.131-.146-.155-.036s.092.412.358.378a.265.265,0,0,0,.257-.263l0-.629-.013-3.042a2.126,2.126,0,0,1,1.245.357s1.141-.789,1.829-.3A3.133,3.133,0,0,0,2320.7,776.615Z" transform="translate(-2316.002 -775.162)" fill="#6d5041"/>
            <path id="Path_15177" data-name="Path 15177" d="M2317.827,771.792l-3.938.018a2.671,2.671,0,0,0-2.656,2.679l.018,3.938a2.671,2.671,0,0,0,2.68,2.656l3.938-.018a2.671,2.671,0,0,0,2.656-2.679l-.018-3.939A2.671,2.671,0,0,0,2317.827,771.792Zm2,6.6a1.97,1.97,0,0,1-1.959,1.976l-3.938.018a1.97,1.97,0,0,1-1.976-1.959l-.018-3.938a1.971,1.971,0,0,1,1.959-1.976l3.938-.018a1.969,1.969,0,0,1,1.976,1.959Z" transform="translate(-2311.232 -771.792)" fill="#6d5041"/>
          </g>
          <g id="Group_7248" data-name="Group 7248" transform="translate(10.94)">
            <path id="Path_15178" data-name="Path 15178" d="M2274.666,783.714l.486,0-.014-3.144.875,0-1.126-1.931-1.109,1.941.875,0Z" transform="translate(-2271.916 -776.991)" fill="#6d5041"/>
            <rect id="Rectangle_571" data-name="Rectangle 571" width="5.519" height="0.485" transform="translate(1.885 7.183) rotate(-0.253)" fill="#6d5041"/>
            <path id="Path_15179" data-name="Path 15179" d="M2287.622,780.512l.875,0,.014,3.144.485,0-.014-3.145.875,0-1.126-1.931Z" transform="translate(-2282.437 -776.944)" fill="#6d5041"/>
            <path id="Path_15180" data-name="Path 15180" d="M2272.617,771.792l-3.938.018a2.671,2.671,0,0,0-2.656,2.679l.018,3.938a2.671,2.671,0,0,0,2.679,2.656l3.938-.018a2.671,2.671,0,0,0,2.656-2.679l-.018-3.939A2.671,2.671,0,0,0,2272.617,771.792Zm2,6.6a1.97,1.97,0,0,1-1.959,1.976l-3.938.018a1.97,1.97,0,0,1-1.976-1.959l-.018-3.938a1.97,1.97,0,0,1,1.959-1.976l3.938-.018a1.97,1.97,0,0,1,1.977,1.959Z" transform="translate(-2266.023 -771.792)" fill="#6d5041"/>
          </g>
          <g id="Group_7249" data-name="Group 7249" transform="translate(0 0.009)">
            <path id="Path_15181" data-name="Path 15181" d="M2235.32,778.232h-1.237l.332.974.324-.177.354,1.505-.5-1.181-.266.147-.479-1.269h-.7a5.58,5.58,0,0,0-.62,2.8c.2.944,1.334.962,1.637.949v2.39a4.382,4.382,0,0,0-1.192.288.048.048,0,0,0,.017.092h2.536a.048.048,0,0,0,.018-.092,3.833,3.833,0,0,0-1.207-.291v-2.387c.345.009,1.406-.038,1.6-.95A5.58,5.58,0,0,0,2235.32,778.232Z" transform="translate(-2229.597 -776.695)" fill="#6d5041"/>
            <path id="Path_15182" data-name="Path 15182" d="M2227.057,771.829h-3.939a2.671,2.671,0,0,0-2.667,2.668v3.938a2.671,2.671,0,0,0,2.667,2.667h3.939a2.67,2.67,0,0,0,2.667-2.667V774.5A2.67,2.67,0,0,0,2227.057,771.829Zm1.967,6.606a1.969,1.969,0,0,1-1.967,1.968h-3.939a1.97,1.97,0,0,1-1.967-1.968V774.5a1.97,1.97,0,0,1,1.967-1.968h3.939a1.969,1.969,0,0,1,1.967,1.968Z" transform="translate(-2220.451 -771.829)" fill="#6d5041"/>
          </g>
        </g>
      </g>
      <g id="Group_7256" data-name="Group 7256" transform="translate(626.952 896.513)">
        <rect id="Rectangle_572" data-name="Rectangle 572" width="49.098" height="32.74" transform="translate(0 0)" fill="#e0caa8"/>
        <rect id="Rectangle_573" data-name="Rectangle 573" width="31.563" height="32.74" transform="translate(48.221 0)" fill="#cfaf87"/>
        <rect id="Rectangle_574" data-name="Rectangle 574" width="4.144" height="79.745" transform="translate(79.745 14.299) rotate(90)" fill="#dac4ae"/>
        <rect id="Rectangle_575" data-name="Rectangle 575" width="4.144" height="48.145" transform="translate(48.145 14.299) rotate(90)" fill="#fff2e3"/>
        <rect id="Rectangle_576" data-name="Rectangle 576" width="4.144" height="32.74" transform="translate(26.145 32.74) rotate(180)" fill="#fff2e3"/>
        <g id="Group_7255" data-name="Group 7255" transform="translate(51.423 25.53)">
          <g id="Group_7252" data-name="Group 7252" transform="translate(12.009)">
            <path id="Path_15183" data-name="Path 15183" d="M556.656,1813.282v-.214h-.105v.214a1.75,1.75,0,0,0-1.651,1.537s.756-.183,1.027.229a1.655,1.655,0,0,1,.631-.2l.007,1.671a2.464,2.464,0,0,1,0,.331c-.024.1-.13.066-.142-.028-.01-.079-.072-.081-.086-.02s.051.227.2.208a.146.146,0,0,0,.142-.145v-.347l-.008-1.676a1.17,1.17,0,0,1,.687.2s.628-.435,1.008-.167A1.726,1.726,0,0,0,556.656,1813.282Z" transform="translate(-554.069 -1812.482)" fill="#6d5041"/>
            <path id="Path_15184" data-name="Path 15184" d="M553.81,1809.732l-2.17.01a1.472,1.472,0,0,0-1.463,1.477l.009,2.17a1.472,1.472,0,0,0,1.476,1.464l2.17-.01a1.471,1.471,0,0,0,1.463-1.476l-.01-2.17A1.472,1.472,0,0,0,553.81,1809.732Zm1.1,3.635a1.085,1.085,0,0,1-1.079,1.089l-2.17.01a1.086,1.086,0,0,1-1.089-1.08l-.009-2.17a1.085,1.085,0,0,1,1.079-1.089l2.17-.01a1.086,1.086,0,0,1,1.089,1.079Z" transform="translate(-550.177 -1809.732)" fill="#6d5041"/>
          </g>
          <g id="Group_7253" data-name="Group 7253" transform="translate(6.029)">
            <path id="Path_15185" data-name="Path 15185" d="M522.482,1817.679h.267l-.008-1.733.482,0-.621-1.064-.611,1.07.482,0Z" transform="translate(-520.966 -1813.974)" fill="#6d5041"/>
            <rect id="Rectangle_577" data-name="Rectangle 577" width="3.041" height="0.267" transform="translate(1.038 3.958) rotate(-0.252)" fill="#6d5041"/>
            <path id="Path_15186" data-name="Path 15186" d="M532.41,1815.9l.482,0,.008,1.733h.267l-.008-1.733.482,0-.621-1.064Z" transform="translate(-529.553 -1813.937)" fill="#6d5041"/>
            <path id="Path_15187" data-name="Path 15187" d="M519.791,1809.732l-2.17.01a1.472,1.472,0,0,0-1.463,1.477l.01,2.17a1.472,1.472,0,0,0,1.477,1.464l2.17-.01a1.471,1.471,0,0,0,1.463-1.476l-.01-2.17A1.472,1.472,0,0,0,519.791,1809.732Zm1.1,3.635a1.085,1.085,0,0,1-1.079,1.089l-2.17.01a1.086,1.086,0,0,1-1.089-1.08l-.01-2.17a1.086,1.086,0,0,1,1.08-1.089l2.17-.01a1.085,1.085,0,0,1,1.089,1.079Z" transform="translate(-516.158 -1809.732)" fill="#6d5041"/>
          </g>
          <g id="Group_7254" data-name="Group 7254" transform="translate(0 0.005)">
            <path id="Path_15188" data-name="Path 15188" d="M492.483,1814.578H491.8l.183.537.179-.1.2.83-.277-.651-.146.081-.264-.7h-.386a3.076,3.076,0,0,0-.342,1.545c.112.521.735.53.9.523v1.317a2.42,2.42,0,0,0-.657.159.026.026,0,0,0,.009.051h1.4a.026.026,0,0,0,.01-.051,2.105,2.105,0,0,0-.665-.16v-1.315c.19.005.775-.021.883-.524A3.077,3.077,0,0,0,492.483,1814.578Z" transform="translate(-489.329 -1813.731)" fill="#6d5041"/>
            <path id="Path_15189" data-name="Path 15189" d="M485.5,1809.76h-2.17a1.472,1.472,0,0,0-1.47,1.47v2.17a1.472,1.472,0,0,0,1.47,1.47h2.17a1.472,1.472,0,0,0,1.47-1.47v-2.17A1.472,1.472,0,0,0,485.5,1809.76Zm1.084,3.64a1.085,1.085,0,0,1-1.084,1.084h-2.17a1.085,1.085,0,0,1-1.084-1.084v-2.17a1.085,1.085,0,0,1,1.084-1.084h2.17a1.085,1.085,0,0,1,1.084,1.084Z" transform="translate(-481.864 -1809.76)" fill="#6d5041"/>
          </g>
        </g>
        <rect id="Rectangle_578" data-name="Rectangle 578" width="12.604" height="7.344" transform="translate(3.63 3.234)" fill="#cfb594"/>
        <rect id="Rectangle_579" data-name="Rectangle 579" width="12.363" height="7.421" transform="translate(3.63 2.901)" fill="#fff"/>
        <rect id="Rectangle_580" data-name="Rectangle 580" width="7.652" height="0.44" transform="translate(4.715 6.262)" fill="#7f6d62"/>
        <rect id="Rectangle_581" data-name="Rectangle 581" width="7.652" height="0.44" transform="translate(4.715 5.258)" fill="#7f6d62"/>
        <rect id="Rectangle_582" data-name="Rectangle 582" width="10.23" height="0.926" transform="translate(4.715 8.444)" fill="#c1bfbf"/>
        <rect id="Rectangle_583" data-name="Rectangle 583" width="7.733" height="0.352" transform="translate(4.715 4.114)" fill="#ffb0b0"/>
      </g>
      <g id="Group_7259" data-name="Group 7259" transform="translate(772.804 919.068)">
        <rect id="Rectangle_584" data-name="Rectangle 584" width="40.55" height="47.25" transform="translate(0 0)" fill="#e6a352"/>
        <rect id="Rectangle_585" data-name="Rectangle 585" width="26.068" height="47.25" transform="translate(39.825 0)" fill="#d69440"/>
        <rect id="Rectangle_586" data-name="Rectangle 586" width="40.55" height="47.25" transform="translate(0 0)" fill="#f0b78b"/>
        <rect id="Rectangle_587" data-name="Rectangle 587" width="33.184" height="47.25" transform="translate(32.709 0)" fill="#f7a96b"/>
        <rect id="Rectangle_588" data-name="Rectangle 588" width="3.522" height="47.435" transform="translate(18.458 23.634) rotate(-90)" fill="#dac4ae"/>
        <rect id="Rectangle_589" data-name="Rectangle 589" width="3.522" height="32.631" transform="translate(0 23.634) rotate(-90)" fill="#f7e8d5"/>
        <rect id="Rectangle_590" data-name="Rectangle 590" width="3.406" height="47.245" transform="translate(12.785 0.012)" fill="#f7e8d5"/>
        <rect id="Rectangle_591" data-name="Rectangle 591" width="3.406" height="47.245" transform="translate(48.012 0.012)" fill="#dac4ae"/>
        <g id="Group_7257" data-name="Group 7257" transform="translate(34.367 10.585)">
          <path id="Path_15190" data-name="Path 15190" d="M943.96,1645.034l.355,0-.01-2.3.641,0-.825-1.414-.812,1.421.641,0Z" transform="translate(-941.946 -1640.11)" fill="#6d5041"/>
          <rect id="Rectangle_592" data-name="Rectangle 592" width="4.041" height="0.355" transform="matrix(1, -0.004, 0.004, 1, 1.38, 5.26)" fill="#6d5041"/>
          <path id="Path_15191" data-name="Path 15191" d="M957.153,1642.672l.641,0,.01,2.3h.355l-.01-2.3.641,0-.825-1.414Z" transform="translate(-953.357 -1640.059)" fill="#6d5041"/>
          <path id="Path_15192" data-name="Path 15192" d="M940.384,1634.473l-2.884.013a1.955,1.955,0,0,0-1.945,1.962l.013,2.884a1.956,1.956,0,0,0,1.962,1.945l2.884-.013a1.956,1.956,0,0,0,1.945-1.962l-.013-2.884A1.956,1.956,0,0,0,940.384,1634.473Zm1.462,4.831a1.443,1.443,0,0,1-1.434,1.447l-2.884.013a1.442,1.442,0,0,1-1.447-1.434l-.013-2.884A1.442,1.442,0,0,1,937.5,1635l2.884-.013a1.442,1.442,0,0,1,1.447,1.434Z" transform="translate(-935.556 -1634.473)" fill="#6d5041"/>
        </g>
        <g id="Group_7258" data-name="Group 7258" transform="translate(34.536 2.182)">
          <path id="Path_15193" data-name="Path 15193" d="M950.629,1593.073h-.906l.243.713.238-.13.259,1.1-.367-.865-.195.108-.351-.93h-.513a4.088,4.088,0,0,0-.454,2.054c.15.692.977.7,1.2.7v1.75a3.21,3.21,0,0,0-.873.211.035.035,0,0,0,.012.067h1.858a.035.035,0,0,0,.013-.067,2.806,2.806,0,0,0-.884-.213v-1.748c.252.007,1.029-.028,1.174-.7A4.085,4.085,0,0,0,950.629,1593.073Z" transform="translate(-946.438 -1591.947)" fill="#6d5041"/>
          <path id="Path_15194" data-name="Path 15194" d="M941.355,1586.67h-2.884a1.955,1.955,0,0,0-1.954,1.953v2.884a1.956,1.956,0,0,0,1.954,1.954h2.884a1.956,1.956,0,0,0,1.953-1.954v-2.884A1.955,1.955,0,0,0,941.355,1586.67Zm1.441,4.837a1.442,1.442,0,0,1-1.441,1.441h-2.884a1.442,1.442,0,0,1-1.441-1.441v-2.884a1.442,1.442,0,0,1,1.441-1.441h2.884a1.442,1.442,0,0,1,1.441,1.441Z" transform="translate(-936.518 -1586.67)" fill="#6d5041"/>
        </g>
        <rect id="Rectangle_593" data-name="Rectangle 593" width="9.946" height="11.397" transform="translate(19.093 1.981)" fill="#fff"/>
        <rect id="Rectangle_594" data-name="Rectangle 594" width="6.009" height="0.622" transform="translate(20.232 3.742)" fill="#998376"/>
        <rect id="Rectangle_595" data-name="Rectangle 595" width="6.009" height="0.622" transform="translate(21.709 7.42)" fill="#998376"/>
        <rect id="Rectangle_596" data-name="Rectangle 596" width="3.73" height="0.621" transform="translate(20.232 5.503)" fill="#8a766a"/>
        <rect id="Rectangle_597" data-name="Rectangle 597" width="1.528" height="0.621" transform="translate(24.687 5.503)" fill="#6d5041"/>
        <rect id="Rectangle_598" data-name="Rectangle 598" width="1.528" height="0.621" transform="translate(24.687 5.503)" fill="#7f6d62"/>
        <rect id="Rectangle_599" data-name="Rectangle 599" width="3.73" height="0.622" transform="translate(20.232 9.337)" fill="#7f6d62"/>
        <rect id="Rectangle_600" data-name="Rectangle 600" width="1.528" height="0.622" transform="translate(24.687 9.337)" fill="#7f6d62"/>
        <rect id="Rectangle_601" data-name="Rectangle 601" width="0.699" height="0.621" transform="translate(26.837 5.503)" fill="#7f6d62"/>
        <rect id="Rectangle_602" data-name="Rectangle 602" width="1.528" height="0.622" transform="translate(20.219 11.072)" fill="#998376"/>
        <rect id="Rectangle_603" data-name="Rectangle 603" width="0.699" height="0.622" transform="translate(22.369 11.072)" fill="#7f6d62"/>
        <rect id="Rectangle_604" data-name="Rectangle 604" width="0.699" height="0.622" transform="translate(20.258 7.42)" fill="#7f6d62"/>
      </g>
      <g id="Group_7263" data-name="Group 7263" transform="translate(930.033 879.768)">
        <rect id="Rectangle_605" data-name="Rectangle 605" width="23.447" height="36.47" transform="translate(69.718 11.604)" fill="#bfb481"/>
        <rect id="Rectangle_606" data-name="Rectangle 606" width="23.425" height="12.951" transform="translate(69.718 1.347)" fill="#9e8a71"/>
        <path id="Path_15195" data-name="Path 15195" d="M153.41,766.294H149.5v36.47h66.432v-36.47Z" transform="translate(-146.216 -754.69)" fill="#d2cbae"/>
        <path id="Path_15196" data-name="Path 15196" d="M215.934,720.9V707.945H149.5V720.9h66.432Z" transform="translate(-146.216 -706.598)" fill="#bdae98"/>
        <rect id="Rectangle_607" data-name="Rectangle 607" width="6.26" height="64.651" transform="translate(28.398 27.253) rotate(-90)" fill="#dac4ae"/>
        <rect id="Rectangle_608" data-name="Rectangle 608" width="6.26" height="66.429" transform="translate(3.286 27.253) rotate(-90)" fill="#f7e8d5"/>
        <rect id="Rectangle_609" data-name="Rectangle 609" width="26.573" height="11.604" transform="translate(69.718 0)" fill="#cfb594"/>
        <rect id="Rectangle_610" data-name="Rectangle 610" width="6.26" height="11.604" transform="translate(86.021 11.604) rotate(180)" fill="#dac4ae"/>
        <path id="Path_15197" data-name="Path 15197" d="M200.527,711.887v-11.6H130.809v11.6h69.718Z" transform="translate(-130.809 -700.283)" fill="#e0cfb5"/>
        <rect id="Rectangle_611" data-name="Rectangle 611" width="6.26" height="11.604" transform="translate(52.659 11.604) rotate(180)" fill="#f7e8d5"/>
        <rect id="Rectangle_612" data-name="Rectangle 612" width="6.26" height="11.604" transform="translate(20.573 11.604) rotate(180)" fill="#f7e8d5"/>
        <g id="Group_7260" data-name="Group 7260" transform="translate(60.608 39.098)">
          <path id="Path_15198" data-name="Path 15198" d="M484.189,927.412v-.285h-.14v.285a2.325,2.325,0,0,0-2.194,2.043s1-.244,1.365.3a2.206,2.206,0,0,1,.838-.262l.01,2.22a3.25,3.25,0,0,1-.006.44c-.032.138-.173.088-.189-.038-.013-.1-.1-.107-.114-.026s.067.3.261.277a.194.194,0,0,0,.189-.192l0-.461-.01-2.228a1.555,1.555,0,0,1,.912.262s.835-.578,1.339-.221A2.294,2.294,0,0,0,484.189,927.412Z" transform="translate(-480.752 -926.348)" fill="#5b534d"/>
          <path id="Path_15199" data-name="Path 15199" d="M480.408,922.694l-2.884.013a1.956,1.956,0,0,0-1.945,1.962l.013,2.884a1.955,1.955,0,0,0,1.962,1.945l2.884-.013a1.956,1.956,0,0,0,1.945-1.962l-.013-2.884A1.956,1.956,0,0,0,480.408,922.694Zm1.462,4.831a1.442,1.442,0,0,1-1.434,1.447l-2.884.013a1.442,1.442,0,0,1-1.447-1.434l-.013-2.884a1.443,1.443,0,0,1,1.434-1.447l2.884-.013a1.443,1.443,0,0,1,1.447,1.434Z" transform="translate(-475.579 -922.694)" fill="#5b534d"/>
        </g>
        <g id="Group_7261" data-name="Group 7261" transform="translate(51.832 39.098)">
          <path id="Path_15200" data-name="Path 15200" d="M434.058,933.255l.355,0-.01-2.3.641,0-.825-1.414-.812,1.421.641,0Z" transform="translate(-432.044 -928.332)" fill="#5b534d"/>
          <rect id="Rectangle_613" data-name="Rectangle 613" width="4.041" height="0.355" transform="translate(1.38 5.26) rotate(-0.254)" fill="#5b534d"/>
          <path id="Path_15201" data-name="Path 15201" d="M447.253,930.894l.641,0,.01,2.3.355,0-.01-2.3.641,0-.825-1.414Z" transform="translate(-443.456 -928.281)" fill="#5b534d"/>
          <path id="Path_15202" data-name="Path 15202" d="M430.484,922.694l-2.884.013a1.956,1.956,0,0,0-1.945,1.962l.013,2.884a1.956,1.956,0,0,0,1.962,1.945l2.884-.013a1.956,1.956,0,0,0,1.945-1.962l-.013-2.884A1.956,1.956,0,0,0,430.484,922.694Zm1.462,4.831a1.442,1.442,0,0,1-1.434,1.447l-2.884.013a1.442,1.442,0,0,1-1.447-1.434l-.013-2.884a1.442,1.442,0,0,1,1.434-1.447l2.884-.013a1.443,1.443,0,0,1,1.447,1.434Z" transform="translate(-425.655 -922.694)" fill="#5b534d"/>
        </g>
        <g id="Group_7262" data-name="Group 7262" transform="translate(42.991 39.104)">
          <path id="Path_15203" data-name="Path 15203" d="M389.477,929.134h-.906l.243.713.238-.13.259,1.1-.367-.865-.195.108-.351-.93h-.513a4.087,4.087,0,0,0-.454,2.054c.15.692.977.7,1.2.7v1.75a3.217,3.217,0,0,0-.873.211.035.035,0,0,0,.012.068h1.857a.035.035,0,0,0,.013-.067,2.8,2.8,0,0,0-.884-.213v-1.748c.252.007,1.029-.028,1.174-.7A4.088,4.088,0,0,0,389.477,929.134Z" transform="translate(-385.286 -928.008)" fill="#5b534d"/>
          <path id="Path_15204" data-name="Path 15204" d="M380.2,922.73h-2.884a1.956,1.956,0,0,0-1.953,1.954v2.884a1.956,1.956,0,0,0,1.953,1.953H380.2a1.956,1.956,0,0,0,1.953-1.953v-2.884A1.956,1.956,0,0,0,380.2,922.73Zm1.441,4.837a1.442,1.442,0,0,1-1.441,1.441h-2.884a1.442,1.442,0,0,1-1.441-1.441v-2.884a1.443,1.443,0,0,1,1.441-1.441H380.2a1.442,1.442,0,0,1,1.441,1.441Z" transform="translate(-375.366 -922.73)" fill="#5b534d"/>
        </g>
        <rect id="Rectangle_614" data-name="Rectangle 614" width="24.881" height="10.078" transform="translate(11.429 33.384)" fill="#fff"/>
        <rect id="Rectangle_615" data-name="Rectangle 615" width="15.032" height="0.622" transform="translate(29.312 39.861) rotate(180)" fill="#998376"/>
        <rect id="Rectangle_616" data-name="Rectangle 616" width="3.823" height="0.622" transform="translate(21.861 41.778) rotate(180)" fill="#6d5041"/>
        <rect id="Rectangle_617" data-name="Rectangle 617" width="3.823" height="0.622" transform="translate(21.861 41.778) rotate(180)" fill="#7f6d62"/>
        <rect id="Rectangle_618" data-name="Rectangle 618" width="9.33" height="0.622" transform="translate(23.681 36.08) rotate(180)" fill="#7f6d62"/>
        <rect id="Rectangle_619" data-name="Rectangle 619" width="3.823" height="0.622" transform="translate(21.861 37.945) rotate(180)" fill="#7f6d62"/>
        <rect id="Rectangle_620" data-name="Rectangle 620" width="3.823" height="0.622" transform="translate(33.387 35.974) rotate(180)" fill="#7f6d62"/>
        <rect id="Rectangle_621" data-name="Rectangle 621" width="1.749" height="0.622" transform="translate(16.483 41.778) rotate(180)" fill="#7f6d62"/>
        <rect id="Rectangle_622" data-name="Rectangle 622" width="3.823" height="0.622" transform="translate(14.248 41.156)" fill="#998376"/>
        <rect id="Rectangle_623" data-name="Rectangle 623" width="1.749" height="0.622" transform="translate(14.345 37.504)" fill="#7f6d62"/>
      </g>
      <g id="Group_7266" data-name="Group 7266" transform="translate(589.807 929.253)">
        <rect id="Rectangle_624" data-name="Rectangle 624" width="35.645" height="128.662" transform="translate(128.698 0.016) rotate(90)" fill="#bfb481"/>
        <rect id="Rectangle_625" data-name="Rectangle 625" width="35.645" height="114.155" transform="translate(114.191 0.016) rotate(90)" fill="#d2cbae"/>
        <rect id="Rectangle_626" data-name="Rectangle 626" width="4.35" height="117.551" transform="translate(11.018 20.458) rotate(-90)" fill="#dac4ae"/>
        <rect id="Rectangle_627" data-name="Rectangle 627" width="4.35" height="114.193" transform="translate(0 20.458) rotate(-90)" fill="#f7e8d5"/>
        <rect id="Rectangle_628" data-name="Rectangle 628" width="4.35" height="35.641" transform="translate(59.297 35.641) rotate(180)" fill="#f7e8d5"/>
        <g id="Group_7264" data-name="Group 7264" transform="translate(104.792 26.63)">
          <path id="Path_15205" data-name="Path 15205" d="M1248.975,1393.161v-.281h-.138v.281a2.3,2.3,0,0,0-2.169,2.019s.992-.241,1.349.3a2.178,2.178,0,0,1,.829-.259l.01,2.194a3.243,3.243,0,0,1-.006.435c-.032.136-.171.086-.186-.037-.013-.1-.1-.106-.113-.026s.066.3.258.274a.192.192,0,0,0,.187-.19l0-.455-.01-2.2a1.538,1.538,0,0,1,.9.259s.825-.571,1.323-.219A2.268,2.268,0,0,0,1248.975,1393.161Z" transform="translate(-1245.577 -1392.109)" fill="#5b534d"/>
          <path id="Path_15206" data-name="Path 15206" d="M1245.237,1388.5l-2.851.013a1.933,1.933,0,0,0-1.922,1.939l.013,2.851a1.933,1.933,0,0,0,1.94,1.923l2.851-.013a1.933,1.933,0,0,0,1.922-1.94l-.013-2.851A1.933,1.933,0,0,0,1245.237,1388.5Zm1.446,4.775a1.426,1.426,0,0,1-1.418,1.431l-2.851.013a1.426,1.426,0,0,1-1.431-1.418l-.013-2.851a1.426,1.426,0,0,1,1.418-1.431l2.851-.012a1.426,1.426,0,0,1,1.431,1.418Z" transform="translate(-1240.464 -1388.497)" fill="#5b534d"/>
        </g>
        <g id="Group_7265" data-name="Group 7265" transform="translate(95.951 26.63)">
          <path id="Path_15207" data-name="Path 15207" d="M1198.48,1398.937h.351l-.01-2.276.634,0-.815-1.4-.8,1.4.634,0Z" transform="translate(-1196.489 -1394.07)" fill="#5b534d"/>
          <rect id="Rectangle_629" data-name="Rectangle 629" width="3.995" height="0.351" transform="matrix(1, -0.004, 0.004, 1, 1.364, 5.2)" fill="#5b534d"/>
          <path id="Path_15208" data-name="Path 15208" d="M1211.522,1396.6l.633,0,.01,2.276.351,0-.01-2.276.633,0-.815-1.4Z" transform="translate(-1207.769 -1394.02)" fill="#5b534d"/>
          <path id="Path_15209" data-name="Path 15209" d="M1194.946,1388.5l-2.851.013a1.933,1.933,0,0,0-1.922,1.939l.013,2.851a1.933,1.933,0,0,0,1.94,1.923l2.851-.013a1.933,1.933,0,0,0,1.923-1.94l-.013-2.851A1.933,1.933,0,0,0,1194.946,1388.5Zm1.446,4.775a1.426,1.426,0,0,1-1.418,1.431l-2.851.013a1.426,1.426,0,0,1-1.431-1.418l-.013-2.851a1.426,1.426,0,0,1,1.418-1.431l2.851-.012a1.426,1.426,0,0,1,1.431,1.418Z" transform="translate(-1190.173 -1388.497)" fill="#5b534d"/>
        </g>
        <rect id="Rectangle_630" data-name="Rectangle 630" width="19.261" height="4.49" transform="translate(3.809 26.973)" fill="#f7e8d5"/>
        <rect id="Rectangle_631" data-name="Rectangle 631" width="0.403" height="3.222" transform="translate(4.778 27.614)" fill="#474646"/>
        <rect id="Rectangle_632" data-name="Rectangle 632" width="0.927" height="3.222" transform="translate(5.837 27.614)" fill="#474646"/>
        <rect id="Rectangle_633" data-name="Rectangle 633" width="0.353" height="3.222" transform="translate(7.294 27.614)" fill="#474646"/>
        <rect id="Rectangle_634" data-name="Rectangle 634" width="0.375" height="3.222" transform="translate(8.221 27.614)" fill="#474646"/>
        <rect id="Rectangle_635" data-name="Rectangle 635" width="1.192" height="3.222" transform="translate(9.368 27.614)" fill="#474646"/>
        <rect id="Rectangle_636" data-name="Rectangle 636" width="0.265" height="3.222" transform="translate(11.267 27.614)" fill="#474646"/>
        <rect id="Rectangle_637" data-name="Rectangle 637" width="1.589" height="3.222" transform="translate(11.973 27.614)" fill="#474646"/>
        <rect id="Rectangle_638" data-name="Rectangle 638" width="0.397" height="3.222" transform="translate(14.048 27.614)" fill="#474646"/>
        <rect id="Rectangle_639" data-name="Rectangle 639" width="0.795" height="3.222" transform="translate(15.328 27.614)" fill="#474646"/>
        <rect id="Rectangle_640" data-name="Rectangle 640" width="0.428" height="3.222" transform="translate(16.564 27.614)" fill="#474646"/>
        <rect id="Rectangle_641" data-name="Rectangle 641" width="0.574" height="3.222" transform="translate(18.462 27.614)" fill="#474646"/>
        <rect id="Rectangle_642" data-name="Rectangle 642" width="0.228" height="3.222" transform="translate(19.389 27.614)" fill="#474646"/>
        <rect id="Rectangle_643" data-name="Rectangle 643" width="0.883" height="3.222" transform="translate(20.316 27.614)" fill="#474646"/>
        <rect id="Rectangle_644" data-name="Rectangle 644" width="0.309" height="3.222" transform="translate(21.817 27.614)" fill="#474646"/>
      </g>
      <g id="Group_7272" data-name="Group 7272" transform="translate(951.002 812.432)">
        <rect id="Rectangle_645" data-name="Rectangle 645" width="36.906" height="59.845" transform="translate(22.921 7.491)" fill="#d69440"/>
        <rect id="Rectangle_646" data-name="Rectangle 646" width="20.239" height="59.845" transform="translate(2.682 7.491)" fill="#f0a956"/>
        <rect id="Rectangle_647" data-name="Rectangle 647" width="36.907" height="13.874" transform="translate(22.921 0)" fill="#b87e36"/>
        <rect id="Rectangle_648" data-name="Rectangle 648" width="20.239" height="13.874" transform="translate(2.682 0)" fill="#cc9349"/>
        <rect id="Rectangle_649" data-name="Rectangle 649" width="39.285" height="11.107" transform="translate(22.921 0)" fill="#d69440"/>
        <rect id="Rectangle_650" data-name="Rectangle 650" width="25.321" height="11.107" transform="translate(0 0)" fill="#f0a956"/>
        <rect id="Rectangle_651" data-name="Rectangle 651" width="5.664" height="9.108" transform="translate(9.158 0)" fill="#f7e8d5"/>
        <rect id="Rectangle_652" data-name="Rectangle 652" width="5.664" height="9.108" transform="translate(41.38 0)" fill="#dac4ae"/>
        <g id="Group_7270" data-name="Group 7270" transform="translate(30.686 57.773)">
          <g id="Group_7267" data-name="Group 7267" transform="translate(15.959)">
            <path id="Path_15210" data-name="Path 15210" d="M2296.428,1334.281V1334h-.14v.285a2.326,2.326,0,0,0-2.194,2.043s1-.244,1.365.305a2.206,2.206,0,0,1,.838-.262l.01,2.22a3.228,3.228,0,0,1-.006.44c-.032.138-.173.087-.188-.038-.013-.1-.1-.107-.114-.026s.067.3.261.277a.2.2,0,0,0,.189-.192l0-.461-.01-2.228a1.557,1.557,0,0,1,.912.262s.835-.578,1.339-.221A2.294,2.294,0,0,0,2296.428,1334.281Z" transform="translate(-2292.991 -1333.217)" fill="#6b574a"/>
            <path id="Path_15211" data-name="Path 15211" d="M2292.646,1329.563l-2.884.013a1.956,1.956,0,0,0-1.945,1.962l.013,2.884a1.956,1.956,0,0,0,1.962,1.945l2.884-.013a1.955,1.955,0,0,0,1.945-1.962l-.013-2.884A1.956,1.956,0,0,0,2292.646,1329.563Zm1.463,4.831a1.443,1.443,0,0,1-1.435,1.447l-2.884.013a1.442,1.442,0,0,1-1.447-1.435l-.013-2.884a1.443,1.443,0,0,1,1.435-1.447l2.884-.013a1.442,1.442,0,0,1,1.447,1.435Z" transform="translate(-2287.817 -1329.563)" fill="#6b574a"/>
          </g>
          <g id="Group_7268" data-name="Group 7268" transform="translate(8.012)">
            <path id="Path_15212" data-name="Path 15212" d="M2251.012,1340.124h.355l-.01-2.3.641,0-.825-1.414-.812,1.421.641,0Z" transform="translate(-2248.999 -1335.201)" fill="#6b574a"/>
            <rect id="Rectangle_653" data-name="Rectangle 653" width="4.041" height="0.355" transform="translate(1.38 5.26) rotate(-0.253)" fill="#6b574a"/>
            <path id="Path_15213" data-name="Path 15213" d="M2264.207,1337.763l.641,0,.01,2.3.355,0-.01-2.3.641,0-.825-1.414Z" transform="translate(-2260.41 -1335.15)" fill="#6b574a"/>
            <path id="Path_15214" data-name="Path 15214" d="M2247.438,1329.563l-2.884.013a1.956,1.956,0,0,0-1.945,1.962l.013,2.884a1.955,1.955,0,0,0,1.962,1.945l2.884-.013a1.956,1.956,0,0,0,1.945-1.962l-.013-2.884A1.956,1.956,0,0,0,2247.438,1329.563Zm1.462,4.831a1.442,1.442,0,0,1-1.434,1.447l-2.884.013a1.442,1.442,0,0,1-1.447-1.435l-.013-2.884a1.443,1.443,0,0,1,1.435-1.447l2.884-.013a1.443,1.443,0,0,1,1.447,1.435Z" transform="translate(-2242.609 -1329.563)" fill="#6b574a"/>
          </g>
          <g id="Group_7269" data-name="Group 7269" transform="translate(0 0.007)">
            <path id="Path_15215" data-name="Path 15215" d="M2211.146,1336h-.906l.243.714.238-.13.26,1.1-.368-.865-.195.108-.351-.93h-.513a4.091,4.091,0,0,0-.454,2.054c.15.691.977.7,1.2.7v1.75a3.2,3.2,0,0,0-.873.211.035.035,0,0,0,.012.067h1.858a.035.035,0,0,0,.013-.067,2.791,2.791,0,0,0-.884-.213v-1.748c.252.007,1.03-.028,1.174-.7A4.088,4.088,0,0,0,2211.146,1336Z" transform="translate(-2206.955 -1334.877)" fill="#6b574a"/>
            <path id="Path_15216" data-name="Path 15216" d="M2201.873,1329.6h-2.884a1.956,1.956,0,0,0-1.953,1.953v2.884a1.956,1.956,0,0,0,1.953,1.953h2.884a1.956,1.956,0,0,0,1.953-1.953v-2.884A1.956,1.956,0,0,0,2201.873,1329.6Zm1.441,4.837a1.442,1.442,0,0,1-1.441,1.441h-2.884a1.442,1.442,0,0,1-1.441-1.441v-2.884a1.443,1.443,0,0,1,1.441-1.441h2.884a1.442,1.442,0,0,1,1.441,1.441Z" transform="translate(-2197.035 -1329.6)" fill="#6b574a"/>
          </g>
        </g>
        <rect id="Rectangle_654" data-name="Rectangle 654" width="17.972" height="8.819" transform="translate(29.453 19.249)" fill="#dac4ae"/>
        <rect id="Rectangle_655" data-name="Rectangle 655" width="7.77" height="0.544" transform="translate(30.926 20.79)" fill="#998376"/>
        <rect id="Rectangle_656" data-name="Rectangle 656" width="7.77" height="0.544" transform="translate(32.835 24.008)" fill="#998376"/>
        <rect id="Rectangle_657" data-name="Rectangle 657" width="4.823" height="0.544" transform="translate(30.926 22.331)" fill="#8a766a"/>
        <rect id="Rectangle_658" data-name="Rectangle 658" width="1.976" height="0.544" transform="translate(39.587 20.812)" fill="#998376"/>
        <rect id="Rectangle_659" data-name="Rectangle 659" width="1.976" height="0.544" transform="translate(41.521 23.989)" fill="#7f6d62"/>
        <rect id="Rectangle_660" data-name="Rectangle 660" width="4.823" height="0.544" transform="translate(30.926 25.686)" fill="#7f6d62"/>
        <rect id="Rectangle_661" data-name="Rectangle 661" width="1.976" height="0.544" transform="translate(36.687 25.686)" fill="#7f6d62"/>
        <rect id="Rectangle_662" data-name="Rectangle 662" width="0.904" height="0.544" transform="translate(39.466 22.331)" fill="#7f6d62"/>
        <rect id="Rectangle_663" data-name="Rectangle 663" width="0.904" height="0.544" transform="translate(30.96 24.008)" fill="#7f6d62"/>
        <g id="Group_7271" data-name="Group 7271" transform="translate(29.952 32.659)">
          <rect id="Rectangle_664" data-name="Rectangle 664" width="19.261" height="4.49" fill="#f7e8d5"/>
          <rect id="Rectangle_665" data-name="Rectangle 665" width="0.403" height="3.222" transform="translate(0.969 0.626)" fill="#474646"/>
          <rect id="Rectangle_666" data-name="Rectangle 666" width="0.927" height="3.222" transform="translate(2.028 0.626)" fill="#474646"/>
          <rect id="Rectangle_667" data-name="Rectangle 667" width="0.353" height="3.222" transform="translate(3.485 0.626)" fill="#474646"/>
          <rect id="Rectangle_668" data-name="Rectangle 668" width="0.375" height="3.222" transform="translate(4.412 0.626)" fill="#474646"/>
          <rect id="Rectangle_669" data-name="Rectangle 669" width="1.192" height="3.222" transform="translate(5.559 0.626)" fill="#474646"/>
          <rect id="Rectangle_670" data-name="Rectangle 670" width="0.265" height="3.222" transform="translate(7.458 0.626)" fill="#474646"/>
          <rect id="Rectangle_671" data-name="Rectangle 671" width="1.589" height="3.222" transform="translate(8.164 0.626)" fill="#474646"/>
          <rect id="Rectangle_672" data-name="Rectangle 672" width="0.397" height="3.222" transform="translate(10.239 0.626)" fill="#474646"/>
          <rect id="Rectangle_673" data-name="Rectangle 673" width="0.795" height="3.222" transform="translate(11.519 0.626)" fill="#474646"/>
          <rect id="Rectangle_674" data-name="Rectangle 674" width="0.428" height="3.222" transform="translate(12.755 0.626)" fill="#474646"/>
          <rect id="Rectangle_675" data-name="Rectangle 675" width="0.574" height="3.222" transform="translate(14.653 0.626)" fill="#474646"/>
          <rect id="Rectangle_676" data-name="Rectangle 676" width="0.228" height="3.222" transform="translate(15.58 0.626)" fill="#474646"/>
          <rect id="Rectangle_677" data-name="Rectangle 677" width="0.883" height="3.222" transform="translate(16.507 0.626)" fill="#474646"/>
          <rect id="Rectangle_678" data-name="Rectangle 678" width="0.309" height="3.222" transform="translate(18.008 0.626)" fill="#474646"/>
        </g>
      </g>
      <g id="Group_7276" data-name="Group 7276" transform="translate(1035.14 864.959)">
        <rect id="Rectangle_679" data-name="Rectangle 679" width="87.741" height="50.252" transform="translate(0 12.63)" fill="#d6a85e"/>
        <rect id="Rectangle_680" data-name="Rectangle 680" width="4.144" height="50.252" transform="translate(66.731 12.63)" fill="#dac4ae"/>
        <rect id="Rectangle_681" data-name="Rectangle 681" width="49.258" height="50.252" transform="translate(0 12.63)" fill="#f1c989"/>
        <path id="Path_15217" data-name="Path 15217" d="M1853.709,1505.036l14.789-12.631,38.952,0-17.311,12.627Z" transform="translate(-1853.709 -1492.405)" fill="#d6a85e"/>
        <path id="Path_15218" data-name="Path 15218" d="M2084.453,1534.183l-18.985-6.414h-38.483l18.8,6.414Z" transform="translate(-1996.525 -1521.552)" fill="#ebbe73"/>
        <path id="Path_15219" data-name="Path 15219" d="M2164.819,1534.182h4.145l-14.436-6.4-4.317-.018Z" transform="translate(-2098.088 -1521.551)" fill="#f0dcc0"/>
        <path id="Path_15220" data-name="Path 15220" d="M2026.938,1527.769l18.8,6.414-18.2-5.309a1.126,1.126,0,0,1-.595-1.105Z" transform="translate(-1996.478 -1521.552)" fill="#f1c989"/>
        <path id="Path_15221" data-name="Path 15221" d="M1976.79,1492.409l-38.952,0,.242.9,38.059-.414Z" transform="translate(-1923.049 -1492.405)" fill="#e8b86d"/>
        <rect id="Rectangle_682" data-name="Rectangle 682" width="4.144" height="21.353" transform="translate(21.558 12.63)" fill="#f7e8d5"/>
        <path id="Path_15222" data-name="Path 15222" d="M1853.709,1505.036l14.789-12.631.278.227a.5.5,0,0,1-.011.775Z" transform="translate(-1853.709 -1492.405)" fill="#f1c989"/>
        <g id="Group_7273" data-name="Group 7273" transform="translate(19.271 37.232)">
          <path id="Path_15223" data-name="Path 15223" d="M1980.311,1711.9h-1.09l.293.858.286-.156.312,1.326-.442-1.04-.234.13-.422-1.118h-.617a4.918,4.918,0,0,0-.546,2.47c.18.832,1.176.847,1.442.836v2.105a3.868,3.868,0,0,0-1.05.254.042.042,0,0,0,.015.081h2.235a.042.042,0,0,0,.016-.081,3.376,3.376,0,0,0-1.064-.256v-2.1c.3.008,1.239-.034,1.412-.837A4.915,4.915,0,0,0,1980.311,1711.9Z" transform="translate(-1975.27 -1710.549)" fill="#6b574a"/>
          <path id="Path_15224" data-name="Path 15224" d="M1969.156,1704.2h-3.469a2.353,2.353,0,0,0-2.35,2.35v3.469a2.352,2.352,0,0,0,2.35,2.35h3.469a2.353,2.353,0,0,0,2.35-2.35v-3.469A2.353,2.353,0,0,0,1969.156,1704.2Zm1.733,5.819a1.735,1.735,0,0,1-1.733,1.733h-3.469a1.735,1.735,0,0,1-1.733-1.733v-3.469a1.735,1.735,0,0,1,1.733-1.733h3.469a1.735,1.735,0,0,1,1.733,1.733Z" transform="translate(-1963.336 -1704.199)" fill="#6b574a"/>
        </g>
        <g id="Group_7274" data-name="Group 7274" transform="translate(14.216 51.865)">
          <rect id="Rectangle_683" data-name="Rectangle 683" width="19.261" height="4.49" fill="#f7e8d5"/>
          <rect id="Rectangle_684" data-name="Rectangle 684" width="0.403" height="3.222" transform="translate(0.969 0.626)" fill="#474646"/>
          <rect id="Rectangle_685" data-name="Rectangle 685" width="0.927" height="3.222" transform="translate(2.028 0.626)" fill="#474646"/>
          <rect id="Rectangle_686" data-name="Rectangle 686" width="0.353" height="3.222" transform="translate(3.485 0.626)" fill="#474646"/>
          <rect id="Rectangle_687" data-name="Rectangle 687" width="0.375" height="3.222" transform="translate(4.412 0.626)" fill="#474646"/>
          <rect id="Rectangle_688" data-name="Rectangle 688" width="1.192" height="3.222" transform="translate(5.559 0.626)" fill="#474646"/>
          <rect id="Rectangle_689" data-name="Rectangle 689" width="0.265" height="3.222" transform="translate(7.458 0.626)" fill="#292623"/>
          <rect id="Rectangle_690" data-name="Rectangle 690" width="1.589" height="3.222" transform="translate(8.164 0.626)" fill="#474646"/>
          <rect id="Rectangle_691" data-name="Rectangle 691" width="0.397" height="3.222" transform="translate(10.239 0.626)" fill="#474646"/>
          <rect id="Rectangle_692" data-name="Rectangle 692" width="0.795" height="3.222" transform="translate(11.519 0.626)" fill="#474646"/>
          <rect id="Rectangle_693" data-name="Rectangle 693" width="0.428" height="3.222" transform="translate(12.755 0.626)" fill="#474646"/>
          <rect id="Rectangle_694" data-name="Rectangle 694" width="0.574" height="3.222" transform="translate(14.653 0.626)" fill="#474646"/>
          <rect id="Rectangle_695" data-name="Rectangle 695" width="0.228" height="3.222" transform="translate(15.58 0.626)" fill="#474646"/>
          <rect id="Rectangle_696" data-name="Rectangle 696" width="0.883" height="3.222" transform="translate(16.507 0.626)" fill="#474646"/>
          <rect id="Rectangle_697" data-name="Rectangle 697" width="0.309" height="3.222" transform="translate(18.008 0.626)" fill="#474646"/>
        </g>
        <g id="Group_7275" data-name="Group 7275" transform="translate(14.216 51.865)">
          <rect id="Rectangle_698" data-name="Rectangle 698" width="19.261" height="4.49" fill="#f7e8d5"/>
          <rect id="Rectangle_699" data-name="Rectangle 699" width="0.403" height="3.222" transform="translate(0.969 0.626)" fill="#474646"/>
          <rect id="Rectangle_700" data-name="Rectangle 700" width="0.927" height="3.222" transform="translate(2.028 0.626)" fill="#474646"/>
          <rect id="Rectangle_701" data-name="Rectangle 701" width="0.353" height="3.222" transform="translate(3.485 0.626)" fill="#474646"/>
          <rect id="Rectangle_702" data-name="Rectangle 702" width="0.375" height="3.222" transform="translate(4.412 0.626)" fill="#474646"/>
          <rect id="Rectangle_703" data-name="Rectangle 703" width="1.192" height="3.222" transform="translate(5.559 0.626)" fill="#474646"/>
          <rect id="Rectangle_704" data-name="Rectangle 704" width="0.265" height="3.222" transform="translate(7.458 0.626)" fill="#474646"/>
          <rect id="Rectangle_705" data-name="Rectangle 705" width="1.589" height="3.222" transform="translate(8.164 0.626)" fill="#474646"/>
          <rect id="Rectangle_706" data-name="Rectangle 706" width="0.397" height="3.222" transform="translate(10.239 0.626)" fill="#474646"/>
          <rect id="Rectangle_707" data-name="Rectangle 707" width="0.795" height="3.222" transform="translate(11.519 0.626)" fill="#474646"/>
          <rect id="Rectangle_708" data-name="Rectangle 708" width="0.428" height="3.222" transform="translate(12.755 0.626)" fill="#474646"/>
          <rect id="Rectangle_709" data-name="Rectangle 709" width="0.574" height="3.222" transform="translate(14.653 0.626)" fill="#474646"/>
          <rect id="Rectangle_710" data-name="Rectangle 710" width="0.228" height="3.222" transform="translate(15.58 0.626)" fill="#474646"/>
          <rect id="Rectangle_711" data-name="Rectangle 711" width="0.883" height="3.222" transform="translate(16.507 0.626)" fill="#474646"/>
          <rect id="Rectangle_712" data-name="Rectangle 712" width="0.309" height="3.222" transform="translate(18.008 0.626)" fill="#474646"/>
        </g>
      </g>
    </g>
  </g>
</svg>
