<svg id="logout_1_" data-name="logout (1)" xmlns="http://www.w3.org/2000/svg" width="32.515" height="29.67" viewBox="0 0 32.515 29.67">
  <g id="Group_7142" data-name="Group 7142" transform="translate(27.132 11.428)">
    <g id="Group_7141" data-name="Group 7141" transform="translate(0 0)">
      <path id="Path_14921" data-name="Path 14921" d="M432.206,204.989l-3.479-2.453a.953.953,0,0,0-1.5.779v4.905a.953.953,0,0,0,1.5.779l3.479-2.453A.953.953,0,0,0,432.206,204.989Z" transform="translate(-427.225 -202.361)" fill="#fff"/>
    </g>
  </g>
  <g id="Group_7144" data-name="Group 7144">
    <g id="Group_7143" data-name="Group 7143" transform="translate(0 0)">
      <path id="Path_14922" data-name="Path 14922" d="M27.337,43.355a.953.953,0,0,0-1.3.348,12.93,12.93,0,1,1,0-12.929.953.953,0,1,0,1.649-.954,14.835,14.835,0,1,0,0,14.836A.953.953,0,0,0,27.337,43.355Z" transform="translate(0 -22.404)" fill="#fff"/>
    </g>
  </g>
  <g id="Group_7146" data-name="Group 7146" transform="translate(9.475 13.882)">
    <g id="Group_7145" data-name="Group 7145" transform="translate(0 0)">
      <path id="Path_14923" data-name="Path 14923" d="M150.145,241a.953.953,0,0,0,0,1.905h14.8V241Z" transform="translate(-149.192 -241.001)" fill="#fff"/>
    </g>
  </g>
</svg>
