<?xml version="1.0" encoding="utf-8"?>
<!-- Generator: Adobe Illustrator 14.0.0, SVG Export Plug-In . SVG Version: 6.00 Build 43363)  -->
<!DOCTYPE svg PUBLIC "-//W3C//DTD SVG 1.1//EN" "http://www.w3.org/Graphics/SVG/1.1/DTD/svg11.dtd">
<svg version="1.1" id="Layer_1" xmlns="http://www.w3.org/2000/svg" xmlns:xlink="http://www.w3.org/1999/xlink" x="0px" y="0px"
	 width="338.951px" height="317px" viewBox="222.5 139.5 338.951 317" enable-background="new 222.5 139.5 338.951 317"
	 xml:space="preserve">
<path fill="#FFFFFF" d="M389.852,191.33v-0.984h46.632v-33.087c-0.005-5.705-4.627-10.33-10.332-10.338h-68.238
	c-5.707,0.006-10.331,4.631-10.338,10.338v77.184l1.551-0.087C371.956,233.039,389.852,214.139,389.852,191.33z"/>
<path fill="#FFFFFF" d="M436.475,316.355v-77.037l-1.542,0.081c-22.778,1.174-40.64,19.993-40.623,42.801v0.984h-46.734v33.171
	c0.007,5.706,4.631,10.331,10.338,10.338h68.238C431.853,326.68,436.469,322.057,436.475,316.355z"/>
<path fill="#FFFFFF" d="M394.717,193.742c1.357,22.771,20.213,40.545,43.023,40.557h1.011l0.039,46.8h33.081
	c5.706-0.005,10.33-4.629,10.335-10.335v-68.238c-0.005-5.707-4.629-10.332-10.335-10.338H394.63L394.717,193.742z"/>
<path fill="#FFFFFF" d="M312.034,281.216h77.484l-0.087-1.551c-1.327-22.611-20.122-40.323-42.78-40.323h-1.2l-0.168-0.981v-46.047
	h-33.249c-5.707,0.007-10.332,4.631-10.338,10.338v68.229C301.705,276.587,306.329,281.209,312.034,281.216z"/>
<path fill="#FFFFFF" d="M277.069,417.071c-2.617-1.704-5.529-2.904-8.586-3.537c-2.868-0.57-5.913-1.095-9.045-1.566
	c-3.071-0.438-6.087-1.197-9-2.265c-3.492-1.38-5.265-3.09-5.265-5.076c0-3.204,1.359-5.502,4.155-7.028
	c2.88-1.572,5.775-2.37,8.604-2.37c6.573,0,10.482,2.948,11.955,9.021c0.546,2.19,2.757,3.3,6.579,3.3
	c4.356-0.129,6.564-1.41,6.564-3.81c-0.004-0.396-0.071-0.789-0.198-1.164c-1.458-5.4-4.716-9.3-9.684-11.667
	c-4.729-2.275-9.908-3.465-15.156-3.48c-5.052,0-10.662,1.297-16.668,3.853c-6.18,2.634-9.3,7.164-9.3,13.461
	c0,5.349,2.574,9.771,7.647,13.14c2.659,1.8,5.659,3.036,8.814,3.633c3,0.547,6.102,1.045,9.255,1.479
	c3.702,0.501,6.72,1.26,8.976,2.253c3.156,1.377,4.755,3.108,4.755,5.146c0,3.498-1.437,6.11-4.398,7.991
	c-2.961,1.882-6.12,2.881-9.246,2.881c-7.536,0-12.159-3.601-14.136-10.969c-0.546-2.15-2.754-3.243-6.561-3.243
	c-4.368,0-6.582,1.303-6.582,3.87c0.023,0.424,0.111,0.842,0.261,1.239c1.776,5.964,5.304,10.326,10.5,12.969
	c5.137,2.612,10.824,3.96,16.587,3.931c5.46,0,11.304-1.471,17.37-4.365c6.225-2.967,9.378-7.899,9.378-14.658
	C284.611,424.607,282.073,420.245,277.069,417.071z"/>
<path fill="#FFFFFF" d="M346.762,387.491c-2.817,0-4.5,0.702-5.1,2.145l-18.9,43.5l-18.939-42.854c-0.813-1.854-3-2.793-6.531-2.793
	c-4.68,0-7.053,1.221-7.053,3.63c0.014,0.353,0.093,0.699,0.231,1.023l23.883,54.074c0.855,1.888,3.168,2.845,6.882,2.845
	c3.714,0,6-0.96,6.822-2.854l23.916-55.173c0.073-0.241,0.118-0.489,0.135-0.741C352.105,388.434,350.308,387.491,346.762,387.491z"
	/>
<path fill="#FFFFFF" d="M418.984,442.353L418.984,442.353c-2.334-1.329-3.517-4.38-3.517-9.069V407.87
	c0-7.5-3.174-12.854-9.432-15.924c-6.111-3-12.333-4.5-18.498-4.5c-7.674,0-14.256,1.761-19.569,5.231
	c-5.427,3.601-8.181,7.872-8.181,12.673c0,2.564,2.196,3.866,6.525,3.866c4.404,0,6.639-1.302,6.639-3.866
	c0-2.865,1.587-5.28,4.842-7.377c2.915-1.836,6.3-2.784,9.744-2.73c9.937,0,14.767,4.137,14.767,12.642v5.218
	c-1.824,0.854-4.801,1.29-8.868,1.29c-1.632,0-3.36-0.039-5.133-0.117c-1.84-0.078-3.392-0.117-4.656-0.117
	c-5.816-0.008-11.591,0.981-17.073,2.925c-5.676,2.017-8.553,6.795-8.553,14.211c0,6.528,2.91,11.19,8.649,13.866
	c5.58,2.598,11.172,3.918,16.623,3.918c3.414,0,7.303-0.492,11.55-1.461c3.945-0.9,7.2-2.664,9.718-5.265
	c0.899,2.273,2.619,4.167,5.121,5.634c1.199,0.726,2.754,1.092,4.629,1.092s3.345-0.324,4.473-0.954
	c1.44-0.741,2.169-1.74,2.169-2.973C420.952,444.035,420.289,443.1,418.984,442.353z M402.305,421.694v4.926
	c0,4.683-2.025,8.205-6.189,10.758c-4.164,2.554-8.514,3.9-12.822,3.9c-8.1,0-12.051-3.268-12.051-9.987
	c0-6.324,4.059-9.398,12.405-9.398c1.8,0,3.66,0.048,5.511,0.146c1.851,0.1,3.705,0.147,5.517,0.147
	C397.227,422.207,399.776,422.043,402.305,421.694z"/>
<path fill="#FFFFFF" d="M490.147,442.353L490.147,442.353c-2.331-1.329-3.514-4.38-3.514-9.069V407.87
	c0-7.5-3.174-12.854-9.435-15.924c-6.108-3-12.333-4.5-18.495-4.5c-7.674,0-14.259,1.761-19.569,5.231
	c-5.43,3.601-8.181,7.872-8.181,12.673c0,2.564,2.193,3.866,6.522,3.866c4.406,0,6.642-1.302,6.642-3.866
	c0-2.865,1.584-5.28,4.842-7.377c2.915-1.836,6.3-2.785,9.744-2.73c9.937,0,14.763,4.137,14.763,12.642v5.218
	c-1.823,0.854-4.8,1.29-8.864,1.29c-1.636,0-3.36-0.039-5.137-0.117c-1.836-0.078-3.39-0.117-4.652-0.117
	c-5.816-0.008-11.592,0.981-17.073,2.925c-5.676,2.017-8.553,6.795-8.553,14.211c0,6.528,2.906,11.193,8.646,13.866
	c5.58,2.598,11.172,3.918,16.623,3.918c3.417,0,7.305-0.492,11.553-1.461c3.942-0.9,7.2-2.664,9.718-5.265
	c0.899,2.273,2.618,4.167,5.117,5.634c1.2,0.726,2.755,1.092,4.633,1.092c1.833,0,3.342-0.324,4.473-0.954
	c1.437-0.741,2.166-1.74,2.166-2.973C492.112,444.035,491.452,443.1,490.147,442.353z M473.464,421.694v4.926
	c0,4.683-2.021,8.205-6.186,10.758c-4.164,2.554-8.518,3.9-12.825,3.9c-8.1,0-12.048-3.268-12.048-9.987
	c0-6.324,4.059-9.398,12.405-9.398c1.8,0,3.659,0.048,5.511,0.146c1.851,0.1,3.705,0.147,5.517,0.147
	C468.389,422.207,470.938,422.042,473.464,421.694z"/>
<path fill="#FFFFFF" d="M545.833,417.071c-2.616-1.704-5.528-2.904-8.586-3.537c-2.868-0.57-5.913-1.095-9.048-1.566
	c-3.071-0.438-6.088-1.197-9-2.265c-3.495-1.38-5.265-3.09-5.265-5.076c0-3.204,1.358-5.502,4.154-7.028
	c2.88-1.572,5.775-2.37,8.604-2.37c6.573,0,10.481,2.948,11.955,9.021c0.546,2.19,2.757,3.3,6.579,3.3
	c4.355-0.129,6.563-1.41,6.563-3.81c-0.004-0.396-0.07-0.789-0.198-1.164c-1.458-5.4-4.716-9.3-9.687-11.667
	c-4.729-2.275-9.906-3.465-15.153-3.48c-5.052,0-10.662,1.297-16.671,3.853c-6.177,2.631-9.3,7.161-9.3,13.461
	c0,5.349,2.574,9.771,7.646,13.14c2.66,1.8,5.659,3.036,8.814,3.633c3,0.547,6.102,1.045,9.255,1.479
	c3.702,0.501,6.72,1.26,8.977,2.253c3.155,1.377,4.755,3.108,4.755,5.146c0,3.498-1.438,6.11-4.398,7.991
	c-2.961,1.882-6.12,2.881-9.246,2.881c-7.536,0-12.159-3.601-14.136-10.969c-0.546-2.15-2.754-3.243-6.561-3.243
	c-4.368,0-6.582,1.303-6.582,3.87c0.022,0.424,0.11,0.842,0.261,1.239c1.775,5.964,5.301,10.326,10.5,12.969
	c5.137,2.612,10.824,3.959,16.587,3.931c5.46,0,11.304-1.471,17.37-4.365c6.225-2.967,9.378-7.899,9.378-14.658
	C553.375,424.607,550.837,420.245,545.833,417.071z"/>
</svg>
