<svg id="list_2_" data-name="list (2)" xmlns="http://www.w3.org/2000/svg" width="20.434" height="27.244" viewBox="0 0 20.434 27.244">
  <path id="Path_14901" data-name="Path 14901" d="M20.6,27.244H9.243a.568.568,0,0,1-.568-.568V23.271a1.7,1.7,0,0,0-1.7-1.7H3.568A.568.568,0,0,1,3,21V2.838A2.842,2.842,0,0,1,5.838,0H20.6a2.842,2.842,0,0,1,2.838,2.838V24.406A2.842,2.842,0,0,1,20.6,27.244ZM9.811,26.109H20.6a1.7,1.7,0,0,0,1.7-1.7V2.838a1.7,1.7,0,0,0-1.7-1.7H5.838a1.7,1.7,0,0,0-1.7,1.7v17.6H6.973a2.842,2.842,0,0,1,2.838,2.838Z" transform="translate(-2.999)" fill="#fff"/>
  <path id="Path_14902" data-name="Path 14902" d="M9.244,24.811a.572.572,0,0,1-.4-.166L3.166,18.969a.568.568,0,0,1,.4-.969H6.973a2.842,2.842,0,0,1,2.838,2.838v3.406a.568.568,0,0,1-.351.524A.56.56,0,0,1,9.244,24.811ZM4.938,19.135l3.738,3.738V20.838a1.7,1.7,0,0,0-1.7-1.7Z" transform="translate(-3 2.433)" fill="#fff"/>
  <path id="Path_14903" data-name="Path 14903" d="M17.919,7.541H7.7A1.7,1.7,0,0,1,6,5.838V4.7A1.7,1.7,0,0,1,7.7,3H17.919a1.7,1.7,0,0,1,1.7,1.7V5.838A1.7,1.7,0,0,1,17.919,7.541ZM7.7,4.135a.568.568,0,0,0-.568.568V5.838a.568.568,0,0,0,.568.568H17.919a.568.568,0,0,0,.568-.568V4.7a.568.568,0,0,0-.568-.568Z" transform="translate(-2.594 0.406)" fill="#fff"/>
  <path id="Path_14904" data-name="Path 14904" d="M17.784,10.135H7.568A.568.568,0,1,1,7.568,9H17.784a.568.568,0,0,1,0,1.135Z" transform="translate(-2.459 1.217)" fill="#fff"/>
  <path id="Path_14905" data-name="Path 14905" d="M17.784,13.135H7.568a.568.568,0,1,1,0-1.135H17.784a.568.568,0,0,1,0,1.135Z" transform="translate(-2.459 1.622)" fill="#fff"/>
  <path id="Path_14906" data-name="Path 14906" d="M17.784,16.135H7.568a.568.568,0,1,1,0-1.135H17.784a.568.568,0,0,1,0,1.135Z" transform="translate(-2.459 2.028)" fill="#fff"/>
</svg>
