<svg id="inbox" xmlns="http://www.w3.org/2000/svg" width="30.522" height="27.244" viewBox="0 0 30.522 27.244">
  <path id="Path_14899" data-name="Path 14899" d="M30.337,80.945l-2.971-6.513a4.013,4.013,0,0,0-3.643-2.342H21.831a.74.74,0,1,0,0,1.481h1.892a2.529,2.529,0,0,1,2.3,1.476l2.576,5.648H22a.74.74,0,0,0-.672.43L20.056,83.89a2.53,2.53,0,0,1-2.29,1.466H12.619a2.531,2.531,0,0,1-2.29-1.466L9.052,81.125a.741.741,0,0,0-.672-.43H2.021l3.121-5.8a2.519,2.519,0,0,1,2.221-1.327H8.69a.74.74,0,1,0,0-1.481H7.363A4,4,0,0,0,3.838,74.2L.229,80.9a.738.738,0,0,0-.23.536c0,.013,0,.026,0,.039s0,.026,0,.038v6.86a5.641,5.641,0,0,0,5.635,5.635H24.887a5.641,5.641,0,0,0,5.635-5.635v-6.86c0-.013,0-.025,0-.038s0-.026,0-.039a.737.737,0,0,0-.185-.49Zm-1.3,7.427a4.159,4.159,0,0,1-4.154,4.155H5.635A4.159,4.159,0,0,1,1.48,88.372v-6.2H7.907l1.078,2.335a4.015,4.015,0,0,0,3.635,2.326h5.146A4.015,4.015,0,0,0,21.4,84.511l1.078-2.335h6.563v6.2Zm0,0" transform="translate(0 -66.763)" fill="#fff"/>
  <path id="Path_14900" data-name="Path 14900" d="M141.694,9.2l4.055,3.28a.74.74,0,0,0,.936,0l3.992-3.28a.74.74,0,0,0-.94-1.144l-2.781,2.286V.881a.74.74,0,1,0-1.481,0v9.476l-2.849-2.3a.74.74,0,0,0-.931,1.151Zm0,0" transform="translate(-130.954 -0.141)" fill="#fff"/>
</svg>
