<svg id="mychallengeImg" xmlns="http://www.w3.org/2000/svg" width="51.114" height="49.653" viewBox="0 0 51.114 49.653">
  <path id="Path_248" data-name="Path 248" d="M205.688,239.992h9.992v13.449h-9.992Zm0,0" transform="translate(-185.154 -216.033)" fill="#ff9155"/>
  <path id="Path_249" data-name="Path 249" d="M151.984,375.633h20.768V386.66H151.984Zm0,0" transform="translate(-136.811 -338.133)" fill="#a5dc69"/>
  <path id="Path_250" data-name="Path 250" d="M10.059,412.98H24.227v7.3H10.059Zm0,0" transform="translate(-9.054 -371.751)" fill="#07689f"/>
  <path id="Path_251" data-name="Path 251" d="M371.439,439h2.745v4.7H360.015V439h3.414" transform="translate(-324.074 -395.17)" fill="#a2d5f2"/>
  <path id="Path_252" data-name="Path 252" d="M102.9,58.538a2,2,0,0,0-2.823.186l-.284.324a2,2,0,0,0,.186,2.823l2.41,2.112,3.141-3.141Zm0,0" transform="translate(-89.382 -52.248)" fill="#ffcdac"/>
  <path id="Path_253" data-name="Path 253" d="M146.352,91.22l5.814-5.094,3.141,3.141-3.3,2.891a10.963,10.963,0,0,0-3.495,5.949l-.718,3.353H137.8l-.707-3.339a10.961,10.961,0,0,0-3.5-5.973l-3.322-2.911,3.141-3.141,5.846,5.122" transform="translate(-117.268 -77.502)" fill="#f5b955"/>
  <path id="Path_254" data-name="Path 254" d="M355.329,59.049l-.284-.324a2,2,0,0,0-2.823-.186l-2.663,2.333,3.142,3.141,2.443-2.141a2,2,0,0,0,.186-2.823Zm0,0" transform="translate(-314.661 -52.248)" fill="#ffcdac"/>
  <path id="Path_255" data-name="Path 255" d="M200.439,15.75a6.911,6.911,0,1,1-6.911-6.911,6.911,6.911,0,0,1,6.911,6.911Zm0,0" transform="translate(-167.986 -7.957)" fill="#ffcdac"/>
  <path id="Path_256" data-name="Path 256" d="M125.012,276.583a1,1,0,0,0,1,1h2.453a1,1,0,0,0,0-2.008h-2.453A1,1,0,0,0,125.012,276.583Zm0,0" transform="translate(-112.532 -248.067)"/>
  <path id="Path_257" data-name="Path 257" d="M131.346,223.064a1,1,0,0,0,.71-1.714l-1.734-1.734a1,1,0,0,0-1.42,1.42l1.734,1.734A1,1,0,0,0,131.346,223.064Zm0,0" transform="translate(-115.768 -197.426)"/>
  <path id="Path_258" data-name="Path 258" d="M130.639,313.592l-1.734,1.734a1,1,0,0,0,1.42,1.42l1.734-1.734a1,1,0,0,0-1.42-1.42Zm0,0" transform="translate(-115.771 -282.021)"/>
  <path id="Path_259" data-name="Path 259" d="M345.074,276.583a1,1,0,0,0-1-1h-2.452a1,1,0,1,0,0,2.008h2.452A1,1,0,0,0,345.074,276.583Zm0,0" transform="translate(-306.609 -248.067)"/>
  <path id="Path_260" data-name="Path 260" d="M345.922,222.769l1.734-1.734a1,1,0,0,0-1.42-1.42l-1.734,1.734a1,1,0,0,0,1.42,1.42Zm0,0" transform="translate(-309.845 -197.426)"/>
  <path id="Path_261" data-name="Path 261" d="M344.5,313.592a1,1,0,0,0,0,1.42l1.734,1.734a1,1,0,0,0,1.42-1.42l-1.734-1.734A1,1,0,0,0,344.5,313.592Zm0,0" transform="translate(-309.846 -282.021)"/>
  <path id="Path_262" data-name="Path 262" d="M50.109,42.943H47.364a1,1,0,0,0,0,2.008H49.1v2.692H36.944V44.951h2.41a1,1,0,0,0,0-2.008h-2.41V37.622a1,1,0,0,0-1-1H31.53V24.186l.7-3.25a10.024,10.024,0,0,1,3.175-5.4l3.3-2.891,2.443-2.14a3.005,3.005,0,0,0,.28-4.241l-.284-.324a3.008,3.008,0,0,0-4.241-.28L34.235,7.99l-.819.717c.026-.261.039-.525.039-.792a7.915,7.915,0,0,0-15.83,0q0,.4.04.8l-.858-.751-2.63-2.3a3.008,3.008,0,0,0-4.241.28l-.284.324a3.009,3.009,0,0,0,.28,4.241l2.41,2.112,3.323,2.911a10.018,10.018,0,0,1,3.179,5.426l.686,3.236V36.617H15.172a1,1,0,0,0-1,1v2.724H1a1,1,0,0,0-1,1v7.3a1,1,0,0,0,1,1H50.109a1,1,0,0,0,1-1v-4.7a1,1,0,0,0-1-1ZM25.53,31.526a1,1,0,0,0-1,1v3.995H21.538V25.084h7.984V36.525H26.534V32.53A1,1,0,0,0,25.53,31.526ZM38.221,7.167a1,1,0,0,1,1.406.093l.284.324a1,1,0,0,1-.093,1.407l-1.736,1.521L36.365,8.793Zm-18.587.748a5.907,5.907,0,1,1,10.6,3.578l-1.771,1.552a5.9,5.9,0,0,1-5.869-.011l-1.741-1.526a5.875,5.875,0,0,1-1.223-3.594Zm-8.471-.331.284-.324a1,1,0,0,1,1.406-.093l1.823,1.6-1.718,1.718-1.7-1.492a1,1,0,0,1-.093-1.407Zm5.825,6.429-2.515-2.2,1.718-1.718L19.4,12.9a7.906,7.906,0,0,0,12.3-.019l3.154-2.763,1.718,1.718-2.493,2.185a12.041,12.041,0,0,0-3.815,6.494l-.548,2.559H21.347l-.539-2.543a12.04,12.04,0,0,0-3.82-6.52ZM2.008,42.354h12.16v5.29H2.008Zm14.169-3.728h18.76v9.018H16.176Zm0,0" transform="translate(0.001 0.001)" fill="#4d4d4d"/>
  <path id="Path_264" data-name="Path 264" d="M424.98,432.089l.022.007a1,1,0,0,0,.578-1.924l-.022-.006a1,1,0,1,0-.578,1.923Zm0,0" transform="translate(-381.909 -387.182)"/>
  <path id="Path_265" data-name="Path 265" d="M246.46,275.592l-.022-.007a1,1,0,1,0-.579,1.923l.022.007a1,1,0,1,0,.579-1.923Zm0,0" transform="translate(-220.671 -248.035)"/>
</svg>
