<svg id="network" xmlns="http://www.w3.org/2000/svg" width="30" height="30" viewBox="0 0 30 30">
  <g id="Group_692" data-name="Group 692" transform="translate(9)">
    <g id="Group_691" data-name="Group 691">
      <path id="Path_372" data-name="Path 372" d="M152.353,6.084a3.5,3.5,0,1,0-4.706,0A4.506,4.506,0,0,0,144,10.5v2a.5.5,0,0,0,.5.5h11a.5.5,0,0,0,.5-.5v-2A4.506,4.506,0,0,0,152.353,6.084ZM147.5,3.5A2.5,2.5,0,1,1,150,6,2.5,2.5,0,0,1,147.5,3.5ZM155,12H145V10.5A3.5,3.5,0,0,1,148.5,7h3a3.5,3.5,0,0,1,3.5,3.5Z" transform="translate(-144)" fill="#7b65c5"/>
    </g>
  </g>
  <g id="Group_694" data-name="Group 694" transform="translate(0 17)">
    <g id="Group_693" data-name="Group 693">
      <path id="Path_373" data-name="Path 373" d="M8.353,278.083a3.5,3.5,0,1,0-4.706,0A4.506,4.506,0,0,0,0,282.5v2a.5.5,0,0,0,.5.5h11a.5.5,0,0,0,.5-.5v-2A4.506,4.506,0,0,0,8.353,278.083ZM3.5,275.5A2.5,2.5,0,1,1,6,278,2.5,2.5,0,0,1,3.5,275.5ZM11,284H1v-1.5A3.5,3.5,0,0,1,4.5,279h3a3.5,3.5,0,0,1,3.5,3.5Z" transform="translate(0 -272)" fill="#7b65c5"/>
    </g>
  </g>
  <g id="Group_696" data-name="Group 696" transform="translate(18 17)">
    <g id="Group_695" data-name="Group 695">
      <path id="Path_374" data-name="Path 374" d="M296.353,278.083a3.5,3.5,0,1,0-4.706,0A4.506,4.506,0,0,0,288,282.5v2a.5.5,0,0,0,.5.5h11a.5.5,0,0,0,.5-.5v-2A4.506,4.506,0,0,0,296.353,278.083ZM291.5,275.5A2.5,2.5,0,1,1,294,278,2.5,2.5,0,0,1,291.5,275.5ZM299,284H289v-1.5a3.5,3.5,0,0,1,3.5-3.5h3a3.5,3.5,0,0,1,3.5,3.5Z" transform="translate(-288 -272)" fill="#7b65c5"/>
    </g>
  </g>
  <g id="Group_698" data-name="Group 698" transform="translate(2.011 15.984)">
    <g id="Group_697" data-name="Group 697">
      <path id="Path_375" data-name="Path 375" d="M33.167,255.744l-1,.039c.014.344.041.693.082,1.036l.993-.119C33.205,256.384,33.18,256.062,33.167,255.744Z" transform="translate(-32.168 -255.744)" fill="#7b65c5"/>
    </g>
  </g>
  <g id="Group_700" data-name="Group 700" transform="translate(2.011 13.949)">
    <g id="Group_699" data-name="Group 699">
      <path id="Path_376" data-name="Path 376" d="M32.25,223.176c-.041.341-.068.69-.082,1.036l1,.039c.013-.32.038-.642.076-.957Z" transform="translate(-32.168 -223.176)" fill="#7b65c5"/>
    </g>
  </g>
  <g id="Group_702" data-name="Group 702" transform="translate(6.318 5.159)">
    <g id="Group_701" data-name="Group 701">
      <path id="Path_377" data-name="Path 377" d="M101.89,82.544c-.273.208-.543.431-.8.663l.669.744c.238-.214.486-.42.739-.612Z" transform="translate(-101.088 -82.544)" fill="#7b65c5"/>
    </g>
  </g>
  <g id="Group_704" data-name="Group 704" transform="translate(2.829 9.965)">
    <g id="Group_703" data-name="Group 703">
      <path id="Path_378" data-name="Path 378" d="M45.661,159.44c-.147.313-.283.634-.4.959l.936.352c.112-.3.238-.6.373-.884Z" transform="translate(-45.256 -159.44)" fill="#7b65c5"/>
    </g>
  </g>
  <g id="Group_706" data-name="Group 706" transform="translate(2.256 11.912)">
    <g id="Group_705" data-name="Group 705">
      <path id="Path_379" data-name="Path 379" d="M36.334,190.584c-.1.33-.177.671-.246,1.01l.981.2c.063-.312.139-.626.227-.932Z" transform="translate(-36.088 -190.584)" fill="#7b65c5"/>
    </g>
  </g>
  <g id="Group_708" data-name="Group 708" transform="translate(4.888 6.549)">
    <g id="Group_707" data-name="Group 707">
      <path id="Path_380" data-name="Path 380" d="M78.894,104.776c-.24.252-.47.515-.686.781l.777.629c.2-.246.412-.489.633-.722Z" transform="translate(-78.208 -104.776)" fill="#7b65c5"/>
    </g>
  </g>
  <g id="Group_710" data-name="Group 710" transform="translate(7.97 4.036)">
    <g id="Group_709" data-name="Group 709">
      <path id="Path_381" data-name="Path 381" d="M128.409,64.568c-.3.162-.6.339-.9.528l.542.841c.27-.174.548-.338.826-.487Z" transform="translate(-127.512 -64.568)" fill="#7b65c5"/>
    </g>
  </g>
  <g id="Group_712" data-name="Group 712" transform="translate(3.714 8.163)">
    <g id="Group_711" data-name="Group 711">
      <path id="Path_382" data-name="Path 382" d="M59.977,130.6c-.2.285-.382.581-.553.881l.868.5c.158-.276.33-.549.511-.813Z" transform="translate(-59.424 -130.6)" fill="#7b65c5"/>
    </g>
  </g>
  <g id="Group_714" data-name="Group 714" transform="translate(12.434 27.266)">
    <g id="Group_713" data-name="Group 713">
      <path id="Path_383" data-name="Path 383" d="M199.133,436.256l-.2.98c.337.068.682.122,1.028.163l.116-.993C199.762,436.369,199.443,436.319,199.133,436.256Z" transform="translate(-198.936 -436.256)" fill="#7b65c5"/>
    </g>
  </g>
  <g id="Group_716" data-name="Group 716" transform="translate(16.453 27.26)">
    <g id="Group_715" data-name="Group 715">
      <path id="Path_384" data-name="Path 384" d="M264.188,436.16c-.31.063-.629.114-.948.154l.121.993c.345-.042.69-.1,1.026-.166Z" transform="translate(-263.24 -436.16)" fill="#7b65c5"/>
    </g>
  </g>
  <g id="Group_718" data-name="Group 718" transform="translate(14.497 27.49)">
    <g id="Group_717" data-name="Group 717">
      <path id="Path_385" data-name="Path 385" d="M232.952,439.84c-.32.013-.643.014-.96,0l-.04,1c.167.007.335.01.5.01s.357,0,.535-.011Z" transform="translate(-231.952 -439.84)" fill="#7b65c5"/>
    </g>
  </g>
  <g id="Group_720" data-name="Group 720" transform="translate(23.016 5.827)">
    <g id="Group_719" data-name="Group 719">
      <path id="Path_386" data-name="Path 386" d="M368.924,93.224l-.668.744c.238.214.469.439.688.669l.726-.687C369.433,93.7,369.182,93.456,368.924,93.224Z" transform="translate(-368.256 -93.224)" fill="#7b65c5"/>
    </g>
  </g>
  <g id="Group_722" data-name="Group 722" transform="translate(24.337 7.333)">
    <g id="Group_721" data-name="Group 721">
      <path id="Path_387" data-name="Path 387" d="M390.162,117.32l-.778.629c.2.247.393.506.574.77l.824-.565C390.586,117.868,390.378,117.588,390.162,117.32Z" transform="translate(-389.384 -117.32)" fill="#7b65c5"/>
    </g>
  </g>
  <g id="Group_724" data-name="Group 724" transform="translate(26.991 14.986)">
    <g id="Group_723" data-name="Group 723">
      <path id="Path_388" data-name="Path 388" d="M432.847,239.776l-1,.039c.006.158.009.317.009.475s0,.324-.009.486l1,.039q.011-.261.01-.525C432.857,240.118,432.854,239.946,432.847,239.776Z" transform="translate(-431.848 -239.776)" fill="#7b65c5"/>
    </g>
  </g>
  <g id="Group_726" data-name="Group 726" transform="translate(25.42 9.046)">
    <g id="Group_725" data-name="Group 725">
      <path id="Path_389" data-name="Path 389" d="M407.588,144.736l-.868.5c.158.277.307.563.443.851l.9-.427C407.921,145.345,407.76,145.035,407.588,144.736Z" transform="translate(-406.72 -144.736)" fill="#7b65c5"/>
    </g>
  </g>
  <g id="Group_728" data-name="Group 728" transform="translate(26.237 10.926)">
    <g id="Group_727" data-name="Group 727">
      <path id="Path_390" data-name="Path 390" d="M420.72,174.816l-.936.352c.112.3.213.6.3.911l.962-.276C420.952,175.471,420.841,175.139,420.72,174.816Z" transform="translate(-419.784 -174.816)" fill="#7b65c5"/>
    </g>
  </g>
  <g id="Group_730" data-name="Group 730" transform="translate(26.764 12.924)">
    <g id="Group_729" data-name="Group 729">
      <path id="Path_391" data-name="Path 391" d="M429.2,206.776l-.98.2c.063.313.114.632.151.948l.993-.118C429.328,207.461,429.272,207.116,429.2,206.776Z" transform="translate(-428.224 -206.776)" fill="#7b65c5"/>
    </g>
  </g>
  <g id="Group_732" data-name="Group 732" transform="translate(21.492 4.565)">
    <g id="Group_731" data-name="Group 731">
      <path id="Path_392" data-name="Path 392" d="M344.414,73.04l-.542.841c.267.172.531.357.785.552l.607-.8C344.989,73.427,344.7,73.227,344.414,73.04Z" transform="translate(-343.872 -73.04)" fill="#7b65c5"/>
    </g>
  </g>
  <g id="Group_734" data-name="Group 734" transform="translate(19.802 3.583)">
    <g id="Group_733" data-name="Group 733">
      <path id="Path_393" data-name="Path 393" d="M317.224,57.328l-.4.916c.292.128.581.269.863.42l.473-.881C317.856,57.618,317.541,57.465,317.224,57.328Z" transform="translate(-316.824 -57.328)" fill="#7b65c5"/>
    </g>
  </g>
</svg>
