<svg xmlns="http://www.w3.org/2000/svg" width="58" height="58" viewBox="0 0 58 58">
  <g id="business" transform="translate(-1 -1)">
    <path id="Path_266" data-name="Path 266" d="M35.735,37.016c.552,1.347,1.216,2.339,2.208,2.339,3.04,0,3.04-9.355,6.081-9.355s3.04,9.355,6.09,9.355c1.254,0,1.983-1.59,2.629-3.452h.009l7.185,19.355v.935H30a2.8,2.8,0,0,0,2.806-2.806V46.324Z" transform="translate(-1.871 -1.871)" fill="#b4dd7f"/>
    <path id="Path_267" data-name="Path 267" d="M38.338,38.839c-.992,0-1.656-.992-2.208-2.339l3.405-10.833a5.417,5.417,0,0,1,.748-1.487A5.234,5.234,0,0,1,44.428,22h.1a5.182,5.182,0,0,1,2.984.935,5.294,5.294,0,0,1,1.927,2.479l3.7,9.972h-.009c-.645,1.862-1.375,3.452-2.629,3.452-3.05,0-3.05-9.355-6.09-9.355s-3.04,9.355-6.081,9.355Z" transform="translate(-2.266 -1.355)" fill="#e6e9ed"/>
    <path id="Path_268" data-name="Path 268" d="M58.1,8.677,45,13.355V4h.935Z" transform="translate(-2.839 -0.194)" fill="#ff826e"/>
    <path id="Path_269" data-name="Path 269" d="M17.9,15.1a5.117,5.117,0,0,0,.084.935H5.742a3.742,3.742,0,0,1,0-7.484h.075a6.109,6.109,0,0,1-.075-.935A5.613,5.613,0,0,1,16.706,5.92a4.572,4.572,0,0,1,1.2-.178,4.689,4.689,0,0,1,4.6,3.835A5.615,5.615,0,0,0,17.9,15.1Z" transform="translate(-0.065 -0.065)" fill="#e6e9ed"/>
    <path id="Path_270" data-name="Path 270" d="M16.985,36h8.176l4.977,3.555A3.734,3.734,0,0,1,31.71,42.6v11.17a2.806,2.806,0,0,1-5.613,0v-8.85a.947.947,0,0,0-.421-.786l-2.385-1.59h-.935L19.127,57.862A3.1,3.1,0,0,1,13,57.226v-.271a3.116,3.116,0,0,1,.084-.73L14.815,49.1h2.863V37.871H16.62Z" transform="translate(-0.774 -2.258)" fill="#838f9b"/>
    <path id="Path_271" data-name="Path 271" d="M16.968,38V49.226H2V38l.711,1.431a7.6,7.6,0,0,0,6.773,4.182,7.577,7.577,0,0,0,6.773-4.182Z" transform="translate(-0.065 -2.387)" fill="#d3a06c"/>
    <path id="Path_272" data-name="Path 272" d="M15.911,38h1.057l-.711,1.431a7.567,7.567,0,0,1-10.749,3.05,7.471,7.471,0,0,1-2.8-3.05L2,38H15.911Z" transform="translate(-0.065 -2.387)" fill="#dfb28b"/>
    <path id="Path_273" data-name="Path 273" d="M39.677,14.292a2.312,2.312,0,0,1-.243,1.029l-3.508,7.007-.047.094a6.564,6.564,0,0,1-5.856,3.611H26.581L24.71,34.452H16.534l1.628-8.419a3.4,3.4,0,0,0-2.872,1.581l-4.9,7.7a2.191,2.191,0,0,1-1.843,1.01H8.189A2.192,2.192,0,0,1,6,34.134a2.132,2.132,0,0,1,.327-1.141l4.415-7.185a9.359,9.359,0,0,1,7.97-4.453H28.947A3.761,3.761,0,0,0,32.3,19.287l3-6.015A2.3,2.3,0,0,1,37.357,12h.028a2.3,2.3,0,0,1,2.292,2.292Z" transform="translate(-0.323 -0.71)" fill="#fcd770"/>
    <path id="Path_274" data-name="Path 274" d="M24.613,10a5.613,5.613,0,1,1-5.529,6.548A5.117,5.117,0,0,1,19,15.613a5.615,5.615,0,0,1,4.6-5.519A5.139,5.139,0,0,1,24.613,10Z" transform="translate(-1.161 -0.581)" fill="#f0d0b4"/>
    <path id="Path_275" data-name="Path 275" d="M48.047,23.732A6.2,6.2,0,0,0,43.1,19.774V13.82l14.852-5.3L43.271,2.871H41.226V19.8a6.143,6.143,0,0,0-4.851,4.232L31.667,39.009a4.676,4.676,0,0,0-1.755-2.471l-4.478-3.2,1.574-7.082H29.7a7.443,7.443,0,0,0,6.691-4.13l3.559-7.1a3.243,3.243,0,0,0-5.806-2.891l-3.009,6.019a2.789,2.789,0,0,1-2.51,1.551h-.6A6.543,6.543,0,0,0,23.452,8.484c-.109,0-.215.011-.324.017a5.6,5.6,0,0,0-5.289-3.759,4.887,4.887,0,0,0-.612.039A6.549,6.549,0,0,0,4.742,7.548c0,.032.007.063.007.094A4.677,4.677,0,0,0,5.677,16.9h11.5a6.545,6.545,0,0,0,1.7,2.806H18.39a10.357,10.357,0,0,0-8.764,4.9L5.206,31.79a3.1,3.1,0,0,0-.2,2.888H1v13.1H12.849L11.4,53.744a4.065,4.065,0,0,0-.113.949v.273a4.034,4.034,0,0,0,7.982.832l3.054-14.508,2.061,1.373v8.854a3.746,3.746,0,0,0,3.742,3.742H59V53.219ZM43.1,4.808l9.471,3.643L43.1,11.834ZM38.159,24.592a4.3,4.3,0,0,1,8.135-.208l3.587,9.655c-.313.873-.963,2.509-1.642,2.509-.841,0-1.6-2.33-2.153-4.031-.851-2.617-1.732-5.324-3.932-5.324s-3.08,2.706-3.93,5.324c-.553,1.7-1.31,4.031-2.15,4.031-.369,0-.786-.5-1.216-1.455ZM5.677,15.032a2.806,2.806,0,1,1,2.806-2.806h1.871A4.686,4.686,0,0,0,6.62,7.644c0-.032-.007-.064-.007-.1a4.677,4.677,0,0,1,9.136-1.414l.269.851.863-.23a3.644,3.644,0,0,1,4.382,2.112A6.554,6.554,0,0,0,16.9,15.032Zm13.1,0a4.677,4.677,0,1,1,4.677,4.677A4.683,4.683,0,0,1,18.774,15.032ZM6.613,33.426A1.248,1.248,0,0,1,6.8,32.77l4.42-7.183a8.475,8.475,0,0,1,7.17-4.007H28.623a4.651,4.651,0,0,0,4.183-2.586l3.009-6.019a1.372,1.372,0,1,1,2.459,1.216l-3.559,7.1a5.582,5.582,0,0,1-5.017,3.1H25.508l-1.872,8.419H17.343l1.63-8.419H17.839A4.323,4.323,0,0,0,14.174,26.4l-4.9,7.7a1.247,1.247,0,0,1-1.057.58H7.865a1.254,1.254,0,0,1-1.252-1.252Zm8.462,1.252H11.124L15.753,27.4a2.468,2.468,0,0,1,.893-.84Zm.314,1.871-.037.076a6.633,6.633,0,0,1-11.865,0l-.038-.076H15.39ZM2.871,39.057a8.46,8.46,0,0,0,13.1,0V45.9H2.871ZM26.258,51.516V42.662a1.867,1.867,0,0,0-.834-1.557L22.8,39.355H20.822l-3.38,16.057a2.164,2.164,0,0,1-4.281-.445v-.273a2.17,2.17,0,0,1,.061-.509l1.552-6.41h3.065v-13.1h6.248l4.738,3.385A2.811,2.811,0,0,1,30,40.346V51.516a1.871,1.871,0,0,1-3.742,0Zm5.093,1.871a3.7,3.7,0,0,0,.52-1.871V44.6l2.251-7.161a2.572,2.572,0,0,0,1.953.979c2.2,0,3.08-2.706,3.93-5.324.553-1.7,1.31-4.031,2.15-4.031s1.6,2.33,2.153,4.031c.851,2.617,1.731,5.324,3.932,5.324a3.076,3.076,0,0,0,2.578-1.858l6.249,16.826Z" fill="#4d4d4d"/>
    <path id="Path_276" data-name="Path 276" d="M56,53h1.871v1.871H56Z" transform="translate(-3.548 -3.355)"/>
    <path id="Path_277" data-name="Path 277" d="M52,53h1.871v1.871H52Z" transform="translate(-3.29 -3.355)"/>
    <path id="Path_278" data-name="Path 278" d="M48,53h1.871v1.871H48Z" transform="translate(-3.032 -3.355)"/>
  </g>
</svg>
