<svg xmlns="http://www.w3.org/2000/svg" width="29.167" height="28.5" viewBox="0 0 29.167 28.5">
  <g id="newspaper" transform="translate(0)">
    <g id="Group_511" data-name="Group 511">
      <path id="Path_239" data-name="Path 239" d="M28.418,7.638a.758.758,0,0,0-.756.756v20.06A3.845,3.845,0,0,1,23.82,32.3H5.354a3.845,3.845,0,0,1-3.842-3.842V6.813H23.638V26.274a.756.756,0,0,0,1.512,0V6.057a.758.758,0,0,0-.756-.756H.756A.758.758,0,0,0,0,6.057V28.447A5.357,5.357,0,0,0,5.354,33.8h18.46a5.357,5.357,0,0,0,5.354-5.354V8.393A.749.749,0,0,0,28.418,7.638Z" transform="translate(0 -5.301)" fill="#bfb0f3"/>
      <path id="Path_240" data-name="Path 240" d="M72.932,76.013a.756.756,0,0,0,0-1.512H56.456a.756.756,0,1,0,0,1.512Z" transform="translate(-52.192 -70.143)" fill="#bfb0f3"/>
      <path id="Path_241" data-name="Path 241" d="M72.932,319.1H56.456a.756.756,0,1,0,0,1.512h16.47a.756.756,0,0,0,.006-1.512Z" transform="translate(-52.192 -299.337)" fill="#bfb0f3"/>
      <path id="Path_242" data-name="Path 242" d="M111.818,380.6H97.956a.756.756,0,0,0,0,1.512h13.863a.756.756,0,1,0,0-1.512Z" transform="translate(-91.078 -356.963)" fill="#bfb0f3"/>
      <path id="Path_243" data-name="Path 243" d="M51.7,129.157v8.175a.758.758,0,0,0,.756.756h8.207a.758.758,0,0,0,.756-.756v-8.175a.758.758,0,0,0-.756-.756H52.456A.758.758,0,0,0,51.7,129.157Zm1.512.756h6.7v6.664h-6.7Z" transform="translate(-48.444 -120.648)" fill="#bfb0f3"/>
      <path id="Path_244" data-name="Path 244" d="M243.591,140.4h-5.435a.756.756,0,0,0,0,1.512h5.435a.756.756,0,0,0,0-1.512Z" transform="translate(-222.448 -131.892)" fill="#bfb0f3"/>
      <path id="Path_245" data-name="Path 245" d="M243.591,194.6h-5.435a.756.756,0,1,0,0,1.512h5.435a.756.756,0,1,0,0-1.512Z" transform="translate(-222.448 -182.678)" fill="#bfb0f3"/>
      <path id="Path_246" data-name="Path 246" d="M244.347,252.957a.758.758,0,0,0-.756-.756h-5.435a.756.756,0,0,0,0,1.512h5.435A.754.754,0,0,0,244.347,252.957Z" transform="translate(-222.448 -236.65)" fill="#bfb0f3"/>
    </g>
  </g>
</svg>
