<?xml version="1.0" encoding="utf-8"?>
<!-- Generator: Adobe Illustrator 16.0.0, SVG Export Plug-In . SVG Version: 6.00 Build 0)  -->
<!DOCTYPE svg PUBLIC "-//W3C//DTD SVG 1.1//EN" "http://www.w3.org/Graphics/SVG/1.1/DTD/svg11.dtd">
<svg version="1.1" id="Group_175" xmlns="http://www.w3.org/2000/svg" xmlns:xlink="http://www.w3.org/1999/xlink" x="0px" y="0px"
	 width="15px" height="17.727px" viewBox="0 0 15 17.727" enable-background="new 0 0 15 17.727" xml:space="preserve">
<g id="Icon_ionic-md-notifications-outline">
	<path id="Icon_ionic-md-notifications-outline-2" fill="#333399" d="M7.543,3.088c0.344,0.035,0.686,0.099,1.02,0.191
		c1.956,0.479,3.326,2.24,3.31,4.255v5.438l0.399,0.4l0.332,0.333H2.399l0.332-0.333l0.4-0.4V7.534
		C3.114,5.52,4.484,3.758,6.441,3.28C6.776,3.192,7.116,3.128,7.46,3.088 M7.503,0C6.785-0.015,6.19,0.554,6.175,1.272
		c0,0.018,0,0.035,0,0.054v0.619c-2.586,0.618-4.41,2.931-4.41,5.59v4.875L0,14.182v0.886h15v-0.886l-1.766-1.772V7.534
		c-0.002-2.658-1.826-4.968-4.412-5.584V1.325c0.018-0.718-0.551-1.313-1.269-1.33c-0.019-0.001-0.037-0.001-0.055,0L7.503,0z
		 M9.266,15.955H5.735c-0.023,0.975,0.748,1.783,1.723,1.807c0.974,0.022,1.783-0.748,1.806-1.723c0.001-0.028,0.001-0.057,0-0.084
		H9.266z"/>
</g>
</svg>
