<svg xmlns="http://www.w3.org/2000/svg" width="19.391" height="19.292" viewBox="0 0 19.391 19.292">
  <path id="notification" d="M18.628,15.1c-1.743-1.507-3.356-3.634-3.356-8.944a5.577,5.577,0,0,0-11.154,0c0,5.315-1.612,7.439-3.357,8.945A2.208,2.208,0,0,0,0,16.766a.634.634,0,0,0,.634.634h6.02a3.106,3.106,0,0,0,6.081,0h6.02a.634.634,0,0,0,.634-.634A2.2,2.2,0,0,0,18.628,15.1ZM9.7,18.6a1.84,1.84,0,0,1-1.724-1.2h3.448A1.84,1.84,0,0,1,9.7,18.6ZM1.519,16.132a.933.933,0,0,1,.074-.071c2.66-2.3,3.794-5.258,3.794-9.9a4.308,4.308,0,0,1,8.617,0c0,4.641,1.135,7.6,3.8,9.9a.942.942,0,0,1,.074.071Z" transform="translate(0 -0.58)" fill="#fff"/>
</svg>
