<svg id="check" xmlns="http://www.w3.org/2000/svg" width="64.25" height="64.25" viewBox="0 0 64.25 64.25">
  <g id="Group_7297" data-name="Group 7297">
    <g id="Group_7296" data-name="Group 7296">
      <path id="Path_15235" data-name="Path 15235" d="M60.235,30.117V50.2A10.039,10.039,0,0,1,50.2,60.234H14.055A10.039,10.039,0,0,1,4.016,50.2V14.055A10.039,10.039,0,0,1,14.055,4.016H34.133V0H14.055A14.055,14.055,0,0,0,0,14.055V50.2A14.055,14.055,0,0,0,14.055,64.25H50.2A14.055,14.055,0,0,0,64.25,50.2V30.117Z" fill="#494e9d"/>
      <path id="Path_15236" data-name="Path 15236" d="M103.491,86.71l-2.851,2.851,14.055,14.055a2.008,2.008,0,0,0,2.831,0l32.125-32.125L146.82,68.64l-30.7,30.72Z" transform="translate(-88.011 -60.026)" fill="#494e9d"/>
    </g>
  </g>
</svg>
