<svg xmlns="http://www.w3.org/2000/svg" width="55.864" height="40" viewBox="0 0 55.864 40">
  <g id="Group_1186" data-name="Group 1186" transform="translate(-879 -292.621)">
    <path id="Path_885" data-name="Path 885" d="M155.337,62.8l3.478,7.047a.447.447,0,0,0,.337.245l7.777,1.13a.448.448,0,0,1,.248.763l-5.628,5.485a.448.448,0,0,0-.129.4l1.328,7.746a.447.447,0,0,1-.649.472l-6.956-3.657a.449.449,0,0,0-.416,0l-6.956,3.657a.448.448,0,0,1-.65-.472l1.328-7.746a.446.446,0,0,0-.129-.4l-5.628-5.485a.448.448,0,0,1,.248-.763l7.777-1.13a.447.447,0,0,0,.337-.245l3.478-7.047A.448.448,0,0,1,155.337,62.8Zm0,0" transform="translate(751.996 236.844)" fill="#fad20a"/>
    <path id="Path_886" data-name="Path 886" d="M303.082,140l1.522.221a.447.447,0,0,1,.248.762Zm-3.858,6.469" transform="translate(614.321 167.838)" fill="#eeb900"/>
    <path id="Path_887" data-name="Path 887" d="M45.221,251.731a4.1,4.1,0,0,0,1.023-1.193c.022-.038.231-.54.254-.541-.022,0-.282-.477-.308-.513a4.1,4.1,0,0,0-1.14-1.082c-2.543-1.609-5.529-.32-7.018,2.029,1.722,2.184,4.824,3.161,7.189,1.3Zm0,0" transform="translate(845.119 71.905)" fill="#32c8f5"/>
    <path id="Path_889" data-name="Path 889" d="M14.141,174.206a4.1,4.1,0,0,0,1.29-.9c.031-.032.359-.465.381-.46-.022,0-.154-.532-.17-.573a4.089,4.089,0,0,0-.832-1.333c-2.058-2.2-5.272-1.7-7.3.2,1.118,2.546,3.877,4.27,6.633,3.062Zm0,0" transform="translate(872.312 141.565)" fill="#32c8f5"/>
    <path id="Path_891" data-name="Path 891" d="M106.263,313.672a4.1,4.1,0,0,0,.549-1.473c.007-.043.031-.587.051-.6-.02.009-.429-.349-.466-.375a4.1,4.1,0,0,0-1.443-.622c-2.942-.632-5.3,1.608-5.887,4.326,2.37,1.455,5.619,1.3,7.2-1.262Zm0,0" transform="translate(790.743 15.946)" fill="#32c8f5"/>
    <path id="Path_893" data-name="Path 893" d="M24.159,93.069a4.082,4.082,0,0,0,1.55-.254c.042-.015.525-.264.543-.251-.018-.014.09-.546.094-.591a4.093,4.093,0,0,0-.176-1.561c-.91-2.868-4.026-3.8-6.677-2.965-.088,2.78,1.658,5.524,4.666,5.622Zm0,0" transform="translate(861.637 214.924)" fill="#32c8f5"/>
    <path id="Path_895" data-name="Path 895" d="M83.885,14.392a4.1,4.1,0,0,0,.8,1.353c.029.033.436.393.43.415.006-.022.542-.113.584-.126a4.106,4.106,0,0,0,1.392-.729c2.345-1.887,2.09-5.129.348-7.3-2.623.924-4.55,3.545-3.553,6.384Zm0,0" transform="translate(804.506 285.433)" fill="#32c8f5"/>
    <path id="Path_897" data-name="Path 897" d="M397.651,251.731a4.1,4.1,0,0,1-1.022-1.193c-.022-.038-.231-.54-.254-.541.023,0,.282-.477.308-.513a4.1,4.1,0,0,1,1.14-1.082c2.543-1.609,5.53-.32,7.019,2.029-1.722,2.184-4.825,3.161-7.19,1.3Zm0,0" transform="translate(525.874 71.905)" fill="#32c8f5"/>
    <path id="Path_899" data-name="Path 899" d="M430.053,174.206a4.1,4.1,0,0,1-1.289-.9c-.031-.032-.359-.465-.381-.46.022,0,.153-.532.169-.573a4.1,4.1,0,0,1,.832-1.333c2.058-2.2,5.272-1.7,7.3.2-1.118,2.546-3.877,4.27-6.633,3.062Zm0,0" transform="translate(497.358 141.565)" fill="#32c8f5"/>
    <path id="Path_900" data-name="Path 900" d="M445.073,179.03" transform="translate(488.971 133.678)" fill="#009b5e"/>
    <path id="Path_901" data-name="Path 901" d="M342.081,313.672a4.1,4.1,0,0,1-.548-1.473c-.007-.043-.031-.587-.052-.6.021.009.43-.349.466-.375a4.1,4.1,0,0,1,1.443-.622c2.942-.632,5.3,1.608,5.887,4.326C346.907,316.389,343.658,316.235,342.081,313.672Zm0,0" transform="translate(574.778 15.946)" fill="#32c8f5"/>
    <path id="Path_903" data-name="Path 903" d="M431.751,93.069a4.085,4.085,0,0,1-1.551-.254c-.041-.015-.525-.264-.543-.251.018-.014-.091-.546-.094-.591a4.1,4.1,0,0,1,.176-1.561c.91-2.868,4.026-3.8,6.677-2.965.088,2.78-1.658,5.524-4.666,5.622Zm0,0" transform="translate(496.317 214.924)" fill="#32c8f5"/>
    <path id="Path_905" data-name="Path 905" d="M385.827,14.392a4.1,4.1,0,0,1-.8,1.353c-.029.033-.436.393-.43.415-.006-.022-.542-.113-.585-.126a4.1,4.1,0,0,1-1.392-.729c-2.344-1.887-2.09-5.129-.349-7.3,2.623.924,4.55,3.545,3.553,6.384Zm0,0" transform="translate(539.646 285.433)" fill="#32c8f5"/>
    <path id="Path_907" data-name="Path 907" d="M24.112,37.05A20.053,20.053,0,0,1,11.856,26.916a19.74,19.74,0,0,1-.974-2.247,20.06,20.06,0,0,1,.328-14.487c.132-.025.175-.034.227-.049a4.946,4.946,0,0,0,1.671-.875A5.324,5.324,0,0,0,15.12,5.084,6.877,6.877,0,0,0,13.582.809a.819.819,0,0,0-.911-.26A6.874,6.874,0,0,0,9.109,3.37a5.325,5.325,0,0,0-.492,4.608A4.943,4.943,0,0,0,9.575,9.6c.021.023.04.043.072.073q-.393.963-.69,1.959A5.353,5.353,0,0,0,6.424,9.584a6.878,6.878,0,0,0-4.542-.112.82.82,0,0,0-.572.755,6.876,6.876,0,0,0,1.34,4.341,5.325,5.325,0,0,0,4.118,2.126l.152,0a4.938,4.938,0,0,0,1.166-.142,21.64,21.64,0,0,0,.008,2.7,5.322,5.322,0,0,0-3.688-1.12A6.878,6.878,0,0,0,.259,19.991a.82.82,0,0,0-.191.928,6.878,6.878,0,0,0,3.081,3.34A5.323,5.323,0,0,0,7.78,24.4a4.913,4.913,0,0,0,1.084-.658,21.42,21.42,0,0,0,1.12,3.06A5.365,5.365,0,0,0,7,26.941a6.874,6.874,0,0,0-3.548,2.837.82.82,0,0,0,.048.946,6.877,6.877,0,0,0,3.82,2.46,5.623,5.623,0,0,0,1.214.135,5.3,5.3,0,0,0,3.306-1.158,4.908,4.908,0,0,0,.872-.892q.208.263.424.52a21.941,21.941,0,0,0,1.7,1.793A5.391,5.391,0,0,0,12.358,34.7a6.875,6.875,0,0,0-2.351,3.887.82.82,0,0,0,.372.871A7.019,7.019,0,0,0,14.005,40.5a6.05,6.05,0,0,0,.808-.054,5.324,5.324,0,0,0,3.888-2.52,4.9,4.9,0,0,0,.513-1.148,21.637,21.637,0,0,0,4.441,1.844.834.834,0,0,0,.229.032.82.82,0,0,0,.228-1.607ZM9.968,5.937a3.989,3.989,0,0,1,.354-1.37,4.7,4.7,0,0,1,2.336-2.246,4.172,4.172,0,0,1-.577,5.66c-.349.281-.923.725-1.359.448C10,7.969,9.914,6.692,9.968,5.937ZM8.01,21.815a1.065,1.065,0,0,1-.048.242,1.475,1.475,0,0,1-.84.846,4.172,4.172,0,0,1-5.286-2.1c-.072-.129,1.393-.742,1.542-.788A4.846,4.846,0,0,1,5.246,19.8a3.548,3.548,0,0,1,1.727.6C7.41,20.707,8.056,21.232,8.01,21.815ZM7.547,15a2.61,2.61,0,0,1-.726.059A4.171,4.171,0,0,1,2.957,10.88a4.171,4.171,0,0,1,5.068,2.586c.214.675.325,1.323-.478,1.531Zm4.04,14.94c-.059.374-.478.719-.755.936a4.172,4.172,0,0,1-5.646-.709,4.692,4.692,0,0,1,2.763-1.781c.959-.185,3.349.13,3.631,1.348a.531.531,0,0,1,.007.205Zm5.72,7.133a4.171,4.171,0,0,1-5.543,1.283,4.5,4.5,0,0,1,2.343-2.764c.783-.363,2.546-.784,3.3-.163a.763.763,0,0,1,.294.5,1.932,1.932,0,0,1-.4,1.144Zm0,0" transform="translate(879.001 292.119)" fill="#4d4d4d"/>
    <path id="Path_908" data-name="Path 908" d="M156.361,80.021a1.259,1.259,0,0,0,.5-1.239l-1.3-7.553,5.488-5.349a1.267,1.267,0,0,0-.7-2.16l-7.584-1.1-3.391-6.872a1.267,1.267,0,0,0-2.272,0l-1.394,2.824a.819.819,0,1,0,1.47.725l1.06-2.149,3.145,6.372a1.267,1.267,0,0,0,.954.693l7.032,1.022-5.088,4.96a1.267,1.267,0,0,0-.364,1.121l1.2,7-6.289-3.307a1.265,1.265,0,0,0-1.179,0l-6.289,3.307,1.2-7a1.266,1.266,0,0,0-.364-1.121l-5.088-4.96,7.032-1.022a1.268,1.268,0,0,0,.954-.693l.4-.8a.819.819,0,0,0-1.47-.725l-.311.63-7.583,1.1a1.267,1.267,0,0,0-.7,2.161l5.488,5.349-1.3,7.553a1.265,1.265,0,0,0,1.838,1.335l6.783-3.566,6.783,3.566a1.258,1.258,0,0,0,1.334-.1Zm0,0" transform="translate(758.688 243.533)" fill="#4d4d4d"/>
    <path id="Path_909" data-name="Path 909" d="M225.367,4.478a.819.819,0,0,0,1.621-.238l-.322-2.188a.819.819,0,0,0-1.621.238Zm0,0" transform="translate(678.518 291.362)" fill="#4d4d4d"/>
    <path id="Path_910" data-name="Path 910" d="M183.626,27.238a.82.82,0,0,0,1.394-.863l-1.107-1.788a.819.819,0,1,0-1.393.862Zm0,0" transform="translate(716.505 271.008)" fill="#4d4d4d"/>
    <path id="Path_911" data-name="Path 911" d="M270.853,5.17a.818.818,0,0,0,.93-.691l.322-2.188a.819.819,0,0,0-1.621-.238l-.322,2.188A.819.819,0,0,0,270.853,5.17Zm0,0" transform="translate(638.324 291.362)" fill="#4d4d4d"/>
    <path id="Path_912" data-name="Path 912" d="M305.989,27.5a.819.819,0,0,0,1.128-.266l1.107-1.788a.819.819,0,0,0-1.393-.863l-1.107,1.788A.819.819,0,0,0,305.989,27.5Zm0,0" transform="translate(606.743 271.008)" fill="#4d4d4d"/>
    <path id="Path_913" data-name="Path 913" d="M310.021,19.987a6.875,6.875,0,0,0-4.147-1.856,5.321,5.321,0,0,0-3.688,1.12,21.634,21.634,0,0,0,.008-2.7,4.931,4.931,0,0,0,1.165.142l.153,0a5.325,5.325,0,0,0,4.118-2.126,6.877,6.877,0,0,0,1.34-4.341.819.819,0,0,0-.572-.755,6.873,6.873,0,0,0-4.542.112,5.349,5.349,0,0,0-2.533,2.05q-.3-.995-.69-1.958c.032-.03.052-.05.072-.073a4.944,4.944,0,0,0,.958-1.626,5.325,5.325,0,0,0-.492-4.608,6.878,6.878,0,0,0-3.562-2.82.819.819,0,0,0-.911.26,6.873,6.873,0,0,0-1.539,4.274,5.323,5.323,0,0,0,2.012,4.174,4.941,4.941,0,0,0,1.671.876,2.284,2.284,0,0,0,.228.049,20.022,20.022,0,0,1-1.589,18.383,20.143,20.143,0,0,1-3.942,4.522,15.49,15.49,0,0,1-2.084,1.557c-.742.442-1.5.893-2.279,1.263a20.014,20.014,0,0,1-3.009,1.142.819.819,0,0,0,.228,1.606.833.833,0,0,0,.229-.032,21.637,21.637,0,0,0,4.441-1.844,4.894,4.894,0,0,0,.513,1.148,5.288,5.288,0,0,0,1.967,1.893.819.819,0,1,0,.791-1.435,3.677,3.677,0,0,1-1.362-1.317c-.4-.646-.526-1.364.289-1.684,2.284-.9,4.564.811,5.252,2.963a5.417,5.417,0,0,1-1.127.39.819.819,0,0,0,.18,1.618.809.809,0,0,0,.182-.02,7.093,7.093,0,0,0,2.151-.878.819.819,0,0,0,.372-.871,6.873,6.873,0,0,0-2.351-3.888,5.394,5.394,0,0,0-2.479-1.118,21.932,21.932,0,0,0,1.7-1.792c.145-.171.286-.345.425-.52a4.909,4.909,0,0,0,.871.892,5.3,5.3,0,0,0,3.306,1.158,5.6,5.6,0,0,0,1.213-.135,6.878,6.878,0,0,0,3.82-2.459.82.82,0,0,0,.049-.946,6.877,6.877,0,0,0-3.549-2.837A5.369,5.369,0,0,0,300.3,26.8a21.415,21.415,0,0,0,1.12-3.06,4.907,4.907,0,0,0,1.084.658,5.325,5.325,0,0,0,4.632-.144,6.876,6.876,0,0,0,3.081-3.34.82.82,0,0,0-.191-.927ZM300.249,6.947c-.1.52-.224,1.4-.884,1.494a1.514,1.514,0,0,1-1.167-.464,4.172,4.172,0,0,1-.577-5.66c.121-.185,1.595,1.135,1.723,1.286a4.155,4.155,0,0,1,.853,1.64A3.845,3.845,0,0,1,300.249,6.947Zm4.844,23.213a4.171,4.171,0,0,1-5.645.709,3.284,3.284,0,0,1-.8-.929l-.043-.1q.1-.157.207-.316a3.268,3.268,0,0,1,.741-.649A4.171,4.171,0,0,1,305.093,30.16Zm-2.839-16.7a4.171,4.171,0,0,1,5.068-2.586,4.171,4.171,0,0,1-3.864,4.176c-.438.015-1.143.02-1.333-.465a1.823,1.823,0,0,1,.129-1.126Zm.9,9.436a1.768,1.768,0,0,1-.98-.735c-.382-.834.892-1.583,1.436-1.893a3.928,3.928,0,0,1,1.442-.48,4.639,4.639,0,0,1,3.388,1,4.172,4.172,0,0,1-5.287,2.1Zm0,0" transform="translate(624.584 292.122)" fill="#4d4d4d"/>
  </g>
</svg>
