<svg id="man" xmlns="http://www.w3.org/2000/svg" width="26.999" height="36.873" viewBox="0 0 26.999 36.873">
  <path id="Path_2954" data-name="Path 2954" d="M341.82,153.369h-.614v3.682h.614a1.841,1.841,0,0,0,0-3.682Z" transform="translate(-321.57 -142.324)" fill="#fedac6"/>
  <path id="Path_2955" data-name="Path 2955" d="M136.715,155.211a1.841,1.841,0,0,0,1.841,1.841h.614V153.37h-.614A1.841,1.841,0,0,0,136.715,155.211Z" transform="translate(-131.806 -142.325)" fill="#f5c4b0"/>
  <path id="Path_2956" data-name="Path 2956" d="M159.4,18.953l.724-3.725a2.6,2.6,0,0,0-2.13-2.989,2.645,2.645,0,0,0-.434-.036h0a2.7,2.7,0,0,0-2.553-1.841H147.74l-1.227-1.841-.614.614a4.338,4.338,0,0,0,0,6.135h11.046Z" transform="translate(-139.149 -7.908)" fill="#fecb66"/>
  <path id="Path_2957" data-name="Path 2957" d="M98.585,342.029l-4.449-.614-4.179,2.411-4.179-2.387-4.449.614a4.909,4.909,0,0,0-4.258,4.841v6.75h25.772v-6.75A4.91,4.91,0,0,0,98.585,342.029Z" transform="translate(-76.458 -316.828)" fill="#dbdbdb"/>
  <path id="Path_2958" data-name="Path 2958" d="M206.334,285.539l-.5-.068v-4.3h-7.363v4.3l-.5.068,4.179,2.387Z" transform="translate(-188.656 -260.927)" fill="#fedac6"/>
  <g id="Group_3008" data-name="Group 3008" transform="translate(8.591 24.544)">
    <path id="Path_2959" data-name="Path 2959" d="M189.065,345.727l3.682-2.454-3.682-2.454h-1.227Z" transform="translate(-187.838 -340.818)" fill="#eaeaea"/>
    <path id="Path_2960" data-name="Path 2960" d="M256,343.272l3.682,2.454,1.227-4.909h-1.227Z" transform="translate(-251.092 -340.818)" fill="#eaeaea"/>
  </g>
  <path id="Path_2961" data-name="Path 2961" d="M230.44,384.718l.614-6.75-.614-1.841,1.841-1.227,1.841,1.227-.614,1.841.614,6.75" transform="translate(-218.781 -347.901)" fill="#2e6aa3"/>
  <path id="Path_2962" data-name="Path 2962" d="M212.242,284.575v-3.4h-7.363v3.4A8,8,0,0,0,212.242,284.575Z" transform="translate(-195.061 -260.927)" fill="#f5c4b0"/>
  <path id="Path_2963" data-name="Path 2963" d="M77.072,362.787v6.75h2.454v-11A4.908,4.908,0,0,0,77.072,362.787Z" transform="translate(-76.458 -332.72)" fill="#bfbfbf"/>
  <path id="Path_2964" data-name="Path 2964" d="M175.776,105.928v3.5a10.19,10.19,0,0,1-1.282,4.946h0a6.253,6.253,0,0,1-5.467,3.215h0a6.253,6.253,0,0,1-5.467-3.215h0a10.19,10.19,0,0,1-1.282-4.946v-7.179h11.045Z" transform="translate(-155.526 -94.883)" fill="#fedac6"/>
  <path id="Path_2965" data-name="Path 2965" d="M164.73,102.247h-2.454v7.179a10.19,10.19,0,0,0,1.282,4.946,6.207,6.207,0,0,0,2.675,2.54C164.117,110.838,164.73,102.247,164.73,102.247Z" transform="translate(-155.526 -94.884)" fill="#f5c4b0"/>
  <path id="Path_2966" data-name="Path 2966" d="M144.794,45.331a4.325,4.325,0,0,0,1.141,4.1h9.818C148.783,49.43,145.936,46.975,144.794,45.331Z" transform="translate(-139.186 -42.067)" fill="#f5ad76"/>
  <path id="Path_2967" data-name="Path 2967" d="M341.82,149.757h-.614V148.53h.614a1.227,1.227,0,0,0,0-2.454h-.614v-1.227h.614a2.454,2.454,0,0,1,0,4.909Z" transform="translate(-321.57 -134.417)"/>
  <path id="Path_2968" data-name="Path 2968" d="M131.263,149.757h-.614a2.454,2.454,0,0,1,0-4.909h.614v1.227h-.614a1.227,1.227,0,0,0,0,2.454h.614Z" transform="translate(-123.9 -134.417)"/>
  <path id="Path_2969" data-name="Path 2969" d="M232.9,164.625h-1.841a.614.614,0,0,1-.59-.782l1.227-4.3,1.18.337-1,3.513h1.027v1.227Z" transform="translate(-218.782 -148.057)"/>
  <path id="Path_2970" data-name="Path 2970" d="M161.113,110.3h0a6.869,6.869,0,0,1-6-3.531,10.826,10.826,0,0,1-1.36-5.243v-7.18a.614.614,0,0,1,.614-.614h11.045a.614.614,0,0,1,.511.273l2.454,3.682a.615.615,0,0,1,.1.341v3.5a10.837,10.837,0,0,1-1.36,5.243A6.869,6.869,0,0,1,161.113,110.3Zm0-1.227h0a5.643,5.643,0,0,0,4.93-2.9,9.6,9.6,0,0,0,1.205-4.648V98.209l-2.169-3.253h-10.1v6.566a9.6,9.6,0,0,0,1.205,4.648,5.641,5.641,0,0,0,4.929,2.9Z" transform="translate(-147.612 -86.978)"/>
  <path id="Path_2971" data-name="Path 2971" d="M239.678,234.816h-.718v-1.227h.718a3.559,3.559,0,0,0,2.53-1.048l.868.868A4.78,4.78,0,0,1,239.678,234.816Z" transform="translate(-226.688 -215.794)"/>
  <circle id="Ellipse_788" data-name="Ellipse 788" cx="1.227" cy="1.227" r="1.227" transform="translate(8.593 11.045)"/>
  <circle id="Ellipse_789" data-name="Ellipse 789" cx="1.227" cy="1.227" r="1.227" transform="translate(15.956 11.045)"/>
  <path id="Path_2972" data-name="Path 2972" d="M152.122,11.762l-1.211-.2.724-4.338a1.982,1.982,0,0,0-1.627-2.283,1.653,1.653,0,0,0-.332-.027h0a.612.612,0,0,1-.582-.419,2.08,2.08,0,0,0-1.972-1.422h-7.264a.614.614,0,0,1-.511-.273l-.812-1.218-.085.084a3.725,3.725,0,0,0,0,5.267l-.867.869a4.958,4.958,0,0,1,0-7L138.2.182a.614.614,0,0,1,.944.093l1.046,1.568h6.937A3.306,3.306,0,0,1,150.1,3.711l.113.017a3.209,3.209,0,0,1,2.634,3.7Z" transform="translate(-131.267 -0.002)"/>
  <path id="Path_2973" data-name="Path 2973" d="M69.779,313.556H68.552v-6.75a5.541,5.541,0,0,1,4.791-5.474l4.413-.586v-2.531h1.227v3.068a.614.614,0,0,1-.533.608l-4.946.657a4.309,4.309,0,0,0-3.726,4.257Z" transform="translate(-68.552 -276.74)"/>
  <path id="Path_2974" data-name="Path 2974" d="M309.034,313.564h-1.227v-6.75a4.308,4.308,0,0,0-3.726-4.257l-4.945-.657a.613.613,0,0,1-.533-.608v-3.068h1.227v2.531l4.412.586a5.541,5.541,0,0,1,4.792,5.474v6.749Z" transform="translate(-282.035 -276.747)"/>
  <rect id="Rectangle_749" data-name="Rectangle 749" width="1.227" height="4.909" transform="translate(4.911 31.908)"/>
  <rect id="Rectangle_750" data-name="Rectangle 750" width="1.227" height="4.909" transform="translate(20.865 31.908)"/>
  <path id="Path_2975" data-name="Path 2975" d="M181.4,344.435a.612.612,0,0,1-.6-.465l-1.227-4.909,1.19-.3,1.016,4.064,2.957-1.972.68,1.021-3.682,2.454A.613.613,0,0,1,181.4,344.435Z" transform="translate(-171.578 -314.368)"/>
  <path id="Path_2976" data-name="Path 2976" d="M196.732,337.023a.613.613,0,0,1-.3-.081l-4.3-2.454.609-1.065,3.991,2.281,3.991-2.281.609,1.065-4.3,2.454A.612.612,0,0,1,196.732,337.023Z" transform="translate(-183.232 -309.41)"/>
  <path id="Path_2977" data-name="Path 2977" d="M255.294,344.427a.617.617,0,0,1-.341-.1l-3.682-2.454.68-1.021,2.957,1.971,1.016-4.064,1.19.3-1.227,4.909a.613.613,0,0,1-.374.423A.591.591,0,0,1,255.294,344.427Z" transform="translate(-238.113 -314.36)"/>
  <path id="Path_2978" data-name="Path 2978" d="M223.175,398.081l-1.222-.112.6-6.622-.573-1.719,1.164-.388.614,1.841a.616.616,0,0,1,.029.25Z" transform="translate(-210.906 -361.208)"/>
  <path id="Path_2979" data-name="Path 2979" d="M265.13,398.088l-.614-6.75a.615.615,0,0,1,.029-.25l.614-1.841,1.163.388-.573,1.719.6,6.621Z" transform="translate(-250.402 -361.216)"/>
  <rect id="Rectangle_751" data-name="Rectangle 751" width="2.454" height="1.227" transform="translate(12.275 29.453)"/>
</svg>
