<svg id="pay" xmlns="http://www.w3.org/2000/svg" width="70.086" height="70.086" viewBox="0 0 70.086 70.086">
  <path id="Path_15230" data-name="Path 15230" d="M115.268,323.78,112.293,322a5.853,5.853,0,0,0-3-.829h-4.477a10.568,10.568,0,0,0-2.716.35l-13.49,3.621a4.7,4.7,0,0,0-3.176,2.946l-11.866-6.419a4.649,4.649,0,0,0-3.176-.525,4.382,4.382,0,0,0-1.181.388A4.593,4.593,0,0,0,67.2,323.4a4.681,4.681,0,0,0-.618,2.324,4.629,4.629,0,0,0,2.309,4.04l21.267,12.724a5.84,5.84,0,0,0,3.075.875h16.458a5.823,5.823,0,0,0,2.147-.409l3.427-1.353v1.762h11.681V320H115.268Zm-4.286,17a3.514,3.514,0,0,1-1.285.245H93.235a3.514,3.514,0,0,1-1.861-.535l-21.3-12.739a2.324,2.324,0,0,1-1.161-2.028,2.372,2.372,0,0,1,.313-1.168,2.3,2.3,0,0,1,1-.926,2.2,2.2,0,0,1,.584-.189,2.456,2.456,0,0,1,.448-.042,2.29,2.29,0,0,1,1.145.3l12.867,6.953c.015.071.015.141.034.213a4.684,4.684,0,0,0,4.516,3.458,11.485,11.485,0,0,0,1.925-.343l12.136-3.248-.6-2.257-12.1,3.233c-.533.123-1.22.263-1.362.275a2.336,2.336,0,0,1-2.258-1.721,2.132,2.132,0,0,1-.068-.432s-.009-.283,0-.382a2.361,2.361,0,0,1,1.719-2.06l13.485-3.608a8.164,8.164,0,0,1,2.11-.278h4.477a3.5,3.5,0,0,1,1.8.5l4.176,2.5v12.584Zm6.622-18.444h7.009v18.69H117.6Zm0,0" transform="translate(-56.863 -273.276)" fill="#ff9499"/>
  <path id="Path_15231" data-name="Path 15231" d="M48.177,9.345,41.911,3.079A10.44,10.44,0,0,0,34.478,0H19.792A5.88,5.88,0,0,0,17.18.616l-2.618,1.31a3.462,3.462,0,0,1-1.695.367l-1.187-.042V0H0V25.7H11.681v-3.5h1.986l.707.467A12.878,12.878,0,0,0,21.026,24.8V39.715H70.086V9.345ZM9.345,23.362H2.336V2.336H9.345Zm6.322-2.645-1.3-.86H11.681V4.588l1.1.039a5.864,5.864,0,0,0,2.824-.612l2.616-1.31a3.511,3.511,0,0,1,1.57-.37H34.478A8.122,8.122,0,0,1,40.26,4.73l4.614,4.614H35.235L32.4,6.51,30.748,8.161,39,16.413a2.342,2.342,0,0,1-3.306,3.32L28.8,12.841l-.818.7a6.191,6.191,0,0,1-7.873.116l-.677-.549-1.472,1.815.684.555a8.515,8.515,0,0,0,2.38,1.341v5.644a10.534,10.534,0,0,1-5.359-1.748Zm16.616-1.093,1.762,1.763a4.706,4.706,0,0,0,6.6.006,5.913,5.913,0,1,0,.664-.847,4.594,4.594,0,0,0,.383-4.192H57.334A7.028,7.028,0,0,0,63.078,22.1v4.866a7.028,7.028,0,0,0-5.744,5.744H33.778a7.028,7.028,0,0,0-5.744-5.744V22.1a6.973,6.973,0,0,0,4.249-2.473Zm9.769,4.906a3.5,3.5,0,1,1,3.5,3.5A3.5,3.5,0,0,1,42.052,24.53Zm25.7,12.849H23.362V17.31a8.494,8.494,0,0,0,5.256-1.343l1.993,1.993a4.661,4.661,0,0,1-3.745,1.9H25.7V29.2h1.168a4.673,4.673,0,0,1,4.672,4.672v1.168H59.573V33.875A4.673,4.673,0,0,1,64.246,29.2h1.168V19.858H64.246a4.673,4.673,0,0,1-4.672-4.672V14.017H39.907l-2.336-2.336H67.75Zm0,0" transform="translate(0 0)" fill="#ff9499"/>
</svg>
