<svg id="Group_1278" data-name="Group 1278" xmlns="http://www.w3.org/2000/svg" width="38.75" height="51.667" viewBox="0 0 38.75 51.667">
  <g id="Group_1277" data-name="Group 1277">
    <path id="Path_1143" data-name="Path 1143" d="M102.435,11.079,91.671.315A1.076,1.076,0,0,0,90.91,0h-22.6A4.31,4.31,0,0,0,64,4.306V47.361a4.31,4.31,0,0,0,4.306,4.305H98.444a4.31,4.31,0,0,0,4.305-4.306V11.84A1.075,1.075,0,0,0,102.435,11.079Zm-10.449-7.4,7.089,7.089H94.139a2.156,2.156,0,0,1-2.153-2.153ZM100.6,47.361a2.156,2.156,0,0,1-2.153,2.153H68.306a2.156,2.156,0,0,1-2.153-2.153V4.306a2.156,2.156,0,0,1,2.153-2.153H89.833V8.611a4.31,4.31,0,0,0,4.306,4.305H100.6Z" transform="translate(-64)" fill="#a4a4a4"/>
    <path id="Path_1144" data-name="Path 1144" d="M146.4,185.043a31.192,31.192,0,0,1-2.574-2.221c-.82-.82-1.551-1.615-2.185-2.371a24.1,24.1,0,0,0,1.424-5.479c0-3.573-1.291-4.306-3.229-4.306-1.473,0-3.229.765-3.229,4.409,0,1.606.88,3.556,2.624,5.822-.427,1.3-.928,2.8-1.492,4.5-.271.813-.566,1.565-.877,2.261-.253.113-.5.227-.737.346-.856.428-1.668.813-2.422,1.17C130.271,190.8,128,191.875,128,194c0,1.543,1.677,2.5,3.229,2.5,2,0,5.023-2.673,7.231-7.176a42.822,42.822,0,0,1,7.389-1.993c1.8,1.385,3.792,2.711,4.755,2.711,2.669,0,3.229-1.543,3.229-2.837,0-2.545-2.908-2.545-4.306-2.545A25.5,25.5,0,0,0,146.4,185.043Zm-15.176,9.3a1.7,1.7,0,0,1-1.076-.346c0-.763,2.276-1.842,4.477-2.884l.426-.2C133.439,193.26,131.84,194.347,131.229,194.347Zm7.535-19.272c0-2.256.7-2.256,1.076-2.256.761,0,1.076,0,1.076,2.153a17.259,17.259,0,0,1-.857,3.362A6.614,6.614,0,0,1,138.764,175.075Zm.825,11.569q.1-.281.2-.568c.4-1.2.759-2.275,1.08-3.244q.67.738,1.444,1.512c.2.2.7.656,1.369,1.225C142.35,185.857,140.939,186.216,139.589,186.644Zm12.092.56c0,.484,0,.684-1,.691a7.934,7.934,0,0,1-1.808-1.032c.3-.034.528-.05.654-.05C151.118,186.812,151.569,186.967,151.681,187.2Z" transform="translate(-121.542 -153.444)" fill="#cc4b4c"/>
  </g>
</svg>
