<svg id="pdf" xmlns="http://www.w3.org/2000/svg" width="23" height="23" viewBox="0 0 23 23">
  <path id="Path_14878" data-name="Path 14878" d="M23,19.4A3.6,3.6,0,0,1,19.4,23H3.6A3.6,3.6,0,0,1,0,19.4V4.681L4.681,0H19.4A3.6,3.6,0,0,1,23,3.6Z" fill="#e24c3f"/>
  <path id="Path_14879" data-name="Path 14879" d="M0,106.509V104H2.5Z" transform="translate(0 -99.319)" fill="#5d5d5d" opacity="0.2"/>
  <path id="Path_14880" data-name="Path 14880" d="M0,4.681H3.121a1.555,1.555,0,0,0,1.56-1.548V0Z" fill="#ff7063"/>
  <path id="Path_14881" data-name="Path 14881" d="M85.652,183.927V176.4H89.38a2.414,2.414,0,0,1,.943.173,1.845,1.845,0,0,1,.683.482,2.1,2.1,0,0,1,.412.737,3.024,3.024,0,0,1,.141.948,3.4,3.4,0,0,1-.135.975,2.279,2.279,0,0,1-.4.786,1.84,1.84,0,0,1-.677.52,2.285,2.285,0,0,1-.964.19h-2.5v2.72H85.652Zm1.225-6.4v2.536h2.081a1.461,1.461,0,0,0,1.046-.32,1.341,1.341,0,0,0,.33-1,1.126,1.126,0,0,0-.352-.932,1.609,1.609,0,0,0-1.024-.282H86.876Z" transform="translate(-81.797 -168.456)" fill="#ff7063"/>
  <path id="Path_14882" data-name="Path 14882" d="M232.535,173.831l1.181-.325v6.415a2.79,2.79,0,0,0,.022.368q.022.163.054.3t.1.276a1.984,1.984,0,0,0,.141.3h-1.246a1.643,1.643,0,0,1-.13-.293q-.044-.2-.065-.347a3.108,3.108,0,0,1-.742.547,1.876,1.876,0,0,1-.894.222,2.49,2.49,0,0,1-.992-.184,2.038,2.038,0,0,1-.721-.509,2.125,2.125,0,0,1-.439-.775,3.118,3.118,0,0,1-.146-.97v-.52a2.733,2.733,0,0,1,.726-2.07,2.944,2.944,0,0,1,2.113-.694,2.756,2.756,0,0,1,1.04.206v-1.951Zm0,3.045a1.621,1.621,0,0,0-.547-.2,3.373,3.373,0,0,0-.58-.054,1.977,1.977,0,0,0-.731.119,1.254,1.254,0,0,0-.488.336,1.281,1.281,0,0,0-.271.52,2.551,2.551,0,0,0-.081.661v.4a3.946,3.946,0,0,0,.043.591,1.425,1.425,0,0,0,.168.5.992.992,0,0,0,.341.352,1.048,1.048,0,0,0,.564.135,1.382,1.382,0,0,0,.45-.076,2.19,2.19,0,0,0,.428-.2,3,3,0,0,0,.7-.591v-2.5Z" transform="translate(-218.364 -165.697)" fill="#ff7063"/>
  <path id="Path_14883" data-name="Path 14883" d="M360.068,175.1a2.157,2.157,0,0,1,.081-.591A1.471,1.471,0,0,1,360.4,174a1.258,1.258,0,0,1,.455-.358,1.538,1.538,0,0,1,.672-.135,2.63,2.63,0,0,1,.417.038,3,3,0,0,1,.406.092v.932h-.434a.648.648,0,0,0-.5.184.727.727,0,0,0-.168.509v.444H362.3l-.314.975h-.737v4.486h-1.181v-4.486h-.683v-.975h.683V175.1Z" transform="translate(-343.209 -165.697)" fill="#ff7063"/>
  <path id="Path_14884" data-name="Path 14884" d="M85.652,177.927V170.4H89.38a2.414,2.414,0,0,1,.943.173,1.845,1.845,0,0,1,.683.482,2.1,2.1,0,0,1,.412.737,3.024,3.024,0,0,1,.141.948,3.4,3.4,0,0,1-.135.975,2.279,2.279,0,0,1-.4.786,1.839,1.839,0,0,1-.677.52,2.285,2.285,0,0,1-.964.19h-2.5v2.72H85.652Zm1.225-6.4v2.536h2.081a1.461,1.461,0,0,0,1.046-.32,1.341,1.341,0,0,0,.33-1,1.126,1.126,0,0,0-.352-.932,1.609,1.609,0,0,0-1.024-.282H86.876Z" transform="translate(-81.797 -162.727)" fill="#fff"/>
  <path id="Path_14885" data-name="Path 14885" d="M232.535,167.831l1.181-.325v6.415a2.79,2.79,0,0,0,.022.368q.022.163.054.3t.1.276a1.983,1.983,0,0,0,.141.3h-1.246a1.643,1.643,0,0,1-.13-.293q-.044-.2-.065-.347a3.108,3.108,0,0,1-.742.547,1.876,1.876,0,0,1-.894.222,2.49,2.49,0,0,1-.992-.184,2.038,2.038,0,0,1-.721-.509,2.124,2.124,0,0,1-.439-.775,3.118,3.118,0,0,1-.146-.97v-.52a2.733,2.733,0,0,1,.726-2.07,2.944,2.944,0,0,1,2.113-.694,2.756,2.756,0,0,1,1.04.206v-1.951Zm0,3.045a1.621,1.621,0,0,0-.547-.2,3.371,3.371,0,0,0-.58-.054,1.977,1.977,0,0,0-.731.119,1.254,1.254,0,0,0-.488.336,1.281,1.281,0,0,0-.271.52,2.551,2.551,0,0,0-.081.661v.4a3.946,3.946,0,0,0,.043.591,1.424,1.424,0,0,0,.168.5.992.992,0,0,0,.341.352,1.048,1.048,0,0,0,.564.135,1.382,1.382,0,0,0,.45-.076,2.192,2.192,0,0,0,.428-.2,3,3,0,0,0,.7-.591v-2.5Z" transform="translate(-218.364 -159.967)" fill="#fff"/>
  <path id="Path_14886" data-name="Path 14886" d="M360.068,169.1a2.158,2.158,0,0,1,.081-.591A1.47,1.47,0,0,1,360.4,168a1.258,1.258,0,0,1,.455-.358,1.538,1.538,0,0,1,.672-.135,2.63,2.63,0,0,1,.417.038,3,3,0,0,1,.406.092v.932h-.434a.648.648,0,0,0-.5.184.727.727,0,0,0-.168.509v.444H362.3l-.314.975h-.737v4.486h-1.181v-4.486h-.683v-.975h.683V169.1Z" transform="translate(-343.209 -159.967)" fill="#fff"/>
</svg>
