<svg xmlns="http://www.w3.org/2000/svg" width="52.319" height="52.319" viewBox="0 0 52.319 52.319">
  <g id="Group_7644" data-name="Group 7644" transform="translate(-914 -445)">
    <g id="Group_7442" data-name="Group 7442" transform="translate(-200 -1)">
      <rect id="Rectangle_550" data-name="Rectangle 550" width="52.319" height="52.319" rx="26.16" transform="translate(1114 446)" fill="#4dcebf"/>
    </g>
    <g id="telephone" transform="translate(928.716 460)">
      <g id="Group_7421" data-name="Group 7421" transform="translate(0.284 0)">
        <path id="Path_15426" data-name="Path 15426" d="M15.84,49.25c.1,0,.194.009.293.009a3.443,3.443,0,0,0,2.636-1.136l.018-.018a10.413,10.413,0,0,1,.825-.852c.2-.194.41-.392.6-.6a2.092,2.092,0,0,0-.009-3.114l-2.569-2.569a2.105,2.105,0,0,0-1.528-.7,2.172,2.172,0,0,0-1.541.694L13.05,42.482c-.135-.077-.275-.144-.41-.212-.171-.086-.329-.167-.469-.252A16.121,16.121,0,0,1,8.31,38.5a9.073,9.073,0,0,1-1.293-2.064c.4-.361.766-.735,1.122-1.1.131-.131.261-.266.4-.4a2.042,2.042,0,0,0,0-3.118L7.26,30.54c-.149-.149-.293-.3-.437-.442-.284-.288-.577-.59-.87-.861a2.127,2.127,0,0,0-1.519-.671,2.216,2.216,0,0,0-1.541.671l-1.6,1.6A3.335,3.335,0,0,0,.3,32.955,7.978,7.978,0,0,0,.9,36.389a20.1,20.1,0,0,0,3.56,5.939,21.974,21.974,0,0,0,7.3,5.714A11.323,11.323,0,0,0,15.84,49.25ZM5.309,41.621a18.987,18.987,0,0,1-3.371-5.615,6.834,6.834,0,0,1-.532-2.961,2.207,2.207,0,0,1,.671-1.433l1.591-1.591a1.126,1.126,0,0,1,.771-.356,1.084,1.084,0,0,1,.753.361c.284.266.559.545.847.838.144.149.293.3.446.451L7.76,32.59a.971.971,0,0,1,0,1.559c-.135.135-.27.27-.4.406-.4.4-.766.78-1.176,1.145l-.023.023a.86.86,0,0,0-.221.978c0,.014.009.023.014.036a10.2,10.2,0,0,0,1.505,2.447,17.187,17.187,0,0,0,4.132,3.763,6.375,6.375,0,0,0,.568.311c.171.086.329.167.469.252l.05.027a.942.942,0,0,0,.428.108.9.9,0,0,0,.653-.3l1.6-1.6a1.1,1.1,0,0,1,.762-.37,1.075,1.075,0,0,1,.739.37l2.578,2.578a1.012,1.012,0,0,1-.014,1.573c-.18.194-.37.374-.568.568a11.719,11.719,0,0,0-.9.928,2.323,2.323,0,0,1-1.816.766c-.072,0-.149,0-.221-.009a10.292,10.292,0,0,1-3.677-1.1A20.706,20.706,0,0,1,5.309,41.621Z" transform="translate(-0.284 -27.279)" fill="#fff"/>
        <path id="Path_15427" data-name="Path 15427" d="M254.464,89.108a.551.551,0,1,0-.185,1.086,6.09,6.09,0,0,1,4.961,4.961.551.551,0,0,0,.545.46.672.672,0,0,0,.095-.009.548.548,0,0,0,.451-.635,7.186,7.186,0,0,0-5.867-5.863Z" transform="translate(-242.396 -85.085)" fill="#fff"/>
        <path id="Path_15428" data-name="Path 15428" d="M267.712,10.341a.672.672,0,0,0,.095-.009.548.548,0,0,0,.451-.635A11.883,11.883,0,0,0,258.564.008a.551.551,0,1,0-.185,1.086,10.788,10.788,0,0,1,8.787,8.787A.551.551,0,0,0,267.712,10.341Z" transform="translate(-246.312 0)" fill="#fff"/>
      </g>
    </g>
  </g>
</svg>
