<svg xmlns="http://www.w3.org/2000/svg" width="17.166" height="14.155" viewBox="0 0 17.166 14.155">
  <g id="photo-camera" transform="translate(0 -58.396)">
    <g id="Group_1519" data-name="Group 1519" transform="translate(3.143 60.095)">
      <g id="Group_1518" data-name="Group 1518">
        <path id="Path_1245" data-name="Path 1245" d="M129.931,152.46a5.44,5.44,0,1,0,5.44,5.44A5.446,5.446,0,0,0,129.931,152.46Zm0,10.013A4.574,4.574,0,1,1,134.5,157.9,4.579,4.579,0,0,1,129.931,162.473Z" transform="translate(-124.491 -152.46)" fill="#5f4ba0"/>
      </g>
    </g>
    <g id="Group_1521" data-name="Group 1521" transform="translate(5.189 62.971)">
      <g id="Group_1520" data-name="Group 1520">
        <path id="Path_1246" data-name="Path 1246" d="M177.338,201.914a3.394,3.394,0,1,0,3.394,3.394A3.4,3.4,0,0,0,177.338,201.914Zm0,5.968a2.574,2.574,0,1,1,2.574-2.574A2.576,2.576,0,0,1,177.338,207.882Z" transform="translate(-173.944 -201.914)" fill="#5f4ba0"/>
      </g>
    </g>
    <g id="Group_1523" data-name="Group 1523" transform="translate(0 58.396)">
      <g id="Group_1522" data-name="Group 1522">
        <path id="Path_1247" data-name="Path 1247" d="M16.058,60.4h-4.52l-.462-1.343a.952.952,0,0,0-.885-.66H6.975a.952.952,0,0,0-.885.66L5.628,60.4H4.092v-.526a.747.747,0,0,0-.721-.77H2.308a.747.747,0,0,0-.721.77V60.4H1.108A1.149,1.149,0,0,0,0,61.584v9.783a1.149,1.149,0,0,0,1.108,1.184H16.058a1.149,1.149,0,0,0,1.108-1.184V61.584A1.149,1.149,0,0,0,16.058,60.4ZM6.783,59.328a.206.206,0,0,1,.192-.143h3.216a.206.206,0,0,1,.192.143l.368,1.071H6.415Zm-4.493.545a.019.019,0,0,1,.018-.02H3.372a.019.019,0,0,1,.018.02V60.4H2.29ZM.739,63.387H1.833v6.177H.739Zm15.688,7.98a.383.383,0,0,1-.369.395H1.108a.383.383,0,0,1-.369-.395V70.353H2.2a.383.383,0,0,0,.369-.395V62.992A.383.383,0,0,0,2.2,62.6H.739V61.584a.383.383,0,0,1,.369-.395H16.058a.383.383,0,0,1,.369.395V62.6H14.963a.383.383,0,0,0-.369.395v6.967a.383.383,0,0,0,.369.395h1.464v1.014Zm0-1.8H15.333V63.387h1.094Z" transform="translate(0 -58.396)" fill="#5f4ba0"/>
      </g>
    </g>
    <g id="Group_1525" data-name="Group 1525" transform="translate(7.039 64.873)">
      <g id="Group_1524" data-name="Group 1524">
        <path id="Path_1248" data-name="Path 1248" d="M217.132,243.425a1.679,1.679,0,0,0-1.677,1.677.41.41,0,1,0,.82,0,.857.857,0,0,1,.857-.857.41.41,0,0,0,0-.821Z" transform="translate(-215.455 -243.425)" fill="#5f4ba0"/>
      </g>
    </g>
  </g>
</svg>
