<svg xmlns="http://www.w3.org/2000/svg" width="19.582" height="16.971" viewBox="0 0 19.582 16.971">
  <g id="photo-camera_1_" data-name="photo-camera (1)" transform="translate(0 -36.54)">
    <g id="Group_665" data-name="Group 665" transform="translate(0 36.54)">
      <path id="Path_366" data-name="Path 366" d="M18.817,39.916a2.516,2.516,0,0,0-1.846-.765H14.687l-.52-1.387a1.894,1.894,0,0,0-.709-.862A1.816,1.816,0,0,0,12.4,36.54H7.18a1.817,1.817,0,0,0-1.056.362,1.9,1.9,0,0,0-.709.862L4.9,39.151H2.611a2.516,2.516,0,0,0-1.846.765A2.515,2.515,0,0,0,0,41.762V50.9a2.515,2.515,0,0,0,.765,1.846,2.515,2.515,0,0,0,1.846.765h14.36A2.612,2.612,0,0,0,19.582,50.9V41.762A2.515,2.515,0,0,0,18.817,39.916Zm-5.8,9.643A4.4,4.4,0,0,1,9.791,50.9a4.4,4.4,0,0,1-3.228-1.341,4.555,4.555,0,0,1,0-6.456,4.4,4.4,0,0,1,3.228-1.341A4.4,4.4,0,0,1,13.019,43.1a4.555,4.555,0,0,1,0,6.456Z" transform="translate(0 -36.54)" fill="#fff"/>
      <path id="Path_367" data-name="Path 367" d="M194.793,228.4a2.943,2.943,0,1,0,2.075.862A2.829,2.829,0,0,0,194.793,228.4Z" transform="translate(-185.002 -221.549)" fill="#fff"/>
    </g>
  </g>
</svg>
