<?xml version="1.0" encoding="utf-8"?>
<!-- Generator: Adobe Illustrator 14.0.0, SVG Export Plug-In . SVG Version: 6.00 Build 43363)  -->
<!DOCTYPE svg PUBLIC "-//W3C//DTD SVG 1.1//EN" "http://www.w3.org/Graphics/SVG/1.1/DTD/svg11.dtd">
<svg version="1.1" id="Layer_1" xmlns="http://www.w3.org/2000/svg" xmlns:xlink="http://www.w3.org/1999/xlink" x="0px" y="0px"
	 width="13.541px" height="13.541px" viewBox="0 0 13.541 13.541" enable-background="new 0 0 13.541 13.541" xml:space="preserve">
<g id="add-circular-outlined-button" transform="translate(-172.125 -172.125)">
	<g id="_x38__3_" transform="translate(172.125 172.125)">
		<g id="Group_1460" transform="translate(0 0)">
			<path id="Path_1215" fill="#FFFFFF" d="M12.575,5.803H7.739V0.967C7.739,0.433,7.306,0,6.772,0C6.238,0,5.805,0.433,5.805,0.967
				v4.836H0.969c-0.534,0-0.967,0.433-0.967,0.967c0,0.534,0.433,0.967,0.967,0.967h4.836v4.838c0,0.533,0.433,0.967,0.967,0.967
				c0.534,0,0.967-0.434,0.967-0.967V7.739h4.836c0.533,0,0.967-0.434,0.967-0.967c0-0.534-0.434-0.967-0.967-0.967V5.803z"/>
		</g>
	</g>
</g>
</svg>
