<svg xmlns="http://www.w3.org/2000/svg" width="20" height="16" viewBox="0 0 20 16">
  <path id="envelope" d="M18.125,59.882H1.875a1.943,1.943,0,0,0-1.875,2v12a1.943,1.943,0,0,0,1.875,2h16.25a1.943,1.943,0,0,0,1.875-2v-12A1.943,1.943,0,0,0,18.125,59.882Zm0,1.333a.588.588,0,0,1,.24.052L10,69,1.635,61.267a.589.589,0,0,1,.24-.052Zm0,13.333H1.875a.647.647,0,0,1-.625-.667V62.676l8.34,7.71a.6.6,0,0,0,.819,0l8.34-7.71V73.882A.647.647,0,0,1,18.125,74.549Z" transform="translate(0 -59.882)" fill="#5f4ba0"/>
</svg>
