<?xml version="1.0" encoding="utf-8"?>
<!-- Generator: Adobe Illustrator 14.0.0, SVG Export Plug-In . SVG Version: 6.00 Build 43363)  -->
<!DOCTYPE svg PUBLIC "-//W3C//DTD SVG 1.1//EN" "http://www.w3.org/Graphics/SVG/1.1/DTD/svg11.dtd">
<svg version="1.1" id="Layer_1" xmlns="http://www.w3.org/2000/svg" xmlns:xlink="http://www.w3.org/1999/xlink" x="0px" y="0px"
	 width="14.753px" height="21.348px" viewBox="3.798 0 14.753 21.348" enable-background="new 3.798 0 14.753 21.348"
	 xml:space="preserve">
<g>
	<g>
		<path fill="#5F4BA0" d="M17.464,19.492V1.851c0-0.892-0.726-1.621-1.621-1.621H6.505c-0.892,0-1.621,0.725-1.621,1.621v17.646
			c0,0.892,0.726,1.621,1.621,1.621h9.337C16.734,21.114,17.464,20.389,17.464,19.492z M5.93,3.989h10.484v11.873H5.93V3.989
			L5.93,3.989z M6.505,1.275h9.337c0.316,0,0.576,0.256,0.576,0.576v1.092H5.93V1.851C5.93,1.531,6.189,1.275,6.505,1.275z
			 M5.93,19.492v-2.591h10.484v2.591c0,0.314-0.255,0.575-0.576,0.575H6.505C6.189,20.068,5.93,19.812,5.93,19.492z"/>
		<path fill="#5F4BA0" d="M12.232,18.008h-2.12c-0.291,0-0.525,0.234-0.525,0.524c0,0.289,0.234,0.524,0.525,0.524h2.12
			c0.289,0,0.524-0.235,0.524-0.524C12.757,18.242,12.521,18.008,12.232,18.008z"/>
	</g>
</g>
</svg>
