<svg xmlns="http://www.w3.org/2000/svg" width="18.552" height="17.934" viewBox="0 0 18.552 17.934">
  <g id="website" transform="translate(0 -8.533)">
    <g id="Group_1495" data-name="Group 1495" transform="translate(0 8.533)">
      <g id="Group_1494" data-name="Group 1494" transform="translate(0 0)">
        <path id="Path_1239" data-name="Path 1239" d="M17.315,8.533H1.237A1.239,1.239,0,0,0,0,9.77v10.2a.309.309,0,0,0,.309.309H18.243a.309.309,0,0,0,.309-.309V9.77A1.239,1.239,0,0,0,17.315,8.533Zm.619,11.131H.618V9.77a.619.619,0,0,1,.619-.619H17.315a.619.619,0,0,1,.619.619Z" transform="translate(0 -8.533)" fill="#5f4ba0"/>
      </g>
    </g>
    <g id="Group_1497" data-name="Group 1497" transform="translate(0 19.664)">
      <g id="Group_1496" data-name="Group 1496">
        <path id="Path_1240" data-name="Path 1240" d="M18.243,315.733H.309a.309.309,0,0,0-.309.309v1.546a1.239,1.239,0,0,0,1.237,1.237H17.315a1.239,1.239,0,0,0,1.237-1.237v-1.546A.309.309,0,0,0,18.243,315.733Zm-.309,1.855a.619.619,0,0,1-.619.619H1.237a.619.619,0,0,1-.619-.619v-1.237H17.934v1.237Z" transform="translate(0 -315.733)" fill="#5f4ba0"/>
      </g>
    </g>
    <g id="Group_1499" data-name="Group 1499" transform="translate(8.039 20.901)">
      <g id="Group_1498" data-name="Group 1498">
        <path id="Path_1241" data-name="Path 1241" d="M224.031,349.867h-1.855a.309.309,0,1,0,0,.618h1.855a.309.309,0,1,0,0-.618Z" transform="translate(-221.867 -349.867)" fill="#5f4ba0"/>
      </g>
    </g>
    <g id="Group_1501" data-name="Group 1501" transform="translate(1.237 9.77)">
      <g id="Group_1500" data-name="Group 1500" transform="translate(0 0)">
        <path id="Path_1242" data-name="Path 1242" d="M49.9,42.667H34.443a.309.309,0,0,0-.309.309v9.895a.309.309,0,0,0,.309.309H49.9a.309.309,0,0,0,.309-.309V42.976A.309.309,0,0,0,49.9,42.667Zm-.309,9.895H34.752V43.285H49.594Z" transform="translate(-34.134 -42.667)" fill="#5f4ba0"/>
      </g>
    </g>
    <g id="Group_1503" data-name="Group 1503" transform="translate(4.329 24.612)">
      <g id="Group_1502" data-name="Group 1502">
        <path id="Path_1243" data-name="Path 1243" d="M128.434,452.267h-8.039a.928.928,0,0,0,0,1.855h8.039a.928.928,0,1,0,0-1.855Zm0,1.237h-8.039a.309.309,0,1,1,0-.618h8.039a.309.309,0,1,1,0,.618Z" transform="translate(-119.467 -452.267)" fill="#5f4ba0"/>
      </g>
    </g>
    <g id="Group_1505" data-name="Group 1505" transform="translate(5.566 22.138)">
      <g id="Group_1504" data-name="Group 1504">
        <path id="Path_1244" data-name="Path 1244" d="M160.713,386.475c-1.026,0-1.546-.728-1.546-2.164a.309.309,0,0,0-.309-.309h-3.092a.309.309,0,0,0-.309.309c0,1.436-.52,2.164-1.546,2.164a.309.309,0,0,0,0,.618h6.8a.309.309,0,0,0,0-.618Zm-5.3,0a2.962,2.962,0,0,0,.65-1.855h2.491a2.959,2.959,0,0,0,.65,1.855Z" transform="translate(-153.601 -384.001)" fill="#5f4ba0"/>
      </g>
    </g>
    <g id="Group_1507" data-name="Group 1507" transform="translate(10.824 15.026)">
      <g id="Group_1506" data-name="Group 1506" transform="translate(0 0)">
        <path id="Path_1245" data-name="Path 1245" d="M302.674,190.348l-.746-.746.415-.415a.309.309,0,0,0-.13-.515l-3.092-.928a.309.309,0,0,0-.385.385l.928,3.092a.309.309,0,0,0,.515.13l.437-.438.746.747a.309.309,0,0,0,.437,0l.874-.875A.309.309,0,0,0,302.674,190.348Zm-1.093.656-.68-.68a.4.4,0,0,0-.571,0l-.223.223-.614-2.046,2.046.614-.239.239a.35.35,0,0,0,0,.5l.717.717Z" transform="translate(-298.723 -187.731)" fill="#5f4ba0"/>
      </g>
    </g>
    <g id="Group_1509" data-name="Group 1509" transform="translate(4.02 11.007)">
      <g id="Group_1508" data-name="Group 1508" transform="translate(0 0)">
        <path id="Path_1246" data-name="Path 1246" d="M119.9,76.8h-8.658a.309.309,0,0,0-.309.309v1.546a.309.309,0,0,0,.309.309H119.9a.309.309,0,0,0,.309-.309V77.109A.309.309,0,0,0,119.9,76.8Zm-.309,1.546h-8.039v-.928h8.039Z" transform="translate(-110.934 -76.8)" fill="#5f4ba0"/>
      </g>
    </g>
    <g id="Group_1511" data-name="Group 1511" transform="translate(5.257 14.408)">
      <g id="Group_1510" data-name="Group 1510" transform="translate(0 0)">
        <path id="Path_1247" data-name="Path 1247" d="M147.85,170.667h-2.474a.309.309,0,0,0-.309.309v1.237a.309.309,0,0,0,.309.309h2.474a.309.309,0,0,0,.309-.309v-1.237A.309.309,0,0,0,147.85,170.667Zm-.309,1.237h-1.855v-.618h1.855Z" transform="translate(-145.067 -170.667)" fill="#5f4ba0"/>
      </g>
    </g>
    <g id="Group_1513" data-name="Group 1513" transform="translate(4.02 11.007)">
      <g id="Group_1512" data-name="Group 1512" transform="translate(0 0)">
        <path id="Path_1248" data-name="Path 1248" d="M119.9,76.8h-8.658a.309.309,0,0,0-.309.309v5.875a.309.309,0,0,0,.309.309H118.6a.309.309,0,0,0,.3-.4l-.391-1.305,1.3.391a.309.309,0,0,0,.4-.3V77.109A.309.309,0,0,0,119.9,76.8Zm-.309,4.469-1.455-.437a.309.309,0,0,0-.385.385l.437,1.457h-6.636V77.418h8.039Z" transform="translate(-110.934 -76.8)" fill="#5f4ba0"/>
      </g>
    </g>
  </g>
</svg>
