<svg xmlns="http://www.w3.org/2000/svg" width="26.662" height="38.3" viewBox="0 0 26.662 38.3">
  <g id="prescription" transform="translate(0.65 0.65)">
    <path id="Path_1839" data-name="Path 1839" d="M105.881,8.878V34.5a2.5,2.5,0,0,1-2.5,2.5H83.019a2.5,2.5,0,0,1-2.5-2.5V2.5a2.5,2.5,0,0,1,2.5-2.5H97.009a3.744,3.744,0,0,1,2.667,1.106l5.1,5.109A3.741,3.741,0,0,1,105.881,8.878Z" transform="translate(-80.519)" fill="#f2f2f2" stroke="#3a3a3a" stroke-width="1.3"/>
    <path id="Path_1840" data-name="Path 1840" d="M269.851,8.4V32.635a2.437,2.437,0,0,1-2.5,2.365h-10.09V0h3.718a3.855,3.855,0,0,1,2.667,1.046l5.1,4.833A3.445,3.445,0,0,1,269.851,8.4Z" transform="translate(-245.489 1)" fill="#d0d8e3"/>
    <path id="Path_1841" data-name="Path 1841" d="M307.556,8.425v.862h-7.67A1.278,1.278,0,0,1,298.619,8V0h.679a3.451,3.451,0,0,1,2.482,1.049L306.53,5.9A3.585,3.585,0,0,1,307.556,8.425Z" transform="translate(-283.193 1.5)" fill="#bec4ce"/>
    <path id="Path_1842" data-name="Path 1842" d="M158.672,80.2a1.361,1.361,0,0,1-1.361,1.361h-2V83.6a1.361,1.361,0,0,1-2.721,0V81.565h-2a1.361,1.361,0,0,1,0-2.721h2V76.872a1.361,1.361,0,1,1,2.721,0v1.972h2A1.361,1.361,0,0,1,158.672,80.2Z" transform="translate(-144.262 -70.054)" fill="#ff576f"/>
    <path id="Path_1843" data-name="Path 1843" d="M219.3,80.205a1.361,1.361,0,0,1-1.361,1.361h-2V83.6a1.36,1.36,0,0,1-1.361,1.361V75.512a1.361,1.361,0,0,1,1.361,1.361v1.972h2A1.361,1.361,0,0,1,219.3,80.205Z" transform="translate(-204.885 -70.055)" fill="#f23652"/>
    <g id="Group_2780" data-name="Group 2780" transform="translate(4.93 18.137)">
      <path id="Path_1844" data-name="Path 1844" d="M164.241,252.334a1.361,1.361,0,0,1-1.361,1.361H150.1a1.361,1.361,0,1,1,0-2.721H162.88A1.361,1.361,0,0,1,164.241,252.334Z" transform="translate(-148.738 -250.973)" fill="#ff576f"/>
      <path id="Path_1845" data-name="Path 1845" d="M164.241,317.6a1.361,1.361,0,0,1-1.361,1.361H150.1a1.361,1.361,0,0,1,0-2.721H162.88A1.361,1.361,0,0,1,164.241,317.6Z" transform="translate(-148.738 -311.525)" fill="#ff576f"/>
      <path id="Path_1846" data-name="Path 1846" d="M164.241,382.948a1.361,1.361,0,0,1-1.361,1.361H150.1a1.361,1.361,0,0,1,0-2.721H162.88A1.36,1.36,0,0,1,164.241,382.948Z" transform="translate(-148.738 -372.148)" fill="#ff576f"/>
    </g>
    <g id="Group_2781" data-name="Group 2781" transform="translate(12.772 18.137)">
      <path id="Path_1847" data-name="Path 1847" d="M264.921,382.949a1.361,1.361,0,0,1-1.361,1.361h-6.3v-2.721h6.3A1.36,1.36,0,0,1,264.921,382.949Z" transform="translate(-257.261 -372.149)" fill="#78a1c7"/>
      <path id="Path_1849" data-name="Path 1849" d="M263.562,253.694h-6.3v-2.721h6.3a1.361,1.361,0,1,1,0,2.721Z" transform="translate(-257.262 -250.973)" fill="#78a1c7"/>
    </g>
  </g>
</svg>
