<svg xmlns="http://www.w3.org/2000/svg" width="7.955" height="12.473" viewBox="0 0 7.955 12.473">
  <path id="price" d="M7.793,2.968a.276.276,0,0,0-.2-.08H6.074a3.066,3.066,0,0,0-.567-1.276H7.571a.272.272,0,0,0,.283-.283v-.9A.272.272,0,0,0,7.571.142H.2a.276.276,0,0,0-.2.08.276.276,0,0,0-.08.2V1.6A.272.272,0,0,0,0,1.8a.272.272,0,0,0,.2.084H1.486q1.869,0,2.374,1H.2a.276.276,0,0,0-.2.08.276.276,0,0,0-.08.2v.9A.273.273,0,0,0,.2,4.358H3.984a1.731,1.731,0,0,1-.908,1.107,4,4,0,0,1-1.882.381H.2a.273.273,0,0,0-.2.084.272.272,0,0,0-.084.2V7.255A.265.265,0,0,0,0,7.45q1.7,1.807,4.411,5.058a.261.261,0,0,0,.221.106H6.358a.257.257,0,0,0,.257-.159.242.242,0,0,0-.035-.3Q3.993,8.982,2.513,7.406a4.493,4.493,0,0,0,2.445-.974A3.312,3.312,0,0,0,6.1,4.358H7.589a.273.273,0,0,0,.283-.283v-.9A.276.276,0,0,0,7.793,2.968Z" transform="translate(0.082 -0.142)"/>
</svg>
