<svg xmlns="http://www.w3.org/2000/svg" width="50.937" height="50.922" viewBox="0 0 50.937 50.922">
  <g id="project-management_1_" data-name="project-management (1)" transform="translate(0 -0.067)">
    <g id="Group_793" data-name="Group 793" transform="translate(0 0.277)">
      <g id="Group_792" data-name="Group 792" transform="translate(0)">
        <path id="Path_440" data-name="Path 440" d="M50.211,15.215h0l0,0-3.288-.469a.845.845,0,0,1-.388-1.513l2.657-1.993a.845.845,0,0,0,.169-1.183L46.317,6a.845.845,0,0,0-1.183-.169L42.478,7.822a.845.845,0,0,1-1.347-.8l.47-3.288a.845.845,0,0,0-.717-.957h0l-5.017-.717a.845.845,0,0,0-.957.717h0l-.47,3.288a.845.845,0,0,1-1.513.388L30.934,3.8a.845.845,0,0,0-1.183-.169l-2.54,1.906a16.353,16.353,0,0,0-3.457,0,16.059,16.059,0,0,0-14.159,14.4c-.023.239-.031.477-.043.714H9.3a.845.845,0,0,0-.827.676L7.887,24.1,5.548,22.491a.845.845,0,0,0-1.078.1L1.935,25.125a.845.845,0,0,0-.1,1.077l1.606,2.335-2.778.584A.845.845,0,0,0,0,29.948v3.381a.845.845,0,0,0,.671.827l2.778.584L1.843,37.076a.845.845,0,0,0,.1,1.077l2.536,2.536a.845.845,0,0,0,1.078.1l2.335-1.61.584,2.778a.845.845,0,0,0,.827.676h3.381a.845.845,0,0,0,.827-.671l.584-2.778,2.335,1.606a.845.845,0,0,0,1.077-.1l1.313-1.317v2.409a3.37,3.37,0,0,0,1.69,2.911v4.7a3.381,3.381,0,0,0,3.381,3.381h3.381a3.381,3.381,0,0,0,3.381-3.381v-4.7a3.37,3.37,0,0,0,1.69-2.911V38.436a4.141,4.141,0,0,1,1.955-3.45,16.22,16.22,0,0,0,1.99-1.521L35.157,32.2a14.389,14.389,0,0,1-1.781,1.362,5.822,5.822,0,0,0-2.727,4.869v3.345a1.69,1.69,0,0,1-1.69,1.69H22.2a1.69,1.69,0,0,1-1.69-1.69V38.366a5.686,5.686,0,0,0-2.681-4.77A14.325,14.325,0,0,1,25.4,7.141a.919.919,0,0,0-.033.092.845.845,0,0,0,.161.626l1.992,2.656a.827.827,0,0,1,.051.938.84.84,0,0,1-.845.407l-3.288-.47a.845.845,0,0,0-.957.717h0l-.718,5.02a.845.845,0,0,0,.717.957h0l3.288.47a.845.845,0,0,1,.388,1.513L23.5,22.059a.845.845,0,0,0-.169,1.183L26.372,27.3a.845.845,0,0,0,1.183.169l2.657-1.992a.845.845,0,0,1,1.343.8l-.469,3.288a.845.845,0,0,0,.717.957h0l5.02.718a.938.938,0,0,0,.119.008.845.845,0,0,0,.838-.725l.469-3.288a.845.845,0,0,1,1.513-.388L41.755,29.5a.845.845,0,0,0,1.183.169L47,26.623a.845.845,0,0,0,.169-1.183l-1.992-2.656a.831.831,0,0,1-.051-.938.821.821,0,0,1,.845-.406l3.288.469a.845.845,0,0,0,.957-.717h0l.717-5.02A.845.845,0,0,0,50.211,15.215ZM22.2,45.162H28.96v1.69H22.2Zm0,3.381H28.96v.845a1.69,1.69,0,0,1-1.69,1.69H23.888a1.69,1.69,0,0,1-1.69-1.69ZM15.47,33.967a15.976,15.976,0,0,0,1.444,1.052,4.125,4.125,0,0,1,1.7,2.163L16.8,38.992l-1.755-1.21a1.69,1.69,0,0,0-2.613,1.044l-.443,2.11H9.983l-.443-2.107a1.69,1.69,0,0,0-2.613-1.044L5.171,38.992l-1.54-1.537L4.84,35.7A1.69,1.69,0,0,0,3.8,33.086L1.69,32.643V30.635L3.8,30.191a1.69,1.69,0,0,0,1.044-2.609l-1.21-1.76,1.54-1.537L6.928,25.5a1.69,1.69,0,0,0,2.612-1.045l.148-.7a16.1,16.1,0,0,0,.67,2.866,5.071,5.071,0,1,0,5.111,7.353Zm-1.313-1.191a3.376,3.376,0,1,1-3.17-4.518h.032A16.007,16.007,0,0,0,14.157,32.776Zm34.5-12.663-2.451-.35A2.536,2.536,0,0,0,43.815,23.8l1.485,1.98L42.6,27.8l-1.486-1.979a2.536,2.536,0,0,0-4.539,1.162l-.342,2.454-3.346-.478.35-2.451A2.536,2.536,0,0,0,29.2,24.124l-1.98,1.485-2.028-2.7,1.979-1.486a2.536,2.536,0,0,0-1.162-4.539l-2.451-.35.478-3.346,2.451.35A2.536,2.536,0,0,0,28.875,9.5L27.385,7.52l2.7-2.028,1.486,1.98A2.536,2.536,0,0,0,36.114,6.31l.35-2.451,3.346.478-.35,2.451a2.536,2.536,0,0,0,4.032,2.387l1.98-1.485,2.028,2.7L45.52,11.88a2.536,2.536,0,0,0,1.162,4.539l2.451.35Z" transform="translate(0 -2.057)" fill="#897eaf"/>
      </g>
    </g>
    <g id="Group_795" data-name="Group 795" transform="translate(29.582 8.107)">
      <g id="Group_794" data-name="Group 794">
        <path id="Path_441" data-name="Path 441" d="M286.761,76.171a6.762,6.762,0,1,0,6.762,6.762A6.762,6.762,0,0,0,286.761,76.171Zm0,11.833a5.071,5.071,0,1,1,5.071-5.071A5.071,5.071,0,0,1,286.761,88Z" transform="translate(-280 -76.171)" fill="#897eaf"/>
      </g>
    </g>
    <g id="Group_797" data-name="Group 797" transform="translate(24.734 37.466)">
      <g id="Group_796" data-name="Group 796">
        <rect id="Rectangle_479" data-name="Rectangle 479" width="1.69" height="2.536" fill="#897eaf"/>
      </g>
    </g>
    <g id="Group_799" data-name="Group 799" transform="translate(13.739 9.704)">
      <g id="Group_798" data-name="Group 798">
        <path id="Path_442" data-name="Path 442" d="M138.187,110.752a10.142,10.142,0,0,1-1.712-18.03l-.9-1.43a11.833,11.833,0,0,0,2,21.033,5.4,5.4,0,0,1,3.465,5.037h1.69A7.072,7.072,0,0,0,138.187,110.752Z" transform="translate(-130.044 -91.291)" fill="#897eaf"/>
      </g>
    </g>
    <g id="Group_801" data-name="Group 801" transform="translate(41.637 31.549)">
      <g id="Group_800" data-name="Group 800">
        <rect id="Rectangle_480" data-name="Rectangle 480" width="5.916" height="1.69" fill="#897eaf"/>
      </g>
    </g>
    <g id="Group_803" data-name="Group 803" transform="translate(40.251 35.97)">
      <g id="Group_802" data-name="Group 802" transform="translate(0 0)">
        <rect id="Rectangle_481" data-name="Rectangle 481" width="1.69" height="6.601" transform="matrix(0.64, -0.768, 0.768, 0.64, 0, 1.299)" fill="#897eaf"/>
      </g>
    </g>
    <g id="Group_805" data-name="Group 805" transform="translate(36.566 38.311)">
      <g id="Group_804" data-name="Group 804">
        <rect id="Rectangle_482" data-name="Rectangle 482" width="1.69" height="5.916" fill="#897eaf"/>
      </g>
    </g>
    <g id="Group_807" data-name="Group 807" transform="translate(0.863 12.98)">
      <g id="Group_806" data-name="Group 806" transform="translate(0 0)">
        <rect id="Rectangle_483" data-name="Rectangle 483" width="6.969" height="1.69" transform="translate(0 1.69) rotate(-14.035)" fill="#897eaf"/>
      </g>
    </g>
    <g id="Group_809" data-name="Group 809" transform="translate(2.267 4.662)">
      <g id="Group_808" data-name="Group 808" transform="translate(0 0)">
        <rect id="Rectangle_484" data-name="Rectangle 484" width="1.69" height="7.27" transform="matrix(0.581, -0.814, 0.814, 0.581, 0, 1.375)" fill="#897eaf"/>
      </g>
    </g>
    <g id="Group_811" data-name="Group 811" transform="translate(9.509 0.067)">
      <g id="Group_810" data-name="Group 810" transform="translate(0 0)">
        <rect id="Rectangle_485" data-name="Rectangle 485" width="1.69" height="6.979" transform="matrix(0.969, -0.248, 0.248, 0.969, 0, 0.419)" fill="#897eaf"/>
      </g>
    </g>
  </g>
</svg>
