<svg id="premium" xmlns="http://www.w3.org/2000/svg" width="46" height="46" viewBox="0 0 46 46">
  <rect id="Rectangle_415" data-name="Rectangle 415" width="4.6" height="16.867" transform="translate(0.767 28.366)" fill="#3f51b4"/>
  <path id="Path_289" data-name="Path 289" d="M59.733,307.765h16.93a9.187,9.187,0,0,0,1.4-.107l6.294-.968a9.2,9.2,0,0,0,5.107-2.588l9.343-9.342a2.711,2.711,0,0,0,.794-1.917h0a2.711,2.711,0,0,0-2.711-2.711h-.063a2.714,2.714,0,0,0-1.84.719l-8.307,7.667a3.067,3.067,0,0,1-2.078.814H72.953a2.3,2.3,0,0,1-1.626-.674h0a2.3,2.3,0,0,1,0-3.253h0a2.3,2.3,0,0,1,1.626-.673h8.061a2.3,2.3,0,0,0,1.626-.674h0a2.3,2.3,0,0,0,0-3.253h0a2.3,2.3,0,0,0-1.626-.673H68.505a9.2,9.2,0,0,0-4.876,1.4l-3.9,2.435v13.8Z" transform="translate(-54.366 -264.066)" fill="#efc7b0"/>
  <path id="Path_290" data-name="Path 290" d="M144.2,16.2l3.067-7.667,3.067,7.667H158l-6.133,4.6,2.3,8.433-6.9-6.133L139.6,29.232l3.067-8.433-6.133-4.6Z" transform="translate(-124.266 -7.766)" fill="#fec007"/>
  <path id="Path_291" data-name="Path 291" d="M42.46,281.6a3.464,3.464,0,0,0-2.358.92L31.8,290.184a2.294,2.294,0,0,1-1.561.613H18.586a1.533,1.533,0,0,1,0-3.067h8.061a3.067,3.067,0,1,0,0-6.133H14.138a9.948,9.948,0,0,0-5.282,1.516l-2.722,1.7v-.92H0v18.4H6.133v-1.533H22.3a10.025,10.025,0,0,0,1.516-.116l6.294-.968a9.9,9.9,0,0,0,5.531-2.8l9.343-9.344A3.454,3.454,0,0,0,46,285.074a3.5,3.5,0,0,0-3.514-3.477ZM4.6,300.764H1.533V285.431H4.6Zm39.3-14.315-9.343,9.344a8.381,8.381,0,0,1-4.681,2.372l-6.294.968a8.46,8.46,0,0,1-1.283.1H6.133V286.622l3.536-2.21a8.422,8.422,0,0,1,4.469-1.282H26.647a1.533,1.533,0,1,1,0,3.067H18.586a3.067,3.067,0,1,0,0,6.133H30.234a3.825,3.825,0,0,0,2.6-1.017l8.307-7.667a1.985,1.985,0,0,1,1.38-.515,1.943,1.943,0,0,1,1.375,3.318Z" transform="translate(0 -256.298)"/>
  <path id="Path_292" data-name="Path 292" d="M133.986,13.307l-2.873,7.9a.767.767,0,0,0,1.2.861l7.161-5.73,6.417,5.7a.767.767,0,0,0,1.249-.774l-2.162-7.927,5.716-4.288a.767.767,0,0,0-.46-1.38h-7.148L140.213.484a.767.767,0,0,0-1.424,0l-2.874,7.184h-7.148a.767.767,0,0,0-.46,1.38ZM136.434,9.2a.767.767,0,0,0,.712-.482L139.5,2.832l2.354,5.887a.767.767,0,0,0,.712.482h5.367l-4.293,3.22a.767.767,0,0,0-.28.815l1.622,5.945-4.972-4.42a.767.767,0,0,0-.988-.026l-5.534,4.427,2.134-5.866a.767.767,0,0,0-.261-.876L131.067,9.2h5.367Z" transform="translate(-116.501 -0.002)"/>
  <rect id="Rectangle_416" data-name="Rectangle 416" width="1.533" height="4.337" transform="translate(18.176 4.825) rotate(135)"/>
  <rect id="Rectangle_417" data-name="Rectangle 417" width="4.337" height="1.533" transform="translate(31.974 2.841) rotate(135)"/>
  <rect id="Rectangle_418" data-name="Rectangle 418" width="4.6" height="1.533" transform="translate(9.967 13.8)"/>
  <rect id="Rectangle_419" data-name="Rectangle 419" width="4.6" height="1.533" transform="translate(31.433 13.8)"/>
  <rect id="Rectangle_420" data-name="Rectangle 420" width="1.533" height="4.6" transform="translate(22.233 18.4)"/>
</svg>
