<svg xmlns="http://www.w3.org/2000/svg" width="40.114" height="51.305" viewBox="0 0 40.114 51.305">
  <g id="rejected" transform="translate(0 0.001)">
    <path id="Path_462" data-name="Path 462" d="M39.356,22.611a.759.759,0,0,0,.759-.759V9.943A1.748,1.748,0,0,0,38.368,8.2H35.391V5.845A1.747,1.747,0,0,0,33.645,4.1H30.57V1.746A1.749,1.749,0,0,0,28.823,0H7.868a.759.759,0,1,0,0,1.518H28.823a.228.228,0,0,1,.228.228V41.361a.228.228,0,0,1-.228.227H1.746a.228.228,0,0,1-.228-.227V1.746a.228.228,0,0,1,.228-.228H4.831A.759.759,0,0,0,4.831,0H1.746A1.749,1.749,0,0,0,0,1.746V41.361a1.748,1.748,0,0,0,1.746,1.746H4.822v2.352A1.747,1.747,0,0,0,6.568,47.2H9.545v2.353A1.748,1.748,0,0,0,11.291,51.3H38.368a1.748,1.748,0,0,0,1.746-1.746V24.889a.759.759,0,0,0-1.518,0v24.67a.228.228,0,0,1-.228.228H11.291a.228.228,0,0,1-.227-.228V47.2H33.645a1.747,1.747,0,0,0,1.746-1.746V34.96a.759.759,0,0,0-1.518,0v10.5a.228.228,0,0,1-.228.228H6.568a.228.228,0,0,1-.228-.228V43.106H28.823a1.748,1.748,0,0,0,1.746-1.746V5.617h3.075a.228.228,0,0,1,.228.228V31.924a.759.759,0,0,0,1.518,0V9.716h2.978a.228.228,0,0,1,.228.227V21.852a.759.759,0,0,0,.759.759Zm0,0" fill="#897eaf"/>
    <path id="Path_463" data-name="Path 463" d="M118.36,36.537a4.283,4.283,0,1,0-4.283,4.283A4.288,4.288,0,0,0,118.36,36.537Zm-7.048,0a2.765,2.765,0,1,1,2.765,2.765A2.768,2.768,0,0,1,111.311,36.537Zm0,0" transform="translate(-98.791 -29.022)" fill="#897eaf"/>
    <path id="Path_464" data-name="Path 464" d="M217.135,68.94a.759.759,0,1,0,0-1.518h-3.56a.759.759,0,0,0,0,1.518Zm0,0" transform="translate(-191.491 -60.666)" fill="#897eaf"/>
    <path id="Path_465" data-name="Path 465" d="M45.9,67.422h-3.56a.759.759,0,0,0,0,1.518H45.9a.759.759,0,0,0,0-1.518Zm0,0" transform="translate(-37.419 -60.666)" fill="#897eaf"/>
    <path id="Path_466" data-name="Path 466" d="M59.1,140.087a.759.759,0,0,0,.759.759H77.068a.759.759,0,1,0,0-1.518H59.861A.759.759,0,0,0,59.1,140.087Zm0,0" transform="translate(-53.18 -125.367)" fill="#897eaf"/>
    <path id="Path_467" data-name="Path 467" d="M77.067,176.066H59.86a.759.759,0,0,0,0,1.518H77.067a.759.759,0,1,0,0-1.518Zm0,0" transform="translate(-53.179 -158.424)" fill="#897eaf"/>
    <path id="Path_468" data-name="Path 468" d="M77.067,212.8H59.86a.759.759,0,0,0,0,1.518H77.067a.759.759,0,1,0,0-1.518Zm0,0" transform="translate(-53.179 -191.478)" fill="#897eaf"/>
    <path id="Path_469" data-name="Path 469" d="M77.067,249.535H59.86a.759.759,0,0,0,0,1.518H77.067a.759.759,0,1,0,0-1.518Zm0,0" transform="translate(-53.179 -224.531)" fill="#897eaf"/>
    <path id="Path_470" data-name="Path 470" d="M77.067,286.273H59.86a.759.759,0,0,0,0,1.518H77.067a.759.759,0,1,0,0-1.518Zm0,0" transform="translate(-53.179 -257.588)" fill="#897eaf"/>
    <path id="Path_471" data-name="Path 471" d="M191.631,328.994a.759.759,0,0,0,1.069-.106l1.314-1.6,1.314,1.6a.759.759,0,0,0,1.174-.963L195,326.088l1.507-1.837a.759.759,0,0,0-1.174-.963l-1.314,1.6-1.314-1.6a.759.759,0,0,0-1.174.963l1.507,1.837-1.507,1.838A.759.759,0,0,0,191.631,328.994Zm0,0" transform="translate(-172.179 -290.643)" fill="#897eaf"/>
  </g>
</svg>
