<svg id="puzzle" xmlns="http://www.w3.org/2000/svg" width="47" height="47" viewBox="0 0 47 47">
  <g id="Group_833" data-name="Group 833" transform="translate(7.833 7.833)">
    <g id="Group_832" data-name="Group 832">
      <path id="Path_472" data-name="Path 472" d="M118.383,80h-18.8a.783.783,0,0,0-.783.783v7.05a.783.783,0,0,0,1.031.743l.985-.328a2.037,2.037,0,1,1,0,3.871l-.985-.328a.783.783,0,0,0-1.031.743V98.8H92.533a.783.783,0,0,0-.743,1.031l.328.985a2.037,2.037,0,1,1-3.871,0l.328-.985a.783.783,0,0,0-.743-1.031h-7.05a.783.783,0,0,0-.783.783v18.8a.783.783,0,0,0,.783.783h37.6a.783.783,0,0,0,.783-.783v-37.6A.783.783,0,0,0,118.383,80ZM98.84,111.086a.784.784,0,0,0-.04.247V117.6H81.567V100.367h5.18a3.6,3.6,0,1,0,6.873,0H98.8v6.267a.783.783,0,0,0,1.031.743l.985-.328a2.037,2.037,0,1,1,0,3.871l-.985-.328A.783.783,0,0,0,98.84,111.086ZM117.6,117.6H100.367v-5.18a3.6,3.6,0,1,0,0-6.873v-5.18h6.267a.783.783,0,0,0,.743-1.031l-.328-.985a2.037,2.037,0,1,1,3.871,0l-.328.985a.783.783,0,0,0,.743,1.031H117.6V117.6Zm0-18.8h-5.18a3.6,3.6,0,1,0-6.873,0h-5.18V93.62a3.611,3.611,0,1,0,0-6.873v-5.18H117.6Z" transform="translate(-80 -80)" fill="#897eaf"/>
    </g>
  </g>
  <g id="Group_835" data-name="Group 835">
    <g id="Group_834" data-name="Group 834">
      <path id="Path_473" data-name="Path 473" d="M22.534,6.747a3.6,3.6,0,0,0-2.168,0V.783A.783.783,0,0,0,19.583,0H.783A.783.783,0,0,0,0,.783v18.8a.783.783,0,0,0,.783.783H6.747a3.6,3.6,0,1,0,6.873,0h5.964a.783.783,0,0,0,.783-.783V13.62a3.6,3.6,0,0,0,2.168-6.873Zm-.452,5.372a2.037,2.037,0,0,1-1.267,0l-.985-.328a.783.783,0,0,0-1.031.743V18.8H12.533a.783.783,0,0,0-.743,1.031l.328.985a2.037,2.037,0,1,1-3.871,0l.328-.985A.783.783,0,0,0,7.833,18.8H1.567V1.567H18.8V7.833a.783.783,0,0,0,1.031.743l.985-.328a2.037,2.037,0,0,1,1.267,3.871Z" fill="#897eaf"/>
    </g>
  </g>
</svg>
