<?xml version="1.0" encoding="utf-8"?>
<!-- Generator: Adobe Illustrator 14.0.0, SVG Export Plug-In . SVG Version: 6.00 Build 43363)  -->
<!DOCTYPE svg PUBLIC "-//W3C//DTD SVG 1.1//EN" "http://www.w3.org/Graphics/SVG/1.1/DTD/svg11.dtd">
<svg version="1.1" id="Layer_1" xmlns="http://www.w3.org/2000/svg" xmlns:xlink="http://www.w3.org/1999/xlink" x="0px" y="0px"
	 width="19.057px" height="19.063px" viewBox="0 0 19.057 19.063" enable-background="new 0 0 19.057 19.063" xml:space="preserve">
<g id="zoom-in" transform="translate(0.5 0.5)">
	<path id="Path_179" fill="#A2A2A2" stroke="#6D6D6D" d="M14.801,14.431c2.982-3.334,2.697-8.455-0.637-11.438
		C10.829,0.011,5.709,0.297,2.727,3.632c-2.982,3.334-2.697,8.455,0.637,11.438c3.075,2.75,7.726,2.75,10.801,0L14.801,14.431z
		 M3.666,14.126c-2.828-2.801-2.85-7.363-0.049-10.191c2.8-2.827,7.363-2.85,10.19-0.049l0.047,0.047
		c2.815,2.814,2.816,7.377,0.002,10.191C11.043,16.938,6.481,16.939,3.666,14.126z"/>
</g>
</svg>
