<svg xmlns="http://www.w3.org/2000/svg" width="49" height="49" viewBox="0 0 49 49">
  <g id="Group_1085" data-name="Group 1085" transform="translate(-480.334 -282)">
    <path id="Path_923" data-name="Path 923" d="M15372.236,285.731l-.26.182s-2.5,1.445-2.449,5.537-.69,6.415,0,7.4,3.208,1.777,6.021,1.628,3.06-.395,3.206.493-.787,4.639,0,5.872,3.653,2.073,4.344.987,1.134-5.231.788-6.859.2-4.047-1.184-4.589a21.664,21.664,0,0,0-4.145-.74c-.4-.1-.742-3.454-.593-4.886s0-2.171.593-2.221,4.393-.049,5.328,0a7.721,7.721,0,0,0,4.2-1.727c1.086-.987,2.617-2.073,3.405-2.961a3.158,3.158,0,0,0,.691-2.912c-.3-.592-1.282-2.073-2.862-1.382s-3.158,2.665-4.194,3.356-4.935,2.023-6.367,1.826-2.862-.691-4.44,0A21.182,21.182,0,0,0,15372.236,285.731Z" transform="translate(-14888.35 15.646)" fill="#32c8f5" stroke="#707070" stroke-width="1"/>
    <g id="challenges" transform="translate(480.334 282)">
      <path id="Path_914" data-name="Path 914" d="M55.452,18.223V12.229l-2.083-.49a12.562,12.562,0,0,0-1.091-2.633L53.4,7.285,49.166,3.047l-1.82,1.127a12.562,12.562,0,0,0-2.633-1.091L44.223,1H38.229l-.49,2.083a12.563,12.563,0,0,0-2.633,1.091l-1.82-1.127L29.047,7.285l1.127,1.82a12.563,12.563,0,0,0-1.091,2.633L27,12.229V14.56a2.125,2.125,0,0,1,.707-.124h.33a2.123,2.123,0,0,1,1.3,3.8l-.387.3.084.168.044.01a12.539,12.539,0,0,0,1.091,2.633l-1.127,1.82L33.285,27.4l1.82-1.127a12.562,12.562,0,0,0,2.633,1.091l.49,2.082h5.994l.49-2.082a12.562,12.562,0,0,0,2.633-1.091l1.82,1.127L53.4,23.166l-1.127-1.82a12.562,12.562,0,0,0,1.091-2.633Zm-14.226,5.7a8.987,8.987,0,0,1-3.872-.908,8.583,8.583,0,0,1-4.821-7.786,8.694,8.694,0,1,1,8.694,8.694Z" transform="translate(-6.452 -1)" fill="#fad20a"/>
      <path id="Path_916" data-name="Path 916" d="M0,0H13.106V1.58H0Z" transform="matrix(0.821, -0.572, 0.572, 0.821, 20.123, 36.876)" fill="#4d4d4d"/>
      <path id="Path_917" data-name="Path 917" d="M48.419,20.692V50.516H6.883a3.129,3.129,0,0,0,.439-1.581V47.628L11.369,44.8c.014.015.024.033.04.048a3.162,3.162,0,0,0,5.4-2.236V41.028l15.64-10.886-.159-.676c-.371-.106-.731-.241-1.09-.38L16.806,39.1V35.5a3.956,3.956,0,0,0-3.952-3.952H11.274V26.016h4.7a5.551,5.551,0,0,0,3.4-1.166l5.009-3.9a2.913,2.913,0,0,0-1.789-5.212h-.33a2.937,2.937,0,0,0-1.748.582l-5.335,4a.8.8,0,0,1-.474.158H12.767a5.534,5.534,0,1,0-7.175.469A7.118,7.118,0,0,0,1,27.6V48.935A3.164,3.164,0,0,0,4.161,52.1H50V20.319ZM7.323,45.7V37.871h3.161v4.74h0a3.172,3.172,0,0,0,.114.8ZM4.952,16.532A3.952,3.952,0,1,1,8.9,20.484,3.956,3.956,0,0,1,4.952,16.532ZM2.581,27.6a5.539,5.539,0,0,1,5.532-5.532H14.7a2.383,2.383,0,0,0,1.423-.475l5.335-4a1.347,1.347,0,0,1,.8-.266h.33a1.333,1.333,0,0,1,.818,2.385L18.4,23.6a3.971,3.971,0,0,1-2.426.831H9.694v8.694h3.161A2.374,2.374,0,0,1,15.226,35.5v7.112a1.581,1.581,0,1,1-3.162,0V37.871a1.582,1.582,0,0,0-1.581-1.581H4.952a2.374,2.374,0,0,1-2.371-2.371Zm0,21.339V37.06a3.911,3.911,0,0,0,2.371.811h.79V48.935a1.581,1.581,0,1,1-3.161,0Z" transform="translate(-1 -3.097)" fill="#4d4d4d"/>
      <path id="Path_918" data-name="Path 918" d="M42.484,25.968A9.484,9.484,0,1,0,33,16.484,9.494,9.494,0,0,0,42.484,25.968Zm0-17.387a7.9,7.9,0,1,1-7.9,7.9A7.912,7.912,0,0,1,42.484,8.581Z" transform="translate(-7.71 -2.258)" fill="#4d4d4d"/>
      <path id="Path_919" data-name="Path 919" d="M43.742,22.484A4.742,4.742,0,1,0,39,17.742,4.747,4.747,0,0,0,43.742,22.484Zm0-7.9a3.161,3.161,0,1,1-3.161,3.161A3.164,3.164,0,0,1,43.742,14.581Z" transform="translate(-8.968 -3.516)" fill="#4d4d4d"/>
      <path id="Path_920" data-name="Path 920" d="M57,57h1.581v1.581H57Z" transform="translate(-12.742 -12.742)" fill="#4d4d4d"/>
      <path id="Path_921" data-name="Path 921" d="M57,53h1.581v1.581H57Z" transform="translate(-12.742 -11.903)" fill="#4d4d4d"/>
      <path id="Path_922" data-name="Path 922" d="M57,49h1.581v1.581H57Z" transform="translate(-12.742 -11.065)" fill="#4d4d4d"/>
    </g>
  </g>
</svg>
