<svg xmlns="http://www.w3.org/2000/svg" width="73" height="73" viewBox="0 0 73 73">
  <g id="refer-startup-icon" transform="translate(-793 -209)">
    <circle id="Ellipse_39" data-name="Ellipse 39" cx="36.5" cy="36.5" r="36.5" transform="translate(793 209)" fill="#fad20a"/>
    <path id="refer" d="M18.353,19.891c.124,0,.248.008.373.008s.231,0,.347-.007a16.111,16.111,0,0,1,7.473,2.017,1.463,1.463,0,0,0,1.423-2.557,18.89,18.89,0,0,0-3.287-1.438,9.949,9.949,0,1,0-11.907,0A19.026,19.026,0,0,0,.094,32.1a4.445,4.445,0,0,0,4.345,5.361H15.873a1.463,1.463,0,0,0,0-2.926H4.439a1.487,1.487,0,0,1-1.17-.556,1.529,1.529,0,0,1-.31-1.282,16.165,16.165,0,0,1,15.395-12.8ZM11.7,9.95a7.023,7.023,0,1,1,7.371,7.014q-.174,0-.348,0c-.114,0-.228,0-.342,0A7.031,7.031,0,0,1,11.7,9.95ZM37.454,27.2a3.616,3.616,0,0,1-1.075,2.587l-2.721,2.706a1.463,1.463,0,1,1-2.063-2.075l1.824-1.814H25.126a2.962,2.962,0,0,0-.036,5.924,1.463,1.463,0,0,1,0,2.926,5.8,5.8,0,0,1-4.152-1.73,5.9,5.9,0,0,1,4.187-10.046h8.157L31.6,24.011a1.463,1.463,0,0,1,2.058-2.081l2.717,2.687A3.617,3.617,0,0,1,37.454,27.2Zm0,0" transform="translate(812.546 224.999)"/>
  </g>
</svg>
