<?xml version="1.0" encoding="utf-8"?>
<!-- Generator: Adobe Illustrator 14.0.0, SVG Export Plug-In . SVG Version: 6.00 Build 43363)  -->
<!DOCTYPE svg PUBLIC "-//W3C//DTD SVG 1.1//EN" "http://www.w3.org/Graphics/SVG/1.1/DTD/svg11.dtd">
<svg version="1.1" id="Layer_1" xmlns="http://www.w3.org/2000/svg" xmlns:xlink="http://www.w3.org/1999/xlink" x="0px" y="0px"
	 width="1170px" height="100px" viewBox="0 0 1170 100" enable-background="new 0 0 1170 100" xml:space="preserve">
<path id="Rectangle_491" fill="#FFFFFF" d="M10.499,0.463H1160.5c5.521,0,10,4.477,10,10v80c0,5.523-4.479,10-10,10H10.499
	c-5.523,0-10-4.477-10-10v-80C0.499,4.94,4.976,0.463,10.499,0.463z"/>
<path id="Path_960" fill="#FE9400" d="M8.759,0h215.474c0,0-48.466,39.181,4.088,64.296
	c52.554,25.116,172.846,36.167,172.846,36.167H8.759C3.922,100.463,0,95.966,0,90.417V10.046C0,4.498,3.922,0,8.759,0z"/>
<g enable-background="new    ">
	<path fill="#5F4BA0" d="M326.176,55.673l3.083,0.978c-0.473,1.72-1.259,2.996-2.358,3.83c-1.1,0.834-2.494,1.252-4.184,1.252
		c-2.091,0-3.81-0.715-5.156-2.145c-1.347-1.428-2.02-3.382-2.02-5.859c0-2.621,0.677-4.655,2.03-6.106
		c1.354-1.449,3.133-2.175,5.339-2.175c1.926,0,3.491,0.569,4.694,1.708c0.716,0.673,1.253,1.64,1.611,2.9l-3.147,0.751
		c-0.187-0.815-0.575-1.46-1.166-1.934c-0.591-0.473-1.309-0.709-2.154-0.709c-1.167,0-2.115,0.419-2.841,1.257
		c-0.727,0.838-1.09,2.195-1.09,4.071c0,1.99,0.358,3.408,1.074,4.254c0.716,0.845,1.647,1.268,2.793,1.268
		c0.845,0,1.572-0.269,2.181-0.806C325.474,57.671,325.911,56.826,326.176,55.673z"/>
	<path fill="#5F4BA0" d="M331.268,55.598c0-1.003,0.247-1.973,0.741-2.91c0.494-0.938,1.194-1.654,2.1-2.148
		c0.906-0.494,1.917-0.741,3.035-0.741c1.726,0,3.14,0.561,4.243,1.683c1.103,1.119,1.654,2.535,1.654,4.248
		c0,1.726-0.557,3.155-1.67,4.291c-1.114,1.136-2.516,1.703-4.206,1.703c-1.046,0-2.043-0.236-2.992-0.709
		c-0.949-0.474-1.67-1.166-2.165-2.078C331.515,58.02,331.268,56.908,331.268,55.598z M334.361,55.759
		c0,1.132,0.269,1.998,0.806,2.601c0.537,0.602,1.199,0.901,1.987,0.901c0.788,0,1.448-0.301,1.982-0.901
		c0.533-0.603,0.8-1.477,0.8-2.621c0-1.117-0.267-1.978-0.8-2.578c-0.534-0.602-1.194-0.902-1.982-0.902
		c-0.788,0-1.45,0.301-1.987,0.902C334.63,53.761,334.361,54.627,334.361,55.759z"/>
	<path fill="#5F4BA0" d="M355.781,61.463h-3.019v-5.822c0-1.23-0.064-2.027-0.193-2.391c-0.129-0.361-0.338-0.643-0.628-0.843
		s-0.639-0.302-1.047-0.302c-0.523,0-0.992,0.145-1.407,0.431c-0.416,0.286-0.7,0.666-0.854,1.139
		c-0.154,0.474-0.231,1.347-0.231,2.621v5.167h-3.019V50.055h2.804v1.675c0.995-1.289,2.249-1.934,3.76-1.934
		c0.666,0,1.274,0.12,1.826,0.359c0.551,0.24,0.968,0.547,1.251,0.919c0.283,0.372,0.479,0.795,0.591,1.268
		c0.111,0.474,0.167,1.149,0.167,2.03L355.781,61.463L355.781,61.463z"/>
	<path fill="#5F4BA0" d="M358.563,62.215l3.448,0.419c0.057,0.401,0.189,0.677,0.397,0.827c0.286,0.215,0.737,0.322,1.354,0.322
		c0.788,0,1.378-0.118,1.772-0.354c0.265-0.158,0.465-0.412,0.602-0.764c0.093-0.251,0.14-0.713,0.14-1.387v-1.664
		c-0.902,1.23-2.041,1.848-3.416,1.848c-1.533,0-2.747-0.648-3.642-1.943c-0.702-1.024-1.053-2.3-1.053-3.824
		c0-1.912,0.46-3.373,1.38-4.383c0.92-1.011,2.064-1.516,3.432-1.516c1.411,0,2.574,0.619,3.491,1.857v-1.6h2.825v10.237
		c0,1.348-0.111,2.354-0.333,3.02c-0.222,0.666-0.534,1.188-0.935,1.567s-0.937,0.677-1.606,0.892
		c-0.67,0.215-1.517,0.322-2.541,0.322c-1.934,0-3.305-0.331-4.114-0.992c-0.81-0.664-1.214-1.504-1.214-2.521
		C358.553,62.479,358.556,62.357,358.563,62.215z M361.26,55.521c0,1.211,0.234,2.098,0.704,2.66
		c0.469,0.562,1.047,0.842,1.735,0.842c0.737,0,1.36-0.287,1.869-0.863c0.508-0.577,0.763-1.432,0.763-2.563
		c0-1.183-0.244-2.06-0.73-2.633c-0.487-0.572-1.103-0.859-1.848-0.859c-0.724,0-1.32,0.281-1.789,0.844
		C361.494,53.512,361.26,54.369,361.26,55.521z"/>
	<path fill="#5F4BA0" d="M375.171,61.463h-3.019V50.055h2.804v1.622c0.479-0.767,0.911-1.271,1.294-1.515
		c0.383-0.243,0.818-0.365,1.305-0.365c0.688,0,1.35,0.189,1.987,0.569l-0.935,2.632c-0.509-0.329-0.981-0.494-1.418-0.494
		c-0.423,0-0.781,0.116-1.074,0.35c-0.294,0.232-0.525,0.653-0.693,1.263c-0.168,0.608-0.252,1.884-0.252,3.823L375.171,61.463
		L375.171,61.463z"/>
	<path fill="#5F4BA0" d="M383.099,53.535l-2.739-0.494c0.308-1.104,0.838-1.919,1.59-2.449c0.752-0.53,1.869-0.795,3.352-0.795
		c1.346,0,2.349,0.159,3.008,0.479c0.659,0.318,1.123,0.723,1.391,1.213c0.269,0.491,0.403,1.392,0.403,2.702l-0.032,3.522
		c0,1.003,0.048,1.742,0.145,2.218c0.097,0.478,0.277,0.987,0.542,1.531h-2.986c-0.079-0.199-0.176-0.498-0.29-0.893
		c-0.05-0.178-0.086-0.297-0.107-0.354c-0.516,0.501-1.067,0.877-1.654,1.128c-0.587,0.251-1.214,0.376-1.88,0.376
		c-1.175,0-2.1-0.318-2.777-0.955c-0.677-0.639-1.015-1.443-1.015-2.418c0-0.645,0.154-1.219,0.462-1.725
		c0.308-0.504,0.739-0.891,1.294-1.16c0.555-0.268,1.355-0.503,2.401-0.703c1.411-0.265,2.388-0.512,2.933-0.74v-0.302
		c0-0.579-0.144-0.993-0.43-1.241c-0.287-0.246-0.827-0.369-1.622-0.369c-0.537,0-0.956,0.104-1.257,0.316
		C383.528,52.635,383.285,53.005,383.099,53.535z M387.138,55.984c-0.387,0.129-0.999,0.283-1.837,0.461
		c-0.838,0.18-1.386,0.354-1.644,0.527c-0.394,0.278-0.591,0.633-0.591,1.063c0,0.423,0.157,0.788,0.473,1.096
		c0.315,0.309,0.716,0.462,1.203,0.462c0.544,0,1.063-0.179,1.558-0.536c0.365-0.272,0.605-0.605,0.72-1
		c0.079-0.258,0.118-0.748,0.118-1.472V55.984z"/>
	<path fill="#5F4BA0" d="M398.31,50.055v2.406h-2.063v4.598c0,0.932,0.02,1.475,0.059,1.627c0.039,0.154,0.129,0.281,0.269,0.383
		c0.14,0.101,0.31,0.149,0.51,0.149c0.279,0,0.684-0.097,1.214-0.29l0.258,2.342c-0.701,0.301-1.497,0.451-2.385,0.451
		c-0.544,0-1.035-0.092-1.472-0.272c-0.437-0.185-0.757-0.421-0.961-0.709c-0.204-0.291-0.346-0.683-0.424-1.177
		c-0.064-0.352-0.097-1.061-0.097-2.127v-4.975h-1.386v-2.406h1.386v-2.267l3.029-1.762v4.028L398.31,50.055L398.31,50.055z"/>
	<path fill="#5F4BA0" d="M399.341,58.208l3.029-0.462c0.129,0.587,0.39,1.033,0.784,1.338c0.394,0.305,0.944,0.456,1.653,0.456
		c0.78,0,1.368-0.144,1.763-0.431c0.265-0.199,0.396-0.469,0.396-0.805c0-0.229-0.072-0.42-0.215-0.57
		c-0.15-0.144-0.487-0.274-1.01-0.396c-2.436-0.537-3.979-1.027-4.63-1.472c-0.902-0.616-1.354-1.472-1.354-2.567
		c0-0.988,0.391-1.818,1.171-2.492c0.78-0.673,1.991-1.01,3.631-1.01c1.562,0,2.722,0.254,3.48,0.764
		c0.759,0.508,1.282,1.26,1.568,2.256l-2.848,0.525c-0.122-0.443-0.353-0.783-0.692-1.021c-0.341-0.235-0.826-0.354-1.456-0.354
		c-0.795,0-1.364,0.111-1.708,0.333c-0.229,0.157-0.345,0.361-0.345,0.612c0,0.215,0.101,0.396,0.302,0.548
		c0.271,0.2,1.212,0.483,2.819,0.849s2.73,0.813,3.368,1.344c0.63,0.537,0.945,1.285,0.945,2.244c0,1.047-0.438,1.944-1.312,2.696
		s-2.167,1.128-3.878,1.128c-1.554,0-2.783-0.314-3.689-0.945C400.212,60.146,399.62,59.289,399.341,58.208z"/>
	<path fill="#5F4BA0" d="M412.564,58.443h3.019v2.16c0,0.873-0.075,1.563-0.226,2.067c-0.15,0.504-0.436,0.957-0.854,1.358
		c-0.419,0.4-0.951,0.716-1.595,0.945l-0.591-1.246c0.607-0.201,1.042-0.478,1.3-0.828c0.258-0.35,0.394-0.83,0.408-1.438h-1.461
		V58.443L412.564,58.443z"/>
</g>
<g enable-background="new    ">
	<path fill="#5F4BA0" d="M424.649,65.855l-0.216-1.814c0.423,0.114,0.791,0.172,1.106,0.172c0.43,0,0.772-0.07,1.031-0.215
		c0.258-0.145,0.469-0.344,0.634-0.602c0.122-0.193,0.318-0.674,0.591-1.439c0.036-0.107,0.093-0.266,0.172-0.473l-4.329-11.43
		h2.084l2.374,6.606c0.309,0.838,0.583,1.719,0.827,2.643c0.222-0.888,0.487-1.755,0.795-2.6l2.438-6.649h1.934l-4.34,11.602
		c-0.466,1.253-0.827,2.115-1.085,2.589c-0.344,0.638-0.738,1.104-1.182,1.401c-0.444,0.297-0.975,0.445-1.591,0.445
		C425.523,66.093,425.107,66.014,424.649,65.855z"/>
	<path fill="#5F4BA0" d="M435.016,55.759c0-2.112,0.587-3.678,1.763-4.694c0.98-0.845,2.177-1.268,3.588-1.268
		c1.567,0,2.85,0.514,3.846,1.541c0.995,1.028,1.493,2.448,1.493,4.26c0,1.469-0.22,2.623-0.661,3.465
		c-0.44,0.842-1.082,1.494-1.923,1.961c-0.842,0.466-1.76,0.697-2.755,0.697c-1.598,0-2.889-0.512-3.873-1.535
		C435.508,59.16,435.016,57.686,435.016,55.759z M437.003,55.759c0,1.461,0.318,2.556,0.956,3.282
		c0.637,0.727,1.439,1.09,2.406,1.09c0.959,0,1.758-0.365,2.396-1.096s0.956-1.844,0.956-3.342c0-1.41-0.321-2.479-0.961-3.205
		c-0.641-0.729-1.438-1.092-2.39-1.092c-0.967,0-1.77,0.361-2.406,1.086C437.321,53.206,437.003,54.298,437.003,55.759z"/>
	<path fill="#5F4BA0" d="M455.447,61.463v-1.676c-0.889,1.289-2.096,1.934-3.62,1.934c-0.673,0-1.302-0.129-1.885-0.387
		c-0.584-0.258-1.018-0.582-1.301-0.973c-0.282-0.391-0.481-0.868-0.596-1.435c-0.079-0.38-0.118-0.981-0.118-1.805v-7.068h1.935
		v6.327c0,1.01,0.039,1.689,0.118,2.041c0.121,0.51,0.379,0.907,0.772,1.198c0.395,0.289,0.881,0.435,1.461,0.435
		s1.124-0.147,1.633-0.445c0.509-0.297,0.868-0.701,1.08-1.213c0.211-0.514,0.317-1.256,0.317-2.229v-6.112h1.934v11.408H455.447z"
		/>
	<path fill="#5F4BA0" d="M466.318,61.463V45.715h1.934v5.65c0.902-1.046,2.041-1.568,3.416-1.568c0.845,0,1.579,0.166,2.202,0.5
		c0.623,0.332,1.069,0.793,1.337,1.38s0.403,1.439,0.403,2.558v7.229h-1.935v-7.229c0-0.967-0.209-1.672-0.628-2.11
		c-0.419-0.44-1.012-0.661-1.778-0.661c-0.572,0-1.111,0.148-1.616,0.446c-0.505,0.297-0.865,0.698-1.08,1.208
		c-0.215,0.509-0.322,1.21-0.322,2.105v6.24H466.318z"/>
	<path fill="#5F4BA0" d="M485.998,60.057c-0.716,0.607-1.406,1.037-2.068,1.288c-0.663,0.251-1.374,0.376-2.132,0.376
		c-1.253,0-2.217-0.307-2.89-0.918c-0.673-0.613-1.01-1.396-1.01-2.348c0-0.559,0.127-1.068,0.381-1.531
		c0.254-0.461,0.587-0.832,0.999-1.111c0.412-0.278,0.875-0.489,1.391-0.633c0.379-0.102,0.952-0.197,1.719-0.291
		c1.562-0.187,2.71-0.408,3.448-0.666c0.007-0.265,0.011-0.434,0.011-0.505c0-0.788-0.183-1.343-0.548-1.665
		c-0.494-0.437-1.229-0.654-2.202-0.654c-0.91,0-1.581,0.158-2.014,0.478c-0.434,0.319-0.754,0.883-0.961,1.692l-1.892-0.258
		c0.173-0.811,0.455-1.463,0.85-1.961c0.394-0.498,0.963-0.881,1.708-1.149c0.745-0.268,1.606-0.402,2.589-0.402
		c0.974,0,1.765,0.114,2.374,0.344c0.608,0.229,1.056,0.518,1.343,0.865c0.286,0.347,0.487,0.785,0.603,1.315
		c0.063,0.328,0.097,0.924,0.097,1.783v2.578c0,1.797,0.041,2.935,0.124,3.41c0.082,0.477,0.245,0.934,0.489,1.369h-2.021
		C486.184,61.063,486.055,60.593,485.998,60.057z M485.837,55.736c-0.702,0.287-1.755,0.531-3.158,0.73
		c-0.795,0.114-1.356,0.243-1.687,0.387c-0.33,0.145-0.584,0.354-0.764,0.629c-0.179,0.275-0.269,0.582-0.269,0.918
		c0,0.517,0.195,0.945,0.585,1.289c0.39,0.345,0.961,0.517,1.713,0.517c0.745,0,1.407-0.163,1.987-0.489
		c0.58-0.324,1.006-0.771,1.278-1.337c0.208-0.437,0.312-1.081,0.312-1.935v-0.709H485.837z"/>
	<path fill="#5F4BA0" d="M493.958,61.463l-4.34-11.408h2.041l2.449,6.832c0.265,0.737,0.508,1.504,0.729,2.299
		c0.172-0.602,0.412-1.324,0.72-2.17l2.535-6.96h1.987l-4.318,11.408H493.958z"/>
	<path fill="#5F4BA0" d="M509.599,57.789l1.998,0.247c-0.314,1.167-0.898,2.073-1.751,2.718s-1.94,0.967-3.266,0.967
		c-1.669,0-2.992-0.514-3.969-1.541c-0.979-1.027-1.467-2.47-1.467-4.324c0-1.918,0.494-3.408,1.482-4.469
		c0.988-1.06,2.27-1.59,3.846-1.59c1.525,0,2.771,0.52,3.738,1.559c0.967,1.037,1.45,2.498,1.45,4.383
		c0,0.113-0.004,0.285-0.011,0.516h-8.509c0.071,1.253,0.427,2.213,1.063,2.879s1.432,0.999,2.385,0.999
		c0.709,0,1.314-0.187,1.815-0.559C508.907,59.2,509.305,58.605,509.599,57.789z M503.25,54.663h6.37
		c-0.086-0.96-0.33-1.681-0.73-2.159c-0.615-0.745-1.415-1.117-2.396-1.117c-0.888,0-1.635,0.297-2.24,0.893
		C503.649,52.873,503.314,53.668,503.25,54.663z"/>
</g>
<g enable-background="new    ">
	<path fill="#5F4BA0" d="M534.488,61.463h-3.459l-1.375-3.577h-6.295l-1.301,3.577h-3.373l6.135-15.748h3.361L534.488,61.463z
		 M528.634,55.232l-2.17-5.844l-2.127,5.844H528.634z"/>
	<path fill="#5F4BA0" d="M537.883,61.463l-3.608-11.408h2.933l2.138,7.477l1.966-7.477h2.911l1.901,7.477l2.181-7.477h2.977
		l-3.663,11.408h-2.9l-1.966-7.337l-1.934,7.337H537.883z"/>
	<path fill="#5F4BA0" d="M555.124,53.535l-2.739-0.494c0.309-1.104,0.838-1.919,1.59-2.449c0.752-0.53,1.869-0.795,3.353-0.795
		c1.346,0,2.349,0.159,3.008,0.479c0.659,0.318,1.123,0.723,1.391,1.213c0.27,0.491,0.403,1.392,0.403,2.702l-0.032,3.522
		c0,1.003,0.048,1.742,0.146,2.218c0.097,0.478,0.277,0.987,0.542,1.531h-2.986c-0.079-0.199-0.176-0.498-0.29-0.893
		c-0.05-0.178-0.086-0.297-0.106-0.354c-0.517,0.501-1.067,0.877-1.654,1.128s-1.214,0.376-1.88,0.376
		c-1.175,0-2.1-0.318-2.777-0.955c-0.677-0.639-1.015-1.443-1.015-2.418c0-0.645,0.154-1.219,0.462-1.725
		c0.308-0.504,0.739-0.891,1.294-1.16c0.555-0.268,1.354-0.503,2.401-0.703c1.41-0.265,2.388-0.512,2.933-0.74v-0.302
		c0-0.579-0.144-0.993-0.43-1.241c-0.287-0.246-0.827-0.369-1.622-0.369c-0.537,0-0.956,0.104-1.257,0.316
		C555.554,52.635,555.31,53.005,555.124,53.535z M559.163,55.984c-0.387,0.129-0.999,0.283-1.837,0.461
		c-0.838,0.18-1.386,0.354-1.645,0.527c-0.394,0.278-0.591,0.633-0.591,1.063c0,0.423,0.157,0.788,0.474,1.096
		c0.314,0.309,0.716,0.462,1.203,0.462c0.544,0,1.063-0.179,1.558-0.536c0.365-0.272,0.604-0.605,0.72-1
		c0.079-0.258,0.118-0.748,0.118-1.472V55.984z"/>
	<path fill="#5F4BA0" d="M567.993,61.463h-3.02V50.055h2.805v1.622c0.479-0.767,0.911-1.271,1.294-1.515
		c0.383-0.243,0.817-0.365,1.305-0.365c0.688,0,1.35,0.189,1.987,0.569l-0.936,2.632c-0.509-0.329-0.98-0.494-1.418-0.494
		c-0.423,0-0.78,0.116-1.073,0.35c-0.295,0.232-0.525,0.653-0.693,1.263c-0.168,0.608-0.252,1.884-0.252,3.823L567.993,61.463
		L567.993,61.463z"/>
	<path fill="#5F4BA0" d="M584.128,61.463h-2.804v-1.676c-0.466,0.65-1.016,1.137-1.649,1.455s-1.272,0.479-1.917,0.479
		c-1.311,0-2.433-0.527-3.368-1.584c-0.935-1.057-1.401-2.529-1.401-4.421c0-1.934,0.455-3.403,1.363-4.409
		c0.909-1.007,2.06-1.51,3.448-1.51c1.274,0,2.377,0.53,3.31,1.59v-5.672h3.019V61.463L584.128,61.463z M576.071,55.512
		c0,1.219,0.168,2.1,0.505,2.644c0.486,0.788,1.167,1.182,2.041,1.182c0.693,0,1.285-0.295,1.771-0.887
		c0.487-0.591,0.73-1.474,0.73-2.647c0-1.311-0.236-2.254-0.709-2.83c-0.474-0.576-1.078-0.865-1.815-0.865
		c-0.716,0-1.315,0.285-1.799,0.854C576.313,53.529,576.071,54.38,576.071,55.512z"/>
	<path fill="#5F4BA0" d="M593.71,57.832l3.008,0.505c-0.387,1.103-0.997,1.942-1.831,2.519c-0.835,0.578-1.879,0.865-3.132,0.865
		c-1.982,0-3.452-0.647-4.404-1.943c-0.752-1.038-1.128-2.35-1.128-3.932c0-1.892,0.494-3.371,1.482-4.443
		c0.988-1.069,2.238-1.604,3.749-1.604c1.697,0,3.036,0.561,4.018,1.683c0.981,1.119,1.45,2.836,1.407,5.149h-7.563
		c0.021,0.896,0.265,1.593,0.729,2.091c0.465,0.496,1.045,0.745,1.74,0.745c0.473,0,0.87-0.129,1.192-0.387
		C593.3,58.82,593.545,58.405,593.71,57.832z M593.882,54.781c-0.021-0.874-0.247-1.538-0.677-1.992
		c-0.43-0.455-0.953-0.684-1.568-0.684c-0.658,0-1.203,0.24-1.633,0.721s-0.641,1.132-0.634,1.955H593.882z"/>
	<path fill="#5F4BA0" d="M609.802,61.463h-2.804v-1.676c-0.466,0.65-1.016,1.137-1.648,1.455c-0.635,0.318-1.272,0.479-1.918,0.479
		c-1.311,0-2.434-0.527-3.367-1.584c-0.936-1.057-1.401-2.529-1.401-4.421c0-1.934,0.455-3.403,1.364-4.409
		c0.908-1.007,2.059-1.51,3.447-1.51c1.274,0,2.377,0.53,3.31,1.59v-5.672h3.019L609.802,61.463L609.802,61.463z M601.745,55.512
		c0,1.219,0.168,2.1,0.505,2.644c0.486,0.788,1.167,1.182,2.041,1.182c0.694,0,1.285-0.295,1.771-0.887
		c0.487-0.591,0.73-1.474,0.73-2.647c0-1.311-0.236-2.254-0.709-2.83s-1.078-0.865-1.815-0.865c-0.717,0-1.315,0.285-1.799,0.854
		C601.986,53.529,601.745,54.38,601.745,55.512z"/>
</g>
<g enable-background="new    ">
	<path fill="#5F4BA0" d="M619.223,61.463v-9.904h-1.708v-1.503h1.708v-1.214c0-0.767,0.068-1.336,0.204-1.708
		c0.188-0.501,0.515-0.908,0.983-1.219c0.469-0.313,1.125-0.468,1.971-0.468c0.544,0,1.146,0.064,1.805,0.193l-0.289,1.687
		c-0.401-0.071-0.78-0.107-1.14-0.107c-0.587,0-1.003,0.125-1.246,0.376c-0.243,0.251-0.364,0.72-0.364,1.407v1.053h2.224v1.503
		h-2.224v9.904H619.223z"/>
	<path fill="#5F4BA0" d="M624.153,55.759c0-2.112,0.587-3.678,1.762-4.694c0.981-0.845,2.177-1.268,3.588-1.268
		c1.568,0,2.852,0.514,3.846,1.541c0.995,1.028,1.493,2.448,1.493,4.26c0,1.469-0.221,2.623-0.66,3.465
		c-0.44,0.842-1.082,1.494-1.924,1.961c-0.842,0.466-1.76,0.697-2.755,0.697c-1.597,0-2.888-0.512-3.872-1.535
		C624.646,59.16,624.153,57.686,624.153,55.759z M626.141,55.759c0,1.461,0.318,2.556,0.956,3.282
		c0.639,0.727,1.439,1.09,2.406,1.09c0.96,0,1.758-0.365,2.396-1.096c0.637-0.73,0.956-1.844,0.956-3.342
		c0-1.41-0.321-2.479-0.963-3.205c-0.641-0.729-1.438-1.092-2.39-1.092c-0.967,0-1.769,0.361-2.406,1.086
		C626.46,53.206,626.141,54.298,626.141,55.759z"/>
	<path fill="#5F4BA0" d="M637.087,61.463V50.055h1.74v1.729c0.443-0.81,0.854-1.343,1.229-1.601c0.377-0.258,0.79-0.387,1.241-0.387
		c0.651,0,1.313,0.208,1.987,0.623l-0.666,1.794c-0.474-0.279-0.945-0.419-1.418-0.419c-0.423,0-0.804,0.127-1.14,0.381
		c-0.337,0.255-0.575,0.607-0.72,1.06c-0.215,0.688-0.322,1.438-0.322,2.256v5.973H637.087z"/>
	<path fill="#5F4BA0" d="M654.769,59.732l0.279,1.709c-0.544,0.113-1.031,0.172-1.461,0.172c-0.702,0-1.246-0.111-1.633-0.333
		s-0.659-0.515-0.816-0.876c-0.156-0.361-0.235-1.122-0.235-2.282v-6.563h-1.418v-1.503h1.418V47.23l1.923-1.16v3.985h1.943v1.503
		h-1.943v6.672c0,0.552,0.033,0.905,0.102,1.063c0.069,0.157,0.181,0.283,0.334,0.376s0.373,0.14,0.66,0.14
		C654.135,59.809,654.418,59.783,654.769,59.732z"/>
	<path fill="#5F4BA0" d="M656.659,61.463V45.715h1.934v5.65c0.902-1.046,2.041-1.568,3.416-1.568c0.845,0,1.579,0.166,2.202,0.5
		c0.623,0.332,1.068,0.793,1.338,1.38c0.269,0.587,0.402,1.439,0.402,2.558v7.229h-1.935v-7.229c0-0.967-0.209-1.672-0.629-2.11
		c-0.418-0.44-1.012-0.661-1.776-0.661c-0.573,0-1.111,0.148-1.617,0.446c-0.504,0.297-0.864,0.698-1.079,1.208
		c-0.215,0.509-0.322,1.21-0.322,2.105v6.24H656.659z"/>
	<path fill="#5F4BA0" d="M668.905,47.938v-2.224h1.934v2.224H668.905z M668.905,61.463V50.055h1.934v11.408H668.905z"/>
	<path fill="#5F4BA0" d="M673.009,58.059l1.912-0.302c0.107,0.767,0.406,1.354,0.897,1.763c0.489,0.407,1.176,0.611,2.057,0.611
		c0.888,0,1.547-0.181,1.977-0.543c0.431-0.361,0.646-0.785,0.646-1.271c0-0.438-0.189-0.78-0.569-1.031
		c-0.265-0.172-0.924-0.391-1.977-0.655c-1.418-0.358-2.401-0.668-2.948-0.93c-0.549-0.261-0.964-0.623-1.246-1.084
		c-0.283-0.464-0.425-0.974-0.425-1.531c0-0.509,0.116-0.979,0.349-1.412c0.232-0.434,0.551-0.794,0.951-1.08
		c0.301-0.222,0.711-0.41,1.23-0.564c0.519-0.153,1.075-0.23,1.67-0.23c0.895,0,1.682,0.129,2.356,0.387
		c0.679,0.258,1.178,0.607,1.499,1.046c0.322,0.441,0.544,1.031,0.666,1.769l-1.891,0.258c-0.086-0.587-0.335-1.046-0.747-1.375
		s-0.993-0.493-1.745-0.493c-0.888,0-1.521,0.146-1.901,0.439s-0.568,0.638-0.568,1.031c0,0.25,0.079,0.477,0.236,0.677
		c0.156,0.208,0.403,0.38,0.74,0.517c0.193,0.07,0.764,0.235,1.708,0.493c1.368,0.365,2.321,0.664,2.862,0.896
		c0.541,0.233,0.965,0.572,1.273,1.017c0.308,0.444,0.462,0.995,0.462,1.654c0,0.645-0.188,1.252-0.563,1.819
		c-0.377,0.57-0.919,1.01-1.628,1.322c-0.709,0.311-1.511,0.467-2.406,0.467c-1.481,0-2.611-0.308-3.39-0.924
		C673.718,60.184,673.224,59.268,673.009,58.059z"/>
</g>
<g enable-background="new    ">
	<path fill="#5F4BA0" d="M690.239,56.339l3.094-0.301c0.187,1.038,0.563,1.801,1.134,2.288c0.568,0.486,1.337,0.73,2.305,0.73
		c1.023,0,1.796-0.218,2.314-0.65c0.52-0.434,0.778-0.939,0.778-1.521c0-0.372-0.109-0.688-0.327-0.95
		c-0.219-0.262-0.602-0.488-1.146-0.683c-0.373-0.129-1.221-0.358-2.546-0.688c-1.704-0.422-2.899-0.94-3.588-1.558
		c-0.967-0.866-1.45-1.923-1.45-3.169c0-0.802,0.228-1.553,0.683-2.25c0.455-0.699,1.109-1.23,1.967-1.596
		c0.854-0.365,1.889-0.548,3.099-0.548c1.978,0,3.464,0.434,4.464,1.3c0.998,0.866,1.523,2.023,1.573,3.47l-3.18,0.14
		c-0.136-0.81-0.429-1.391-0.876-1.746c-0.447-0.354-1.119-0.531-2.014-0.531c-0.925,0-1.647,0.189-2.171,0.569
		c-0.337,0.243-0.505,0.569-0.505,0.978c0,0.372,0.157,0.691,0.474,0.956c0.4,0.337,1.375,0.688,2.922,1.053
		s2.689,0.743,3.433,1.135c0.74,0.39,1.32,0.924,1.74,1.6c0.418,0.678,0.628,1.514,0.628,2.509c0,0.901-0.251,1.747-0.752,2.535
		s-1.21,1.373-2.127,1.757c-0.917,0.383-2.061,0.574-3.427,0.574c-1.991,0-3.521-0.46-4.587-1.381
		C691.084,59.441,690.447,58.102,690.239,56.339z"/>
	<path fill="#5F4BA0" d="M710.929,50.055v2.406h-2.063v4.598c0,0.932,0.02,1.475,0.06,1.627c0.039,0.154,0.129,0.281,0.269,0.383
		c0.141,0.101,0.311,0.149,0.511,0.149c0.279,0,0.684-0.097,1.214-0.29l0.258,2.342c-0.702,0.301-1.497,0.451-2.385,0.451
		c-0.545,0-1.035-0.092-1.472-0.272c-0.438-0.185-0.758-0.421-0.962-0.709c-0.203-0.291-0.347-0.683-0.425-1.177
		c-0.063-0.352-0.097-1.061-0.097-2.127v-4.975h-1.386v-2.406h1.386v-2.267l3.029-1.762v4.028L710.929,50.055L710.929,50.055z"/>
	<path fill="#5F4BA0" d="M715.279,53.535l-2.739-0.494c0.308-1.104,0.838-1.919,1.59-2.449c0.752-0.53,1.869-0.795,3.353-0.795
		c1.347,0,2.349,0.159,3.008,0.479c0.659,0.318,1.122,0.723,1.392,1.213c0.269,0.491,0.402,1.392,0.402,2.702l-0.032,3.522
		c0,1.003,0.048,1.742,0.146,2.218c0.096,0.478,0.276,0.987,0.542,1.531h-2.986c-0.079-0.199-0.176-0.498-0.29-0.893
		c-0.051-0.178-0.086-0.297-0.107-0.354c-0.516,0.501-1.066,0.877-1.653,1.128c-0.588,0.251-1.214,0.376-1.88,0.376
		c-1.176,0-2.102-0.318-2.776-0.955c-0.678-0.639-1.016-1.443-1.016-2.418c0-0.645,0.153-1.219,0.462-1.725
		c0.308-0.504,0.738-0.891,1.294-1.16c0.555-0.268,1.354-0.503,2.4-0.703c1.411-0.265,2.389-0.512,2.934-0.74v-0.302
		c0-0.579-0.145-0.993-0.431-1.241c-0.287-0.246-0.826-0.369-1.622-0.369c-0.536,0-0.956,0.104-1.257,0.316
		C715.709,52.635,715.465,53.005,715.279,53.535z M719.318,55.984c-0.388,0.129-0.999,0.283-1.837,0.461
		c-0.839,0.18-1.387,0.354-1.645,0.527c-0.395,0.278-0.591,0.633-0.591,1.063c0,0.423,0.157,0.788,0.473,1.096
		c0.316,0.309,0.717,0.462,1.203,0.462c0.544,0,1.063-0.179,1.559-0.536c0.364-0.272,0.604-0.605,0.72-1
		c0.079-0.258,0.118-0.748,0.118-1.472V55.984z"/>
	<path fill="#5F4BA0" d="M728.148,61.463h-3.02V50.055h2.804v1.622c0.479-0.767,0.911-1.271,1.296-1.515
		c0.383-0.243,0.816-0.365,1.305-0.365c0.688,0,1.35,0.189,1.986,0.569l-0.935,2.632c-0.509-0.329-0.981-0.494-1.418-0.494
		c-0.423,0-0.781,0.116-1.074,0.35c-0.294,0.232-0.524,0.653-0.692,1.263c-0.168,0.608-0.252,1.884-0.252,3.823V61.463z"/>
	<path fill="#5F4BA0" d="M739.052,50.055v2.406h-2.063v4.598c0,0.932,0.02,1.475,0.06,1.627c0.039,0.154,0.129,0.281,0.269,0.383
		c0.141,0.101,0.311,0.149,0.511,0.149c0.279,0,0.684-0.097,1.214-0.29l0.258,2.342c-0.702,0.301-1.497,0.451-2.385,0.451
		c-0.545,0-1.035-0.092-1.472-0.272c-0.438-0.185-0.758-0.421-0.962-0.709c-0.203-0.291-0.347-0.683-0.425-1.177
		c-0.063-0.352-0.097-1.061-0.097-2.127v-4.975h-1.386v-2.406h1.386v-2.267l3.029-1.762v4.028L739.052,50.055L739.052,50.055z"/>
	<path fill="#5F4BA0" d="M748.655,61.463v-1.708c-0.415,0.608-0.962,1.089-1.639,1.438c-0.678,0.352-1.392,0.526-2.144,0.526
		c-0.767,0-1.454-0.168-2.063-0.505c-0.609-0.337-1.051-0.81-1.321-1.418c-0.272-0.607-0.408-1.449-0.408-2.523v-7.219h3.019v5.242
		c0,1.604,0.057,2.587,0.167,2.949c0.11,0.36,0.313,0.647,0.606,0.858c0.294,0.211,0.666,0.316,1.117,0.316
		c0.516,0,0.978-0.143,1.386-0.424c0.408-0.283,0.688-0.635,0.838-1.053c0.15-0.42,0.227-1.445,0.227-3.078v-4.813h3.019V61.46
		h-2.804V61.463z"/>
	<path fill="#5F4BA0" d="M754.499,50.055h2.814v1.675c0.364-0.572,0.858-1.037,1.481-1.396c0.623-0.358,1.313-0.537,2.073-0.537
		c1.324,0,2.449,0.52,3.373,1.558c0.924,1.039,1.386,2.485,1.386,4.34c0,1.906-0.466,3.387-1.396,4.443
		c-0.932,1.055-2.061,1.584-3.385,1.584c-0.631,0-1.2-0.125-1.713-0.377c-0.513-0.251-1.052-0.681-1.617-1.289v5.748h-3.019
		L754.499,50.055L754.499,50.055z M757.485,55.564c0,1.283,0.254,2.229,0.763,2.842c0.508,0.613,1.128,0.919,1.857,0.919
		c0.702,0,1.285-0.281,1.752-0.843c0.465-0.563,0.697-1.484,0.697-2.768c0-1.195-0.24-2.084-0.72-2.664s-1.074-0.869-1.783-0.869
		c-0.737,0-1.35,0.284-1.837,0.854C757.729,53.605,757.485,54.448,757.485,55.564z"/>
</g>
<g enable-background="new    ">
	<path fill="#F0504B" d="M315.835,35.463V22.578h2.531l5.273,8.604v-8.604h2.417v12.885h-2.61l-5.194-8.402v8.402H315.835z"/>
	<path fill="#F0504B" d="M334.195,32.492l2.461,0.413c-0.316,0.902-0.816,1.59-1.499,2.062c-0.683,0.472-1.537,0.707-2.562,0.707
		c-1.623,0-2.824-0.53-3.604-1.591c-0.615-0.85-0.923-1.922-0.923-3.217c0-1.547,0.404-2.758,1.213-3.634
		c0.809-0.876,1.831-1.314,3.067-1.314c1.389,0,2.484,0.459,3.287,1.375c0.803,0.918,1.187,2.322,1.151,4.215h-6.188
		c0.018,0.732,0.217,1.303,0.598,1.709c0.381,0.408,0.855,0.611,1.424,0.611c0.387,0,0.712-0.105,0.976-0.316
		C333.86,33.301,334.061,32.961,334.195,32.492z M334.336,29.996c-0.018-0.715-0.202-1.258-0.554-1.631
		c-0.352-0.371-0.779-0.558-1.283-0.558c-0.539,0-0.984,0.196-1.336,0.589s-0.524,0.926-0.519,1.6H334.336z"/>
	<path fill="#F0504B" d="M340.541,35.463l-2.953-9.334h2.399l1.749,6.117l1.608-6.117h2.382l1.556,6.117l1.784-6.117h2.435
		l-2.997,9.334h-2.373l-1.608-6.003l-1.582,6.003H340.541z"/>
	<path fill="#F0504B" d="M356.484,35.683l3.19-13.324h1.854l-3.226,13.324H356.484z"/>
	<path fill="#F0504B" d="M367.822,35.463V22.578h4.175c1.582,0,2.613,0.064,3.094,0.193c0.738,0.193,1.356,0.614,1.854,1.262
		c0.498,0.648,0.747,1.483,0.747,2.509c0,0.791-0.144,1.456-0.431,1.995c-0.287,0.539-0.652,0.963-1.094,1.27
		c-0.442,0.309-0.892,0.512-1.349,0.611c-0.621,0.123-1.521,0.185-2.698,0.185h-1.696v4.86H367.822z M370.424,24.758v3.656h1.424
		c1.025,0,1.711-0.067,2.057-0.202c0.346-0.135,0.617-0.346,0.813-0.633c0.196-0.287,0.294-0.621,0.294-1.002
		c0-0.469-0.138-0.855-0.413-1.16s-0.624-0.495-1.046-0.571c-0.311-0.059-0.935-0.088-1.872-0.088H370.424z"/>
	<path fill="#F0504B" d="M382.175,35.463h-2.47v-9.334h2.294v1.327c0.393-0.627,0.746-1.04,1.059-1.239
		c0.313-0.199,0.669-0.299,1.068-0.299c0.563,0,1.104,0.155,1.626,0.466l-0.765,2.153c-0.416-0.27-0.803-0.404-1.16-0.404
		c-0.346,0-0.639,0.096-0.879,0.285c-0.24,0.191-0.429,0.535-0.567,1.033c-0.138,0.498-0.207,1.541-0.207,3.129L382.175,35.463
		L382.175,35.463z"/>
	<path fill="#F0504B" d="M386.244,30.664c0-0.82,0.202-1.614,0.606-2.382c0.404-0.768,0.977-1.354,1.718-1.758
		c0.741-0.404,1.569-0.606,2.483-0.606c1.412,0,2.569,0.459,3.472,1.375c0.902,0.918,1.354,2.076,1.354,3.477
		c0,1.412-0.456,2.583-1.367,3.512c-0.911,0.929-2.058,1.393-3.441,1.393c-0.855,0-1.671-0.193-2.448-0.58
		c-0.777-0.387-1.367-0.953-1.771-1.701C386.446,32.646,386.244,31.736,386.244,30.664z M388.775,30.796
		c0,0.926,0.22,1.635,0.659,2.127c0.439,0.492,0.981,0.738,1.626,0.738s1.185-0.246,1.622-0.738
		c0.437-0.492,0.655-1.207,0.655-2.145c0-0.914-0.218-1.617-0.655-2.109s-0.977-0.738-1.622-0.738s-1.187,0.246-1.626,0.738
		S388.775,29.87,388.775,30.796z"/>
	<path fill="#F0504B" d="M397.626,26.129h2.276v1.274c0.813-0.99,1.783-1.485,2.908-1.485c0.599,0,1.116,0.123,1.557,0.369
		c0.439,0.246,0.8,0.618,1.081,1.116c0.41-0.498,0.853-0.87,1.327-1.116c0.474-0.246,0.98-0.369,1.521-0.369
		c0.687,0,1.266,0.14,1.74,0.418c0.474,0.278,0.829,0.687,1.063,1.226c0.17,0.398,0.255,1.043,0.255,1.934v5.968h-2.47v-5.335
		c0-0.926-0.085-1.523-0.255-1.793c-0.229-0.352-0.58-0.527-1.055-0.527c-0.347,0-0.671,0.105-0.977,0.316
		c-0.305,0.211-0.523,0.521-0.658,0.927c-0.136,0.408-0.202,1.051-0.202,1.93v4.482h-2.471v-5.115c0-0.908-0.044-1.494-0.132-1.758
		c-0.088-0.264-0.224-0.46-0.409-0.589c-0.185-0.129-0.435-0.193-0.751-0.193c-0.381,0-0.724,0.103-1.027,0.308
		c-0.305,0.205-0.523,0.501-0.655,0.888c-0.132,0.387-0.198,1.028-0.198,1.925v4.535h-2.47v-9.336H397.626z"/>
	<path fill="#F0504B" d="M413.815,24.863v-2.285h2.47v2.285H413.815z M413.815,35.463v-9.334h2.47v9.334H413.815z"/>
	<path fill="#F0504B" d="M417.946,32.8l2.479-0.378c0.105,0.48,0.319,0.846,0.643,1.094c0.321,0.25,0.772,0.374,1.354,0.374
		c0.639,0,1.119-0.117,1.441-0.352c0.217-0.164,0.325-0.384,0.325-0.659c0-0.188-0.06-0.343-0.177-0.466
		c-0.123-0.117-0.397-0.226-0.825-0.325c-1.992-0.439-3.256-0.841-3.788-1.204c-0.738-0.504-1.107-1.204-1.107-2.101
		c0-0.809,0.319-1.488,0.958-2.039c0.639-0.551,1.629-0.826,2.971-0.826c1.277,0,2.228,0.208,2.849,0.624s1.049,1.031,1.282,1.846
		l-2.328,0.431c-0.101-0.363-0.289-0.642-0.567-0.835s-0.675-0.29-1.191-0.29c-0.649,0-1.115,0.091-1.396,0.272
		c-0.188,0.129-0.281,0.296-0.281,0.501c0,0.176,0.082,0.325,0.246,0.448c0.223,0.164,0.992,0.396,2.307,0.694
		c1.315,0.298,2.234,0.665,2.755,1.099c0.517,0.439,0.773,1.052,0.773,1.837c0,0.855-0.357,1.591-1.072,2.206
		s-1.771,0.923-3.173,0.923c-1.271,0-2.278-0.258-3.019-0.773C418.661,34.386,418.175,33.685,417.946,32.8z"/>
	<path fill="#F0504B" d="M428.827,24.863v-2.285h2.47v2.285H428.827z M428.827,35.463v-9.334h2.47v9.334H428.827z"/>
	<path fill="#F0504B" d="M442.318,35.463h-2.471v-4.764c0-1.008-0.053-1.659-0.157-1.955c-0.105-0.296-0.277-0.526-0.515-0.69
		c-0.236-0.164-0.522-0.246-0.856-0.246c-0.429,0-0.813,0.117-1.151,0.352c-0.339,0.235-0.573,0.545-0.699,0.932
		c-0.126,0.387-0.188,1.102-0.188,2.145v4.228h-2.471v-9.334h2.294V27.5c0.814-1.055,1.841-1.582,3.076-1.582
		c0.545,0,1.043,0.099,1.494,0.295c0.451,0.196,0.792,0.446,1.024,0.751c0.231,0.305,0.393,0.65,0.482,1.037
		c0.09,0.387,0.137,0.94,0.137,1.661L442.318,35.463L442.318,35.463z"/>
	<path fill="#F0504B" d="M444.595,36.078l2.821,0.343c0.047,0.328,0.155,0.554,0.325,0.677c0.233,0.176,0.604,0.264,1.106,0.264
		c0.646,0,1.128-0.097,1.45-0.29c0.217-0.129,0.381-0.337,0.492-0.624c0.076-0.205,0.114-0.583,0.114-1.134v-1.362
		c-0.738,1.008-1.67,1.512-2.795,1.512c-1.254,0-2.247-0.53-2.979-1.591c-0.574-0.838-0.86-1.881-0.86-3.129
		c0-1.564,0.376-2.76,1.129-3.586c0.753-0.826,1.688-1.239,2.808-1.239c1.154,0,2.106,0.507,2.856,1.521v-1.31h2.312v8.376
		c0,1.102-0.091,1.925-0.272,2.47c-0.181,0.545-0.437,0.973-0.765,1.283c-0.328,0.31-0.766,0.554-1.313,0.729
		c-0.549,0.175-1.241,0.264-2.079,0.264c-1.582,0-2.704-0.271-3.366-0.813s-0.993-1.229-0.993-2.061
		C444.586,36.295,444.589,36.195,444.595,36.078z M446.801,30.603c0,0.99,0.192,1.716,0.576,2.175
		c0.384,0.461,0.857,0.69,1.419,0.69c0.604,0,1.113-0.235,1.529-0.708c0.416-0.471,0.624-1.17,0.624-2.096
		c0-0.967-0.199-1.685-0.599-2.153c-0.398-0.468-0.901-0.703-1.512-0.703c-0.592,0-1.08,0.23-1.463,0.69
		S446.801,29.659,446.801,30.603z"/>
	<path fill="#F0504B" d="M460.178,31.271l2.531-0.246c0.152,0.85,0.461,1.474,0.927,1.872s1.095,0.598,1.886,0.598
		c0.838,0,1.469-0.177,1.894-0.531s0.637-0.77,0.637-1.244c0-0.305-0.089-0.563-0.268-0.777c-0.179-0.214-0.491-0.4-0.937-0.559
		c-0.305-0.105-0.999-0.293-2.083-0.563c-1.395-0.346-2.373-0.771-2.936-1.274c-0.791-0.709-1.188-1.573-1.188-2.593
		c0-0.656,0.187-1.27,0.559-1.842c0.372-0.57,0.908-1.006,1.607-1.305c0.7-0.299,1.546-0.448,2.536-0.448
		c1.617,0,2.834,0.354,3.652,1.063s1.247,1.655,1.288,2.839l-2.603,0.114c-0.11-0.662-0.35-1.139-0.716-1.428
		c-0.366-0.291-0.916-0.437-1.647-0.437c-0.756,0-1.349,0.155-1.775,0.466c-0.275,0.199-0.413,0.466-0.413,0.8
		c0,0.305,0.129,0.565,0.387,0.782c0.328,0.275,1.125,0.563,2.392,0.861c1.266,0.298,2.202,0.608,2.808,0.927
		c0.606,0.32,1.081,0.756,1.424,1.311c0.344,0.553,0.515,1.237,0.515,2.052c0,0.738-0.205,1.43-0.615,2.074
		c-0.41,0.644-0.99,1.124-1.74,1.437s-1.685,0.471-2.804,0.471c-1.629,0-2.88-0.376-3.753-1.129S460.348,32.712,460.178,31.271z"/>
	<path fill="#F0504B" d="M477.105,26.129v1.969h-1.688v3.762c0,0.762,0.016,1.206,0.048,1.332s0.105,0.229,0.22,0.312
		c0.115,0.083,0.254,0.123,0.417,0.123c0.229,0,0.561-0.079,0.993-0.237l0.211,1.916c-0.573,0.246-1.225,0.369-1.95,0.369
		c-0.445,0-0.848-0.074-1.204-0.225c-0.357-0.148-0.62-0.342-0.787-0.58c-0.167-0.236-0.283-0.558-0.348-0.962
		c-0.053-0.287-0.078-0.867-0.078-1.74v-4.069h-1.135V26.13h1.135v-1.854l2.479-1.441v3.296h1.688V26.129z"/>
	<path fill="#F0504B" d="M480.665,28.977l-2.241-0.404c0.252-0.902,0.687-1.57,1.301-2.004c0.615-0.434,1.529-0.65,2.742-0.65
		c1.103,0,1.922,0.131,2.461,0.391c0.539,0.262,0.918,0.593,1.139,0.994c0.22,0.401,0.33,1.138,0.33,2.21l-0.026,2.883
		c0,0.82,0.04,1.426,0.119,1.815c0.079,0.389,0.227,0.807,0.443,1.252h-2.442c-0.064-0.164-0.145-0.407-0.237-0.729
		c-0.041-0.146-0.07-0.243-0.088-0.29c-0.422,0.41-0.873,0.718-1.354,0.923c-0.48,0.205-0.992,0.308-1.537,0.308
		c-0.962,0-1.719-0.261-2.272-0.782s-0.831-1.181-0.831-1.978c0-0.527,0.126-0.998,0.378-1.41c0.252-0.414,0.605-0.73,1.06-0.949
		c0.453-0.221,1.108-0.412,1.964-0.576c1.153-0.217,1.954-0.419,2.398-0.606v-0.246c0-0.475-0.117-0.813-0.352-1.015
		c-0.234-0.203-0.677-0.304-1.327-0.304c-0.439,0-0.782,0.087-1.028,0.259C481.017,28.24,480.817,28.543,480.665,28.977z
		 M483.97,30.98c-0.315,0.105-0.816,0.231-1.503,0.378c-0.686,0.147-1.134,0.29-1.345,0.431c-0.322,0.229-0.483,0.519-0.483,0.87
		c0,0.346,0.129,0.645,0.388,0.896c0.258,0.251,0.586,0.378,0.983,0.378c0.445,0,0.87-0.146,1.274-0.439
		c0.299-0.223,0.495-0.495,0.589-0.817c0.063-0.211,0.097-0.612,0.097-1.204V30.98L483.97,30.98z"/>
	<path fill="#F0504B" d="M491.194,35.463h-2.471v-9.334h2.294v1.327c0.394-0.627,0.746-1.04,1.06-1.239
		c0.313-0.199,0.669-0.299,1.067-0.299c0.563,0,1.104,0.155,1.627,0.466l-0.766,2.153c-0.416-0.27-0.803-0.404-1.16-0.404
		c-0.346,0-0.639,0.096-0.879,0.285c-0.24,0.191-0.429,0.535-0.566,1.033c-0.139,0.498-0.207,1.541-0.207,3.129L491.194,35.463
		L491.194,35.463z"/>
	<path fill="#F0504B" d="M500.115,26.129v1.969h-1.688v3.762c0,0.762,0.017,1.206,0.048,1.332c0.032,0.126,0.105,0.229,0.221,0.312
		c0.114,0.083,0.253,0.123,0.417,0.123c0.229,0,0.56-0.079,0.993-0.237l0.211,1.916c-0.574,0.246-1.226,0.369-1.951,0.369
		c-0.445,0-0.848-0.074-1.204-0.225c-0.357-0.148-0.62-0.342-0.787-0.58c-0.167-0.236-0.283-0.558-0.347-0.962
		c-0.054-0.287-0.079-0.867-0.079-1.74v-4.069h-1.134V26.13h1.134v-1.854l2.479-1.441v3.296h1.688V26.129z"/>
	<path fill="#F0504B" d="M507.973,35.463v-1.397c-0.34,0.498-0.787,0.891-1.34,1.178s-1.138,0.431-1.753,0.431
		c-0.627,0-1.188-0.138-1.688-0.413c-0.499-0.275-0.858-0.662-1.081-1.16c-0.224-0.498-0.334-1.187-0.334-2.065v-5.906h2.47v4.289
		c0,1.313,0.045,2.117,0.136,2.412c0.091,0.297,0.256,0.531,0.497,0.703c0.24,0.174,0.545,0.26,0.914,0.26
		c0.422,0,0.8-0.115,1.134-0.348c0.334-0.23,0.563-0.518,0.687-0.861c0.123-0.342,0.185-1.182,0.185-2.518V26.13h2.471v9.334
		L507.973,35.463L507.973,35.463z"/>
	<path fill="#F0504B" d="M512.754,26.129h2.303V27.5c0.3-0.469,0.703-0.85,1.213-1.143c0.511-0.293,1.075-0.439,1.696-0.439
		c1.084,0,2.004,0.425,2.76,1.274c0.757,0.849,1.135,2.033,1.135,3.551c0,1.559-0.382,2.771-1.144,3.634
		c-0.762,0.865-1.685,1.297-2.769,1.297c-0.517,0-0.983-0.103-1.402-0.308c-0.419-0.205-0.86-0.557-1.323-1.055v4.702h-2.47
		L512.754,26.129L512.754,26.129z M515.197,30.638c0,1.049,0.208,1.823,0.624,2.325c0.416,0.5,0.923,0.751,1.521,0.751
		c0.574,0,1.053-0.229,1.434-0.69c0.381-0.459,0.57-1.214,0.57-2.263c0-0.979-0.195-1.705-0.589-2.18
		c-0.393-0.475-0.879-0.712-1.459-0.712c-0.604,0-1.104,0.232-1.503,0.699C515.396,29.033,515.197,29.724,515.197,30.638z"/>
</g>
<path id="Subtraction_3" fill="#F0504B" d="M1158.971,100.462H896.307c-7.649,0.022-15.248-1.313-22.436-3.947
	c-6.709-2.438-12.918-6.086-18.324-10.764c-5.149-4.429-9.352-9.859-12.352-15.968c-6.041-12.328-6.041-26.776,0-39.104
	c3-6.107,7.201-11.539,12.352-15.966c5.406-4.678,11.615-8.326,18.324-10.764c7.188-2.634,14.785-3.971,22.436-3.948h262.664
	c2.982-0.035,5.875,1.009,8.152,2.943c2.111,1.753,3.346,4.352,3.377,7.103v80.369c-0.031,2.752-1.266,5.35-3.377,7.104
	C1164.846,99.452,1161.953,100.497,1158.971,100.462z M990.979,92.799c-0.967,0.104-1.666,0.978-1.561,1.948
	c0.104,0.971,0.973,1.672,1.939,1.568c0.893-0.099,1.569-0.856,1.569-1.758c-0.008-0.983-0.807-1.774-1.784-1.768
	C991.088,92.791,991.033,92.793,990.979,92.799z M1036.854,90.978c-0.678-0.002-1.336,0.23-1.864,0.657
	c-0.006,0.007-0.013,0.013-0.019,0.019l-0.018,0.017c-0.271,0.138-0.5,0.346-0.664,0.604c-0.184,0.298-0.291,0.641-0.307,0.99
	c0.004,0.444,0.176,0.871,0.481,1.191c0.136,0.15,0.293,0.28,0.468,0.386c0.012,0.009,0.02,0.018,0.028,0.026l0.027,0.024
	c0.539,0.431,1.209,0.664,1.897,0.664c0.451,0.003,0.896-0.101,1.302-0.302c0.764-0.375,1.264-1.135,1.309-1.988
	c-0.045-0.975-0.692-1.817-1.623-2.104C1037.546,91.042,1037.2,90.978,1036.854,90.978L1036.854,90.978L1036.854,90.978z
	 M892.41,84.388c-0.73,0.005-1.437,0.26-2,0.722c-0.959,0.78-1.107,2.191-0.33,3.155c0.098,0.121,0.209,0.233,0.33,0.331
	c1.16,0.964,2.838,0.964,4,0c0.957-0.776,1.106-2.189,0.332-3.153c-0.101-0.121-0.211-0.232-0.332-0.333
	C893.846,84.646,893.139,84.391,892.41,84.388z M1132.637,83.666c-0.926,0.1-1.596,0.933-1.496,1.863
	c0.099,0.93,0.931,1.604,1.855,1.504c0.854-0.093,1.506-0.817,1.506-1.684c-0.008-0.942-0.775-1.7-1.715-1.694
	C1132.738,83.657,1132.688,83.661,1132.637,83.666z M1053.551,81.03c-0.854-0.037-1.59,0.604-1.674,1.46
	c-0.01,0.338,0.121,0.665,0.361,0.902c0.346,0.355,0.817,0.559,1.313,0.561c0.857,0.038,1.592-0.604,1.678-1.459
	c0.009-0.34-0.123-0.667-0.362-0.905C1054.52,81.232,1054.047,81.03,1053.551,81.03L1053.551,81.03z M997.904,80.93
	c-0.386-0.035-0.728,0.247-0.763,0.636c-0.034,0.387,0.248,0.729,0.634,0.766c0.043,0.004,0.086,0.004,0.129,0
	c0.217,0.009,0.426-0.069,0.584-0.22c0.125-0.128,0.194-0.303,0.192-0.48c-0.002-0.392-0.317-0.709-0.709-0.707
	c-0.022,0-0.047,0.002-0.067,0.004V80.93z M1015.959,74.335c-0.586-0.025-1.158,0.188-1.586,0.596
	c-0.34,0.349-0.531,0.817-0.527,1.306c-0.125,1.174,0.722,2.226,1.89,2.351c1.166,0.126,2.215-0.724,2.34-1.896
	c0.125-1.172-0.722-2.225-1.89-2.351c-0.073-0.008-0.149-0.013-0.227-0.013V74.335L1015.959,74.335z M1046.875,64.39
	c-0.467-0.016-0.912,0.202-1.186,0.581l-0.056,0.08c-0.233,0.338-0.258,0.781-0.057,1.142c0.424,0.722,1.35,0.962,2.067,0.534
	c0.22-0.13,0.402-0.314,0.531-0.534c0.199-0.359,0.178-0.804-0.059-1.142l-0.056-0.08c-0.274-0.382-0.721-0.602-1.19-0.586
	L1046.875,64.39z M1131.357,52.134c-0.584-0.031-1.142,0.243-1.476,0.725c-0.311,0.452-0.311,1.053,0,1.507
	c0.244,0.348,0.609,0.592,1.021,0.685c0.137,0.027,0.276,0.04,0.418,0.04c0.733,0.045,1.416-0.392,1.686-1.08
	c0.117-0.373,0.062-0.781-0.155-1.105c-0.291-0.427-0.755-0.703-1.267-0.755c-0.076-0.01-0.151-0.016-0.229-0.016H1131.357z
	 M1032.529,35.325c-0.611-0.029-1.142,0.43-1.199,1.043c-0.006,0.241,0.088,0.474,0.258,0.644c0.246,0.255,0.584,0.4,0.938,0.402
	c0.612,0.027,1.141-0.432,1.198-1.044c0.009-0.241-0.086-0.475-0.258-0.643C1033.221,35.472,1032.883,35.326,1032.529,35.325z
	 M1051.209,32.667c-0.494-0.003-0.961,0.23-1.256,0.628c-0.215,0.284-0.275,0.657-0.162,0.994l0.014,0.038
	c0.009,0.023,0.017,0.042,0.021,0.061c0.227,0.563,0.775,0.929,1.381,0.918h0.053c0.588-0.007,1.115-0.371,1.332-0.919
	c0.006-0.02,0.017-0.041,0.021-0.062l0.012-0.037c0.115-0.336,0.055-0.709-0.16-0.992c-0.297-0.398-0.762-0.632-1.258-0.629
	H1051.209z M1048.109,23.989c-1.57-0.065-2.916,1.11-3.072,2.681c0.014,0.732,0.342,1.424,0.9,1.896
	c0.612,0.505,1.381,0.783,2.176,0.786c1.569,0.068,2.922-1.109,3.076-2.681c-0.019-0.732-0.345-1.422-0.9-1.896
	C1049.674,24.268,1048.904,23.99,1048.109,23.989L1048.109,23.989z M1064.68,25.88c-0.672-0.072-1.274,0.416-1.348,1.09
	c-0.07,0.675,0.414,1.28,1.086,1.353c0.088,0.009,0.174,0.009,0.262,0c0.375,0.016,0.742-0.121,1.017-0.381
	c0.219-0.225,0.34-0.525,0.338-0.839c-0.006-0.684-0.562-1.234-1.242-1.229C1064.754,25.874,1064.717,25.875,1064.68,25.88
	L1064.68,25.88z M1011.26,22.604c-0.697,0.074-1.203,0.701-1.129,1.4c0.072,0.7,0.695,1.208,1.394,1.134
	c0.646-0.068,1.137-0.615,1.137-1.268c-0.006-0.708-0.58-1.277-1.285-1.273C1011.336,22.599,1011.297,22.601,1011.26,22.604z
	 M1000.625,16.745c-0.834,0.005-1.639,0.295-2.285,0.825c-0.817,0.65-1.147,1.742-0.83,2.739c0.015,0.032,0.027,0.065,0.041,0.101
	c0.256,0.724,0.781,1.318,1.463,1.661c0.509,0.23,1.056,0.36,1.609,0.379h0.1c0.656-0.015,1.293-0.223,1.832-0.598
	c0.521-0.349,0.922-0.855,1.144-1.443c0.016-0.033,0.026-0.066,0.041-0.101c0.313-0.998-0.019-2.086-0.832-2.739
	c-0.644-0.531-1.449-0.822-2.281-0.826L1000.625,16.745L1000.625,16.745z M930.637,12.796c-0.344-0.012-0.682,0.108-0.94,0.336
	l-0.06,0.057c-0.44,0.371-0.535,1.013-0.221,1.496c0.289,0.386,0.742,0.612,1.223,0.611h0.052c0.521-0.004,1-0.295,1.241-0.759
	c0.22-0.464,0.101-1.018-0.291-1.349l-0.028-0.028l-0.029-0.028C931.322,12.903,930.984,12.783,930.637,12.796z M1060.316,10.887
	c-0.306,0.034-0.523,0.307-0.49,0.611c0.031,0.304,0.305,0.524,0.607,0.492c0.28-0.03,0.491-0.269,0.491-0.552
	c-0.002-0.308-0.254-0.556-0.561-0.553c-0.019,0-0.035,0.001-0.054,0.003L1060.316,10.887z M1039.947,8.772
	c-0.637-0.028-1.187,0.451-1.246,1.088c-0.008,0.251,0.09,0.494,0.268,0.671c0.258,0.265,0.611,0.415,0.979,0.416
	c0.639,0.028,1.186-0.45,1.248-1.088c0.006-0.251-0.093-0.493-0.271-0.67C1040.67,8.924,1040.316,8.773,1039.947,8.772z
	 M1129.475,8.239c-0.67,0.072-1.155,0.678-1.084,1.353c0.072,0.676,0.677,1.163,1.349,1.09c0.619-0.067,1.09-0.592,1.092-1.22
	c-0.004-0.683-0.559-1.234-1.24-1.229C1129.553,8.233,1129.514,8.235,1129.475,8.239z M1016.453,9.083
	c-0.455-0.024-0.848,0.318-0.889,0.775c0.08,0.493,0.541,0.828,1.03,0.749c0.384-0.063,0.685-0.364,0.746-0.749
	C1017.301,9.402,1016.908,9.061,1016.453,9.083L1016.453,9.083z"/>
<path id="Rectangle_2" fill="#FAD20A" d="M884.5,26.463h253l0,0v49l0,0h-253c-11.047,0-20-8.954-20-20v-9
	C864.5,35.417,873.453,26.463,884.5,26.463z"/>
<g enable-background="new    ">
	<path d="M893.11,58.463V42.715h6.691c1.684,0,2.906,0.142,3.668,0.424c0.765,0.283,1.373,0.786,1.832,1.51
		c0.458,0.724,0.688,1.551,0.688,2.481c0,1.182-0.349,2.157-1.042,2.927c-0.694,0.771-1.733,1.255-3.115,1.457
		c0.688,0.4,1.255,0.842,1.702,1.32s1.051,1.332,1.811,2.557l1.923,3.072h-3.803l-2.299-3.427c-0.816-1.226-1.375-1.996-1.676-2.315
		c-0.302-0.318-0.62-0.537-0.956-0.654c-0.337-0.118-0.87-0.178-1.602-0.178h-0.645v6.574H893.11z M896.29,49.375h2.353
		c1.525,0,2.479-0.064,2.857-0.193c0.379-0.129,0.677-0.351,0.892-0.666c0.216-0.315,0.322-0.709,0.322-1.182
		c0-0.53-0.142-0.958-0.425-1.283c-0.283-0.326-0.682-0.532-1.197-0.618c-0.258-0.036-1.031-0.054-2.319-0.054h-2.481L896.29,49.375
		L896.29,49.375z"/>
	<path d="M908.987,58.463V42.715h11.677v2.664h-8.497v3.491h7.906v2.653h-7.906v4.285h8.798v2.653L908.987,58.463L908.987,58.463z"
		/>
	<path d="M923.683,58.463V42.715h10.796v2.664h-7.615v3.728h6.573v2.665h-6.573v6.691H923.683z"/>
	<path d="M937.1,58.463V42.715h11.678v2.664h-8.497v3.491h7.905v2.653h-7.905v4.285h8.798v2.653L937.1,58.463L937.1,58.463z"/>
	<path d="M951.784,58.463V42.715h6.691c1.684,0,2.906,0.142,3.669,0.424c0.764,0.283,1.372,0.786,1.831,1.51
		c0.458,0.724,0.688,1.551,0.688,2.481c0,1.182-0.348,2.157-1.042,2.927c-0.694,0.771-1.733,1.255-3.115,1.457
		c0.688,0.4,1.255,0.842,1.702,1.32s1.051,1.332,1.811,2.557l1.924,3.072h-3.804l-2.299-3.427c-0.815-1.226-1.375-1.996-1.676-2.315
		c-0.301-0.318-0.62-0.537-0.956-0.654c-0.337-0.118-0.87-0.178-1.601-0.178h-0.646v6.574H951.784z M954.964,49.375h2.354
		c1.524,0,2.478-0.064,2.856-0.193c0.379-0.129,0.677-0.351,0.893-0.666c0.215-0.315,0.321-0.709,0.321-1.182
		c0-0.53-0.142-0.958-0.425-1.283c-0.283-0.326-0.682-0.532-1.197-0.618c-0.258-0.036-1.03-0.054-2.319-0.054h-2.481L954.964,49.375
		L954.964,49.375z"/>
	<path d="M987.158,58.463h-3.459l-1.375-3.577h-6.295l-1.3,3.577h-3.373l6.134-15.748h3.361L987.158,58.463z M981.304,52.232
		l-2.17-5.844l-2.127,5.844H981.304z"/>
	<path d="M993.335,53.339l3.094-0.301c0.188,1.038,0.563,1.801,1.134,2.288c0.568,0.486,1.338,0.73,2.305,0.73
		c1.023,0,1.796-0.218,2.314-0.65c0.52-0.434,0.778-0.939,0.778-1.521c0-0.372-0.109-0.688-0.327-0.95
		c-0.219-0.262-0.601-0.488-1.145-0.683c-0.373-0.129-1.222-0.358-2.546-0.688c-1.704-0.422-2.9-0.94-3.589-1.558
		c-0.967-0.866-1.449-1.923-1.449-3.169c0-0.802,0.227-1.553,0.682-2.25c0.455-0.699,1.11-1.23,1.967-1.596
		c0.855-0.365,1.889-0.548,3.1-0.548c1.977,0,3.464,0.434,4.464,1.3c0.998,0.866,1.522,2.023,1.572,3.47l-3.18,0.14
		c-0.136-0.81-0.429-1.391-0.876-1.746c-0.447-0.354-1.119-0.531-2.014-0.531c-0.924,0-1.647,0.189-2.17,0.569
		c-0.337,0.243-0.505,0.569-0.505,0.978c0,0.372,0.156,0.691,0.473,0.956c0.401,0.337,1.375,0.688,2.922,1.053
		c1.547,0.365,2.69,0.743,3.433,1.134c0.74,0.39,1.32,0.924,1.74,1.6c0.418,0.678,0.628,1.514,0.628,2.509
		c0,0.901-0.251,1.747-0.752,2.535s-1.21,1.373-2.127,1.757c-0.917,0.383-2.06,0.574-3.427,0.574c-1.991,0-3.521-0.46-4.587-1.381
		C994.18,56.441,993.543,55.102,993.335,53.339z"/>
	<path d="M1012.359,58.463V45.379h-4.674v-2.664h12.516v2.664h-4.662v13.084H1012.359z"/>
	<path d="M1034.821,58.463h-3.459l-1.375-3.577h-6.295l-1.3,3.577h-3.373l6.134-15.748h3.362L1034.821,58.463z M1028.967,52.232
		l-2.17-5.844l-2.127,5.844H1028.967z"/>
	<path d="M1036.52,58.463V42.715h6.691c1.684,0,2.906,0.142,3.668,0.424c0.764,0.283,1.373,0.786,1.832,1.51
		c0.458,0.724,0.688,1.551,0.688,2.481c0,1.182-0.349,2.157-1.042,2.927c-0.694,0.771-1.733,1.255-3.115,1.457
		c0.688,0.4,1.255,0.842,1.702,1.32c0.446,0.479,1.051,1.332,1.811,2.557l1.923,3.072h-3.803l-2.299-3.427
		c-0.816-1.226-1.375-1.996-1.676-2.315c-0.301-0.318-0.62-0.537-0.956-0.654c-0.337-0.118-0.87-0.178-1.602-0.178h-0.645v6.574
		H1036.52z M1039.698,49.375h2.353c1.525,0,2.479-0.064,2.857-0.193c0.379-0.129,0.677-0.351,0.892-0.666s0.322-0.709,0.322-1.182
		c0-0.53-0.142-0.958-0.425-1.283c-0.283-0.326-0.683-0.532-1.197-0.618c-0.258-0.036-1.031-0.054-2.32-0.054h-2.48L1039.698,49.375
		L1039.698,49.375z"/>
	<path d="M1055.939,58.463V45.379h-4.673v-2.664h12.516v2.664h-4.662v13.084H1055.939z"/>
	<path d="M1065.813,42.715h3.181v8.529c0,1.354,0.039,2.23,0.118,2.632c0.136,0.646,0.46,1.162,0.972,1.552
		c0.512,0.391,1.213,0.586,2.101,0.586c0.902,0,1.584-0.185,2.041-0.553c0.459-0.369,0.733-0.822,0.827-1.359
		s0.141-1.429,0.141-2.675v-8.712h3.18v8.271c0,1.891-0.086,3.227-0.258,4.007s-0.489,1.438-0.95,1.977
		c-0.463,0.537-1.08,0.966-1.854,1.284s-1.783,0.479-3.029,0.479c-1.504,0-2.646-0.174-3.422-0.521
		c-0.777-0.348-1.392-0.799-1.842-1.354c-0.451-0.557-0.748-1.139-0.893-1.746c-0.208-0.902-0.312-2.234-0.312-3.996
		L1065.813,42.715L1065.813,42.715z"/>
	<path d="M1081.722,58.463V42.715h5.104c1.934,0,3.192,0.079,3.781,0.236c0.901,0.236,1.657,0.75,2.267,1.541
		c0.608,0.792,0.913,1.814,0.913,3.067c0,0.967-0.176,1.779-0.526,2.438c-0.35,0.659-0.797,1.176-1.337,1.553
		c-0.541,0.375-1.091,0.624-1.649,0.746c-0.759,0.149-1.857,0.226-3.298,0.226h-2.072v5.94L1081.722,58.463L1081.722,58.463z
		 M1084.901,45.379v4.469h1.739c1.254,0,2.092-0.082,2.515-0.247s0.753-0.423,0.993-0.773c0.239-0.35,0.359-0.759,0.359-1.225
		c0-0.573-0.169-1.046-0.505-1.418c-0.337-0.372-0.763-0.605-1.278-0.698c-0.38-0.071-1.143-0.107-2.287-0.107L1084.901,45.379
		L1084.901,45.379z"/>
</g>
<path id="two-settings-cogwheels" opacity="0.49" fill="#C83B37" enable-background="new    " d="M144.315,60.833l-1.662-3.687
	c1.585-1.164,2.943-2.607,4.007-4.262l3.783,1.434c0.723,0.274,1.531-0.09,1.806-0.813c0-0.001,0-0.001,0-0.001l1.39-3.67
	c0.274-0.723-0.09-1.531-0.813-1.806c0,0-0.001,0-0.001-0.001l-3.782-1.434c0.298-1.943,0.238-3.924-0.178-5.846l3.688-1.661
	c0.705-0.318,1.018-1.147,0.7-1.852l-1.612-3.578c-0.318-0.705-1.147-1.018-1.852-0.7l-3.69,1.66
	c-1.164-1.585-2.607-2.943-4.26-4.007l1.433-3.783c0.274-0.723-0.089-1.531-0.812-1.806c0,0,0,0-0.001,0l-3.666-1.39
	c-0.723-0.274-1.531,0.09-1.805,0.813c0,0,0,0.001-0.001,0.001l-1.433,3.782c-1.943-0.299-3.925-0.239-5.846,0.178l-1.661-3.688
	c-0.317-0.703-1.144-1.016-1.848-0.701l-3.582,1.611c-0.705,0.318-1.018,1.147-0.7,1.852l1.661,3.688
	c-1.584,1.164-2.943,2.607-4.007,4.26l-3.784-1.433c-0.723-0.274-1.531,0.089-1.806,0.813v0.001l-1.39,3.67
	c-0.274,0.721,0.087,1.529,0.808,1.805l3.783,1.433c-0.298,1.943-0.238,3.925,0.178,5.847l-3.683,1.66
	c-0.705,0.318-1.019,1.147-0.7,1.853l1.612,3.576c0.318,0.705,1.147,1.02,1.852,0.701l3.686-1.66
	c1.164,1.586,2.607,2.943,4.26,4.009l-1.433,3.782c-0.274,0.724,0.089,1.531,0.812,1.806c0,0,0,0.001,0.001,0.001l3.67,1.391
	c0.723,0.273,1.531-0.091,1.806-0.813c0,0,0-0.001,0-0.002l1.433-3.782c1.943,0.299,3.925,0.239,5.846-0.179l1.661,3.688
	c0.318,0.705,1.147,1.019,1.852,0.7l3.578-1.611C144.317,62.365,144.631,61.537,144.315,60.833z M141.999,47.521
	c-1.85,4.9-7.323,7.374-12.224,5.523c-0.008-0.003-0.016-0.006-0.024-0.009c-4.901-1.86-7.37-7.34-5.515-12.243
	c1.851-4.9,7.324-7.373,12.225-5.522c0.006,0.002,0.012,0.004,0.019,0.007c4.905,1.855,7.376,7.335,5.521,12.241
	C142,47.52,142,47.52,141.999,47.521z M173.13,66.646c-0.251-0.274-0.601-0.438-0.972-0.453l-2.638-0.112
	c-0.244-1.247-0.683-2.446-1.3-3.556l1.945-1.785c0.57-0.523,0.608-1.408,0.085-1.979l-1.931-2.1
	c-0.522-0.57-1.408-0.608-1.978-0.086c0,0,0,0-0.001,0.001l-1.941,1.777c-1.053-0.711-2.211-1.25-3.432-1.601l0.113-2.638
	c0.033-0.773-0.566-1.426-1.338-1.459l0,0l-2.854-0.122c-0.772-0.03-1.423,0.567-1.459,1.339l-0.113,2.638
	c-1.246,0.245-2.446,0.683-3.556,1.3l-1.785-1.944c-0.523-0.568-1.408-0.607-1.978-0.084l-2.1,1.931
	c-0.57,0.521-0.608,1.408-0.085,1.979l1.785,1.944c-0.71,1.054-1.25,2.212-1.6,3.433l-2.638-0.112
	c-0.772-0.033-1.426,0.565-1.459,1.339c0,0,0,0,0,0.001l-0.125,2.851c-0.033,0.771,0.566,1.427,1.338,1.459l0,0l2.638,0.112
	c0.244,1.246,0.683,2.446,1.3,3.556l-1.952,1.789c-0.57,0.523-0.608,1.408-0.085,1.979c0.001,0.002,0.003,0.004,0.004,0.005
	l1.931,2.102c0.522,0.568,1.408,0.606,1.978,0.086c0-0.002,0-0.002,0.001-0.002l1.946-1.785c1.053,0.711,2.211,1.25,3.432,1.601
	l-0.113,2.638c-0.033,0.773,0.566,1.426,1.338,1.459c0,0,0,0,0.001,0l2.854,0.123h0.06c0.75,0,1.368-0.591,1.4-1.341l0.113-2.638
	c1.246-0.244,2.446-0.684,3.556-1.301l1.784,1.947c0.523,0.567,1.409,0.606,1.978,0.084l2.1-1.932
	c0.57-0.521,0.608-1.408,0.085-1.979l-1.785-1.944c0.71-1.054,1.25-2.211,1.6-3.433l2.638,0.112
	c0.772,0.033,1.426-0.565,1.459-1.339l0,0l0.125-2.855C173.514,67.28,173.381,66.919,173.13,66.646z M157.356,74.926
	c-3.603-0.154-6.398-3.201-6.244-6.804c0.15-3.492,3.023-6.247,6.518-6.25c0.095,0,0.19,0.002,0.285,0.006
	c3.604,0.146,6.406,3.187,6.259,6.79s-3.186,6.406-6.79,6.26C157.375,74.927,157.366,74.926,157.356,74.926z"/>
<path id="two-settings-cogwheels-2" opacity="0.29" fill="#FE6D00" enable-background="new    " d="M285.768,95.197l-0.876-1.944
	c0.835-0.612,1.551-1.374,2.112-2.245l1.995,0.756c0.381,0.145,0.807-0.048,0.952-0.43l0,0l0.733-1.934
	c0.145-0.383-0.047-0.809-0.428-0.952c0,0,0-0.001-0.001-0.001l-1.994-0.756c0.157-1.023,0.125-2.068-0.094-3.08l1.944-0.877
	c0.372-0.168,0.538-0.604,0.37-0.977l0,0l-0.85-1.886c-0.167-0.372-0.604-0.537-0.976-0.37l0,0l-1.944,0.876
	c-0.613-0.835-1.374-1.551-2.245-2.11l0.756-1.994c0.145-0.383-0.047-0.809-0.428-0.953c0,0,0,0-0.001,0l-1.935-0.73
	c-0.381-0.145-0.807,0.047-0.952,0.428c0,0.002,0,0.002,0,0.002l-0.755,1.994c-1.024-0.158-2.068-0.127-3.081,0.094l-0.871-1.944
	c-0.167-0.372-0.604-0.537-0.976-0.37l0,0l-1.891,0.854c-0.372,0.166-0.537,0.604-0.37,0.976c0,0.001,0,0.001,0,0.001l0.876,1.943
	c-0.834,0.611-1.55,1.371-2.112,2.24l-1.994-0.755c-0.381-0.145-0.807,0.048-0.952,0.429l0,0l-0.732,1.936
	c-0.145,0.381,0.047,0.809,0.429,0.952l0,0l1.994,0.756c-0.157,1.022-0.125,2.067,0.094,3.081l-1.944,0.876
	c-0.372,0.167-0.538,0.604-0.37,0.976l0,0l0.85,1.887c0.167,0.371,0.604,0.537,0.976,0.371l0,0l1.944-0.877
	c0.613,0.834,1.374,1.549,2.244,2.109l-0.756,1.995c-0.145,0.381,0.047,0.808,0.429,0.951l0,0l1.934,0.733
	c0.381,0.146,0.807-0.047,0.952-0.43l0,0l0.755-1.994c1.024,0.158,2.068,0.127,3.081-0.094l0.876,1.943
	c0.167,0.371,0.604,0.537,0.976,0.371l0,0l1.886-0.851C285.77,96.007,285.936,95.57,285.768,95.197
	C285.769,95.197,285.768,95.197,285.768,95.197z M284.545,88.182c-0.976,2.582-3.861,3.885-6.444,2.91
	c-0.003-0.002-0.006-0.003-0.009-0.004c-2.583-0.977-3.886-3.861-2.911-6.443c0.001-0.004,0.002-0.008,0.004-0.011
	c0.976-2.583,3.861-3.886,6.444-2.909c0.003,0,0.006,0.002,0.009,0.002c2.583,0.978,3.886,3.861,2.91,6.445
	C284.547,88.174,284.546,88.178,284.545,88.182L284.545,88.182z"/>
<path id="Path_998" fill="#F3C74C" d="M221.869,72.475h-3.743c-0.594,0-1.075-0.48-1.075-1.074c0-0.596,0.481-1.075,1.075-1.075
	h3.743c0.594,0,1.075,0.479,1.075,1.075C222.944,71.993,222.463,72.475,221.869,72.475z"/>
<path id="Path_999" fill="#F3C74C" d="M220.019,74.324c-0.588,0.006-1.069-0.467-1.074-1.055c0-0.008,0-0.015,0-0.021v-3.743
	c0-0.594,0.482-1.074,1.076-1.074s1.076,0.48,1.076,1.074v3.743c0.005,0.588-0.467,1.069-1.055,1.074
	C220.034,74.325,220.026,74.325,220.019,74.324z"/>
<path id="Path_1020" fill="#FCD770" d="M302.785,86.583c-0.474-0.013-0.929-0.19-1.288-0.5c-0.089-0.081-0.162-0.179-0.215-0.287
	c-0.076-0.079-0.125-0.179-0.143-0.287c-0.066-0.106-0.092-0.233-0.073-0.358c0-0.143-0.071-0.213-0.071-0.356
	c-0.011-0.123,0.014-0.248,0.071-0.356c0-0.145,0.073-0.215,0.073-0.358c0.071-0.144,0.071-0.214,0.143-0.287
	c0.072-0.073,0.143-0.214,0.215-0.285c0.511-0.503,1.276-0.644,1.933-0.358c0.071,0.071,0.215,0.071,0.287,0.145
	c0.072,0.07,0.214,0.145,0.287,0.215c0.088,0.081,0.161,0.178,0.214,0.285c0.076,0.079,0.126,0.18,0.144,0.287
	c0.065,0.107,0.09,0.232,0.071,0.357c-0.011,0.123,0.013,0.248,0.071,0.357c0.011,0.123-0.013,0.248-0.071,0.357
	c0,0.145-0.071,0.217-0.071,0.357c-0.073,0.145-0.073,0.217-0.144,0.287c-0.071,0.072-0.143,0.215-0.214,0.287
	c-0.082,0.088-0.179,0.16-0.287,0.214c-0.079,0.076-0.179,0.127-0.287,0.146c-0.11,0.057-0.234,0.082-0.358,0.07
	C302.988,86.568,302.886,86.594,302.785,86.583z"/>
<path id="Path_1024" fill="#FCD770" d="M305.389,86.583c-0.635-0.019-1.243-0.255-1.723-0.67c-0.119-0.108-0.217-0.239-0.288-0.384
	c-0.101-0.105-0.167-0.238-0.191-0.383c-0.089-0.144-0.125-0.313-0.1-0.479c0-0.19-0.1-0.286-0.1-0.479
	c-0.013-0.166,0.021-0.332,0.1-0.479c0-0.189,0.1-0.286,0.1-0.479c0.1-0.19,0.1-0.285,0.191-0.383
	c0.091-0.098,0.191-0.285,0.288-0.383c0.683-0.672,1.706-0.861,2.585-0.479c0.1,0.101,0.288,0.101,0.383,0.19
	c0.095,0.093,0.286,0.191,0.383,0.288c0.118,0.108,0.215,0.238,0.286,0.383c0.101,0.104,0.167,0.238,0.193,0.383
	c0.088,0.144,0.124,0.313,0.1,0.479c-0.014,0.166,0.021,0.332,0.1,0.479c0.014,0.166-0.021,0.332-0.1,0.479
	c0,0.192-0.1,0.288-0.1,0.479c-0.1,0.192-0.1,0.289-0.193,0.383c-0.093,0.096-0.191,0.289-0.286,0.384
	c-0.11,0.117-0.239,0.214-0.383,0.286c-0.105,0.102-0.238,0.169-0.383,0.193c-0.146,0.078-0.313,0.112-0.479,0.1
	C305.659,86.566,305.523,86.598,305.389,86.583z"/>
<path id="Path_1021" fill="#FCD770" d="M298.507,88.077c-0.274-0.009-0.538-0.11-0.746-0.29c-0.052-0.047-0.094-0.104-0.125-0.166
	c-0.044-0.046-0.073-0.104-0.083-0.166c-0.039-0.063-0.053-0.135-0.042-0.207c0-0.083-0.041-0.124-0.041-0.208
	c-0.006-0.071,0.008-0.144,0.041-0.207c0-0.083,0.042-0.124,0.042-0.207c0.041-0.083,0.041-0.124,0.083-0.166
	s0.083-0.124,0.125-0.165c0.296-0.291,0.739-0.373,1.12-0.207c0.041,0.041,0.125,0.041,0.166,0.083s0.124,0.083,0.166,0.125
	c0.051,0.047,0.093,0.103,0.124,0.165c0.043,0.046,0.072,0.104,0.083,0.166c0.037,0.063,0.052,0.135,0.041,0.207
	c-0.006,0.071,0.008,0.145,0.041,0.207c0.007,0.072-0.007,0.145-0.041,0.208c0,0.083-0.041,0.125-0.041,0.207
	c-0.042,0.083-0.042,0.125-0.083,0.166s-0.083,0.125-0.124,0.166c-0.047,0.051-0.104,0.093-0.166,0.124
	c-0.045,0.044-0.104,0.072-0.166,0.083c-0.063,0.032-0.135,0.048-0.207,0.041C298.625,88.068,298.566,88.084,298.507,88.077z"/>
<path id="Path_1025" fill="#FCD770" d="M304.809,89.447c-0.191-0.004-0.375-0.074-0.521-0.199c-0.036-0.033-0.065-0.072-0.087-0.116
	c-0.031-0.032-0.051-0.071-0.058-0.116c-0.027-0.043-0.037-0.094-0.029-0.145c0-0.059-0.029-0.086-0.029-0.145
	c-0.004-0.052,0.006-0.103,0.029-0.146c0-0.059,0.029-0.086,0.029-0.146c0.029-0.058,0.029-0.086,0.058-0.115
	c0.029-0.029,0.058-0.086,0.087-0.114c0.207-0.203,0.516-0.261,0.781-0.146c0.029,0.028,0.087,0.028,0.116,0.059
	c0.029,0.027,0.086,0.058,0.116,0.087c0.036,0.032,0.065,0.071,0.086,0.114c0.03,0.031,0.05,0.072,0.058,0.115
	c0.026,0.045,0.037,0.097,0.029,0.146c-0.004,0.05,0.005,0.102,0.029,0.146c0.004,0.049-0.005,0.1-0.029,0.145
	c0,0.059-0.029,0.087-0.029,0.145c-0.029,0.06-0.029,0.088-0.058,0.116c-0.029,0.029-0.058,0.087-0.086,0.116
	c-0.033,0.035-0.072,0.064-0.116,0.086c-0.032,0.031-0.072,0.051-0.116,0.059c-0.044,0.023-0.095,0.033-0.145,0.028
	C304.89,89.443,304.849,89.453,304.809,89.447z"/>
<path id="Path_1020-2" fill="#FCD770" d="M235.785,47.583c-0.474-0.013-0.929-0.19-1.288-0.5c-0.089-0.081-0.162-0.179-0.215-0.287
	c-0.076-0.079-0.125-0.179-0.143-0.287c-0.066-0.106-0.092-0.233-0.073-0.358c0-0.143-0.071-0.213-0.071-0.357
	c-0.011-0.123,0.014-0.248,0.071-0.357c0-0.144,0.073-0.215,0.073-0.358c0.071-0.144,0.071-0.214,0.143-0.287
	c0.072-0.073,0.143-0.214,0.215-0.285c0.511-0.503,1.276-0.644,1.933-0.358c0.071,0.071,0.215,0.071,0.287,0.144
	c0.072,0.071,0.214,0.144,0.287,0.215c0.088,0.081,0.161,0.178,0.214,0.285c0.076,0.079,0.126,0.179,0.144,0.287
	c0.065,0.107,0.09,0.233,0.071,0.358c-0.011,0.123,0.013,0.248,0.071,0.357c0.011,0.123-0.013,0.248-0.071,0.357
	c0,0.145-0.071,0.217-0.071,0.358c-0.073,0.144-0.073,0.216-0.144,0.287c-0.071,0.072-0.143,0.215-0.214,0.287
	c-0.082,0.088-0.179,0.16-0.287,0.214c-0.079,0.076-0.179,0.127-0.287,0.145c-0.11,0.057-0.234,0.082-0.358,0.07
	C235.988,47.568,235.886,47.594,235.785,47.583z"/>
<path id="Path_1024-2" fill="#FCD770" d="M238.389,47.583c-0.635-0.019-1.243-0.255-1.723-0.67
	c-0.119-0.108-0.217-0.239-0.288-0.384c-0.101-0.105-0.167-0.238-0.191-0.383c-0.089-0.143-0.125-0.313-0.1-0.479
	c0-0.191-0.1-0.286-0.1-0.479c-0.013-0.166,0.021-0.333,0.1-0.479c0-0.19,0.1-0.286,0.1-0.479c0.1-0.19,0.1-0.285,0.191-0.383
	c0.091-0.097,0.191-0.285,0.288-0.382c0.683-0.672,1.706-0.861,2.585-0.479c0.1,0.101,0.288,0.101,0.383,0.191
	c0.095,0.092,0.286,0.191,0.383,0.288c0.118,0.108,0.215,0.238,0.286,0.382c0.101,0.105,0.167,0.239,0.193,0.383
	c0.088,0.144,0.124,0.313,0.1,0.479c-0.014,0.166,0.021,0.332,0.1,0.479c0.014,0.166-0.021,0.332-0.1,0.479
	c0,0.193-0.1,0.288-0.1,0.479c-0.1,0.193-0.1,0.289-0.193,0.383c-0.093,0.096-0.191,0.289-0.286,0.384
	c-0.11,0.117-0.239,0.214-0.383,0.286c-0.105,0.102-0.238,0.169-0.383,0.193c-0.146,0.078-0.313,0.113-0.479,0.1
	C238.659,47.566,238.523,47.598,238.389,47.583z"/>
<path id="Path_1021-2" fill="#FCD770" d="M231.507,49.077c-0.274-0.008-0.538-0.11-0.746-0.29c-0.052-0.047-0.094-0.104-0.125-0.166
	c-0.044-0.046-0.073-0.104-0.083-0.166c-0.039-0.063-0.053-0.135-0.042-0.207c0-0.083-0.041-0.124-0.041-0.208
	c-0.006-0.071,0.008-0.144,0.041-0.207c0-0.083,0.042-0.124,0.042-0.207c0.041-0.083,0.041-0.124,0.083-0.166
	s0.083-0.124,0.125-0.165c0.296-0.291,0.739-0.373,1.12-0.207c0.041,0.041,0.125,0.041,0.166,0.083s0.124,0.083,0.166,0.125
	c0.051,0.047,0.093,0.103,0.124,0.165c0.043,0.046,0.072,0.104,0.083,0.166c0.037,0.063,0.052,0.135,0.041,0.207
	c-0.006,0.071,0.008,0.144,0.041,0.207c0.007,0.072-0.007,0.145-0.041,0.208c0,0.083-0.041,0.125-0.041,0.207
	c-0.042,0.083-0.042,0.125-0.083,0.166s-0.083,0.125-0.124,0.166c-0.047,0.051-0.104,0.093-0.166,0.124
	c-0.045,0.044-0.104,0.072-0.166,0.083c-0.063,0.033-0.135,0.048-0.207,0.041C231.625,49.068,231.566,49.084,231.507,49.077z"/>
<path id="Path_1025-2" fill="#FCD770" d="M237.809,50.447c-0.191-0.004-0.375-0.074-0.521-0.199
	c-0.036-0.033-0.065-0.072-0.087-0.116c-0.031-0.032-0.051-0.072-0.058-0.116c-0.027-0.043-0.037-0.094-0.029-0.145
	c0-0.059-0.029-0.086-0.029-0.145c-0.004-0.051,0.006-0.102,0.029-0.146c0-0.058,0.029-0.086,0.029-0.146
	c0.029-0.058,0.029-0.086,0.058-0.115c0.029-0.03,0.058-0.086,0.087-0.115c0.207-0.203,0.516-0.261,0.781-0.145
	c0.029,0.028,0.087,0.028,0.116,0.058c0.029,0.028,0.086,0.058,0.116,0.087c0.036,0.033,0.065,0.072,0.086,0.115
	c0.03,0.031,0.05,0.072,0.058,0.115c0.026,0.044,0.037,0.096,0.029,0.146c-0.004,0.05,0.005,0.101,0.029,0.146
	c0.004,0.049-0.005,0.1-0.029,0.145c0,0.059-0.029,0.087-0.029,0.145c-0.029,0.059-0.029,0.088-0.058,0.116
	c-0.029,0.029-0.058,0.087-0.086,0.116c-0.033,0.035-0.072,0.064-0.116,0.086c-0.032,0.031-0.072,0.051-0.116,0.059
	c-0.044,0.023-0.095,0.033-0.145,0.028C237.89,50.443,237.849,50.453,237.809,50.447z"/>
<path id="Path_1022" fill="#FCD770" d="M348.785,95.583c-0.474-0.013-0.929-0.19-1.288-0.5c-0.089-0.081-0.162-0.179-0.215-0.287
	c-0.076-0.079-0.125-0.179-0.143-0.287c-0.066-0.106-0.092-0.233-0.073-0.358c0-0.143-0.071-0.213-0.071-0.356
	c-0.011-0.123,0.014-0.248,0.071-0.356c0-0.145,0.073-0.215,0.073-0.358c0.071-0.144,0.071-0.214,0.143-0.287
	c0.072-0.073,0.143-0.214,0.215-0.285c0.511-0.503,1.276-0.644,1.933-0.358c0.071,0.071,0.215,0.071,0.287,0.145
	c0.072,0.07,0.214,0.145,0.287,0.215c0.088,0.081,0.161,0.178,0.214,0.285c0.076,0.079,0.126,0.18,0.144,0.287
	c0.065,0.107,0.09,0.232,0.071,0.357c-0.011,0.123,0.013,0.248,0.071,0.357c0.011,0.123-0.013,0.248-0.071,0.357
	c0,0.145-0.071,0.217-0.071,0.357c-0.073,0.145-0.073,0.217-0.144,0.287c-0.071,0.072-0.143,0.215-0.214,0.287
	c-0.082,0.088-0.179,0.16-0.287,0.214c-0.079,0.076-0.179,0.127-0.287,0.146c-0.11,0.057-0.234,0.082-0.358,0.07
	C348.988,95.568,348.886,95.594,348.785,95.583z"/>
<path id="Path_1023" fill="#FCD770" d="M344.507,97.077c-0.274-0.009-0.538-0.11-0.746-0.29c-0.052-0.047-0.094-0.104-0.125-0.166
	c-0.044-0.046-0.073-0.104-0.083-0.166c-0.039-0.063-0.053-0.135-0.042-0.207c0-0.083-0.041-0.124-0.041-0.208
	c-0.006-0.071,0.008-0.144,0.041-0.207c0-0.083,0.042-0.124,0.042-0.207c0.041-0.083,0.041-0.124,0.083-0.166
	s0.083-0.124,0.125-0.165c0.296-0.291,0.739-0.373,1.12-0.207c0.041,0.041,0.125,0.041,0.166,0.083s0.124,0.083,0.166,0.125
	c0.051,0.047,0.093,0.103,0.124,0.165c0.043,0.046,0.072,0.104,0.083,0.166c0.037,0.063,0.052,0.135,0.041,0.207
	c-0.006,0.07,0.008,0.145,0.041,0.207c0.007,0.072-0.007,0.145-0.041,0.208c0,0.083-0.041,0.125-0.041,0.207
	c-0.042,0.083-0.042,0.125-0.083,0.166s-0.083,0.125-0.124,0.166c-0.047,0.051-0.104,0.093-0.166,0.124
	c-0.045,0.044-0.104,0.072-0.166,0.083c-0.063,0.032-0.135,0.048-0.207,0.041C344.625,97.068,344.566,97.084,344.507,97.077z"/>
<ellipse id="Ellipse_59-2" fill="#FFE2BB" cx="75.999" cy="39.463" rx="17.5" ry="18"/>
<path id="Path_962" fill="#F9D0B4" d="M47.968,55.229h-2.282v5.063h4.568v-2.778C50.25,56.252,49.229,55.23,47.968,55.229z"/>
<path id="Path_963-2" fill="#F9D0B4" d="M54.48,69.354c0.01-1.65-1.32-2.998-2.971-3.008c-0.012,0-0.024,0-0.036,0
	c1.661,0,3.007-1.346,3.007-3.007s-1.346-3.007-3.007-3.007l0,0H34.952V55.27H32.82c-1.152,0.014-2.266,0.416-3.16,1.143
	c-3.882,2.627-2.171,4.033-13.171,4.033V82.41c6.4,0.152,8.45-0.381,11.8,0.686c1.675,0.457,3.388,1.37,6.281,1.37h16.9
	c1.661,0,3.007-1.347,3.007-3.007s-1.346-3.008-3.007-3.008c1.661,0,3.007-1.346,3.007-3.008c0-1.66-1.347-3.006-3.007-3.006l0,0
	c1.656-0.08,2.969-1.427,3.007-3.084H54.48L54.48,69.354z"/>
<path id="Path_964" fill="#E9E9EA" d="M15.535,58.313h-4.3V84.43h4.3c0.502-0.008,0.907-0.412,0.914-0.914V59.264
	c0.035-0.488-0.334-0.914-0.824-0.949C15.596,58.313,15.565,58.311,15.535,58.313z"/>
<path id="Path_965" fill="#60BAE2" d="M1.499,56.484h8.73c0.525-0.017,0.967,0.389,1,0.914V85.72c-0.032,0.524-0.475,0.929-1,0.914
	h-8.73c-0.525,0.015-0.968-0.39-1-0.914V57.398C0.532,56.873,0.974,56.469,1.499,56.484z"/>
<path id="Path_966" fill="#E9E9EA" d="M34.949,51.498h10.773v8.793H34.949V51.498z"/>
<path id="Path_967" fill="#E9E9EA" d="M34.949,84.425c0.003,2.964,2.409,5.364,5.373,5.361c2.959-0.003,5.358-2.401,5.361-5.361
	H34.949z"/>
<path id="Path_968" fill="#FCD770" d="M82.989,35.32h-1.027v7.69h1.027c2.124,0,3.845-1.721,3.845-3.845
	C86.834,37.042,85.113,35.32,82.989,35.32z"/>
<path id="Path_970" fill="#F75C64" d="M79.335,11.453c-1.448,0.003-2.622,1.177-2.625,2.626v50.247
	c0.028,1.451,1.228,2.604,2.678,2.576c1.41-0.028,2.547-1.166,2.575-2.576V14.079c0.01-1.44-1.149-2.616-2.59-2.626
	C79.36,11.453,79.348,11.453,79.335,11.453z"/>
<path id="Path_971" fill="#E9E9EA" d="M50.937,26.831v24.667l25.809,12.523V14.345L50.937,26.831z"/>
<path id="Path_972" fill="#FFD293" d="M127.41,14.246c-1.69-0.339-3.011-1.66-3.35-3.35c0-0.038-0.038-0.076-0.076-0.038
	c-0.021-0.001-0.038,0.015-0.039,0.035c0,0.001,0,0.002,0,0.003c-0.338,1.69-1.659,3.011-3.349,3.35
	c-0.038,0-0.077,0.038-0.038,0.076c-0.001,0.021,0.015,0.038,0.035,0.039c0.001,0,0.002,0,0.003,0
	c1.69,0.338,3.011,1.659,3.349,3.349c0,0.038,0.039,0.077,0.077,0.038c0.021,0,0.038-0.016,0.038-0.036c0,0,0-0.001,0-0.002
	c0.339-1.69,1.66-3.011,3.35-3.349c0.038,0,0.076-0.039,0.038-0.077C127.486,14.246,127.448,14.246,127.41,14.246z"/>
<path id="Path_997" fill="#FAD20A" d="M143.34,81.506c-1.69-0.339-3.011-1.66-3.35-3.35c0-0.039-0.038-0.076-0.076-0.039
	c-0.021,0-0.038,0.016-0.039,0.035c0,0.002,0,0.002,0,0.004c-0.338,1.688-1.659,3.011-3.349,3.35c-0.038,0-0.077,0.038-0.038,0.076
	c-0.001,0.02,0.015,0.037,0.035,0.039c0.001,0,0.002,0,0.003,0c1.69,0.338,3.011,1.658,3.349,3.349c0,0.038,0.039,0.077,0.077,0.038
	c0.021,0,0.037-0.016,0.038-0.035c0-0.002,0-0.002,0-0.003c0.338-1.69,1.66-3.011,3.35-3.349c0.038,0,0.076-0.039,0.038-0.077
	C143.416,81.506,143.378,81.506,143.34,81.506z"/>
<path id="Path_973" fill="#FCD770" d="M66.317,70.15h-3.313c-0.524,0.033-0.978-0.364-1.012-0.89
	c-0.034-0.524,0.364-0.978,0.888-1.012c0.042-0.003,0.083-0.003,0.124,0h3.312c0.525-0.034,0.978,0.362,1.012,0.89
	c0.034,0.523-0.363,0.977-0.888,1.012C66.398,70.152,66.357,70.152,66.317,70.15L66.317,70.15z"/>
<path id="Path_974" fill="#FCD770" d="M64.679,71.79c-0.521,0.005-0.947-0.411-0.952-0.933c0-0.006,0-0.014,0-0.021v-3.313
	c-0.034-0.522,0.364-0.977,0.888-1.012c0.525-0.033,0.978,0.364,1.012,0.889c0.003,0.041,0.003,0.082,0,0.123v3.313
	c0.005,0.521-0.412,0.946-0.932,0.952C64.69,71.79,64.685,71.79,64.679,71.79z"/>
<path id="Path_975" fill="#FCD770" d="M70.389,78.715c-0.252-0.007-0.494-0.102-0.685-0.266c-0.047-0.043-0.086-0.096-0.114-0.152
	c-0.04-0.042-0.066-0.095-0.076-0.152c-0.035-0.057-0.049-0.123-0.039-0.188c0-0.076-0.038-0.114-0.038-0.19
	c-0.006-0.064,0.007-0.132,0.038-0.189c0-0.075,0.039-0.113,0.039-0.189c0.038-0.076,0.038-0.113,0.076-0.152
	c0.038-0.036,0.076-0.112,0.114-0.15c0.272-0.268,0.679-0.343,1.028-0.189c0.038,0.037,0.115,0.037,0.152,0.075
	c0.037,0.038,0.114,0.076,0.152,0.114c0.047,0.043,0.085,0.095,0.114,0.15c0.041,0.043,0.067,0.097,0.077,0.152
	c0.035,0.057,0.048,0.124,0.038,0.189c-0.006,0.066,0.007,0.133,0.038,0.189c0.006,0.065-0.007,0.133-0.038,0.19
	c0,0.076-0.038,0.114-0.038,0.188c-0.039,0.078-0.039,0.114-0.077,0.152s-0.076,0.115-0.114,0.152
	c-0.043,0.047-0.095,0.085-0.152,0.113c-0.042,0.041-0.095,0.067-0.152,0.076c-0.058,0.03-0.124,0.045-0.19,0.038
	C70.497,78.708,70.443,78.721,70.389,78.715z"/>
<path id="Path_1015" fill="#FCD770" d="M104.904,71.635c-0.252-0.007-0.494-0.101-0.685-0.266c-0.047-0.043-0.086-0.096-0.114-0.152
	c-0.04-0.042-0.066-0.095-0.076-0.152c-0.035-0.057-0.049-0.123-0.039-0.188c0-0.076-0.038-0.114-0.038-0.188
	c-0.006-0.066,0.007-0.133,0.038-0.19c0-0.076,0.039-0.114,0.039-0.19c0.038-0.076,0.038-0.113,0.076-0.152
	c0.038-0.036,0.076-0.112,0.114-0.15c0.271-0.268,0.678-0.343,1.028-0.189c0.038,0.037,0.115,0.037,0.152,0.076
	c0.037,0.037,0.114,0.075,0.152,0.113c0.047,0.043,0.085,0.096,0.114,0.15c0.04,0.044,0.067,0.097,0.077,0.152
	c0.034,0.058,0.048,0.125,0.038,0.19c-0.006,0.065,0.007,0.132,0.038,0.19c0.006,0.063-0.007,0.131-0.038,0.188
	c0,0.077-0.038,0.115-0.038,0.188c-0.039,0.078-0.039,0.115-0.077,0.152c-0.038,0.038-0.076,0.115-0.114,0.152
	c-0.044,0.047-0.095,0.085-0.152,0.113c-0.042,0.041-0.095,0.067-0.152,0.078c-0.059,0.028-0.125,0.043-0.19,0.037
	C105.012,71.628,104.958,71.641,104.904,71.635z"/>
<path id="Path_1016" fill="#FCD770" d="M114.639,52.165c-0.252-0.007-0.494-0.101-0.685-0.267c-0.047-0.043-0.086-0.094-0.114-0.151
	c-0.04-0.042-0.066-0.095-0.076-0.152c-0.035-0.057-0.049-0.124-0.039-0.189c0-0.075-0.038-0.113-0.038-0.189
	c-0.006-0.065,0.007-0.131,0.038-0.188c0-0.076,0.039-0.115,0.039-0.19c0.038-0.076,0.038-0.114,0.076-0.151
	c0.038-0.039,0.076-0.115,0.114-0.151c0.272-0.268,0.679-0.343,1.028-0.19c0.038,0.038,0.115,0.038,0.152,0.076
	c0.037,0.038,0.114,0.075,0.152,0.114c0.047,0.043,0.085,0.094,0.114,0.151c0.04,0.041,0.067,0.095,0.077,0.151
	c0.034,0.058,0.048,0.124,0.038,0.19c-0.006,0.063,0.007,0.131,0.038,0.188c0.006,0.066-0.007,0.132-0.038,0.189
	c0,0.077-0.038,0.114-0.038,0.189c-0.039,0.077-0.039,0.114-0.077,0.152s-0.076,0.114-0.114,0.151
	c-0.043,0.047-0.095,0.086-0.152,0.113c-0.042,0.04-0.095,0.067-0.152,0.077c-0.058,0.031-0.124,0.044-0.19,0.038
	C114.747,52.158,114.693,52.171,114.639,52.165z"/>
<path id="Path_1017" fill="#FCD770" d="M163.59,49.891c-0.419-0.012-0.822-0.168-1.14-0.443c-0.079-0.071-0.144-0.158-0.191-0.254
	c-0.066-0.069-0.11-0.158-0.126-0.254c-0.058-0.094-0.081-0.207-0.064-0.316c0-0.126-0.063-0.189-0.063-0.316
	c-0.01-0.11,0.012-0.221,0.063-0.318c0-0.125,0.064-0.188,0.064-0.316c0.063-0.126,0.063-0.189,0.126-0.254s0.126-0.189,0.191-0.253
	c0.452-0.444,1.129-0.57,1.711-0.317c0.063,0.063,0.191,0.063,0.254,0.127c0.063,0.063,0.189,0.125,0.254,0.19
	c0.078,0.072,0.142,0.157,0.189,0.253c0.066,0.07,0.111,0.158,0.127,0.254c0.058,0.096,0.08,0.207,0.063,0.316
	c-0.01,0.11,0.012,0.221,0.063,0.318c0.01,0.109-0.012,0.219-0.063,0.316c0,0.128-0.063,0.191-0.063,0.316
	c-0.064,0.127-0.064,0.191-0.127,0.254s-0.126,0.191-0.189,0.254c-0.073,0.078-0.159,0.143-0.254,0.188
	c-0.07,0.068-0.158,0.112-0.254,0.129c-0.098,0.051-0.208,0.072-0.317,0.063C163.77,49.878,163.68,49.9,163.59,49.891z"/>
<path id="Path_1018" fill="#FCD770" d="M159.805,51.213c-0.244-0.007-0.477-0.098-0.661-0.257c-0.045-0.042-0.083-0.092-0.11-0.147
	c-0.039-0.041-0.064-0.092-0.073-0.146c-0.034-0.056-0.047-0.121-0.037-0.184c0-0.074-0.037-0.111-0.037-0.185
	c-0.006-0.063,0.007-0.128,0.037-0.185c0-0.072,0.037-0.109,0.037-0.184c0.037-0.072,0.037-0.109,0.073-0.146
	c0.036-0.037,0.073-0.11,0.11-0.146c0.262-0.258,0.654-0.33,0.991-0.184c0.037,0.037,0.11,0.037,0.147,0.072
	c0.037,0.037,0.11,0.073,0.147,0.11c0.045,0.042,0.083,0.091,0.11,0.146c0.039,0.041,0.064,0.092,0.074,0.147
	c0.034,0.056,0.047,0.12,0.037,0.185c-0.005,0.063,0.007,0.127,0.037,0.184c0.006,0.063-0.007,0.127-0.037,0.184
	c0,0.074-0.037,0.111-0.037,0.184c-0.037,0.073-0.037,0.11-0.074,0.147c-0.037,0.036-0.073,0.11-0.11,0.146
	c-0.042,0.045-0.092,0.082-0.147,0.109c-0.041,0.039-0.092,0.064-0.147,0.074c-0.056,0.028-0.12,0.043-0.184,0.036
	C159.908,51.205,159.856,51.218,159.805,51.213z"/>
<path id="Path_1019" fill="#FCD770" d="M197.86,68.027c-0.243-0.006-0.477-0.098-0.661-0.256c-0.045-0.043-0.083-0.092-0.11-0.147
	c-0.039-0.04-0.064-0.092-0.073-0.147c-0.034-0.055-0.047-0.119-0.037-0.184c0-0.073-0.037-0.109-0.037-0.184
	c-0.005-0.064,0.007-0.129,0.037-0.186c0-0.072,0.037-0.109,0.037-0.185c0.037-0.072,0.037-0.109,0.073-0.146
	c0.036-0.036,0.073-0.108,0.11-0.146c0.262-0.258,0.654-0.33,0.991-0.184c0.037,0.036,0.11,0.036,0.147,0.072
	s0.11,0.073,0.147,0.109c0.045,0.041,0.083,0.092,0.11,0.146c0.039,0.04,0.064,0.092,0.074,0.147
	c0.034,0.055,0.046,0.12,0.037,0.184c-0.006,0.063,0.007,0.127,0.037,0.185c0.005,0.063-0.007,0.127-0.037,0.185
	c0,0.073-0.037,0.11-0.037,0.185c-0.037,0.073-0.037,0.109-0.074,0.146c-0.037,0.037-0.073,0.111-0.11,0.146
	c-0.042,0.045-0.092,0.082-0.147,0.109c-0.04,0.039-0.091,0.064-0.147,0.074c-0.057,0.029-0.12,0.042-0.184,0.036
	C197.963,68.02,197.912,68.033,197.86,68.027z"/>
<path id="Path_976" fill="#F75C64" d="M54.82,13.622c-0.252-0.007-0.494-0.101-0.685-0.266c-0.047-0.043-0.086-0.095-0.115-0.152
	c-0.04-0.042-0.066-0.095-0.076-0.152c-0.034-0.057-0.048-0.124-0.038-0.19c0-0.076-0.039-0.114-0.039-0.19
	c-0.006-0.066,0.008-0.132,0.039-0.19c0-0.076,0.038-0.114,0.038-0.19c0.038-0.076,0.038-0.114,0.076-0.152
	c0.038-0.038,0.077-0.114,0.115-0.152c0.271-0.267,0.678-0.342,1.027-0.19c0.038,0.038,0.115,0.038,0.152,0.076
	s0.115,0.076,0.152,0.115c0.047,0.043,0.086,0.095,0.114,0.152c0.068,0.102,0.108,0.221,0.115,0.343
	c-0.006,0.065,0.007,0.131,0.038,0.19c0.006,0.065-0.007,0.132-0.038,0.19c0,0.077-0.038,0.114-0.038,0.19
	c-0.038,0.077-0.038,0.114-0.077,0.152s-0.076,0.114-0.114,0.152c-0.043,0.047-0.095,0.085-0.152,0.114
	c-0.042,0.041-0.095,0.067-0.152,0.077c-0.059,0.031-0.125,0.044-0.19,0.038C54.934,13.622,54.896,13.622,54.82,13.622z"/>
<path id="Path_977" fill="#8F4715" d="M10.32,87.661l-9.711-0.07c-0.075-0.595-0.112-1.194-0.11-1.795V55.621l9.821-0.012
	c1.029,0.002,1.864,0.836,1.865,1.865v28.32C12.17,86.82,11.344,87.646,10.32,87.661z M10.282,57.436l-9.783,0.039v28.321
	l9.783-0.075V57.436z"/>
<path id="Path_978" fill="#8F4715" d="M15.535,85.378h-4.3c-0.521,0.005-0.947-0.413-0.952-0.935c0-0.006,0-0.012,0-0.019V58.313
	c-0.005-0.521,0.413-0.946,0.934-0.951c0.006,0,0.012,0,0.018,0h4.3c1.029,0.002,1.863,0.837,1.865,1.865v24.252
	c0.026,1.022-0.782,1.873-1.805,1.898C15.575,85.378,15.555,85.378,15.535,85.378z M12.183,83.479h3.35l-0.038-24.211h-3.312V83.479
	z"/>
<path id="Path_979" fill="#8F4715" d="M45.684,61.243H34.949c-0.521,0.005-0.947-0.412-0.952-0.933c0-0.006,0-0.014,0-0.021v-8.793
	c-0.005-0.521,0.412-0.947,0.932-0.952c0.007,0,0.014,0,0.021,0h10.773c0.521-0.005,0.947,0.413,0.952,0.936
	c0,0.006,0,0.012,0,0.018v8.793C46.648,60.82,46.214,61.238,45.684,61.243L45.684,61.243z M35.901,59.343h8.87v-6.89h-8.873
	L35.901,59.343z"/>
<path id="Path_980" fill="#8F4715" d="M50.252,61.242h-4.568c-0.521,0.006-0.947-0.412-0.952-0.934c0-0.007,0-0.013,0-0.019v-5.063
	c-0.005-0.521,0.413-0.946,0.934-0.951c0.006,0,0.012,0,0.018,0h2.284c1.785-0.002,3.233,1.442,3.236,3.229c0,0.003,0,0.005,0,0.008
	v2.781c0.004,0.521-0.415,0.945-0.935,0.948C50.263,61.243,50.258,61.243,50.252,61.242z M46.636,59.343h2.665v-1.827
	c-0.009-0.73-0.6-1.322-1.332-1.332h-1.335L46.636,59.343z"/>
<path id="Path_981" fill="#8F4715" d="M51.432,67.258H38.071c-0.524-0.033-0.922-0.486-0.888-1.012
	c0.031-0.477,0.411-0.857,0.888-0.889h13.4c0.52-0.006,0.946,0.412,0.952,0.933c0,0.007,0,0.013,0,0.021
	C52.408,66.844,51.966,67.268,51.432,67.258z"/>
<path id="Path_982" fill="#8F4715" d="M51.432,73.311H38.071c-0.524,0.033-0.978-0.363-1.012-0.889
	c-0.034-0.525,0.364-0.979,0.889-1.012c0.041-0.003,0.082-0.003,0.123,0h13.4c0.52-0.006,0.946,0.412,0.952,0.932
	c0,0.008,0,0.014,0,0.02C52.408,72.896,51.966,73.318,51.432,73.311z"/>
<path id="Path_983" fill="#8F4715" d="M51.432,79.324H38.071c-0.524,0.033-0.978-0.363-1.012-0.889
	c-0.034-0.524,0.364-0.979,0.889-1.013c0.041-0.002,0.082-0.002,0.123,0h13.4c0.521-0.005,0.947,0.413,0.952,0.935
	c0,0.006,0,0.013,0,0.019C52.408,78.91,51.966,79.333,51.432,79.324z"/>
<path id="Path_984" fill="#8F4715" d="M51.432,85.377h-16.9c-1.822-0.035-3.625-0.383-5.329-1.027
	c-0.419-0.151-0.838-0.267-1.219-0.381h-0.038c-2.151-0.609-4.395-0.828-6.624-0.648c-1.294,0-2.893,0.039-4.91,0
	c-0.503,0.004-0.913-0.402-0.915-0.905c0-0.017,0-0.03,0.001-0.045V60.406c-0.005-0.521,0.412-0.947,0.932-0.952
	c0.007-0.001,0.014-0.001,0.021,0c8.108,0,8.908-0.724,10.506-2.169c0.659-0.621,1.373-1.182,2.132-1.676h0.038l0.039-0.037
	c1.034-0.807,2.305-1.247,3.616-1.256h2.132c0.52-0.006,0.946,0.41,0.952,0.932c0,0.006,0,0.014,0,0.02v4.111h15.569
	c2.184-0.002,3.956,1.768,3.958,3.952c0,0.002,0,0.004,0,0.006c0.018,1.165-0.501,2.274-1.408,3.007
	c1.671,1.422,1.875,3.928,0.456,5.6L53.984,72.4c1.672,1.42,1.876,3.927,0.456,5.6l-0.456,0.457
	c1.668,1.371,1.908,3.834,0.537,5.502c-0.757,0.922-1.894,1.446-3.087,1.426L51.432,85.377z M28.554,82.143
	c0.419,0.114,0.838,0.267,1.294,0.418c1.504,0.592,3.104,0.901,4.72,0.914h16.9c1.135,0,2.055-0.92,2.055-2.055
	c0-1.136-0.92-2.057-2.055-2.057c-0.525,0.035-0.978-0.363-1.012-0.889c-0.034-0.523,0.363-0.978,0.888-1.012
	c0.041-0.003,0.082-0.003,0.124,0c1.135,0.025,2.076-0.874,2.101-2.01c0.025-1.137-0.875-2.076-2.01-2.102
	c-0.03-0.002-0.061-0.002-0.091,0c-0.525-0.035-0.922-0.487-0.889-1.012c0.031-0.479,0.411-0.857,0.889-0.889
	c1.135,0.025,2.076-0.875,2.101-2.01c0.025-1.137-0.875-2.076-2.01-2.103c-0.03,0-0.061,0-0.091,0
	c-0.525-0.034-0.922-0.485-0.889-1.012c0.031-0.478,0.411-0.857,0.889-0.89c1.135,0,2.055-0.92,2.055-2.055
	c0-1.136-0.92-2.056-2.055-2.056H34.949c-0.521,0.005-0.947-0.411-0.952-0.933c0-0.006,0-0.014,0-0.021v-4.11h-1.18
	c-0.9-0.002-1.774,0.309-2.474,0.875c-0.057,0.028-0.108,0.066-0.152,0.113c-0.666,0.466-1.3,0.975-1.9,1.521
	c-1.979,1.791-3.2,2.591-10.849,2.666V81.54c1.523,0.038,2.779,0,3.921,0c2.931-0.151,4.758-0.188,7.194,0.608L28.554,82.143z"/>
<path id="Path_985" fill="#8F4715" d="M40.317,90.744c-3.479,0.01-6.309-2.803-6.319-6.281c0-0.012,0-0.025,0-0.037
	c-0.005-0.52,0.412-0.945,0.932-0.951c0.007,0,0.014,0,0.021,0h10.773c0.521-0.006,0.947,0.412,0.952,0.935c0,0.006,0,0.012,0,0.018
	C46.639,87.916,43.807,90.73,40.317,90.744L40.317,90.744z M35.977,85.377c0.534,2.387,2.902,3.889,5.289,3.354
	c1.673-0.375,2.979-1.682,3.354-3.354H35.977z"/>
<path id="Path_986" fill="#8F4715" d="M50.938,52.449H32.78c-7.337,0-13.285-5.947-13.285-13.284S25.443,25.88,32.78,25.88l0,0
	h18.119c0.521-0.005,0.947,0.412,0.952,0.932c0,0.007,0,0.014,0,0.021v24.664c0.022,0.502-0.367,0.928-0.869,0.951
	C50.967,52.448,50.952,52.448,50.938,52.449L50.938,52.449z M32.781,27.783c-6.286-0.059-11.43,4.989-11.489,11.274
	c-0.059,6.287,4.989,11.429,11.274,11.489c0.071,0.001,0.143,0.001,0.214,0h17.206V27.784L32.781,27.783z"/>
<path id="Path_987" fill="#231F20" d="M34.188,33.987c-0.52,0.006-0.946-0.412-0.952-0.932c0-0.008,0-0.016,0-0.024v-2.169
	c0.034-0.524,0.487-0.922,1.012-0.888c0.478,0.031,0.857,0.411,0.889,0.888v2.169c0.007,0.521-0.408,0.948-0.928,0.956
	C34.202,33.987,34.195,33.987,34.188,33.987z"/>
<path id="Path_988" fill="#231F20" d="M38.261,33.987c-0.521,0.005-0.947-0.413-0.952-0.934c0-0.006,0-0.012,0-0.018v-2.169
	c-0.034-0.524,0.364-0.978,0.888-1.012c0.525-0.034,0.978,0.364,1.012,0.888c0.003,0.042,0.003,0.083,0,0.124v2.165
	c0.008,0.521-0.408,0.948-0.928,0.956C38.274,33.987,38.268,33.987,38.261,33.987z"/>
<path id="Path_989" fill="#231F20" d="M42.372,33.987c-0.521,0.006-0.946-0.412-0.952-0.932c0-0.008,0-0.016,0-0.024v-2.169
	c0.034-0.524,0.487-0.922,1.012-0.888c0.477,0.031,0.857,0.411,0.888,0.888v2.169C43.314,33.553,42.895,33.977,42.372,33.987z"/>
<path id="Path_990" fill="#231F20" d="M46.445,33.987c-0.521,0.005-0.947-0.413-0.952-0.934c0-0.006,0-0.012,0-0.018v-2.169
	c0.034-0.524,0.487-0.922,1.012-0.888c0.477,0.031,0.857,0.411,0.888,0.888v2.165c0.008,0.521-0.408,0.948-0.928,0.956
	C46.458,33.987,46.452,33.987,46.445,33.987z"/>
<path id="Path_991" fill="#8F4715" d="M76.746,64.975c-0.143-0.004-0.284-0.029-0.419-0.076L50.518,52.412
	c-0.327-0.15-0.536-0.479-0.533-0.838V26.833c-0.013-0.363,0.199-0.696,0.533-0.838L76.327,13.51
	c0.459-0.226,1.015-0.037,1.241,0.422c0.005,0.011,0.011,0.022,0.016,0.034c0.078,0.126,0.118,0.271,0.115,0.419v49.678
	c-0.038,0.502-0.448,0.896-0.952,0.914L76.746,64.975z M51.885,50.927l23.906,11.572V15.868L51.885,27.44V50.927z"/>
<path id="Path_992" fill="#8F4715" d="M79.335,67.867c-1.974,0.002-3.575-1.598-3.577-3.571c0-0.003,0-0.005,0-0.007V14.041
	c0-1.977,1.603-3.579,3.579-3.579c1.977,0,3.579,1.602,3.579,3.579v50.248c0.002,1.975-1.596,3.576-3.57,3.578
	C79.342,67.867,79.338,67.867,79.335,67.867z M79.335,12.405c-0.922,0.007-1.668,0.752-1.677,1.674v50.247
	c0,0.926,0.75,1.676,1.675,1.676s1.675-0.75,1.675-1.676l0,0V14.079c0.005-0.92-0.736-1.669-1.656-1.674
	C79.346,12.405,79.341,12.405,79.335,12.405z"/>
<path id="Path_993" fill="#8F4715" d="M82.989,43.962h-1.027c-0.521,0.005-0.947-0.413-0.952-0.935c0-0.006,0-0.012,0-0.018v-7.69
	c-0.005-0.52,0.412-0.946,0.932-0.952c0.007,0,0.013,0,0.02,0h1.027c2.649-0.101,4.878,1.964,4.979,4.613
	c0.101,2.65-1.964,4.878-4.613,4.98C83.233,43.965,83.111,43.965,82.989,43.962L82.989,43.962z M82.913,42.063h0.076
	c1.598,0,2.893-1.296,2.893-2.894s-1.295-2.894-2.893-2.894H82.91L82.913,42.063z"/>
<path id="Path_994" fill="#8F4715" d="M93.914,49.671c-0.252-0.007-0.494-0.102-0.685-0.267l-4.225-4.226
	c-0.378-0.357-0.395-0.954-0.038-1.332c0.357-0.378,0.954-0.396,1.332-0.038l0,0l0.038,0.038l4.225,4.226
	c0.368,0.359,0.375,0.951,0.015,1.318C94.401,49.569,94.163,49.67,93.914,49.671L93.914,49.671z"/>
<path id="Path_995" fill="#8F4715" d="M96.997,40.115h-5.976c-0.525-0.033-0.922-0.486-0.888-1.011
	c0.031-0.477,0.411-0.857,0.888-0.888h5.976c0.524,0.034,0.922,0.487,0.888,1.012C97.854,39.705,97.474,40.085,96.997,40.115z"/>
<path id="Path_996" fill="#8F4715" d="M89.689,34.787c-0.52,0.005-0.946-0.412-0.952-0.932c0-0.007,0-0.013,0-0.02
	c0.007-0.252,0.101-0.494,0.266-0.685l4.225-4.225c0.357-0.378,0.954-0.396,1.332-0.038c0.378,0.358,0.395,0.954,0.038,1.332l0,0
	l-0.038,0.039l-4.225,4.225C90.189,34.692,89.943,34.808,89.689,34.787z"/>
<path id="Path_969" fill="#6D6C6B" d="M50.937,26.831H32.779c-6.812,0-12.333,5.521-12.333,12.333s5.522,12.333,12.333,12.333
	h18.119L50.937,26.831z"/>
<path id="Path_962-2" fill="#2D7490" d="M1129.563,71.959c0,2.076,2.353,3.761,5.255,3.761c2.899,0,5.254-1.681,5.254-3.761
	H1129.563z"/>
<path id="Path_963-3" fill="#FEE435" d="M1133.48,21.79c-8.5,0.543-16.216,8.26-16.759,16.759c-0.36,5.403,1.74,10.68,5.72,14.355
	c2.104,1.912,3.313,4.613,3.342,7.457h17.76c-0.027-2.764,1.117-5.407,3.148-7.279c7.377-6.641,7.973-18.004,1.332-25.381
	c-3.687-4.094-9.046-6.271-14.541-5.909L1133.48,21.79z"/>
<path id="Path_973-2" fill="#FFEE7D" d="M1134.66,26.285c7.498,0,13.576,6.078,13.576,13.576c0,7.499-6.078,13.577-13.576,13.577
	s-13.576-6.078-13.576-13.577C1121.084,32.363,1127.162,26.285,1134.66,26.285z"/>
<path id="Path_964-2" fill="#FFEE7D" d="M1134.66,19.22L1134.66,19.22c-0.596,0-1.08-0.483-1.08-1.079v-3.6
	c0.002-0.596,0.484-1.078,1.08-1.078l0,0c0.596,0,1.078,0.483,1.078,1.079v3.6C1135.738,18.737,1135.256,19.22,1134.66,19.22z"/>
<path id="SVGCleanerId_0" fill="#D5D6DB" d="M1122.527,23.162L1122.527,23.162c-0.48,0.352-1.156,0.246-1.509-0.235l0,0
	l-2.114-2.911c-0.351-0.481-0.244-1.156,0.237-1.507c0,0,0,0,0.002-0.001l0,0c0.48-0.351,1.156-0.244,1.507,0.238
	c0,0,0,0,0.002,0.001l2.112,2.911C1123.115,22.14,1123.008,22.812,1122.527,23.162z"/>
<path id="SVGCleanerId_0_1_" fill="#FFEE7D" d="M1122.527,23.162L1122.527,23.162c-0.48,0.352-1.156,0.246-1.509-0.235l0,0
	l-2.114-2.911c-0.351-0.481-0.244-1.156,0.237-1.507c0,0,0,0,0.002-0.001l0,0c0.48-0.351,1.156-0.244,1.507,0.238
	c0,0,0,0,0.002,0.001l2.112,2.911C1123.115,22.14,1123.008,22.812,1122.527,23.162z"/>
<path id="SVGCleanerId_1" fill="#D5D6DB" d="M1115.029,33.484L1115.029,33.484c-0.187,0.567-0.793,0.877-1.361,0.693l-3.422-1.111
	c-0.566-0.185-0.877-0.793-0.693-1.36l0,0c0.187-0.567,0.795-0.877,1.361-0.693l3.422,1.112
	C1114.902,32.309,1115.213,32.917,1115.029,33.484z"/>
<path id="SVGCleanerId_1_1_" fill="#FFEE7D" d="M1115.029,33.483L1115.029,33.483c-0.187,0.566-0.793,0.876-1.361,0.693
	l-3.422-1.111c-0.566-0.185-0.877-0.793-0.693-1.36l0,0c0.187-0.567,0.795-0.877,1.361-0.693l3.422,1.112
	C1114.902,32.308,1115.213,32.916,1115.029,33.483z"/>
<path id="SVGCleanerId_2" fill="#D5D6DB" d="M1154.293,33.483L1154.293,33.483c-0.186-0.567,0.125-1.175,0.691-1.36c0,0,0,0,0.002,0
	l3.422-1.112c0.565-0.184,1.176,0.126,1.358,0.692c0,0,0,0,0,0.001l0,0c0.185,0.566-0.125,1.175-0.692,1.359l0,0l-3.422,1.112
	C1155.086,34.36,1154.477,34.05,1154.293,33.483z"/>
<path id="SVGCleanerId_2_1_" fill="#FFEE7D" d="M1154.293,33.483L1154.293,33.483c-0.186-0.567,0.125-1.175,0.691-1.36
	c0,0,0,0,0.002,0l3.422-1.112c0.565-0.184,1.176,0.126,1.358,0.692c0,0,0,0,0,0.001l0,0c0.185,0.566-0.125,1.175-0.692,1.359l0,0
	l-3.422,1.112C1155.086,34.36,1154.477,34.05,1154.293,33.483z"/>
<path id="Path_965-2" fill="#FFEE7D" d="M1146.795,23.162L1146.795,23.162c-0.482-0.35-0.59-1.025-0.24-1.507c0,0,0,0,0-0.001
	l2.115-2.911c0.353-0.482,1.025-0.589,1.508-0.24v0.001l0,0c0.482,0.35,0.59,1.024,0.24,1.507v0.001l-2.117,2.915
	C1147.949,23.408,1147.275,23.513,1146.795,23.162z"/>
<path id="Path_966-2" fill="#FDFAC7" d="M1136.283,61.706h-3.25c-0.297,0-0.553-0.209-0.611-0.5l-2.916-15.036
	c-0.006-0.039-0.01-0.078-0.01-0.118v-4.876c-0.002-0.344,0.277-0.623,0.621-0.623c0.166,0,0.324,0.065,0.44,0.184
	c2.259,2.264,5.925,2.27,8.188,0.012c0.004-0.004,0.008-0.008,0.012-0.012c0.242-0.244,0.637-0.245,0.881-0.003
	c0.117,0.117,0.185,0.276,0.185,0.442v4.876c0,0.04-0.005,0.079-0.013,0.118l-2.914,15.036
	C1136.838,61.497,1136.58,61.707,1136.283,61.706z M1133.547,60.461h2.225l2.806-14.475v-3.5c-2.371,1.588-5.465,1.588-7.834,0v3.5
	L1133.547,60.461z"/>
<path id="Path_967-2" fill="#2D7490" d="M1145.592,62.357c0-1.105-0.896-2-2-2h-17.867c-0.686,0-1.323,0.354-1.688,0.938l20.4,2.865
	C1145.141,63.834,1145.59,63.131,1145.592,62.357z"/>
<path id="Path_968-2" fill="#175A74" d="M1124.037,61.296c-0.588,0.929-0.314,2.159,0.615,2.748c0.319,0.204,0.69,0.312,1.071,0.31
	h17.871c0.291,0,0.578-0.065,0.843-0.189L1124.037,61.296z"/>
<path id="Path_969-2" fill="#2D7490" d="M1145.592,66.161c0-1.104-0.896-2-2-2h-17.867c-0.686,0.001-1.323,0.354-1.688,0.938
	l20.4,2.865C1145.141,67.639,1145.59,66.936,1145.592,66.161z"/>
<path id="Path_970-2" fill="#175A74" d="M1124.037,65.1c-0.588,0.93-0.314,2.159,0.615,2.748c0.319,0.204,0.69,0.313,1.071,0.312
	h17.871c0.291-0.002,0.578-0.066,0.843-0.191L1124.037,65.1z"/>
<path id="Path_971-2" fill="#2D7490" d="M1145.592,69.964c0-1.104-0.896-2-2-2h-17.867c-0.686,0.001-1.323,0.354-1.688,0.938
	l20.4,2.865C1145.141,71.441,1145.59,70.738,1145.592,69.964z"/>
<path id="Path_972-2" fill="#175A74" d="M1124.037,68.904c-0.588,0.928-0.314,2.158,0.615,2.748c0.319,0.203,0.69,0.311,1.071,0.31
	h17.871c0.291-0.001,0.578-0.065,0.843-0.19L1124.037,68.904z"/>
<rect id="Rectangle_556" x="1157.5" y="-0.537" fill="#F0504B" width="14" height="12"/>
<rect id="Rectangle_557" x="1156.5" y="88.463" fill="#F0504B" width="14" height="12"/>
<path id="Path_1318" fill="#FD9500" d="M0,0h14v12H0V0z"/>
<path id="Path_1319" fill="#FD9500" d="M0.499,88.463h14v12h-14V88.463z"/>
</svg>
