<svg xmlns="http://www.w3.org/2000/svg" width="52.336" height="59.009" viewBox="0 0 52.336 59.009">
  <g id="rocket" transform="translate(-28.948 0.002)">
    <path id="Path_400" data-name="Path 400" d="M120.441,232.368l-3.365,3.352a5.022,5.022,0,0,0-1.38,4.545l1.966,11.08,5.162-5.881" transform="translate(-76.664 -205.588)" fill="#ffbdbc"/>
    <path id="Path_401" data-name="Path 401" d="M333.691,246.471l5.163,5.881,1.966-11.082a5.022,5.022,0,0,0-1.377-4.542l-3.229-3.221" transform="translate(-269.62 -206.595)" fill="#ffbdbc"/>
    <path id="Path_402" data-name="Path 402" d="M167.5,291.116l.713,3.521c.531,2.619,1,3.112,1,3.112h17.072s.416-.437.9-3.112c.208-1.149.429-2.371.635-3.521Z" transform="translate(-122.583 -257.566)" fill="#cecdf3"/>
    <path id="Path_403" data-name="Path 403" d="M180.944,115.8a29.626,29.626,0,0,0-2.473-16.274s-.364-.722-.544-1.085H162.036c-.174.342-.493,1.07-.485,1.08a31.409,31.409,0,0,0-2.244,6.786,36.581,36.581,0,0,0-.272,10.657c0,.008.329,1.628.745,3.684H180.1C180.52,118.319,180.876,116.294,180.944,115.8Z" transform="translate(-114.864 -87.096)" fill="#faf7f5"/>
    <path id="Path_404" data-name="Path 404" d="M195.012,9.994a33.52,33.52,0,0,0-7.958,10.194h15.892A32.879,32.879,0,0,0,195.012,9.994Z" transform="translate(-139.884 -8.844)" fill="#9d9ae8"/>
    <ellipse id="Ellipse_46" data-name="Ellipse 46" cx="5.42" cy="5.42" rx="5.42" ry="5.42" transform="matrix(0.16, -0.987, 0.987, 0.16, 48.892, 27.233)" fill="#e7f9e9"/>
    <path id="Path_405" data-name="Path 405" d="M58.753,407.531H40.022a8.237,8.237,0,1,1,14.96-6.721,6.914,6.914,0,0,1,8.981,1.788,6.914,6.914,0,0,1,8.981-1.788,8.237,8.237,0,1,1,14.96,6.721H69.174" transform="translate(-8.847 -349.677)" fill="#e7f9e9"/>
    <path id="Path_406" data-name="Path 406" d="M247.346,494.326a1.152,1.152,0,1,1,1.131-.928A1.162,1.162,0,0,1,247.346,494.326Z" transform="translate(-192.209 -435.319)"/>
    <path id="Path_407" data-name="Path 407" d="M71.9,44.4a9.443,9.443,0,0,0-1.267.085l1.7-9.595a6.16,6.16,0,0,0-1.7-5.572l-3.192-3.184a30.5,30.5,0,0,0-2.78-14.165,12.761,12.761,0,0,0-.6-1.194A34.052,34.052,0,0,0,55.833.238a1.155,1.155,0,0,0-1.49.068c-.025.023-.067.059-.126.11a34.74,34.74,0,0,0-8.075,10.406c-.185.364-.349.741-.5,1.118a32.655,32.655,0,0,0-2.327,7.034,33.052,33.052,0,0,0-.545,7.182L39.6,29.315a6.16,6.16,0,0,0-1.7,5.574l1.7,9.593a9.39,9.39,0,0,0-9.429,13.943,1.153,1.153,0,0,0,1,.582H49.906a1.153,1.153,0,0,0,0-2.305H31.88a7.085,7.085,0,1,1,13.164-5.2,1.153,1.153,0,0,0,1.672.625A5.762,5.762,0,0,1,54.2,53.621a1.153,1.153,0,0,0,1.834,0,5.762,5.762,0,0,1,7.483-1.491,1.153,1.153,0,0,0,1.672-.625,7.084,7.084,0,1,1,13.164,5.2H60.326a1.153,1.153,0,1,0,0,2.305H79.057a1.152,1.152,0,0,0,1-.582A9.39,9.39,0,0,0,71.9,44.4Zm-1.827-9.949,0,.025-1.547,8.721-3.276-3.731c.173-.583,1.834-9.664,1.94-10.336l1.826,1.821A3.86,3.86,0,0,1,70.069,34.448ZM47.34,39.031a14.694,14.694,0,0,1-.581-2.188L46.326,34.7H63.861c-.131.726-.263,1.458-.391,2.163a16.7,16.7,0,0,1-.508,2.165H47.34ZM55.153,2.672a33.388,33.388,0,0,1,5.977,7.52H49.11A32.419,32.419,0,0,1,55.153,2.672ZM45.571,19.444a30.339,30.339,0,0,1,2.162-6.537,1.194,1.194,0,0,0,.05-.128c.023-.056.068-.16.122-.283H62.352l.212.422a28.5,28.5,0,0,1,2.373,15.639c-.038.27-.187,1.173-.662,3.84H45.859c-.3-1.492-.505-2.5-.549-2.711a35.39,35.39,0,0,1,.261-10.243Zm-4.345,11.5,1.72-1.713q.038.4.08.765,0,.017,0,.035c.006.042,1.831,8.849,2,9.379l-3.318,3.78-1.547-8.718,0-.025a3.86,3.86,0,0,1,1.063-3.5ZM63.5,49.575a8.08,8.08,0,0,0-2.885-.533,8,8,0,0,0-5.5,2.165,8,8,0,0,0-5.5-2.165,8.08,8.08,0,0,0-2.885.533A9.382,9.382,0,0,0,42.756,45.5l3.672-4.183a1.153,1.153,0,0,0,.2.018H63.7c.037,0,.074,0,.11-.005L67.476,45.5A9.38,9.38,0,0,0,63.5,49.575Z" transform="translate(0 0)"/>
    <path id="Path_408" data-name="Path 408" d="M205.544,153.542a6.572,6.572,0,1,1,6.572-6.572A6.58,6.58,0,0,1,205.544,153.542Zm0-10.84a4.267,4.267,0,1,0,4.267,4.267A4.272,4.272,0,0,0,205.544,142.7Z" transform="translate(-150.428 -124.217)"/>
  </g>
</svg>
