<svg xmlns="http://www.w3.org/2000/svg" width="10.208" height="16.002" viewBox="0 0 10.208 16.002">
  <path id="price" d="M10.022,3.768a.354.354,0,0,0-.257-.1H7.816a3.934,3.934,0,0,0-.727-1.637H9.737a.349.349,0,0,0,.363-.363V.51A.349.349,0,0,0,9.737.142H.28A.351.351,0,0,0-.079.5V2.013a.349.349,0,0,0,.1.257.349.349,0,0,0,.257.108H1.93q2.4,0,3.046,1.283H.28a.351.351,0,0,0-.359.359V5.174a.35.35,0,0,0,.359.377H5.135A2.221,2.221,0,0,1,3.97,6.971a5.132,5.132,0,0,1-2.415.489H.28a.35.35,0,0,0-.257.108.349.349,0,0,0-.108.257V9.268a.34.34,0,0,0,.108.25Q2.2,11.836,5.683,16.007a.335.335,0,0,0,.284.136H8.181a.33.33,0,0,0,.33-.2.31.31,0,0,0-.045-.385Q5.147,11.483,3.248,9.462a5.764,5.764,0,0,0,3.137-1.25A4.249,4.249,0,0,0,7.85,5.551H9.76a.35.35,0,0,0,.363-.363V4.033A.354.354,0,0,0,10.022,3.768Z" transform="translate(0.084 -0.142)" fill="#32c8f5"/>
</svg>
