<?xml version="1.0" encoding="utf-8"?>
<!-- Generator: Adobe Illustrator 16.0.0, SVG Export Plug-In . SVG Version: 6.00 Build 0)  -->
<!DOCTYPE svg PUBLIC "-//W3C//DTD SVG 1.1//EN" "http://www.w3.org/Graphics/SVG/1.1/DTD/svg11.dtd">
<svg version="1.1" id="Group_175" xmlns="http://www.w3.org/2000/svg" xmlns:xlink="http://www.w3.org/1999/xlink" x="0px" y="0px"
	 width="21.73px" height="20.621px" viewBox="0 0 21.73 20.621" enable-background="new 0 0 21.73 20.621" xml:space="preserve">
<g>
	<g>
		<path fill="#333366" d="M18.365,0.311h-15c-1.378,0-2.5,1.122-2.5,2.5v15c0,1.379,1.122,2.5,2.5,2.5h15c1.38,0,2.5-1.121,2.5-2.5
			v-15C20.865,1.432,19.745,0.311,18.365,0.311z M19.2,17.811c0,0.461-0.375,0.834-0.835,0.834h-15
			c-0.459,0-0.833-0.373-0.833-0.834v-15c0-0.459,0.375-0.833,0.833-0.833h15c0.46,0,0.835,0.375,0.835,0.833V17.811z"/>
	</g>
</g>
<path fill="#333366" d="M14.384,12.368c1.195-1.841,0.998-4.352-0.589-5.971c-1.816-1.848-4.77-1.848-6.587,0
	c-1.814,1.851-1.814,4.861,0,6.708c0.909,0.928,2.104,1.388,3.293,1.388c0.896,0,1.794-0.261,2.568-0.78l2.042,2.077
	c0.18,0.187,0.419,0.278,0.657,0.278c0.237,0,0.477-0.092,0.655-0.278c0.368-0.37,0.368-0.972,0-1.342L14.384,12.368z M8.526,11.766
	c-1.09-1.108-1.09-2.915,0-4.025c0.545-0.554,1.259-0.833,1.975-0.833c0.715,0,1.43,0.278,1.976,0.833
	c1.09,1.111,1.09,2.917,0,4.025C11.387,12.877,9.614,12.877,8.526,11.766z"/>
</svg>
