<?xml version="1.0" encoding="utf-8"?>
<!-- Generator: Adobe Illustrator 14.0.0, SVG Export Plug-In . SVG Version: 6.00 Build 43363)  -->
<!DOCTYPE svg PUBLIC "-//W3C//DTD SVG 1.1//EN" "http://www.w3.org/Graphics/SVG/1.1/DTD/svg11.dtd">
<svg version="1.1" id="Layer_1" xmlns="http://www.w3.org/2000/svg" xmlns:xlink="http://www.w3.org/1999/xlink" x="0px" y="0px"
	 width="19px" height="20px" viewBox="-0.188 -0.355 19 20" enable-background="new -0.188 -0.355 19 20" xml:space="preserve">
<g id="Group_1064" transform="translate(-10948.376 -432)">
	<g id="Group_1063">
		<path id="search" d="M10966.718,449.57l-4.592-4.771c2.764-3.293,2.334-8.204-0.959-10.967c-3.294-2.763-8.204-2.333-10.968,0.96
			c-2.764,3.294-2.334,8.205,0.959,10.968c1.402,1.176,3.176,1.821,5.007,1.82c1.598,0.005,3.156-0.488,4.462-1.408l4.626,4.811
			c0.377,0.416,1.02,0.445,1.436,0.068c0.415-0.377,0.445-1.02,0.068-1.436c-0.014-0.014-0.026-0.027-0.039-0.041V449.57z
			 M10956.164,434.032c3.18-0.001,5.757,2.576,5.758,5.756c0.001,3.179-2.576,5.757-5.756,5.757
			c-3.18,0.001-5.758-2.576-5.758-5.755c0,0,0-0.001,0-0.002C10950.412,436.611,10952.986,434.036,10956.164,434.032z"/>
	</g>
</g>
</svg>
