<svg xmlns="http://www.w3.org/2000/svg" width="18.477" height="19.6" viewBox="0 0 18.477 19.6">
  <g id="share_1_" data-name="share (1)" transform="translate(-13.8 -1)">
    <path id="Path_26" data-name="Path 26" d="M28.769,12.592a3.507,3.507,0,0,0-2.776,1.367l-5.384-3.008A3.516,3.516,0,0,0,20.8,9.8a3.439,3.439,0,0,0-.2-1.16l5.38-3A3.5,3.5,0,1,0,25.26,3.5a3.421,3.421,0,0,0,.2,1.16l-5.376,3a3.5,3.5,0,1,0,.008,4.253l5.38,3.008a3.5,3.5,0,1,0,3.3-2.336Zm0-11.489a2.405,2.405,0,1,1-2.405,2.405A2.407,2.407,0,0,1,28.769,1.1ZM17.308,12.2A2.405,2.405,0,1,1,19.713,9.8,2.407,2.407,0,0,1,17.308,12.2Zm11.46,6.3a2.405,2.405,0,1,1,2.405-2.405A2.407,2.407,0,0,1,28.769,18.5Z" transform="translate(0 1)" fill="#64be91"/>
  </g>
</svg>
