<svg xmlns="http://www.w3.org/2000/svg" width="16.199" height="17.184" viewBox="0 0 16.199 17.184">
  <path id="Path_26" data-name="Path 26" d="M26.924,11.04a3.075,3.075,0,0,0-2.433,1.2L19.769,9.6a3.082,3.082,0,0,0,.171-1.013,3.015,3.015,0,0,0-.175-1.017l4.717-2.633a3.069,3.069,0,1,0-.635-1.866,3,3,0,0,0,.175,1.017L19.309,6.722a3.069,3.069,0,1,0,.007,3.729l4.717,2.637a3.071,3.071,0,1,0,2.89-2.048Zm0-10.073a2.109,2.109,0,1,1-2.109,2.109A2.111,2.111,0,0,1,26.924.967ZM16.876,10.7a2.109,2.109,0,1,1,2.109-2.109A2.111,2.111,0,0,1,16.876,10.7Zm10.048,5.52a2.109,2.109,0,1,1,2.109-2.109A2.111,2.111,0,0,1,26.924,16.217Z" transform="translate(-13.8)" fill="#010101"/>
</svg>
