<svg id="shareIcon" xmlns="http://www.w3.org/2000/svg" width="24.114" height="26.5" viewBox="0 0 24.114 26.5">
  <g id="Group_535" data-name="Group 535" transform="translate(0)">
    <g id="Group_534" data-name="Group 534">
      <path id="Path_299" data-name="Path 299" d="M42.817,17.809A4.339,4.339,0,0,0,39.4,19.471l-7.975-4.6a4.331,4.331,0,0,0,0-3.233l7.975-4.6a4.334,4.334,0,1,0-.618-1.066l-7.975,4.6a4.346,4.346,0,1,0,0,5.366l7.975,4.6a4.345,4.345,0,1,0,4.032-2.729Zm0-16.576A3.113,3.113,0,1,1,39.7,4.346,3.117,3.117,0,0,1,42.817,1.232ZM27.395,16.363a3.113,3.113,0,1,1,3.113-3.113A3.117,3.117,0,0,1,27.395,16.363Zm15.423,8.9a3.113,3.113,0,1,1,3.113-3.113A3.117,3.117,0,0,1,42.817,25.268Z" transform="translate(-23.049)"/>
    </g>
  </g>
  <g id="Group_537" data-name="Group 537" transform="translate(2.514 11.418)">
    <g id="Group_536" data-name="Group 536" transform="translate(0)">
      <path id="Path_300" data-name="Path 300" d="M73.449,220.606a1.834,1.834,0,0,0-1.832,1.832.616.616,0,0,0,1.232,0,.6.6,0,0,1,.6-.6.616.616,0,1,0,0-1.232Z" transform="translate(-71.617 -220.606)"/>
    </g>
  </g>
</svg>
