<?xml version="1.0" encoding="utf-8"?>
<!-- Generator: Adobe Illustrator 14.0.0, SVG Export Plug-In . SVG Version: 6.00 Build 43363)  -->
<!DOCTYPE svg PUBLIC "-//W3C//DTD SVG 1.1//EN" "http://www.w3.org/Graphics/SVG/1.1/DTD/svg11.dtd">
<svg version="1.1" id="Layer_1" xmlns="http://www.w3.org/2000/svg" xmlns:xlink="http://www.w3.org/1999/xlink" x="0px" y="0px"
	 width="30.815px" height="30.396px" viewBox="20.092 19.88 30.815 30.396" enable-background="new 20.092 19.88 30.815 30.396"
	 xml:space="preserve">
<g transform="rotate(0 50 50)">
	<path fill="#5F4BA0" d="M35.5,19.88L35.5,19.88c0.98,0,1.775,0.877,1.775,1.96v4.601c0,1.082-0.795,1.959-1.775,1.959l0,0
		c-0.98,0-1.775-0.877-1.775-1.959V21.84C33.725,20.757,34.52,19.88,35.5,19.88z	">
<animate  restart="always" begin="-1.084010840108401s" dur="1.2195121951219512s" values="1;0" fill="remove" calcMode="linear" additive="replace" accumulate="none" repeatCount="indefinite" keyTimes="0;1" attributeName="opacity">
			</animate>
	</path>
</g>
<g transform="rotate(40 50 50)">
	<path fill="#5F4BA0" d="M29.572,32.592L29.572,32.592c0.98,0.001,1.775,0.878,1.775,1.96l0,4.601c0,1.083-0.795,1.96-1.775,1.96
		l0,0c-0.981,0.001-1.776-0.877-1.775-1.959l0-4.601C27.797,33.47,28.591,32.593,29.572,32.592z	">
<animate  restart="always" begin="-0.9485094850948509s" dur="1.2195121951219512s" values="1;0" fill="remove" calcMode="linear" additive="replace" accumulate="none" repeatCount="indefinite" keyTimes="0;1" attributeName="opacity">
			</animate>
	</path>
</g>
<g transform="rotate(80 50 50)">
	<path fill="#5F4BA0" d="M33.202,46.142L33.202,46.142c0.98,0,1.775,0.877,1.775,1.959l0,4.601c0,1.083-0.795,1.96-1.775,1.96l0,0
		c-0.98,0-1.775-0.877-1.775-1.959l0-4.601C31.427,47.019,32.222,46.141,33.202,46.142z	">
<animate  restart="always" begin="-0.8130081300813007s" dur="1.2195121951219512s" values="1;0" fill="remove" calcMode="linear" additive="replace" accumulate="none" repeatCount="indefinite" keyTimes="0;1" attributeName="opacity">
			</animate>
	</path>
</g>
<g transform="rotate(120 50 50)">
	<path fill="#5F4BA0" d="M44.693,54.187L44.693,54.187c0.98,0,1.774,0.878,1.774,1.959l0,4.601c0,1.082-0.794,1.96-1.774,1.96l0,0
		c-0.98,0-1.775-0.877-1.775-1.96l0-4.601C42.918,55.065,43.712,54.187,44.693,54.187z	">
<animate  restart="always" begin="-0.6775067750677506s" dur="1.2195121951219512s" values="1;0" fill="remove" calcMode="linear" additive="replace" accumulate="none" repeatCount="indefinite" keyTimes="0;1" attributeName="opacity">
			</animate>
	</path>
</g>
<g transform="rotate(160 50 50)">
	<path fill="#5F4BA0" d="M58.667,52.965L58.667,52.965c0.979-0.001,1.774,0.876,1.775,1.96l0,4.601c0,1.082-0.795,1.959-1.774,1.96
		l0,0c-0.981,0-1.776-0.877-1.776-1.96l0-4.601C56.89,53.842,57.686,52.965,58.667,52.965z	">
<animate  restart="always" begin="-0.5420054200542005s" dur="1.2195121951219512s" values="1;0" fill="remove" calcMode="linear" additive="replace" accumulate="none" repeatCount="indefinite" keyTimes="0;1" attributeName="opacity">
			</animate>
	</path>
</g>
<g transform="rotate(200 50 50)">
	<path fill="#5F4BA0" d="M68.585,43.047L68.585,43.047c0.98,0,1.775,0.877,1.775,1.959l0,4.601c0,1.083-0.794,1.96-1.775,1.96l0,0
		c-0.98,0-1.775-0.878-1.775-1.959l0-4.601C66.81,43.923,67.605,43.046,68.585,43.047z	">
<animate  restart="always" begin="-0.40650406504065034s" dur="1.2195121951219512s" values="1;0" fill="remove" calcMode="linear" additive="replace" accumulate="none" repeatCount="indefinite" keyTimes="0;1" attributeName="opacity">
			</animate>
	</path>
</g>
<g transform="rotate(240 50 50)">
	<path fill="#5F4BA0" d="M69.807,29.072L69.807,29.072c0.981,0,1.775,0.878,1.776,1.96l0,4.601c0,1.082-0.795,1.959-1.775,1.959l0,0
		c-0.98,0-1.775-0.877-1.775-1.959l0-4.601C68.033,29.95,68.827,29.073,69.807,29.072z	">
<animate  restart="always" begin="-0.27100271002710025s" dur="1.2195121951219512s" values="1;0" fill="remove" calcMode="linear" additive="replace" accumulate="none" repeatCount="indefinite" keyTimes="0;1" attributeName="opacity">
			</animate>
	</path>
</g>
<g transform="rotate(280 50 50)">
	<path fill="#5F4BA0" d="M61.762,17.582L61.762,17.582c0.98,0,1.775,0.877,1.775,1.96l0,4.601c0,1.082-0.795,1.96-1.775,1.96l0,0
		c-0.98,0-1.775-0.877-1.775-1.959l0-4.601C59.987,18.459,60.782,17.583,61.762,17.582z	">
<animate  restart="always" begin="-0.13550135501355012s" dur="1.2195121951219512s" values="1;0" fill="remove" calcMode="linear" additive="replace" accumulate="none" repeatCount="indefinite" keyTimes="0;1" attributeName="opacity">
			</animate>
	</path>
</g>
<g transform="rotate(320 50 50)">
	<path fill="#5F4BA0" d="M48.213,13.952L48.213,13.952c0.98,0,1.775,0.878,1.775,1.96l0,4.601c0,1.082-0.795,1.96-1.775,1.96l0,0
		c-0.98,0-1.775-0.877-1.775-1.959l0-4.601C46.438,14.83,47.232,13.952,48.213,13.952z	">
<animate  restart="always" begin="0s" dur="1.2195121951219512s" values="1;0" fill="remove" calcMode="linear" additive="replace" accumulate="none" repeatCount="indefinite" keyTimes="0;1" attributeName="opacity">
			</animate>
	</path>
</g>
</svg>
