<svg xmlns="http://www.w3.org/2000/svg" width="26" height="26" viewBox="0 0 26 26">
  <g id="Group_1104" data-name="Group 1104" transform="translate(-103 -451)">
    <circle id="Ellipse_51" data-name="Ellipse 51" cx="5.5" cy="5.5" r="5.5" transform="translate(111 452)" fill="#fad20a"/>
    <path id="Path_943" data-name="Path 943" d="M14793.333,481.75a8.54,8.54,0,0,1,4.231-8.833c5.407-3.13,6.1-1.583,6.1-1.583a9.675,9.675,0,0,0-11.417,1.583,8.619,8.619,0,0,0-3.25,3.833c-1.25,2.5-2.084,3.167-1.167,4.25a3.553,3.553,0,0,0,2.584,1.5,20.366,20.366,0,0,0,2.5-.333Z" transform="translate(-14684 -6)" fill="#3acaf5"/>
    <path id="refer" d="M12.74,13.808c.086,0,.172.005.259.005s.161,0,.241,0a11.184,11.184,0,0,1,5.188,1.4,1.016,1.016,0,0,0,.988-1.775,13.113,13.113,0,0,0-2.282-1,6.906,6.906,0,1,0-8.266,0,13.207,13.207,0,0,0-8.8,9.842A3.085,3.085,0,0,0,3.081,26h7.938a1.016,1.016,0,1,0,0-2.031H3.081a1.032,1.032,0,0,1-.813-.386,1.061,1.061,0,0,1-.215-.89A11.221,11.221,0,0,1,12.74,13.808Zm-4.616-6.9a4.875,4.875,0,1,1,5.117,4.869l-.242,0-.238,0A4.881,4.881,0,0,1,8.124,6.907ZM26,18.883a2.51,2.51,0,0,1-.746,1.8l-1.889,1.879a1.016,1.016,0,1,1-1.432-1.44L23.2,19.857H17.442a2.056,2.056,0,0,0-.025,4.112,1.016,1.016,0,1,1,0,2.031,4.023,4.023,0,0,1-2.882-1.2,4.1,4.1,0,0,1,2.907-6.974H23.1l-1.171-1.158a1.016,1.016,0,0,1,1.428-1.444l1.886,1.865A2.511,2.511,0,0,1,26,18.883Zm0,0" transform="translate(103.001 450.999)" fill="#4d4d4d"/>
  </g>
</svg>
