<svg id="project-management" xmlns="http://www.w3.org/2000/svg" width="55.265" height="55.248" viewBox="0 0 55.265 55.248">
  <path id="Path_302" data-name="Path 302" d="M47.012,23.506A16.506,16.506,0,1,0,21.6,37.405a5.258,5.258,0,0,1,2.487,4.4v3.706a2.751,2.751,0,0,0,2.751,2.751h7.336a2.751,2.751,0,0,0,2.751-2.751v-3.63a5.4,5.4,0,0,1,2.54-4.514,16.492,16.492,0,0,0,7.547-13.865Z" transform="translate(-2.754 -2.187)" fill="#e39d10"/>
  <path id="Path_303" data-name="Path 303" d="M27,57.5a2.751,2.751,0,0,0,2.751,2.751h3.668A2.751,2.751,0,0,0,36.17,57.5V52H27Z" transform="translate(-3.833 -5.922)" fill="#ebebeb"/>
  <path id="Path_304" data-name="Path 304" d="M53.893,13.473l2.883-2.162-3.3-4.4L50.591,9.072a1.834,1.834,0,0,1-2.915-1.727l.509-3.566L42.738,3l-.509,3.566a1.834,1.834,0,0,1-3.283.842L36.785,4.525l-4.4,3.3,2.161,2.883a1.834,1.834,0,0,1-1.727,2.915l-3.566-.509-.779,5.447,3.567.509a1.834,1.834,0,0,1,.841,3.283L30,24.517l3.3,4.4,2.882-2.161A1.834,1.834,0,0,1,39.1,28.484l-.514,3.565,5.447.779.514-3.567a1.834,1.834,0,0,1,3.283-.841L49.991,31.3l4.4-3.3-2.163-2.882A1.834,1.834,0,0,1,53.956,22.2l3.566.51.779-5.447-3.566-.51a1.834,1.834,0,0,1-.842-3.282ZM43.387,24.332a6.419,6.419,0,1,1,6.419-6.419,6.419,6.419,0,0,1-6.419,6.419Z" transform="translate(-3.955 -1.855)" fill="#10bde0"/>
  <path id="Path_305" data-name="Path 305" d="M20.665,38.9a16.551,16.551,0,0,1-2.26-1.75,4.578,4.578,0,1,1-4.424-5.73c.14,0,.275.029.409.041A16.493,16.493,0,0,1,13.074,25H11.907l-.634,3.014a.917.917,0,0,1-1.418.567L7.322,26.834,4.571,29.585l1.742,2.534a.917.917,0,0,1-.567,1.418l-3.01.634v3.668l3.013.634a.917.917,0,0,1,.567,1.418L4.571,42.423l2.751,2.751,2.534-1.742A.917.917,0,0,1,11.274,44l.633,3.01h3.668l.633-3.014a.917.917,0,0,1,1.419-.567l2.534,1.747L23.039,42.3a5.339,5.339,0,0,0-2.373-3.4Z" transform="translate(-1.819 -3.681)" fill="#c9dfff"/>
  <path id="Path_306" data-name="Path 306" d="M56.212,16.274l-3.567-.509a.917.917,0,0,1-.421-1.641l2.883-2.162a.917.917,0,0,0,.183-1.284l-3.3-4.4a.917.917,0,0,0-1.284-.183L47.823,8.255a.917.917,0,0,1-1.462-.863l.51-3.567a.917.917,0,0,0-.779-1.038l-5.443-.778a.917.917,0,0,0-1.038.778L39.1,6.354a.917.917,0,0,1-1.641.421L35.3,3.892a.917.917,0,0,0-1.284-.183L31.259,5.776a17.741,17.741,0,0,0-3.751,0A17.423,17.423,0,0,0,12.146,21.4c-.025.26-.034.517-.047.775h-.275a.917.917,0,0,0-.9.734l-.634,3.013L7.755,24.171a.917.917,0,0,0-1.169.106L3.835,27.028A.917.917,0,0,0,3.729,28.2L5.471,30.73l-3.014.634a.917.917,0,0,0-.721.9v3.668a.917.917,0,0,0,.728.9l3.014.634L3.736,39.994a.917.917,0,0,0,.106,1.168l2.751,2.751a.917.917,0,0,0,1.169.106L10.3,42.273l.634,3.014a.917.917,0,0,0,.9.734h3.668a.917.917,0,0,0,.9-.728l.634-3.014,2.534,1.742a.917.917,0,0,0,1.168-.106l1.424-1.429V45.1a3.656,3.656,0,0,0,1.834,3.158v5.095a3.668,3.668,0,0,0,3.668,3.668h3.668a3.668,3.668,0,0,0,3.668-3.668V48.258A3.656,3.656,0,0,0,36.824,45.1V41.47a4.493,4.493,0,0,1,2.121-3.743A17.593,17.593,0,0,0,41.1,36.076L39.881,34.71a15.608,15.608,0,0,1-1.932,1.477A6.316,6.316,0,0,0,34.99,41.47V45.1a1.834,1.834,0,0,1-1.834,1.834H25.82A1.834,1.834,0,0,1,23.986,45.1V41.394a6.17,6.17,0,0,0-2.909-5.176,15.542,15.542,0,0,1,8.214-28.7,1,1,0,0,0-.036.1.917.917,0,0,0,.175.68l2.161,2.882a.9.9,0,0,1,.055,1.018.912.912,0,0,1-.917.441l-3.567-.51a.917.917,0,0,0-1.038.779l-.779,5.446a.917.917,0,0,0,.779,1.038l3.567.51a.917.917,0,0,1,.421,1.641L27.231,23.7a.917.917,0,0,0-.183,1.284l3.3,4.4a.917.917,0,0,0,1.284.183l2.883-2.161a.917.917,0,0,1,1.457.863l-.509,3.567a.917.917,0,0,0,.778,1.038l5.447.779a1.019,1.019,0,0,0,.129.008.917.917,0,0,0,.909-.787l.509-3.567a.917.917,0,0,1,1.641-.421l2.162,2.882a.917.917,0,0,0,1.284.183l4.4-3.3a.917.917,0,0,0,.183-1.284l-2.161-2.882a.9.9,0,0,1-.055-1.018.89.89,0,0,1,.917-.44l3.567.509a.917.917,0,0,0,1.038-.778l.778-5.447a.917.917,0,0,0-.778-1.038ZM13.692,30.427a17.365,17.365,0,0,0,3.4,4.9,3.663,3.663,0,1,1-3.439-4.9Zm17.63,24.759H27.654a1.834,1.834,0,0,1-1.834-1.834v-.917h7.336v.917A1.834,1.834,0,0,1,31.322,55.187Zm1.834-6.419V50.6H25.82V48.768ZM21.935,40.11l-1.967,1.963-1.9-1.313a1.834,1.834,0,0,0-2.835,1.133l-.481,2.29h-2.18L12.087,41.9a1.834,1.834,0,0,0-2.835-1.133L7.346,42.073,5.675,40.406l1.312-1.9a1.834,1.834,0,0,0-1.132-2.836L3.57,35.185V33.006l2.286-.481a1.834,1.834,0,0,0,1.133-2.831L5.675,27.784l1.671-1.667,1.906,1.313A1.834,1.834,0,0,0,12.087,26.3l.16-.763a17.46,17.46,0,0,0,.727,3.11,5.5,5.5,0,1,0,5.545,7.978,17.336,17.336,0,0,0,1.567,1.142,4.476,4.476,0,0,1,1.848,2.347ZM54.523,21.591l-2.659-.38a2.751,2.751,0,0,0-2.59,4.374l1.611,2.149-2.934,2.2-1.612-2.148a2.751,2.751,0,0,0-4.924,1.261l-.371,2.663-3.63-.519.38-2.659a2.751,2.751,0,0,0-4.374-2.591l-2.149,1.611-2.2-2.934,2.148-1.612a2.751,2.751,0,0,0-1.261-4.924L27.3,17.7l.519-3.63,2.659.38a2.751,2.751,0,0,0,2.591-4.374l-1.617-2.15,2.934-2.2,1.612,2.149a2.751,2.751,0,0,0,4.924-1.261l.38-2.659,3.63.518-.38,2.659a2.751,2.751,0,0,0,4.374,2.59l2.149-1.611,2.2,2.934-2.149,1.612a2.751,2.751,0,0,0,1.261,4.924l2.659.38Z" transform="translate(-1.736 -1.772)"/>
  <path id="Path_307" data-name="Path 307" d="M44.072,11.264A7.336,7.336,0,1,0,51.408,18.6a7.336,7.336,0,0,0-7.336-7.336Zm0,12.838a5.5,5.5,0,1,1,5.5-5.5,5.5,5.5,0,0,1-5.5,5.5Z" transform="translate(-4.641 -2.541)"/>
  <path id="Path_308" data-name="Path 308" d="M31,46h1.834v2.751H31Z" transform="translate(-4.165 -5.424)"/>
  <path id="Path_309" data-name="Path 309" d="M26.827,34.268a11,11,0,0,1-1.858-19.563l-.98-1.552a12.838,12.838,0,0,0,2.172,22.821,5.854,5.854,0,0,1,3.76,5.465h1.834A7.673,7.673,0,0,0,26.827,34.268Z" transform="translate(-3.085 -2.698)"/>
  <path id="Path_310" data-name="Path 310" d="M51,39h6.419v1.834H51Z" transform="translate(-5.824 -4.843)"/>
  <path id="Path_311" data-name="Path 311" d="M0,0H1.834V7.162H0Z" transform="matrix(0.64, -0.768, 0.768, 0.64, 43.672, 40.364)"/>
  <path id="Path_312" data-name="Path 312" d="M45,47h1.834v6.419H45Z" transform="translate(-5.326 -5.507)"/>
  <path id="Path_313" data-name="Path 313" d="M0,0H7.562V1.833H0Z" transform="matrix(0.97, -0.243, 0.243, 0.97, 0.937, 15.844)"/>
  <path id="Path_314" data-name="Path 314" d="M0,0H1.833V7.888H0Z" transform="matrix(0.581, -0.814, 0.814, 0.581, 2.46, 6.476)"/>
  <path id="Path_315" data-name="Path 315" d="M0,0H1.834V7.572H0Z" transform="matrix(0.969, -0.248, 0.248, 0.969, 10.317, 0.454)"/>
</svg>
