<svg id="team" xmlns="http://www.w3.org/2000/svg" width="55" height="55" viewBox="0 0 55 55">
  <path id="Path_316" data-name="Path 316" d="M151.144,14.818l-3.764-3.764-2.628,1.711a14.067,14.067,0,0,0-4.1-1.7L140,8h-5.323l-.648,3.065a14.067,14.067,0,0,0-4.1,1.7l-2.628-1.711-3.764,3.764,1.363,3.25.13,6.786H126.7a10.645,10.645,0,1,1,21.29,0h1.774l-.007-6.786Zm0,0" transform="translate(-109.843 -7.113)" fill="#fcd770"/>
  <path id="Path_317" data-name="Path 317" d="M128.184,80.543l.849,2.025.018,6.786h1.774a10.581,10.581,0,0,1,1.954-6.133A7.06,7.06,0,0,0,128.184,80.543Zm0,0" transform="translate(-113.97 -71.612)" fill="#ffc729"/>
  <path id="Path_318" data-name="Path 318" d="M330.646,80.6a7.094,7.094,0,0,0-4.623,2.617,10.593,10.593,0,0,1,1.993,6.188h1.774l-.007-6.786Zm0,0" transform="translate(-289.871 -71.664)" fill="#ffc729"/>
  <path id="Path_319" data-name="Path 319" d="M307.516,118.179v-4.326a3.549,3.549,0,0,0-2.688-3.443l-4.409-1.1,0-1.6a5.316,5.316,0,0,0,2.663-4.606v-1.551A5.471,5.471,0,0,0,297.922,96a5.323,5.323,0,0,0-5.487,5.32V103.1a5.315,5.315,0,0,0,2.661,4.6v1.6l-4.409,1.1A3.548,3.548,0,0,0,288,113.852v4.326Zm0,0" transform="translate(-256.064 -85.356)" fill="#ccd1d9"/>
  <path id="Path_320" data-name="Path 320" d="M295.1,224.372a5.3,5.3,0,0,0-1.909-4.067l-2.5.625A3.548,3.548,0,0,0,288,224.372V228.7h7.1Zm0,0" transform="translate(-256.064 -195.875)" fill="#aab2bd"/>
  <path id="Path_321" data-name="Path 321" d="M51.516,118.179v-4.326a3.549,3.549,0,0,0-2.688-3.443l-4.409-1.1,0-1.6a5.316,5.316,0,0,0,2.663-4.606v-1.551A5.471,5.471,0,0,0,41.922,96a5.323,5.323,0,0,0-5.487,5.32V103.1a5.315,5.315,0,0,0,2.661,4.6v1.6l-4.409,1.1A3.548,3.548,0,0,0,32,113.852v4.326Zm0,0" transform="translate(-28.452 -85.356)" fill="#ccd1d9"/>
  <path id="Path_322" data-name="Path 322" d="M151.1,224.365a3.549,3.549,0,0,0-2.688-3.443l-2.5-.625A5.305,5.305,0,0,0,144,224.365v4.326h7.1Zm0,0" transform="translate(-128.032 -195.868)" fill="#aab2bd"/>
  <path id="Path_323" data-name="Path 323" d="M179.516,118.179v-4.326a3.549,3.549,0,0,0-2.688-3.443l-4.409-1.1,0-1.6a5.316,5.316,0,0,0,2.663-4.606v-1.551A5.471,5.471,0,0,0,169.922,96a5.323,5.323,0,0,0-5.487,5.32V103.1a5.315,5.315,0,0,0,2.661,4.6v1.6l-4.409,1.1A3.548,3.548,0,0,0,160,113.852v4.326Zm0,0" transform="translate(-142.258 -85.356)" fill="#ccd1d9"/>
  <g id="Group_546" data-name="Group 546" transform="translate(3.548 24.2)">
    <path id="Path_324" data-name="Path 324" d="M307.517,227.421a3.549,3.549,0,0,0-2.688-3.443l-.978-.244L292,229.973h-.2l-3.8-1.084v2.858h19.516Zm0,0" transform="translate(-259.613 -223.125)" fill="#aab2bd"/>
    <path id="Path_325" data-name="Path 325" d="M179.516,250.851l-1.325.7h-.2l-5.336-1.524a6.448,6.448,0,0,0-1.429-.226l-3.875-1.239a11.8,11.8,0,0,0-6.163-.276l-1.15.266A3.382,3.382,0,0,0,160,249v4.326h19.516Zm0,0" transform="translate(-145.806 -244.7)" fill="#aab2bd"/>
    <path id="Path_326" data-name="Path 326" d="M47.381,221.823l-3.849.892v-1.308L38.1,218.239l-3.414.854A3.549,3.549,0,0,0,32,222.535v4.326H51.516v-4.326a3.53,3.53,0,0,0-.129-.9,11.421,11.421,0,0,0-4.006.188Zm0,0" transform="translate(-32 -218.239)" fill="#aab2bd"/>
  </g>
  <path id="Path_327" data-name="Path 327" d="M101.552,277.646l-7.5-6.746-1.426-5.125-4.061-1.3a10.012,10.012,0,0,0-5.222-.237l-10.459,2.423-.887,7.1,6.254,3.93,11.377,9.487L91,288.386a1.814,1.814,0,0,0,1.2.454h.163a1.813,1.813,0,0,0,1.16-3.2,2.344,2.344,0,0,0,1.5.544,1.813,1.813,0,0,0,1.16-3.2l-3.4-2.833,3.547,2.956a1.815,1.815,0,0,0,1.161.421h.192a1.813,1.813,0,0,0,1.16-3.2l.14.117a1.84,1.84,0,0,0,1.178.427h.153a1.841,1.841,0,0,0,1.232-3.21Zm0,0" transform="translate(-64.016 -234.726)" fill="#ecc19c"/>
  <path id="Path_328" data-name="Path 328" d="M201.133,234.968l-7.5-6.746a2.686,2.686,0,0,0-3.178-.307l-3.3,1.982A2.084,2.084,0,0,1,184,228.11v-.176a2.084,2.084,0,0,1,1.152-1.864L190.1,223.6a4.708,4.708,0,0,1,3.4-.317l5.575,1.592h.887L216.823,216h.887v11.532l-15.968,7.984Zm0,0" transform="translate(-163.597 -192.048)" fill="#f5e0cd"/>
  <path id="Path_329" data-name="Path 329" d="M238.112,400l-1.233,1.283,4.916,4.1a3.591,3.591,0,0,0,1.441.714,1.79,1.79,0,0,0,.2-.809,1.814,1.814,0,0,0-.652-1.393Zm0,0" transform="translate(-210.612 -355.645)" fill="#dfb28b"/>
  <path id="Path_330" data-name="Path 330" d="M200,435.441a1.882,1.882,0,0,0,3.212,1.331l1.558-1.558a1.882,1.882,0,1,0-2.66-2.662l-1.559,1.559A1.882,1.882,0,0,0,200,435.441Zm0,0" transform="translate(-177.822 -384.096)" fill="#f5e0cd"/>
  <path id="Path_331" data-name="Path 331" d="M176,411.441a1.882,1.882,0,0,0,3.212,1.331l1.559-1.558a1.882,1.882,0,1,0-2.66-2.662l-1.559,1.558A1.882,1.882,0,0,0,176,411.441Zm0,0" transform="translate(-156.484 -362.758)" fill="#f5e0cd"/>
  <path id="Path_332" data-name="Path 332" d="M152,387.441a1.882,1.882,0,0,0,3.212,1.331l1.558-1.558a1.882,1.882,0,1,0-2.66-2.662l-1.558,1.559a1.881,1.881,0,0,0-.552,1.332Zm0,0" transform="translate(-135.145 -341.419)" fill="#f5e0cd"/>
  <path id="Path_333" data-name="Path 333" d="M155.365,385.805a3.663,3.663,0,0,0,.917-1.6,1.86,1.86,0,0,0-.84-.207,1.881,1.881,0,0,0-1.331.551l-1.559,1.559a1.884,1.884,0,0,0-.552,1.332,1.86,1.86,0,0,0,.207.84,3.658,3.658,0,0,0,1.6-.917Zm0,0" transform="translate(-135.145 -341.419)" fill="#f0d0b4"/>
  <path id="Path_334" data-name="Path 334" d="M179.365,409.805a3.664,3.664,0,0,0,.917-1.6,1.86,1.86,0,0,0-.84-.207,1.881,1.881,0,0,0-1.331.551l-1.559,1.559a1.884,1.884,0,0,0-.552,1.332,1.861,1.861,0,0,0,.207.84,3.658,3.658,0,0,0,1.6-.917Zm0,0" transform="translate(-156.484 -362.757)" fill="#f0d0b4"/>
  <path id="Path_335" data-name="Path 335" d="M203.365,433.805a3.663,3.663,0,0,0,.917-1.6,1.861,1.861,0,0,0-.84-.207,1.881,1.881,0,0,0-1.331.551l-1.559,1.559a1.884,1.884,0,0,0-.552,1.332,1.861,1.861,0,0,0,.207.84,3.658,3.658,0,0,0,1.6-.917Zm0,0" transform="translate(-177.823 -384.096)" fill="#f0d0b4"/>
  <path id="Path_336" data-name="Path 336" d="M128,363.441a1.882,1.882,0,0,0,3.212,1.331l1.559-1.558a1.882,1.882,0,1,0-2.66-2.662l-1.558,1.559A1.881,1.881,0,0,0,128,363.441Zm0,0" transform="translate(-113.806 -320.08)" fill="#f5e0cd"/>
  <path id="Path_337" data-name="Path 337" d="M78.8,275.648l-5.912,1.37-.887,7.1,3.713,2.333Zm0,0" transform="translate(-64.016 -245.082)" fill="#dfb28b"/>
  <path id="Path_338" data-name="Path 338" d="M20.419,207.1l-3.548,12.419h-.887L8,216.855V200H9.774l10.645,6.21Zm0,0" transform="translate(-7.113 -177.822)" fill="#e6e9ed"/>
  <path id="Path_339" data-name="Path 339" d="M16.93,204.174,9.774,200H8v16.855l5.323,1.774,3.548-14.194Zm0,0" transform="translate(-7.113 -177.823)" fill="#b4dd7f"/>
  <path id="Path_340" data-name="Path 340" d="M262.112,376l-1.233,1.283,4.916,4.1a3.59,3.59,0,0,0,1.441.714,1.79,1.79,0,0,0,.2-.809,1.814,1.814,0,0,0-.652-1.393Zm0,0" transform="translate(-231.951 -334.306)" fill="#dfb28b"/>
  <path id="Path_341" data-name="Path 341" d="M55,23.065H53.007l-2.971,1.563a4.41,4.41,0,0,0-1.057-.435l-3.737-.935v-.425A6.23,6.23,0,0,0,47.9,17.742V16.191a6.374,6.374,0,0,0-6.019-6.431c-.168,0-.334,0-.5.01L42.352,7.5l-4.7-4.7-2.769,1.8a15.005,15.005,0,0,0-3.321-1.377L30.881,0H24.12l-.684,3.232a14.988,14.988,0,0,0-3.321,1.377l-2.769-1.8L12.653,7.5l.953,2.27c-.036,0-.071-.008-.107-.009a6.212,6.212,0,0,0-6.4,6.206v1.774a6.227,6.227,0,0,0,2.661,5.09v.426l-2.438.609L2.9,21.29H0V39.672l8.727,2.909h1.7l.212-.743,2.675,1.606a2.762,2.762,0,0,0,2.663,2.676,2.762,2.762,0,0,0,2.661,2.661A2.762,2.762,0,0,0,21.3,51.442a2.759,2.759,0,0,0,4.314,2.19l.786.694A2.7,2.7,0,0,0,28.185,55h.164a2.7,2.7,0,0,0,2.7-2.665,2.7,2.7,0,0,0,2.661-2.661,2.7,2.7,0,0,0,2.661-2.664,2.728,2.728,0,0,0,2.665-2.722,2.6,2.6,0,0,0-.013-.266L55,36.033Zm-8.871-6.873v1.551a4.453,4.453,0,0,1-2.22,3.839l-.444.256,0,2.807L47.9,25.752l-9.756,5.135V28.5a4.414,4.414,0,0,0-1.27-3.091l3.045-.761V21.835l-.443-.256a4.448,4.448,0,0,1-2.219-3.837V15.968a4.435,4.435,0,0,1,4.573-4.433,4.587,4.587,0,0,1,4.3,4.656Zm-17.292,14-4.016-1.283a10.955,10.955,0,0,0-5.684-.259l-.509.113V28.5a2.659,2.659,0,0,1,2.015-2.582l5.081-1.27V21.835l-.443-.256a4.448,4.448,0,0,1-2.219-3.837V15.968a4.435,4.435,0,0,1,4.573-4.433,4.587,4.587,0,0,1,4.3,4.656v1.551a4.453,4.453,0,0,1-2.22,3.839l-.444.256,0,2.807,5.08,1.27A2.659,2.659,0,0,1,36.371,28.5V31.82l-.219.115h-.544l-5.454-1.558a5.592,5.592,0,0,0-1.317-.188ZM18.828,13.277a9.751,9.751,0,0,1,17.308-.071,6.17,6.17,0,0,0-.652,2.762v1.774a6.227,6.227,0,0,0,2.661,5.09v.426l-3.548.888-3.549-.888v-.425a6.23,6.23,0,0,0,2.662-5.091V16.191a6.374,6.374,0,0,0-6.019-6.431,6.211,6.211,0,0,0-6.4,6.207v1.774a6.227,6.227,0,0,0,2.661,5.09v.426l-3.548.888-3.549-.888v-.425a6.23,6.23,0,0,0,2.662-5.091V16.191a6.538,6.538,0,0,0-.688-2.914Zm-4.08-5.365,2.834-2.834L20.077,6.7l.477-.293A13.238,13.238,0,0,1,24.4,4.815l.546-.131.617-2.91h3.885l.616,2.91.546.13a13.251,13.251,0,0,1,3.841,1.594l.477.293,2.495-1.623,2.831,2.832-1.006,2.356a6.2,6.2,0,0,0-1.873,1.245c-.036.036-.068.074-.1.11a11.521,11.521,0,0,0-19.566.053,6.257,6.257,0,0,0-1.957-1.387ZM11.532,24.644V21.835l-.443-.256a4.448,4.448,0,0,1-2.219-3.837V15.968a4.435,4.435,0,0,1,4.573-4.433,4.587,4.587,0,0,1,4.3,4.656v1.551a4.453,4.453,0,0,1-2.22,3.839l-.444.256,0,2.807,3.044.761a4.414,4.414,0,0,0-1.27,3.091v.657l-2.767.615.072-.251.034-1.639L9.515,25.149Zm-9.758-1.58h.647L8.8,26.786,5.581,39.662l-3.807-1.27ZM9.015,40.807l-1.746-.582L10.4,27.717l2.023,1.18v.253L9.089,40.807Zm6.066,2.554a1,1,0,0,1,.291-.7L16.931,41.1A.995.995,0,0,1,18.338,42.5l-1.559,1.559a.995.995,0,0,1-1.7-.7Zm2.661,2.661a1,1,0,0,1,.291-.7l1.559-1.559A.995.995,0,0,1,21,45.166L19.44,46.725a.995.995,0,0,1-1.7-.7ZM20.4,48.683a1,1,0,0,1,.291-.7l1.559-1.559a.995.995,0,0,1,1.407,1.407L22.1,49.387a.995.995,0,0,1-1.7-.7Zm3.656,3.656a.995.995,0,0,1-.7-1.7l1.559-1.559a.995.995,0,0,1,1.407,1.407l-1.559,1.559A1,1,0,0,1,24.059,52.339Zm4.29.887h-.164a.919.919,0,0,1-.611-.232l-.664-.585.666-.666a2.758,2.758,0,0,0,.559-.824l.807.671a.925.925,0,0,1-.593,1.636ZM36.3,45.242h-.153a.952.952,0,0,1-.61-.222L30.73,41.012l-1.137,1.364,4.672,3.892a.926.926,0,0,1-.593,1.636h-.194a.925.925,0,0,1-.592-.215l-4.818-4.015-1.137,1.364L31.6,48.93a.924.924,0,0,1-.593,1.635,1.465,1.465,0,0,1-.933-.338l-1.98-1.65a2.76,2.76,0,0,0-2.382-1.55,2.762,2.762,0,0,0-2.661-2.661A2.762,2.762,0,0,0,20.392,41.7a2.762,2.762,0,0,0-4.716-1.86L14.117,41.4a2.733,2.733,0,0,0-.249.3l-2.725-1.635,2.389-8.361,5.989-1.332a9.139,9.139,0,0,1,4.76.215l1.307.418-4.43,2.215a2.957,2.957,0,0,0-1.641,2.658v.175a2.971,2.971,0,0,0,4.5,2.548l3.3-1.981a1.831,1.831,0,0,1,2.127.2l7.5,6.746a.955.955,0,0,1-.638,1.664ZM53.226,34.936,38.281,42.409c-.049-.052-.1-.1-.152-.148l-7.494-6.746a3.57,3.57,0,0,0-4.228-.409l-3.3,1.982a1.2,1.2,0,0,1-1.811-1.027v-.175a1.19,1.19,0,0,1,.662-1.071L26.9,32.34a3.856,3.856,0,0,1,2.765-.256l5.575,1.592,1.35.034,16.636-8.756Zm0,0" transform="translate(0 0)"/>
</svg>
