<svg xmlns="http://www.w3.org/2000/svg" width="16.816" height="16.042" viewBox="0 0 16.816 16.042">
  <path id="star-icon-sm" d="M9.325,1.045l1.771,5.5h5.782a.434.434,0,0,1,.439.432.45.45,0,0,1-.179.353h0l-4.683,3.385,1.8,5.5a.423.423,0,0,1-.282.543.443.443,0,0,1-.423-.08L8.9,13.291l-4.664,3.4a.432.432,0,0,1-.6-.093.423.423,0,0,1-.062-.389h0l1.8-5.5L.686,7.322a.423.423,0,0,1-.1-.6.423.423,0,0,1,.382-.179H6.72L8.5,1.038A.437.437,0,0,1,9.04.756a.45.45,0,0,1,.282.282Zm1.042,6.064L8.912,2.587,7.449,7.112h0a.432.432,0,0,1-.413.3H2.285L6.141,10.19h0a.433.433,0,0,1,.154.488L4.819,15.191,8.646,12.4a.444.444,0,0,1,.518,0L13,15.2l-1.469-4.5a.436.436,0,0,1,.148-.506l3.857-2.784H10.8a.423.423,0,0,1-.427-.3Z" transform="translate(-0.501 -0.736)" fill="#5f4ba0"/>
</svg>
