<svg xmlns="http://www.w3.org/2000/svg" width="11.922" height="11.366" viewBox="0 0 11.922 11.366">
  <path id="star-icon-sm" d="M6.758.955l1.256,3.9,4.1,0a.308.308,0,0,1,.311.306.319.319,0,0,1-.127.25h0l-3.321,2.4,1.273,3.9a.3.3,0,0,1-.2.385.314.314,0,0,1-.3-.057l-3.291-2.4L3.152,12.048a.306.306,0,0,1-.429-.066.3.3,0,0,1-.044-.276h0l1.278-3.9L.632,5.406a.3.3,0,0,1-.07-.429A.3.3,0,0,1,.833,4.85l4.078,0,1.26-3.9a.31.31,0,0,1,.385-.2.319.319,0,0,1,.2.2Zm.739,4.3L6.465,2.049,5.428,5.257h0a.306.306,0,0,1-.293.214l-3.369,0L4.5,7.44h0a.307.307,0,0,1,.109.346l-1.046,3.2L6.277,9.007a.315.315,0,0,1,.367,0l2.722,1.987L8.324,7.8a.309.309,0,0,1,.105-.359l2.735-1.974-3.361,0A.3.3,0,0,1,7.5,5.257Z" transform="translate(-0.503 -0.741)" fill="#5f4ba0"/>
</svg>
