<svg xmlns="http://www.w3.org/2000/svg" width="48.125" height="70" viewBox="0 0 48.125 70">
  <g id="start-up" transform="translate(-80)">
    <path id="Path_4" data-name="Path 4" d="M221.469,82a5.469,5.469,0,1,0,5.469,5.469A5.475,5.475,0,0,0,221.469,82Zm0,8.2a2.734,2.734,0,1,1,2.734-2.734A2.737,2.737,0,0,1,221.469,90.2Z" transform="translate(-117.406 -70.789)" fill="#e2f8ff"/>
    <path id="Path_5" data-name="Path 5" d="M221.469,182a5.469,5.469,0,1,0,5.469,5.469A5.475,5.475,0,0,0,221.469,182Zm0,8.2a2.734,2.734,0,1,1,2.734-2.734A2.737,2.737,0,0,1,221.469,190.2Z" transform="translate(-117.406 -157.117)" fill="#e2f8ff"/>
    <path id="Path_6" data-name="Path 6" d="M221.469,282a5.469,5.469,0,1,0,5.469,5.469A5.475,5.475,0,0,0,221.469,282Zm0,8.2a2.734,2.734,0,1,1,2.734-2.734A2.737,2.737,0,0,1,221.469,290.2Z" transform="translate(-117.406 -243.445)" fill="#e2f8ff"/>
    <path id="Path_7" data-name="Path 7" d="M121.289,38.555h-4.1V23.539a25.863,25.863,0,0,0-7.2-17.946L105.051.423a1.367,1.367,0,0,0-1.977,0L98.133,5.593a25.863,25.863,0,0,0-7.2,17.946V38.555h-4.1A6.844,6.844,0,0,0,80,45.391v4.727a14.953,14.953,0,0,0,7.068,12.753l4.512,2.82a1.412,1.412,0,0,0,1.387.036,1.367,1.367,0,0,0,.7-1.2v-9.57h20.781v9.57a1.367,1.367,0,0,0,2.092,1.159l4.512-2.82a14.953,14.953,0,0,0,7.068-12.753V45.391A6.843,6.843,0,0,0,121.289,38.555ZM90.938,62.064l-2.42-1.513a12.234,12.234,0,0,1-5.783-10.434V45.391a4.106,4.106,0,0,1,4.1-4.1h4.1Zm2.734-9.838V23.539A23.141,23.141,0,0,1,100.11,7.482l3.952-4.136,3.952,4.136a23.141,23.141,0,0,1,6.438,16.057V52.227Zm31.719-2.109a12.234,12.234,0,0,1-5.783,10.434l-2.42,1.513V41.289h4.1a4.106,4.106,0,0,1,4.1,4.1Z" fill="#e2f8ff"/>
    <path id="Path_8" data-name="Path 8" d="M201.367,422A1.367,1.367,0,0,0,200,423.367V430.2a1.367,1.367,0,0,0,2.734,0v-6.836A1.367,1.367,0,0,0,201.367,422Z" transform="translate(-103.594 -364.305)" fill="#e2f8ff"/>
    <path id="Path_9" data-name="Path 9" d="M241.367,492a1.367,1.367,0,1,0,1.367,1.367A1.368,1.368,0,0,0,241.367,492Z" transform="translate(-138.125 -424.734)" fill="#e2f8ff"/>
    <path id="Path_10" data-name="Path 10" d="M241.367,422A1.369,1.369,0,0,0,240,423.367v4.1a1.367,1.367,0,0,0,2.734,0v-4.1A1.369,1.369,0,0,0,241.367,422Z" transform="translate(-138.125 -364.305)" fill="#e2f8ff"/>
    <path id="Path_11" data-name="Path 11" d="M281.367,422A1.367,1.367,0,0,0,280,423.367V430.2a1.367,1.367,0,0,0,2.734,0v-6.836A1.367,1.367,0,0,0,281.367,422Z" transform="translate(-172.656 -364.305)" fill="#e2f8ff"/>
  </g>
</svg>
