<svg xmlns="http://www.w3.org/2000/svg" width="332.61" height="492" viewBox="0 0 332.61 492">
  <g id="Group_864" data-name="Group 864" transform="translate(-1015.39 -1130)">
    <path id="Path_136" data-name="Path 136" d="M1164.644,1561s213-56,237-193-59-206-59-206" transform="translate(-149 13)" fill="none" stroke="#84e6b5" stroke-width="2" stroke-dasharray="6 7"/>
    <path id="paper-plane" d="M.223,7.9a.993.993,0,0,1,.893-.353.957.957,0,0,1,.224.039L59.325,23.354a1,1,0,0,1,.05,1.915L38.158,32.221l1.9,15.182a1,1,0,0,1-1.6.918l-7.765-5.946L23.884,52.1a1,1,0,0,1-.819.427l-.068,0a1,1,0,0,1-.821-.542L.113,8.983A.992.992,0,0,1,.223,7.9Zm6.945,3.344L37.2,30.429l18.377-6.021Zm30.607,34.04L36.393,34.228l-4.555,6.507Zm-14.58,4.313,12.45-17.786L3.545,11.3Z" transform="translate(1152 1122.463)" fill="#90efc0"/>
    <g id="Group_59" data-name="Group 59" transform="translate(1441 1342) rotate(90)" opacity="0.3">
      <g id="Group_48" data-name="Group 48">
        <circle id="Ellipse_10" data-name="Ellipse 10" cx="3.5" cy="3.5" r="3.5" transform="translate(111 93)" fill="#90f8c4"/>
        <circle id="Ellipse_10-2" data-name="Ellipse 10" cx="3.5" cy="3.5" r="3.5" transform="translate(111 109)" fill="#90f8c4"/>
        <circle id="Ellipse_10-3" data-name="Ellipse 10" cx="3.5" cy="3.5" r="3.5" transform="translate(111 125)" fill="#90f8c4"/>
        <circle id="Ellipse_10-4" data-name="Ellipse 10" cx="3.5" cy="3.5" r="3.5" transform="translate(111 141)" fill="#90f8c4"/>
        <circle id="Ellipse_10-5" data-name="Ellipse 10" cx="3.5" cy="3.5" r="3.5" transform="translate(111 157)" fill="#90f8c4"/>
      </g>
      <g id="Group_49" data-name="Group 49" transform="translate(18)">
        <circle id="Ellipse_10-6" data-name="Ellipse 10" cx="3.5" cy="3.5" r="3.5" transform="translate(111 93)" fill="#90f8c4"/>
        <circle id="Ellipse_10-7" data-name="Ellipse 10" cx="3.5" cy="3.5" r="3.5" transform="translate(111 109)" fill="#90f8c4"/>
        <circle id="Ellipse_10-8" data-name="Ellipse 10" cx="3.5" cy="3.5" r="3.5" transform="translate(111 125)" fill="#90f8c4"/>
        <circle id="Ellipse_10-9" data-name="Ellipse 10" cx="3.5" cy="3.5" r="3.5" transform="translate(111 141)" fill="#90f8c4"/>
        <circle id="Ellipse_10-10" data-name="Ellipse 10" cx="3.5" cy="3.5" r="3.5" transform="translate(111 157)" fill="#90f8c4"/>
      </g>
      <g id="Group_50" data-name="Group 50" transform="translate(36)">
        <circle id="Ellipse_10-11" data-name="Ellipse 10" cx="3.5" cy="3.5" r="3.5" transform="translate(111 93)" fill="#90f8c4"/>
        <circle id="Ellipse_10-12" data-name="Ellipse 10" cx="3.5" cy="3.5" r="3.5" transform="translate(111 109)" fill="#90f8c4"/>
        <circle id="Ellipse_10-13" data-name="Ellipse 10" cx="3.5" cy="3.5" r="3.5" transform="translate(111 125)" fill="#90f8c4"/>
        <circle id="Ellipse_10-14" data-name="Ellipse 10" cx="3.5" cy="3.5" r="3.5" transform="translate(111 141)" fill="#90f8c4"/>
        <circle id="Ellipse_10-15" data-name="Ellipse 10" cx="3.5" cy="3.5" r="3.5" transform="translate(111 157)" fill="#90f8c4"/>
      </g>
      <g id="Group_51" data-name="Group 51" transform="translate(54)">
        <circle id="Ellipse_10-16" data-name="Ellipse 10" cx="3.5" cy="3.5" r="3.5" transform="translate(111 93)" fill="#90f8c4"/>
        <circle id="Ellipse_10-17" data-name="Ellipse 10" cx="3.5" cy="3.5" r="3.5" transform="translate(111 109)" fill="#90f8c4"/>
        <circle id="Ellipse_10-18" data-name="Ellipse 10" cx="3.5" cy="3.5" r="3.5" transform="translate(111 125)" fill="#90f8c4"/>
        <circle id="Ellipse_10-19" data-name="Ellipse 10" cx="3.5" cy="3.5" r="3.5" transform="translate(111 141)" fill="#90f8c4"/>
        <circle id="Ellipse_10-20" data-name="Ellipse 10" cx="3.5" cy="3.5" r="3.5" transform="translate(111 157)" fill="#90f8c4"/>
      </g>
      <g id="Group_52" data-name="Group 52" transform="translate(72)">
        <circle id="Ellipse_10-21" data-name="Ellipse 10" cx="3.5" cy="3.5" r="3.5" transform="translate(111 93)" fill="#90f8c4"/>
        <circle id="Ellipse_10-22" data-name="Ellipse 10" cx="3.5" cy="3.5" r="3.5" transform="translate(111 109)" fill="#90f8c4"/>
        <circle id="Ellipse_10-23" data-name="Ellipse 10" cx="3.5" cy="3.5" r="3.5" transform="translate(111 125)" fill="#90f8c4"/>
        <circle id="Ellipse_10-24" data-name="Ellipse 10" cx="3.5" cy="3.5" r="3.5" transform="translate(111 141)" fill="#90f8c4"/>
        <circle id="Ellipse_10-25" data-name="Ellipse 10" cx="3.5" cy="3.5" r="3.5" transform="translate(111 157)" fill="#90f8c4"/>
      </g>
      <g id="Group_53" data-name="Group 53" transform="translate(90)">
        <circle id="Ellipse_10-26" data-name="Ellipse 10" cx="3.5" cy="3.5" r="3.5" transform="translate(111 93)" fill="#90f8c4"/>
        <circle id="Ellipse_10-27" data-name="Ellipse 10" cx="3.5" cy="3.5" r="3.5" transform="translate(111 109)" fill="#90f8c4"/>
        <circle id="Ellipse_10-28" data-name="Ellipse 10" cx="3.5" cy="3.5" r="3.5" transform="translate(111 125)" fill="#90f8c4"/>
        <circle id="Ellipse_10-29" data-name="Ellipse 10" cx="3.5" cy="3.5" r="3.5" transform="translate(111 141)" fill="#90f8c4"/>
        <circle id="Ellipse_10-30" data-name="Ellipse 10" cx="3.5" cy="3.5" r="3.5" transform="translate(111 157)" fill="#90f8c4"/>
      </g>
      <g id="Group_54" data-name="Group 54" transform="translate(108)">
        <circle id="Ellipse_10-31" data-name="Ellipse 10" cx="3.5" cy="3.5" r="3.5" transform="translate(111 93)" fill="#90f8c4"/>
        <circle id="Ellipse_10-32" data-name="Ellipse 10" cx="3.5" cy="3.5" r="3.5" transform="translate(111 109)" fill="#90f8c4"/>
        <circle id="Ellipse_10-33" data-name="Ellipse 10" cx="3.5" cy="3.5" r="3.5" transform="translate(111 125)" fill="#90f8c4"/>
        <circle id="Ellipse_10-34" data-name="Ellipse 10" cx="3.5" cy="3.5" r="3.5" transform="translate(111 141)" fill="#90f8c4"/>
        <circle id="Ellipse_10-35" data-name="Ellipse 10" cx="3.5" cy="3.5" r="3.5" transform="translate(111 157)" fill="#90f8c4"/>
      </g>
      <g id="Group_55" data-name="Group 55" transform="translate(126)">
        <circle id="Ellipse_10-36" data-name="Ellipse 10" cx="3.5" cy="3.5" r="3.5" transform="translate(111 93)" fill="#b8b8b8"/>
        <circle id="Ellipse_10-37" data-name="Ellipse 10" cx="3.5" cy="3.5" r="3.5" transform="translate(111 109)" fill="#b8b8b8"/>
        <circle id="Ellipse_10-38" data-name="Ellipse 10" cx="3.5" cy="3.5" r="3.5" transform="translate(111 125)" fill="#b8b8b8"/>
        <circle id="Ellipse_10-39" data-name="Ellipse 10" cx="3.5" cy="3.5" r="3.5" transform="translate(111 141)" fill="#b8b8b8"/>
        <circle id="Ellipse_10-40" data-name="Ellipse 10" cx="3.5" cy="3.5" r="3.5" transform="translate(111 157)" fill="#b8b8b8"/>
      </g>
      <g id="Group_56" data-name="Group 56" transform="translate(144)">
        <circle id="Ellipse_10-41" data-name="Ellipse 10" cx="3.5" cy="3.5" r="3.5" transform="translate(111 93)" fill="#b8b8b8"/>
        <circle id="Ellipse_10-42" data-name="Ellipse 10" cx="3.5" cy="3.5" r="3.5" transform="translate(111 109)" fill="#b8b8b8"/>
        <circle id="Ellipse_10-43" data-name="Ellipse 10" cx="3.5" cy="3.5" r="3.5" transform="translate(111 125)" fill="#b8b8b8"/>
        <circle id="Ellipse_10-44" data-name="Ellipse 10" cx="3.5" cy="3.5" r="3.5" transform="translate(111 141)" fill="#b8b8b8"/>
        <circle id="Ellipse_10-45" data-name="Ellipse 10" cx="3.5" cy="3.5" r="3.5" transform="translate(111 157)" fill="#b8b8b8"/>
      </g>
      <g id="Group_57" data-name="Group 57" transform="translate(162)">
        <circle id="Ellipse_10-46" data-name="Ellipse 10" cx="3.5" cy="3.5" r="3.5" transform="translate(111 93)" fill="#b8b8b8"/>
        <circle id="Ellipse_10-47" data-name="Ellipse 10" cx="3.5" cy="3.5" r="3.5" transform="translate(111 109)" fill="#b8b8b8"/>
        <circle id="Ellipse_10-48" data-name="Ellipse 10" cx="3.5" cy="3.5" r="3.5" transform="translate(111 125)" fill="#b8b8b8"/>
        <circle id="Ellipse_10-49" data-name="Ellipse 10" cx="3.5" cy="3.5" r="3.5" transform="translate(111 141)" fill="#b8b8b8"/>
        <circle id="Ellipse_10-50" data-name="Ellipse 10" cx="3.5" cy="3.5" r="3.5" transform="translate(111 157)" fill="#b8b8b8"/>
      </g>
    </g>
  </g>
</svg>
