<?xml version="1.0" encoding="UTF-8"?>
<svg xmlns="http://www.w3.org/2000/svg" xmlns:xlink="http://www.w3.org/1999/xlink" width="15pt" height="15pt" viewBox="0 0 15 15" version="1.1">
<g id="surface1">
<path style=" stroke:none;fill-rule:nonzero;fill:rgb(0%,0%,0%);fill-opacity:1;" d="M 13.277344 12.15625 L 11.820312 10.703125 L 11.820312 0.25 C 11.820312 0.113281 11.710938 0 11.574219 0 L 4.195312 0 C 4.191406 0 4.1875 0.00390625 4.183594 0.00390625 C 4.160156 0.00390625 4.136719 0.0078125 4.117188 0.015625 C 4.109375 0.0195312 4.101562 0.0234375 4.09375 0.0273438 C 4.070312 0.0351562 4.042969 0.0546875 4.023438 0.0742188 L 1.070312 3.023438 C 1.050781 3.042969 1.03125 3.070312 1.023438 3.09375 C 1.019531 3.105469 1.019531 3.113281 1.011719 3.121094 C 1.007812 3.144531 1.003906 3.160156 1 3.179688 C 1 3.1875 0.996094 3.191406 0.996094 3.199219 L 0.996094 12.546875 C 0.996094 12.679688 1.109375 12.789062 1.242188 12.789062 L 9.734375 12.789062 L 11.191406 14.246094 C 11.46875 14.523438 11.84375 14.679688 12.234375 14.679688 C 12.832031 14.679688 13.367188 14.320312 13.597656 13.765625 C 13.828125 13.214844 13.699219 12.582031 13.277344 12.15625 Z M 11.191406 13.554688 L 7.367188 9.726562 L 8.761719 8.332031 L 12.585938 12.160156 Z M 7.160156 9.238281 L 6.820312 7.792969 L 8.265625 8.125 Z M 3.953125 0.835938 L 3.953125 2.953125 L 1.835938 2.953125 Z M 1.492188 12.296875 L 1.492188 3.441406 L 4.195312 3.441406 C 4.335938 3.441406 4.441406 3.335938 4.441406 3.199219 L 4.441406 0.492188 L 11.332031 0.492188 L 11.332031 10.210938 L 8.933594 7.808594 L 8.925781 7.808594 C 8.910156 7.789062 8.882812 7.773438 8.859375 7.765625 C 8.851562 7.761719 8.847656 7.757812 8.835938 7.757812 C 8.832031 7.75 8.824219 7.746094 8.8125 7.746094 L 6.546875 7.222656 C 6.46875 7.203125 6.382812 7.230469 6.316406 7.289062 C 6.261719 7.347656 6.238281 7.4375 6.253906 7.519531 L 6.777344 9.78125 C 6.777344 9.792969 6.78125 9.796875 6.785156 9.808594 C 6.789062 9.8125 6.792969 9.820312 6.796875 9.828125 C 6.808594 9.855469 6.820312 9.878906 6.84375 9.898438 L 9.242188 12.296875 Z M 12.929688 13.898438 C 12.746094 14.082031 12.496094 14.1875 12.234375 14.1875 C 11.972656 14.1875 11.726562 14.082031 11.539062 13.898438 L 12.933594 12.503906 C 13.117188 12.691406 13.21875 12.945312 13.21875 13.203125 C 13.21875 13.464844 13.117188 13.710938 12.929688 13.898438 Z M 12.929688 13.898438 "/>
<path style=" stroke:none;fill-rule:nonzero;fill:rgb(0%,0%,0%);fill-opacity:1;" d="M 3.214844 4.921875 L 9.609375 4.921875 C 9.746094 4.921875 9.855469 4.808594 9.855469 4.675781 C 9.855469 4.539062 9.746094 4.425781 9.609375 4.425781 L 3.214844 4.425781 C 3.078125 4.425781 2.96875 4.539062 2.96875 4.675781 C 2.96875 4.808594 3.078125 4.921875 3.214844 4.921875 Z M 3.214844 4.921875 "/>
<path style=" stroke:none;fill-rule:nonzero;fill:rgb(0%,0%,0%);fill-opacity:1;" d="M 3.214844 6.394531 L 9.609375 6.394531 C 9.746094 6.394531 9.855469 6.28125 9.855469 6.152344 C 9.855469 6.015625 9.746094 5.902344 9.609375 5.902344 L 3.214844 5.902344 C 3.078125 5.902344 2.96875 6.015625 2.96875 6.152344 C 2.96875 6.28125 3.078125 6.394531 3.214844 6.394531 Z M 3.214844 6.394531 "/>
<path style=" stroke:none;fill-rule:nonzero;fill:rgb(0%,0%,0%);fill-opacity:1;" d="M 4.9375 7.378906 L 3.214844 7.378906 C 3.078125 7.378906 2.96875 7.488281 2.96875 7.625 C 2.96875 7.761719 3.078125 7.871094 3.214844 7.871094 L 4.9375 7.871094 C 5.074219 7.871094 5.179688 7.761719 5.179688 7.625 C 5.179688 7.488281 5.074219 7.378906 4.9375 7.378906 Z M 4.9375 7.378906 "/>
</g>
</svg>
