<?xml version="1.0" encoding="UTF-8"?>
<svg xmlns="http://www.w3.org/2000/svg" xmlns:xlink="http://www.w3.org/1999/xlink" width="18pt" height="18pt" viewBox="0 0 18 18" version="1.1">
<g id="surface1">
<path style=" stroke:none;fill-rule:nonzero;fill:rgb(0%,0%,0%);fill-opacity:1;" d="M 16.285156 14.914062 L 14.5 13.128906 L 14.5 0.304688 C 14.5 0.136719 14.367188 0 14.199219 0 L 5.148438 0 C 5.140625 0 5.136719 0.00390625 5.132812 0.00390625 C 5.101562 0.00390625 5.074219 0.0078125 5.050781 0.0195312 C 5.039062 0.0234375 5.03125 0.0273438 5.023438 0.03125 C 4.992188 0.0429688 4.960938 0.0664062 4.933594 0.0898438 L 1.3125 3.707031 C 1.289062 3.734375 1.265625 3.765625 1.253906 3.796875 C 1.25 3.808594 1.25 3.820312 1.242188 3.828125 C 1.234375 3.855469 1.230469 3.875 1.226562 3.902344 C 1.226562 3.910156 1.222656 3.914062 1.222656 3.925781 L 1.222656 15.390625 C 1.222656 15.554688 1.359375 15.6875 1.523438 15.6875 L 11.941406 15.6875 L 13.726562 17.476562 C 14.066406 17.816406 14.527344 18.007812 15.007812 18.007812 C 15.742188 18.007812 16.398438 17.566406 16.679688 16.886719 C 16.960938 16.210938 16.804688 15.433594 16.285156 14.914062 Z M 13.726562 16.625 L 9.035156 11.929688 L 10.746094 10.222656 L 15.4375 14.917969 Z M 8.78125 11.332031 L 8.367188 9.558594 L 10.140625 9.96875 Z M 4.847656 1.027344 L 4.847656 3.621094 L 2.253906 3.621094 Z M 1.828125 15.085938 L 1.828125 4.222656 L 5.148438 4.222656 C 5.316406 4.222656 5.449219 4.089844 5.449219 3.925781 L 5.449219 0.601562 L 13.898438 0.601562 L 13.898438 12.523438 L 10.957031 9.578125 L 10.949219 9.578125 C 10.929688 9.554688 10.898438 9.535156 10.867188 9.523438 C 10.859375 9.519531 10.851562 9.515625 10.839844 9.515625 C 10.832031 9.507812 10.824219 9.503906 10.808594 9.5 L 8.03125 8.859375 C 7.933594 8.835938 7.828125 8.867188 7.75 8.941406 C 7.679688 9.011719 7.652344 9.121094 7.671875 9.222656 L 8.3125 11.996094 C 8.3125 12.011719 8.320312 12.019531 8.324219 12.03125 C 8.328125 12.039062 8.332031 12.046875 8.335938 12.054688 C 8.351562 12.089844 8.367188 12.117188 8.394531 12.140625 L 11.335938 15.085938 Z M 15.859375 17.050781 C 15.636719 17.273438 15.328125 17.402344 15.007812 17.402344 C 14.6875 17.402344 14.382812 17.273438 14.15625 17.050781 L 15.863281 15.339844 C 16.089844 15.570312 16.214844 15.878906 16.214844 16.195312 C 16.214844 16.515625 16.089844 16.820312 15.859375 17.046875 Z M 15.859375 17.050781 "/>
<path style=" stroke:none;fill-rule:nonzero;fill:rgb(0%,0%,0%);fill-opacity:1;" d="M 3.941406 6.035156 L 11.785156 6.035156 C 11.953125 6.035156 12.089844 5.898438 12.089844 5.734375 C 12.089844 5.566406 11.953125 5.429688 11.785156 5.429688 L 3.941406 5.429688 C 3.773438 5.429688 3.640625 5.566406 3.640625 5.734375 C 3.640625 5.898438 3.773438 6.035156 3.941406 6.035156 Z M 3.941406 6.035156 "/>
<path style=" stroke:none;fill-rule:nonzero;fill:rgb(0%,0%,0%);fill-opacity:1;" d="M 3.941406 7.84375 L 11.785156 7.84375 C 11.953125 7.84375 12.089844 7.707031 12.089844 7.546875 C 12.089844 7.378906 11.953125 7.242188 11.785156 7.242188 L 3.941406 7.242188 C 3.773438 7.242188 3.640625 7.378906 3.640625 7.546875 C 3.640625 7.707031 3.773438 7.84375 3.941406 7.84375 Z M 3.941406 7.84375 "/>
<path style=" stroke:none;fill-rule:nonzero;fill:rgb(0%,0%,0%);fill-opacity:1;" d="M 6.054688 9.050781 L 3.941406 9.050781 C 3.773438 9.050781 3.640625 9.1875 3.640625 9.355469 C 3.640625 9.519531 3.773438 9.65625 3.941406 9.65625 L 6.054688 9.65625 C 6.222656 9.65625 6.355469 9.519531 6.355469 9.355469 C 6.355469 9.1875 6.222656 9.050781 6.054688 9.050781 Z M 6.054688 9.050781 "/>
</g>
</svg>
