<?xml version="1.0" encoding="utf-8"?>
<!-- Generator: Adobe Illustrator 14.0.0, SVG Export Plug-In . SVG Version: 6.00 Build 43363)  -->
<!DOCTYPE svg PUBLIC "-//W3C//DTD SVG 1.1//EN" "http://www.w3.org/Graphics/SVG/1.1/DTD/svg11.dtd">
<svg version="1.1" id="Layer_1" xmlns="http://www.w3.org/2000/svg" xmlns:xlink="http://www.w3.org/1999/xlink" x="0px" y="0px"
	 width="50px" height="34.1px" viewBox="215 222.996 50 34.1" enable-background="new 215 222.996 50 34.1" xml:space="preserve">
<path d="M239.618,237.764c-0.327-0.327-0.709-0.491-1.145-0.491h-6.109v-4.909c0-1.2-0.981-2.182-2.182-2.182
	s-2.182,0.982-2.182,2.182v11.018l-0.437,0.326c-0.709,0.546-0.872,1.583-0.327,2.292c0.055,0.054,0.109,0.109,0.164,0.163
	l2.782,2.782v7.417h1.091v-2.182h8.181v2.182h1.09v-7.417l1.146-1.146c0.328-0.326,0.491-0.709,0.491-1.145v-5.673
	c0-0.437-0.163-0.872-0.491-1.145L239.618,237.764z M234.546,238.364v2.782c-0.164-0.055-0.382-0.055-0.545-0.055h-1.636v-2.727
	H234.546z M229.092,232.364c0-0.6,0.491-1.091,1.091-1.091s1.091,0.491,1.091,1.091v8.781c-0.218,0.055-0.437,0.163-0.6,0.272
	l-1.582,1.2V232.364z M231.273,253.09v-1.637h6.545v-1.091h-6.545v-1.09h8.181v3.817H231.273z M241.091,246.654
	c0,0.163-0.055,0.272-0.163,0.382l-1.146,1.146h-8.836l-2.782-2.782c-0.218-0.218-0.218-0.545,0-0.764l0.055-0.055l3.054-2.29
	c0.109-0.055,0.218-0.109,0.328-0.109H234c0.6,0,1.091,0.49,1.091,1.091s-0.491,1.091-1.091,1.091h-1.854l-1.254,1.254l0.764,0.764
	l0.927-0.927H234c1.2,0,2.182-0.981,2.182-2.182c0-0.545-0.218-1.036-0.545-1.473v-3.436h2.182v3.818h1.091v-3.6l2.019,2.019
	c0.108,0.108,0.163,0.218,0.163,0.381V246.654z"/>
<path d="M254.727,223.638h-23.453c-0.927,0-1.636,0.709-1.636,1.636v3.818h1.091v-3.818c0-0.327,0.218-0.545,0.545-0.545h23.453
	c0.327,0,0.545,0.218,0.545,0.545v21.271c0,0.327-0.218,0.545-0.545,0.545h-5.182l-1.909,2.4l-1.909-2.4h-2.454v1.092h1.909
	l2.454,3.054l2.454-3.054h4.637c0.927,0,1.636-0.709,1.636-1.637v-21.271C256.362,224.347,255.653,223.638,254.727,223.638z"/>
<path d="M233.455,231.273h3.272v1.091h-3.272V231.273z"/>
<path d="M223.638,231.273h3.272v1.091h-3.272V231.273z"/>
<path d="M231.989,229.241l2.198-2.199l0.771,0.772l-2.198,2.198L231.989,229.241z"/>
<path d="M225.444,227.852l0.771-0.771l2.199,2.198l-0.772,0.772L225.444,227.852z"/>
<path d="M246,228.546h-1.092c-0.927,0-1.636,0.709-1.636,1.636v1.091h-3.818c-0.927,0-1.636,0.709-1.636,1.636v3.272h1.091v-1.091
	h4.908v1.091c0,0.927,0.709,1.636,1.637,1.636c0.927,0,1.636-0.709,1.636-1.636v-1.091h4.909v6.545c0,0.327-0.218,0.545-0.546,0.545
	h-8.181v1.091h8.181c0.928,0,1.637-0.709,1.637-1.636v-8.727c0-0.927-0.709-1.636-1.637-1.636h-3.817v-1.091
	C247.636,229.255,246.927,228.546,246,228.546z M244.363,230.183c0-0.327,0.218-0.545,0.545-0.545H246
	c0.327,0,0.545,0.218,0.545,0.545v1.091h-2.182V230.183z M246,236.182c0,0.328-0.219,0.545-0.546,0.545s-0.546-0.218-0.546-0.545
	v-1.091H246V236.182z M251.999,232.91V234h-13.09v-1.091c0-0.327,0.218-0.545,0.545-0.545h11.999
	C251.781,232.364,251.999,232.583,251.999,232.91z"/>
</svg>
