<svg id="technical-support" xmlns="http://www.w3.org/2000/svg" width="29" height="29" viewBox="0 0 29 29">
  <path id="Path_14915" data-name="Path 14915" d="M5.1,22.426a2.365,2.365,0,0,0-1.143.292A13.373,13.373,0,0,1,17.162,1.4a.566.566,0,0,0,.224-1.11A14.608,14.608,0,0,0,14.5,0,14.5,14.5,0,0,0,3.12,23.486,2.38,2.38,0,1,0,5.1,22.426Zm.881,3.26a1.246,1.246,0,1,1,.365-.881A1.237,1.237,0,0,1,5.981,25.686Zm0,0" transform="translate(0 0.001)" fill="#fff"/>
  <path id="Path_14916" data-name="Path 14916" d="M212.177,35.749a2.374,2.374,0,1,0-.837.768,13.373,13.373,0,0,1-13.179,21.326.566.566,0,0,0-.222,1.111,14.618,14.618,0,0,0,2.859.282,14.5,14.5,0,0,0,11.379-23.487Zm-2.861-.438a1.246,1.246,0,1,1,.881.365A1.238,1.238,0,0,1,209.316,35.311Zm0,0" transform="translate(-186.298 -30.235)" fill="#fff"/>
  <path id="Path_14917" data-name="Path 14917" d="M81.956,94.051a.567.567,0,0,0,.566.566h3.542a.566.566,0,0,0,.566-.566v-1.1a8.87,8.87,0,0,0,2.126-.881l.775.775a.566.566,0,0,0,.8,0l2.5-2.505a.567.567,0,0,0,0-.8l-.774-.774a8.87,8.87,0,0,0,.881-2.126h1.094a.566.566,0,0,0,.566-.566V82.533a.566.566,0,0,0-.566-.566H92.943a8.871,8.871,0,0,0-.881-2.126l.77-.77a.566.566,0,0,0,0-.8l-2.505-2.5a.566.566,0,0,0-.8,0l-.769.769a8.87,8.87,0,0,0-2.126-.881V74.566A.566.566,0,0,0,86.064,74H82.523a.567.567,0,0,0-.566.566v1.088a8.863,8.863,0,0,0-2.126.881l-.769-.769a.567.567,0,0,0-.8,0l-2.505,2.5a.566.566,0,0,0,0,.8l.77.77a8.868,8.868,0,0,0-.881,2.126H74.553a.566.566,0,0,0-.566.566l0,3.542a.566.566,0,0,0,.566.567h1.094a8.869,8.869,0,0,0,.881,2.126l-.774.774a.566.566,0,0,0,0,.8l2.5,2.505a.567.567,0,0,0,.4.166h0a.566.566,0,0,0,.4-.166l.775-.775a8.877,8.877,0,0,0,2.126.881Zm-1.9-3.17a.567.567,0,0,0-.708.075l-.69.69-1.7-1.7.689-.689a.566.566,0,0,0,.075-.708,7.753,7.753,0,0,1-1.073-2.589.567.567,0,0,0-.554-.447h-.973V83.1h.972a.566.566,0,0,0,.554-.447,7.753,7.753,0,0,1,1.073-2.589.566.566,0,0,0-.075-.708l-.685-.685,1.7-1.7.684.684a.567.567,0,0,0,.708.075,7.75,7.75,0,0,1,2.589-1.073.567.567,0,0,0,.447-.554v-.967H85.5V76.1a.566.566,0,0,0,.447.554,7.756,7.756,0,0,1,2.589,1.073.566.566,0,0,0,.708-.075l.684-.684,1.7,1.7-.685.685a.566.566,0,0,0-.075.708,7.758,7.758,0,0,1,1.073,2.589.566.566,0,0,0,.554.447h.973v2.409H92.5a.567.567,0,0,0-.554.447,7.751,7.751,0,0,1-1.073,2.589.567.567,0,0,0,.075.708l.689.689-1.7,1.7-.69-.689a.566.566,0,0,0-.708-.075,7.758,7.758,0,0,1-2.589,1.073.566.566,0,0,0-.447.554v.977H83.089v-.977a.567.567,0,0,0-.447-.554A7.753,7.753,0,0,1,80.053,90.88Zm0,0" transform="translate(-69.794 -69.809)" fill="#fff"/>
  <path id="Path_14918" data-name="Path 14918" d="M182.732,178.051a4.68,4.68,0,1,0-4.68,4.68A4.685,4.685,0,0,0,182.732,178.051Zm-8.228,0a3.547,3.547,0,1,1,3.547,3.547A3.551,3.551,0,0,1,174.5,178.051Zm0,0" transform="translate(-163.551 -163.551)" fill="#fff"/>
  <path id="Path_14919" data-name="Path 14919" d="M338.644,18.942a.567.567,0,1,0-.4-.166A.571.571,0,0,0,338.644,18.942Zm0,0" transform="translate(-318.929 -16.8)" fill="#fff"/>
  <path id="Path_14920" data-name="Path 14920" d="M154.925,474.359a.567.567,0,1,0,.4.166A.571.571,0,0,0,154.925,474.359Zm0,0" transform="translate(-145.616 -447.491)" fill="#fff"/>
</svg>
