<svg xmlns="http://www.w3.org/2000/svg" width="1282" height="562.842" viewBox="0 0 1282 562.842">
  <g id="Group_7643" data-name="Group 7643" transform="translate(-269 -417.765)">
    <path id="Path_15268" data-name="Path 15268" d="M214.965,879.053S98.687,626.658,235.5,510.392c208.456-177.144,411,88.551,505.2-35.108,155.834-204.551,665.641-152.056,509.661,102.3-81.834,133.449,191.961,113.509,80.344,304.778Z" transform="translate(157.127 68.283)" fill="#ebf3fa"/>
    <g id="Group_7233" data-name="Group 7233" transform="translate(546.12 404.763)">
      <path id="Path_15056" data-name="Path 15056" d="M1660.906,1708.56c-98.977-3.732-435.68,2.59-538.081,5.056s-221.267-3.253-283.011-11.66-418.647.715-402.451,23.321,159.016,10.113,320.978,19.2,526.215-1.136,608.379,0,157.508-2.271,263.393-6.814S1718.277,1710.723,1660.906,1708.56Z" transform="translate(-713.949 -1172.428)" fill="#cce2ff"/>
      <g id="Group_7230" data-name="Group 7230" transform="translate(879.998 397.87)">
        <path id="Path_15139" data-name="Path 15139" d="M3004.455,1323.431c8.449,7.715,4.776,15.43-1.47,29.757s-7.347,67.23-7.347,67.23l5.143-.735s-.735-54.372,6.246-69.067,9.919-22.043,16.165-17.267S3004.455,1323.431,3004.455,1323.431Z" transform="translate(-2945.429 -1289.601)" fill="#74b570"/>
        <path id="Path_15140" data-name="Path 15140" d="M3009.8,1222.574c1.026-4.572,7.12-9.52,15.27-13.716-1.212,6.744-5.1,17.769-1.076,20.031,5.422,3.05.529-12.344,2.621-20.805a100.681,100.681,0,0,1,25.334-8.31c-.012.031-.021.061-.034.093-4.775,12.124-11.021,16.9-8.449,18.737,1.935,1.381,8.237-12.623,16.558-19.8,6.246-.333,11.531.514,14.656,2.989,4.832,3.825,8.075,7.218,3.215,18.866a21.834,21.834,0,0,1-10.55,3.824c-11.021,1.1-16.165,1.47-8.45,5.144,3.778,1.8,10.11-.1,15.245-1.26-1.666,3.069-3.713,6.543-6.2,10.5a39.011,39.011,0,0,1-5.163,6.572c-3.552.681-6.649.688-8.289-.015-5.144-2.2-18.369-9.184-21.675-6.245-3.236,2.876,24.494,4.7,22.572,12.008-13.441,7.744-28.821,4.059-31.54-3.052C3020.194,1238.583,3006.712,1236.337,3009.8,1222.574Z" transform="translate(-2955.418 -1198.733)" fill="#9cd499"/>
        <path id="Path_15141" data-name="Path 15141" d="M3001.756,1466.527c-14.7-11.021-29.758-.735-37.473,11.021s-2.2,38.207-2.2,38.207,2.939,0,2.939-1.1-8.083-31.227,11.021-44.82c11.951-8.5,20.573-4.408,21.676-.368s-4.776,11.389-4.776,11.389Z" transform="translate(-2919.585 -1390.448)" fill="#74b570"/>
        <path id="Path_15142" data-name="Path 15142" d="M2987.112,1395.649c14.695,0,19.471,22.778,15.429,36s-9.551,37.84-9.551,37.84l-3.674-3.674s13.96-34.533,10.654-49.963-11.389-18-12.858-18S2987.112,1395.649,2987.112,1395.649Z" transform="translate(-2938.74 -1342.226)" fill="#9cd499"/>
        <path id="Path_15143" data-name="Path 15143" d="M3024.391,1520a10.65,10.65,0,0,1,3.869-3.251,29.107,29.107,0,0,1-.764,3.148c-1.841,6.026-3.987,14.415-5.779,21.764-.163-.941-.414-2.391-.8-4.629-.091-.529-.164-1.1-.213-1.709A142.458,142.458,0,0,0,3024.391,1520Z" transform="translate(-2963.695 -1430.473)" fill="#74b570"/>
        <path id="Path_15144" data-name="Path 15144" d="M3028.7,1473.5c27.921-11.756,13.211-27.888,37.825-17.234,1.734.75,3.847,2.643,5.963,5.252a18.334,18.334,0,0,1-7.8.626c-7.347-1.1-4.775,4.776,7.347,6.245a27.213,27.213,0,0,1,5.681,1.2c5.776,11.093,8.379,25.689-3.844,30.763a27.666,27.666,0,0,1-8.7,1.785c-3.771-3,.921-20.344-4.894-17.95-5.583,2.3,1.75,14.871.744,18.038a80.51,80.51,0,0,1-17.441-2.445c-2.307-1.293-4.068-3.027-4.611-5.306-1.837-7.715,10.287-12.49,10.654-19.1.338-6.079-4.444,13.375-17.111,16.238C3021.058,1486.26,3015.646,1479,3028.7,1473.5Z" transform="translate(-2963.983 -1383.864)" fill="#9cd499"/>
        <path id="Path_15145" data-name="Path 15145" d="M2855.391,1380.989c2.939-6.245-4.776-7.715-4.409-2.939.326,4.232.362,14.519-3.979,17.32a68.105,68.105,0,0,1-25.368-8.425,3.118,3.118,0,0,1,.324-1.915c3.306-6.613,24.614-12.124,18-14.328-5.266-1.756-14.494,8.606-21.931,13.826-4.467-3.388-7.459-7.428-7.459-11.937,0-6.1,7.416-13.012,17.006-16.314,4.316.435,8.326,2.795,14.588,6.344,9.251,5.242,7.112-3.233-1.634-8.264a26.347,26.347,0,0,1,20.632,11.325s-.525,3.295,2.961,8.39c9.512,13.9-1.465,22.019-14.588,21.492C2850.278,1391.9,2853.361,1385.3,2855.391,1380.989Z" transform="translate(-2810.571 -1312.135)" fill="#9cd499"/>
        <path id="Path_15146" data-name="Path 15146" d="M3101.361,1476.609c7.184,5.552,15.165,12.043,24.962,16.451s7.838,18.778,7.838,18.778,1.469-12.41-6.695-16.655-13.553-9.307-19.758-10.287a89.963,89.963,0,0,1-9.634-1.959s1.96-3.919.817-5.389S3101.361,1476.609,3101.361,1476.609Z" transform="translate(-3020.075 -1401.153)" fill="#74b570"/>
        <path id="Path_15147" data-name="Path 15147" d="M3099.057,1236.565c-26.289,7.021-45.557,23.839-49.149,27.922s-3.593,5.225-3.593,5.225l2.776,5.225,1.306-.653s-2.123-4.409,3.429-10.124c9.574-9.856,21.228-17.635,29.229-21.064S3099.057,1236.565,3099.057,1236.565Z" transform="translate(-2982.357 -1226.301)" fill="#74b570"/>
        <path id="Rectangle_540" data-name="Rectangle 540" d="M17.954,0h0A17.954,17.954,0,0,1,35.907,17.954V36.008a0,0,0,0,1,0,0H0a0,0,0,0,1,0,0V17.954A17.954,17.954,0,0,1,17.954,0Z" transform="translate(67.108 155.779) rotate(180)" fill="#75a1de"/>
        <rect id="Rectangle_541" data-name="Rectangle 541" width="35.907" height="2.528" transform="translate(31.2 123.896)" fill="#fff"/>
        <rect id="Rectangle_542" data-name="Rectangle 542" width="35.907" height="1.487" transform="translate(31.2 128.505)" fill="#fff"/>
      </g>
    </g>
    <g id="Group_7419" data-name="Group 7419" transform="translate(-9113.34 -9932.27)">
      <g id="Group_7371" data-name="Group 7371" transform="translate(10104.331 10728.518)">
        <g id="Group_7370" data-name="Group 7370">
          <path id="Rectangle_2220" data-name="Rectangle 2220" d="M0,0H89.456a0,0,0,0,1,0,0V9.5a0,0,0,0,1,0,0H9.5A9.5,9.5,0,0,1,0,0V0A0,0,0,0,1,0,0Z" transform="translate(1.521 79.338)" fill="#77a4e5"/>
          <g id="Group_7369" data-name="Group 7369" transform="translate(14.146 88.837)">
            <path id="Path_15269" data-name="Path 15269" d="M1700.947,1475.438h-5.4l-1.515-68.7h8.248Z" transform="translate(-1666.803 -1406.736)" fill="#94b0ed"/>
            <path id="Path_15270" data-name="Path 15270" d="M1671.1,1623.688H1618.6v-4.743l26.762-2.414,25.746,2.414Z" transform="translate(-1613.497 -1554.986)" fill="#94b0ed"/>
            <path id="Path_15271" data-name="Path 15271" d="M1601.21,1627.984a4.319,4.319,0,1,1,4.319,4.319A4.319,4.319,0,0,1,1601.21,1627.984Z" transform="translate(-1601.21 -1560.027)" fill="#94b0ed"/>
            <path id="Path_15272" data-name="Path 15272" d="M1780.2,1627.984a4.319,4.319,0,1,1,4.319,4.319A4.319,4.319,0,0,1,1780.2,1627.984Z" transform="translate(-1727.689 -1560.027)" fill="#94b0ed"/>
            <path id="Rectangle_2221" data-name="Rectangle 2221" d="M0,0H44.178a0,0,0,0,1,0,0V0a4.507,4.507,0,0,1-4.507,4.507H4.507A4.507,4.507,0,0,1,0,0V0A0,0,0,0,1,0,0Z" transform="translate(9.265)" fill="#94b0ed"/>
          </g>
          <path id="Path_15273" data-name="Path 15273" d="M1565.671,1192.745a7.5,7.5,0,0,1-7.5-7.5v-59.877c0-11.854,7.751-21.465,17.311-21.465h39.147c9.561,0,17.312,9.61,17.312,21.465v67.373Z" transform="translate(-1556.654 -1103.908)" fill="#f99746"/>
          <path id="Path_15274" data-name="Path 15274" d="M1576.463,1192.745a4.11,4.11,0,0,1-4.11-4.11v-63.263c0-11.854,7.75-21.465,17.311-21.465h39.147c9.561,0,17.311,9.61,17.311,21.465v67.373Z" transform="translate(-1566.673 -1103.908)" fill="#cc6a27"/>
          <path id="Path_15275" data-name="Path 15275" d="M1653.5,1383.854H1557.74a4.75,4.75,0,0,1-4.75-4.75h0a4.75,4.75,0,0,1,4.75-4.75H1653.5a4.75,4.75,0,0,1,4.75,4.75h0A4.75,4.75,0,0,1,1653.5,1383.854Z" transform="translate(-1552.99 -1295.017)" fill="#f99746"/>
        </g>
      </g>
      <g id="Group_7378" data-name="Group 7378" transform="translate(10170.164 10575.679)">
        <path id="Rectangle_2222" data-name="Rectangle 2222" d="M10.324,0H32.017A10.324,10.324,0,0,1,42.341,10.324v20.43A10.324,10.324,0,0,1,32.017,41.078H10.323A10.323,10.323,0,0,1,0,30.754V10.324A10.324,10.324,0,0,1,10.324,0Z" transform="translate(0)" fill="#c0d8fb"/>
        <path id="Rectangle_2223" data-name="Rectangle 2223" d="M9.43,0H29.244a9.429,9.429,0,0,1,9.429,9.429V28.089a9.429,9.429,0,0,1-9.429,9.429H9.429A9.429,9.429,0,0,1,0,28.09V9.43A9.43,9.43,0,0,1,9.43,0Z" transform="translate(1.834 1.779)" fill="#dfebfd"/>
        <g id="Group_7374" data-name="Group 7374" transform="translate(4.999 4.651)">
          <g id="Group_7372" data-name="Group 7372" transform="translate(15.295)">
            <path id="Path_15276" data-name="Path 15276" d="M1840.67,599.643a.877.877,0,1,1,.877.877A.877.877,0,0,1,1840.67,599.643Z" transform="translate(-1840.67 -598.766)" fill="#b7d3f3"/>
            <path id="Path_15277" data-name="Path 15277" d="M1864.529,604.895a.877.877,0,1,1,.341,1.193A.877.877,0,0,1,1864.529,604.895Z" transform="translate(-1857.452 -602.778)" fill="#b7d3f3"/>
            <path id="Path_15278" data-name="Path 15278" d="M1884.5,622.064a.877.877,0,1,1-.262,1.213A.877.877,0,0,1,1884.5,622.064Z" transform="translate(-1871.355 -615.131)" fill="#b7d3f3"/>
            <path id="Path_15279" data-name="Path 15279" d="M1893.589,647.817a.877.877,0,1,1-.877.877A.877.877,0,0,1,1893.589,647.817Z" transform="translate(-1877.445 -633.427)" fill="#b7d3f3"/>
            <path id="Path_15280" data-name="Path 15280" d="M1886.867,676.693a.877.877,0,1,1-1.24,0A.877.877,0,0,1,1886.867,676.693Z" transform="translate(-1872.257 -653.651)" fill="#b7d3f3"/>
            <path id="Path_15281" data-name="Path 15281" d="M1868.093,695.517a.877.877,0,1,1-1.24,0A.877.877,0,0,1,1868.093,695.517Z" transform="translate(-1858.99 -666.953)" fill="#b7d3f3"/>
            <path id="Path_15282" data-name="Path 15282" d="M1840.67,703.725a.877.877,0,1,1,.877.877A.877.877,0,0,1,1840.67,703.725Z" transform="translate(-1840.67 -672.315)" fill="#b7d3f3"/>
          </g>
          <g id="Group_7373" data-name="Group 7373" transform="translate(0 1.666)">
            <path id="Path_15283" data-name="Path 15283" d="M1818.47,604.895a.877.877,0,1,0-.34,1.193A.878.878,0,0,0,1818.47,604.895Z" transform="translate(-1808.526 -604.444)" fill="#b7d3f3"/>
            <path id="Path_15284" data-name="Path 15284" d="M1798.5,622.064a.877.877,0,1,0,.261,1.213A.877.877,0,0,0,1798.5,622.064Z" transform="translate(-1794.623 -616.796)" fill="#b7d3f3"/>
            <path id="Path_15285" data-name="Path 15285" d="M1789.411,647.817a.877.877,0,1,0,.877.877A.877.877,0,0,0,1789.411,647.817Z" transform="translate(-1788.534 -635.093)" fill="#b7d3f3"/>
            <path id="Path_15286" data-name="Path 15286" d="M1796.132,676.693a.877.877,0,1,0,1.24,0A.877.877,0,0,0,1796.132,676.693Z" transform="translate(-1793.722 -655.317)" fill="#b7d3f3"/>
            <path id="Path_15287" data-name="Path 15287" d="M1814.907,695.517a.877.877,0,1,0,1.24,0A.877.877,0,0,0,1814.907,695.517Z" transform="translate(-1806.988 -668.618)" fill="#b7d3f3"/>
          </g>
        </g>
        <g id="Group_7377" data-name="Group 7377" transform="translate(20.934 8.961)">
          <path id="Path_15288" data-name="Path 15288" d="M1842.854,648.694a.877.877,0,1,1,.877.877A.877.877,0,0,1,1842.854,648.694Z" transform="translate(-1842.854 -637.737)" fill="#b7d3f3"/>
          <g id="Group_7375" data-name="Group 7375" transform="translate(0.757)">
            <rect id="Rectangle_2224" data-name="Rectangle 2224" width="0.24" height="10.957" fill="#b7d3f3"/>
          </g>
          <g id="Group_7376" data-name="Group 7376" transform="translate(0.545 6.099)">
            <rect id="Rectangle_2225" data-name="Rectangle 2225" width="7.385" height="0.718" transform="matrix(0.787, -0.617, 0.617, 0.787, 0, 4.559)" fill="#b7d3f3"/>
          </g>
        </g>
      </g>
      <g id="Group_7382" data-name="Group 7382" transform="translate(10090.128 10671.539)">
        <path id="Path_15289" data-name="Path 15289" d="M1991.724,1612.377h-35.653c-1.715-2.093-2.676-11.935-2.416-14.456.053-.507.693-2.867.693-2.867s13.165-5.554,14.837,1.9c.051.234.113.462.18.688,2.107,6.974,11.557,10.144,17.015,11.027C1989.928,1609.246,1991.239,1611.091,1991.724,1612.377Z" transform="translate(-1820.058 -1392.587)" fill="#1b3051"/>
        <path id="Path_15290" data-name="Path 15290" d="M1697.066,1279.543c1.287,0,48.808,6.644,58.7,17.758,4.94,5.552,17.856,78.3,17.856,78.3s-6.006,4.261-19.205.267c0,0-17.422-47.073-16.707-60.379.2-3.679-42.243-5.219-49.755-6.984s-16.835-6.1-12.79-13.324S1697.066,1279.543,1697.066,1279.543Z" transform="translate(-1622.6 -1171.04)" fill="#233862"/>
        <path id="Path_15291" data-name="Path 15291" d="M1913.949,1614.979H1878.3c-1.715-2.093-1.083-9.814-.823-12.335.054-.508.09-.8.09-.8s12.175-9.738,13.847-2.281c.051.234.113.462.18.688,2.106,6.974,11.557,10.144,17.014,11.027C1912.153,1611.848,1913.465,1613.692,1913.949,1614.979Z" transform="translate(-1766.021 -1395.189)" fill="#1e3c68"/>
        <path id="Path_15292" data-name="Path 15292" d="M1651.251,1278.467c1.287,0,58.042,2.819,67.931,15.06,4.94,6.115,5.674,76.738,5.674,76.738s-6.112,7.578-19.311,3.178c0,0-12.129-37.469-11.239-62.984.142-4.055-35.327-4.52-45.068-5.295-12.356-.982-15.478-21.721-11.434-29.682S1651.251,1278.467,1651.251,1278.467Z" transform="translate(-1595.715 -1166.12)" fill="#23417c"/>
        <g id="Group_7381" data-name="Group 7381" transform="translate(0 0)">
          <path id="Path_15293" data-name="Path 15293" d="M1708.228,983.392l-.712.144a5.9,5.9,0,0,1-6.928-4.6l-.752-3.721a5.9,5.9,0,0,1,4.6-6.928l.712-.144a5.9,5.9,0,0,1,6.928,4.6l.752,3.721A5.9,5.9,0,0,1,1708.228,983.392Z" transform="translate(-1640.646 -950.911)" fill="#122544"/>
          <path id="Path_15294" data-name="Path 15294" d="M1670.64,1117.277c-7.116,11.364-51.552,14.788-51.552,14.788-.75-1.816-4.127-31.111-4.7-33.132a98.311,98.311,0,0,1-2.978-16.084c-.008-.069-.016-.141-.023-.21a187.556,187.556,0,0,1-.89-24.04c.079-3.165.2-5.114.212-5.209v0c.107-.046.217-.089.325-.133,2.689-1.128,5.267-2.1,7.739-2.942l.021-.005q3.116-1.063,6-1.847a87.751,87.751,0,0,1,9.44-2.059,69.01,69.01,0,0,1,9.32-.86c.125-.005.248-.005.373-.008q1.1-.019,2.134.005a40.507,40.507,0,0,1,13.894,2.451c.325.128.6.249.837.356l.092.038c.263.118.468.218.611.289a.309.309,0,0,1,.057.031c.069.036.135.074.2.113l3.656,38.424Z" transform="translate(-1577.551 -1005.673)" fill="#d2e3fc"/>
          <path id="Path_15295" data-name="Path 15295" d="M1811.635,1099.842c-5.081,2.358-35.3,4.338-38.2,3.5-1.489-.43-7.718-5.917-13.985-12.667l-.006,0c-5.931-6.384-11.91-13.9-13.927-19.307a33.09,33.09,0,0,1-.582-20.98s7.709-.033,10.852,1.865,21.113,35,23.515,35.871,30.869,2.505,34.127,4.052C1813.434,1092.173,1816.71,1097.484,1811.635,1099.842Z" transform="translate(-1671.593 -1009.108)" fill="#d2e3fc"/>
          <path id="Path_15296" data-name="Path 15296" d="M1678.4,1024.153l-.008,1.871s.519,5.851-6.685,6.716-12.667-2.262-12.479-6.778c.644-3.5,1.353-5.9,1.4-8.792a20.322,20.322,0,0,0-.261-3.5l13.961-.3,4.113.666Z" transform="translate(-1612.03 -982.948)" fill="#ea9e6a"/>
          <path id="Path_15297" data-name="Path 15297" d="M1681.182,1014.755l-.038,10.121a11.81,11.81,0,0,1-5.031,1.118c-6.417.01-12.8-10.317-13.006-11.6Z" transform="translate(-1614.774 -983.672)" fill="#d88d59"/>
          <path id="Path_15298" data-name="Path 15298" d="M1673.877,961.329s-17.876,3.64-19.971-7.528-5.813-18.218,5.511-21.014,14.348,1.048,15.954,4.605S1678.473,960.094,1673.877,961.329Z" transform="translate(-1606.647 -925.328)" fill="#ea9e6a"/>
          <path id="Path_15299" data-name="Path 15299" d="M1666.948,913.437a37.486,37.486,0,0,1-10.873-2.924c-4.777-2.068-10.8.227-12.75,1.26a2.916,2.916,0,0,1,.475-1.177,2.625,2.625,0,0,0-1,1.494c-.09.067-.131.113-.108.128a3.363,3.363,0,0,0-1.634.108s.447-.065.608.223a.267.267,0,0,0,.072.079c-7.441,3.609-8.111,15.379-5.71,18.1,2.888,3.272,6.356,10.644,6.356,10.644a6.324,6.324,0,0,0,.729-4.627c-.529-2.882,1.961-2.886,5.1-4.2s.516-4.981,3.265-7.213,12.841-.937,12.708-2.64C1667.93,921.319,1666.949,913.821,1666.948,913.437Z" transform="translate(-1594.76 -909.678)" fill="#8e342e"/>
          <path id="Path_15300" data-name="Path 15300" d="M1619.709,1205.412c-.854-5.785-2.9-13.131-3.851-19.38-.8-5.2-1.559-13.562-2.155-19.018-.008-.069-.015-.141-.023-.21.038.018.1.122.143.072,1.975-2.4,7.363-5.021,13.889,4.531,1.3,1.9,6.631,13.6,6.441,16C1633.287,1198.341,1619.709,1205.412,1619.709,1205.412Z" transform="translate(-1579.848 -1089.837)" fill="#b7d3f3"/>
          <path id="Path_15301" data-name="Path 15301" d="M1648.611,1231.923a5.424,5.424,0,0,1,.688-3.3s.837-.542,1.947-1.174c1.655-.934,3.919-2.065,4.945-1.883.184.033.432.087.727.159,2.433.583,8.1,2.331,8.962,3.354.706.842,1.668,1.914,2.33,2.845Z" transform="translate(-1604.495 -1132.883)" fill="#ea9e6a"/>
          <path id="Path_15302" data-name="Path 15302" d="M1546.217,1118.659h-47.772a2.9,2.9,0,0,1,.036-1.606c1.425-3.6,4.206-9.525,7.409-15.882,2.356-4.676,4.938-9.589,7.376-13.981,3.385-6.1,6.486-11.2,8.307-13.293a21.566,21.566,0,0,1,5.14-4.165,36.208,36.208,0,0,1,4.794-2.395v0c.107-.046.217-.089.325-.133a42.225,42.225,0,0,1,5.963-1.939s.036,1.509.038,3.83c.01,6.734-.248,20.3-2.4,23.613a44.262,44.262,0,0,1-3.109,3.953c-.041.046-.079.092-.12.138-.755.885-1.591,1.837-2.469,2.817-4.986,5.585-11.3,12.144-12.07,12.943-.054.054-.079.082-.079.082h.092l13.4.187,4.109.056,8.519.118a3.229,3.229,0,0,1,1.4,1.187A8.627,8.627,0,0,1,1546.217,1118.659Z" transform="translate(-1498.351 -1019.62)" fill="#d2e3fc"/>
          <path id="Path_15303" data-name="Path 15303" d="M1850.031,1194.593c-5.08,2.358-35.295,4.338-38.2,3.5-1.489-.43-7.718-5.916-13.985-12.667.309.041,3.175-4.736,16.243,6.7,0,0,3.422,1.523,12.736.67S1848.1,1191.628,1850.031,1194.593Z" transform="translate(-1709.989 -1103.859)" fill="#b7d3f3"/>
          <path id="Path_15304" data-name="Path 15304" d="M1656.662,983.392l-.712.144a5.9,5.9,0,0,1-6.928-4.6l-.751-3.721a5.9,5.9,0,0,1,4.6-6.928l.711-.144a5.9,5.9,0,0,1,6.928,4.6l.752,3.721A5.9,5.9,0,0,1,1656.662,983.392Z" transform="translate(-1604.208 -950.911)" fill="#122544"/>
          <g id="Group_7379" data-name="Group 7379" transform="translate(46.385 0)">
            <path id="Path_15305" data-name="Path 15305" d="M1657,928.759c-.476-.861-1.176-7.786.728-13.3a8.834,8.834,0,0,1,4.274-5.211,4.574,4.574,0,0,1,2.2-.569l1.876.031c-6.177,2.616-7.61,16.608-7.129,18.1a.554.554,0,0,0-.048-.1Z" transform="translate(-1656.469 -909.678)" fill="#122544"/>
          </g>
          <g id="Group_7380" data-name="Group 7380" transform="translate(49.371 24.791)">
            <path id="Path_15306" data-name="Path 15306" d="M1682.219,1003.042a19.14,19.14,0,0,1-15.572-8.288l.928-.567-.464.284.464-.285a18.025,18.025,0,0,0,14.645,7.768h.2l.012,1.088Z" transform="translate(-1666.647 -994.186)" fill="#122544"/>
          </g>
          <path id="Rectangle_2226" data-name="Rectangle 2226" d="M3.11,0h0A3.111,3.111,0,0,1,6.221,3.111V4.64a3.11,3.11,0,0,1-3.11,3.11h0A3.11,3.11,0,0,1,0,4.64V3.11A3.11,3.11,0,0,1,3.11,0Z" transform="translate(46.019 21.893) rotate(-11.419)" fill="#2b478b"/>
          <path id="Path_15307" data-name="Path 15307" d="M1719.584,1021.24h-.979a.909.909,0,0,1-.906-.906h0a.909.909,0,0,1,.906-.907h.979a.909.909,0,0,1,.907.907h0A.909.909,0,0,1,1719.584,1021.24Z" transform="translate(-1653.351 -987.231)" fill="#122544"/>
        </g>
      </g>
      <g id="Group_7394" data-name="Group 7394" transform="translate(9739.752 10631.577)">
        <g id="Group_7390" data-name="Group 7390" transform="translate(78.203 235.51)">
          <path id="Path_15319" data-name="Path 15319" d="M663.672,1596.033c.211,2.871,4.261,2.9,8.857,2.368s3.374.63,9.809.72,8.653-2.038,8.965-2.957c.278-.816-2.822-1.5-6.137-2.31-.417-.1-.836-.206-1.254-.311-3.739-.95-6.214-3.749-9.413-6.192-3.03-2.314-6.937-10.691-6.937-10.691l-8.791-.4s3.7,7.508,5.093,10.745c.818,1.9.47,4.243.114,6.039A11.267,11.267,0,0,0,663.672,1596.033Z" transform="translate(-658.77 -1576.264)" fill="#ffb27d"/>
          <path id="Path_15320" data-name="Path 15320" d="M684.3,1638.83c4.6-.533,3.374.63,9.809.72s8.653-2.038,8.965-2.957c.278-.816-2.822-1.5-6.137-2.31l-.04.061a18.031,18.031,0,0,1-9.443,1.691c-4.319-.432-8.727-2.236-11.707-2.559a11.267,11.267,0,0,0-.3,2.986C675.651,1639.333,679.7,1639.363,684.3,1638.83Z" transform="translate(-670.538 -1616.692)" fill="#233862"/>
        </g>
        <g id="Group_7391" data-name="Group 7391" transform="translate(22.375 230.225)">
          <path id="Path_15321" data-name="Path 15321" d="M468.482,1583.9c.208,2.87,4.258,2.906,8.855,2.377s3.373.633,9.808.729,8.655-2.029,8.967-2.948c.279-.816-2.82-1.506-6.135-2.316-.417-.1-.835-.207-1.254-.312-3.738-.954-6.21-3.755-9.407-6.2-3.028-2.317,0-16.037,0-16.037l-9.669-.941s.463,11.552.457,16.8c0,2.072-.956,4.065-1.313,5.86A11.269,11.269,0,0,0,468.482,1583.9Z" transform="translate(-468.466 -1558.249)" fill="#ffb27d"/>
          <path id="Path_15322" data-name="Path 15322" d="M477.337,1640.869c4.6-.529,3.373.633,9.808.729s8.655-2.029,8.967-2.948c.279-.816-2.82-1.505-6.135-2.316l-.04.061a18.031,18.031,0,0,1-9.444,1.682c-4.319-.437-8.725-2.245-11.7-2.571a11.27,11.27,0,0,0-.308,2.986C468.69,1641.362,472.741,1641.4,477.337,1640.869Z" transform="translate(-468.466 -1612.842)" fill="#233862"/>
        </g>
        <path id="Path_15323" data-name="Path 15323" d="M451.025,792.206c1.664-6.846-.748-10.034-2.925-11.732-1.033-2.52-2.211-4.336-3.416-5.021a12.328,12.328,0,0,0-6.672-1.276,3.12,3.12,0,0,1,1.407-.668c-1.142-.17-3.692.963-3.692.963-15.887-6.122-18.385,17.272-18.051,22.707s.287,11.835-7.979,16.117c-15.771,8.17,5.242,38.96,5.242,38.96-.4-4.392,19.863-27.569,30.436-34.51,2.574-3.789,3.488-10.483,3.557-11.009-.444,5.307-1.352,8.284-2.164,9.96C451.586,812.262,452.3,801.612,451.025,792.206Z" transform="translate(-400.415 -773.459)" fill="#a9453d"/>
        <path id="Path_15324" data-name="Path 15324" d="M507.261,887.9c.053.024-5.1,2.7-8.984,1.641-3.649-1-6.034-5.727-5.983-5.737,1.545-.307,1.991-2.43,1.958-11.556l.7.138,11.747,2.326s-.267,3.7-.275,7.179C506.414,884.81,506.591,887.584,507.261,887.9Z" transform="translate(-462.927 -843.264)" fill="#ffb27d"/>
        <path id="Path_15325" data-name="Path 15325" d="M513.1,875.038s-.267,3.7-.275,7.179c-6.574-.185-10.048-6.182-11.472-9.505Z" transform="translate(-469.329 -843.595)" fill="#ed975d"/>
        <path id="Path_15326" data-name="Path 15326" d="M541.354,1278.038a2.882,2.882,0,0,1-2.612,3.755l-4.589.215-4.856.149a3.9,3.9,0,0,1-3.143-1.435,136.517,136.517,0,0,1-23.043-43.628q-.305-.968-.645-1.961c-4.779-13.935-14.687-31.427-19.908-47.26-.831-2.522-1.577-4.9-2.247-7.142-.214-.72-.423-1.426-.622-2.122a167.9,167.9,0,0,1-5.989-31.526l37.7.3A830.484,830.484,0,0,0,541.354,1278.038Z" transform="translate(-449.79 -1037.477)" fill="#2a4e96"/>
        <path id="Path_15327" data-name="Path 15327" d="M483.849,956.571c-.1,17.941,2.632,25.638,2.632,25.638a50.662,50.662,0,0,1-35.328,2.164c-.226-.071-5.27-29.641-4.79-32.315a56.88,56.88,0,0,0,.466-15.031,120.627,120.627,0,0,0-4.652-23.6c5.228-1.189,10.123-3.279,15.564-5.319,1.252,1.558,5.078,3.189,8.4,3.114,3.821-.084,5.061-1.72,4.862-3.506,4.073,2.266,7.322,4.407,7.322,4.407,3.461,6.013,10.481,11.851,10.99,21.074C489.437,935.46,483.851,956.068,483.849,956.571Z" transform="translate(-427.514 -868.327)" fill="#d2e3fc"/>
        <path id="Path_15328" data-name="Path 15328" d="M443.184,1005.979c-1.648,2.332-4.808,16.51-12.669,18.292,4.051-10.1,7.126-14.535,7.607-17.641a76.634,76.634,0,0,0,.466-17.46c2.631-4.612,4.6-7.774,4.6-7.774.207-.746,4.182-13.037,5.456-2.051S445.025,1003.37,443.184,1005.979Z" transform="translate(-419.273 -915.735)" fill="#5f9aa8"/>
        <path id="Path_15329" data-name="Path 15329" d="M564.786,918.236s5.593,3.035,7.95,6.03S588.9,952.077,588.9,954.561s-14.015.861-14.015.861Z" transform="translate(-514.154 -875.764)" fill="#f99746"/>
        <path id="Path_15330" data-name="Path 15330" d="M510.969,828.668s-15.553.257-15.563-9.431-2.025-16.179,7.9-16.753,11.863,3.121,12.653,6.354S515.014,828.352,510.969,828.668Z" transform="translate(-465.004 -793.927)" fill="#ffb27d"/>
        <path id="Path_15331" data-name="Path 15331" d="M498.347,797.074s-4.258,11.366-10.794,13.046-9.37-.07-9.37-.07a18.507,18.507,0,0,0,6.053-10.933S495.135,791.664,498.347,797.074Z" transform="translate(-452.958 -788.755)" fill="#a9453d"/>
        <path id="Path_15332" data-name="Path 15332" d="M543.318,800.5s3.18,2.537,3.955,5,1.124,7.545,2.6,7.373c0,0,3.208-7.725-.4-12.1C545.657,796.147,543.318,800.5,543.318,800.5Z" transform="translate(-498.984 -791.257)" fill="#a9453d"/>
        <path id="Path_15333" data-name="Path 15333" d="M540.427,907.711s9,22.229,9.263,26.728,1.058,73.567,1.058,73.567-.529,3.176,5.557,1.852,7.674-2.646,7.674-2.646-5.822-42.606-4.234-57.425S547.573,910.8,547.573,910.8Z" transform="translate(-496.941 -868.327)" fill="#f99746"/>
        <path id="Path_15334" data-name="Path 15334" d="M548.578,1347.8l-5.272.161a3.048,3.048,0,0,1-2.445-1.1,136.072,136.072,0,0,1-23.324-43.971q-.305-.969-.645-1.961c-4.779-13.935-14.687-31.427-19.908-47.26-.831-2.522-1.577-4.9-2.247-7.142-.214-.72-.423-1.426-.622-2.122l5.552-4.213s16.669,26.992,21.829,52.394C525.979,1314.644,543.931,1341.195,548.578,1347.8Z" transform="translate(-464.215 -1103.267)" fill="#1e3d70"/>
        <path id="Path_15335" data-name="Path 15335" d="M445.463,1277.69c.09,11.686-.464,37.733-1.886,50.466a2.3,2.3,0,0,1-2.288,2.045h-3.934c-1.658,0-2.9-.012-3.722-.024a1.513,1.513,0,0,1-1.459-1.222c-3.912-19.907-6.712-36.445-8.762-50.735-1.715-11.961-3.239-22.215-4.411-31.044-1.18-8.883-2-16.322-2.294-22.607-.045-.99-.079-1.953-.1-2.887s-.024-1.853-.016-2.739l32.576-3.176C448.757,1237.411,445.41,1270.511,445.463,1277.69Z" transform="translate(-409.431 -1086.012)" fill="#2a4e96"/>
        <path id="Path_15336" data-name="Path 15336" d="M437.637,1351.4c-1.489,0-2.642-.01-3.458-.021a1.835,1.835,0,0,1-1.774-1.482c-3.886-19.792-6.67-36.25-8.711-50.479-1.715-11.961-3.239-22.216-4.411-31.043-1.18-8.884-2-16.323-2.294-22.607l11.953,7.031s-7.629,2.691-4.718,23.068S433.586,1348.518,437.637,1351.4Z" transform="translate(-409.714 -1107.213)" fill="#1e3d70"/>
        <path id="Path_15337" data-name="Path 15337" d="M421.654,1007.774s-2.294,8.291-10.233,7.232-19.228-5.822-19.228-5.822,3.392-10.72,7.611-24.8c5.107-17.05,11.43-39.03,14.409-52.894a85.715,85.715,0,0,0,1.619-9.453l6.587-12.779s9.821,22.041,10.35,27.6S421.654,1007.774,421.654,1007.774Z" transform="translate(-392.193 -869.418)" fill="#f99746"/>
        <path id="Path_15338" data-name="Path 15338" d="M439.635,1002.047c-.355,9-2.472,26.463-21.348,35.813-.05.024-.1.05-.151.071,5.107-17.05,11.43-39.03,14.409-52.894C436.012,990.219,439.828,997.094,439.635,1002.047Z" transform="translate(-410.525 -922.969)" fill="#ed7d2b"/>
        <path id="Path_15339" data-name="Path 15339" d="M432.174,936.025l8.693-26.77c-.023.011-10.979,3.26-16.49,6.044,0,0-3.445,4.441-5.576,14.687,0,0-2.252,24.6,2.776,33.6,0,0,15.878,3.176,41.282-5.557V952.2s-27.786,1.455-33.476,2.117Z" transform="translate(-410.64 -869.418)" fill="#ffb27d"/>
        <path id="Path_15340" data-name="Path 15340" d="M438.834,909.255s-16.114,1.135-20,9.78-5.116,37.4-.176,45.869c0,0,6.8,1.937,18.829-.312l.445-.084s3.837-9.394.4-11.247c0,0-10.144.529-9.086-2.823S438.834,909.255,438.834,909.255Z" transform="translate(-408.607 -869.418)" fill="#f99746"/>
        <g id="Group_7392" data-name="Group 7392" transform="translate(43.486 78.155)">
          <path id="Path_15341" data-name="Path 15341" d="M567.57,1048.1l-.475,1.526-26.442-8.225a1.016,1.016,0,0,1-.179-.935.748.748,0,0,1,.653-.59Z" transform="translate(-540.427 -1039.874)" fill="#a9453d"/>
          <path id="Path_15342" data-name="Path 15342" d="M633.722,1069.355l-1.912-1.442-.474,1.526Z" transform="translate(-604.666 -1059.688)" fill="#a9453d"/>
        </g>
        <path id="Path_15343" data-name="Path 15343" d="M564.279,1047.978s6-3.694,8.515-3.126,8.93,5.214,5.845,6.219-5.583-.05-6.769.681-2.062,2.066-7.591,2.047S564.279,1047.978,564.279,1047.978Z" transform="translate(-512.059 -965.194)" fill="#ffb27d"/>
        <g id="Group_7393" data-name="Group 7393" transform="translate(50.016 72.78)">
          <path id="Path_15344" data-name="Path 15344" d="M562.686,1070.884l27.476.01,10.575-39.95-27.476-.01Z" transform="translate(-562.686 -1028.181)" fill="#233862"/>
          <path id="Path_15345" data-name="Path 15345" d="M599.368,1021.549s-2.1.345-1.188,2.753h9.382l-3-2.753Z" transform="translate(-587.605 -1021.549)" fill="#9db0f4"/>
          <path id="Path_15346" data-name="Path 15346" d="M602.786,1021.549s4.142,0,5.581,3.337c1.758,4.078,1.007,15.474,1.007,15.474h22.044s3.48-13.392-3.8-18.811Z" transform="translate(-591.022 -1021.549)" fill="#fff"/>
        </g>
        <path id="Path_15347" data-name="Path 15347" d="M662.949,1095.165s-3.319-2.485-4.345-1.052.789,8.746,2.959,8.206S663.761,1096.653,662.949,1095.165Z" transform="translate(-580.242 -999.731)" fill="#ffb27d"/>
      </g>
      <path id="Path_15348" data-name="Path 15348" d="M1160.852,834.971c-.711-17.609,14.048-25.432,29.14-25.432s31.515,3.91,32.938,27.326c.915,15.064-7.115,24.333-30.238,24.333-7.8,0-13.86-1.23-18.5-3.424l-11.559,10.271,5.68-14.2C1163.279,849.169,1161.16,842.569,1160.852,834.971Z" transform="translate(8819.234 9832.624)" fill="#d2e3fc" opacity="0.5"/>
      <path id="Path_15349" data-name="Path 15349" d="M2130.542,762.334c.992-24.572-19.6-35.489-40.662-35.489s-43.975,5.456-45.961,38.13c-1.277,21.02,9.928,33.954,42.194,33.954,10.882,0,19.34-1.717,25.817-4.778l16.129,14.332-7.926-19.81C2127.155,782.145,2130.114,772.937,2130.542,762.334Z" transform="translate(8213.61 9891.059)" fill="#d2e3fc"/>
      <g id="Group_7403" data-name="Group 7403" transform="translate(9887.276 10666.739)">
        <g id="Group_7397" data-name="Group 7397" transform="translate(0 61.779)">
          <g id="Group_7396" data-name="Group 7396">
            <path id="Rectangle_2228" data-name="Rectangle 2228" d="M0,0H89.456a0,0,0,0,1,0,0V9.5a0,0,0,0,1,0,0H9.5A9.5,9.5,0,0,1,0,0V0A0,0,0,0,1,0,0Z" transform="translate(1.521 79.338)" fill="#77a4e5"/>
            <g id="Group_7395" data-name="Group 7395" transform="translate(14.146 88.837)">
              <path id="Path_15350" data-name="Path 15350" d="M1005.043,1475.438h-5.4l-1.515-68.7h8.248Z" transform="translate(-970.899 -1406.736)" fill="#94b0ed"/>
              <path id="Path_15351" data-name="Path 15351" d="M975.2,1623.688H922.693v-4.743l26.762-2.414,25.745,2.414Z" transform="translate(-917.593 -1554.986)" fill="#94b0ed"/>
              <path id="Path_15352" data-name="Path 15352" d="M905.306,1627.984a4.319,4.319,0,1,1,4.319,4.319A4.319,4.319,0,0,1,905.306,1627.984Z" transform="translate(-905.306 -1560.027)" fill="#94b0ed"/>
              <path id="Path_15353" data-name="Path 15353" d="M1084.292,1627.984a4.319,4.319,0,1,1,4.319,4.319A4.319,4.319,0,0,1,1084.292,1627.984Z" transform="translate(-1031.785 -1560.027)" fill="#94b0ed"/>
              <path id="Rectangle_2229" data-name="Rectangle 2229" d="M0,0H44.178a0,0,0,0,1,0,0V0a4.507,4.507,0,0,1-4.507,4.507H4.507A4.507,4.507,0,0,1,0,0V0A0,0,0,0,1,0,0Z" transform="translate(9.265)" fill="#94b0ed"/>
            </g>
            <path id="Path_15354" data-name="Path 15354" d="M869.766,1192.745a7.5,7.5,0,0,1-7.5-7.5v-59.877c0-11.854,7.751-21.465,17.311-21.465H918.73c9.561,0,17.312,9.61,17.312,21.465v67.373Z" transform="translate(-860.75 -1103.908)" fill="#f99746"/>
            <path id="Path_15355" data-name="Path 15355" d="M880.558,1192.745a4.11,4.11,0,0,1-4.11-4.11v-63.263c0-11.854,7.751-21.465,17.311-21.465h39.147c9.561,0,17.311,9.61,17.311,21.465v67.373Z" transform="translate(-870.768 -1103.908)" fill="#cc6a27"/>
            <path id="Path_15356" data-name="Path 15356" d="M957.6,1383.854H861.836a4.749,4.749,0,0,1-4.749-4.75h0a4.75,4.75,0,0,1,4.749-4.75H957.6a4.75,4.75,0,0,1,4.75,4.75h0A4.75,4.75,0,0,1,957.6,1383.854Z" transform="translate(-857.086 -1295.017)" fill="#f99746"/>
          </g>
        </g>
        <g id="Group_7402" data-name="Group 7402" transform="translate(19.96)">
          <path id="Path_15357" data-name="Path 15357" d="M1284.217,1586.211c-.284,2.76,3.555,3.474,8.008,3.743s3.1,1.168,9.189,2.339,8.558-.473,9.009-1.294c.4-.728-2.425-1.9-5.436-3.229-.379-.166-.759-.336-1.138-.507-3.389-1.533-5.266-4.608-7.89-7.467-2.486-2.708-4.78-11.319-4.78-11.319l-8.278-1.86s2.247,7.752,3.02,11.059c.455,1.946-.27,4.107-.911,5.752A10.86,10.86,0,0,0,1284.217,1586.211Z" transform="translate(-1177.944 -1369.098)" fill="#ffb27d"/>
          <path id="Path_15358" data-name="Path 15358" d="M1295.359,1630.447c4.452.27,3.1,1.168,9.189,2.339s8.558-.474,9.009-1.294c.4-.727-2.425-1.9-5.436-3.228l-.048.051a17.383,17.383,0,0,1-9.249.011c-4.027-1.14-7.906-3.6-10.68-4.4a10.854,10.854,0,0,0-.793,2.783C1287.067,1629.464,1290.906,1630.177,1295.359,1630.447Z" transform="translate(-1181.078 -1409.591)" fill="#0f2549"/>
          <path id="Path_15359" data-name="Path 15359" d="M1052.344,1246.908c-4.454-3.127-33.917-8.7-48.953-10.316l-16.619-14.427s-14.146,20.952-14.258,36.981c-.052,7.473,3.39,8.215,3.391,8.217s53.275.4,55.61.636c3.822.394,8.864,9.917,10.124,18.59s23.476,43.949,23.476,43.949,4.633,1.485,6.775,1.359a6.769,6.769,0,0,0,3.371-.907S1062.388,1253.961,1052.344,1246.908Z" transform="translate(-958.612 -1125.694)" fill="#233862"/>
          <path id="Path_15360" data-name="Path 15360" d="M1237.244,1586.211c-.285,2.76,3.555,3.474,8.008,3.743s3.1,1.168,9.19,2.339,8.558-.473,9.009-1.294c.4-.728-2.425-1.9-5.436-3.229-.379-.166-.758-.336-1.138-.507-3.388-1.533-5.266-4.608-7.89-7.467-2.485-2.708-4.78-11.319-4.78-11.319l-8.278-1.86s2.247,7.752,3.02,11.059c.455,1.946-.27,4.107-.911,5.752A10.84,10.84,0,0,0,1237.244,1586.211Z" transform="translate(-1144.751 -1369.098)" fill="#ffb27d"/>
          <path id="Path_15361" data-name="Path 15361" d="M1248.386,1630.447c4.452.27,3.1,1.168,9.19,2.339s8.558-.474,9.009-1.294c.4-.727-2.425-1.9-5.436-3.228l-.048.051a17.384,17.384,0,0,1-9.249.011c-4.027-1.14-7.906-3.6-10.68-4.4a10.845,10.845,0,0,0-.793,2.783C1240.094,1629.464,1243.933,1630.177,1248.386,1630.447Z" transform="translate(-1147.885 -1409.591)" fill="#233862"/>
          <path id="Path_15362" data-name="Path 15362" d="M1004.955,1246.908c-3.869-2.717-15.507-4.823-28.354-6.387a8.641,8.641,0,0,1-7.336-6.486h0l-29.882-11.869s-14.146,20.952-14.258,36.981c-.052,7.473,3.39,8.215,3.391,8.217s53.275.4,55.61.636c3.822.394,8.865,9.917,10.125,18.59s23.475,43.949,23.475,43.949,4.633,1.485,6.776,1.359a6.769,6.769,0,0,0,3.371-.907S1015,1253.961,1004.955,1246.908Z" transform="translate(-925.125 -1125.694)" fill="#2b478b"/>
          <path id="Path_15363" data-name="Path 15363" d="M1009.4,916.285s-8.711,4.453-2.364,14.021c0,0-7.484.865-9.366-1.287a6.1,6.1,0,0,0,.615,1.4s-7.25-.951-9.848-3.7,5.5-39.3,24.815-31.821c0,0,17.17,1.566,12.3,20.919s1.529,20.428,1.529,20.428a9.239,9.239,0,0,1-2.787.434s-1.176-.69-1.307-1.426a4.536,4.536,0,0,0,.329,1.534s-7.02-.505-10.032-3.693S1007.739,920.167,1009.4,916.285Z" transform="translate(-969.532 -893.724)" fill="#8e342e"/>
          <path id="Path_15364" data-name="Path 15364" d="M1084.907,966.7l-.7.1a5.717,5.717,0,0,1-6.43-4.863l-.506-3.646a5.717,5.717,0,0,1,4.863-6.43l.7-.1a5.717,5.717,0,0,1,6.43,4.863l.506,3.646A5.717,5.717,0,0,1,1084.907,966.7Z" transform="translate(-1032.602 -934.58)" fill="#ed7d2b"/>
          <path id="Path_15365" data-name="Path 15365" d="M1025.087,1027.479c-2.6,2.006-4.244,9.25-8.435,10.445-15.71,4.484-24.143-14.171-26.9-23.277a13.685,13.685,0,0,1,5.3-1.93c1.142-.194,2.346-.346,3.344-.446,1.715-1.458,4.09-7.19,4.235-15.909l.758.163,12.7,2.79s-.371,4.012-.46,7.791c-.067,2.957-.163,3.664.065,4.016.988.162,2.152,2.689,2.152,2.689a.034.034,0,0,0,.007.011A80.758,80.758,0,0,1,1025.087,1027.479Z" transform="translate(-970.792 -966.132)" fill="#ffb27d"/>
          <path id="Path_15366" data-name="Path 15366" d="M1048.946,999.715s-.373,4.009-.46,7.791c-7.134-.348-10.773-6.938-12.245-10.58Z" transform="translate(-1003.644 -966.53)" fill="#ed985f"/>
          <g id="Group_7398" data-name="Group 7398" transform="translate(0.869 44.869)">
            <path id="Path_15367" data-name="Path 15367" d="M1037.135,1100.464s-7.47.275-15.583.3c-.959.006-1.931.006-2.9,0-6.609-.028-13.1-.259-15.864-.972-2.7-.694-13.082-7.732-21.391-16.259l0,0c-.643,1.533-1.129,2.707-1.142,2.8a43.026,43.026,0,0,1-1.148,5.672c-.035.126-.066.256-.094.385-.022.1-.041.205-.063.309s-.038.2-.051.3c-.893,5.47,1.827,13.766,2.618,17.984.252,1.337.309,2.265,0,2.561-13.533,12.833-38.917,9.918-50.062,7.849a4.116,4.116,0,0,1-2.918-5.909c4.3-8.5,12.36-27.274,11.057-46.409-.044-.653,6.047-21.545,6.047-21.545s4.735-.826,10.2-1.268c.517.47,1.58,14.214,8.423,15.009,1.114.129,8.255,11.034,8.255,11.034l2.161-11.142-2.558-14.782a78.414,78.414,0,0,1,7.814,2.4,8.628,8.628,0,0,1,4.356,3.87c4.782,8.738,20.3,36.921,21.883,37.577,1.483.615,7.072,1.732,12.987,2.811h0c7.915,1.448,16.41,2.82,16.41,2.82Z" transform="translate(-928.087 -1046.263)" fill="#d2e3fc"/>
            <path id="Path_15368" data-name="Path 15368" d="M1086.979,1246.941l-2.488.008a.066.066,0,0,1,.008-.01Z" transform="translate(-1038.609 -1188.069)" fill="#d2e3fc"/>
          </g>
          <path id="Path_15369" data-name="Path 15369" d="M1046.949,950.24s-16.893-.331-16.525-10.848-1.564-17.643,9.237-17.876,12.755,3.853,13.486,7.393S1051.353,950.056,1046.949,950.24Z" transform="translate(-999.53 -913.237)" fill="#ffb27d"/>
          <path id="Path_15370" data-name="Path 15370" d="M1149.965,1171.477c-.959,0-1.931,0-2.9,0-6.607-.028-13.1-.26-15.862-.972-2.7-.695-13.083-7.732-21.392-16.258a.007.007,0,0,1,0,0s1.753-6.71,2.508-7.833,3.737,9.792,10.7,14.233,17.864,7.554,23.157,6.295C1149.741,1166.089,1150.106,1169.294,1149.965,1171.477Z" transform="translate(-1055.631 -1072.104)" fill="#b7d3f3"/>
          <path id="Path_15371" data-name="Path 15371" d="M1075.457,998.574s.108,1.259,2.878,1.458c0,0,2.326.167,2.422-1.187A6.825,6.825,0,0,0,1075.457,998.574Z" transform="translate(-1031.356 -967.424)" fill="#fff"/>
          <g id="Group_7399" data-name="Group 7399" transform="translate(33.04 22.939)">
            <path id="Path_15372" data-name="Path 15372" d="M1049.729,983.974a18.557,18.557,0,0,1-11.975-12.21l1.024-.254-.512.127.512-.127a17.476,17.476,0,0,0,11.27,11.458l.182.057-.307,1.009Z" transform="translate(-1037.753 -971.51)" fill="#122544"/>
          </g>
          <path id="Path_15373" data-name="Path 15373" d="M1078.622,1011.6l-.9-.286a.881.881,0,0,1-.574-1.1h0a.882.882,0,0,1,1.1-.574l.905.286a.881.881,0,0,1,.573,1.1h0A.881.881,0,0,1,1078.622,1011.6Z" transform="translate(-1032.518 -975.482)" fill="#ed7d2b"/>
          <path id="Path_15374" data-name="Path 15374" d="M1043.184,912.617s-4.325,12.811-10.813,14.984-8.639-.4-8.639-.4a18.765,18.765,0,0,0,5.329-11.5S1039.543,907.378,1043.184,912.617Z" transform="translate(-994.805 -905.732)" fill="#8e342e"/>
          <path id="Path_15375" data-name="Path 15375" d="M1062.505,919.2s8.808-.494,11.44,2.014c1.9,1.809,1.854,2.752,2,5.163,0,0,3.852-5.941-.112-10.1C1071.632,911.866,1062.505,919.2,1062.505,919.2Z" transform="translate(-1022.203 -908.543)" fill="#8e342e"/>
          <path id="Path_15376" data-name="Path 15376" d="M1064.024,914.1s-2.206,12.257-10.269,16.71c0,0,7.81-7.993,7.948-15.99S1064.024,914.1,1064.024,914.1Z" transform="translate(-1016.02 -905.862)" fill="#8e342e"/>
          <path id="Path_15377" data-name="Path 15377" d="M988.439,926.719c2.6,2.748,9.848,3.7,9.848,3.7a6.03,6.03,0,0,1-.613-1.4c3.727,3.021,12.878.827,12.878.827-7.3-1.613-4.936-12.147-2.453-12.6a228.268,228.268,0,0,1,5.661-22.279c-.323-.053-.506-.07-.506-.07C993.943,887.418,985.842,923.973,988.439,926.719Z" transform="translate(-969.532 -893.722)" fill="#8e342e"/>
          <g id="Group_7401" data-name="Group 7401" transform="translate(27.078)">
            <path id="Path_15378" data-name="Path 15378" d="M1025.114,963.019l-.7.1a5.718,5.718,0,0,1-6.43-4.863l-.506-3.646a5.718,5.718,0,0,1,4.863-6.43l.7-.1a5.718,5.718,0,0,1,6.43,4.863l.506,3.646A5.717,5.717,0,0,1,1025.114,963.019Z" transform="translate(-1017.427 -931.976)" fill="#ed7d2b"/>
            <g id="Group_7400" data-name="Group 7400" transform="translate(3.054)">
              <path id="Path_15379" data-name="Path 15379" d="M1027.909,911.059c-.415-.777,1.04-6.815,3.177-11.5,1.033-2.264,3.641-5.294,5.5-6.075a4.006,4.006,0,0,1,2.295,0,17.472,17.472,0,0,1,2.014.812c-6.118,1.907-11.434,14.727-11.049,16.054a.459.459,0,0,0-.041-.094Z" transform="translate(-1027.838 -893.315)" fill="#ed7d2b"/>
            </g>
            <path id="Rectangle_2230" data-name="Rectangle 2230" d="M3.016,0h0A3.015,3.015,0,0,1,6.031,3.015V4.5A3.015,3.015,0,0,1,3.016,7.514h0A3.015,3.015,0,0,1,0,4.5V3.016A3.016,3.016,0,0,1,3.016,0Z" transform="matrix(0.99, -0.138, 0.138, 0.99, 2.09, 20.414)" fill="#f99746"/>
          </g>
          <path id="Path_15380" data-name="Path 15380" d="M1178.575,1209.792s7.244-.417,7.948-.037a39.613,39.613,0,0,1,5.645,3.85,40.634,40.634,0,0,1,2.207,3.649s-.691.192-1-.088-2.675-2.792-2.675-2.792l2.427,3.689a2.054,2.054,0,0,1-1.172-.4c-.333-.366-2.6-2.673-2.6-2.673l-.773-.153a8.378,8.378,0,0,1,1.214,1.2,7.412,7.412,0,0,1,.71,1.186,5.687,5.687,0,0,1-.907-.221c-.216-.1-2.25-1.884-2.25-1.884l1.078,1.471a2.831,2.831,0,0,1-.966-.2,15,15,0,0,0-2.1-1.618,9.475,9.475,0,0,1-3.172-.542c-.869-.46-3.6-1.516-3.6-1.516Z" transform="translate(-1104.223 -1116.812)" fill="#ffb27d"/>
          <path id="Path_15381" data-name="Path 15381" d="M1011.775,1039.39s-4.844,1.412-5.949,2.525c0,0,5.064,12.947,12.366,18.99l1.952-1.385v3.148l7.31,4.784S1011.4,1043.306,1011.775,1039.39Z" transform="translate(-982.152 -996.537)" fill="#b7d3f3"/>
          <path id="Path_15382" data-name="Path 15382" d="M1014.835,1166.59c-3.833-1.486-16.684-6.687-21.848-11.543-5.773-5.435-17.751-24.974-17.751-24.974l20.959-5.12s8.634,12.6,11.091,15c1.887,1.845,6.287,1.984,6.287,1.984l-1.148,5.672c-.035.126-.066.256-.094.385-.022.1-.041.2-.063.309s-.035.2-.05.3C1011.324,1154.077,1014.043,1162.373,1014.835,1166.59Z" transform="translate(-960.535 -1057)" fill="#b7d3f3"/>
          <path id="Path_15383" data-name="Path 15383" d="M1077.92,1041.526s2.229,17.615.4,25.924c0,0,2.992-5.5,3.412-6.5l-.5-3.021,1.931.671s-1.7-14.044-3.243-16.506-2.108-2.7-2.108-2.7Z" transform="translate(-1033.014 -996.537)" fill="#b7d3f3"/>
          <path id="Path_15384" data-name="Path 15384" d="M1253.148,1213.14s-9.346.345-18.481.3c-2.266-3.515.509-7.727.509-7.727h.005c7.913,1.445,16.409,2.817,16.409,2.817Z" transform="translate(-1143.23 -1114.07)" fill="#ffb27d"/>
          <path id="Path_15385" data-name="Path 15385" d="M1219.629,1240.34h-34.541a2.753,2.753,0,0,1,2.753-2.754h31.787Z" transform="translate(-1108.825 -1136.591)" fill="#ed7d2b"/>
          <path id="Path_15386" data-name="Path 15386" d="M1324.206,1118.736l-12.808,37.619h-53.75l13.156-37.619Z" transform="translate(-1160.099 -1052.607)" fill="#ed7d2b"/>
          <path id="Path_15387" data-name="Path 15387" d="M1326.1,1118.736l-12.691,37.272-.117.348h-52.964l13.156-37.619Z" transform="translate(-1161.991 -1052.607)" fill="#f99746"/>
          <path id="Path_15388" data-name="Path 15388" d="M1376.364,1175.4a3.472,3.472,0,0,1-3.2,2.6,2,2,0,0,1-2-2.6,3.473,3.473,0,0,1,3.2-2.6A2,2,0,0,1,1376.364,1175.4Z" transform="translate(-1240.262 -1090.81)" fill="#ffc397"/>
          <path id="Path_15389" data-name="Path 15389" d="M1395.343,1118.736l-12.691,37.272h-24.335l29.672-37.272Z" transform="translate(-1231.236 -1052.607)" fill="#ed7d2b"/>
          <path id="Path_15390" data-name="Path 15390" d="M1112.1,1199.664s-17.781,1.554-27.609,1.116v-9.656c6.438,1.778,27.6,5.615,27.6,5.615Z" transform="translate(-1037.74 -1103.759)" fill="#ffb27d"/>
          <path id="Path_15391" data-name="Path 15391" d="M971.621,1048s-10.169.231-13.316,3.63,3.123,22.611,3.123,22.611,18.954,23.214,28.436,24.851c0,0,4.144.567,6.078.6,0,0-1.9-5.522,1.631-8.987,0,0-4.06-1.136-4.228-1.64S971.621,1048,971.621,1048Z" transform="translate(-947.947 -1002.619)" fill="#d2e3fc"/>
        </g>
      </g>
      <g id="Group_7407" data-name="Group 7407" transform="translate(9889.387 10770.527)">
        <g id="Group_7405" data-name="Group 7405" transform="translate(0 0)">
          <g id="Group_7404" data-name="Group 7404" transform="translate(10.017 3.896)">
            <path id="Path_15392" data-name="Path 15392" d="M797.662,1377.616h-.092c-.544,0-.982-.8-.97-1.783l1.47-114.536,4.332-.908-3.694,115.452C798.677,1376.838,798.218,1377.616,797.662,1377.616Z" transform="translate(-796.6 -1260.389)" fill="#233862"/>
          </g>
          <path id="Rectangle_2231" data-name="Rectangle 2231" d="M3.455,0H255.137a3.455,3.455,0,0,1,3.455,3.455v0a3.455,3.455,0,0,1-3.455,3.455H3.455A3.455,3.455,0,0,1,0,3.455v0A3.455,3.455,0,0,1,3.455,0Z" transform="translate(258.593 6.911) rotate(180)" fill="#233862"/>
        </g>
        <g id="Group_7406" data-name="Group 7406" transform="translate(563.343 3.896)">
          <path id="Path_15393" data-name="Path 15393" d="M2687.512,1377.616h.092c.544,0,.982-.8.97-1.783L2687.1,1261.3l-4.332-.908,3.694,115.452C2686.5,1376.838,2686.956,1377.616,2687.512,1377.616Z" transform="translate(-2682.772 -1260.389)" fill="#233862"/>
        </g>
        <path id="Rectangle_2232" data-name="Rectangle 2232" d="M3.455,0h337a3.455,3.455,0,0,1,3.455,3.455v0a3.455,3.455,0,0,1-3.455,3.455h-337A3.455,3.455,0,0,1,0,3.455v0A3.455,3.455,0,0,1,3.455,0Z" transform="translate(577.44 6.911) rotate(-180)" fill="#233862"/>
      </g>
      <g id="Group_7408" data-name="Group 7408" transform="translate(10170.179 10732.868)">
        <path id="Path_15394" data-name="Path 15394" d="M1799.824,1240.34h-34.541a2.754,2.754,0,0,1,2.754-2.754h31.787Z" transform="translate(-1765.283 -1202.72)" fill="#ed7d2b"/>
        <path id="Path_15395" data-name="Path 15395" d="M1904.4,1118.736l-12.808,37.619h-53.75L1851,1118.736Z" transform="translate(-1816.557 -1118.736)" fill="#ed7d2b"/>
        <path id="Path_15396" data-name="Path 15396" d="M1906.293,1118.736l-12.69,37.272-.117.348h-52.964l13.156-37.619Z" transform="translate(-1818.449 -1118.736)" fill="#f99746"/>
        <path id="Path_15397" data-name="Path 15397" d="M1956.56,1175.4a3.472,3.472,0,0,1-3.2,2.6,2,2,0,0,1-2-2.6,3.472,3.472,0,0,1,3.2-2.6A2,2,0,0,1,1956.56,1175.4Z" transform="translate(-1896.72 -1156.939)" fill="#ffc397"/>
        <path id="Path_15398" data-name="Path 15398" d="M1975.539,1118.736l-12.691,37.272h-24.334l29.672-37.272Z" transform="translate(-1887.695 -1118.736)" fill="#ed7d2b"/>
      </g>
      <g id="Group_7409" data-name="Group 7409" transform="translate(10281.148 10732.868)">
        <path id="Path_15399" data-name="Path 15399" d="M2097.885,1118.736l12.893,37.66,53.665-.04-13.156-37.619Z" transform="translate(-2097.885 -1118.736)" fill="#ed7d2b"/>
        <path id="Path_15400" data-name="Path 15400" d="M2103.1,1121.555l12.4,36.452.115.34h51.733l-12.851-36.792Z" transform="translate(-2101.567 -1120.728)" fill="#b0d4ff"/>
        <path id="Path_15401" data-name="Path 15401" d="M2139.98,1240.38l74.951-.04h0a2.754,2.754,0,0,0-2.754-2.754H2139.21Z" transform="translate(-2127.087 -1202.72)" fill="#ed7d2b"/>
      </g>
      <g id="Group_7418" data-name="Group 7418" transform="translate(10282.952 10679.318)">
        <path id="Rectangle_2233" data-name="Rectangle 2233" d="M6.053,0h0a6.052,6.052,0,0,1,6.052,6.052V9.029a6.052,6.052,0,0,1-6.052,6.052h0A6.053,6.053,0,0,1,0,9.029V6.053A6.053,6.053,0,0,1,6.053,0Z" transform="translate(102.431 12.191)" fill="#ed7d2b"/>
        <g id="Group_7413" data-name="Group 7413" transform="translate(0 0.619)">
          <g id="Group_7410" data-name="Group 7410">
            <path id="Path_15402" data-name="Path 15402" d="M2302.734,1605.532s-.756,11.784-3.037,11.948c-.3.022-11.565,0-11.565,0l-14.375-.115s.1-3.464,4.306-4.187,11.243-3.661,13.8-9.209C2294.553,1598.13,2302.734,1605.532,2302.734,1605.532Z" transform="translate(-2223.967 -1407.104)" fill="#0e2c4f"/>
            <path id="Path_15403" data-name="Path 15403" d="M2380.872,1284.3c.549.462,15.19,16.327,13.995,28.511a7.029,7.029,0,0,1-7.03,6.269H2370s-18.2,3.252-18.633,7.185-4.157,25.131-11.537,55.257c0,0-5.438,1.872-8.737.535-4.362-1.768-4.995-3.644-4.995-3.644s4.4-67.457,7.871-72.2,39.248-18.861,50.832-20.266S2380.872,1284.3,2380.872,1284.3Z" transform="translate(-2260.955 -1182.796)" fill="#163560"/>
            <path id="Path_15404" data-name="Path 15404" d="M2120.519,1224.363s-10.348-2.407-12.995,0a13.043,13.043,0,0,0-3.49,5.9h16.485Z" transform="translate(-2104.034 -1139.69)" fill="#ffb27d"/>
            <path id="Path_15405" data-name="Path 15405" d="M2216.847,1605.532s-.757,11.784-3.037,11.948c-.3.022-11.565,0-11.565,0l-14.375-.115s.1-3.464,4.306-4.187,11.243-3.661,13.8-9.209C2208.667,1598.13,2216.847,1605.532,2216.847,1605.532Z" transform="translate(-2163.276 -1407.104)" fill="#163560"/>
            <path id="Path_15406" data-name="Path 15406" d="M2335.432,1284.3c.417.35,3.585,8.877,5.7,18.56a13.361,13.361,0,0,1-13.048,16.22H2286.6s-18.2,3.252-18.632,7.185-4.158,25.131-11.538,55.257c0,0-5.457,1.432-9.718-.389a12.036,12.036,0,0,1-4.053-3.291s4.438-66.886,7.911-71.633,39.248-18.861,50.832-20.266S2335.432,1284.3,2335.432,1284.3Z" transform="translate(-2201.99 -1182.796)" fill="#2b478b"/>
            <path id="Path_15407" data-name="Path 15407" d="M2438.726,1040.071l-6.417,6.159-10.932,0c-.012-.879.024-4.545.063-7.867,0-.2.007-.391.008-.583.008-.737.019-1.449.026-2.1.021-1.83.04-3.156.04-3.156l2.81-1.922,6.244-4.275,3.377-2.308c0,.057.28,3.077.321,3.516A25.6,25.6,0,0,0,2438.726,1040.071Z" transform="translate(-2328.28 -998.878)" fill="#ffb27d"/>
            <path id="Path_15408" data-name="Path 15408" d="M2415.98,1062.974c.209-.088,12.037-5.394,13.421-4.938s3.108,4.682,3.108,4.682l-20.828,4.709S2413.319,1064.095,2415.98,1062.974Z" transform="translate(-2321.429 -1022.893)" fill="#b7d3f3"/>
            <path id="Path_15409" data-name="Path 15409" d="M2289.455,1109.767c-2.254-13.9-11.769-24.3-15.841-28.2-2.734-4.112-18.793-7.506-18.793-7.506l-20.829,4.709A26.543,26.543,0,0,0,2215.634,1091c-4.094,6.771-15.82,22.26-23.521,22.741s-31.885,5.174-31.885,5.174v5.948l36.871,1.012a6.29,6.29,0,0,0,1.342-.106c3.173-.6,16.773-3.3,23.537-6.822,1.08,17.417,2.356,44.013,8.439,48.236,6.434,4.468,51.681,5.065,56.472-1.744,2.452-3.484-.555-24.117-4.311-44.011C2287.247,1119.2,2290.4,1115.593,2289.455,1109.767Z" transform="translate(-2143.742 -1034.238)" fill="#d2e3fc"/>
            <path id="Path_15410" data-name="Path 15410" d="M2432.436,1044.3l-.558.346a44.744,44.744,0,0,1-10.164,5.366c.021-1.83.04-3.156.04-3.156l2.81-1.922Z" transform="translate(-2328.52 -1013.208)" fill="#eaa16e"/>
            <path id="Path_15411" data-name="Path 15411" d="M2399.408,986.016s16.821,1.99,17.9-8.5,3.975-17.305-6.719-19.02-13.2,2.075-14.407,5.491S2395.06,985.227,2399.408,986.016Z" transform="translate(-2310.005 -952.269)" fill="#ffb27d"/>
            <path id="Path_15412" data-name="Path 15412" d="M2393.747,948.944s3.175,11.385,5.475,10.435,4.4-1.727,4.7,1.827,1.637,7.722,9.129,6.961,10.641-21.283,7.942-24.507C2413.207,934.36,2382.928,937.844,2393.747,948.944Z" transform="translate(-2307.125 -938.305)" fill="#163560"/>
          </g>
          <g id="Group_7412" data-name="Group 7412" transform="translate(60.507 50.226)">
            <path id="Rectangle_2234" data-name="Rectangle 2234" d="M9.443,0H88.927a0,0,0,0,1,0,0V9.443a0,0,0,0,1,0,0H0a0,0,0,0,1,0,0v0A9.443,9.443,0,0,1,9.443,0Z" transform="translate(103.128 88.311) rotate(180)" fill="#77a4e5"/>
            <path id="Rectangle_2235" data-name="Rectangle 2235" d="M4.721,0H66.688a4.721,4.721,0,0,1,4.721,4.721v0a4.722,4.722,0,0,1-4.722,4.722H4.721A4.721,4.721,0,0,1,0,4.722v0A4.721,4.721,0,0,1,4.721,0Z" transform="translate(71.409 88.311) rotate(180)" fill="#f99746"/>
            <g id="Group_7411" data-name="Group 7411" transform="translate(29.795 88.311)">
              <path id="Path_15413" data-name="Path 15413" d="M2500.156,1478.843h5.367l1.506-68.295h-8.2Z" transform="translate(-2473.315 -1410.548)" fill="#2b478b"/>
              <path id="Path_15414" data-name="Path 15414" d="M2423.841,1626.214h52.2V1621.5l-26.6-2.4-25.593,2.4Z" transform="translate(-2420.324 -1557.92)" fill="#2b478b"/>
              <path id="Path_15415" data-name="Path 15415" d="M2598.367,1630.485a4.294,4.294,0,1,0-4.293,4.293A4.294,4.294,0,0,0,2598.367,1630.485Z" transform="translate(-2537.584 -1562.93)" fill="#2b478b"/>
              <path id="Path_15416" data-name="Path 15416" d="M2420.441,1630.485a4.293,4.293,0,1,0-4.293,4.293A4.294,4.294,0,0,0,2420.441,1630.485Z" transform="translate(-2411.854 -1562.93)" fill="#2b478b"/>
              <path id="Path_15417" data-name="Path 15417" d="M2419.425,1415.028h48.455a4.481,4.481,0,0,0,4.481-4.48h-57.417A4.481,4.481,0,0,0,2419.425,1415.028Z" transform="translate(-2414.037 -1410.548)" fill="#2b478b"/>
            </g>
            <path id="Path_15418" data-name="Path 15418" d="M2467.007,1197.825a4.085,4.085,0,0,0,4.086-4.086v-62.887c0-11.785-7.7-21.338-17.209-21.338h-38.915c-9.5,0-17.209,9.553-17.209,21.338v66.973Z" transform="translate(-2372.1 -1109.514)" fill="#f99746"/>
            <path id="Path_15419" data-name="Path 15419" d="M2477.736,1197.825a7.451,7.451,0,0,0,7.451-7.451v-59.522c0-11.785-7.7-21.338-17.209-21.338h-38.915c-9.5,0-17.209,9.553-17.209,21.338v66.973Z" transform="translate(-2382.059 -1109.514)" fill="#cc6a27"/>
          </g>
        </g>
        <g id="Group_7415" data-name="Group 7415" transform="translate(81.195 22.128)">
          <g id="Group_7414" data-name="Group 7414" transform="translate(1.731)">
            <path id="Path_15420" data-name="Path 15420" d="M2387.21,1024.09a18.559,18.559,0,0,0,11.976-12.21l-1.024-.253.512.127-.511-.127a17.476,17.476,0,0,1-11.27,11.458l-.182.056.307,1.009Z" transform="translate(-2386.71 -1011.626)" fill="#122544"/>
          </g>
          <path id="Path_15421" data-name="Path 15421" d="M2381.954,1051.713l.905-.286a.882.882,0,0,0,.573-1.1h0a.882.882,0,0,0-1.1-.573l-.905.286a.881.881,0,0,0-.573,1.1h0A.881.881,0,0,0,2381.954,1051.713Z" transform="translate(-2380.81 -1038.538)" fill="#ed7d2b"/>
        </g>
        <g id="Group_7417" data-name="Group 7417" transform="translate(87.862)">
          <path id="Path_15422" data-name="Path 15422" d="M2411.225,1005.9l-.7.1a5.717,5.717,0,0,1-6.43-4.863l-.506-3.646a5.717,5.717,0,0,1,4.863-6.43l.7-.1a5.718,5.718,0,0,1,6.43,4.863l.505,3.646A5.717,5.717,0,0,1,2411.225,1005.9Z" transform="translate(-2403.538 -974.856)" fill="#ed7d2b"/>
          <g id="Group_7416" data-name="Group 7416" transform="translate(3.054)">
            <path id="Path_15423" data-name="Path 15423" d="M2414.02,953.939c-.414-.777,1.039-6.815,3.177-11.5,1.033-2.264,3.641-5.294,5.5-6.075a4.009,4.009,0,0,1,2.295,0,13.068,13.068,0,0,1,2.014.981c-6.118,1.907-11.434,14.558-11.049,15.885a.457.457,0,0,0-.041-.094Z" transform="translate(-2413.949 -936.195)" fill="#ed7d2b"/>
          </g>
          <path id="Path_15424" data-name="Path 15424" d="M2415.734,1011.662l-.347.048a2.849,2.849,0,0,1-3.2-2.423l-.252-1.816a2.848,2.848,0,0,1,2.423-3.2l.348-.048a2.848,2.848,0,0,1,3.2,2.423l.252,1.816A2.848,2.848,0,0,1,2415.734,1011.662Z" transform="translate(-2409.45 -984.244)" fill="#f99746"/>
        </g>
      </g>
    </g>
  </g>
</svg>
