<svg id="Layer_1" data-name="Layer 1" xmlns="http://www.w3.org/2000/svg" viewBox="0 0 2000 2000"><defs><style>.cls-1{fill:#6d6e71;}</style></defs><path class="cls-1" d="M993,644.46v-3.28h155.44V530.89A34.49,34.49,0,0,0,1114,496.43H886.54a34.5,34.5,0,0,0-34.46,34.46V788.17l5.17-.29C933.35,783.49,993,720.49,993,644.46Z"/><path class="cls-1" d="M1148.41,1061.21V804.42l-5.14.27a142.76,142.76,0,0,0-135.41,142.67v3.28H852.08v110.57a34.5,34.5,0,0,0,34.46,34.46H1114A34.49,34.49,0,0,0,1148.41,1061.21Z"/><path class="cls-1" d="M1009.22,652.5a143.74,143.74,0,0,0,143.41,135.19H1156l.13,156H1266.4a34.48,34.48,0,0,0,34.45-34.45V681.78a34.49,34.49,0,0,0-34.45-34.46H1008.93Z"/><path class="cls-1" d="M733.61,944.08H991.89l-.29-5.17C987.18,863.54,924.53,804.5,849,804.5h-4l-.56-3.27V647.74H733.61a34.5,34.5,0,0,0-34.46,34.46V909.63A34.5,34.5,0,0,0,733.61,944.08Z"/><path class="cls-1" d="M617.06,1396.93a83.45,83.45,0,0,0-28.62-11.79c-9.56-1.9-19.71-3.65-30.15-5.22a147.84,147.84,0,0,1-30-7.55c-11.64-4.6-17.55-10.3-17.55-16.92,0-10.68,4.53-18.34,13.85-23.43,9.6-5.24,19.25-7.9,28.68-7.9,21.91,0,34.94,9.83,39.85,30.07,1.82,7.3,9.19,11,21.93,11,14.52-.43,21.88-4.7,21.88-12.7a12.45,12.45,0,0,0-.66-3.88c-4.86-18-15.72-31-32.28-38.89a117.32,117.32,0,0,0-50.52-11.6c-16.84,0-35.54,4.32-55.56,12.84-20.6,8.78-31,23.88-31,44.87,0,17.83,8.58,32.57,25.49,43.8a78.45,78.45,0,0,0,29.38,12.11c10,1.82,20.34,3.48,30.85,4.93,12.34,1.67,22.4,4.2,29.92,7.51,10.52,4.59,15.85,10.36,15.85,17.15,0,11.66-4.79,20.37-14.66,26.64s-20.4,9.6-30.82,9.6c-25.12,0-40.53-12-47.12-36.56-1.82-7.17-9.18-10.81-21.87-10.81-14.56,0-21.94,4.34-21.94,12.9a13.8,13.8,0,0,0,.87,4.13c5.92,19.88,17.68,34.42,35,43.23a120.63,120.63,0,0,0,55.29,13.1c18.2,0,37.68-4.9,57.9-14.55,20.75-9.89,31.26-26.33,31.26-48.86C642.2,1422.05,633.74,1407.51,617.06,1396.93Z"/><path class="cls-1" d="M849.37,1298.33c-9.39,0-15,2.34-17,7.15l-63,145-63.13-142.85c-2.71-6.18-10-9.31-21.77-9.31-15.6,0-23.51,4.07-23.51,12.1a9.69,9.69,0,0,0,.77,3.41l79.61,180.25c2.85,6.29,10.56,9.48,22.94,9.48s20-3.2,22.74-9.51l79.72-183.91a11.24,11.24,0,0,0,.45-2.47C867.18,1301.47,861.19,1298.33,849.37,1298.33Z"/><path class="cls-1" d="M1090.11,1481.2h0c-7.78-4.43-11.72-14.6-11.72-30.23v-84.71c0-25-10.58-42.85-31.44-53.08-20.37-10-41.11-15-61.66-15-25.58,0-47.52,5.87-65.23,17.44-18.09,12-27.27,26.24-27.27,42.24,0,8.55,7.32,12.89,21.75,12.89,14.68,0,22.13-4.34,22.13-12.89,0-9.55,5.29-17.6,16.14-24.59a59.22,59.22,0,0,1,32.48-9.1c33.12,0,49.22,13.79,49.22,42.14v17.39c-6.08,2.85-16,4.3-29.56,4.3-5.44,0-11.2-.13-17.11-.39q-9.2-.39-15.52-.39a169.7,169.7,0,0,0-56.91,9.75c-18.92,6.72-28.51,22.65-28.51,47.37,0,21.76,9.7,37.3,28.83,46.22,18.6,8.66,37.24,13.06,55.41,13.06,11.38,0,24.34-1.64,38.5-4.87,13.15-3,24-8.88,32.39-17.55,3,7.58,8.73,13.89,17.07,18.78,4,2.42,9.18,3.64,15.43,3.64s11.15-1.08,14.91-3.18c4.8-2.47,7.23-5.8,7.23-9.91C1096.67,1486.81,1094.46,1483.69,1090.11,1481.2Zm-55.6-68.86v16.42c0,15.61-6.75,27.35-20.63,35.86s-28.38,13-42.74,13c-27,0-40.17-10.89-40.17-33.29,0-21.08,13.53-31.33,41.35-31.33,6,0,12.2.16,18.37.49s12.35.49,18.39.49A175.78,175.78,0,0,0,1034.51,1412.34Z"/><path class="cls-1" d="M1327.32,1481.2h0c-7.77-4.43-11.71-14.6-11.71-30.23v-84.71c0-25-10.58-42.85-31.45-53.08-20.36-10-41.11-15-61.65-15-25.58,0-47.53,5.87-65.23,17.44-18.1,12-27.27,26.24-27.27,42.24,0,8.55,7.31,12.89,21.74,12.89,14.69,0,22.14-4.34,22.14-12.89,0-9.55,5.28-17.6,16.14-24.59a59.18,59.18,0,0,1,32.48-9.1c33.12,0,49.21,13.79,49.21,42.14v17.39c-6.08,2.85-16,4.3-29.55,4.3-5.45,0-11.2-.13-17.12-.39-6.12-.26-11.3-.39-15.51-.39a169.61,169.61,0,0,0-56.91,9.75c-18.92,6.72-28.51,22.65-28.51,47.37,0,21.76,9.69,37.31,28.82,46.22,18.6,8.66,37.24,13.06,55.41,13.06,11.39,0,24.35-1.64,38.51-4.87,13.14-3,24-8.88,32.39-17.55,3,7.58,8.73,13.89,17.06,18.78,4,2.42,9.18,3.64,15.44,3.64,6.11,0,11.14-1.08,14.91-3.18,4.79-2.47,7.22-5.8,7.22-9.91C1333.87,1486.81,1331.67,1483.69,1327.32,1481.2Zm-55.61-68.86v16.42c0,15.61-6.74,27.35-20.62,35.86s-28.39,13-42.75,13c-27,0-40.16-10.89-40.16-33.29,0-21.08,13.53-31.33,41.35-31.33,6,0,12.2.16,18.37.49s12.35.49,18.39.49A175.73,175.73,0,0,0,1271.71,1412.34Z"/><path class="cls-1" d="M1512.94,1396.93a83.45,83.45,0,0,0-28.62-11.79c-9.56-1.9-19.71-3.65-30.16-5.22a147.91,147.91,0,0,1-30-7.55c-11.65-4.6-17.55-10.3-17.55-16.92,0-10.68,4.53-18.34,13.85-23.43,9.6-5.24,19.25-7.9,28.68-7.9,21.91,0,34.94,9.83,39.85,30.07,1.82,7.3,9.19,11,21.93,11,14.52-.43,21.88-4.7,21.88-12.7a12.45,12.45,0,0,0-.66-3.88c-4.86-18-15.72-31-32.29-38.89a117.28,117.28,0,0,0-50.51-11.6c-16.84,0-35.54,4.32-55.57,12.84-20.59,8.77-31,23.87-31,44.87,0,17.83,8.58,32.57,25.49,43.8a78.45,78.45,0,0,0,29.38,12.11c10,1.82,20.34,3.48,30.85,4.93,12.34,1.67,22.4,4.2,29.92,7.51,10.52,4.59,15.85,10.36,15.85,17.15,0,11.66-4.79,20.37-14.66,26.64s-20.4,9.6-30.82,9.6c-25.12,0-40.53-12-47.12-36.56-1.82-7.17-9.18-10.81-21.87-10.81-14.56,0-21.94,4.34-21.94,12.9a13.8,13.8,0,0,0,.87,4.13c5.92,19.88,17.67,34.42,35,43.23a120.66,120.66,0,0,0,55.29,13.1c18.2,0,37.68-4.9,57.9-14.55,20.75-9.89,31.26-26.33,31.26-48.86C1538.08,1422.05,1529.62,1407.51,1512.94,1396.93Z"/></svg>