<svg xmlns="http://www.w3.org/2000/svg" width="74.581" height="70.147" viewBox="0 0 74.581 70.147">
  <g id="SvaasLogo_Openfilecoloursvg.2c6f39dd" transform="translate(-461.96 -493.87)">
    <rect id="Rectangle_504" data-name="Rectangle 504" width="21.071" height="21.071" transform="translate(488.727 504.396)" fill="#fff"/>
    <path id="Path_556" data-name="Path 556" d="M869.292,496.495v7.9H858.477a10.251,10.251,0,0,1-10.221,10.221h-.035V496.495a2.624,2.624,0,0,1,2.624-2.625h15.822A2.625,2.625,0,0,1,869.292,496.495Z" transform="translate(-359.493 0)" fill="#494e9d"/>
    <path id="Path_557" data-name="Path 557" d="M869.292,803.14v18.087a2.625,2.625,0,0,1-2.625,2.625H850.844a2.624,2.624,0,0,1-2.624-2.625v-7.92h10.837a10.166,10.166,0,0,1,10.167-10.167Z" transform="translate(-359.493 -287.839)" fill="#ffc06c"/>
    <path id="Path_558" data-name="Path 558" d="M1025.38,648.4v15.824a2.625,2.625,0,0,1-2.625,2.625h-7.9V655.991h-.014a10.221,10.221,0,0,1-10.221-10.221h18.136A2.625,2.625,0,0,1,1025.38,648.4Z" transform="translate(-505.055 -141.374)" fill="#4dcebf"/>
    <path id="Path_559" data-name="Path 559" d="M716.628,666.842H698.435a2.625,2.625,0,0,1-2.625-2.623V648.4a2.625,2.625,0,0,1,2.625-2.625h7.937v10.905h.09A10.166,10.166,0,0,1,716.628,666.842Z" transform="translate(-217.645 -141.374)" fill="#ff9499"/>
    <path id="Path_560" data-name="Path 560" d="M468.151,1318.035a8.2,8.2,0,0,1-3.78-.9,4.566,4.566,0,0,1-2.356-2.919.891.891,0,0,1-.055-.247q0-.752,1.381-.752,1.217,0,1.381.642a3.235,3.235,0,0,0,3.418,2.653,4.091,4.091,0,0,0,2.222-.693,2.208,2.208,0,0,0,1.087-1.976q0-.807-1.19-1.326a8.03,8.03,0,0,0-2.119-.534q-1.094-.15-2.14-.342a5.27,5.27,0,0,1-1.99-.821,3.4,3.4,0,0,1-1.709-2.926,3.053,3.053,0,0,1,2.071-2.988,9.806,9.806,0,0,1,3.811-.882,7.978,7.978,0,0,1,3.452.793,3.875,3.875,0,0,1,2.168,2.612.747.747,0,0,1,.041.232q0,.7-1.381.738-1.218,0-1.381-.656a2.678,2.678,0,0,0-2.911-2.2,4.279,4.279,0,0,0-2.064.568,1.871,1.871,0,0,0-1.039,1.757q0,.793,1.313,1.313a10.4,10.4,0,0,0,2.119.533q1.094.164,2.092.362a5.642,5.642,0,0,1,1.94.8,3.271,3.271,0,0,1,1.682,2.885,3.381,3.381,0,0,1-2.092,3.267A9.286,9.286,0,0,1,468.151,1318.035Z" transform="translate(0 -754.018)" fill="#494e9d"/>
    <path id="Path_561" data-name="Path 561" d="M668.763,1318.222q-1.2,0-1.464-.575l-5.538-12.538a.544.544,0,0,1-.041-.178q0-.7,1.491-.7,1.135,0,1.381.561l4.526,10.242,4.512-10.395q.177-.411,1.053-.41,1.094,0,1.094.506a.827.827,0,0,1-.027.139l-5.538,12.772Q669.966,1318.221,668.763,1318.222Z" transform="translate(-185.917 -754.204)" fill="#494e9d"/>
    <path id="Path_562" data-name="Path 562" d="M901.44,1318.072a1.905,1.905,0,0,1-1-.233,2.422,2.422,0,0,1-1.2-1.463,4.213,4.213,0,0,1-2.346,1.36,12.093,12.093,0,0,1-2.648.335,8.932,8.932,0,0,1-3.794-.9,3.138,3.138,0,0,1-1.921-3.084q0-2.488,1.886-3.158a11.6,11.6,0,0,1,3.911-.67c.291,0,.649.009,1.073.027s.823.028,1.2.028a4.948,4.948,0,0,0,2.2-.355v-1.3q0-3.077-3.569-3.076a4.244,4.244,0,0,0-2.338.656,2.187,2.187,0,0,0-1.19,1.832q0,.751-1.395.752-1.367,0-1.367-.752a3.426,3.426,0,0,1,1.832-2.817,7.973,7.973,0,0,1,4.458-1.19,9.528,9.528,0,0,1,4.227,1.032,3.643,3.643,0,0,1,2.106,3.562v5.89q0,1.724.888,2.23a.623.623,0,0,1,.383.519.639.639,0,0,1-.424.561A1.966,1.966,0,0,1,901.44,1318.072Zm-7.194-1.518a5.777,5.777,0,0,0,3.049-.922,2.91,2.91,0,0,0,1.5-2.619V1311.7a11.379,11.379,0,0,1-1.914.138q-.63,0-1.272-.035t-1.285-.034q-3.023,0-3.022,2.324Q891.307,1316.554,894.245,1316.554Z" transform="translate(-397.01 -754.055)" fill="#494e9d"/>
    <path id="Path_563" data-name="Path 563" d="M1139.638,1318.072a1.905,1.905,0,0,1-1-.233,2.425,2.425,0,0,1-1.2-1.463,4.21,4.21,0,0,1-2.345,1.36,12.088,12.088,0,0,1-2.646.335,8.932,8.932,0,0,1-3.794-.9,3.139,3.139,0,0,1-1.922-3.084q0-2.488,1.887-3.158a11.593,11.593,0,0,1,3.91-.67q.438,0,1.073.027t1.2.028a4.948,4.948,0,0,0,2.2-.355v-1.3q0-3.077-3.569-3.076a4.244,4.244,0,0,0-2.338.656,2.183,2.183,0,0,0-1.19,1.832q0,.751-1.395.752-1.367,0-1.367-.752a3.426,3.426,0,0,1,1.832-2.817,7.969,7.969,0,0,1,4.458-1.19,9.53,9.53,0,0,1,4.227,1.032,3.643,3.643,0,0,1,2.106,3.562v5.89q0,1.724.888,2.23a.623.623,0,0,1,.383.519.639.639,0,0,1-.424.561A1.991,1.991,0,0,1,1139.638,1318.072Zm-7.193-1.518a5.778,5.778,0,0,0,3.049-.922,2.909,2.909,0,0,0,1.5-2.619V1311.7a11.374,11.374,0,0,1-1.914.138q-.63,0-1.272-.035t-1.286-.034q-3.022,0-3.021,2.324,0,2.459,2.936,2.459Z" transform="translate(-618.703 -754.055)" fill="#494e9d"/>
    <path id="Path_564" data-name="Path 564" d="M1367.5,1318.035a8.2,8.2,0,0,1-3.781-.9,4.57,4.57,0,0,1-2.356-2.919.881.881,0,0,1-.056-.247q0-.752,1.381-.752,1.218,0,1.381.642a3.236,3.236,0,0,0,3.418,2.653,4.089,4.089,0,0,0,2.222-.693,2.209,2.209,0,0,0,1.087-1.976q0-.807-1.19-1.326a8.03,8.03,0,0,0-2.12-.534q-1.093-.15-2.14-.342a5.259,5.259,0,0,1-1.989-.821,3.4,3.4,0,0,1-1.71-2.926,3.053,3.053,0,0,1,2.071-2.988,9.808,9.808,0,0,1,3.812-.882,7.983,7.983,0,0,1,3.452.793,3.88,3.88,0,0,1,2.168,2.612.742.742,0,0,1,.041.232q0,.7-1.381.738-1.218,0-1.381-.656a2.679,2.679,0,0,0-2.91-2.2,4.28,4.28,0,0,0-2.065.568,1.871,1.871,0,0,0-1.039,1.757q0,.793,1.317,1.313a10.39,10.39,0,0,0,2.12.533q1.093.164,2.092.362a5.649,5.649,0,0,1,1.94.8,3.271,3.271,0,0,1,1.681,2.885,3.381,3.381,0,0,1-2.092,3.267A9.287,9.287,0,0,1,1367.5,1318.035Z" transform="translate(-837.027 -754.018)" fill="#494e9d"/>
  </g>
</svg>
