<svg id="Layer_1" data-name="Layer 1" xmlns="http://www.w3.org/2000/svg" viewBox="0 0 2000 2000"><defs><style>.cls-1{fill:#fff;}.cls-2{fill:#494e9d;}.cls-3{fill:#ffc06c;}.cls-4{fill:#4dcebf;}.cls-5{fill:#ff9499;}</style></defs><rect class="cls-1" x="848.22" y="645.77" width="304.07" height="304.07"/><path class="cls-2" d="M1152.29,531.75v114H996.23c0,81.12-66.37,147.5-147.5,147.5h-.51V531.75a37.87,37.87,0,0,1,37.87-37.88h228.32A37.88,37.88,0,0,1,1152.29,531.75Z"/><path class="cls-3" d="M1152.29,803.14v261a37.88,37.88,0,0,1-37.88,37.88H886.09a37.87,37.87,0,0,1-37.87-37.88V949.85H1004.6a146.7,146.7,0,0,1,146.71-146.71Z"/><path class="cls-4" d="M1304.19,683.65V912a37.88,37.88,0,0,1-37.88,37.88h-114V793.27h-.2a147.49,147.49,0,0,1-147.49-147.5h261.71A37.88,37.88,0,0,1,1304.19,683.65Z"/><path class="cls-5" d="M996.23,949.85H733.69A37.88,37.88,0,0,1,695.81,912V683.65a37.88,37.88,0,0,1,37.88-37.88H848.22V803.14h1.3A146.71,146.71,0,0,1,996.23,949.85Z"/><path class="cls-2" d="M551.3,1506.13a118.37,118.37,0,0,1-54.55-12.93q-25.37-12.92-34-42.12a12.8,12.8,0,0,1-.79-3.56q0-10.85,19.93-10.85,17.56,0,19.93,9.27,10.26,38.28,49.33,38.28,16.36,0,32.06-10t15.69-28.51q0-11.65-17.17-19.14-11.64-5.13-30.58-7.7-15.79-2.17-30.88-4.93a76.08,76.08,0,0,1-28.71-11.84q-24.66-16.37-24.66-42.22,0-30.39,29.89-43.12t55-12.73a115.17,115.17,0,0,1,49.82,11.45q24.18,11.45,31.28,37.69a10.72,10.72,0,0,1,.59,3.35q0,10.07-19.93,10.65-17.57,0-19.93-9.47-7.69-31.77-42-31.76-14.79,0-29.79,8.19t-15,25.35q0,11.45,18.95,18.94a149.8,149.8,0,0,0,30.58,7.69q15.78,2.37,30.19,5.23a81.47,81.47,0,0,1,28,11.55q24.27,15.39,24.27,41.64,0,32.75-30.19,47.15T551.3,1506.13Z"/><path class="cls-2" d="M763.35,1506.13q-17.37,0-21.12-8.29L662.31,1316.9a7.83,7.83,0,0,1-.59-2.57q0-10.07,21.51-10.06,16.38,0,19.93,8.09l65.32,147.79,65.11-150q2.56-5.93,15.19-5.92,15.79,0,15.79,7.3a11.8,11.8,0,0,1-.39,2l-79.92,184.3Q780.71,1506.12,763.35,1506.13Z"/><path class="cls-2" d="M1074.82,1506.13q-8.88,0-14.41-3.36-13.82-8.08-17.35-21.11-12.64,14.8-33.85,19.63T971,1506.13q-27,0-54.75-12.93t-27.72-44.5q0-35.9,27.22-45.57a167.33,167.33,0,0,1,56.44-9.67c4.2,0,9.37.13,15.48.39s11.88.4,17.27.4q22.29,0,31.77-5.13v-18.75q0-44.4-51.5-44.39-18.94,0-33.74,9.47-17.16,11.05-17.17,26.44,0,10.84-20.13,10.85-19.73,0-19.73-10.85,0-23.09,26.44-40.65,26.25-17.17,64.33-17.17,30.59,0,61,14.9t30.39,51.4v85q0,24.87,12.82,32.17,5.52,3.17,5.53,7.5c0,3.28-2,6-6.12,8.09Q1083.51,1506.13,1074.82,1506.13ZM971,1484.22q22.29,0,44-13.31t21.71-37.79v-18.94a163.94,163.94,0,0,1-27.62,2q-9.09,0-18.36-.5t-18.54-.49q-43.62,0-43.61,33.54Q928.61,1484.22,971,1484.22Z"/><path class="cls-2" d="M1313,1506.13q-8.88,0-14.41-3.36-13.82-8.08-17.36-21.11-12.63,14.8-33.84,19.63t-38.18,4.84q-27,0-54.75-12.93t-27.73-44.5q0-35.9,27.23-45.57a167.32,167.32,0,0,1,56.43-9.67q6.32,0,15.49.39t17.27.4q22.29,0,31.77-5.13v-18.75q0-44.4-51.5-44.39-18.94,0-33.74,9.47-17.18,11.05-17.17,26.44,0,10.84-20.13,10.85-19.72,0-19.73-10.85,0-23.09,26.44-40.65,26.24-17.17,64.33-17.17,30.59,0,61,14.9t30.39,51.4v85q0,24.87,12.82,32.17,5.52,3.17,5.53,7.5c0,3.28-2,6-6.12,8.09Q1321.64,1506.13,1313,1506.13Zm-103.79-21.91q22.29,0,44-13.31t21.71-37.79v-18.94a163.94,163.94,0,0,1-27.62,2q-9.09,0-18.36-.5t-18.55-.49q-43.6,0-43.6,33.54Q1166.74,1484.22,1209.16,1484.22Z"/><path class="cls-2" d="M1450.67,1506.13a118.38,118.38,0,0,1-54.56-12.93q-25.35-12.92-34-42.12a12.54,12.54,0,0,1-.8-3.56q0-10.85,19.93-10.85,17.57,0,19.93,9.27,10.27,38.28,49.33,38.28,16.38,0,32.07-10t15.69-28.51q0-11.65-17.17-19.14-11.64-5.13-30.59-7.7-15.78-2.17-30.88-4.93a76,76,0,0,1-28.7-11.84q-24.67-16.37-24.67-42.22,0-30.39,29.89-43.12t55-12.73a115.2,115.2,0,0,1,49.82,11.45q24.16,11.45,31.28,37.69a10.72,10.72,0,0,1,.59,3.35q0,10.07-19.93,10.65-17.57,0-19.93-9.47-7.7-31.77-42-31.76-14.8,0-29.8,8.19t-15,25.35q0,11.45,19,18.94a149.73,149.73,0,0,0,30.59,7.69q15.77,2.37,30.18,5.23a81.51,81.51,0,0,1,28,11.55q24.26,15.39,24.26,41.64,0,32.75-30.19,47.15T1450.67,1506.13Z"/></svg>