<svg xmlns="http://www.w3.org/2000/svg" width="99.111" height="93.22" viewBox="0 0 99.111 93.22">
  <g id="SvaasLogo_Openfilecoloursvg.2c6f39dd" transform="translate(-461.96 -493.87)">
    <rect id="Rectangle_504" data-name="Rectangle 504" width="28.002" height="28.002" transform="translate(497.531 507.859)" fill="#fff"/>
    <path id="Path_556" data-name="Path 556" d="M876.222,497.358v10.5H861.85a13.623,13.623,0,0,1-13.583,13.583h-.047V497.358a3.487,3.487,0,0,1,3.488-3.488h21.026A3.488,3.488,0,0,1,876.222,497.358Z" transform="translate(-350.689 0)" fill="#494e9d"/>
    <path id="Path_557" data-name="Path 557" d="M876.222,803.14v24.035a3.488,3.488,0,0,1-3.488,3.488H851.708a3.487,3.487,0,0,1-3.488-3.488V816.651h14.4a13.51,13.51,0,0,1,13.512-13.51Z" transform="translate(-350.689 -280.79)" fill="#ffc06c"/>
    <path id="Path_558" data-name="Path 558" d="M1032.208,649.259v21.029a3.488,3.488,0,0,1-3.488,3.488h-10.5V659.353h-.018a13.582,13.582,0,0,1-13.583-13.583h24.1A3.489,3.489,0,0,1,1032.208,649.259Z" transform="translate(-492.686 -137.912)" fill="#4dcebf"/>
    <path id="Path_559" data-name="Path 559" d="M723.476,673.773H699.3a3.488,3.488,0,0,1-3.488-3.486V649.259a3.488,3.488,0,0,1,3.488-3.488h10.547v14.492h.12A13.51,13.51,0,0,1,723.476,673.773Z" transform="translate(-212.315 -137.912)" fill="#ff9499"/>
    <path id="Path_560" data-name="Path 560" d="M470.187,1322.642a10.9,10.9,0,0,1-5.023-1.191,6.068,6.068,0,0,1-3.131-3.879,1.179,1.179,0,0,1-.073-.328q0-1,1.835-1,1.617,0,1.835.854a4.3,4.3,0,0,0,4.543,3.525,5.436,5.436,0,0,0,2.952-.921,2.935,2.935,0,0,0,1.445-2.625q0-1.073-1.581-1.762a10.656,10.656,0,0,0-2.816-.709q-1.454-.2-2.844-.454a7.011,7.011,0,0,1-2.644-1.091,4.514,4.514,0,0,1-2.271-3.888,4.058,4.058,0,0,1,2.753-3.971,13.03,13.03,0,0,1,5.065-1.172,10.6,10.6,0,0,1,4.588,1.054,5.149,5.149,0,0,1,2.88,3.471,1,1,0,0,1,.055.309q0,.927-1.835.981-1.618,0-1.835-.872a3.559,3.559,0,0,0-3.868-2.925,5.688,5.688,0,0,0-2.743.754,2.487,2.487,0,0,0-1.381,2.334q0,1.054,1.745,1.744a13.838,13.838,0,0,0,2.816.708q1.453.218,2.78.481a7.5,7.5,0,0,1,2.579,1.064,4.347,4.347,0,0,1,2.235,3.835,4.493,4.493,0,0,1-2.78,4.342A12.339,12.339,0,0,1,470.187,1322.642Z" transform="translate(0 -735.553)" fill="#494e9d"/>
    <path id="Path_561" data-name="Path 561" d="M671.079,1322.823q-1.6,0-1.945-.764l-7.36-16.663a.724.724,0,0,1-.054-.237q0-.927,1.981-.927,1.508,0,1.835.745l6.015,13.61,6-13.813q.236-.546,1.4-.545,1.454,0,1.454.672a1.1,1.1,0,0,1-.036.184L673,1322.059Q672.678,1322.822,671.079,1322.823Z" transform="translate(-181.364 -735.734)" fill="#494e9d"/>
    <path id="Path_562" data-name="Path 562" d="M905.686,1322.678a2.532,2.532,0,0,1-1.327-.31,3.219,3.219,0,0,1-1.6-1.944,5.6,5.6,0,0,1-3.117,1.808,16.081,16.081,0,0,1-3.519.446,11.87,11.87,0,0,1-5.042-1.191,4.17,4.17,0,0,1-2.553-4.1q0-3.306,2.507-4.2a15.41,15.41,0,0,1,5.2-.891c.387,0,.863.012,1.426.036s1.094.037,1.591.037a6.575,6.575,0,0,0,2.926-.472v-1.727q0-4.089-4.742-4.088a5.641,5.641,0,0,0-3.107.872,2.907,2.907,0,0,0-1.581,2.435q0,1-1.854,1-1.817,0-1.817-1,0-2.126,2.435-3.744a10.6,10.6,0,0,1,5.924-1.581,12.662,12.662,0,0,1,5.617,1.372,4.841,4.841,0,0,1,2.8,4.733V1318q0,2.291,1.18,2.963a.828.828,0,0,1,.509.69.85.85,0,0,1-.564.745A2.614,2.614,0,0,1,905.686,1322.678Zm-9.561-2.018a7.677,7.677,0,0,0,4.052-1.226,3.866,3.866,0,0,0,2-3.48v-1.744a15.115,15.115,0,0,1-2.543.184q-.837,0-1.691-.046t-1.708-.045q-4.017,0-4.016,3.089Q892.221,1320.66,896.125,1320.66Z" transform="translate(-387.287 -735.588)" fill="#494e9d"/>
    <path id="Path_563" data-name="Path 563" d="M1143.884,1322.678a2.532,2.532,0,0,1-1.327-.31,3.222,3.222,0,0,1-1.6-1.944,5.6,5.6,0,0,1-3.116,1.808,16.075,16.075,0,0,1-3.516.446,11.87,11.87,0,0,1-5.042-1.191,4.171,4.171,0,0,1-2.554-4.1q0-3.306,2.508-4.2a15.4,15.4,0,0,1,5.2-.891q.582,0,1.427.036t1.59.037a6.575,6.575,0,0,0,2.926-.472v-1.727q0-4.089-4.743-4.088a5.641,5.641,0,0,0-3.107.872,2.9,2.9,0,0,0-1.581,2.435q0,1-1.854,1-1.816,0-1.817-1,0-2.126,2.435-3.744a10.591,10.591,0,0,1,5.924-1.581,12.665,12.665,0,0,1,5.618,1.372,4.842,4.842,0,0,1,2.8,4.733V1318q0,2.291,1.18,2.963a.827.827,0,0,1,.509.69.85.85,0,0,1-.563.745A2.647,2.647,0,0,1,1143.884,1322.678Zm-9.558-2.018a7.677,7.677,0,0,0,4.052-1.226,3.866,3.866,0,0,0,2-3.48v-1.744a15.108,15.108,0,0,1-2.543.184q-.837,0-1.691-.046t-1.708-.045q-4.015,0-4.015,3.089,0,3.268,3.9,3.268Z" transform="translate(-603.551 -735.588)" fill="#494e9d"/>
    <path id="Path_564" data-name="Path 564" d="M1369.539,1322.642a10.9,10.9,0,0,1-5.024-1.191,6.074,6.074,0,0,1-3.131-3.879,1.174,1.174,0,0,1-.074-.328q0-1,1.835-1,1.619,0,1.836.854a4.3,4.3,0,0,0,4.543,3.525,5.434,5.434,0,0,0,2.953-.921,2.936,2.936,0,0,0,1.445-2.625q0-1.073-1.581-1.762a10.654,10.654,0,0,0-2.817-.709q-1.453-.2-2.844-.454a6.994,6.994,0,0,1-2.643-1.091,4.514,4.514,0,0,1-2.272-3.888,4.058,4.058,0,0,1,2.752-3.971,13.033,13.033,0,0,1,5.065-1.172,10.606,10.606,0,0,1,4.588,1.054,5.157,5.157,0,0,1,2.881,3.471,1,1,0,0,1,.054.309q0,.927-1.835.981-1.618,0-1.835-.872a3.56,3.56,0,0,0-3.868-2.925,5.689,5.689,0,0,0-2.744.754,2.487,2.487,0,0,0-1.381,2.334q0,1.054,1.75,1.744a13.813,13.813,0,0,0,2.817.708q1.452.218,2.78.481a7.51,7.51,0,0,1,2.578,1.064,4.347,4.347,0,0,1,2.234,3.835,4.493,4.493,0,0,1-2.78,4.342A12.34,12.34,0,0,1,1369.539,1322.642Z" transform="translate(-816.529 -735.553)" fill="#494e9d"/>
  </g>
</svg>
