<svg xmlns="http://www.w3.org/2000/svg" width="39.499" height="39.5" viewBox="0 0 39.499 39.5">
  <path id="team_1_" data-name="team (1)" d="M39.5,16.564H38.068l-2.134,1.123a3.167,3.167,0,0,0-.759-.312L32.491,16.7V16.4A4.474,4.474,0,0,0,34.4,12.742V11.628A4.577,4.577,0,0,0,30.08,7.01c-.121,0-.24,0-.36.007l.7-1.629L27.042,2.015,25.053,3.309a10.776,10.776,0,0,0-2.385-.989L22.177,0H17.322l-.491,2.321a10.764,10.764,0,0,0-2.385.989L12.458,2.016,9.087,5.387l.684,1.63c-.026,0-.051-.006-.077-.007a4.461,4.461,0,0,0-4.6,4.457v1.274A4.472,4.472,0,0,0,7.008,16.4V16.7l-1.751.438L2.084,15.29H0v13.2L6.267,30.58H7.488l.152-.534L9.562,31.2a1.984,1.984,0,0,0,1.913,1.922,1.983,1.983,0,0,0,1.911,1.911A1.983,1.983,0,0,0,15.3,36.944a1.981,1.981,0,0,0,3.1,1.573l.564.5a1.94,1.94,0,0,0,1.282.484h.118A1.94,1.94,0,0,0,22.3,37.586a1.938,1.938,0,0,0,1.911-1.911,1.938,1.938,0,0,0,1.911-1.913,1.959,1.959,0,0,0,1.914-1.955,1.865,1.865,0,0,0-.01-.191L39.5,25.877Zm-6.371-4.936v1.114A3.2,3.2,0,0,1,31.534,15.5l-.319.184,0,2.016,3.183.8-7.006,3.688V20.465a3.17,3.17,0,0,0-.912-2.22l2.187-.546V15.681l-.318-.184a3.194,3.194,0,0,1-1.593-2.756V11.468a3.185,3.185,0,0,1,3.284-3.184,3.294,3.294,0,0,1,3.087,3.344ZM20.71,21.681l-2.884-.922a7.868,7.868,0,0,0-4.082-.186l-.365.081v-.189a1.91,1.91,0,0,1,1.447-1.855l3.649-.912V15.681l-.318-.184a3.194,3.194,0,0,1-1.593-2.756V11.467a3.185,3.185,0,0,1,3.284-3.184,3.294,3.294,0,0,1,3.087,3.344v1.114A3.2,3.2,0,0,1,21.34,15.5l-.319.184,0,2.016,3.649.912a1.91,1.91,0,0,1,1.447,1.855v2.387l-.157.083h-.39l-3.917-1.119a4.016,4.016,0,0,0-.946-.135ZM13.521,9.535a7,7,0,0,1,12.43-.051,4.431,4.431,0,0,0-.468,1.984v1.274A4.472,4.472,0,0,0,27.395,16.4V16.7l-2.548.638L22.3,16.7V16.4a4.474,4.474,0,0,0,1.912-3.656V11.628A4.577,4.577,0,0,0,19.886,7.01a4.46,4.46,0,0,0-4.6,4.458v1.274A4.472,4.472,0,0,0,17.2,16.4V16.7l-2.548.638L12.1,16.7V16.4a4.474,4.474,0,0,0,1.912-3.656V11.628a4.7,4.7,0,0,0-.494-2.093Zm-2.93-3.853,2.035-2.035,1.792,1.166.343-.21A9.507,9.507,0,0,1,17.52,3.458l.392-.094.443-2.09h2.79l.442,2.09.392.094A9.516,9.516,0,0,1,24.737,4.6l.343.21,1.792-1.166L28.9,5.68l-.723,1.692a4.453,4.453,0,0,0-1.345.894c-.026.026-.049.053-.074.079a8.274,8.274,0,0,0-14.051.038,4.494,4.494,0,0,0-1.405-1ZM8.282,17.7V15.681L7.964,15.5a3.194,3.194,0,0,1-1.593-2.756V11.468A3.185,3.185,0,0,1,9.655,8.284a3.294,3.294,0,0,1,3.087,3.344v1.114A3.2,3.2,0,0,1,11.147,15.5l-.319.184,0,2.016,2.186.546a3.17,3.17,0,0,0-.912,2.22v.472l-1.987.442.052-.18.024-1.177-3.36-1.96ZM1.274,16.564h.464L6.32,19.237,4.008,28.484l-2.734-.912Zm5.2,12.742L5.22,28.888l2.246-8.983,1.453.847v.182L6.527,29.306ZM10.83,31.14a.719.719,0,0,1,.209-.505l1.12-1.12a.714.714,0,0,1,1.01,1.01l-1.12,1.12a.714.714,0,0,1-1.219-.505Zm1.911,1.911a.719.719,0,0,1,.209-.505l1.12-1.12a.714.714,0,0,1,1.01,1.01l-1.12,1.12a.714.714,0,0,1-1.219-.505Zm1.911,1.911a.719.719,0,0,1,.209-.505l1.12-1.12a.714.714,0,0,1,1.01,1.01l-1.12,1.12a.714.714,0,0,1-1.219-.505Zm2.626,2.626a.714.714,0,0,1-.505-1.219l1.12-1.12a.714.714,0,0,1,1.01,1.01l-1.12,1.12A.719.719,0,0,1,17.278,37.588Zm3.081.637h-.118a.66.66,0,0,1-.439-.166l-.477-.42.478-.478a1.981,1.981,0,0,0,.4-.592l.579.482a.665.665,0,0,1-.426,1.175Zm5.713-5.734h-.11a.684.684,0,0,1-.438-.159l-3.455-2.879-.816.979,3.355,2.8a.665.665,0,0,1-.426,1.175h-.139a.664.664,0,0,1-.425-.154l-3.46-2.883-.816.979,3.355,2.8a.664.664,0,0,1-.426,1.174,1.052,1.052,0,0,1-.67-.243l-1.422-1.185a1.982,1.982,0,0,0-1.711-1.113,1.983,1.983,0,0,0-1.911-1.911,1.983,1.983,0,0,0-1.911-1.911,1.984,1.984,0,0,0-3.387-1.336l-1.12,1.12a1.963,1.963,0,0,0-.179.218L8,28.778l1.716-6,4.3-.956a6.563,6.563,0,0,1,3.418.155l.939.3-3.182,1.591a2.124,2.124,0,0,0-1.179,1.909V25.9a2.134,2.134,0,0,0,3.232,1.83L19.62,26.3a1.315,1.315,0,0,1,1.528.147L26.531,31.3a.686.686,0,0,1-.458,1.2Zm12.153-7.4L27.492,30.457c-.035-.037-.071-.072-.109-.106L22,25.506a2.564,2.564,0,0,0-3.036-.294l-2.373,1.423a.859.859,0,0,1-1.3-.738v-.126A.855.855,0,0,1,15.765,25l3.554-1.777a2.769,2.769,0,0,1,1.986-.184l4,1.144.97.024,11.947-6.288Zm0,0" transform="translate(0 0)" fill="#5225b5"/>
</svg>
