<?xml version="1.0" encoding="utf-8"?>
<!-- Generator: Adobe Illustrator 14.0.0, SVG Export Plug-In . SVG Version: 6.00 Build 43363)  -->
<!DOCTYPE svg PUBLIC "-//W3C//DTD SVG 1.1//EN" "http://www.w3.org/Graphics/SVG/1.1/DTD/svg11.dtd">
<svg version="1.1" id="Layer_1" xmlns="http://www.w3.org/2000/svg" xmlns:xlink="http://www.w3.org/1999/xlink" x="0px" y="0px"
	 width="1170px" height="100px" viewBox="0 0 1170 100" enable-background="new 0 0 1170 100" xml:space="preserve">
<g id="Top_Banner" transform="translate(-280 -123)">
	<path id="Rectangle_491" fill="#FFFFFF" d="M290,123h1150c5.521,0,10,4.477,10,10v80c0,5.523-4.479,10-10,10H290
		c-5.523,0-10-4.477-10-10v-80C280,127.477,284.477,123,290,123z"/>
	<path id="Rectangle_492" fill="#F0504B" d="M1181,123h269v100h-269c-27.614,0-50-22.386-50-50l0,0
		C1131,145.386,1153.386,123,1181,123z"/>
	<path id="Intersection_1" fill="#FFD464" d="M280,223v-67.001c0,0,18.268-14,53.279-4c35.011,10,64.7,44,64.7,44
		s41.862-31.333,78.4-16.667c32.574,13.077,50.021,38.343,53.421,43.667L280,223z"/>
	<g enable-background="new    ">
		<path fill="#5F4BA0" d="M596.52,164.21l3.083,0.978c-0.473,1.719-1.259,2.995-2.358,3.83c-1.1,0.834-2.494,1.251-4.184,1.251
			c-2.091,0-3.81-0.714-5.156-2.144c-1.347-1.428-2.02-3.382-2.02-5.859c0-2.621,0.677-4.656,2.03-6.107
			c1.354-1.449,3.133-2.175,5.339-2.175c1.926,0,3.491,0.569,4.694,1.708c0.716,0.673,1.253,1.64,1.611,2.9l-3.147,0.752
			c-0.187-0.816-0.575-1.461-1.166-1.934s-1.309-0.709-2.154-0.709c-1.167,0-2.115,0.419-2.841,1.257
			c-0.727,0.838-1.09,2.195-1.09,4.071c0,1.991,0.358,3.409,1.074,4.254c0.716,0.845,1.647,1.268,2.793,1.268
			c0.845,0,1.572-0.269,2.181-0.806C595.817,166.208,596.254,165.363,596.52,164.21z"/>
		<path fill="#5F4BA0" d="M601.611,164.135c0-1.003,0.247-1.973,0.741-2.911s1.194-1.654,2.1-2.148
			c0.906-0.494,1.917-0.741,3.035-0.741c1.726,0,3.14,0.561,4.243,1.682c1.103,1.12,1.654,2.536,1.654,4.248
			c0,1.726-0.557,3.156-1.67,4.291c-1.114,1.136-2.516,1.703-4.206,1.703c-1.046,0-2.043-0.236-2.992-0.709
			c-0.949-0.473-1.67-1.166-2.165-2.078C601.858,166.557,601.611,165.445,601.611,164.135z M604.705,164.296
			c0,1.132,0.269,1.998,0.806,2.6s1.199,0.902,1.987,0.902c0.788,0,1.448-0.301,1.982-0.902c0.533-0.602,0.8-1.476,0.8-2.621
			c0-1.117-0.267-1.977-0.8-2.578c-0.534-0.602-1.194-0.902-1.982-0.902c-0.788,0-1.45,0.301-1.987,0.902
			S604.705,163.164,604.705,164.296z"/>
		<path fill="#5F4BA0" d="M626.125,170h-3.019v-5.822c0-1.231-0.064-2.028-0.193-2.391c-0.129-0.361-0.338-0.643-0.628-0.843
			s-0.639-0.301-1.047-0.301c-0.523,0-0.992,0.144-1.407,0.43c-0.416,0.286-0.7,0.666-0.854,1.139
			c-0.154,0.473-0.231,1.347-0.231,2.621V170h-3.019v-11.408h2.804v1.676c0.995-1.289,2.249-1.934,3.76-1.934
			c0.666,0,1.274,0.12,1.826,0.359c0.551,0.24,0.968,0.547,1.251,0.919c0.283,0.372,0.479,0.795,0.591,1.268
			c0.111,0.473,0.167,1.149,0.167,2.03V170z"/>
		<path fill="#5F4BA0" d="M628.907,170.752l3.448,0.419c0.057,0.401,0.189,0.677,0.397,0.827c0.286,0.215,0.737,0.322,1.354,0.322
			c0.788,0,1.378-0.118,1.772-0.354c0.265-0.157,0.465-0.412,0.602-0.763c0.093-0.251,0.14-0.713,0.14-1.386v-1.665
			c-0.902,1.231-2.041,1.848-3.416,1.848c-1.533,0-2.747-0.648-3.642-1.944c-0.702-1.024-1.053-2.299-1.053-3.824
			c0-1.912,0.46-3.373,1.38-4.383c0.92-1.01,2.064-1.515,3.432-1.515c1.411,0,2.574,0.619,3.491,1.858v-1.601h2.825v10.237
			c0,1.347-0.111,2.353-0.333,3.019c-0.222,0.666-0.534,1.188-0.935,1.568c-0.401,0.38-0.937,0.677-1.606,0.892
			c-0.67,0.215-1.517,0.322-2.541,0.322c-1.934,0-3.305-0.331-4.114-0.993c-0.81-0.663-1.214-1.503-1.214-2.52
			C628.896,171.017,628.9,170.896,628.907,170.752z M631.604,164.06c0,1.21,0.234,2.097,0.704,2.659
			c0.469,0.562,1.047,0.843,1.735,0.843c0.737,0,1.36-0.288,1.869-0.864c0.508-0.577,0.763-1.431,0.763-2.563
			c0-1.182-0.244-2.059-0.73-2.632c-0.487-0.573-1.103-0.859-1.848-0.859c-0.724,0-1.32,0.281-1.789,0.843
			C631.838,162.049,631.604,162.906,631.604,164.06z"/>
		<path fill="#5F4BA0" d="M645.515,170h-3.019v-11.408h2.804v1.622c0.479-0.767,0.911-1.271,1.294-1.515
			c0.383-0.243,0.818-0.365,1.305-0.365c0.688,0,1.35,0.189,1.987,0.569l-0.935,2.632c-0.509-0.329-0.981-0.494-1.418-0.494
			c-0.423,0-0.781,0.116-1.074,0.35c-0.294,0.232-0.525,0.653-0.693,1.262c-0.168,0.608-0.252,1.884-0.252,3.824V170z"/>
		<path fill="#5F4BA0" d="M653.442,162.072l-2.739-0.494c0.308-1.103,0.838-1.919,1.59-2.449s1.869-0.795,3.352-0.795
			c1.346,0,2.349,0.159,3.008,0.479c0.659,0.318,1.123,0.723,1.391,1.213c0.269,0.491,0.403,1.392,0.403,2.702l-0.032,3.523
			c0,1.003,0.048,1.742,0.145,2.218c0.097,0.477,0.277,0.987,0.542,1.531h-2.986c-0.079-0.2-0.176-0.498-0.29-0.892
			c-0.05-0.179-0.086-0.297-0.107-0.354c-0.516,0.501-1.067,0.877-1.654,1.128c-0.587,0.251-1.214,0.376-1.88,0.376
			c-1.175,0-2.1-0.318-2.777-0.956s-1.015-1.443-1.015-2.417c0-0.645,0.154-1.219,0.462-1.725c0.308-0.504,0.739-0.891,1.294-1.16
			c0.555-0.268,1.355-0.503,2.401-0.703c1.411-0.265,2.388-0.512,2.933-0.741v-0.301c0-0.58-0.144-0.993-0.43-1.241
			c-0.287-0.246-0.827-0.37-1.622-0.37c-0.537,0-0.956,0.105-1.257,0.317C653.872,161.172,653.628,161.542,653.442,162.072z
			 M657.481,164.521c-0.387,0.129-0.999,0.283-1.837,0.462s-1.386,0.354-1.644,0.526c-0.394,0.279-0.591,0.634-0.591,1.063
			c0,0.423,0.157,0.788,0.473,1.096c0.315,0.308,0.716,0.462,1.203,0.462c0.544,0,1.063-0.179,1.558-0.537
			c0.365-0.272,0.605-0.605,0.72-0.999c0.079-0.258,0.118-0.748,0.118-1.472V164.521z"/>
		<path fill="#5F4BA0" d="M668.653,158.592v2.406h-2.063v4.598c0,0.931,0.02,1.474,0.059,1.627c0.039,0.154,0.129,0.281,0.269,0.382
			s0.31,0.15,0.51,0.15c0.279,0,0.684-0.097,1.214-0.29l0.258,2.342c-0.702,0.301-1.497,0.451-2.385,0.451
			c-0.544,0-1.035-0.092-1.472-0.273c-0.437-0.184-0.757-0.42-0.961-0.709c-0.204-0.291-0.346-0.683-0.424-1.177
			c-0.064-0.351-0.097-1.06-0.097-2.127v-4.974h-1.386v-2.406h1.386v-2.267l3.029-1.762v4.028H668.653z"/>
		<path fill="#5F4BA0" d="M669.685,166.745l3.029-0.462c0.129,0.587,0.39,1.033,0.784,1.338c0.394,0.304,0.945,0.456,1.654,0.456
			c0.78,0,1.368-0.144,1.762-0.43c0.265-0.2,0.397-0.469,0.397-0.806c0-0.229-0.072-0.419-0.215-0.569
			c-0.15-0.144-0.487-0.275-1.01-0.397c-2.435-0.537-3.979-1.027-4.63-1.472c-0.902-0.616-1.354-1.472-1.354-2.567
			c0-0.988,0.39-1.819,1.171-2.492c0.78-0.673,1.991-1.01,3.631-1.01c1.561,0,2.721,0.254,3.48,0.763
			c0.759,0.509,1.282,1.261,1.568,2.256l-2.847,0.526c-0.122-0.444-0.353-0.784-0.693-1.021c-0.34-0.236-0.826-0.354-1.456-0.354
			c-0.795,0-1.364,0.111-1.708,0.333c-0.229,0.157-0.344,0.361-0.344,0.612c0,0.215,0.1,0.397,0.301,0.548
			c0.272,0.2,1.212,0.483,2.82,0.849c1.607,0.365,2.73,0.813,3.368,1.343c0.63,0.537,0.945,1.285,0.945,2.245
			c0,1.046-0.437,1.944-1.311,2.696c-0.874,0.752-2.167,1.128-3.878,1.128c-1.554,0-2.784-0.315-3.69-0.945
			C670.556,168.683,669.964,167.826,669.685,166.745z"/>
		<path fill="#5F4BA0" d="M682.908,166.981h3.019v2.159c0,0.874-0.075,1.563-0.226,2.068c-0.15,0.504-0.435,0.957-0.854,1.358
			s-0.951,0.716-1.595,0.945l-0.591-1.246c0.608-0.2,1.042-0.477,1.3-0.827s0.394-0.831,0.408-1.439h-1.461V166.981z"/>
	</g>
	<g enable-background="new    ">
		<path fill="#5F4BA0" d="M694.993,174.394l-0.215-1.815c0.422,0.114,0.791,0.172,1.106,0.172c0.43,0,0.773-0.071,1.031-0.215
			s0.469-0.344,0.634-0.602c0.122-0.193,0.318-0.673,0.591-1.439c0.036-0.107,0.093-0.265,0.172-0.473l-4.329-11.43h2.084
			l2.374,6.606c0.308,0.838,0.583,1.719,0.827,2.643c0.222-0.888,0.487-1.755,0.795-2.6l2.438-6.649h1.934l-4.34,11.602
			c-0.466,1.253-0.827,2.116-1.085,2.589c-0.344,0.638-0.738,1.104-1.182,1.401c-0.444,0.298-0.974,0.446-1.59,0.446
			C695.867,174.63,695.451,174.551,694.993,174.394z"/>
		<path fill="#5F4BA0" d="M705.359,164.296c0-2.112,0.587-3.678,1.762-4.694c0.981-0.845,2.177-1.268,3.588-1.268
			c1.568,0,2.85,0.514,3.846,1.541c0.995,1.028,1.493,2.448,1.493,4.26c0,1.468-0.22,2.623-0.661,3.465
			c-0.44,0.841-1.082,1.494-1.923,1.96c-0.842,0.466-1.76,0.698-2.755,0.698c-1.597,0-2.888-0.512-3.873-1.536
			C705.852,167.697,705.359,166.223,705.359,164.296z M707.347,164.296c0,1.461,0.318,2.555,0.956,3.282
			c0.637,0.727,1.439,1.09,2.406,1.09c0.959,0,1.758-0.365,2.396-1.096c0.637-0.73,0.956-1.844,0.956-3.341
			c0-1.411-0.321-2.479-0.961-3.206c-0.641-0.728-1.438-1.091-2.39-1.091c-0.967,0-1.769,0.361-2.406,1.085
			C707.665,161.743,707.347,162.835,707.347,164.296z"/>
		<path fill="#5F4BA0" d="M725.791,170v-1.676c-0.888,1.289-2.095,1.934-3.62,1.934c-0.673,0-1.302-0.129-1.885-0.387
			c-0.584-0.258-1.017-0.582-1.3-0.973c-0.283-0.39-0.482-0.868-0.596-1.434c-0.079-0.38-0.118-0.981-0.118-1.805v-7.068h1.934
			v6.327c0,1.01,0.039,1.69,0.118,2.041c0.122,0.509,0.379,0.907,0.773,1.198c0.394,0.289,0.881,0.435,1.461,0.435
			s1.124-0.148,1.633-0.446c0.508-0.297,0.868-0.701,1.08-1.213c0.211-0.513,0.317-1.256,0.317-2.229v-6.112h1.934V170H725.791z"/>
		<path fill="#5F4BA0" d="M736.662,170v-15.748h1.934v5.65c0.902-1.046,2.041-1.568,3.416-1.568c0.845,0,1.579,0.166,2.202,0.5
			c0.623,0.332,1.069,0.793,1.337,1.38s0.403,1.439,0.403,2.557V170h-1.934v-7.229c0-0.967-0.209-1.671-0.628-2.11
			c-0.419-0.441-1.012-0.661-1.778-0.661c-0.573,0-1.112,0.148-1.617,0.446c-0.505,0.297-0.865,0.699-1.08,1.208
			s-0.322,1.21-0.322,2.105V170H736.662z"/>
		<path fill="#5F4BA0" d="M756.342,168.593c-0.716,0.608-1.406,1.038-2.068,1.289c-0.663,0.251-1.374,0.376-2.132,0.376
			c-1.253,0-2.217-0.307-2.89-0.918c-0.673-0.613-1.01-1.396-1.01-2.348c0-0.559,0.127-1.068,0.381-1.531
			c0.254-0.461,0.587-0.832,0.999-1.111c0.412-0.279,0.875-0.49,1.391-0.634c0.379-0.101,0.952-0.197,1.719-0.29
			c1.561-0.187,2.71-0.408,3.448-0.666c0.007-0.265,0.011-0.434,0.011-0.505c0-0.788-0.183-1.343-0.548-1.665
			c-0.494-0.437-1.229-0.655-2.202-0.655c-0.91,0-1.581,0.159-2.014,0.478c-0.434,0.319-0.754,0.883-0.961,1.692l-1.891-0.258
			c0.172-0.81,0.455-1.463,0.849-1.96c0.394-0.498,0.963-0.881,1.708-1.15c0.745-0.268,1.607-0.402,2.589-0.402
			c0.974,0,1.765,0.114,2.374,0.344c0.608,0.229,1.056,0.518,1.343,0.865c0.286,0.347,0.487,0.785,0.602,1.315
			c0.064,0.329,0.097,0.924,0.097,1.783v2.578c0,1.798,0.041,2.935,0.124,3.411c0.082,0.476,0.245,0.933,0.489,1.369h-2.02
			C756.528,169.599,756.399,169.13,756.342,168.593z M756.181,164.274c-0.702,0.286-1.755,0.53-3.158,0.73
			c-0.795,0.114-1.357,0.243-1.687,0.387c-0.33,0.144-0.584,0.353-0.763,0.628c-0.179,0.276-0.269,0.582-0.269,0.919
			c0,0.516,0.195,0.945,0.585,1.289c0.39,0.344,0.961,0.516,1.713,0.516c0.745,0,1.407-0.163,1.987-0.489
			c0.58-0.325,1.006-0.771,1.278-1.337c0.208-0.437,0.312-1.081,0.312-1.934V164.274z"/>
		<path fill="#5F4BA0" d="M764.302,170l-4.34-11.408h2.041l2.449,6.832c0.265,0.737,0.508,1.504,0.73,2.299
			c0.172-0.602,0.412-1.325,0.72-2.17l2.535-6.961h1.987L766.106,170H764.302z"/>
		<path fill="#5F4BA0" d="M779.942,166.326l1.998,0.247c-0.315,1.167-0.899,2.073-1.751,2.718c-0.853,0.645-1.941,0.967-3.266,0.967
			c-1.669,0-2.992-0.514-3.969-1.541c-0.978-1.028-1.466-2.47-1.466-4.324c0-1.919,0.494-3.409,1.482-4.469s2.27-1.59,3.846-1.59
			c1.525,0,2.771,0.52,3.738,1.558s1.45,2.499,1.45,4.383c0,0.114-0.004,0.286-0.011,0.516h-8.508
			c0.071,1.253,0.426,2.213,1.063,2.879c0.637,0.666,1.432,0.999,2.385,0.999c0.709,0,1.314-0.187,1.815-0.559
			C779.251,167.737,779.648,167.143,779.942,166.326z M773.594,163.2h6.37c-0.086-0.96-0.33-1.68-0.73-2.159
			c-0.616-0.745-1.415-1.117-2.396-1.117c-0.888,0-1.635,0.297-2.24,0.892C773.993,161.41,773.658,162.205,773.594,163.2z"/>
	</g>
	<g enable-background="new    ">
		<path fill="#5F4BA0" d="M804.832,170h-3.459l-1.375-3.577h-6.295l-1.3,3.577h-3.373l6.134-15.748h3.362L804.832,170z
			 M798.978,163.77l-2.17-5.844l-2.127,5.844H798.978z"/>
		<path fill="#5F4BA0" d="M808.227,170l-3.609-11.408h2.933l2.138,7.477l1.966-7.477h2.911l1.901,7.477l2.181-7.477h2.976
			L817.959,170h-2.9l-1.966-7.337L811.159,170H808.227z"/>
		<path fill="#5F4BA0" d="M825.468,162.072l-2.739-0.494c0.308-1.103,0.838-1.919,1.59-2.449s1.869-0.795,3.352-0.795
			c1.346,0,2.349,0.159,3.008,0.479c0.659,0.318,1.123,0.723,1.391,1.213c0.269,0.491,0.403,1.392,0.403,2.702l-0.032,3.523
			c0,1.003,0.048,1.742,0.145,2.218c0.097,0.477,0.277,0.987,0.542,1.531h-2.986c-0.079-0.2-0.176-0.498-0.29-0.892
			c-0.05-0.179-0.086-0.297-0.107-0.354c-0.516,0.501-1.067,0.877-1.654,1.128c-0.587,0.251-1.214,0.376-1.88,0.376
			c-1.175,0-2.1-0.318-2.777-0.956s-1.015-1.443-1.015-2.417c0-0.645,0.154-1.219,0.462-1.725c0.308-0.504,0.739-0.891,1.294-1.16
			c0.555-0.268,1.355-0.503,2.401-0.703c1.411-0.265,2.388-0.512,2.933-0.741v-0.301c0-0.58-0.144-0.993-0.43-1.241
			c-0.287-0.246-0.827-0.37-1.622-0.37c-0.537,0-0.956,0.105-1.257,0.317C825.897,161.172,825.654,161.542,825.468,162.072z
			 M829.507,164.521c-0.387,0.129-0.999,0.283-1.837,0.462s-1.386,0.354-1.644,0.526c-0.394,0.279-0.591,0.634-0.591,1.063
			c0,0.423,0.157,0.788,0.473,1.096c0.315,0.308,0.716,0.462,1.203,0.462c0.544,0,1.063-0.179,1.558-0.537
			c0.365-0.272,0.605-0.605,0.72-0.999c0.079-0.258,0.118-0.748,0.118-1.472V164.521z"/>
		<path fill="#5F4BA0" d="M838.337,170h-3.019v-11.408h2.804v1.622c0.479-0.767,0.911-1.271,1.294-1.515
			c0.383-0.243,0.818-0.365,1.305-0.365c0.688,0,1.35,0.189,1.987,0.569l-0.935,2.632c-0.509-0.329-0.981-0.494-1.418-0.494
			c-0.423,0-0.781,0.116-1.074,0.35c-0.294,0.232-0.525,0.653-0.693,1.262c-0.168,0.608-0.252,1.884-0.252,3.824V170z"/>
		<path fill="#5F4BA0" d="M854.472,170h-2.804v-1.676c-0.466,0.651-1.015,1.137-1.649,1.455c-0.634,0.319-1.273,0.479-1.917,0.479
			c-1.311,0-2.433-0.528-3.368-1.584c-0.935-1.057-1.402-2.53-1.402-4.421c0-1.934,0.455-3.403,1.364-4.409
			c0.909-1.007,2.059-1.51,3.448-1.51c1.274,0,2.377,0.53,3.309,1.59v-5.672h3.019V170z M846.415,164.049
			c0,1.218,0.168,2.099,0.505,2.643c0.487,0.788,1.167,1.182,2.041,1.182c0.694,0,1.285-0.295,1.772-0.887
			c0.487-0.59,0.73-1.473,0.73-2.647c0-1.311-0.236-2.254-0.709-2.831c-0.473-0.576-1.078-0.864-1.815-0.864
			c-0.716,0-1.316,0.284-1.799,0.854C846.657,162.066,846.415,162.917,846.415,164.049z"/>
		<path fill="#5F4BA0" d="M864.054,166.369l3.008,0.505c-0.387,1.103-0.997,1.942-1.832,2.519c-0.834,0.577-1.878,0.865-3.131,0.865
			c-1.984,0-3.452-0.648-4.404-1.944c-0.752-1.038-1.128-2.349-1.128-3.932c0-1.891,0.494-3.371,1.482-4.442
			c0.988-1.07,2.238-1.605,3.749-1.605c1.697,0,3.036,0.561,4.018,1.682c0.981,1.12,1.45,2.837,1.407,5.15h-7.563
			c0.021,0.896,0.265,1.592,0.73,2.09c0.465,0.497,1.045,0.746,1.74,0.746c0.473,0,0.87-0.129,1.192-0.387
			S863.889,166.942,864.054,166.369z M864.226,163.318c-0.021-0.874-0.247-1.538-0.677-1.992c-0.43-0.455-0.953-0.683-1.568-0.683
			c-0.659,0-1.203,0.24-1.633,0.72s-0.641,1.132-0.634,1.955H864.226z"/>
		<path fill="#5F4BA0" d="M880.146,170h-2.804v-1.676c-0.466,0.651-1.016,1.137-1.648,1.455c-0.635,0.319-1.273,0.479-1.918,0.479
			c-1.311,0-2.434-0.528-3.367-1.584c-0.936-1.057-1.402-2.53-1.402-4.421c0-1.934,0.455-3.403,1.364-4.409
			c0.909-1.007,2.059-1.51,3.448-1.51c1.274,0,2.377,0.53,3.309,1.59v-5.672h3.019V170z M872.089,164.049
			c0,1.218,0.168,2.099,0.505,2.643c0.486,0.788,1.167,1.182,2.041,1.182c0.694,0,1.285-0.295,1.772-0.887
			c0.487-0.59,0.73-1.473,0.73-2.647c0-1.311-0.236-2.254-0.709-2.831c-0.473-0.576-1.078-0.864-1.815-0.864
			c-0.717,0-1.316,0.284-1.799,0.854C872.33,162.066,872.089,162.917,872.089,164.049z"/>
	</g>
	<g enable-background="new    ">
		<path fill="#5F4BA0" d="M889.566,170v-9.904h-1.708v-1.504h1.708v-1.214c0-0.767,0.068-1.336,0.204-1.708
			c0.187-0.501,0.514-0.908,0.983-1.219c0.469-0.313,1.125-0.468,1.971-0.468c0.544,0,1.146,0.064,1.805,0.193l-0.29,1.687
			c-0.401-0.071-0.78-0.107-1.139-0.107c-0.587,0-1.003,0.125-1.246,0.376s-0.365,0.72-0.365,1.407v1.053h2.224v1.504h-2.224V170
			H889.566z"/>
		<path fill="#5F4BA0" d="M894.497,164.296c0-2.112,0.587-3.678,1.762-4.694c0.981-0.845,2.177-1.268,3.588-1.268
			c1.568,0,2.851,0.514,3.846,1.541c0.995,1.028,1.493,2.448,1.493,4.26c0,1.468-0.221,2.623-0.66,3.465
			c-0.441,0.841-1.082,1.494-1.924,1.96s-1.76,0.698-2.755,0.698c-1.597,0-2.888-0.512-3.872-1.536
			C894.989,167.697,894.497,166.223,894.497,164.296z M896.484,164.296c0,1.461,0.318,2.555,0.956,3.282
			c0.638,0.727,1.439,1.09,2.406,1.09c0.96,0,1.758-0.365,2.396-1.096c0.637-0.73,0.956-1.844,0.956-3.341
			c0-1.411-0.321-2.479-0.962-3.206c-0.641-0.728-1.438-1.091-2.39-1.091c-0.967,0-1.769,0.361-2.406,1.085
			S896.484,162.835,896.484,164.296z"/>
		<path fill="#5F4BA0" d="M907.431,170v-11.408h1.74v1.729c0.444-0.81,0.854-1.343,1.229-1.601c0.377-0.258,0.79-0.387,1.241-0.387
			c0.651,0,1.313,0.208,1.987,0.623l-0.666,1.794c-0.473-0.279-0.945-0.419-1.418-0.419c-0.423,0-0.803,0.127-1.139,0.381
			c-0.337,0.255-0.576,0.607-0.72,1.059c-0.215,0.688-0.322,1.439-0.322,2.256V170H907.431z"/>
		<path fill="#5F4BA0" d="M925.112,168.271l0.279,1.708c-0.544,0.114-1.031,0.172-1.461,0.172c-0.702,0-1.246-0.111-1.633-0.333
			s-0.659-0.514-0.816-0.876c-0.157-0.361-0.236-1.122-0.236-2.282v-6.563h-1.418v-1.504h1.418v-2.825l1.923-1.16v3.985h1.944v1.504
			h-1.944v6.671c0,0.552,0.033,0.906,0.102,1.063s0.18,0.283,0.334,0.376c0.153,0.093,0.373,0.14,0.66,0.14
			C924.479,168.346,924.762,168.32,925.112,168.271z"/>
		<path fill="#5F4BA0" d="M927.003,170v-15.748h1.934v5.65c0.902-1.046,2.041-1.568,3.416-1.568c0.845,0,1.579,0.166,2.202,0.5
			c0.623,0.332,1.068,0.793,1.338,1.38c0.268,0.587,0.402,1.439,0.402,2.557V170h-1.934v-7.229c0-0.967-0.209-1.671-0.629-2.11
			c-0.418-0.441-1.012-0.661-1.777-0.661c-0.573,0-1.111,0.148-1.617,0.446c-0.504,0.297-0.864,0.699-1.079,1.208
			s-0.322,1.21-0.322,2.105V170H927.003z"/>
		<path fill="#5F4BA0" d="M939.249,156.476v-2.224h1.934v2.224H939.249z M939.249,170v-11.408h1.934V170H939.249z"/>
		<path fill="#5F4BA0" d="M943.353,166.595l1.912-0.301c0.107,0.767,0.406,1.354,0.897,1.762c0.49,0.408,1.176,0.612,2.057,0.612
			c0.888,0,1.547-0.181,1.977-0.543c0.43-0.361,0.645-0.785,0.645-1.272c0-0.437-0.189-0.78-0.569-1.031
			c-0.265-0.172-0.924-0.391-1.977-0.655c-1.418-0.358-2.401-0.668-2.948-0.93c-0.549-0.261-0.964-0.623-1.246-1.084
			c-0.283-0.463-0.425-0.973-0.425-1.531c0-0.509,0.116-0.979,0.349-1.412c0.232-0.434,0.55-0.794,0.951-1.08
			c0.301-0.222,0.711-0.41,1.23-0.564c0.519-0.153,1.075-0.23,1.67-0.23c0.895,0,1.682,0.129,2.357,0.387
			c0.678,0.258,1.177,0.607,1.499,1.047c0.322,0.441,0.544,1.03,0.666,1.768l-1.891,0.258c-0.086-0.587-0.335-1.046-0.747-1.375
			s-0.993-0.494-1.745-0.494c-0.888,0-1.522,0.146-1.901,0.44c-0.38,0.294-0.569,0.638-0.569,1.031c0,0.251,0.079,0.477,0.236,0.677
			c0.157,0.208,0.404,0.38,0.741,0.516c0.193,0.071,0.763,0.236,1.708,0.494c1.368,0.365,2.321,0.664,2.862,0.896
			c0.541,0.233,0.965,0.571,1.273,1.016c0.308,0.444,0.462,0.995,0.462,1.654c0,0.645-0.188,1.252-0.563,1.82
			c-0.377,0.57-0.919,1.01-1.628,1.322c-0.709,0.311-1.511,0.467-2.406,0.467c-1.482,0-2.612-0.308-3.39-0.924
			S943.567,167.805,943.353,166.595z"/>
	</g>
	<g enable-background="new    ">
		<path fill="#5F4BA0" d="M971.465,164.21l3.083,0.978c-0.473,1.719-1.259,2.995-2.358,3.83c-1.1,0.834-2.494,1.251-4.184,1.251
			c-2.092,0-3.811-0.714-5.156-2.144c-1.347-1.428-2.02-3.382-2.02-5.859c0-2.621,0.677-4.656,2.03-6.107
			c1.354-1.449,3.133-2.175,5.339-2.175c1.926,0,3.491,0.569,4.694,1.708c0.716,0.673,1.253,1.64,1.611,2.9l-3.147,0.752
			c-0.187-0.816-0.574-1.461-1.166-1.934c-0.59-0.473-1.309-0.709-2.153-0.709c-1.167,0-2.114,0.419-2.841,1.257
			c-0.728,0.838-1.091,2.195-1.091,4.071c0,1.991,0.358,3.409,1.074,4.254s1.647,1.268,2.793,1.268c0.845,0,1.571-0.269,2.181-0.806
			C970.763,166.208,971.199,165.363,971.465,164.21z"/>
		<path fill="#5F4BA0" d="M980.263,154.252v5.79c0.974-1.139,2.138-1.708,3.491-1.708c0.694,0,1.321,0.129,1.88,0.387
			s0.979,0.587,1.263,0.988c0.282,0.401,0.476,0.845,0.58,1.332c0.104,0.487,0.155,1.242,0.155,2.267V170h-3.019v-6.026
			c0-1.196-0.058-1.955-0.172-2.277c-0.115-0.322-0.316-0.578-0.607-0.769c-0.289-0.189-0.653-0.284-1.09-0.284
			c-0.502,0-0.949,0.122-1.343,0.365s-0.683,0.61-0.864,1.101c-0.184,0.491-0.274,1.216-0.274,2.176V170h-3.019v-15.748H980.263z"/>
		<path fill="#5F4BA0" d="M992.949,162.072l-2.739-0.494c0.308-1.103,0.838-1.919,1.59-2.449s1.869-0.795,3.352-0.795
			c1.347,0,2.349,0.159,3.008,0.479c0.659,0.318,1.122,0.723,1.392,1.213c0.268,0.491,0.402,1.392,0.402,2.702l-0.032,3.523
			c0,1.003,0.048,1.742,0.146,2.218c0.096,0.477,0.277,0.987,0.542,1.531h-2.986c-0.079-0.2-0.176-0.498-0.29-0.892
			c-0.051-0.179-0.086-0.297-0.107-0.354c-0.516,0.501-1.067,0.877-1.654,1.128c-0.588,0.251-1.214,0.376-1.88,0.376
			c-1.175,0-2.101-0.318-2.776-0.956c-0.678-0.638-1.016-1.443-1.016-2.417c0-0.645,0.154-1.219,0.462-1.725
			c0.308-0.504,0.739-0.891,1.294-1.16c0.555-0.268,1.355-0.503,2.401-0.703c1.411-0.265,2.388-0.512,2.933-0.741v-0.301
			c0-0.58-0.144-0.993-0.43-1.241c-0.287-0.246-0.827-0.37-1.622-0.37c-0.537,0-0.956,0.105-1.257,0.317
			C993.379,161.172,993.135,161.542,992.949,162.072z M996.988,164.521c-0.387,0.129-0.999,0.283-1.837,0.462
			s-1.386,0.354-1.644,0.526c-0.395,0.279-0.591,0.634-0.591,1.063c0,0.423,0.157,0.788,0.473,1.096s0.716,0.462,1.203,0.462
			c0.544,0,1.063-0.179,1.558-0.537c0.365-0.272,0.605-0.605,0.72-0.999c0.079-0.258,0.118-0.748,0.118-1.472V164.521z"/>
		<path fill="#5F4BA0" d="M1002.929,170v-15.748h3.019V170H1002.929z"/>
		<path fill="#5F4BA0" d="M1009.041,170v-15.748h3.019V170H1009.041z"/>
		<path fill="#5F4BA0" d="M1021.76,166.369l3.008,0.505c-0.387,1.103-0.998,1.942-1.832,2.519c-0.834,0.577-1.878,0.865-3.131,0.865
			c-1.984,0-3.452-0.648-4.404-1.944c-0.752-1.038-1.128-2.349-1.128-3.932c0-1.891,0.494-3.371,1.482-4.442
			c0.988-1.07,2.237-1.605,3.749-1.605c1.697,0,3.036,0.561,4.018,1.682c0.98,1.12,1.45,2.837,1.407,5.15h-7.563
			c0.021,0.896,0.265,1.592,0.73,2.09c0.466,0.497,1.046,0.746,1.74,0.746c0.473,0,0.87-0.129,1.192-0.387
			S1021.595,166.942,1021.76,166.369z M1021.932,163.318c-0.021-0.874-0.247-1.538-0.677-1.992c-0.43-0.455-0.952-0.683-1.568-0.683
			c-0.659,0-1.203,0.24-1.633,0.72s-0.642,1.132-0.634,1.955H1021.932z"/>
		<path fill="#5F4BA0" d="M1037.766,170h-3.019v-5.822c0-1.231-0.064-2.028-0.193-2.391c-0.129-0.361-0.339-0.643-0.628-0.843
			c-0.291-0.2-0.64-0.301-1.048-0.301c-0.522,0-0.992,0.144-1.407,0.43c-0.416,0.286-0.7,0.666-0.854,1.139
			c-0.154,0.473-0.231,1.347-0.231,2.621V170h-3.019v-11.408h2.804v1.676c0.995-1.289,2.249-1.934,3.76-1.934
			c0.666,0,1.274,0.12,1.826,0.359c0.552,0.24,0.968,0.547,1.251,0.919s0.48,0.795,0.592,1.268c0.11,0.473,0.166,1.149,0.166,2.03
			V170z"/>
		<path fill="#5F4BA0" d="M1040.548,170.752l3.448,0.419c0.057,0.401,0.189,0.677,0.397,0.827c0.286,0.215,0.737,0.322,1.354,0.322
			c0.788,0,1.378-0.118,1.772-0.354c0.265-0.157,0.465-0.412,0.602-0.763c0.093-0.251,0.14-0.713,0.14-1.386v-1.665
			c-0.902,1.231-2.041,1.848-3.416,1.848c-1.532,0-2.747-0.648-3.642-1.944c-0.702-1.024-1.053-2.299-1.053-3.824
			c0-1.912,0.46-3.373,1.381-4.383c0.92-1.01,2.063-1.515,3.432-1.515c1.41,0,2.574,0.619,3.491,1.858v-1.601h2.825v10.237
			c0,1.347-0.111,2.353-0.333,3.019s-0.534,1.188-0.935,1.568c-0.401,0.38-0.937,0.677-1.605,0.892
			c-0.67,0.215-1.518,0.322-2.541,0.322c-1.934,0-3.305-0.331-4.114-0.993c-0.81-0.663-1.214-1.503-1.214-2.52
			C1040.537,171.017,1040.541,170.896,1040.548,170.752z M1043.244,164.06c0,1.21,0.234,2.097,0.703,2.659
			c0.469,0.562,1.048,0.843,1.735,0.843c0.737,0,1.36-0.288,1.869-0.864c0.509-0.577,0.763-1.431,0.763-2.563
			c0-1.182-0.244-2.059-0.73-2.632c-0.487-0.573-1.104-0.859-1.848-0.859c-0.724,0-1.32,0.281-1.789,0.843
			C1043.479,162.049,1043.244,162.906,1043.244,164.06z"/>
		<path fill="#5F4BA0" d="M1060.872,166.369l3.008,0.505c-0.387,1.103-0.997,1.942-1.831,2.519
			c-0.835,0.577-1.879,0.865-3.132,0.865c-1.983,0-3.452-0.648-4.404-1.944c-0.752-1.038-1.128-2.349-1.128-3.932
			c0-1.891,0.494-3.371,1.482-4.442c0.988-1.07,2.238-1.605,3.749-1.605c1.697,0,3.036,0.561,4.018,1.682
			c0.981,1.12,1.45,2.837,1.407,5.15h-7.563c0.021,0.896,0.265,1.592,0.73,2.09c0.465,0.497,1.045,0.746,1.74,0.746
			c0.473,0,0.87-0.129,1.192-0.387S1060.707,166.942,1060.872,166.369z M1061.044,163.318c-0.021-0.874-0.247-1.538-0.677-1.992
			c-0.43-0.455-0.953-0.683-1.568-0.683c-0.659,0-1.203,0.24-1.633,0.72s-0.641,1.132-0.634,1.955H1061.044z"/>
		<path fill="#5F4BA0" d="M1065.438,166.745l3.029-0.462c0.129,0.587,0.391,1.033,0.784,1.338c0.394,0.304,0.945,0.456,1.654,0.456
			c0.78,0,1.368-0.144,1.762-0.43c0.265-0.2,0.397-0.469,0.397-0.806c0-0.229-0.072-0.419-0.215-0.569
			c-0.15-0.144-0.487-0.275-1.01-0.397c-2.436-0.537-3.979-1.027-4.63-1.472c-0.902-0.616-1.354-1.472-1.354-2.567
			c0-0.988,0.39-1.819,1.171-2.492c0.78-0.673,1.99-1.01,3.631-1.01c1.561,0,2.721,0.254,3.48,0.763
			c0.759,0.509,1.281,1.261,1.568,2.256l-2.847,0.526c-0.122-0.444-0.353-0.784-0.692-1.021c-0.341-0.236-0.826-0.354-1.456-0.354
			c-0.795,0-1.364,0.111-1.708,0.333c-0.229,0.157-0.344,0.361-0.344,0.612c0,0.215,0.1,0.397,0.301,0.548
			c0.271,0.2,1.212,0.483,2.82,0.849c1.607,0.365,2.729,0.813,3.367,1.343c0.63,0.537,0.945,1.285,0.945,2.245
			c0,1.046-0.438,1.944-1.311,2.696c-0.874,0.752-2.166,1.128-3.878,1.128c-1.554,0-2.784-0.315-3.69-0.945
			S1065.717,167.826,1065.438,166.745z"/>
	</g>
	<g enable-background="new    ">
		<path fill="#FFFFFF" d="M1209.934,167v-4.852l-4.414-6.602h1.844l2.258,3.453c0.416,0.646,0.805,1.292,1.164,1.938
			c0.344-0.599,0.76-1.273,1.25-2.023l2.219-3.367h1.766l-4.57,6.602V167H1209.934z"/>
		<path fill="#FFFFFF" d="M1215.207,162.852c0-1.536,0.427-2.675,1.281-3.414c0.713-0.614,1.583-0.922,2.609-0.922
			c1.141,0,2.072,0.374,2.797,1.121c0.724,0.747,1.086,1.78,1.086,3.098c0,1.067-0.16,1.907-0.48,2.52s-0.787,1.087-1.398,1.426
			c-0.612,0.339-1.28,0.508-2.004,0.508c-1.162,0-2.101-0.372-2.816-1.117C1215.564,165.325,1215.207,164.253,1215.207,162.852z
			 M1216.652,162.852c0,1.063,0.231,1.858,0.695,2.387c0.463,0.528,1.047,0.793,1.75,0.793c0.697,0,1.278-0.266,1.742-0.797
			c0.463-0.531,0.695-1.341,0.695-2.43c0-1.026-0.233-1.804-0.699-2.332c-0.467-0.528-1.046-0.793-1.738-0.793
			c-0.703,0-1.287,0.263-1.75,0.789C1216.884,160.995,1216.652,161.789,1216.652,162.852z"/>
		<path fill="#FFFFFF" d="M1230.066,167v-1.219c-0.646,0.938-1.523,1.406-2.633,1.406c-0.49,0-0.947-0.094-1.371-0.281
			c-0.425-0.188-0.74-0.423-0.945-0.707c-0.206-0.284-0.351-0.632-0.434-1.043c-0.058-0.276-0.086-0.714-0.086-1.313v-5.141h1.406
			v4.602c0,0.734,0.028,1.229,0.086,1.484c0.088,0.37,0.275,0.66,0.563,0.871c0.286,0.211,0.641,0.316,1.063,0.316
			s0.817-0.108,1.188-0.324c0.369-0.216,0.631-0.511,0.785-0.883c0.153-0.372,0.23-0.913,0.23-1.621v-4.445h1.406V167H1230.066z"/>
		<path fill="#FFFFFF" d="M1237.973,167v-11.453h1.406v4.109c0.656-0.761,1.484-1.141,2.484-1.141c0.614,0,1.148,0.121,1.602,0.363
			s0.777,0.577,0.973,1.004s0.293,1.047,0.293,1.859V167h-1.406v-5.258c0-0.703-0.152-1.215-0.457-1.535s-0.736-0.48-1.293-0.48
			c-0.417,0-0.809,0.108-1.176,0.324s-0.629,0.509-0.785,0.879s-0.234,0.88-0.234,1.531V167H1237.973z"/>
		<path fill="#FFFFFF" d="M1252.285,165.977c-0.521,0.442-1.022,0.755-1.504,0.938c-0.482,0.183-0.999,0.273-1.551,0.273
			c-0.912,0-1.612-0.223-2.102-0.668c-0.49-0.445-0.734-1.015-0.734-1.707c0-0.406,0.092-0.777,0.277-1.113
			c0.185-0.336,0.427-0.605,0.727-0.809c0.299-0.203,0.637-0.356,1.012-0.461c0.275-0.073,0.692-0.144,1.25-0.211
			c1.135-0.136,1.971-0.297,2.508-0.484c0.005-0.192,0.008-0.315,0.008-0.367c0-0.573-0.133-0.977-0.398-1.211
			c-0.359-0.317-0.894-0.477-1.602-0.477c-0.662,0-1.15,0.116-1.465,0.348c-0.315,0.231-0.549,0.642-0.699,1.23l-1.375-0.188
			c0.125-0.589,0.33-1.063,0.617-1.426c0.286-0.362,0.7-0.641,1.242-0.836c0.541-0.195,1.169-0.293,1.883-0.293
			c0.708,0,1.283,0.083,1.727,0.25c0.442,0.167,0.768,0.376,0.977,0.629c0.208,0.253,0.354,0.571,0.438,0.957
			c0.047,0.239,0.07,0.672,0.07,1.297v1.875c0,1.308,0.029,2.134,0.09,2.48c0.06,0.347,0.178,0.679,0.355,0.996h-1.469
			C1252.42,166.708,1252.326,166.367,1252.285,165.977z M1252.168,162.836c-0.511,0.208-1.276,0.386-2.297,0.531
			c-0.578,0.083-0.987,0.177-1.227,0.281c-0.24,0.104-0.425,0.257-0.555,0.457c-0.131,0.2-0.195,0.423-0.195,0.668
			c0,0.375,0.142,0.688,0.426,0.938c0.283,0.25,0.699,0.375,1.246,0.375c0.541,0,1.023-0.118,1.445-0.355s0.731-0.562,0.93-0.973
			c0.15-0.317,0.227-0.786,0.227-1.406V162.836z"/>
		<path fill="#FFFFFF" d="M1258.074,167l-3.156-8.297h1.484l1.781,4.969c0.192,0.536,0.369,1.094,0.531,1.672
			c0.125-0.438,0.299-0.964,0.523-1.578l1.844-5.063h1.445l-3.141,8.297H1258.074z"/>
		<path fill="#FFFFFF" d="M1269.449,164.328l1.453,0.18c-0.229,0.849-0.654,1.508-1.273,1.977c-0.62,0.469-1.412,0.703-2.375,0.703
			c-1.214,0-2.176-0.374-2.887-1.121s-1.066-1.796-1.066-3.145c0-1.396,0.359-2.479,1.078-3.25s1.65-1.156,2.797-1.156
			c1.109,0,2.016,0.378,2.719,1.133s1.055,1.817,1.055,3.188c0,0.083-0.003,0.208-0.008,0.375h-6.188
			c0.052,0.911,0.31,1.609,0.773,2.094c0.463,0.484,1.041,0.727,1.734,0.727c0.516,0,0.955-0.136,1.32-0.406
			C1268.946,165.354,1269.235,164.922,1269.449,164.328z M1264.832,162.055h4.633c-0.063-0.698-0.24-1.222-0.531-1.57
			c-0.448-0.542-1.029-0.813-1.742-0.813c-0.646,0-1.189,0.216-1.629,0.648C1265.122,160.753,1264.879,161.331,1264.832,162.055z"/>
	</g>
	<g enable-background="new    ">
		<path fill="#FFFFFF" d="M1282.012,164.359l2.188,0.367c-0.281,0.802-0.726,1.413-1.332,1.832
			c-0.607,0.419-1.366,0.629-2.277,0.629c-1.443,0-2.511-0.472-3.203-1.414c-0.547-0.755-0.82-1.708-0.82-2.859
			c0-1.375,0.359-2.452,1.078-3.23s1.627-1.168,2.727-1.168c1.234,0,2.208,0.407,2.922,1.223c0.713,0.815,1.055,2.063,1.023,3.746
			h-5.5c0.016,0.651,0.192,1.157,0.531,1.52c0.338,0.362,0.76,0.543,1.266,0.543c0.344,0,0.633-0.094,0.867-0.281
			S1281.892,164.776,1282.012,164.359z M1282.137,162.141c-0.016-0.636-0.18-1.118-0.492-1.449s-0.693-0.496-1.141-0.496
			c-0.479,0-0.875,0.175-1.188,0.523s-0.467,0.823-0.461,1.422H1282.137z"/>
		<path fill="#FFFFFF" d="M1287.746,161.234l-1.992-0.359c0.224-0.802,0.609-1.396,1.156-1.781s1.359-0.578,2.438-0.578
			c0.979,0,1.708,0.116,2.188,0.348c0.479,0.231,0.816,0.526,1.012,0.883s0.293,1.012,0.293,1.965l-0.023,2.563
			c0,0.729,0.035,1.267,0.105,1.613s0.201,0.718,0.395,1.113h-2.172c-0.058-0.146-0.128-0.362-0.211-0.648
			c-0.037-0.13-0.063-0.216-0.078-0.258c-0.375,0.364-0.776,0.638-1.203,0.82c-0.428,0.183-0.883,0.273-1.367,0.273
			c-0.854,0-1.527-0.231-2.02-0.695s-0.738-1.05-0.738-1.758c0-0.469,0.111-0.887,0.336-1.254c0.224-0.367,0.537-0.648,0.941-0.844
			c0.403-0.195,0.985-0.366,1.746-0.512c1.025-0.192,1.736-0.372,2.133-0.539v-0.219c0-0.422-0.104-0.723-0.313-0.902
			c-0.209-0.18-0.602-0.27-1.18-0.27c-0.391,0-0.695,0.077-0.914,0.23S1287.881,160.849,1287.746,161.234z M1290.684,163.016
			c-0.281,0.094-0.727,0.206-1.336,0.336s-1.008,0.258-1.195,0.383c-0.287,0.203-0.43,0.461-0.43,0.773
			c0,0.308,0.114,0.573,0.344,0.797c0.229,0.224,0.521,0.336,0.875,0.336c0.396,0,0.773-0.13,1.133-0.391
			c0.266-0.198,0.439-0.44,0.523-0.727c0.057-0.188,0.086-0.544,0.086-1.07V163.016z"/>
		<path fill="#FFFFFF" d="M1297.105,167h-2.195v-8.297h2.039v1.18c0.349-0.558,0.662-0.925,0.941-1.102
			c0.278-0.177,0.595-0.266,0.949-0.266c0.5,0,0.981,0.138,1.445,0.414l-0.68,1.914c-0.37-0.239-0.714-0.359-1.031-0.359
			c-0.308,0-0.568,0.085-0.781,0.254c-0.214,0.169-0.382,0.476-0.504,0.918c-0.123,0.442-0.184,1.37-0.184,2.781V167z"/>
		<path fill="#FFFFFF" d="M1308.777,167h-2.195v-4.234c0-0.896-0.047-1.476-0.141-1.738s-0.246-0.468-0.457-0.613
			s-0.465-0.219-0.762-0.219c-0.381,0-0.722,0.104-1.023,0.313c-0.303,0.208-0.51,0.484-0.621,0.828
			c-0.112,0.344-0.168,0.979-0.168,1.906V167h-2.195v-8.297h2.039v1.219c0.724-0.938,1.635-1.406,2.734-1.406
			c0.484,0,0.927,0.087,1.328,0.262c0.4,0.175,0.704,0.397,0.91,0.668c0.205,0.271,0.349,0.578,0.43,0.922
			c0.08,0.344,0.121,0.836,0.121,1.477V167z"/>
		<path fill="#FFFFFF" d="M1315.809,164.359l2.188,0.367c-0.281,0.802-0.726,1.413-1.332,1.832
			c-0.607,0.419-1.366,0.629-2.277,0.629c-1.443,0-2.511-0.472-3.203-1.414c-0.547-0.755-0.82-1.708-0.82-2.859
			c0-1.375,0.359-2.452,1.078-3.23s1.627-1.168,2.727-1.168c1.234,0,2.208,0.407,2.922,1.223c0.713,0.815,1.055,2.063,1.023,3.746
			h-5.5c0.016,0.651,0.192,1.157,0.531,1.52c0.338,0.362,0.76,0.543,1.266,0.543c0.344,0,0.633-0.094,0.867-0.281
			S1315.688,164.776,1315.809,164.359z M1315.934,162.141c-0.016-0.636-0.18-1.118-0.492-1.449s-0.693-0.496-1.141-0.496
			c-0.479,0-0.875,0.175-1.188,0.523s-0.467,0.823-0.461,1.422H1315.934z"/>
		<path fill="#FFFFFF" d="M1327.512,167h-2.039v-1.219c-0.339,0.474-0.738,0.827-1.199,1.059s-0.926,0.348-1.395,0.348
			c-0.953,0-1.77-0.384-2.449-1.152s-1.02-1.84-1.02-3.215c0-1.406,0.33-2.476,0.992-3.207c0.661-0.731,1.497-1.098,2.508-1.098
			c0.927,0,1.729,0.386,2.406,1.156v-4.125h2.195V167z M1321.652,162.672c0,0.886,0.122,1.526,0.367,1.922
			c0.354,0.573,0.849,0.859,1.484,0.859c0.505,0,0.935-0.215,1.289-0.645c0.354-0.43,0.531-1.071,0.531-1.926
			c0-0.953-0.172-1.64-0.516-2.059s-0.784-0.629-1.32-0.629c-0.521,0-0.957,0.207-1.309,0.621S1321.652,161.849,1321.652,162.672z"
			/>
	</g>
	<g enable-background="new    ">
		<path fill="#FFFFFF" d="M1228.914,188.814V192h-12.023c0.129-1.204,0.52-2.346,1.172-3.424c0.65-1.078,1.936-2.509,3.857-4.291
			c1.545-1.44,2.494-2.417,2.844-2.93c0.472-0.708,0.708-1.408,0.708-2.1c0-0.765-0.206-1.353-0.616-1.764
			c-0.411-0.411-0.979-0.617-1.703-0.617c-0.717,0-1.286,0.216-1.709,0.647c-0.424,0.432-0.668,1.147-0.732,2.148l-3.418-0.342
			c0.203-1.888,0.842-3.243,1.916-4.065c1.074-0.821,2.418-1.232,4.029-1.232c1.766,0,3.152,0.477,4.162,1.428
			c1.009,0.953,1.514,2.137,1.514,3.553c0,0.806-0.145,1.573-0.434,2.301c-0.289,0.729-0.746,1.491-1.373,2.289
			c-0.415,0.529-1.164,1.29-2.246,2.283c-1.082,0.992-1.768,1.651-2.057,1.977c-0.289,0.326-0.523,0.644-0.702,0.953H1228.914z"/>
		<path fill="#FFFFFF" d="M1237.031,174.031c1.734,0,3.089,0.618,4.065,1.855c1.163,1.465,1.745,3.895,1.745,7.287
			c0,3.386-0.586,5.819-1.758,7.301c-0.969,1.221-2.318,1.83-4.053,1.83c-1.741,0-3.145-0.669-4.211-2.008
			c-1.066-1.338-1.6-3.725-1.6-7.159c0-3.369,0.586-5.794,1.758-7.275C1233.947,174.642,1235.299,174.031,1237.031,174.031z
			 M1237.031,176.875c-0.414,0-0.785,0.133-1.11,0.397s-0.578,0.738-0.757,1.422c-0.236,0.887-0.354,2.38-0.354,4.479
			s0.105,3.543,0.316,4.328c0.212,0.785,0.479,1.308,0.8,1.568s0.69,0.391,1.104,0.391c0.416,0,0.785-0.132,1.111-0.396
			c0.325-0.265,0.578-0.738,0.757-1.422c0.235-0.879,0.354-2.369,0.354-4.469s-0.106-3.541-0.318-4.327
			c-0.211-0.785-0.478-1.31-0.799-1.574C1237.814,177.008,1237.447,176.875,1237.031,176.875z"/>
	</g>
	<g enable-background="new    ">
		<path fill="#FFFFFF" d="M1252.67,196.969v-17.933h2.002v1.685c0.472-0.659,1.005-1.153,1.6-1.483
			c0.594-0.329,1.313-0.494,2.16-0.494c1.106,0,2.083,0.285,2.93,0.854c0.846,0.569,1.484,1.373,1.916,2.411
			c0.432,1.037,0.647,2.175,0.647,3.411c0,1.327-0.238,2.521-0.714,3.583c-0.477,1.063-1.168,1.876-2.075,2.441
			s-1.862,0.849-2.862,0.849c-0.732,0-1.391-0.154-1.972-0.464c-0.582-0.31-1.061-0.7-1.435-1.172v6.312H1252.67z M1254.66,185.592
			c0,1.668,0.337,2.9,1.013,3.698c0.675,0.798,1.493,1.196,2.454,1.196c0.977,0,1.813-0.413,2.508-1.239
			c0.696-0.825,1.044-2.105,1.044-3.839c0-1.652-0.34-2.889-1.02-3.711c-0.679-0.822-1.491-1.232-2.435-1.232
			c-0.937,0-1.765,0.438-2.484,1.312C1255.02,182.651,1254.66,183.923,1254.66,185.592z"/>
		<path fill="#FFFFFF" d="M1265.756,185.518c0-2.4,0.667-4.179,2.002-5.334c1.115-0.96,2.474-1.44,4.077-1.44
			c1.782,0,3.239,0.584,4.37,1.752s1.697,2.781,1.697,4.84c0,1.668-0.251,2.98-0.751,3.937c-0.501,0.957-1.229,1.699-2.186,2.229
			c-0.956,0.528-2,0.793-3.131,0.793c-1.815,0-3.282-0.582-4.4-1.746C1266.315,189.384,1265.756,187.707,1265.756,185.518z
			 M1268.014,185.518c0,1.66,0.362,2.904,1.087,3.729c0.724,0.826,1.636,1.239,2.734,1.239c1.091,0,1.997-0.415,2.722-1.245
			s1.087-2.096,1.087-3.796c0-1.604-0.364-2.818-1.093-3.645c-0.729-0.825-1.634-1.238-2.716-1.238c-1.099,0-2.011,0.41-2.734,1.232
			C1268.376,182.617,1268.014,183.857,1268.014,185.518z"/>
		<path fill="#FFFFFF" d="M1280.49,176.631v-2.526h2.197v2.526H1280.49z M1280.49,192v-12.964h2.197V192H1280.49z"/>
		<path fill="#FFFFFF" d="M1286.031,192v-12.964h1.979v1.843c0.951-1.424,2.326-2.136,4.125-2.136c0.781,0,1.5,0.141,2.155,0.421
			c0.655,0.281,1.146,0.649,1.471,1.105c0.325,0.455,0.554,0.996,0.684,1.623c0.081,0.407,0.122,1.119,0.122,2.137V192h-2.197
			v-7.886c0-0.896-0.086-1.564-0.256-2.008c-0.172-0.443-0.475-0.798-0.91-1.063c-0.436-0.264-0.945-0.396-1.531-0.396
			c-0.937,0-1.744,0.297-2.424,0.892c-0.68,0.594-1.02,1.721-1.02,3.381V192H1286.031z"/>
		<path fill="#FFFFFF" d="M1304.732,190.035l0.318,1.94c-0.619,0.13-1.172,0.195-1.66,0.195c-0.799,0-1.416-0.126-1.855-0.378
			c-0.439-0.253-0.75-0.584-0.928-0.995c-0.18-0.411-0.27-1.276-0.27-2.595v-7.458h-1.611v-1.709h1.611v-3.21l2.186-1.318v4.528
			h2.209v1.709h-2.209v7.581c0,0.626,0.039,1.029,0.116,1.208s0.203,0.321,0.378,0.427c0.176,0.106,0.426,0.159,0.751,0.159
			C1304.013,190.12,1304.334,190.092,1304.732,190.035z"/>
		<path fill="#FFFFFF" d="M1306.002,188.131l2.174-0.342c0.121,0.87,0.461,1.537,1.019,2.002c0.558,0.463,1.337,0.695,2.338,0.695
			c1.009,0,1.758-0.205,2.246-0.616s0.732-0.894,0.732-1.446c0-0.497-0.216-0.888-0.647-1.172c-0.301-0.195-1.049-0.444-2.246-0.745
			c-1.611-0.407-2.728-0.759-3.351-1.056c-0.622-0.297-1.095-0.708-1.416-1.233c-0.321-0.524-0.481-1.104-0.481-1.739
			c0-0.578,0.132-1.112,0.396-1.605c0.264-0.492,0.624-0.901,1.08-1.227c0.342-0.252,0.808-0.466,1.397-0.641
			c0.591-0.175,1.223-0.263,1.898-0.263c1.017,0,1.91,0.146,2.68,0.439c0.769,0.293,1.337,0.689,1.702,1.19
			c0.367,0.5,0.619,1.17,0.758,2.008l-2.148,0.293c-0.098-0.667-0.381-1.188-0.849-1.563s-1.13-0.562-1.983-0.562
			c-1.01,0-1.73,0.167-2.161,0.501c-0.432,0.333-0.647,0.724-0.647,1.172c0,0.284,0.09,0.541,0.27,0.769
			c0.178,0.236,0.459,0.432,0.842,0.586c0.22,0.081,0.867,0.269,1.941,0.562c1.554,0.415,2.639,0.755,3.253,1.02
			s1.097,0.648,1.446,1.153s0.525,1.131,0.525,1.88c0,0.732-0.214,1.422-0.642,2.069c-0.427,0.646-1.044,1.147-1.849,1.501
			c-0.807,0.354-1.718,0.531-2.734,0.531c-1.686,0-2.969-0.35-3.852-1.05S1306.246,189.506,1306.002,188.131z"/>
	</g>
	<g enable-background="new    ">
		<path fill="#EF69A6" d="M704.307,197v-12.885h8.833v2.18h-6.231v3.05h5.379v2.18h-5.379V197H704.307z"/>
		<path fill="#EF69A6" d="M714.696,192.201c0-0.82,0.202-1.614,0.606-2.382s0.977-1.354,1.718-1.758s1.569-0.606,2.483-0.606
			c1.412,0,2.569,0.459,3.472,1.375c0.902,0.918,1.354,2.076,1.354,3.477c0,1.412-0.456,2.583-1.367,3.512s-2.058,1.393-3.441,1.393
			c-0.855,0-1.671-0.193-2.448-0.58s-1.367-0.953-1.771-1.701C714.898,194.184,714.696,193.273,714.696,192.201z M717.227,192.333
			c0,0.926,0.22,1.635,0.659,2.127s0.981,0.738,1.626,0.738s1.185-0.246,1.622-0.738s0.655-1.207,0.655-2.145
			c0-0.914-0.218-1.617-0.655-2.109s-0.977-0.738-1.622-0.738s-1.187,0.246-1.626,0.738S717.227,191.407,717.227,192.333z"/>
		<path fill="#EF69A6" d="M732.406,197v-1.397c-0.34,0.498-0.787,0.891-1.34,1.178s-1.138,0.431-1.753,0.431
			c-0.627,0-1.189-0.138-1.688-0.413s-0.858-0.662-1.081-1.16s-0.334-1.187-0.334-2.065v-5.906h2.47v4.289
			c0,1.313,0.045,2.117,0.136,2.412c0.091,0.297,0.256,0.531,0.497,0.703c0.24,0.174,0.545,0.26,0.914,0.26
			c0.422,0,0.8-0.115,1.134-0.348c0.334-0.23,0.563-0.518,0.686-0.861c0.123-0.342,0.185-1.182,0.185-2.518v-3.938h2.47V197H732.406
			z"/>
		<path fill="#EF69A6" d="M745.748,197h-2.47v-4.764c0-1.008-0.053-1.659-0.158-1.955s-0.277-0.526-0.514-0.69
			s-0.523-0.246-0.857-0.246c-0.428,0-0.812,0.117-1.151,0.352s-0.573,0.545-0.699,0.932s-0.189,1.102-0.189,2.145V197h-2.47v-9.334
			h2.294v1.371c0.814-1.055,1.84-1.582,3.076-1.582c0.545,0,1.043,0.099,1.494,0.295s0.792,0.446,1.024,0.751
			s0.393,0.65,0.483,1.037s0.136,0.94,0.136,1.661V197z"/>
		<path fill="#EF69A6" d="M756.813,197h-2.294v-1.371c-0.381,0.533-0.831,0.931-1.349,1.191c-0.519,0.26-1.042,0.391-1.569,0.391
			c-1.072,0-1.991-0.432-2.755-1.297c-0.765-0.863-1.147-2.069-1.147-3.616c0-1.582,0.372-2.784,1.116-3.608
			c0.744-0.822,1.685-1.234,2.821-1.234c1.043,0,1.945,0.434,2.707,1.301v-4.641h2.47V197z M750.221,192.131
			c0,0.996,0.138,1.717,0.413,2.162c0.398,0.645,0.955,0.967,1.67,0.967c0.568,0,1.052-0.242,1.45-0.725
			c0.398-0.484,0.598-1.206,0.598-2.167c0-1.072-0.193-1.844-0.58-2.315s-0.882-0.708-1.485-0.708c-0.586,0-1.077,0.233-1.472,0.698
			C750.419,190.51,750.221,191.205,750.221,192.131z"/>
		<path fill="#EF69A6" d="M764.653,194.029l2.461,0.413c-0.316,0.902-0.816,1.59-1.499,2.062s-1.537,0.707-2.562,0.707
			c-1.623,0-2.824-0.53-3.604-1.591c-0.615-0.85-0.923-1.922-0.923-3.217c0-1.547,0.404-2.758,1.213-3.634s1.831-1.314,3.067-1.314
			c1.389,0,2.484,0.459,3.287,1.375c0.803,0.918,1.187,2.322,1.151,4.215h-6.188c0.018,0.732,0.217,1.303,0.598,1.709
			c0.381,0.408,0.855,0.611,1.424,0.611c0.387,0,0.712-0.105,0.976-0.316S764.518,194.498,764.653,194.029z M764.793,191.533
			c-0.018-0.715-0.202-1.258-0.554-1.631c-0.352-0.371-0.779-0.558-1.283-0.558c-0.539,0-0.984,0.196-1.336,0.589
			s-0.524,0.926-0.519,1.6H764.793z"/>
		<path fill="#EF69A6" d="M771.623,197h-2.47v-9.334h2.294v1.327c0.393-0.627,0.746-1.04,1.059-1.239s0.669-0.299,1.068-0.299
			c0.563,0,1.104,0.155,1.626,0.466l-0.765,2.153c-0.416-0.27-0.803-0.404-1.16-0.404c-0.346,0-0.639,0.096-0.879,0.285
			c-0.24,0.191-0.429,0.535-0.567,1.033s-0.207,1.541-0.207,3.129V197z"/>
		<path fill="#EF69A6" d="M776.87,184.15h2.47v1.767c0,0.715-0.062,1.278-0.185,1.692c-0.123,0.412-0.356,0.783-0.699,1.111
			s-0.778,0.586-1.305,0.773l-0.483-1.02c0.498-0.164,0.853-0.39,1.063-0.677s0.322-0.68,0.334-1.178h-1.195V184.15z"/>
		<path fill="#EF69A6" d="M780.394,194.337l2.479-0.378c0.105,0.48,0.319,0.846,0.642,1.094c0.322,0.25,0.773,0.374,1.354,0.374
			c0.639,0,1.119-0.117,1.441-0.352c0.217-0.164,0.325-0.384,0.325-0.659c0-0.188-0.059-0.343-0.176-0.466
			c-0.123-0.117-0.398-0.226-0.826-0.325c-1.992-0.439-3.255-0.841-3.788-1.204c-0.738-0.504-1.107-1.204-1.107-2.101
			c0-0.809,0.319-1.488,0.958-2.039s1.629-0.826,2.971-0.826c1.277,0,2.227,0.208,2.848,0.624s1.049,1.031,1.283,1.846l-2.329,0.431
			c-0.1-0.363-0.289-0.642-0.567-0.835s-0.675-0.29-1.191-0.29c-0.65,0-1.116,0.091-1.397,0.272
			c-0.188,0.129-0.281,0.296-0.281,0.501c0,0.176,0.082,0.325,0.246,0.448c0.223,0.164,0.992,0.396,2.307,0.694
			s2.234,0.665,2.755,1.099c0.516,0.439,0.773,1.052,0.773,1.837c0,0.855-0.357,1.591-1.072,2.206s-1.772,0.923-3.173,0.923
			c-1.271,0-2.278-0.258-3.019-0.773S780.623,195.222,780.394,194.337z"/>
		<path fill="#EF69A6" d="M804.538,192.263l2.522,0.8c-0.387,1.406-1.03,2.451-1.929,3.133c-0.899,0.684-2.041,1.024-3.423,1.024
			c-1.711,0-3.117-0.585-4.219-1.753c-1.102-1.17-1.652-2.768-1.652-4.795c0-2.145,0.554-3.811,1.661-4.996
			c1.107-1.188,2.563-1.78,4.368-1.78c1.576,0,2.856,0.466,3.841,1.397c0.586,0.551,1.025,1.342,1.318,2.373l-2.575,0.615
			c-0.152-0.668-0.47-1.195-0.954-1.582s-1.071-0.58-1.762-0.58c-0.955,0-1.73,0.343-2.325,1.028s-0.892,1.796-0.892,3.331
			c0,1.629,0.293,2.789,0.879,3.48s1.348,1.037,2.285,1.037c0.691,0,1.286-0.22,1.784-0.659S804.321,193.206,804.538,192.263z"/>
		<path fill="#EF69A6" d="M808.704,192.201c0-0.82,0.202-1.614,0.606-2.382s0.977-1.354,1.718-1.758s1.569-0.606,2.483-0.606
			c1.412,0,2.569,0.459,3.472,1.375c0.902,0.918,1.354,2.076,1.354,3.477c0,1.412-0.456,2.583-1.367,3.512s-2.058,1.393-3.441,1.393
			c-0.855,0-1.671-0.193-2.448-0.58s-1.367-0.953-1.771-1.701C808.906,194.184,808.704,193.273,808.704,192.201z M811.235,192.333
			c0,0.926,0.22,1.635,0.659,2.127s0.981,0.738,1.626,0.738s1.185-0.246,1.622-0.738s0.655-1.207,0.655-2.145
			c0-0.914-0.218-1.617-0.655-2.109s-0.977-0.738-1.622-0.738s-1.187,0.246-1.626,0.738S811.235,191.407,811.235,192.333z"/>
		<path fill="#EF69A6" d="M822.634,197h-2.47v-9.334h2.294v1.327c0.393-0.627,0.746-1.04,1.059-1.239s0.669-0.299,1.068-0.299
			c0.563,0,1.104,0.155,1.626,0.466l-0.765,2.153c-0.416-0.27-0.803-0.404-1.16-0.404c-0.346,0-0.639,0.096-0.879,0.285
			c-0.24,0.191-0.429,0.535-0.567,1.033s-0.207,1.541-0.207,3.129V197z"/>
		<path fill="#EF69A6" d="M835.765,197h-2.47v-4.764c0-1.008-0.053-1.659-0.158-1.955s-0.277-0.526-0.514-0.69
			s-0.523-0.246-0.857-0.246c-0.428,0-0.812,0.117-1.151,0.352s-0.573,0.545-0.699,0.932s-0.189,1.102-0.189,2.145V197h-2.47v-9.334
			h2.294v1.371c0.814-1.055,1.84-1.582,3.076-1.582c0.545,0,1.043,0.099,1.494,0.295s0.792,0.446,1.024,0.751
			s0.393,0.65,0.483,1.037s0.136,0.94,0.136,1.661V197z"/>
		<path fill="#EF69A6" d="M843.675,194.029l2.461,0.413c-0.316,0.902-0.816,1.59-1.499,2.062s-1.537,0.707-2.562,0.707
			c-1.623,0-2.824-0.53-3.604-1.591c-0.615-0.85-0.923-1.922-0.923-3.217c0-1.547,0.404-2.758,1.213-3.634s1.831-1.314,3.067-1.314
			c1.389,0,2.484,0.459,3.287,1.375c0.803,0.918,1.187,2.322,1.151,4.215h-6.188c0.018,0.732,0.217,1.303,0.598,1.709
			c0.381,0.408,0.855,0.611,1.424,0.611c0.387,0,0.712-0.105,0.976-0.316S843.541,194.498,843.675,194.029z M843.816,191.533
			c-0.018-0.715-0.202-1.258-0.554-1.631c-0.352-0.371-0.779-0.558-1.283-0.558c-0.539,0-0.984,0.196-1.336,0.589
			s-0.524,0.926-0.519,1.6H843.816z"/>
		<path fill="#EF69A6" d="M850.645,197h-2.47v-9.334h2.294v1.327c0.393-0.627,0.746-1.04,1.059-1.239s0.669-0.299,1.068-0.299
			c0.563,0,1.104,0.155,1.626,0.466l-0.765,2.153c-0.416-0.27-0.803-0.404-1.16-0.404c-0.346,0-0.639,0.096-0.879,0.285
			c-0.24,0.191-0.429,0.535-0.567,1.033s-0.207,1.541-0.207,3.129V197z"/>
	</g>
	<g enable-background="new    ">
		<path fill="#EF69A6" d="M855.62,189.468v-1.802h1.802v1.802H855.62z M855.62,197v-1.802h1.802V197H855.62z"/>
		<path fill="#EF69A6" d="M865.332,197v-12.885h2.567l3.049,9.123c0.281,0.85,0.486,1.485,0.615,1.907
			c0.146-0.469,0.375-1.157,0.686-2.065l3.086-8.965h2.293V197h-1.643v-10.784L872.24,197h-1.539l-3.727-10.969V197H865.332z"/>
		<path fill="#EF69A6" d="M886.268,195.849c-0.586,0.498-1.15,0.85-1.692,1.055s-1.124,0.308-1.745,0.308
			c-1.025,0-1.813-0.25-2.363-0.752c-0.551-0.5-0.826-1.141-0.826-1.92c0-0.457,0.104-0.875,0.312-1.252
			c0.208-0.379,0.48-0.682,0.817-0.91s0.717-0.401,1.139-0.519c0.311-0.082,0.779-0.161,1.406-0.237
			c1.277-0.152,2.217-0.334,2.82-0.545c0.006-0.217,0.01-0.354,0.01-0.413c0-0.645-0.15-1.099-0.449-1.362
			c-0.404-0.357-1.004-0.536-1.801-0.536c-0.744,0-1.294,0.131-1.648,0.392s-0.617,0.722-0.787,1.384l-1.547-0.211
			c0.141-0.662,0.373-1.196,0.695-1.604c0.322-0.406,0.787-0.721,1.396-0.939c0.609-0.221,1.316-0.33,2.119-0.33
			c0.797,0,1.443,0.094,1.941,0.281s0.865,0.424,1.1,0.707c0.234,0.285,0.398,0.644,0.492,1.077c0.053,0.27,0.078,0.756,0.078,1.459
			v2.109c0,1.471,0.034,2.401,0.102,2.79c0.067,0.391,0.201,0.764,0.4,1.121h-1.652C886.42,196.672,886.314,196.288,886.268,195.849
			z M886.135,192.315c-0.574,0.234-1.436,0.434-2.584,0.598c-0.65,0.094-1.109,0.199-1.379,0.316s-0.479,0.289-0.625,0.515
			s-0.219,0.476-0.219,0.751c0,0.422,0.159,0.773,0.479,1.055s0.787,0.422,1.402,0.422c0.609,0,1.15-0.133,1.625-0.399
			s0.824-0.632,1.047-1.095c0.17-0.357,0.254-0.885,0.254-1.582V192.315z"/>
		<path fill="#EF69A6" d="M890.117,200.595l-0.176-1.485c0.346,0.094,0.646,0.141,0.904,0.141c0.352,0,0.633-0.059,0.844-0.176
			s0.385-0.281,0.52-0.492c0.1-0.158,0.26-0.551,0.482-1.178c0.029-0.088,0.076-0.217,0.141-0.387l-3.541-9.352h1.705l1.941,5.405
			c0.252,0.686,0.479,1.406,0.678,2.162c0.182-0.727,0.398-1.436,0.65-2.127l1.994-5.44h1.582l-3.551,9.492
			c-0.381,1.025-0.676,1.731-0.887,2.118c-0.281,0.521-0.604,0.903-0.967,1.147c-0.363,0.242-0.797,0.364-1.301,0.364
			C890.832,200.788,890.492,200.724,890.117,200.595z"/>
		<path fill="#EF69A6" d="M904.32,197v-12.885h4.834c0.984,0,1.773,0.131,2.368,0.391c0.595,0.262,1.061,0.663,1.397,1.205
			s0.506,1.108,0.506,1.7c0,0.551-0.15,1.069-0.449,1.556s-0.75,0.879-1.354,1.178c0.779,0.229,1.379,0.618,1.798,1.169
			s0.628,1.201,0.628,1.951c0,0.604-0.127,1.165-0.382,1.683c-0.255,0.52-0.569,0.919-0.944,1.2s-0.846,0.494-1.411,0.638
			S910.053,197,909.232,197H904.32z M906.025,189.529h2.785c0.756,0,1.299-0.05,1.627-0.149c0.434-0.129,0.76-0.343,0.979-0.642
			s0.329-0.674,0.329-1.125c0-0.428-0.102-0.805-0.307-1.129c-0.205-0.326-0.498-0.548-0.879-0.668s-1.035-0.181-1.961-0.181h-2.574
			V189.529z M906.025,195.479h3.207c0.551,0,0.938-0.021,1.16-0.062c0.393-0.07,0.721-0.188,0.984-0.352s0.48-0.402,0.65-0.717
			c0.17-0.313,0.256-0.675,0.256-1.085c0-0.48-0.123-0.897-0.369-1.253c-0.246-0.354-0.588-0.603-1.024-0.746
			s-1.065-0.216-1.886-0.216h-2.979V195.479z"/>
		<path fill="#EF69A6" d="M916.123,200.595l-0.176-1.485c0.346,0.094,0.648,0.141,0.906,0.141c0.352,0,0.633-0.059,0.844-0.176
			s0.383-0.281,0.518-0.492c0.1-0.158,0.262-0.551,0.484-1.178c0.029-0.088,0.076-0.217,0.141-0.387l-3.543-9.352h1.705l1.943,5.405
			c0.252,0.686,0.477,1.406,0.676,2.162c0.182-0.727,0.398-1.436,0.65-2.127l1.996-5.44h1.582l-3.551,9.492
			c-0.381,1.025-0.678,1.731-0.889,2.118c-0.281,0.521-0.604,0.903-0.967,1.147c-0.363,0.242-0.797,0.364-1.301,0.364
			C916.838,200.788,916.498,200.724,916.123,200.595z"/>
		<path fill="#EF69A6" d="M928.648,195.585l0.229,1.397c-0.445,0.094-0.844,0.141-1.195,0.141c-0.574,0-1.02-0.091-1.336-0.272
			s-0.539-0.42-0.668-0.716s-0.193-0.919-0.193-1.868v-5.37h-1.16v-1.23h1.16v-2.312l1.572-0.949v3.261h1.592v1.23h-1.592v5.458
			c0,0.451,0.028,0.741,0.084,0.87s0.146,0.231,0.272,0.308s0.306,0.114,0.54,0.114
			C928.129,195.646,928.361,195.626,928.648,195.585z"/>
		<path fill="#EF69A6" d="M936.584,193.994l1.635,0.202c-0.258,0.955-0.734,1.696-1.432,2.224s-1.588,0.791-2.672,0.791
			c-1.365,0-2.448-0.42-3.248-1.262c-0.8-0.84-1.199-2.02-1.199-3.537c0-1.57,0.404-2.789,1.213-3.656s1.857-1.301,3.146-1.301
			c1.248,0,2.268,0.425,3.059,1.274s1.186,2.045,1.186,3.586c0,0.094-0.002,0.234-0.008,0.422h-6.961
			c0.059,1.025,0.348,1.811,0.869,2.355s1.172,0.817,1.951,0.817c0.58,0,1.076-0.152,1.486-0.457S936.344,194.662,936.584,193.994z
			 M931.391,191.437h5.211c-0.07-0.785-0.27-1.374-0.598-1.767c-0.504-0.609-1.156-0.914-1.959-0.914
			c-0.727,0-1.338,0.243-1.833,0.729S931.443,190.622,931.391,191.437z"/>
		<path fill="#EF69A6" d="M939.572,194.214l1.564-0.246c0.088,0.627,0.333,1.107,0.734,1.441s0.963,0.501,1.684,0.501
			c0.727,0,1.266-0.147,1.617-0.443s0.527-0.644,0.527-1.042c0-0.357-0.156-0.639-0.467-0.844c-0.217-0.141-0.756-0.319-1.617-0.536
			c-1.16-0.293-1.964-0.546-2.412-0.76s-0.788-0.51-1.02-0.889c-0.231-0.377-0.348-0.795-0.348-1.252
			c0-0.416,0.096-0.801,0.286-1.156c0.19-0.354,0.45-0.648,0.778-0.883c0.246-0.182,0.581-0.335,1.006-0.461
			s0.881-0.189,1.367-0.189c0.732,0,1.375,0.105,1.929,0.316s0.962,0.496,1.226,0.857c0.264,0.359,0.445,0.842,0.545,1.445
			l-1.547,0.211c-0.07-0.48-0.273-0.855-0.61-1.125s-0.813-0.404-1.429-0.404c-0.727,0-1.244,0.12-1.555,0.36
			s-0.467,0.521-0.467,0.844c0,0.205,0.064,0.39,0.193,0.554c0.129,0.17,0.332,0.311,0.607,0.422
			c0.158,0.059,0.623,0.193,1.396,0.404c1.119,0.299,1.9,0.544,2.343,0.734s0.79,0.467,1.042,0.83s0.377,0.814,0.377,1.354
			c0,0.527-0.153,1.023-0.461,1.49c-0.308,0.465-0.752,0.826-1.332,1.08c-0.58,0.256-1.236,0.383-1.969,0.383
			c-1.213,0-2.137-0.252-2.772-0.756S939.748,195.204,939.572,194.214z"/>
	</g>
	<g id="Group_991" transform="translate(307.815 135)">
		<path id="Path_639" fill="#EEA6A8" d="M179.241,17.734c-2.395,3.125-1.804,7.599,1.32,9.994c3.125,2.395,7.599,1.804,9.994-1.32
			c2.395-3.125,1.804-7.599-1.32-9.994c-0.003-0.002-0.006-0.005-0.01-0.007C186.097,14.031,181.639,14.624,179.241,17.734z"/>
		<path id="Path_640" fill="#E9C787" d="M1.467-2.2c-2.396,3.125-1.804,7.599,1.32,9.994s7.599,1.804,9.994-1.32
			s1.804-7.599-1.32-9.994c-0.003-0.002-0.006-0.004-0.009-0.006C8.324-5.902,3.866-5.31,1.467-2.2z"/>
		<path id="Path_661" fill="#CBEAE6" d="M170.522,43.551c-4.116,5.369-3.1,13.059,2.27,17.176c5.37,4.115,13.059,3.1,17.175-2.271
			c4.116-5.37,3.1-13.06-2.27-17.175c-0.005-0.004-0.01-0.008-0.016-0.012C182.305,37.188,174.644,38.207,170.522,43.551z"/>
		<path id="Path_641" fill="#C2C2C2" d="M228.724,45.794c-6.997,5.163-8.483,15.021-3.319,22.019
			c5.163,6.996,15.021,8.482,22.018,3.318c6.997-5.163,8.483-15.021,3.32-22.018c-0.009-0.012-0.018-0.023-0.027-0.036
			C245.531,42.128,235.712,40.662,228.724,45.794z"/>
		<path id="Path_642" fill="#CBEAE6" d="M111.171,4.328c-2.686,1.982-3.256,5.767-1.274,8.453s5.767,3.257,8.454,1.274
			c2.686-1.982,3.256-5.768,1.274-8.454c-0.003-0.004-0.007-0.009-0.01-0.014C117.623,2.92,113.853,2.357,111.171,4.328z"/>
		<path id="Path_643" fill="#E9C787" d="M102.84,48.816c-1.36,1.342-1.374,3.533-0.031,4.893c1.342,1.359,3.533,1.374,4.893,0.031
			c1.36-1.344,1.374-3.533,0.031-4.893c-0.002-0.003-0.004-0.006-0.006-0.008C106.381,47.492,104.2,47.48,102.84,48.816z"/>
	</g>
	<g id="ballons" transform="translate(1373.075 137)" opacity="0.69">
		<path id="Path_644" fill="#FFD464" d="M56.795,28.497c-1.548,9.967-13.681,26-25.045,24.237
			c-11.365-1.765-18.065-20.721-16.52-30.688c1.548-9.966,12.645-19.32,24.007-17.555C50.601,6.256,58.342,18.534,56.795,28.497z"/>
		<path id="Path_645" fill="#F2C95F" d="M39.24,4.491c-1.304-0.2-2.623-0.258-3.938-0.174c0.563,0.034,1.13,0.086,1.7,0.174
			C48.36,6.255,56.102,18.534,54.554,28.498c-1.415,9.127-11.699,23.316-22.144,24.307c11.17,1.068,22.868-14.531,24.389-24.307
			C58.342,18.534,50.603,6.254,39.24,4.491z"/>
		<path id="Path_646" fill="#F2C95F" d="M15.232,22.047c-0.905,5.847,1.028,14.785,5.074,21.533
			c0.141,0.027,0.278,0.063,0.418,0.085c-0.086,0.06-0.167,0.132-0.249,0.2c1.371,2.314,3.135,4.371,5.211,6.082
			c0.392-0.729,0.597-1.543,0.602-2.37c0.009-1.539-0.714-2.991-1.945-3.912c10.674-1.711,19.222-18.084,19.222-27.639
			c-0.104-4.125-1.46-8.12-3.885-11.458c-0.146-0.027-0.292-0.059-0.439-0.082C27.875,2.726,16.779,12.083,15.232,22.047z"/>
		<path id="Path_647" fill="#406A80" d="M28.341,84.509c-0.048-0.007-0.094-0.022-0.135-0.047c-0.178-0.106-0.235-0.335-0.133-0.514
			c2.211-3.736,1.944-10.382,1.709-16.245c-0.199-4.9-0.365-9.13,0.985-10.753c0.138-0.157,0.374-0.173,0.531-0.036
			c0.151,0.132,0.172,0.359,0.046,0.518c-1.169,1.4-1,5.7-0.813,10.243c0.235,5.968,0.511,12.731-1.815,16.659
			C28.64,84.464,28.49,84.533,28.341,84.509z"/>
		<path id="Path_648" fill="#FFD464" d="M34.887,57.025c-0.358,2.3-2.361,4.192-4.399,3.875c-2.039-0.317-3.378-2.728-3.021-5.028
			c0.356-2.302,2.364-4.192,4.399-3.877C33.903,52.311,35.244,54.725,34.887,57.025z"/>
		<path id="Path_649" fill="#F2C95F" d="M31.866,51.993c-0.25-0.039-0.504-0.046-0.757-0.019c2.261,1.318,3.021,4.221,1.701,6.479
			c-0.663,1.136-1.77,1.944-3.053,2.231c0.231,0.103,0.476,0.174,0.726,0.211c2.044,0.317,4.047-1.573,4.4-3.877
			C35.24,54.72,33.909,52.309,31.866,51.993z"/>
		<path id="Path_650" fill="#FBFFBE" d="M42.061,16.031c0,10.086-9.53,27.791-21.03,27.791S0,26.116,0,16.031
			C0,5.946,9.531-5,21.031-5S42.061,5.948,42.061,16.031z"/>
		<path id="Path_651" fill="#406A80" d="M22.532,75.742c-0.049,0-0.096-0.01-0.141-0.027c-0.19-0.074-0.286-0.292-0.21-0.482
			c0-0.002,0.001-0.004,0.001-0.004c1.612-4.029,0.329-10.559-0.8-16.315c-0.946-4.812-1.762-8.965-0.673-10.778
			c0.099-0.183,0.327-0.249,0.51-0.148c0.183,0.099,0.25,0.326,0.15,0.51c-0.006,0.01-0.012,0.018-0.018,0.027
			c-0.938,1.563-0.108,5.781,0.769,10.246c1.149,5.86,2.457,12.5,0.762,16.738C22.825,75.648,22.687,75.742,22.532,75.742z"/>
		<path id="Path_652" fill="#BF5347" d="M21.031-5c-0.377,0-0.752,0.014-1.127,0.037c10.989,0.683,19.9,11.242,19.9,20.994
			c0,9.752-8.911,26.632-19.9,27.732c0.373,0.035,0.75,0.059,1.127,0.059c11.5,0,21.031-17.7,21.031-27.791
			C42.062,5.94,32.531-5,21.031-5z"/>
		<path id="Path_653" fill="#FFEA82" d="M24.786,47.577c0,2.33-1.688,4.507-3.756,4.507c-2.066,0-3.757-2.178-3.757-4.507
			s1.694-4.507,3.757-4.507C23.091,43.07,24.786,45.251,24.786,47.577z"/>
		<path id="Path_654" fill="#FAD20A" d="M21.031,43.07c-0.254,0-0.506,0.033-0.75,0.1c2.436,0.958,3.633,3.709,2.675,6.145
			c-0.481,1.224-1.45,2.191-2.675,2.675c0.244,0.065,0.496,0.099,0.75,0.1c2.067,0,3.756-2.177,3.756-4.507
			S23.098,43.07,21.031,43.07z"/>
		<g id="Group_992" transform="translate(5.246 4.813)">
			<path id="Path_655" fill="#FAD20A" d="M2.521,2.053C1.44,3.538,0.59,5.177,0,6.916l3.989,2.44
				c0.375-1.57,1.047-3.054,1.979-4.372L2.521,2.053z"/>
			<path id="Path_656" fill="#FAD20A" d="M9.798,1.184c1.271-0.88,2.709-1.492,4.225-1.8L12.9-5.004
				c-2.328,0.508-4.516,1.525-6.404,2.979L9.798,1.184z"/>
		</g>
	</g>
	<g id="ballons-2" transform="translate(1162.391 151.625)">
		<path id="Path_644-2" fill="#FFD464" d="M26.974,10.909c-0.735,4.734-6.5,12.349-11.896,11.511
			c-5.395-0.838-8.58-9.841-7.845-14.574c0.735-4.733,6-9.176,11.4-8.338C24.034,0.346,27.708,6.177,26.974,10.909z"/>
		<path id="Path_645-2" fill="#F2C95F" d="M18.636-0.492c-0.619-0.095-1.246-0.123-1.871-0.083c0.268,0.016,0.537,0.041,0.806,0.083
			c5.4,0.838,9.074,6.67,8.338,11.4c-0.672,4.334-5.556,11.074-10.517,11.544c5.3,0.507,10.86-6.9,11.583-11.544
			C27.709,6.177,24.033,0.345,18.636-0.492z"/>
		<path id="Path_646-2" fill="#F2C95F" d="M7.234,7.846C6.946,11.423,7.789,15,9.643,18.073c0.064,0.013,0.132,0.03,0.2,0.04
			c-0.041,0.029-0.079,0.063-0.118,0.095c0.65,1.099,1.487,2.076,2.475,2.888c0.188-0.346,0.284-0.731,0.286-1.125
			c0.005-0.73-0.338-1.421-0.924-1.857C16.63,17.3,20.69,9.525,20.69,4.988c-0.051-1.959-0.694-3.856-1.847-5.441
			c-0.07-0.013-0.141-0.028-0.209-0.039C13.243-1.33,7.969,3.114,7.234,7.846z"/>
		<path id="Path_647-2" fill="#406A80" d="M13.46,37.511c-0.021-0.003-0.044-0.011-0.063-0.021
			c-0.084-0.051-0.112-0.159-0.063-0.244c1.052-1.773,0.926-4.932,0.813-7.716c-0.093-2.327-0.174-4.337,0.468-5.107
			c0.068-0.071,0.182-0.073,0.253-0.004c0.064,0.062,0.073,0.16,0.021,0.231c-0.557,0.666-0.475,2.705-0.389,4.865
			c0.113,2.834,0.243,6.047-0.86,7.912C13.601,37.489,13.531,37.521,13.46,37.511z"/>
		<path id="Path_648-2" fill="#FFD464" d="M16.569,24.456c-0.33,0.944-1.363,1.444-2.309,1.114c-0.946-0.33-1.444-1.363-1.115-2.31
			c0.288-0.825,1.125-1.327,1.989-1.194C16.167,22.361,16.795,23.406,16.569,24.456z"/>
		<path id="Path_649-2" fill="#F2C95F" d="M15.135,22.066c-0.119-0.019-0.24-0.021-0.359-0.008c1.073,0.625,1.436,2.004,0.81,3.075
			c-0.314,0.541-0.841,0.927-1.45,1.063c0.108,0.048,0.226,0.082,0.345,0.1c1.201-0.033,2.147-1.033,2.115-2.234
			C16.569,23.158,15.989,22.364,15.135,22.066z"/>
		<path id="Path_650-2" fill="#FBFFBE" d="M19.976,4.988c0,4.79-4.526,13.2-9.988,13.2S0,9.778,0,4.988C0,0.198,4.526-5,9.988-5
			S19.976,0.2,19.976,4.988z"/>
		<path id="Path_651-2" fill="#406A80" d="M10.702,33.35c-0.021,0-0.045-0.005-0.064-0.014c-0.093-0.035-0.138-0.138-0.103-0.229
			c0-0.002,0.001-0.002,0.001-0.004c0.768-1.914,0.156-5.015-0.381-7.748c-0.449-2.285-0.837-4.258-0.32-5.119
			c0.052-0.086,0.161-0.112,0.245-0.063c0.085,0.051,0.112,0.161,0.063,0.245c-0.446,0.743-0.052,2.746,0.363,4.866
			c0.547,2.783,1.166,5.938,0.361,7.949C10.839,33.305,10.775,33.348,10.702,33.35z"/>
		<path id="Path_652-2" fill="#BF5347" d="M9.988-5C9.809-5,9.63-4.994,9.453-4.983c5.174,0.548,9.183,4.775,9.453,9.971
			c0,4.633-4.234,12.649-9.453,13.171c0.178,0.017,0.356,0.028,0.535,0.028c5.462,0,9.988-8.41,9.988-13.201S15.453-5,9.988-5z"/>
		<path id="Path_653-2" fill="#FFEA82" d="M11.772,19.971c-0.181,0.984-1.126,1.637-2.11,1.455c-0.983-0.18-1.637-1.125-1.456-2.109
			c0.157-0.861,0.908-1.486,1.783-1.486C11.054,17.962,11.834,18.898,11.772,19.971z"/>
		<path id="Path_654-2" fill="#FAD20A" d="M9.988,17.83c-0.12,0-0.24,0.016-0.354,0.046c1.155,0.455,1.725,1.761,1.271,2.917
			c-0.229,0.582-0.688,1.043-1.271,1.271c0.114,0.029,0.234,0.045,0.354,0.045c1.184-0.217,1.965-1.351,1.749-2.531
			C11.574,18.688,10.878,17.992,9.988,17.83L9.988,17.83z"/>
		<g id="Group_992-2" transform="translate(2.492 2.286)">
			<path id="Path_655-2" fill="#FAD20A" d="M1.197-1.652c-0.515,0.705-0.919,1.484-1.2,2.31l1.9,1.159
				c0.178-0.746,0.496-1.45,0.938-2.076L1.197-1.652z"/>
			<path id="Path_656-2" fill="#FAD20A" d="M4.653-2.063C5.258-2.48,5.94-2.77,6.66-2.916L6.127-5
				C5.021-4.759,3.982-4.275,3.085-3.585L4.653-2.063z"/>
		</g>
	</g>
	<g id="Group_993" transform="translate(1176.328 134.201)" opacity="0.69">
		<path id="Path_671" fill="#FFD504" d="M0.72,71.516c0.959-0.958,2.513-0.958,3.472,0c0.959,0.959,0.959,2.512,0.002,3.471
			c0,0,0,0-0.002,0c-0.957,0.959-2.51,0.961-3.469,0.004c-0.001-0.002-0.002-0.002-0.003-0.004
			C-0.237,74.028-0.237,72.475,0.72,71.516"/>
		<path id="Path_672" fill="#FFD504" d="M210.828,70.078c0.926,0.033,1.648,0.809,1.617,1.734c-0.03,0.881-0.736,1.588-1.617,1.617
			c-0.926-0.031-1.65-0.808-1.618-1.732C209.24,70.817,209.947,70.11,210.828,70.078"/>
		<path id="Path_673" fill="#FFD504" d="M109.621,60.788c1.049,0.003,1.896,0.854,1.895,1.903c-0.002,1.047-0.85,1.894-1.895,1.896
			c-1.05-0.003-1.898-0.855-1.896-1.904C107.729,61.638,108.575,60.791,109.621,60.788"/>
		<path id="Path_674" fill="#FFD504" d="M126.099,78.047c0.011-0.012,0.02-0.021,0.03-0.033c0.664-0.643,1.646-0.828,2.5-0.474
			c0.85,0.35,1.404,1.175,1.409,2.094c-0.021,0.81-0.447,1.554-1.136,1.978c-0.903,0.508-2.031,0.361-2.776-0.356
			c-0.019-0.019-0.03-0.035-0.048-0.054c-0.154-0.104-0.291-0.233-0.405-0.383c-0.272-0.334-0.422-0.752-0.42-1.185
			c0.014-0.345,0.104-0.683,0.267-0.987c0.137-0.248,0.335-0.455,0.576-0.601"/>
		<path id="Path_675" fill="#FFD504" d="M142.231,67.453c0.804,0,1.453,0.65,1.453,1.453s-0.649,1.453-1.453,1.453
			c-0.802,0-1.453-0.65-1.453-1.453C140.786,68.108,141.432,67.463,142.231,67.453"/>
		<path id="Path_682" fill="#FFD504" d="M93.961,67.352c0.385,0.036,0.668,0.377,0.632,0.762c-0.03,0.336-0.296,0.603-0.632,0.634
			c-0.385-0.036-0.668-0.378-0.633-0.763C93.359,67.649,93.625,67.383,93.961,67.352"/>
		<path id="Path_683" fill="#FFD504" d="M87.954,79.171c0.966,0.032,1.724,0.843,1.689,1.81c-0.03,0.92-0.77,1.659-1.689,1.69
			c-0.967-0.032-1.725-0.843-1.691-1.81C86.294,79.942,87.033,79.201,87.954,79.171"/>
		<path id="Path_666" fill="#FFD504" d="M105.546,9.295c0.696,0.02,1.244,0.6,1.225,1.296c-0.019,0.668-0.556,1.206-1.225,1.225
			c-0.696-0.02-1.244-0.6-1.225-1.296C104.34,9.851,104.877,9.314,105.546,9.295"/>
		<path id="Path_667" fill="#FFD504" d="M93.655,7.108c-0.014-0.032-0.024-0.065-0.036-0.1c-0.282-0.972-0.006-2.021,0.72-2.727
			c1.093-1.095,2.865-1.096,3.96-0.004c0.001,0.001,0.003,0.003,0.004,0.004c0.721,0.709,0.997,1.754,0.721,2.727
			c-0.011,0.032-0.021,0.065-0.034,0.1c-0.182,0.567-0.525,1.067-0.991,1.437c-0.475,0.386-1.065,0.595-1.676,0.593
			c-0.489-0.02-0.969-0.149-1.4-0.377c-0.612-0.375-1.065-0.964-1.271-1.653"/>
		<path id="Path_668" fill="#FFD504" d="M208.087-5c0.672,0.027,1.194,0.594,1.167,1.265c-0.025,0.633-0.533,1.141-1.167,1.167
			c-0.672-0.027-1.194-0.594-1.167-1.265C206.945-4.467,207.453-4.974,208.087-5"/>
		<path id="Path_669" fill="#FFD504" d="M34.794-0.131c0.453-0.447,1.182-0.447,1.635,0l0.051,0.056
			c0.345,0.357,0.442,0.884,0.253,1.342c-0.188,0.455-0.63,0.753-1.12,0.755c-0.436-0.01-0.833-0.239-1.063-0.608
			c-0.27-0.485-0.19-1.089,0.192-1.489C34.76-0.093,34.777-0.112,34.794-0.131"/>
		<path id="Path_670" fill="#FFD504" d="M140.197,19.314c0.711,0.009,1.28,0.594,1.271,1.306c-0.002,0.104-0.016,0.207-0.042,0.308
			c-0.01,0.033-0.02,0.067-0.03,0.1c-0.154,0.536-0.643,0.907-1.198,0.914c-0.557-0.013-1.04-0.382-1.2-0.914
			c-0.011-0.032-0.021-0.066-0.03-0.1c-0.181-0.688,0.23-1.391,0.918-1.572C139.986,19.329,140.091,19.315,140.197,19.314"/>
		<path id="Path_676" fill="#FFD504" d="M151.884,12.558c0.672,0.027,1.194,0.594,1.167,1.266c-0.025,0.633-0.533,1.141-1.167,1.167
			c-0.672-0.027-1.194-0.594-1.167-1.265C150.743,13.091,151.25,12.584,151.884,12.558"/>
		<path id="Path_677" fill="#FFD504" d="M148.093-2.364c0.304,0,0.55,0.246,0.55,0.55c0,0.304-0.246,0.55-0.55,0.55
			s-0.55-0.246-0.55-0.55C147.543-2.118,147.789-2.364,148.093-2.364"/>
		<path id="Path_678" fill="#FFD504" d="M137.511,10.676c0.706,0.009,1.382,0.289,1.887,0.782c1.044,1.042,1.044,2.731,0.003,3.774
			c-0.502,0.501-1.182,0.783-1.89,0.782c-0.706-0.009-1.382-0.29-1.887-0.783c-1.042-1.042-1.042-2.732,0-3.775
			C136.125,10.957,136.804,10.676,137.511,10.676"/>
		<path id="Path_679" fill="#FFD504" d="M123.995,21.961c0.573,0,1.038,0.465,1.038,1.038c0,0.573-0.465,1.038-1.038,1.038
			s-1.038-0.464-1.038-1.038l0,0C122.963,22.428,123.424,21.967,123.995,21.961"/>
		<path id="Path_680" fill="#FFD504" d="M209.917,38.705c0.811,0.109,1.38,0.855,1.27,1.668c-0.009,0.061-0.021,0.121-0.036,0.182
			c-0.231,0.779-1.036,1.236-1.823,1.036c-0.79-0.218-1.253-1.034-1.035-1.824c0.034-0.124,0.084-0.241,0.147-0.353
			C208.738,38.895,209.325,38.612,209.917,38.705"/>
		<path id="Path_681" fill="#FFD504" d="M135.409,51.466c0.341-0.567,1.077-0.752,1.646-0.41c0.168,0.101,0.311,0.241,0.41,0.41
			l0.047,0.08c0.348,0.594,0.147,1.356-0.445,1.704c-0.594,0.348-1.357,0.148-1.705-0.445c-0.228-0.389-0.228-0.87,0-1.259
			L135.409,51.466z"/>
		<path id="Path_684" fill="#FFD504" d="M110.051-2.613c-0.426,0-0.771-0.345-0.771-0.771c0-0.426,0.345-0.771,0.771-0.771
			s0.771,0.345,0.771,0.771l0,0C110.816-2.961,110.474-2.619,110.051-2.613"/>
		<path id="Path_685" fill="#FFD504" d="M129.348-3.388c0-0.598,0.484-1.082,1.082-1.082s1.082,0.484,1.082,1.082
			s-0.484,1.082-1.082,1.082C129.836-2.316,129.358-2.794,129.348-3.388"/>
	</g>
	<g id="Group_1001" transform="translate(307 123)">
		<g id="Group_994" transform="translate(0 0)">
			<rect id="Rectangle_463" y="-5" fill="none" width="244" height="70"/>
			<path id="Path_687" fill="#F7CB24" d="M112.631,28.078l-23.543-8.867l-35.315,3.56l11.772,8.611
				c8.361,2.161,17.034,2.852,25.631,2.04C98.554,32.72,105.785,30.918,112.631,28.078"/>
			<path id="Path_688" fill="#E28123" d="M53.773,10.598l11.771,8.611c8.718,17.956,10.608,38.471,5.317,57.717
				c-3.418-3.846-6.835-7.691-10.252-11.537L53.773,10.598z"/>
		</g>
		<g id="Group_995" transform="translate(52.186 22.604)">
			<path id="Path_689" fill="none" d="M8.423,49.791l0.345,0.39h8.88L13.359,3.612L1.586-5L8.423,49.791z"/>
			<path id="Path_690" fill="#FFDF9F" d="M9.722,6.991l1.024,1.9l1.758,0.126l-1.046,1.689l0.574,2.154l-1.669-0.859l-1.4,1.206
				l0.013-2.22L7.535,9.578l1.678-0.513L9.722,6.991z"/>
			<path id="Path_691" fill="#FFDF9F" d="M5.295,27.435l1.023,1.9l1.759,0.125l-1.046,1.688l0.573,2.154l-1.669-0.859L4.53,33.65
				l0.014-2.22l-1.442-1.408l1.678-0.513L5.295,27.435z"/>
			<path id="Path_692" fill="#FFDF9F" d="M4.679,14.67l1.023,1.9l1.759,0.125l-1.046,1.689l0.574,2.154L5.32,19.679l-1.4,1.206
				l0.013-2.22l-1.441-1.408l1.678-0.513L4.679,14.67z"/>
			<path id="Path_693" fill="#FFDF9F" d="M2.191-0.049l1.024,1.9l1.758,0.126L3.931,3.668l0.574,2.154L2.836,4.963L1.431,6.169
				l0.014-2.22L0.004,2.54l1.678-0.513L2.191-0.049z"/>
			<path id="Path_694" fill="#FFDF9F" d="M7.236,39.154l1.023,1.9l1.759,0.125l-1.046,1.689l0.574,2.151l-1.669-0.858l-1.405,1.207
				l0.013-2.222L5.044,41.74l1.678-0.513L7.236,39.154z"/>
			<path id="Path_695" fill="#FFDF9F" d="M12.324,35.27l1.023,1.899l1.759,0.125l-1.046,1.688l0.573,2.154l-1.669-0.859
				l-1.405,1.206l0.014-2.22l-1.441-1.408l1.678-0.513L12.324,35.27z"/>
			<path id="Path_696" fill="#FFDF9F" d="M11.307,19.317l1.023,1.9l1.759,0.125l-1.046,1.688l0.574,2.154l-1.669-0.858l-1.405,1.206
				l0.014-2.221l-1.442-1.408l1.678-0.513L11.307,19.317z"/>
			<path id="Path_697" fill="#FFDF9F" d="M13.804,45.485l1.024,1.9l1.758,0.125l-1.046,1.688l0.574,2.154l-1.67-0.858l-1.4,1.207
				l0.013-2.222l-1.441-1.408l1.678-0.513L13.804,45.485z"/>
		</g>
		<g id="Group_996" transform="translate(0 0)">
			<rect id="Rectangle_464" y="-5" fill="none" width="244" height="70"/>
			<path id="Path_698" fill="#FFB11D" d="M70.862,76.926l-5.316-57.717l47.085-3.3l-6.076,58.362L70.862,76.926z"/>
			<path id="Path_699" fill="#FFDF9F" d="M73.888,33.125l1.262,2.557l2.822,0.411l-2.042,1.99l0.482,2.81l-2.524-1.327l-2.523,1.327
				l0.482-2.81l-2.042-1.99l2.821-0.411L73.888,33.125z"/>
			<path id="Path_700" fill="#FFDF9F" d="M89.046,33.125l1.262,2.557l2.822,0.411l-2.042,1.99l0.482,2.81l-2.524-1.327l-2.523,1.327
				l0.482-2.81l-2.042-1.99l2.822-0.411L89.046,33.125z"/>
			<path id="Path_701" fill="#FFDF9F" d="M104.289,33.125l1.262,2.557l2.823,0.411l-2.042,1.99l0.482,2.81l-2.524-1.327
				l-2.524,1.327l0.483-2.81l-2.042-1.99l2.821-0.411L104.289,33.125z"/>
			<path id="Path_702" fill="#FFDF9F" d="M73.888,50.143L75.15,52.7l2.822,0.409L75.93,55.1l0.482,2.811l-2.524-1.323l-2.523,1.327
				l0.482-2.811l-2.042-1.989l2.821-0.41L73.888,50.143z"/>
			<path id="Path_703" fill="#FFDF9F" d="M89.046,50.143l1.262,2.558l2.822,0.409l-2.042,1.99l0.482,2.811l-2.524-1.323
				l-2.523,1.327l0.482-2.811l-2.042-1.989l2.822-0.41L89.046,50.143z"/>
			<path id="Path_704" fill="#FFDF9F" d="M104.289,50.143l1.262,2.558l2.823,0.409l-2.042,1.99l0.482,2.811l-2.524-1.327
				l-2.524,1.327l0.483-2.811l-2.042-1.99l2.821-0.409L104.289,50.143z"/>
			<path id="Path_705" fill="#FFDF9F" d="M75.701,66.217l1.262,2.557l2.822,0.41l-2.047,1.993l0.482,2.813l-2.524-1.327
				l-2.523,1.327l0.482-2.813l-2.042-1.989l2.821-0.41L75.701,66.217z"/>
			<path id="Path_706" fill="#FFDF9F" d="M86.061,64.191l1.262,2.557l2.823,0.41l-2.042,1.99l0.482,2.81l-2.524-1.327l-2.523,1.327
				l0.482-2.81l-2.042-1.99l2.822-0.41L86.061,64.191z"/>
			<path id="Path_707" fill="#FFDF9F" d="M101.304,64.191l1.262,2.557l2.822,0.41l-2.042,1.99l0.482,2.81l-2.524-1.327l-2.523,1.327
				l0.482-2.81l-2.042-1.99l2.822-0.41L101.304,64.191z"/>
			<path id="Path_708" fill="#FFDF9F" d="M96.273,41.365l1.262,2.557l2.822,0.41l-2.042,1.99l0.482,2.81l-2.524-1.327l-2.524,1.327
				l0.483-2.81l-2.042-1.99l2.821-0.41L96.273,41.365z"/>
			<path id="Path_709" fill="#FFDF9F" d="M81.026,42.592l1.262,2.557l2.822,0.41l-2.042,1.99l0.482,2.811l-2.524-1.325l-2.524,1.321
				l0.482-2.811l-2.041-1.99l2.821-0.41L81.026,42.592z"/>
			<path id="Path_710" fill="#FFDF9F" d="M96.273,57.227l1.262,2.559l2.822,0.41l-2.042,1.99l0.482,2.811l-2.524-1.327l-2.524,1.327
				l0.483-2.811l-2.042-1.99l2.821-0.41L96.273,57.227z"/>
			<path id="Path_711" fill="#FFDF9F" d="M81.026,58.454l1.262,2.557l2.822,0.41l-2.042,1.99l0.482,2.81l-2.524-1.326l-2.524,1.326
				l0.482-2.81l-2.041-1.99l2.821-0.41L81.026,58.454z"/>
			<path id="Path_712" fill="#FFDF9F" d="M112.631,28.371l-47.085,3.3l-11.16-8.611h-0.613l11.623,9.174l47.233-3.08L112.631,28.371
				z"/>
			<path id="Path_713" fill="#440057" d="M101.762,23.754v0.441l-42.177,4.023v-0.883c6.662-1.012,15.24-1.623,22.468-2.394
				c6.77-0.724,13.38-0.778,19.707-1.187"/>
			<path id="Path_714" fill="#440057" d="M91.203,75.527l2.632-58.75L73.158,7.819v0.825l17.006,9.066l0.121,57.774L91.203,75.527z"
				/>
			<path id="Path_715" fill="#711089" d="M101.761,23.919l-42.182,3.582l-2.419-1.6l42.432-2.909L101.761,23.919z"/>
			<path id="Path_716" fill="#5A006C" d="M94.848,16.566L93.11,75.385l-1.907,0.143l-0.121-58.738L94.848,16.566z"/>
			<path id="Path_717" fill="#711089" d="M76.352,20.765l18.496,8.817l-3.765,0.222l-17.925-8.968L76.352,20.765z"/>
			<path id="Path_718" fill="#440057" d="M60.515,15.107l5.468,56.329h-0.437l-6.194-56.329H60.515z"/>
			<path id="Path_719" fill="#5A006C" d="M65.546,71.432l-5.96-56.77l-2.426-1.6l6.448,56.172L65.546,71.432z"/>
			<path id="Path_720" fill="#440057" d="M96.052,20.851c-8.015-0.568-10.188,4.234-10.188,4.234l1.043,0.757
				c0.757-1.636,2.283-2.784,4.065-3.058c1.754-0.251,3.531-0.293,5.295-0.125c1.771,0.167,3.556-0.139,5.171-0.886
				c2.785-1.52,3.833-4.995,2.351-7.8l-1.1,1.009c0,0,1.381,6.439-6.634,5.871"/>
			<path id="Path_721" fill="#711089" d="M87.686,23.116c-0.904,0.665-1.542,1.629-1.8,2.722h-1.337
				c0.532-2.878,2.688-5.186,5.524-5.91c1.358-0.199,2.728-0.309,4.1-0.329c1.384-0.025,2.721-0.509,3.8-1.375
				c1.079-0.924,1.336-2.491,0.609-3.712l4.1,0.371c0.824,1.523,0.546,3.407-0.683,4.626c-1.234,1.164-2.833,1.863-4.525,1.98
				c-1.669,0.2-3.358,0.081-5.036,0.182c-1.691,0.015-3.342,0.517-4.755,1.446"/>
			<path id="Path_722" fill="#5A006C" d="M102.686,15.503l-4.1-0.371l1.308-1.131l3.89,0.492L102.686,15.503z"/>
			<path id="Path_723" fill="#9427AF" d="M92.236,19.35c-2.472-0.065-4.798,1.167-6.132,3.25c0.19,0.123,0.373,0.179,0.564,0.3
				c1.455-1.231,3.241-2.007,5.134-2.229c0.1-0.451,0.33-0.872,0.434-1.323"/>
			<path id="Path_724" fill="#440057" d="M70.072,21.323c8.016-0.567,10.187,4.234,10.187,4.234l-1.042,0.757
				c-0.757-1.636-2.283-2.784-4.065-3.058c-1.754-0.251-3.531-0.293-5.295-0.125c-1.771,0.167-3.556-0.139-5.171-0.887
				c-2.785-1.52-3.833-4.995-2.351-7.8l1.1,1.011c0,0-1.381,6.438,6.635,5.87"/>
			<path id="Path_725" fill="#711089" d="M63.437,15.354l4.1-0.371c-0.727,1.221-0.469,2.787,0.609,3.712
				c1.08,0.867,2.416,1.35,3.8,1.375c1.373,0.021,2.742,0.131,4.1,0.329c2.823,0.718,4.975,3.006,5.519,5.868h-1.339
				c-0.266-1.075-0.899-2.022-1.791-2.679c-1.413-0.929-3.064-1.431-4.755-1.446c-1.678-0.1-3.368,0.017-5.037-0.182
				c-1.691-0.116-3.291-0.816-4.524-1.979c-1.229-1.22-1.507-3.103-0.685-4.626"/>
			<path id="Path_726" fill="#5A006C" d="M63.437,15.987l4.1-0.371l-1.308-1.131l-3.89,0.492L63.437,15.987z"/>
			<path id="Path_727" fill="#9427AF" d="M73.888,19.832c2.472-0.066,4.799,1.167,6.132,3.251c-0.19,0.123-0.373,0.179-0.564,0.3
				c-1.455-1.231-3.241-2.006-5.134-2.229C74.222,20.704,73.993,20.282,73.888,19.832"/>
			<path id="Path_728" fill="#440057" d="M82.579,25.265c3.087,0.093,5.829-0.232,7.629-3.05c1.413-2.212,1.776-5.362-0.166-7.4
				c-1.111-1.303-3.068-1.458-4.37-0.347c-0.23,0.196-0.43,0.425-0.594,0.679c-0.602,1.043-0.884,2.239-0.814,3.441
				c0.036,2.061,1.332,5.024,0.09,6.877c-0.313,0.466-1.867,0.24-1.538-0.249c1.1-1.636-0.057-4.534-0.138-6.373
				c-0.148-1.546,0.265-3.094,1.163-4.362c1.723-2.148,5.249-2.127,7.253-0.387c2.625,2.279,2.245,6.2,0.362,8.8
				c-2.172,3.006-5.439,3.316-8.891,3.213c-0.957-0.029-0.956-0.869,0.015-0.839"/>
			<path id="Path_729" fill="#711089" d="M83.343,25.265c3.087,0.093,5.83-0.232,7.629-3.05c1.413-2.212,1.775-5.362-0.166-7.4
				c-1.111-1.303-3.068-1.458-4.371-0.347c-0.23,0.196-0.43,0.425-0.594,0.679c-0.601,1.043-0.883,2.239-0.814,3.441
				c0.037,2.061,1.333,5.024,0.091,6.877c-0.313,0.466-1.867,0.24-1.539-0.249c1.1-1.636-0.056-4.534-0.138-6.373
				c-0.147-1.546,0.266-3.094,1.163-4.362c1.723-2.148,5.249-2.127,7.253-0.387c2.625,2.279,2.244,6.2,0.362,8.8
				c-2.172,3.006-5.439,3.316-8.891,3.213c-0.958-0.029-0.956-0.869,0.014-0.839"/>
			<path id="Path_730" fill="#440057" d="M82.766,25.619c-3.087,0.093-5.828-0.232-7.628-3.05c-1.413-2.211-1.775-5.362,0.166-7.4
				c1.111-1.303,3.067-1.458,4.37-0.347c0.23,0.196,0.43,0.425,0.594,0.679c0.601,1.043,0.884,2.239,0.814,3.441
				c-0.037,2.06-1.333,5.024-0.09,6.876c0.312,0.467,1.867,0.24,1.538-0.249c-1.1-1.635,0.056-4.534,0.138-6.373
				c0.147-1.546-0.265-3.094-1.163-4.362c-1.723-2.148-5.249-2.127-7.252-0.387c-2.625,2.279-2.245,6.2-0.362,8.8
				c2.172,3.006,5.439,3.317,8.891,3.213c0.958-0.029,0.956-0.869-0.015-0.839"/>
			<path id="Path_731" fill="#711089" d="M82.002,25.619c-3.087,0.093-5.829-0.232-7.629-3.05c-1.413-2.211-1.776-5.362,0.166-7.4
				c1.111-1.303,3.068-1.458,4.37-0.347c0.23,0.196,0.43,0.425,0.594,0.679c0.602,1.043,0.884,2.239,0.814,3.441
				c-0.037,2.06-1.333,5.024-0.09,6.876c0.313,0.467,1.867,0.24,1.539-0.249c-1.1-1.635,0.056-4.534,0.137-6.373
				c0.148-1.546-0.265-3.094-1.163-4.362c-1.723-2.148-5.249-2.127-7.253-0.387c-2.625,2.279-2.244,6.2-0.362,8.8
				c2.172,3.006,5.439,3.317,8.891,3.213c0.957-0.029,0.956-0.869-0.015-0.839"/>
			<path id="Path_732" fill="#711089" d="M79.461,24.601c0.914-2.055,3.319-2.979,5.374-2.066c0.809,0.36,1.479,0.974,1.908,1.749
				c-0.333,0.403-0.801,0.671-1.317,0.755C83.433,25.405,81.379,25.254,79.461,24.601"/>
			<path id="Path_733" fill="#5A006C" d="M80.165,20.249c-0.175,0.574-0.283,1.166-0.321,1.764
				c-0.285,1.234,0.426,2.481,1.633,2.865c1.208,0.457,2.564,0.296,3.632-0.431c-0.761,0.09-1.534,0.011-2.261-0.232
				c-0.919-0.255-1.601-1.031-1.734-1.976c-0.001-0.291,0.027-0.581,0.085-0.866c0.079-0.472,0.158-0.944,0.238-1.417
				C81.088,20.039,80.514,20.165,80.165,20.249"/>
			<path id="Path_734" fill="#5A006C" d="M85.903,24.217c0,0,4.43-0.595,5.19-3.442l1.1,0.365c0,0-2.136,3.819-6.287,3.077"/>
			<path id="Path_735" fill="#9427AF" d="M85.66,23.283c-1.092-0.834-2.559-0.988-3.8-0.4c0.491,0.473,1.119,0.776,1.794,0.868
				c0.703,0.053,1.404-0.111,2.01-0.469"/>
			<path id="Path_736" fill="#9427AF" d="M79.217,14.919c0.137-0.169,0.326-0.336,0.463-0.5c1.581,1.261,2.33,3.297,1.944,5.282
				c-0.339,0.048-0.712,0.064-1.05,0.113c0.349-1.753-0.154-3.568-1.357-4.89"/>
			<path id="Path_737" fill="#9427AF" d="M90.933,14.557c0.138-0.169,0.326-0.336,0.463-0.5c1.582,1.261,2.331,3.296,1.944,5.282
				c-0.338,0.049-0.712,0.064-1.049,0.114c0.349-1.753-0.155-3.568-1.358-4.891"/>
			<path id="Path_738" fill="#9427AF" d="M76.705,25.674l-16.328,1.239l-2.236-0.993l16.792-1.046L76.705,25.674z"/>
			<path id="Path_739" fill="#C87542" d="M147.199,45.564l-19.729-9.94l-31.162-0.2l9.471,8.618
				c13.272,4.999,27.813,5.532,41.416,1.521"/>
			<path id="Path_740" fill="#B33D3D" d="M96.312,26.278l9.471,8.618c5.931,16.493,5.661,34.579-0.759,50.885
				c-2.624-3.676-5.248-7.354-7.871-11.032L96.312,26.278z"/>
		</g>
		<g id="Group_997" transform="translate(94.221 31.277)">
			<path id="Path_741" fill="none" d="M2.777,34.498h8.325l0.461-30.879L2.092-5L2.777,34.498z"/>
			<path id="Path_742" fill="#D0B0A8" d="M8.069,6.229l0.716,1.757l1.523,0.274L9.237,9.636l0.3,1.934L8.16,10.664l-1.339,0.921
				l0.22-1.937L5.915,8.283l1.512-0.291L8.069,6.229z"/>
			<path id="Path_743" fill="#D0B0A8" d="M2.293,23.659l0.715,1.758l1.525,0.273l-1.071,1.376L3.762,29l-1.376-0.906l-1.339,0.921
				l0.22-1.937l-1.126-1.364l1.512-0.291L2.293,23.659z"/>
			<path id="Path_744" fill="#D0B0A8" d="M2.95,12.461l0.715,1.757l1.524,0.274l-1.071,1.375l0.3,1.935l-1.376-0.906l-1.34,0.921
				l0.22-1.936l-1.127-1.365l1.513-0.291L2.95,12.461z"/>
			<path id="Path_745" fill="#D0B0A8" d="M2.152-0.622l0.715,1.757l1.524,0.274L3.32,2.785l0.3,1.934L2.243,3.813l-1.34,0.921
				l0.22-1.937l-1.126-1.365l1.511-0.291L2.152-0.622z"/>
			<path id="Path_746" fill="#D0B0A8" d="M2.891,34.075l0.715,1.758l1.524,0.273l-1.071,1.376l0.3,1.935L2.983,38.51l-1.339,0.921
				l0.22-1.937l-1.127-1.365l1.513-0.291L2.891,34.075z"/>
			<path id="Path_747" fill="#D0B0A8" d="M7.696,31.16l0.715,1.758l1.524,0.272l-1.071,1.377l0.3,1.935l-1.377-0.905l-1.34,0.921
				l0.22-1.938l-1.126-1.364l1.512-0.291L7.696,31.16z"/>
			<path id="Path_748" fill="#D0B0A8" d="M8.301,17.138l0.715,1.757l1.525,0.273L9.47,20.545l0.3,1.934l-1.377-0.906l-1.339,0.922
				l0.22-1.938l-1.126-1.364l1.512-0.291L8.301,17.138z"/>
			<path id="Path_749" fill="#D0B0A8" d="M8.033,40.217l0.715,1.757l1.524,0.274l-1.071,1.377l0.3,1.934l-1.378-0.906l-1.339,0.922
				l0.22-1.938l-1.127-1.365l1.513-0.291L8.033,40.217z"/>
		</g>
		<g id="Group_998" transform="translate(7.916 22.869)">
			<path id="Path_750" fill="#D05A3E" d="M97.108,62.914l0.759-50.885l41.416,1.519l-10.765,50.385L97.108,62.914z"/>
			<path id="Path_751" fill="#D0B0A8" d="M104.808,15.988l0.863,2.35l2.425,0.622l-1.969,1.547l0.157,2.5l-2.079-1.395l-2.328,0.923
				l0.683-2.409l-1.6-1.928l2.5-0.094L104.808,15.988z"/>
			<path id="Path_752" fill="#D0B0A8" d="M118.043,17.405l0.862,2.35l2.425,0.622l-1.969,1.547l0.157,2.5l-2.079-1.395l-2.328,0.923
				l0.685-2.409l-1.6-1.929l2.5-0.094L118.043,17.405z"/>
			<path id="Path_753" fill="#D0B0A8" d="M131.351,18.832l0.862,2.35l2.425,0.622l-1.969,1.548l0.157,2.5l-2.079-1.396l-2.328,0.923
				l0.684-2.409l-1.6-1.929l2.5-0.094L131.351,18.832z"/>
			<path id="Path_754" fill="#D0B0A8" d="M102.852,34.242l0.863,2.351l2.425,0.622l-1.969,1.547l0.157,2.5l-2.079-1.395
				l-2.328,0.923l0.683-2.409l-1.6-1.928l2.5-0.094L102.852,34.242z"/>
			<path id="Path_755" fill="#D0B0A8" d="M116.086,35.662l0.862,2.35l2.425,0.622l-1.969,1.547l0.157,2.5l-2.079-1.396l-2.327,0.924
				l0.683-2.409l-1.6-1.928l2.5-0.095L116.086,35.662z"/>
			<path id="Path_756" fill="#D0B0A8" d="M129.394,37.088l0.862,2.35l2.425,0.623l-1.968,1.547l0.157,2.5l-2.078-1.396l-2.328,0.923
				l0.684-2.408l-1.6-1.929l2.5-0.094L129.394,37.088z"/>
			<path id="Path_757" fill="#D0B0A8" d="M102.335,54.016l0.862,2.352l2.426,0.621l-1.969,1.549l0.158,2.5l-2.079-1.395
				l-2.328,0.922l0.683-2.408l-1.6-1.93l2.5-0.094L102.335,54.016z"/>
			<path id="Path_758" fill="#D0B0A8" d="M111.566,53.218l0.862,2.351l2.425,0.621l-1.968,1.547l0.158,2.5l-2.08-1.395l-2.327,0.922
				l0.683-2.408l-1.6-1.929l2.5-0.094L111.566,53.218z"/>
			<path id="Path_759" fill="#D0B0A8" d="M124.877,54.645l0.862,2.351l2.425,0.62l-1.969,1.549l0.158,2.5l-2.079-1.395l-2.328,0.922
				l0.684-2.41l-1.6-1.928l2.5-0.094L124.877,54.645z"/>
			<path id="Path_760" fill="#D0B0A8" d="M123.405,26.922l0.862,2.35l2.425,0.623l-1.968,1.547l0.157,2.5l-2.079-1.395l-2.328,0.922
				l0.684-2.408l-1.6-1.929l2.5-0.094L123.405,26.922z"/>
			<path id="Path_761" fill="#D0B0A8" d="M109.952,26.811l0.862,2.352l2.426,0.621l-1.969,1.548l0.157,2.5l-2.079-1.396
				l-2.328,0.922l0.683-2.408l-1.6-1.928l2.5-0.095L109.952,26.811z"/>
			<path id="Path_762" fill="#D0B0A8" d="M121.582,43.94l0.862,2.351l2.425,0.621l-1.969,1.547l0.158,2.5l-2.079-1.396l-2.328,0.922
				l0.684-2.407l-1.6-1.931l2.5-0.094L121.582,43.94z"/>
			<path id="Path_763" fill="#D0B0A8" d="M108.128,43.829l0.862,2.35l2.426,0.622l-1.969,1.546l0.158,2.5l-2.08-1.395l-2.327,0.923
				l0.683-2.409l-1.6-1.929l2.5-0.094L108.128,43.829z"/>
			<path id="Path_764" fill="#D0B0A8" d="M139.283,13.547l-41.416-1.52L88.93,3.465l-0.534-0.057l9.289,9.1l41.523,1.73
				L139.283,13.547z"/>
			<path id="Path_765" fill="#440057" d="M130.244,8.325l-0.041,0.386l-37.2-0.434l0.082-0.771c5.912-0.26,13.457,0.008,19.84,0.011
				c5.977,0,11.753,0.573,17.315,0.807"/>
			<path id="Path_766" fill="#440057" d="M114.998,63.594l7.794-51.043l-17.213-9.755l-0.077,0.72l14,9.5l-5.3,50.451
				L114.998,63.594z"/>
			<path id="Path_767" fill="#711089" d="M130.244,8.322l-37.16-0.819l-1.963-1.619l37.318,1.426L130.244,8.322z"/>
			<path id="Path_768" fill="#5A006C" d="M123.696,12.462l-7.02,51.187l-1.678-0.054l5.389-51.292L123.696,12.462z"/>
			<path id="Path_769" fill="#711089" d="M108.372,3.037l15.322,9.424l-3.308-0.159l-14.809-9.507L108.372,3.037z"/>
			<path id="Path_770" fill="#440057" d="M93.858,7.976l-0.5,49.687l-0.38-0.041L92.839,7.867L93.858,7.976z"/>
			<path id="Path_771" fill="#5A006C" d="M92.982,57.622L93.09,7.503l-1.969-1.619l0.374,49.644L92.982,57.622z"/>
			<path id="Path_772" fill="#440057" d="M125.697,3.714c-6.945-1.246-9.29,2.744-9.29,2.744l0.838,0.758
				c0.814-1.357,2.254-2.217,3.835-2.29c1.554-0.055,3.11,0.075,4.634,0.386c1.532,0.311,3.12,0.211,4.6-0.291
				c2.573-1.067,3.813-4.003,2.782-6.591l-1.057,0.779c0,0,0.6,5.75-6.341,4.5"/>
			<path id="Path_773" fill="#711089" d="M118.172,4.996c-0.852,0.496-1.499,1.278-1.826,2.208l-1.168-0.125
				c0.734-2.465,2.835-4.277,5.38-4.642c1.205-0.045,2.412-0.012,3.613,0.1c1.211,0.107,2.423-0.19,3.447-0.845
				c1.028-0.707,1.398-2.05,0.879-3.184l3.541,0.707c0.576,1.407,0.157,3.024-1.029,3.975c-1.186,0.9-2.647,1.362-4.136,1.305
				c-1.475,0.017-2.939-0.243-4.413-0.313c-1.478-0.145-2.966,0.139-4.287,0.818"/>
			<path id="Path_774" fill="#5A006C" d="M132.038-0.79l-3.542-0.707l1.248-0.864l3.35,0.793L132.038-0.79z"/>
			<path id="Path_775" fill="#9427AF" d="M122.437,2.69c-2.153-0.289-4.3,0.571-5.659,2.265c0.155,0.125,0.309,0.191,0.465,0.316
				c1.386-0.939,3.017-1.449,4.691-1.466c0.134-0.383,0.369-0.73,0.5-1.114"/>
			<path id="Path_776" fill="#440057" d="M102.96,1.795c7.051,0.254,8.5,4.65,8.5,4.65l-0.981,0.563
				c-0.507-1.5-1.732-2.645-3.262-3.051c-1.508-0.382-3.056-0.583-4.611-0.6c-1.562-0.021-3.091-0.455-4.431-1.258
				c-2.289-1.587-2.878-4.72-1.322-7.031l0.866,0.984c0,0-1.807,5.492,5.243,5.746"/>
			<path id="Path_777" fill="#711089" d="M97.717-3.95l3.611,0.059c-0.75,0.999-0.672,2.391,0.184,3.3
				c0.862,0.858,1.984,1.405,3.191,1.557c1.197,0.146,2.383,0.37,3.551,0.671c2.398,0.889,4.064,3.087,4.272,5.636l-1.167-0.125
				c-0.131-0.963-0.596-1.85-1.313-2.506c-1.146-0.943-2.541-1.536-4.016-1.707c-1.455-0.245-2.942-0.3-4.38-0.63
				c-1.466-0.26-2.796-1.02-3.765-2.151c-0.956-1.18-1.023-2.847-0.165-4.1"/>
			<path id="Path_778" fill="#5A006C" d="M97.717-3.95l3.611,0.059l-1.036-1.111L96.85-4.937L97.717-3.95z"/>
			<path id="Path_779" fill="#9427AF" d="M106.363,1.485c2.165,0.174,4.081,1.469,5.05,3.412c-0.178,0.09-0.343,0.121-0.522,0.21
				c-1.155-1.211-2.642-2.055-4.274-2.426c-0.049-0.4-0.205-0.792-0.254-1.2"/>
			<path id="Path_780" fill="#440057" d="M113.539,6.136c2.687,0.37,5.111,0.342,6.946-1.949c1.44-1.8,2.051-4.515,0.548-6.478
				c-0.846-1.241-2.538-1.561-3.778-0.715c-0.221,0.15-0.418,0.333-0.586,0.541c-0.622,0.854-0.981,1.873-1.033,2.928
				c-0.162,1.8,0.693,4.511-0.564,6.012c-0.318,0.378-1.653,0.035-1.321-0.361c1.111-1.326,0.375-3.964,0.476-5.577
				c0.015-1.364,0.52-2.678,1.423-3.7c1.87-1.615,4.681-1.465,6.368,0.34c2.079,2.236,1.38,5.62-0.507,7.718
				c-2.178,2.421-5.059,2.387-8.062,1.973C112.615,6.753,112.696,6.02,113.539,6.136"/>
			<path id="Path_781" fill="#711089" d="M114.206,6.208c2.687,0.37,5.111,0.342,6.946-1.949c1.44-1.8,2.051-4.515,0.548-6.479
				c-0.847-1.241-2.539-1.561-3.78-0.714c-0.221,0.15-0.418,0.333-0.585,0.541c-0.623,0.854-0.981,1.872-1.033,2.927
				c-0.161,1.8,0.694,4.511-0.564,6.012c-0.317,0.378-1.652,0.036-1.32-0.362c1.111-1.325,0.375-3.963,0.476-5.577
				c0.016-1.364,0.521-2.677,1.423-3.7c1.87-1.615,4.681-1.465,6.368,0.34c2.079,2.235,1.38,5.619-0.507,7.718
				c-2.178,2.421-5.059,2.387-8.063,1.973C113.282,6.823,113.362,6.091,114.206,6.208"/>
			<path id="Path_782" fill="#440057" d="M113.659,6.54c-2.7-0.207-5.067-0.748-6.375-3.377c-1.026-2.063-1.048-4.847,0.838-6.448
				c1.09-1.033,2.811-0.986,3.844,0.104c0.183,0.193,0.337,0.413,0.456,0.65c0.427,0.967,0.563,2.038,0.389,3.08
				c-0.225,1.8-1.634,4.261-0.723,5.995c0.23,0.436,1.607,0.385,1.367-0.073c-0.8-1.53,0.474-3.953,0.716-5.551
				c0.273-1.336,0.058-2.727-0.608-3.917c-1.485-1.974-4.264-2.422-6.295-1.016c-2.5,1.744-2.539,5.2-1.14,7.65
				c1.615,2.827,4.439,3.4,7.461,3.636c0.839,0.064,0.916-0.669,0.067-0.734"/>
			<path id="Path_783" fill="#711089" d="M112.995,6.468c-2.7-0.207-5.067-0.748-6.375-3.377c-1.026-2.063-1.048-4.847,0.837-6.448
				c1.088-1.036,2.81-0.994,3.846,0.094c0.186,0.195,0.342,0.417,0.462,0.659c0.427,0.967,0.562,2.037,0.389,3.08
				c-0.225,1.795-1.635,4.261-0.722,5.995c0.229,0.436,1.607,0.384,1.366-0.074c-0.8-1.53,0.473-3.953,0.716-5.551
				c0.273-1.336,0.058-2.726-0.607-3.917c-1.486-1.977-4.269-2.426-6.3-1.016c-2.506,1.745-2.539,5.2-1.14,7.65
				c1.615,2.827,4.438,3.4,7.461,3.636c0.839,0.064,0.916-0.668,0.066-0.734"/>
			<path id="Path_784" fill="#711089" d="M110.737,6.591c0.989-1.708,3.177-2.292,4.885-1.302c0.672,0.389,1.2,0.987,1.502,1.702
				c-0.328,0.321-0.762,0.511-1.22,0.536c-1.774,0.133-3.553-0.191-5.167-0.941"/>
			<path id="Path_785" fill="#5A006C" d="M111.792,2.551c-0.207,0.484-0.356,0.991-0.446,1.51c-0.364,1.051,0.14,2.206,1.158,2.654
				c1.013,0.512,2.211,0.498,3.211-0.037c-0.673,0.008-1.34-0.133-1.952-0.414c-0.779-0.308-1.301-1.049-1.329-1.887
				c0.025-0.254,0.077-0.505,0.154-0.748c0.113-0.405,0.227-0.81,0.34-1.215C112.616,2.453,112.103,2.514,111.792,2.551"/>
			<path id="Path_786" fill="#5A006C" d="M116.424,6.62c0,0,3.922-0.1,4.852-2.521l0.923,0.421
				C122.199,4.521,119.976,7.656,116.424,6.62"/>
			<path id="Path_787" fill="#9427AF" d="M116.274,5.979c-0.877-0.83-2.145-1.1-3.284-0.7c0.384,0.458,0.904,0.783,1.485,0.926
				c0.608,0.112,1.237,0.035,1.8-0.221"/>
			<path id="Path_788" fill="#9427AF" d="M111.577-3.255c0.136-0.134,0.315-0.262,0.451-0.4c1.262,1.249,1.724,3.096,1.2,4.792
				c-0.3,0.011-0.627-0.01-0.927,0c0.47-1.499,0.2-3.132-0.727-4.4"/>
			<path id="Path_789" fill="#9427AF" d="M121.847-2.545c0.136-0.135,0.316-0.262,0.451-0.4c1.263,1.249,1.725,3.097,1.2,4.793
				c-0.3,0.011-0.626-0.01-0.926,0c0.47-1.499,0.201-3.132-0.727-4.4"/>
			<path id="Path_790" fill="#9427AF" d="M108.184,7.716L93.814,7.27l-1.86-1.076l14.757,0.658L108.184,7.716z"/>
			<path id="Path_791" fill="#83CAFF" d="M51.693,5.465l-21.711-4.04L0.004,9.939l11.5,5.631c14.14,1.096,28.25-2.45,40.192-10.1"/>
			<path id="Path_792" fill="#2E68E8" d="M0,9.939l11.5,5.631c4.884,6.728,8.571,14.249,10.9,22.228
				c2.534,8.708,3.409,17.813,2.58,26.845l-10.638-8.398L0,9.939z"/>
		</g>
		<g id="Group_999" transform="translate(7.704 37.808)">
			<path id="Path_793" fill="none" d="M10.424,27.965h8.8l-7.51-27.334L0.214-5L10.424,27.965z"/>
			<path id="Path_794" fill="#CFEDFF" d="M9.09,4.113L10.267,5.6l1.54-0.162l-0.644,1.621l0.827,1.773l-1.575-0.486l-1.03,1.26
				L9.056,7.685l-1.462-1l1.371-0.7L9.09,4.113z"/>
			<path id="Path_795" fill="#CFEDFF" d="M8.41,22.465l1.177,1.486l1.54-0.16l-0.644,1.619l0.827,1.774L9.735,26.7l-1.029,1.26
				l-0.33-1.923l-1.462-1l1.371-0.7L8.41,22.465z"/>
			<path id="Path_796" fill="#CFEDFF" d="M5.912,11.529l1.177,1.487l1.54-0.162l-0.644,1.621l0.827,1.773l-1.575-0.486l-1.029,1.259
				L5.878,15.1l-1.462-1l1.371-0.7L5.912,11.529z"/>
			<path id="Path_797" fill="#CFEDFF" d="M1.496-0.814l1.177,1.487l1.54-0.162L3.569,2.132l0.827,1.774L2.821,3.42l-1.03,1.259
				L1.462,2.758l-1.463-1l1.371-0.7L1.496-0.814z"/>
			<path id="Path_798" fill="#CFEDFF" d="M11.892,32.297l1.177,1.486l1.54-0.16l-0.644,1.619l0.827,1.774l-1.575-0.486l-1.03,1.261
				l-0.329-1.923l-1.462-1l1.371-0.698L11.892,32.297z"/>
			<path id="Path_799" fill="#CFEDFF" d="M15.692,28.157l1.177,1.487l1.54-0.162l-0.644,1.621l0.827,1.774l-1.575-0.486
				l-1.029,1.258l-0.33-1.921l-1.463-1l1.371-0.7L15.692,28.157z"/>
			<path id="Path_800" fill="#CFEDFF" d="M12.357,14.523l1.177,1.487l1.54-0.162l-0.644,1.621l0.827,1.772l-1.575-0.485l-1.03,1.26
				l-0.329-1.922l-1.462-1l1.371-0.7L12.357,14.523z"/>
			<path id="Path_801" fill="#CFEDFF" d="M18.544,36.758l1.177,1.486l1.54-0.16l-0.644,1.621l0.827,1.771l-1.575-0.486l-1.03,1.26
				l-0.329-1.92l-1.462-1l1.371-0.701L18.544,36.758z"/>
		</g>
		<g id="Group_1000" transform="translate(7.916 20.547)">
			<path id="Path_802" fill="#3B8BFF" d="M24.982,66.967l-13.481-49.07l40.192-10.1l3.734,51.387L24.982,66.967z"/>
			<path id="Path_803" fill="#CFEDFF" d="M19.273,19.756l1.484,2.016l2.5-0.08l-1.459,2.035l0.849,2.355l-2.386-0.759l-1.978,1.536
				l-0.016-2.5l-2.071-1.406l2.376-0.789L19.273,19.756z"/>
			<path id="Path_804" fill="#CFEDFF" d="M32.376,17.423l1.484,2.016l2.5-0.08l-1.459,2.035l0.849,2.355l-2.386-0.758L31.39,24.53
				l-0.016-2.5l-2.071-1.406l2.376-0.788L32.376,17.423z"/>
			<path id="Path_805" fill="#CFEDFF" d="M45.553,15.076l1.484,2.016l2.5-0.079l-1.458,2.035l0.849,2.355l-2.386-0.759l-1.977,1.536
				l-0.016-2.5l-2.07-1.415l2.376-0.789L45.553,15.076z"/>
			<path id="Path_806" fill="#CFEDFF" d="M22.492,37.832l1.484,2.016l2.5-0.08l-1.458,2.035l0.849,2.355L23.481,43.4l-1.978,1.535
				l-0.016-2.5l-2.073-1.41l2.376-0.788L22.492,37.832z"/>
			<path id="Path_807" fill="#CFEDFF" d="M35.592,35.499l1.484,2.017l2.5-0.08l-1.459,2.035l0.85,2.354l-2.386-0.759l-1.978,1.535
				l-0.016-2.5l-2.071-1.405l2.376-0.789L35.592,35.499z"/>
			<path id="Path_808" fill="#CFEDFF" d="M48.772,33.152l1.485,2.016l2.5-0.08l-1.454,2.03l0.849,2.354l-2.386-0.759l-1.978,1.535
				l-0.016-2.5l-2.071-1.405l2.376-0.787L48.772,33.152z"/>
			<path id="Path_809" fill="#CFEDFF" d="M27.516,56.962L29,58.978l2.5-0.08l-1.457,2.035l0.849,2.354l-2.386-0.759l-1.978,1.535
				l-0.016-2.5l-2.069-1.412l2.376-0.789L27.516,56.962z"/>
			<path id="Path_810" fill="#CFEDFF" d="M36.159,53.617l1.484,2.016l2.5-0.08l-1.455,2.035l0.849,2.356l-2.386-0.759l-1.973,1.535
				l-0.016-2.5l-2.071-1.406l2.376-0.787L36.159,53.617z"/>
			<path id="Path_811" fill="#CFEDFF" d="M49.336,51.271l1.484,2.016l2.5-0.08l-1.458,2.035l0.849,2.355l-2.386-0.761l-1.977,1.536
				l-0.016-2.5l-2.071-1.404l2.376-0.789L49.336,51.271z"/>
			<path id="Path_812" fill="#CFEDFF" d="M40.181,25.062l1.484,2.017l2.5-0.08l-1.459,2.035l0.85,2.354L41.17,30.63l-1.978,1.536
				l-0.016-2.5l-2.071-1.406l2.376-0.789L40.181,25.062z"/>
			<path id="Path_813" fill="#CFEDFF" d="M27.233,28.713l1.484,2.016l2.5-0.08l-1.459,2.035l0.849,2.355l-2.386-0.758l-1.978,1.535
				l-0.016-2.5l-2.067-1.41l2.376-0.789L27.233,28.713z"/>
			<path id="Path_814" fill="#CFEDFF" d="M43.183,41.912l1.484,2.016l2.5-0.08l-1.459,2.035l0.85,2.356l-2.386-0.759l-1.978,1.535
				l-0.016-2.5l-2.072-1.406l2.376-0.789L43.183,41.912z"/>
			<path id="Path_815" fill="#CFEDFF" d="M30.234,45.562l1.484,2.017l2.5-0.079l-1.458,2.035l0.849,2.355l-2.386-0.761l-1.978,1.536
				l-0.016-2.5l-2.071-1.404l2.376-0.789L30.234,45.562z"/>
			<path id="Path_816" fill="#CFEDFF" d="M51.693,7.787l-40.192,10.11L0.529,12.171L0,12.265l11.46,6.141l40.355-9.933L51.693,7.787
				z"/>
			<path id="Path_817" fill="#440057" d="M41.555,5.293l0.068,0.382l-35.837,9.97L5.65,14.882c5.6-1.9,12.924-3.749,19.053-5.529
				C30.443,7.685,36.149,6.622,41.555,5.293"/>
			<path id="Path_818" fill="#440057" d="M42.349,62.627L35.58,11.438L16.326,6.874l0.127,0.713l16.1,5.215l9,49.922L42.349,62.627z
				"/>
			<path id="Path_819" fill="#711089" d="M41.556,5.292l-35.911,9.59l-2.337-1.006l36.231-9.051L41.556,5.292z"/>
			<path id="Path_820" fill="#5A006C" d="M36.422,11.097l7.55,51.111l-1.627,0.416l-9.143-50.756L36.422,11.097z"/>
			<path id="Path_821" fill="#711089" d="M19.078,6.326l17.348,4.77l-3.221,0.771L16.326,6.874L19.078,6.326z"/>
			<path id="Path_822" fill="#440057" d="M6.52,15.124l13.4,47.849l-0.377,0.067L5.514,15.299L6.52,15.124z"/>
			<path id="Path_823" fill="#5A006C" d="M19.541,63.037L5.651,14.882l-2.343-1.006l14.221,47.563L19.541,63.037z"/>
			<path id="Path_824" fill="#440057" d="M35.902,2.139c-7.015,0.743-8.153,5.229-8.153,5.229l1.017,0.493
				c0.402-1.531,1.545-2.758,3.043-3.269c1.477-0.488,3.007-0.798,4.557-0.924C37.923,3.539,39.418,3,40.699,2.106
				c2.173-1.743,2.543-4.909,0.83-7.106l-0.8,1.043c0,0,2.184,5.353-4.832,6.1"/>
			<path id="Path_825" fill="#711089" d="M29.034,5.47c-0.679,0.714-1.082,1.646-1.137,2.63l-1.156,0.206
				c0.016-2.571,1.527-4.898,3.869-5.96c1.146-0.381,2.315-0.687,3.5-0.916c1.193-0.235,2.275-0.858,3.075-1.774
				c0.788-0.965,0.769-2.357-0.046-3.3l3.6-0.309c0.944,1.189,0.993,2.857,0.121,4.1c-0.888,1.196-2.164,2.047-3.609,2.408
				c-1.412,0.428-2.891,0.587-4.325,0.933c-1.459,0.273-2.809,0.961-3.888,1.982"/>
			<path id="Path_826" fill="#5A006C" d="M40.733-3.957l-3.6,0.309l0.961-1.178L41.531-5L40.733-3.957z"/>
			<path id="Path_827" fill="#9427AF" d="M32.485,2.065c-2.146,0.325-3.967,1.748-4.8,3.753c0.183,0.077,0.35,0.1,0.534,0.174
				c1.07-1.29,2.496-2.235,4.1-2.718c0.02-0.406,0.15-0.8,0.171-1.21"/>
			<path id="Path_828" fill="#440057" d="M13.532,6.644c6.841-1.725,9.458,2.092,9.458,2.092L22.206,9.55
				c-0.907-1.298-2.402-2.055-3.985-2.018c-1.556,0.053-3.1,0.29-4.6,0.707c-1.506,0.417-3.095,0.427-4.606,0.03
				C6.373,7.384,4.933,4.54,5.782,1.887l1.107,0.7c0,0-0.2,5.778,6.639,4.053"/>
			<path id="Path_829" fill="#711089" d="M6.893,2.589l3.484-0.951c-0.44,1.167,0.024,2.482,1.1,3.115
				c1.068,0.582,2.299,0.792,3.5,0.6c1.191-0.194,2.394-0.31,3.6-0.347c2.551,0.187,4.764,1.833,5.674,4.223l-1.155,0.206
				c-0.396-0.888-1.089-1.61-1.961-2.04c-1.368-0.585-2.875-0.764-4.342-0.513c-1.466,0.172-2.909,0.533-4.381,0.618
				c-1.479,0.16-2.968-0.198-4.213-1.011C6.946,5.623,6.414,4.035,6.893,2.589"/>
			<path id="Path_830" fill="#5A006C" d="M6.895,2.595l3.484-0.952l-1.3-0.775L5.792,1.892L6.895,2.595z"/>
			<path id="Path_831" fill="#9427AF" d="M16.715,5.397c2.127-0.436,4.327,0.271,5.8,1.866c-0.146,0.136-0.3,0.212-0.441,0.347
				c-1.448-0.84-3.111-1.235-4.782-1.136C17.133,6.1,16.874,5.774,16.715,5.397"/>
			<path id="Path_832" fill="#440057" d="M24.905,7.859c2.683-0.396,5-1.1,6.125-3.812c0.881-2.129,0.709-4.908-1.283-6.374
				c-1.159-0.956-2.873-0.792-3.829,0.368c-0.17,0.206-0.309,0.437-0.412,0.683c-0.359,0.995-0.419,2.072-0.173,3.1
				c0.348,1.776,1.926,4.137,1.137,5.93c-0.2,0.451-1.577,0.5-1.369,0.022c0.7-1.583-0.747-3.911-1.1-5.488
				c-0.366-1.313-0.247-2.715,0.334-3.949c1.343-2.074,4.084-2.716,6.209-1.455c2.62,1.566,2.894,5.011,1.668,7.552
				c-1.415,2.936-4.189,3.708-7.189,4.148c-0.833,0.123-0.96-0.6-0.117-0.728"/>
			<path id="Path_833" fill="#711089" d="M25.565,7.741c2.683-0.395,5-1.1,6.125-3.811c0.881-2.129,0.709-4.908-1.283-6.374
				c-1.16-0.956-2.874-0.791-3.829,0.369c-0.17,0.206-0.308,0.436-0.411,0.682c-0.359,0.995-0.42,2.072-0.174,3.1
				c0.349,1.776,1.926,4.138,1.137,5.931c-0.2,0.451-1.577,0.495-1.369,0.021c0.7-1.583-0.747-3.911-1.1-5.488
				c-0.366-1.313-0.247-2.715,0.334-3.949c1.344-2.072,4.085-2.713,6.209-1.451c2.62,1.566,2.894,5.01,1.668,7.552
				c-1.415,2.932-4.191,3.7-7.191,4.145C24.848,8.591,24.721,7.868,25.565,7.741"/>
			<path id="Path_834" fill="#440057" d="M25.134,8.211c-2.654,0.556-5.074,0.7-7.064-1.462c-1.561-1.694-2.36-4.362-1-6.425
				c0.758-1.297,2.424-1.733,3.721-0.975c0.23,0.135,0.439,0.302,0.621,0.498c0.68,0.809,1.109,1.799,1.234,2.849
				c0.286,1.787-0.379,4.548,0.981,5.959c0.342,0.354,1.651-0.08,1.292-0.452c-1.2-1.245-0.649-3.928-0.862-5.53
				c-0.11-1.359-0.706-2.633-1.677-3.591c-1.977-1.481-4.771-1.136-6.329,0.782c-1.918,2.374-0.986,5.7,1.042,7.663
				c2.34,2.264,5.212,2.03,8.18,1.408c0.824-0.172,0.693-0.9-0.141-0.723"/>
			<path id="Path_835" fill="#711089" d="M24.475,8.329c-2.654,0.556-5.074,0.7-7.064-1.462c-1.561-1.695-2.36-4.362-1-6.425
				c0.756-1.298,2.421-1.738,3.719-0.982c0.232,0.135,0.444,0.305,0.626,0.502c0.681,0.809,1.11,1.799,1.234,2.849
				c0.286,1.787-0.379,4.548,0.981,5.958c0.342,0.355,1.651-0.08,1.292-0.452c-1.2-1.245-0.649-3.929-0.862-5.531
				c-0.11-1.359-0.706-2.634-1.677-3.591c-1.978-1.481-4.772-1.136-6.329,0.782c-1.918,2.374-0.986,5.7,1.042,7.663
				c2.34,2.264,5.212,2.03,8.18,1.408c0.824-0.172,0.693-0.9-0.141-0.723"/>
			<path id="Path_836" fill="#711089" d="M22.341,9.079c0.474-1.917,2.411-3.086,4.327-2.613c0.755,0.187,1.429,0.614,1.918,1.218
				c-0.225,0.4-0.589,0.704-1.022,0.855C25.897,9.162,24.099,9.349,22.341,9.079"/>
			<path id="Path_837" fill="#5A006C" d="M22.225,4.904c-0.063,0.522-0.064,1.051-0.005,1.574c-0.057,1.111,0.749,2.08,1.852,2.225
				c1.115,0.209,2.261-0.139,3.072-0.931c-0.645,0.195-1.324,0.246-1.99,0.148c-0.833-0.08-1.539-0.645-1.8-1.44
				c-0.046-0.25-0.066-0.506-0.06-0.761c-0.003-0.421-0.007-0.841-0.012-1.261c-0.289,0.125-0.766,0.323-1.055,0.448"/>
			<path id="Path_838" fill="#5A006C" d="M27.808,7.515c0,0,3.738-1.2,3.956-3.774l1,0.146c0,0-1.259,3.63-4.961,3.627"/>
			<path id="Path_839" fill="#9427AF" d="M27.49,6.943c-1.073-0.554-2.366-0.461-3.35,0.241c0.497,0.333,1.086,0.499,1.684,0.474
				C26.439,7.596,27.021,7.346,27.49,6.943"/>
			<path id="Path_840" fill="#9427AF" d="M20.399-0.611c0.093-0.167,0.23-0.34,0.323-0.507c1.561,0.846,2.521,2.49,2.493,4.266
				c-0.285,0.094-0.605,0.165-0.89,0.26C22.357,1.839,21.642,0.347,20.399-0.611"/>
			<path id="Path_841" fill="#9427AF" d="M30.458-2.797c0.093-0.167,0.229-0.34,0.323-0.507c1.56,0.847,2.519,2.491,2.488,4.266
				c-0.285,0.094-0.6,0.165-0.889,0.259c0.032-1.569-0.683-3.061-1.926-4.019"/>
			<path id="Path_842" fill="#9427AF" d="M20.203,10.868L6.28,14.452l-2.086-0.515l14.354-3.488L20.203,10.868z"/>
		</g>
	</g>
</g>
</svg>
