<?xml version="1.0" encoding="utf-8"?>
<!-- Generator: Adobe Illustrator 14.0.0, SVG Export Plug-In . SVG Version: 6.00 Build 43363)  -->
<!DOCTYPE svg PUBLIC "-//W3C//DTD SVG 1.1//EN" "http://www.w3.org/Graphics/SVG/1.1/DTD/svg11.dtd">
<svg version="1.1" id="Layer_1" xmlns="http://www.w3.org/2000/svg" xmlns:xlink="http://www.w3.org/1999/xlink" x="0px" y="0px"
	 width="23.559px" height="551.833px" viewBox="1.957 0 23.559 551.833" enable-background="new 1.957 0 23.559 551.833"
	 xml:space="preserve">
<g id="Group_504">
	<g id="Group_503">
		<path id="Path_231" fill="#FFFFFF" d="M20.68,46.222c-3.849-3.849-10.089-3.849-13.938,0l0,0
			c-1.854,1.844-2.894,4.353-2.887,6.969l0,0c-0.006,2.133,0.686,4.21,1.971,5.914c0.11,0.146,0.28,0.231,0.462,0.231h14.845
			c0.183,0,0.354-0.085,0.462-0.231c1.285-1.703,1.978-3.78,1.971-5.914l0,0C23.573,50.576,22.533,48.066,20.68,46.222z
			 M20.839,58.18H6.583c-0.915-1.3-1.453-2.826-1.553-4.412H5.67c0.319,0,0.577-0.259,0.577-0.579c0-0.318-0.259-0.576-0.577-0.576
			H5.029c0.125-1.907,0.877-3.718,2.137-5.152l0.45,0.449c0.235,0.215,0.601,0.198,0.816-0.039c0.2-0.22,0.2-0.556,0-0.776
			l-0.45-0.45c1.435-1.261,3.247-2.012,5.152-2.137v0.64c0,0.319,0.259,0.578,0.578,0.578c0.318,0,0.577-0.258,0.577-0.578v-0.64
			c1.906,0.125,3.717,0.876,5.152,2.137l-0.449,0.45c-0.242,0.21-0.265,0.574-0.055,0.814c0.211,0.24,0.574,0.264,0.814,0.053
			c0.019-0.016,0.036-0.033,0.051-0.051l0.45-0.449c1.262,1.434,2.014,3.246,2.137,5.151h-0.64c-0.317,0-0.576,0.26-0.576,0.578
			c0.001,0.319,0.259,0.577,0.576,0.578h0.641C22.291,55.355,21.754,56.881,20.839,58.18z"/>
	</g>
</g>
<g id="Group_508" transform="translate(10.517 8.595)">
	<g id="Group_507">
		<path id="Path_233" fill="#FFFFFF" d="M6.814,40.975c-0.226-0.225-0.592-0.225-0.817,0l0,0l-1.541,1.542
			c-1.148-0.698-2.647-0.333-3.343,0.816c-0.697,1.15-0.333,2.646,0.816,3.345c1.149,0.697,2.645,0.332,3.344-0.817
			c0.472-0.776,0.472-1.75,0-2.528l1.542-1.54C7.039,41.567,7.041,41.201,6.814,40.975C6.815,40.975,6.815,40.975,6.814,40.975z
			 M3.193,45.873c-0.706,0-1.278-0.572-1.278-1.278c0-0.706,0.572-1.278,1.28-1.278c0.706,0,1.278,0.572,1.278,1.278
			C4.471,45.301,3.9,45.872,3.193,45.873z"/>
	</g>
</g>
<g id="mountain-peak">
	<path id="Path_12" fill="#FFFFFF" d="M22.667,150.261h0.618v0.618h-0.618V150.261z"/>
	<path id="Path_13" fill="#FFFFFF" d="M4.136,150.261h0.618v0.618H4.136V150.261z"/>
	<path id="Path_14" fill="#FFFFFF" d="M19.863,146.041c-0.326-0.932-1.103-1.636-2.062-1.872l-1.422-4.877
		c-0.319-1.074-1.248-1.854-2.361-1.982v-1.346l4.861-1.736l-5.479-2.347v5.43c-0.186,0.02-0.367,0.06-0.545,0.117
		c-0.535-0.404-1.224-0.541-1.873-0.371c-0.644-1.393-2.296-2-3.689-1.356c-1.093,0.505-1.736,1.656-1.594,2.851
		c-1.009,0.171-1.689,1.127-1.519,2.136c0.148,0.885,0.91,1.535,1.806,1.544h4.195l-0.18,0.618
		c-1.234,0.005-2.318,0.819-2.668,2.003l-1.578,5.411H5.062v0.618h16.987v-0.618h-0.707L19.863,146.041z M14.019,132.817l3.17,1.359
		l-3.17,1.132V132.817z M14.513,147.446c0.185,0.218,0.457,0.344,0.742,0.346c0.653,0,0.959-0.608,1.203-1.098
		c0.233-0.47,0.396-0.755,0.648-0.755c0.255,0,0.416,0.286,0.651,0.755c0.247,0.489,0.549,1.098,1.203,1.098
		c0.286-0.002,0.556-0.129,0.741-0.347l0.988,2.818h-7.166L14.513,147.446z M19.28,146.245l0.169,0.481
		c-0.182,0.323-0.322,0.447-0.49,0.447c-0.255,0-0.415-0.285-0.651-0.755c-0.246-0.489-0.549-1.097-1.202-1.097
		c-0.655,0-0.96,0.608-1.203,1.097c-0.234,0.47-0.396,0.755-0.649,0.755c-0.169,0-0.309-0.123-0.489-0.445l0.168-0.483
		c0.421-1.201,1.735-1.833,2.936-1.413C18.529,145.064,19.049,145.584,19.28,146.245z M17.107,144.084
		c-1.24,0.001-2.346,0.785-2.756,1.956l-0.726,2.074l-0.953-3.262c-0.286-0.964-1.067-1.701-2.046-1.928l0.484-1.66
		c0.185,0.221,0.457,0.35,0.745,0.352c0.654,0,0.959-0.608,1.203-1.098c0.235-0.47,0.396-0.756,0.65-0.756s0.416,0.286,0.651,0.756
		c0.247,0.489,0.55,1.098,1.203,1.098c0.289-0.002,0.563-0.131,0.747-0.353l0.823,2.825h-0.025L17.107,144.084z M15.786,139.463
		l0.299,1.025c-0.2,0.37-0.342,0.507-0.521,0.507c-0.256,0-0.415-0.286-0.651-0.756c-0.246-0.489-0.55-1.097-1.205-1.097
		c-0.654,0-0.958,0.608-1.203,1.097c-0.235,0.47-0.396,0.756-0.65,0.756c-0.179,0-0.321-0.137-0.52-0.505l0.3-1.027
		c0.334-1.146,1.534-1.804,2.681-1.47C15.025,138.201,15.58,138.755,15.786,139.463L15.786,139.463z M5.989,141.613
		c-0.682,0-1.235-0.554-1.235-1.235c0-0.682,0.553-1.235,1.235-1.235c0.682,0,1.236,0.553,1.236,1.235h0.617
		c0-0.892-0.637-1.658-1.514-1.821c-0.177-1.181,0.637-2.281,1.819-2.458c1.033-0.155,2.03,0.452,2.367,1.442l0.106,0.322
		l0.309-0.136c0.405-0.173,0.865-0.167,1.265,0.017c-0.556,0.362-0.964,0.911-1.151,1.548l-0.68,2.323L5.989,141.613z
		 M10.004,143.466c0.96,0.004,1.803,0.636,2.076,1.557l0.178,0.613c-0.171,0.261-0.295,0.301-0.402,0.301
		c-0.255,0-0.416-0.286-0.65-0.756c-0.247-0.489-0.549-1.097-1.203-1.097c-0.655,0-0.959,0.608-1.204,1.097
		c-0.234,0.47-0.396,0.756-0.65,0.756c-0.107,0-0.229-0.041-0.399-0.299l0.179-0.618c0.272-0.92,1.117-1.553,2.076-1.557V143.466z
		 M7.545,146.334c0.169,0.143,0.383,0.221,0.604,0.22c0.654,0,0.959-0.608,1.203-1.098c0.235-0.47,0.396-0.755,0.65-0.755
		c0.254,0,0.416,0.285,0.65,0.755c0.247,0.489,0.549,1.098,1.203,1.098c0.222,0,0.436-0.08,0.605-0.224l0.812,2.786l-0.4,1.144H6.4
		L7.545,146.334z"/>
</g>
<g id="mountain-peak-2">
	<path id="Path_12-2" fill="#FFFFFF" d="M22.667,150.261h0.618v0.618h-0.618V150.261z"/>
	<path id="Path_13-2" fill="#FFFFFF" d="M4.136,150.261h0.618v0.618H4.136V150.261z"/>
	<path id="Path_14-2" fill="#FFFFFF" d="M19.863,146.041c-0.326-0.932-1.103-1.636-2.062-1.872l-1.422-4.877
		c-0.319-1.074-1.248-1.854-2.361-1.982v-1.346l4.861-1.736l-5.479-2.347v5.43c-0.186,0.02-0.367,0.06-0.545,0.117
		c-0.535-0.404-1.224-0.541-1.873-0.371c-0.644-1.393-2.296-2-3.689-1.356c-1.093,0.505-1.736,1.656-1.594,2.851
		c-1.009,0.171-1.689,1.127-1.519,2.136c0.148,0.885,0.91,1.535,1.806,1.544h4.195l-0.18,0.618
		c-1.234,0.005-2.318,0.819-2.668,2.003l-1.578,5.411H5.062v0.618h16.987v-0.618h-0.707L19.863,146.041z M14.019,132.817l3.17,1.359
		l-3.17,1.132V132.817z M14.513,147.446c0.185,0.218,0.457,0.344,0.742,0.346c0.653,0,0.959-0.608,1.203-1.098
		c0.233-0.47,0.396-0.755,0.648-0.755c0.255,0,0.416,0.286,0.651,0.755c0.247,0.489,0.549,1.098,1.203,1.098
		c0.286-0.002,0.556-0.129,0.741-0.347l0.988,2.818h-7.166L14.513,147.446z M19.28,146.245l0.169,0.481
		c-0.182,0.323-0.322,0.447-0.49,0.447c-0.255,0-0.415-0.285-0.651-0.755c-0.246-0.489-0.549-1.097-1.202-1.097
		c-0.655,0-0.96,0.608-1.203,1.097c-0.234,0.47-0.396,0.755-0.649,0.755c-0.169,0-0.309-0.123-0.489-0.445l0.168-0.483
		c0.421-1.201,1.735-1.833,2.936-1.413C18.529,145.064,19.049,145.584,19.28,146.245z M17.107,144.084
		c-1.24,0.001-2.346,0.785-2.756,1.956l-0.726,2.074l-0.953-3.262c-0.286-0.964-1.067-1.701-2.046-1.928l0.484-1.66
		c0.185,0.221,0.457,0.35,0.745,0.352c0.654,0,0.959-0.608,1.203-1.098c0.235-0.47,0.396-0.756,0.65-0.756s0.416,0.286,0.651,0.756
		c0.247,0.489,0.55,1.098,1.203,1.098c0.289-0.002,0.563-0.131,0.747-0.353l0.823,2.825h-0.025L17.107,144.084z M15.786,139.463
		l0.299,1.025c-0.2,0.37-0.342,0.507-0.521,0.507c-0.256,0-0.415-0.286-0.651-0.756c-0.246-0.489-0.55-1.097-1.205-1.097
		c-0.654,0-0.958,0.608-1.203,1.097c-0.235,0.47-0.396,0.756-0.65,0.756c-0.179,0-0.321-0.137-0.52-0.505l0.3-1.027
		c0.334-1.146,1.534-1.804,2.681-1.47C15.025,138.201,15.58,138.755,15.786,139.463L15.786,139.463z M5.989,141.613
		c-0.682,0-1.235-0.554-1.235-1.235c0-0.682,0.553-1.235,1.235-1.235c0.682,0,1.236,0.553,1.236,1.235h0.617
		c0-0.892-0.637-1.658-1.514-1.821c-0.177-1.181,0.637-2.281,1.819-2.458c1.033-0.155,2.03,0.452,2.367,1.442l0.106,0.322
		l0.309-0.136c0.405-0.173,0.865-0.167,1.265,0.017c-0.556,0.362-0.964,0.911-1.151,1.548l-0.68,2.323L5.989,141.613z
		 M10.004,143.466c0.96,0.004,1.803,0.636,2.076,1.557l0.178,0.613c-0.171,0.261-0.295,0.301-0.402,0.301
		c-0.255,0-0.416-0.286-0.65-0.756c-0.247-0.489-0.549-1.097-1.203-1.097c-0.655,0-0.959,0.608-1.204,1.097
		c-0.234,0.47-0.396,0.756-0.65,0.756c-0.107,0-0.229-0.041-0.399-0.299l0.179-0.618c0.272-0.92,1.117-1.553,2.076-1.557V143.466z
		 M7.545,146.334c0.169,0.143,0.383,0.221,0.604,0.22c0.654,0,0.959-0.608,1.203-1.098c0.235-0.47,0.396-0.755,0.65-0.755
		c0.254,0,0.416,0.285,0.65,0.755c0.247,0.489,0.549,1.098,1.203,1.098c0.222,0,0.436-0.08,0.605-0.224l0.812,2.786l-0.4,1.144H6.4
		L7.545,146.334z"/>
</g>
<g id="Group_510">
	<path id="Path_234" fill="#FFFFFD" d="M18.298,245.192l6.436-6.115l-4.014-4.224L18.298,245.192z M23.277,239.042l-3.192,3.031
		l1.201-5.126L23.277,239.042z"/>
	<path id="Path_235" fill="#FFFFFD" d="M20.081,234.423l-0.023-0.006l-5.703-1.335l-0.021,0.089l3.489,10.889L20.081,234.423z
		 M15.838,234.486l3.006,0.704l-1.174,5.013L15.838,234.486z"/>
	<path id="Path_236" fill="#FFFFFD" d="M7.929,234.807l0.204,0.64l9.069,9.069l0.006-0.019l-3.68-11.482L7.929,234.807z
		 M9.521,235.377l3.341-1.071l2.079,6.492L9.521,235.377z"/>
	<path id="Path_237" fill="#FFFFFD" d="M17.643,245.887l0.03-0.032l-0.014-0.016L7.28,235.462l-0.01,0.01l-4.146,4.149
		l10.395,10.394L17.643,245.887z M7.28,236.919l8.938,8.937l-2.7,2.702l-8.939-8.936L7.28,236.919z"/>
	<path id="Path_238" fill="#FFFFFD" d="M13.55,245.02c0.498,0,0.901,0.403,0.901,0.901s-0.403,0.901-0.901,0.901
		s-0.901-0.403-0.901-0.901l0,0C12.649,245.423,13.052,245.02,13.55,245.02z"/>
</g>
<g id="Group_511">
	<path id="Path_239" fill="#FFFFFF" d="M22.938,343.082c-0.287,0.001-0.518,0.232-0.518,0.518v13.756
		c0,1.455-1.182,2.637-2.635,2.638H7.123c-1.455-0.001-2.633-1.181-2.635-2.636v-14.841H19.66v13.344
		c0,0.287,0.232,0.519,0.518,0.519c0.287-0.001,0.52-0.232,0.52-0.519v-13.862c-0.002-0.286-0.234-0.518-0.52-0.518H3.969
		c-0.286,0-0.518,0.231-0.518,0.518v15.354c0.001,2.025,1.644,3.669,3.671,3.67h12.659c2.025-0.001,3.67-1.643,3.67-3.67v-13.752
		c0.002-0.283-0.227-0.516-0.51-0.518C22.939,343.082,22.939,343.082,22.938,343.082z"/>
	<path id="Path_240" fill="#FFFFFF" d="M17.674,345.503c0.285,0,0.518-0.231,0.518-0.519c0-0.286-0.232-0.519-0.518-0.519H6.375
		c-0.286,0-0.518,0.232-0.518,0.519c0,0.287,0.231,0.519,0.518,0.519H17.674z"/>
	<path id="Path_241" fill="#FFFFFF" d="M17.674,355.031H6.375c-0.286-0.001-0.519,0.23-0.52,0.517c0,0.286,0.23,0.519,0.517,0.521
		c0,0,0.002,0,0.002,0h11.293c0.287,0,0.521-0.23,0.521-0.518C18.189,355.265,17.959,355.032,17.674,355.031L17.674,355.031z"/>
	<path id="Path_242" fill="#FFFFFF" d="M17.674,357.687H8.167c-0.286,0.001-0.518,0.233-0.517,0.52c0,0.285,0.231,0.517,0.517,0.517
		h9.506c0.285,0.002,0.52-0.23,0.52-0.517s-0.23-0.519-0.518-0.52H17.674L17.674,357.687z"/>
	<path id="Path_243" fill="#FFFFFF" d="M5.684,347.313v5.606c0.001,0.286,0.232,0.518,0.519,0.518h5.627
		c0.286,0,0.518-0.231,0.518-0.518v-5.606c0-0.285-0.232-0.517-0.518-0.519H6.202C5.916,346.796,5.685,347.028,5.684,347.313z
		 M6.72,347.833h4.594v4.569H6.72V347.833z"/>
	<path id="Path_244" fill="#FFFFFF" d="M17.949,347.313h-3.728c-0.286,0.002-0.518,0.233-0.517,0.52
		c0,0.285,0.232,0.517,0.517,0.518h3.728c0.287-0.001,0.518-0.233,0.516-0.52C18.465,347.544,18.234,347.315,17.949,347.313z"/>
	<path id="Path_245" fill="#FFFFFF" d="M17.949,349.654h-3.728c-0.286-0.001-0.519,0.23-0.52,0.518
		c-0.001,0.286,0.23,0.519,0.516,0.52c0,0,0.002,0,0.003,0h3.728c0.287,0.001,0.52-0.23,0.52-0.518
		c0.002-0.285-0.23-0.518-0.516-0.52C17.951,349.654,17.949,349.654,17.949,349.654z"/>
	<path id="Path_246" fill="#FFFFFF" d="M18.467,352.661c0-0.285-0.232-0.517-0.518-0.519h-3.728
		c-0.286,0.002-0.518,0.234-0.517,0.52c0,0.286,0.232,0.517,0.517,0.518h3.728c0.285,0.001,0.518-0.229,0.518-0.516
		C18.467,352.663,18.467,352.662,18.467,352.661z"/>
</g>
<g id="Group_504-2">
	<g id="Group_503-2">
		<path id="Path_231-2" fill="#FAD20A" d="M20.68,6.222c-3.849-3.849-10.089-3.849-13.938,0l0,0
			c-1.854,1.844-2.894,4.353-2.887,6.969l0,0c-0.006,2.133,0.686,4.21,1.971,5.914c0.11,0.146,0.28,0.231,0.462,0.231h14.845
			c0.183,0,0.354-0.085,0.462-0.231c1.285-1.703,1.978-3.78,1.971-5.914l0,0C23.573,10.576,22.533,8.066,20.68,6.222z M20.839,18.18
			H6.583c-0.915-1.3-1.453-2.826-1.553-4.412H5.67c0.319,0,0.577-0.259,0.577-0.579c0-0.318-0.259-0.577-0.577-0.577H5.029
			c0.125-1.906,0.877-3.717,2.137-5.151l0.45,0.449c0.235,0.215,0.601,0.198,0.816-0.039c0.2-0.22,0.2-0.556,0-0.776l-0.45-0.45
			c1.435-1.261,3.247-2.012,5.152-2.137v0.64c0,0.319,0.259,0.578,0.578,0.578c0.318,0,0.577-0.258,0.577-0.578v-0.64
			c1.906,0.125,3.717,0.876,5.152,2.137l-0.449,0.45c-0.242,0.21-0.265,0.574-0.055,0.814c0.211,0.24,0.574,0.264,0.814,0.053
			c0.019-0.016,0.036-0.033,0.051-0.051l0.45-0.449c1.262,1.434,2.014,3.246,2.137,5.152h-0.64c-0.317,0-0.576,0.259-0.576,0.577
			c0.001,0.319,0.259,0.577,0.576,0.578h0.641C22.291,15.355,21.754,16.881,20.839,18.18z"/>
	</g>
</g>
<g id="Group_508-2" transform="translate(10.517 8.595)">
	<g id="Group_507-2">
		<path id="Path_233-2" fill="#FAD20A" d="M6.814,0.975c-0.226-0.225-0.592-0.225-0.817,0l0,0L4.456,2.517
			C3.307,1.819,1.809,2.185,1.112,3.333C0.415,4.483,0.779,5.98,1.929,6.678C3.078,7.375,4.574,7.01,5.273,5.861
			c0.472-0.776,0.472-1.75,0-2.528l1.542-1.541C7.039,1.567,7.041,1.201,6.814,0.975C6.815,0.975,6.815,0.975,6.814,0.975z
			 M3.193,5.873c-0.706,0-1.278-0.572-1.278-1.278c0-0.706,0.572-1.278,1.28-1.278c0.706,0,1.278,0.572,1.278,1.278
			C4.471,5.301,3.9,5.872,3.193,5.873z"/>
	</g>
</g>
<g id="mountain-peak-3">
	<path id="Path_12-3" fill="#FAD20A" d="M22.667,110.261h0.618v0.618h-0.618V110.261z"/>
	<path id="Path_13-3" fill="#FAD20A" d="M4.136,110.261h0.618v0.618H4.136V110.261z"/>
	<path id="Path_14-3" fill="#FAD20A" d="M19.863,106.041c-0.326-0.932-1.103-1.636-2.062-1.872l-1.422-4.877
		c-0.319-1.074-1.248-1.854-2.361-1.982v-1.346l4.861-1.736l-5.479-2.347v5.43c-0.186,0.02-0.367,0.06-0.545,0.117
		c-0.535-0.404-1.224-0.541-1.873-0.371c-0.644-1.393-2.296-2-3.689-1.356c-1.093,0.505-1.736,1.656-1.594,2.851
		c-1.009,0.171-1.689,1.127-1.519,2.136c0.148,0.885,0.91,1.535,1.806,1.544h4.195l-0.18,0.618
		c-1.234,0.005-2.318,0.819-2.668,2.003l-1.578,5.411H5.062v0.618h16.987v-0.618h-0.707L19.863,106.041z M14.019,92.817l3.17,1.359
		l-3.17,1.132V92.817z M14.513,107.446c0.185,0.218,0.457,0.344,0.742,0.346c0.653,0,0.959-0.608,1.203-1.098
		c0.233-0.47,0.396-0.755,0.648-0.755c0.255,0,0.416,0.286,0.651,0.755c0.247,0.489,0.549,1.098,1.203,1.098
		c0.286-0.002,0.556-0.129,0.741-0.347l0.988,2.818h-7.166L14.513,107.446z M19.28,106.245l0.169,0.481
		c-0.182,0.323-0.322,0.447-0.49,0.447c-0.255,0-0.415-0.285-0.651-0.755c-0.246-0.489-0.549-1.097-1.202-1.097
		c-0.655,0-0.96,0.608-1.203,1.097c-0.234,0.47-0.396,0.755-0.649,0.755c-0.169,0-0.309-0.123-0.489-0.445l0.168-0.483
		c0.421-1.201,1.735-1.833,2.936-1.413C18.529,105.064,19.049,105.584,19.28,106.245z M17.107,104.084
		c-1.24,0.001-2.346,0.785-2.756,1.956l-0.726,2.074l-0.953-3.263c-0.286-0.964-1.067-1.701-2.046-1.928l0.484-1.66
		c0.185,0.221,0.457,0.35,0.745,0.352c0.654,0,0.959-0.608,1.203-1.098c0.235-0.47,0.396-0.756,0.65-0.756s0.416,0.286,0.651,0.756
		c0.247,0.489,0.55,1.098,1.203,1.098c0.289-0.002,0.563-0.131,0.747-0.353l0.823,2.825h-0.025L17.107,104.084z M15.786,99.463
		l0.299,1.025c-0.2,0.37-0.342,0.507-0.521,0.507c-0.256,0-0.415-0.286-0.651-0.756c-0.246-0.489-0.55-1.097-1.205-1.097
		c-0.654,0-0.958,0.608-1.203,1.097c-0.235,0.47-0.396,0.756-0.65,0.756c-0.179,0-0.321-0.137-0.52-0.505l0.3-1.027
		c0.334-1.146,1.534-1.804,2.681-1.47C15.025,98.201,15.58,98.755,15.786,99.463L15.786,99.463z M5.989,101.613
		c-0.682,0-1.235-0.554-1.235-1.235c0-0.682,0.553-1.235,1.235-1.235c0.682,0,1.236,0.553,1.236,1.235h0.617
		c0-0.892-0.637-1.658-1.514-1.821c-0.177-1.181,0.637-2.281,1.819-2.458c1.033-0.155,2.03,0.452,2.367,1.442l0.106,0.322
		l0.309-0.136c0.405-0.173,0.865-0.167,1.265,0.017c-0.556,0.362-0.964,0.911-1.151,1.548l-0.68,2.323L5.989,101.613z
		 M10.004,103.466c0.96,0.004,1.803,0.636,2.076,1.557l0.178,0.613c-0.171,0.26-0.295,0.301-0.402,0.301
		c-0.255,0-0.416-0.286-0.65-0.756c-0.247-0.489-0.549-1.097-1.203-1.097c-0.655,0-0.959,0.608-1.204,1.097
		c-0.234,0.47-0.396,0.756-0.65,0.756c-0.107,0-0.229-0.041-0.399-0.299l0.179-0.618c0.272-0.92,1.117-1.553,2.076-1.557V103.466z
		 M7.545,106.334c0.169,0.143,0.383,0.221,0.604,0.22c0.654,0,0.959-0.608,1.203-1.098c0.235-0.47,0.396-0.755,0.65-0.755
		c0.254,0,0.416,0.285,0.65,0.755c0.247,0.489,0.549,1.098,1.203,1.098c0.222,0,0.436-0.08,0.605-0.224l0.812,2.786l-0.4,1.144H6.4
		L7.545,106.334z"/>
</g>
<g id="mountain-peak-4">
	<path id="Path_12-4" fill="#FAD20A" d="M22.667,110.261h0.618v0.618h-0.618V110.261z"/>
	<path id="Path_13-4" fill="#FAD20A" d="M4.136,110.261h0.618v0.618H4.136V110.261z"/>
	<path id="Path_14-4" fill="#FAD20A" d="M19.863,106.041c-0.326-0.932-1.103-1.636-2.062-1.872l-1.422-4.877
		c-0.319-1.074-1.248-1.854-2.361-1.982v-1.346l4.861-1.736l-5.479-2.347v5.43c-0.186,0.02-0.367,0.06-0.545,0.117
		c-0.535-0.404-1.224-0.541-1.873-0.371c-0.644-1.393-2.296-2-3.689-1.356c-1.093,0.505-1.736,1.656-1.594,2.851
		c-1.009,0.171-1.689,1.127-1.519,2.136c0.148,0.885,0.91,1.535,1.806,1.544h4.195l-0.18,0.618
		c-1.234,0.005-2.318,0.819-2.668,2.003l-1.578,5.411H5.062v0.618h16.987v-0.618h-0.707L19.863,106.041z M14.019,92.817l3.17,1.359
		l-3.17,1.132V92.817z M14.513,107.446c0.185,0.218,0.457,0.344,0.742,0.346c0.653,0,0.959-0.608,1.203-1.098
		c0.233-0.47,0.396-0.755,0.648-0.755c0.255,0,0.416,0.286,0.651,0.755c0.247,0.489,0.549,1.098,1.203,1.098
		c0.286-0.002,0.556-0.129,0.741-0.347l0.988,2.818h-7.166L14.513,107.446z M19.28,106.245l0.169,0.481
		c-0.182,0.323-0.322,0.447-0.49,0.447c-0.255,0-0.415-0.285-0.651-0.755c-0.246-0.489-0.549-1.097-1.202-1.097
		c-0.655,0-0.96,0.608-1.203,1.097c-0.234,0.47-0.396,0.755-0.649,0.755c-0.169,0-0.309-0.123-0.489-0.445l0.168-0.483
		c0.421-1.201,1.735-1.833,2.936-1.413C18.529,105.064,19.049,105.584,19.28,106.245z M17.107,104.084
		c-1.24,0.001-2.346,0.785-2.756,1.956l-0.726,2.074l-0.953-3.263c-0.286-0.964-1.067-1.701-2.046-1.928l0.484-1.66
		c0.185,0.221,0.457,0.35,0.745,0.352c0.654,0,0.959-0.608,1.203-1.098c0.235-0.47,0.396-0.756,0.65-0.756s0.416,0.286,0.651,0.756
		c0.247,0.489,0.55,1.098,1.203,1.098c0.289-0.002,0.563-0.131,0.747-0.353l0.823,2.825h-0.025L17.107,104.084z M15.786,99.463
		l0.299,1.025c-0.2,0.37-0.342,0.507-0.521,0.507c-0.256,0-0.415-0.286-0.651-0.756c-0.246-0.489-0.55-1.097-1.205-1.097
		c-0.654,0-0.958,0.608-1.203,1.097c-0.235,0.47-0.396,0.756-0.65,0.756c-0.179,0-0.321-0.137-0.52-0.505l0.3-1.027
		c0.334-1.146,1.534-1.804,2.681-1.47C15.025,98.201,15.58,98.755,15.786,99.463L15.786,99.463z M5.989,101.613
		c-0.682,0-1.235-0.554-1.235-1.235c0-0.682,0.553-1.235,1.235-1.235c0.682,0,1.236,0.553,1.236,1.235h0.617
		c0-0.892-0.637-1.658-1.514-1.821c-0.177-1.181,0.637-2.281,1.819-2.458c1.033-0.155,2.03,0.452,2.367,1.442l0.106,0.322
		l0.309-0.136c0.405-0.173,0.865-0.167,1.265,0.017c-0.556,0.362-0.964,0.911-1.151,1.548l-0.68,2.323L5.989,101.613z
		 M10.004,103.466c0.96,0.004,1.803,0.636,2.076,1.557l0.178,0.613c-0.171,0.26-0.295,0.301-0.402,0.301
		c-0.255,0-0.416-0.286-0.65-0.756c-0.247-0.489-0.549-1.097-1.203-1.097c-0.655,0-0.959,0.608-1.204,1.097
		c-0.234,0.47-0.396,0.756-0.65,0.756c-0.107,0-0.229-0.041-0.399-0.299l0.179-0.618c0.272-0.92,1.117-1.553,2.076-1.557V103.466z
		 M7.545,106.334c0.169,0.143,0.383,0.221,0.604,0.22c0.654,0,0.959-0.608,1.203-1.098c0.235-0.47,0.396-0.755,0.65-0.755
		c0.254,0,0.416,0.285,0.65,0.755c0.247,0.489,0.549,1.098,1.203,1.098c0.222,0,0.436-0.08,0.605-0.224l0.812,2.786l-0.4,1.144H6.4
		L7.545,106.334z"/>
</g>
<g id="Group_510-2">
	<path id="Path_234-2" fill="#FAD20A" d="M18.298,205.192l6.436-6.115l-4.014-4.224L18.298,205.192z M23.277,199.042l-3.192,3.031
		l1.201-5.126L23.277,199.042z"/>
	<path id="Path_235-2" fill="#FAD20A" d="M20.081,194.423l-0.023-0.006l-5.703-1.335l-0.021,0.089l3.489,10.889L20.081,194.423z
		 M15.838,194.486l3.006,0.704l-1.174,5.013L15.838,194.486z"/>
	<path id="Path_236-2" fill="#FAD20A" d="M7.929,194.806l0.204,0.641l9.069,9.069l0.006-0.018l-3.68-11.482L7.929,194.806z
		 M9.521,195.377l3.341-1.071l2.079,6.492L9.521,195.377z"/>
	<path id="Path_237-2" fill="#FAD20A" d="M17.643,205.887l0.03-0.032l-0.014-0.016L7.28,195.462l-0.01,0.01l-4.146,4.149
		l10.395,10.395L17.643,205.887z M7.28,196.919l8.938,8.937l-2.7,2.701l-8.939-8.937L7.28,196.919z"/>
	<path id="Path_238-2" fill="#FAD20A" d="M13.55,205.02c0.498,0,0.901,0.404,0.901,0.901c0,0.498-0.403,0.901-0.901,0.901
		s-0.901-0.403-0.901-0.901l0,0C12.649,205.423,13.052,205.02,13.55,205.02z"/>
</g>
<g id="Group_511-2">
	<path id="Path_239-2" fill="#FAD20A" d="M23.158,302.89c-0.293,0.001-0.529,0.237-0.529,0.529v14.079
		c0,1.489-1.209,2.698-2.697,2.699H6.974c-1.489-0.001-2.695-1.208-2.697-2.697v-15.189h15.527v13.657
		c0,0.294,0.238,0.53,0.531,0.53c0.293-0.001,0.529-0.237,0.529-0.53V301.78c0-0.292-0.238-0.529-0.529-0.529H3.747
		c-0.292,0-0.53,0.237-0.53,0.529v15.715c0.001,2.072,1.683,3.755,3.758,3.756h12.954c2.074-0.001,3.756-1.682,3.758-3.756v-14.075
		c0.002-0.29-0.232-0.527-0.521-0.529C23.162,302.89,23.16,302.89,23.158,302.89z"/>
	<path id="Path_240-2" fill="#FAD20A" d="M17.771,305.369c0.291,0,0.529-0.237,0.529-0.531c0-0.293-0.238-0.53-0.529-0.53H6.208
		c-0.292,0-0.53,0.237-0.53,0.53c0,0.294,0.237,0.531,0.53,0.531H17.771z"/>
	<path id="Path_241-2" fill="#FAD20A" d="M17.771,315.12H6.208c-0.292-0.001-0.531,0.235-0.532,0.528
		c0,0.293,0.236,0.531,0.529,0.533c0,0,0.002,0,0.003,0h11.557c0.295,0,0.533-0.236,0.533-0.53
		C18.301,315.36,18.063,315.121,17.771,315.12L17.771,315.12z"/>
	<path id="Path_242-2" fill="#FAD20A" d="M17.771,317.838H8.043c-0.293,0.001-0.53,0.238-0.529,0.531
		c0,0.292,0.237,0.529,0.529,0.529h9.728c0.293,0.002,0.531-0.236,0.531-0.529c0.002-0.293-0.236-0.53-0.529-0.531
		C17.773,317.838,17.773,317.838,17.771,317.838L17.771,317.838z"/>
	<path id="Path_243-2" fill="#FAD20A" d="M5.501,307.22v5.738c0.001,0.293,0.238,0.53,0.531,0.53h5.76c0.292,0,0.53-0.237,0.53-0.53
		v-5.738c0-0.292-0.238-0.528-0.53-0.53h-5.76C5.739,306.692,5.502,306.928,5.501,307.22z M6.562,307.752h4.702v4.677H6.562V307.752
		z"/>
	<path id="Path_244-2" fill="#FAD20A" d="M18.053,307.22H14.24c-0.293,0.002-0.53,0.239-0.529,0.532
		c0,0.292,0.237,0.528,0.529,0.529h3.813c0.295-0.001,0.531-0.238,0.529-0.531C18.582,307.458,18.346,307.222,18.053,307.22z"/>
	<path id="Path_245-2" fill="#FAD20A" d="M18.053,309.617H14.24c-0.293-0.001-0.531,0.235-0.532,0.529
		c-0.001,0.293,0.235,0.531,0.528,0.532c0,0,0.002,0,0.003,0h3.813c0.295,0.001,0.533-0.236,0.533-0.53
		c0.002-0.292-0.236-0.529-0.529-0.531C18.057,309.617,18.055,309.617,18.053,309.617z"/>
	<path id="Path_246-2" fill="#FAD20A" d="M18.584,312.694c0-0.292-0.238-0.529-0.531-0.531H14.24
		c-0.293,0.002-0.53,0.24-0.529,0.532c0,0.293,0.237,0.528,0.529,0.529h3.813c0.293,0.001,0.531-0.234,0.531-0.527
		C18.584,312.696,18.584,312.695,18.584,312.694z"/>
</g>
</svg>
