<svg xmlns="http://www.w3.org/2000/svg" width="74.93" height="74.93" viewBox="0 0 74.93 74.93">
  <g id="business" transform="translate(-1 -1)">
    <path id="Path_268" data-name="Path 268" d="M61.92,10.043,45,16.086V4h1.209Z" transform="translate(9.176 0.626)" fill="#32c8f5"/>
    <path id="Path_269" data-name="Path 269" d="M22.545,6.834a6.058,6.058,0,0,1,5.946,4.955S22,6.834,22.545,6.834Z" transform="translate(0.209 0.209)" fill="#e6e9ed"/>
    <path id="Path_270" data-name="Path 270" d="M18.148,36H28.711l6.429,4.592a4.824,4.824,0,0,1,2.03,3.94v14.43a3.626,3.626,0,0,1-7.251,0V47.53a1.224,1.224,0,0,0-.544-1.015L26.294,44.46H25.086l-4.17,19.784A4,4,0,0,1,13,63.422v-.35a4.026,4.026,0,0,1,.109-.943l2.236-9.209h3.7v-14.5H17.677Z" transform="translate(2.503 7.299)" fill="#fff"/>
    <path id="Path_272" data-name="Path 272" d="M19.971,38h1.366l-.919,1.849a9.776,9.776,0,0,1-13.886,3.94,9.651,9.651,0,0,1-3.614-3.94L2,38H19.971Z" transform="translate(0.209 7.716)" fill="#32c8f5"/>
    <path id="Path_273" data-name="Path 273" d="M49.508,14.961a2.987,2.987,0,0,1-.314,1.329l-4.532,9.052-.06.121a8.48,8.48,0,0,1-7.566,4.665H32.588L30.171,41.005H19.608l2.1-10.877A4.4,4.4,0,0,0,18,32.171l-6.333,9.946a2.83,2.83,0,0,1-2.381,1.305H8.828A2.832,2.832,0,0,1,6,40.594a2.754,2.754,0,0,1,.423-1.474l5.7-9.282a12.091,12.091,0,0,1,10.3-5.753H35.646a4.859,4.859,0,0,0,4.327-2.671l3.879-7.771A2.965,2.965,0,0,1,46.511,12h.036a2.966,2.966,0,0,1,2.961,2.961Z" transform="translate(1.043 2.294)" fill="#fad20a"/>
    <path id="Path_274" data-name="Path 274" d="M26.251,10a7.251,7.251,0,1,1-7.143,8.46A6.611,6.611,0,0,1,19,17.251a7.254,7.254,0,0,1,5.946-7.13A6.64,6.64,0,0,1,26.251,10Z" transform="translate(3.754 1.877)" fill="#f0d0b4"/>
    <path id="Path_275" data-name="Path 275" d="M61.78,30.368a8,8,0,0,0-6.4-5.113V17.562L74.572,10.71,55.61,3.417H52.968V25.286A7.936,7.936,0,0,0,46.7,30.753L40.619,50.1a6.041,6.041,0,0,0-2.267-3.192L32.566,42.78,34.6,33.631h3.476A9.616,9.616,0,0,0,46.72,28.3l4.6-9.169a4.189,4.189,0,0,0-7.5-3.734l-3.888,7.776a3.6,3.6,0,0,1-3.243,2h-.771a8.452,8.452,0,0,0-5.91-14.5c-.141,0-.278.015-.418.022a7.235,7.235,0,0,0-6.833-4.856,6.313,6.313,0,0,0-.79.051A8.461,8.461,0,0,0,5.834,9.46c0,.041.01.081.01.121a6.042,6.042,0,0,0,1.2,11.965H21.9A8.456,8.456,0,0,0,24.1,25.171h-.631A13.38,13.38,0,0,0,12.144,31.5l-5.71,9.279a4,4,0,0,0-.255,3.731H1v16.92H16.308L14.44,69.139a5.252,5.252,0,0,0-.146,1.225v.353a5.212,5.212,0,0,0,10.311,1.074l3.946-18.743,2.662,1.774V66.262A4.839,4.839,0,0,0,36.048,71.1H75.93V68.461ZM55.385,5.92,67.62,10.626,55.385,15ZM49.006,31.478a5.556,5.556,0,0,1,10.51-.268l4.634,12.473c-.4,1.128-1.244,3.241-2.121,3.241-1.086,0-2.065-3.011-2.781-5.208-1.1-3.382-2.237-6.878-5.08-6.878s-3.979,3.5-5.077,6.878c-.714,2.2-1.692,5.208-2.777,5.208-.476,0-1.015-.651-1.571-1.879ZM7.043,19.128A3.626,3.626,0,1,1,10.668,15.5h2.417A6.054,6.054,0,0,0,8.261,9.583c0-.041-.01-.082-.01-.123a6.043,6.043,0,0,1,11.8-1.826l.348,1.1,1.114-.3a4.708,4.708,0,0,1,5.661,2.729,8.467,8.467,0,0,0-5.632,7.963Zm16.92,0a6.043,6.043,0,1,1,6.043,6.043A6.05,6.05,0,0,1,23.962,19.128ZM8.251,42.891a1.612,1.612,0,0,1,.239-.847l5.71-9.279a10.948,10.948,0,0,1,9.264-5.176H36.686a6.009,6.009,0,0,0,5.4-3.34l3.888-7.776a1.772,1.772,0,1,1,3.177,1.571l-4.6,9.169a7.212,7.212,0,0,1-6.481,4H32.662L30.243,42.091h-8.13l2.105-10.877H22.754a5.584,5.584,0,0,0-4.734,2.6l-6.329,9.946a1.611,1.611,0,0,1-1.366.749H9.868a1.62,1.62,0,0,1-1.617-1.617Zm10.933,1.617h-5.1l5.98-9.4a3.189,3.189,0,0,1,1.154-1.085Zm.406,2.417-.048.1a8.569,8.569,0,0,1-15.328,0l-.05-.1H19.59ZM3.417,50.166a10.929,10.929,0,0,0,16.92,0V59.01H3.417Zm30.214,16.1V54.823a2.412,2.412,0,0,0-1.077-2.011l-3.391-2.261H26.608L22.242,71.294a2.8,2.8,0,0,1-5.53-.575v-.353a2.8,2.8,0,0,1,.079-.657l2-8.281h3.959V44.508h8.072l6.121,4.373a3.632,3.632,0,0,1,1.518,2.95V66.262a2.417,2.417,0,0,1-4.834,0Zm6.579,2.417a4.784,4.784,0,0,0,.672-2.417V57.328l2.908-9.251a3.323,3.323,0,0,0,2.523,1.265c2.841,0,3.979-3.5,5.077-6.878.714-2.2,1.692-5.208,2.777-5.208s2.065,3.011,2.781,5.208c1.1,3.382,2.236,6.878,5.08,6.878,1.545,0,2.595-1.106,3.331-2.4l8.073,21.737Z" transform="translate(0 0)" fill="#4d4d4d"/>
    <path id="Path_276" data-name="Path 276" d="M56,53h2.417v2.417H56Z" transform="translate(11.47 10.845)"/>
    <path id="Path_277" data-name="Path 277" d="M52,53h2.417v2.417H52Z" transform="translate(10.636 10.845)"/>
    <path id="Path_278" data-name="Path 278" d="M48,53h2.417v2.417H48Z" transform="translate(9.802 10.845)"/>
  </g>
</svg>
