<svg xmlns="http://www.w3.org/2000/svg" width="73.406" height="87" viewBox="0 0 73.406 87">
  <g id="startup" transform="translate(-40)">
    <ellipse id="Ellipse_51" data-name="Ellipse 51" cx="35.5" cy="35" rx="35.5" ry="35" transform="translate(41 16)" fill="#dcddde"/>
    <g id="Group_1495" data-name="Group 1495" transform="translate(57.832 20.391)">
      <path id="Path_1234" data-name="Path 1234" d="M334.636,255.983a22.2,22.2,0,0,0-6.636-1.9v-8.425C331.676,247.448,334.026,251.572,334.636,255.983Z" transform="translate(-296.895 -224.304)" fill="#fff"/>
      <path id="Path_1235" data-name="Path 1235" d="M144.944,255.977c.61-4.411,2.961-8.534,6.636-10.329v8.423A22.179,22.179,0,0,0,144.944,255.977Z" transform="translate(-144.944 -224.298)" fill="#fff"/>
      <path id="Path_1236" data-name="Path 1236" d="M200,151.266V128.156a34.689,34.689,0,0,1,.984-8.156H218.05a34.738,34.738,0,0,1,.981,8.156v23.109H200Z" transform="translate(-190.645 -120)" fill="#fff"/>
      <path id="Path_1237" data-name="Path 1237" d="M224,322.719V320h10.875v2.719H224Z" transform="translate(-210.567 -286.016)" fill="#fff"/>
    </g>
    <path id="Path_1238" data-name="Path 1238" d="M266.875,59.656V35.188C266.875,18.875,256,8,256,8V59.656Z" transform="translate(-179.297 -6.641)" fill="#dcddde"/>
    <circle id="Ellipse_52" data-name="Ellipse 52" cx="4" cy="4" r="4" transform="translate(73 25)" fill="#32c8f5"/>
    <path id="Path_1239" data-name="Path 1239" d="M138.3,354.032a35.359,35.359,0,0,1-50.215,11.011,34.323,34.323,0,0,1-5.084-4.2,35.428,35.428,0,0,1-5.478-7.055,8.155,8.155,0,0,1,15.062,1.59,6.776,6.776,0,0,1,12.411,2.216h.136V344h5.438v13.594h.136a6.776,6.776,0,0,1,12.411-2.216,8.154,8.154,0,0,1,15.184-1.346Z" transform="translate(-31.145 -285.547)" fill="#fad20a"/>
    <rect id="Rectangle_545" data-name="Rectangle 545" width="5" height="3" transform="translate(77 54)" fill="#dcddde"/>
    <g id="Group_1496" data-name="Group 1496" transform="translate(40)">
      <path id="Path_1240" data-name="Path 1240" d="M102.133,24.867l-.961-.961L99.25,25.828l.961.961c6.854,6.855,10.477,14.983,10.477,23.508a33.813,33.813,0,0,1-3.723,15.482,9.451,9.451,0,0,0-7.152-3.248,9.549,9.549,0,0,0-8.228,4.75,8.059,8.059,0,0,0-5.365-2.031,8.162,8.162,0,0,0-5.437,2.081V59.813h4.078V54.375h4.078V52.91a22.314,22.314,0,0,1,7.453,2.63l2.062,1.24v-2.4c0-6.635-3.491-13.443-9.516-15.6V28.547A40.419,40.419,0,0,0,77.664.961L76.7,0l-.961.961A40.419,40.419,0,0,0,64.469,28.547V38.778c-6.025,2.155-9.516,8.962-9.516,15.6v2.4l2.061-1.24a22.3,22.3,0,0,1,7.453-2.632v1.467h4.078v5.438h4.078v7.519a8.162,8.162,0,0,0-5.437-2.081,8.055,8.055,0,0,0-5.37,2.035,9.48,9.48,0,0,0-15.37-1.5A33.812,33.812,0,0,1,42.719,50.3c0-8.523,3.623-16.651,10.477-23.506l.961-.961-1.922-1.922-.961.961C43.9,32.243,40,41.037,40,50.3a36.7,36.7,0,1,0,73.406,0C113.406,41.037,109.508,32.243,102.133,24.867Zm-6.559,27.2a22.2,22.2,0,0,0-6.636-1.9V41.742C92.613,43.534,94.964,47.658,95.574,52.069ZM76.7,3.958a40.963,40.963,0,0,1,7.777,13.713H68.932A41.207,41.207,0,0,1,76.7,3.958ZM57.832,52.069c.61-4.411,2.961-8.534,6.636-10.329v8.423A22.179,22.179,0,0,0,57.832,52.069Zm9.355-.413V28.547a34.689,34.689,0,0,1,.984-8.156H85.237a34.738,34.738,0,0,1,.981,8.156V51.656H67.188Zm4.078,5.438V54.375H82.141v2.719H71.266Zm29.469,17.234a33.992,33.992,0,0,1-52.827-5.98A6.781,6.781,0,0,1,60.131,70.2l.844,2.955,1.618-2.613a5.382,5.382,0,0,1,4.595-2.579,5.444,5.444,0,0,1,5.327,4.346l.222,1.092h2.607V59.813h2.719V73.406H80.67l.22-1.092a5.447,5.447,0,0,1,5.329-4.346,5.384,5.384,0,0,1,4.595,2.577l1.627,2.626.837-2.973A6.785,6.785,0,0,1,105.5,68.343,34.3,34.3,0,0,1,100.734,74.328Z" transform="translate(-40)" fill="#4d4d4d"/>
      <path id="Path_1241" data-name="Path 1241" d="M229.438,136a5.438,5.438,0,1,0,5.438,5.438A5.443,5.443,0,0,0,229.438,136Zm0,8.156a2.719,2.719,0,1,1,2.719-2.719A2.721,2.721,0,0,1,229.438,144.156Z" transform="translate(-192.734 -112.891)" fill="#4d4d4d"/>
      <path id="Path_1242" data-name="Path 1242" d="M338.719,24.156h2.719V21.438h2.719V18.719h-2.719V16h-2.719v2.719H336v2.719h2.719Z" transform="translate(-285.703 -13.281)" fill="#4d4d4d"/>
      <path id="Path_1244" data-name="Path 1244" d="M410.719,88.156h2.719V85.438h2.719V82.719h-2.719V80h-2.719v2.719H408v2.719h2.719Z" transform="translate(-345.469 -66.406)" fill="#4d4d4d"/>
      <path id="Path_1245" data-name="Path 1245" d="M369.359,184v1.359H368v2.719h1.359v1.359h2.719v-1.359h1.359v-2.719h-1.359V184Z" transform="translate(-312.266 -152.734)" fill="#4d4d4d"/>
      <path id="Path_1246" data-name="Path 1246" d="M137.359,149.438h2.719v-1.359h1.359v-2.719h-1.359V144h-2.719v1.359H136v2.719h1.359Z" transform="translate(-119.688 -119.531)" fill="#4d4d4d"/>
      <path id="Path_1247" data-name="Path 1247" d="M137.359,5.438h2.719V4.078h1.359V1.359h-1.359V0h-2.719V1.359H136V4.078h1.359Z" transform="translate(-119.688)" fill="#4d4d4d"/>
    </g>
    <path id="Path_1248" data-name="Path 1248" d="M218.037,23.3a40.963,40.963,0,0,1,7.777,13.713h-15.55A41.207,41.207,0,0,1,218.037,23.3Z" transform="translate(-141.332 -19.338)" fill="#32c8f5"/>
  </g>
</svg>
