<svg id="surface1" xmlns="http://www.w3.org/2000/svg" width="16.46" height="18.092" viewBox="0 0 16.46 18.092">
  <path id="Path_1242" data-name="Path 1242" d="M12.33,7.832V4.408a.4.4,0,0,0-.109-.26L8.382.117A.383.383,0,0,0,8.107,0H2.021A2.028,2.028,0,0,0,0,2.04V13.549a2.015,2.015,0,0,0,2.021,2.025h4.8A5.186,5.186,0,1,0,12.33,7.832ZM8.484,1.324,11.06,4.035H9.389a.911.911,0,0,1-.9-.909Zm-6.463,13.5A1.263,1.263,0,0,1,.754,13.549V2.04A1.274,1.274,0,0,1,2.021.754H7.73V3.126A1.662,1.662,0,0,0,9.389,4.789h2.187V7.734c-.113,0-.2-.015-.3-.015a5.261,5.261,0,0,0-3.439,1.3H3.047a.377.377,0,1,0,0,.754H7.134a6,6,0,0,0-.664,1.169H3.047a.377.377,0,0,0,0,.754H6.226a5.175,5.175,0,0,0,.226,3.13H2.021Zm9.25,2.523A4.431,4.431,0,1,1,15.7,12.911,4.435,4.435,0,0,1,11.271,17.342Zm0,0" fill="#5f4ba0"/>
  <path id="Path_1243" data-name="Path 1243" d="M75.928,202.438h3.82a.377.377,0,1,0,0-.754h-3.82a.377.377,0,1,0,0,.754Zm0,0" transform="translate(-72.881 -194.557)" fill="#5f4ba0"/>
  <path id="Path_1244" data-name="Path 1244" d="M248.421,283.332a.374.374,0,0,0-.55,0l-2.21,2.372a.376.376,0,0,0,.019.532.385.385,0,0,0,.539-.019l1.561-1.67v4.118a.377.377,0,1,0,.754,0v-4.118l1.55,1.67a.376.376,0,0,0,.551-.513Zm0,0" transform="translate(-236.883 -273.203)" fill="#5f4ba0"/>
</svg>
