<svg xmlns="http://www.w3.org/2000/svg" width="19.402" height="19.389" viewBox="0 0 19.402 19.389">
  <path id="userIcon" d="M16.632,3.371A9.448,9.448,0,0,0,1.063,13.259.385.385,0,1,0,1.787,13a8.679,8.679,0,1,1,14.455,3.029l-.055.059c-.032.035-.065.069-.1.1a8.69,8.69,0,0,1-12.275,0l-.053-.055c0-.035,0-.07,0-.1q0-.116,0-.231c0-.026,0-.051,0-.077,0-.051,0-.1.009-.153,0-.03.006-.06.008-.091,0-.046.008-.092.013-.137s.008-.064.012-.1.011-.087.017-.13.011-.065.016-.1.014-.084.021-.126.013-.066.02-.1.016-.082.026-.123.016-.066.023-.1.019-.08.03-.12.018-.066.027-.1.022-.079.034-.117.02-.065.031-.1.025-.077.038-.115.023-.064.034-.1.027-.076.042-.114l.037-.095c.015-.037.03-.074.046-.111l.041-.094c.016-.037.033-.073.05-.109l.044-.092.054-.107.047-.09.058-.106.05-.088.061-.1.053-.086.065-.1.056-.084.069-.1.059-.082.073-.1.061-.079.077-.095.064-.077.081-.092.066-.074.085-.09.068-.071.089-.088.07-.068.093-.086.072-.065.1-.084.072-.061.1-.082L6.2,11.1l.111-.081.07-.051c.041-.029.083-.057.125-.085l.062-.042c.055-.036.11-.07.167-.1l.026-.016q.1-.058.2-.113l.069-.036c.044-.024.088-.047.133-.07l.087-.042.11-.053a3.743,3.743,0,0,0,5.184,0,6.262,6.262,0,0,1,3.079,3.134.385.385,0,1,0,.7-.31A6.933,6.933,0,0,0,13.056,9.8a3.752,3.752,0,0,0-3.1-5.865.385.385,0,1,0,0,.769A2.983,2.983,0,0,1,12.168,9.69h0a2.976,2.976,0,0,1-4.433,0h0A2.98,2.98,0,0,1,7.85,5.569a.385.385,0,0,0-.541-.547A3.748,3.748,0,0,0,6.845,9.8l-.011.006-.089.046-.136.072-.094.053-.125.072-.1.058-.119.074-.095.063-.113.077-.094.067-.109.08-.092.07-.1.083-.089.073-.1.086-.086.076-.1.09-.083.079-.095.094-.08.081-.092.1-.076.083c-.03.034-.06.068-.09.1l-.071.083c-.03.036-.059.073-.089.11l-.066.082c-.031.04-.061.08-.091.121l-.057.076c-.038.053-.075.106-.111.159l-.029.042q-.068.1-.132.205l-.043.072c-.028.046-.056.092-.082.139-.017.029-.032.059-.049.088s-.047.084-.069.127-.032.064-.049.1-.042.082-.062.124-.031.067-.047.1-.038.082-.056.124-.029.069-.044.1-.035.083-.051.125-.027.07-.041.106-.031.084-.046.126-.025.072-.037.108-.028.085-.042.128-.023.073-.033.109-.025.086-.037.13-.02.073-.03.11-.022.088-.033.132-.017.074-.026.111-.019.09-.028.135-.015.074-.022.111-.016.092-.023.139-.012.073-.017.11-.013.1-.019.144-.009.071-.013.107-.01.1-.014.152c0,.034-.006.067-.009.1,0,.057-.007.113-.01.17,0,.028,0,.056,0,.085q0,.128,0,.257c0,.093,0,.181.007.278a.392.392,0,0,0,.009.066v.005a.38.38,0,0,0,.019.061l0,.006a.382.382,0,0,0,.029.055l0,.006a.389.389,0,0,0,.038.048l0,0,.051.054c.038.041.077.082.117.122a9.46,9.46,0,0,0,13.363,0c.04-.04.078-.081.117-.122l.051-.054a9.447,9.447,0,0,0-.167-13.187Z" transform="translate(-0.247 -0.358)" fill="#aaa" stroke="#aaa" stroke-width="0.5"/>
</svg>
