<svg id="view" xmlns="http://www.w3.org/2000/svg" width="22.607" height="14.409" viewBox="0 0 22.607 14.409">
  <g id="Group_7103" data-name="Group 7103" transform="translate(0)">
    <g id="Group_7102" data-name="Group 7102">
      <path id="Path_14888" data-name="Path 14888" d="M22.463,99.6c-.2-.276-5.014-6.765-11.16-6.765S.345,99.323.143,99.6a.746.746,0,0,0,0,.88c.2.276,5.014,6.765,11.16,6.765s10.958-6.488,11.16-6.764A.745.745,0,0,0,22.463,99.6ZM11.3,105.753c-4.527,0-8.448-4.306-9.609-5.714,1.159-1.409,5.072-5.713,9.609-5.713s8.447,4.306,9.609,5.714C19.753,101.449,15.84,105.753,11.3,105.753Z" transform="translate(0 -92.835)" fill="#8a8a8a"/>
    </g>
  </g>
  <g id="Group_7105" data-name="Group 7105" transform="translate(6.832 2.733)">
    <g id="Group_7104" data-name="Group 7104">
      <path id="Path_14889" data-name="Path 14889" d="M159.194,154.725a4.472,4.472,0,1,0,4.472,4.472A4.477,4.477,0,0,0,159.194,154.725Zm0,7.453a2.981,2.981,0,1,1,2.981-2.981A2.984,2.984,0,0,1,159.194,162.178Z" transform="translate(-154.722 -154.725)" fill="#8a8a8a"/>
    </g>
  </g>
</svg>
