<svg xmlns="http://www.w3.org/2000/svg" width="52.319" height="52.319" viewBox="0 0 52.319 52.319">
  <g id="Group_7616" data-name="Group 7616" transform="translate(-1070.747 -453)">
    <rect id="Rectangle_550" data-name="Rectangle 550" width="52.319" height="52.319" rx="26.16" transform="translate(1070.747 453)" fill="#4dcebf"/>
    <g id="visibility" transform="translate(1083 403.992)">
      <g id="Group_7454" data-name="Group 7454" transform="translate(10.793 71.213)">
        <g id="Group_7453" data-name="Group 7453">
          <path id="Path_15491" data-name="Path 15491" d="M199.489,192.717a.6.6,0,1,0-.846.846,3.587,3.587,0,1,1-5.073,5.073.6.6,0,0,0-.845.845,4.783,4.783,0,1,0,6.764-6.764Z" transform="translate(-192.55 -192.542)" fill="#fff"/>
        </g>
      </g>
      <g id="Group_7456" data-name="Group 7456" transform="translate(9.567 69.987)">
        <g id="Group_7455" data-name="Group 7455">
          <path id="Path_15492" data-name="Path 15492" d="M176.285,170.742a4.736,4.736,0,0,0-5.617,4.7,4.681,4.681,0,0,0,.084.834.6.6,0,0,0,.587.494.53.53,0,0,0,.105-.01.6.6,0,0,0,.484-.692,3.465,3.465,0,0,1-.065-.625,3.545,3.545,0,0,1,4.213-3.524.6.6,0,1,0,.208-1.177Z" transform="translate(-170.668 -170.659)" fill="#fff"/>
        </g>
      </g>
      <g id="Group_7458" data-name="Group 7458" transform="translate(7.48 68.069)">
        <g id="Group_7457" data-name="Group 7457" transform="translate(0 0)">
          <path id="Path_15493" data-name="Path 15493" d="M154.514,142.776a29.046,29.046,0,0,0-7.832-6.247.6.6,0,1,0-.549,1.063,28.1,28.1,0,0,1,7.121,5.57c-1.425,1.544-7.035,7.175-12.949,7.175a13.787,13.787,0,0,1-6.013-1.441.6.6,0,1,0-.519,1.076,14.953,14.953,0,0,0,6.532,1.561c7.368,0,13.933-7.658,14.209-7.985A.6.6,0,0,0,154.514,142.776Z" transform="translate(-133.435 -136.461)" fill="#fff"/>
        </g>
      </g>
      <g id="Group_7460" data-name="Group 7460" transform="translate(0 66.399)">
        <g id="Group_7459" data-name="Group 7459" transform="translate(0 0)">
          <path id="Path_15494" data-name="Path 15494" d="M18.274,107.348a12.347,12.347,0,0,0-3.924-.689c-7.368,0-13.933,7.658-14.209,7.985a.6.6,0,0,0-.033.728,22.2,22.2,0,0,0,5.486,5.2.594.594,0,0,0,.828-.169.6.6,0,0,0-.167-.828,21.868,21.868,0,0,1-4.883-4.514c1.376-1.495,7.023-7.208,12.98-7.208a11.193,11.193,0,0,1,3.542.625.59.59,0,0,0,.757-.376A.6.6,0,0,0,18.274,107.348Z" transform="translate(0 -106.659)" fill="#fff"/>
        </g>
      </g>
      <g id="Group_7462" data-name="Group 7462" transform="translate(3.587 64.008)">
        <g id="Group_7461" data-name="Group 7461" transform="translate(0 0)">
          <path id="Path_15495" data-name="Path 15495" d="M85.346,64.183a.6.6,0,0,0-.846,0l-20.33,20.33a.6.6,0,0,0,.846.846l20.33-20.33A.6.6,0,0,0,85.346,64.183Z" transform="translate(-63.996 -64.008)" fill="#fff"/>
        </g>
      </g>
    </g>
  </g>
</svg>
