<svg xmlns="http://www.w3.org/2000/svg" width="52.319" height="52.319" viewBox="0 0 52.319 52.319">
  <g id="Group_7644" data-name="Group 7644" transform="translate(-1035.84 -224)">
    <g id="Group_7643" data-name="Group 7643" transform="translate(-34.907 -229)">
      <rect id="Rectangle_550" data-name="Rectangle 550" width="52.319" height="52.319" rx="26.16" transform="translate(1070.747 453)" fill="#4dcebf"/>
    </g>
    <g id="visibility_1_" data-name="visibility (1)" transform="translate(1047.808 134.94)">
      <g id="Group_7464" data-name="Group 7464" transform="translate(0 106.662)">
        <g id="Group_7463" data-name="Group 7463" transform="translate(0 0)">
          <path id="Path_15496" data-name="Path 15496" d="M28.486,114.663c-.225-.328-5.636-8-14.19-8-7.34,0-13.88,7.629-14.155,7.954a.6.6,0,0,0,0,.77c.275.325,6.816,7.954,14.155,7.954s13.88-7.629,14.155-7.954A.6.6,0,0,0,28.486,114.663ZM14.3,122.149c-5.884,0-11.478-5.611-12.9-7.148,1.419-1.538,7.007-7.148,12.9-7.148,6.885,0,11.744,5.6,12.931,7.116C25.856,116.457,20.23,122.149,14.3,122.149Z" transform="translate(0 -106.662)" fill="#fff"/>
        </g>
      </g>
      <g id="Group_7466" data-name="Group 7466" transform="translate(9.531 110.236)">
        <g id="Group_7465" data-name="Group 7465">
          <path id="Path_15497" data-name="Path 15497" d="M175.427,170.662a4.765,4.765,0,1,0,4.765,4.765A4.77,4.77,0,0,0,175.427,170.662Zm0,8.339A3.574,3.574,0,1,1,179,175.427,3.578,3.578,0,0,1,175.427,179Z" transform="translate(-170.662 -170.662)" fill="#fff"/>
        </g>
      </g>
    </g>
  </g>
</svg>
