<svg xmlns="http://www.w3.org/2000/svg" width="41.318" height="23.314" viewBox="0 0 41.318 23.314">
  <g id="view" transform="translate(0)">
    <g id="Group_529" data-name="Group 529">
      <g id="Group_528" data-name="Group 528">
        <path id="Path_297" data-name="Path 297" d="M41.055,103.781c-.369-.447-9.164-10.945-20.4-10.945S.631,103.333.262,103.78a1.1,1.1,0,0,0,0,1.423c.369.447,9.164,10.945,20.4,10.945s20.027-10.5,20.4-10.945A1.1,1.1,0,0,0,41.055,103.781Zm-20.4,9.957c-8.274,0-15.44-6.968-17.562-9.246,2.119-2.28,9.27-9.244,17.562-9.244,8.274,0,15.439,6.967,17.562,9.246C36.1,106.773,28.951,113.737,20.659,113.737Z" transform="translate(0 -92.835)" fill="#535353"/>
      </g>
    </g>
    <g id="Group_531" data-name="Group 531" transform="translate(12.486 4.887)">
      <g id="Group_530" data-name="Group 530" transform="translate(0 0)">
        <path id="Path_298" data-name="Path 298" d="M162.895,154.725c-4.506,0-8.173,3.037-8.173,6.77s3.666,6.77,8.173,6.77,8.173-3.037,8.173-6.77S167.4,154.725,162.895,154.725Zm0,11.283c-3,0-5.448-2.025-5.448-4.513s2.444-4.513,5.448-4.513,5.449,2.025,5.449,4.513S165.9,166.008,162.895,166.008Z" transform="translate(-154.722 -154.725)" fill="#535353"/>
      </g>
    </g>
  </g>
</svg>
